0
SECTION
2
HEADER
9
$INSUNITS
70
4
9
$ACADVER
1
AC1014
9
$HANDSEED
5
FFFF
0
ENDSEC
0
SECTION
2
TABLES
0
TABLE
2
VPORT
5
8
100
AcDbSymbolTable
0
ENDTAB
0
TABLE
2
LTYPE
5
5
100
AcDbSymbolTable
0
LTYPE
5
14
100
AcDbSymbolTableRecord
100
AcDbLinetypeTableRecord
2
BYBLOCK
70
0
0
LTYPE
5
15
100
AcDbSymbolTableRecord
100
AcDbLinetypeTableRecord
2
BYLAYER
70
0
0
ENDTAB
0
TABLE
2
LAYER
5
2
100
AcDbSymbolTable
70
2
0
LAYER
5
50
100
AcDbSymbolTableRecord
100
AcDbLayerTableRecord
2
0
70
0
6
CONTINUOUS
0
ENDTAB
0
TABLE
2
STYLE
5
3
100
AcDbSymbolTable
70
1
0
STYLE
5
11
100
AcDbSymbolTableRecord
100
AcDbTextStyleTableRecord
2
STANDARD
70
0
0
ENDTAB
0
TABLE
2
VIEW
5
6
100
AcDbSymbolTable
70
0
0
ENDTAB
0
TABLE
2
UCS
5
7
100
AcDbSymbolTable
70
0
0
ENDTAB
0
TABLE
2
APPID
5
9
100
AcDbSymbolTable
70
2
0
APPID
5
12
100
AcDbSymbolTableRecord
100
AcDbRegAppTableRecord
2
ACAD
70
0
0
ENDTAB
0
TABLE
2
DIMSTYLE
5
A
100
AcDbSymbolTable
70
1
0
ENDTAB
0
TABLE
2
BLOCK_RECORD
5
1
100
AcDbSymbolTable
70
1
0
BLOCK_RECORD
5
1F
100
AcDbSymbolTableRecord
100
AcDbBlockTableRecord
2
*MODEL_SPACE
0
BLOCK_RECORD
5
1B
100
AcDbSymbolTableRecord
100
AcDbBlockTableRecord
2
*PAPER_SPACE
0
ENDTAB
0
ENDSEC
0
SECTION
2
BLOCKS
0
BLOCK
5
20
100
AcDbEntity
100
AcDbBlockBegin
2
*MODEL_SPACE
0
ENDBLK
5
21
100
AcDbEntity
100
AcDbBlockEnd
0
BLOCK
5
1C
100
AcDbEntity
100
AcDbBlockBegin
2
*PAPER_SPACE
0
ENDBLK
5
1D
100
AcDbEntity
100
AcDbBlockEnd
0
ENDSEC
0
SECTION
2
ENTITIES
0
LINE
5
100
100
AcDbEntity
8
0
100
AcDbLine
10
272.17811190820873
20
-50.105420543861506
30
6.6613381477509392e-15
11
272.17454787608358
21
-62.105420025634423
31
6.6613381477509392e-15
0
ELLIPSE
5
101
100
AcDbEntity
8
0
100
AcDbEllipse
10
271.17454792018896
20
-62.105123022957599
30
6.6613381477509392e-15
11
0.00029700267681277763
21
0.9999999558947843
31
0.0
40
0.99999999999990452
41
3.1415497635771863
42
4.7123889803846897
0
LINE
5
102
100
AcDbEntity
8
0
100
AcDbLine
10
271.17420802750172
20
-63.105122965194155
30
6.6613381477509392e-15
11
259.17420872157902
21
-63.101044252892315
31
5.5511151231257827e-15
0
ELLIPSE
5
103
100
AcDbEntity
8
0
100
AcDbEllipse
10
259.17454861427092
20
-62.101044310655766
30
6.6613381477509392e-15
11
0.00033989269185686737
21
0.99999994223655264
31
0.0
40
0.99999999999990463
41
1.5707963267948681
42
3.1415926535897931
0
LINE
5
104
100
AcDbEntity
8
0
100
AcDbLine
10
258.17454867203446
20
-62.10070441796389
30
6.6613381477509392e-15
11
258.17862738433666
21
-50.100705111124896
31
6.6613381477509392e-15
0
ELLIPSE
5
105
100
AcDbEntity
8
0
100
AcDbEllipse
10
259.17862732657306
20
-50.101045003816758
30
6.6613381477509392e-15
11
-0.00033989269184797318
21
-0.99999994223651667
31
0.0
40
0.99999999999990441
41
3.1415926535897363
42
4.7123889803846755
0
LINE
5
106
100
AcDbEntity
8
0
100
AcDbLine
10
259.17896721926502
20
-49.101045061580244
30
6.6613381477509392e-15
11
271.1784518450059
21
-49.105123598946037
31
5.5511151231257827e-15
0
ELLIPSE
5
107
100
AcDbEntity
8
0
100
AcDbEllipse
10
271.178111952314
20
-50.105123541182621
30
6.6613381477509392e-15
11
-0.00033989269185687957
21
-0.9999999422365885
31
0.0
40
0.99999999999990452
41
1.5708392168100331
42
3.1415926535896794
0
LINE
5
108
100
AcDbEntity
8
0
100
AcDbLine
10
291.59391993981592
20
-81.060412497821801
30
6.6613381477509392e-15
11
278.59391994066317
21
-81.060412497778373
31
6.6613381477509392e-15
0
ELLIPSE
5
109
100
AcDbEntity
8
0
100
AcDbEllipse
10
278.59391994066323
20
-80.060412497778287
30
5.5511151231257827e-15
11
-2.4731803425691681e-14
21
-1.0000000000000711
31
0.0
40
0.99999999996986166
41
4.7123889803814496
42
6.2831853071794725
0
LINE
5
110
100
AcDbEntity
8
0
100
AcDbLine
10
277.5939199406933
20
-80.060412497775019
30
5.5511151231257827e-15
11
277.5939199406933
21
-75.060412497775019
31
6.6613381477509392e-15
0
ELLIPSE
5
111
100
AcDbEntity
8
0
100
AcDbEllipse
10
278.59391994066311
20
-75.060412497778287
30
5.5511151231257827e-15
11
3.2954938961241979e-12
21
0.99999999999996436
31
0.0
40
0.99999999996986155
41
0.00022890081568022048
42
1.570796326794925
0
ELLIPSE
5
112
100
AcDbEntity
8
0
100
AcDbEllipse
10
278.59346213904149
20
-73.060412550173936
30
6.6613381477509392e-15
11
0.00022890081077293277
21
-0.99999997380225336
31
0.0
40
0.99999999996985955
41
4.5474735088648997e-13
42
1.5705381449937696
0
LINE
5
113
100
AcDbEntity
8
0
100
AcDbLine
10
279.59346213858271
20
-73.060441831162279
30
6.6613381477509392e-15
11
279.5938977225166
21
-58.184441778756863
31
5.5511151231257827e-15
0
ELLIPSE
5
114
100
AcDbEntity
8
0
100
AcDbEllipse
10
278.59389772297544
20
-58.184412497768548
30
6.6613381477509392e-15
11
2.928098828770645e-05
21
0.99999999957132046
31
0.0
40
0.99999999996986244
41
4.7123889803846684
42
6.2832034793152269
0
ELLIPSE
5
115
100
AcDbEntity
8
0
100
AcDbEllipse
10
278.59391994066317
20
-56.184412497891962
30
6.6613381477509392e-15
11
-1.1108843871455698e-05
21
-0.99999999993829081
31
0.0
40
0.99999999996986155
41
6.2550488177041643
42
6.2831853071883401
0
ELLIPSE
5
116
100
AcDbEntity
8
0
100
AcDbEllipse
10
278.59375889580696
20
-56.18440797665157
30
6.6613381477509392e-15
11
-2.9280988287869223e-05
21
-0.99999999957132268
31
0.0
40
0.99999999996986222
41
4.7123889803846897
42
6.2552280981580681
0
LINE
5
117
100
AcDbEntity
8
0
100
AcDbLine
10
277.59375889626574
20
-56.184378695663284
30
6.6613381477509392e-15
11
277.59390531263273
21
-51.183987923493319
31
6.6613381477509392e-15
0
ELLIPSE
5
118
100
AcDbEntity
8
0
100
AcDbEllipse
10
278.59390531217394
20
-51.184017204481606
30
6.6613381477509392e-15
11
2.9280988287900597e-05
21
0.99999999957131558
31
0.0
40
0.99999999996986166
41
6.2831853071795294
42
7.8539816339744899
0
LINE
5
119
100
AcDbEntity
8
0
100
AcDbLine
10
278.5939345931622
20
-50.184017204910283
30
5.5511151231257827e-15
11
291.59411026622149
21
-50.184397862902131
31
6.6613381477509392e-15
0
ELLIPSE
5
120
100
AcDbEntity
8
0
100
AcDbEllipse
10
291.59408098523647
20
-51.184397862473439
30
6.6613381477509392e-15
11
2.9280984965834583e-05
21
0.99999999957131602
31
0.0
40
0.99999999996986189
41
4.7123889803813075
42
6.2831853071795862
0
LINE
5
121
100
AcDbEntity
8
0
100
AcDbLine
10
292.59408098477769
20
-51.184427143461797
30
6.6613381477509392e-15
11
292.59393456913068
21
-56.184793326616749
31
6.6613381477509392e-15
0
ELLIPSE
5
122
100
AcDbEntity
8
0
100
AcDbEllipse
10
293.5939345686719
20
-56.184822607605014
30
5.5511151231257827e-15
11
-2.9280988287918344e-05
21
-0.99999999957130936
31
0.0
40
0.99999999996986133
41
4.7123889803847039
42
5.7592564731874987
0
ELLIPSE
5
123
100
AcDbEntity
8
0
100
AcDbEllipse
10
292.59331223921237
20
-57.916513963971703
30
5.5511151231257827e-15
11
0.50031116472975667
21
0.86584567818334512
31
0.0
40
0.99999999998784483
41
5.2363470953433104
42
6.2831853071794725
0
LINE
5
124
100
AcDbEntity
8
0
100
AcDbLine
10
293.59331223919429
20
-57.916513963975063
30
6.6613381477509392e-15
11
293.59331223918224
21
-73.329122419569387
31
6.6613381477509392e-15
0
ELLIPSE
5
125
100
AcDbEntity
8
0
100
AcDbEllipse
10
292.59331223921231
20
-73.329122419566048
30
6.6613381477509392e-15
11
-3.3436542243886394e-12
21
-1.0000000000000036
31
0.0
40
0.99999999996986177
41
0.52394966724275305
42
1.5707963267948966
0
ELLIPSE
5
126
100
AcDbEntity
8
0
100
AcDbEllipse
10
293.59391993975902
20
-75.060822228874173
30
6.6613381477509392e-15
11
-0.50030385027337065
21
0.86584990465407408
31
0.0
40
0.99999999998205258
41
5.6843418860728851e-14
42
1.0468466595730277
0
LINE
5
127
100
AcDbEntity
8
0
100
AcDbLine
10
292.59391993977857
20
-75.060822228870848
30
6.6613381477509392e-15
11
292.59391993978909
21
-80.060412497825155
31
5.5511151231257827e-15
0
ELLIPSE
5
128
100
AcDbEntity
8
0
100
AcDbEllipse
10
291.59391993981922
20
-80.060412497821801
30
6.6613381477509392e-15
11
-3.3487856177457414e-12
21
-0.99999999999999956
31
0.0
40
0.99999999996986211
41
6.2831853071795294
42
7.8539816339744828
0
LWPOLYLINE
5
129
100
AcDbEntity
8
0
100
AcDbPolyline
90
88
70
1
43
0.0
10
364.09012504142822
20
-164.68796821381503
42
0.41416396509820691
10
365.09011866196965
20
-163.68813118631385
10
365.1171666486714
20
2.2784576344619367
42
0.41426316135910207
10
364.11716029587024
20
3.2786206069202759
10
356.07584385055986
20
3.2785694152415372
42
0.4141639651265665
10
355.07585022992168
20
2.2787323877403498
10
355.07532857404999
20
-0.92215078510364901
42
-0.99999999999999989
10
346.67532868560204
20
-0.92078181628380795
10
346.67585005445966
20
2.2783402355311555
42
0.41426316135910574
10
345.67584370165747
20
3.2785032079894365
10
280.75384385212368
20
3.278089909223973
42
0.41416396512655679
10
279.75385023148556
20
2.2782528817227821
10
279.75332857557794
20
-0.92263051533308604
42
-0.99999999999999989
10
271.35332868712999
20
-0.92126154651324477
10
271.35385005602359
20
2.2778607295141784
42
0.41426316135910607
10
270.35384370322191
20
3.2780237019724607
10
191.76949525786571
20
3.2775234275774459
42
0.41416396512654713
10
190.76950163722759
20
2.277686400076262
10
190.76897998135993
20
-0.9231967472404532
42
-0.99999999999999989
10
182.36898009291198
20
-0.92182777842061392
10
182.3695014617652
20
2.2772942478677871
42
0.41426316135910735
10
181.36949510896326
20
3.277457220326073
10
102.78514666360664
20
3.2769569459310683
42
0.41416396512653963
10
101.78515304296852
20
2.277119918429884
10
101.7846313871427
20
-0.92376297914782313
42
-0.99999999999999989
10
93.384631498694816
20
-0.92239401032798585
10
93.385152867506861
20
2.2767277662214047
42
0.41426316135911423
10
92.385146514704957
20
3.2768907386796968
10
27.463146665171188
20
3.2764774399142231
42
0.41416396512653447
10
26.463153044533094
20
2.2766404124130446
10
26.462631388670378
20
-0.92424270937726216
42
-0.99999999999999989
10
18.062631500222498
20
-0.92287374055742488
10
18.063152869071054
20
2.2762482602044365
42
0.41426316135909652
10
17.063146516269292
20
3.2764112326627171
10
9.0947125295053155
20
3.2763605049597508
42
0.41416396512655235
10
8.0947189088671596
20
2.276523477458543
10
8.0676709221683574
20
-163.69006537763073
42
0.41426316138740982
10
9.0676772750668277
20
-164.690228350089
10
17.063470718463201
20
-164.6901774474415
42
0.41416396509824649
10
18.063464339004696
20
-163.6903404199395
10
18.063660049908677
20
-162.48945728232496
42
-0.99999999999999989
10
26.463659938356603
20
-162.49082625114494
10
26.463464514467034
20
-163.68994826672446
42
0.41426316138740593
10
27.463470867365416
20
-164.69011123918273
10
92.38547071697559
20
-164.68969793414345
42
0.41416396509824327
10
93.385464337517078
20
-163.68986090664239
10
93.385660048393987
20
-162.48897793458707
42
-0.9999999925494194
10
101.78565993683171
20
-162.49034696599193
10
101.78546451297889
20
-163.689468753428
42
0.41426316138741764
10
102.78547086587744
20
-164.6896317258863
10
167.707470715488
20
-164.68921842084708
42
0.41416396509823811
10
168.70746433602949
20
-163.68938139334603
10
168.70766004685905
20
-162.48849871201895
42
-0.99999999999999989
10
177.10765993530686
20
-162.48986768083893
10
177.10746451149194
20
-163.68898924013166
42
0.41426316138740721
10
178.10747086439062
20
-164.68915221258993
10
179.06939751634894
20
-164.68914608879291
10
179.06935168059596
20
-157.48914090956592
42
0.41421356237324591
10
177.06933894847293
20
-155.48915364176943
10
16.045620489730439
20
-155.49017873192031
42
-0.41421356311191887
10
12.263596413285915
20
-151.70820279897794
10
12.263451469283295
20
-128.9310122007559
42
-0.41421356249299879
10
13.263445106113439
20
-127.93100583721719
10
359.87613196828698
20
-127.92880028884215
42
-0.4142135623731002
10
360.87613833141677
20
-128.92879392567193
10
360.87628326608137
20
-151.70598352275394
42
-0.4142135615143146
10
357.09430734267903
20
-155.48800758810924
10
196.06978587991594
20
-155.48903268337193
42
0.41421356237323548
10
194.06979861211951
20
-157.4890454154949
10
194.06984444787295
20
-164.68905059326994
10
195.03216790681222
20
-164.68904446694648
42
0.41416396509822773
10
196.03216152735368
20
-163.68920743944545
10
196.03235723833805
20
-162.48832381164289
42
-0.99999999999999989
10
204.43235712678586
20
-162.48969278046292
10
204.43216170281556
20
-163.68881528623106
42
0.41426316138741764
10
205.43216805571433
20
-164.68897825868936
10
270.35416790532429
20
-164.68856495365009
42
0.41416396509822773
10
271.35416152586572
20
-163.68872792614906
10
271.35435723680285
20
-162.48784458907377
42
-1.0000000074505804
10
279.75435712526087
20
-162.48921349530892
10
279.75416170132814
20
-163.68833577293367
42
0.41426316138742802
10
280.75416805422657
20
-164.68849874539194
10
345.6761679038371
20
-164.68808544035269
42
0.41416396509824849
10
346.67616152437859
20
-163.68824841285164
10
346.67635723529827
20
-162.48736517875105
42
-0.9999999925494194
10
355.07635712373599
20
-162.48873421015591
10
355.07616169984078
20
-163.68785625963724
42
0.4142631613874177
10
356.07616805273881
20
-164.68801923209554
0
LWPOLYLINE
5
130
100
AcDbEntity
8
0
100
AcDbPolyline
90
8
70
1
43
0.0
10
97.227618602481442
20
-29.967918658887921
10
109.22762508223894
20
-29.96784230105165
42
-0.41421356237277118
10
110.22763198537071
20
-30.967836477878322
10
110.22770834320769
20
-42.967842957635426
42
-0.41421356237341761
10
109.22771416637994
20
-43.967849860768268
10
97.227707686623546
20
-43.967926218604489
42
-0.41421356237308982
10
96.227700783490775
20
-42.967932041777729
10
96.22762442565444
20
-30.967925562020721
42
-0.41421356237315488
0
LWPOLYLINE
5
131
100
AcDbEntity
8
0
100
AcDbPolyline
90
8
70
1
43
0.0
10
175.90287138759595
20
-63.017435884154828
10
163.90286490783893
20
-63.017512241991092
42
-0.41421356237309243
10
162.90285800470616
20
-62.017518065164325
10
162.90278164687015
20
-50.01751158540732
42
-0.41421356237312629
10
163.90277582369694
20
-49.017504682274449
10
175.90278230345393
20
-49.017428324438256
42
-0.41421356237306117
10
176.9027892065867
20
-50.017422501264917
10
176.90286556442274
20
-62.017428981022029
42
-0.41421356237308726
0
LWPOLYLINE
5
132
100
AcDbEntity
8
0
100
AcDbPolyline
90
8
70
1
43
0.0
10
220.05288886454917
20
-62.01715441096902
42
0.414213562373134
10
221.05289576768197
20
-63.017148587795887
10
233.05290224743899
20
-63.017072229959595
42
0.41421356237307944
10
234.05289642426595
20
-62.017065326826817
10
234.05282006642975
20
-50.01705884706972
42
0.41421356237310281
10
233.05281316329695
20
-49.017064670243016
10
221.05280668353996
20
-49.017141028079251
42
0.4142135623730977
10
220.05281250671294
20
-50.017147931212023
0
LWPOLYLINE
5
133
100
AcDbEntity
8
0
100
AcDbPolyline
90
8
70
1
43
0.0
10
110.5157236752282
20
-123.93038484633993
42
0.41421356237309509
10
111.51573057836094
20
-124.93037902316667
10
123.51573705811795
20
-124.93030266533066
42
0.41421356237338125
10
124.51573123494495
20
-123.93029576219692
10
124.51565487710869
20
-111.93028928244092
42
0.4142135623731002
10
123.51564797397594
20
-110.93029510561392
10
111.51564149421894
20
-110.93037146345019
42
0.41421356237309509
10
110.51564731739194
20
-111.93037836658293
0
LWPOLYLINE
5
134
100
AcDbEntity
8
0
100
AcDbPolyline
90
8
70
1
43
0.0
10
15.265672242156539
20
-123.93099093666493
10
15.265595884320284
20
-111.93098445690792
42
-0.41421356237309176
10
16.265590061147037
20
-110.93097755377516
10
28.265596540904241
20
-110.93090119593917
42
-0.41421356237306772
10
29.265603444036884
20
-111.93089537276593
10
29.265679801873198
20
-123.93090185252292
42
-0.41421356237312756
10
28.265685625046338
20
-124.93090875565569
10
16.265679145289237
20
-124.93098511349162
42
-0.41421356237309176
0
LWPOLYLINE
5
135
100
AcDbEntity
8
0
100
AcDbPolyline
90
8
70
1
43
0.0
10
139.0907391051492
20
-123.93020301924193
42
0.41421356237339158
10
140.09074600828293
20
-124.93019719606866
10
152.09075248803995
20
-124.93012083823271
42
0.41421356237280893
10
153.09074666486595
20
-123.93011393509993
10
153.09067030702968
20
-111.93010745534292
42
0.41421356237309509
10
152.09066340389694
20
-110.93011327851593
10
140.09065692413995
20
-110.93018963635217
42
0.41421356237308982
10
139.09066274731293
20
-111.93019653948494
0
LWPOLYLINE
5
136
100
AcDbEntity
8
0
100
AcDbPolyline
90
8
70
1
43
0.0
10
344.87799476459799
20
-68.066363397270621
10
356.87800124435489
20
-68.066287039434386
42
-0.41421356237306384
10
357.87800814748772
20
-69.066281216261018
10
357.87808450532373
20
-81.066287696018122
42
-0.41421356237310542
10
356.87809032849708
20
-82.06629459915095
10
344.87808384874
20
-82.066370956987257
42
-0.41421356237312101
10
343.87807694560729
20
-81.066376780160425
10
343.87800058777117
20
-69.06637030040342
42
-0.41421356237309509
0
LWPOLYLINE
5
137
100
AcDbEntity
8
0
100
AcDbPolyline
90
8
70
1
43
0.0
10
224.8157853949142
20
-123.92965753794894
42
0.4142135623731002
10
225.81579229804697
20
-124.92965171477566
10
237.81579877780399
20
-124.92957535693969
42
0.41421356237308982
10
238.81579295463095
20
-123.92956845380692
10
238.81571659679469
20
-111.92956197404993
42
0.41421356237309509
10
237.81570969366197
20
-110.92956779722293
10
225.81570321390498
20
-110.92964415505917
42
0.41421356237309509
10
224.81570903707794
20
-111.92965105819192
0
LWPOLYLINE
5
138
100
AcDbEntity
8
0
100
AcDbPolyline
90
8
70
1
43
0.0
10
196.24076996499224
20
-123.92983936504693
42
0.41421356237338125
10
197.24077686812595
20
-124.92983354187366
10
209.24078334788294
20
-124.9297571840377
42
0.41421356237309509
10
210.24077752470896
20
-123.92975028090493
10
210.24070116687267
20
-111.92974380114792
42
0.41421356237307944
10
209.24069426373995
20
-110.92974962432092
10
197.24068778398291
20
-110.92982598215714
42
0.41421356237308982
10
196.24069360715595
20
-111.92983288528993
0
LWPOLYLINE
5
139
100
AcDbEntity
8
0
100
AcDbPolyline
90
8
70
1
43
0.0
10
235.34043561656597
20
-68.067060401144829
10
247.34044209632293
20
-68.066984043308565
42
-0.41421356237306117
10
248.3404489994557
20
-69.066978220135226
10
248.34052535729171
20
-81.06698469989233
42
-0.4142135623731002
10
247.34053118046501
20
-82.066991603025187
10
235.34052470070799
20
-82.067067960861365
42
-0.41421356237308982
10
234.34051779757522
20
-81.067073784034633
10
234.34044143973915
20
-69.067067304277629
42
-0.4142135623731002
0
LWPOLYLINE
5
140
100
AcDbEntity
8
0
100
AcDbPolyline
90
8
70
1
43
0.0
10
325.82798447798393
20
-68.066484615335725
10
337.82799095774095
20
-68.066408257499489
42
-0.41421356237304296
10
338.82799786087367
20
-69.066402434326122
10
338.82807421870973
20
-81.066408914083212
42
-0.41421356237307944
10
337.82808004188303
20
-82.066415817215969
10
325.82807356212595
20
-82.066492175052247
42
-0.41421356237308982
10
324.82806665899324
20
-81.066497998225515
10
324.82799030115615
20
-69.066491518468524
42
-0.41421356237338641
0
LWPOLYLINE
5
141
100
AcDbEntity
8
0
100
AcDbPolyline
90
8
70
1
43
0.0
10
43.840414931431695
20
-81.06828596468543
42
0.4142135623731783
10
44.840421834564737
20
-82.068280141512147
10
56.840428314321642
20
-82.068203783675884
42
0.41421356237309509
10
57.840422491148338
20
-81.068196880543027
10
57.840346133311996
20
-69.068190400786023
42
0.41421356237303525
10
56.840339230179346
20
-68.06819622395922
10
44.840332750422235
20
-68.068272581795654
42
0.4142135623730977
10
43.840338573595439
20
-69.068279484928425
0
LWPOLYLINE
5
142
100
AcDbEntity
8
0
100
AcDbPolyline
90
8
70
1
43
0.0
10
257.86557536082796
20
-88.116927897717034
10
257.86565171866368
20
-100.11693437747394
42
-0.41421356237309509
10
256.86565754183692
20
-101.1169412806067
10
244.86565106207996
20
-101.11701763844266
42
-0.41421356237308982
10
243.86564415894722
20
-100.11702346161593
10
243.86556780111118
20
-88.117016981859422
42
-0.41421356237309509
10
244.86556197793794
20
-87.117010078726651
10
256.86556845769496
20
-87.116933720890103
42
-0.4142135623730534
0
LWPOLYLINE
5
143
100
AcDbEntity
8
0
100
AcDbPolyline
90
8
70
1
43
0.0
10
199.71562668199394
20
-101.11730493480192
10
187.71562020223695
20
-101.11738129263867
42
-0.41421356237309509
10
186.71561329910421
20
-100.11738711581191
10
186.71553694126817
20
-88.117380636054619
42
-0.41421356237309509
10
187.71553111809496
20
-87.117373732921862
10
199.71553759785195
20
-87.117297375085684
42
-0.41421356237307422
10
200.71554450098472
20
-88.117291551912317
10
200.71562085882093
20
-100.11729803166892
42
-0.4142135623731002
0
LWPOLYLINE
5
144
100
AcDbEntity
8
0
100
AcDbPolyline
90
8
70
1
43
0.0
10
277.20267728826218
20
-23.916770183545218
42
0.41421356237307422
10
278.20268419139495
20
-24.916764360371886
10
292.58394195697895
20
-24.9166728502775
42
0.41421356237309892
10
293.58393613380497
20
-23.916665947144718
10
293.58385977596873
20
-11.916659467387621
42
0.41421356237305273
10
292.58385287283596
20
-10.916665290560921
10
278.20259510725197
20
-10.916756800655346
42
0.4142135623730977
10
277.20260093042594
20
-11.916763703788121
0
LWPOLYLINE
5
145
100
AcDbEntity
8
0
100
AcDbPolyline
90
8
70
1
43
0.0
10
224.81563387233319
20
-100.11714467968193
42
0.4142135623731002
10
225.81564077546597
20
-101.11713885650866
10
237.81564725522298
20
-101.11706249867169
42
0.41421356237308465
10
238.81564143204895
20
-100.11705559553891
10
238.81556507421269
20
-88.117049115782123
42
0.41421356237277246
10
237.81555817108097
20
-87.117054938955306
10
225.81555169132292
20
-87.11713129679174
42
0.41421356237308982
10
224.81555751449696
20
-88.117138199924511
0
LWPOLYLINE
5
146
100
AcDbEntity
8
0
100
AcDbPolyline
90
8
70
1
43
0.0
10
318.77770610107297
20
-24.916506175438023
10
306.77769962131595
20
-24.916582533274294
42
-0.41421356237309243
10
305.77769271818318
20
-23.916588356447519
10
305.77761636034717
20
-11.91658187669052
42
-0.41421356237308726
10
306.77761053717393
20
-10.916574973557744
10
318.77761701693095
20
-10.916498615721446
42
-0.41421356237305273
10
319.77762392006366
20
-11.916492792548119
10
319.77770027789967
20
-23.916499272305224
42
-0.41421356237311585
0
LWPOLYLINE
5
147
100
AcDbEntity
8
0
100
AcDbPolyline
90
8
70
1
43
0.0
10
62.89042521804604
20
-81.068164746620326
10
62.890348860209784
20
-69.068158266863222
42
-0.41421356237315227
10
63.890343037036843
20
-68.068151363730578
10
75.890349516793748
20
-68.068075005894272
42
-0.41421356237297796
10
76.890356419926192
20
-69.068069182720933
10
76.890432777762499
20
-81.068075662478009
42
-0.41421356237309243
10
75.890438600935852
20
-82.068082565610879
10
63.890432121178939
20
-82.068158923447129
42
-0.41421356237312101
0
LWPOLYLINE
5
148
100
AcDbEntity
8
0
100
AcDbPolyline
90
8
70
1
43
0.0
10
266.39054146707895
20
-82.066870384960012
10
254.39053498732198
20
-82.066946742796347
42
-0.41421356237312101
10
253.39052808418924
20
-81.066952565969515
10
253.39045172635315
20
-69.066946086212525
42
-0.41421356237309509
10
254.39044590317994
20
-68.066939183079754
10
266.39045238293693
20
-68.066862825243447
42
-0.4142135623731002
10
267.39045928606976
20
-69.066857002070222
10
267.39053564390565
20
-81.066863481827326
42
-0.4142135623731002
0
LWPOLYLINE
5
149
100
AcDbEntity
8
0
100
AcDbPolyline
90
8
70
1
43
0.0
10
58.12768021026217
20
-42.96817447790793
42
0.41421356237309243
10
59.127687113394941
20
-43.968168654734683
10
71.127693593152046
20
-43.968092296898369
42
0.41421356237311846
10
72.127687769978849
20
-42.968085393765627
10
72.127611412142613
20
-30.968078914008519
42
0.41421356237297924
10
71.127604509010141
20
-29.968084737181822
10
59.127598029252937
20
-29.968161095018068
42
0.41421356237318085
10
58.127603852425942
20
-30.968167998150822
0
LWPOLYLINE
5
150
100
AcDbEntity
8
0
100
AcDbPolyline
90
8
70
1
43
0.0
10
100.99044579127421
20
-81.067922310490218
42
0.41421356237309509
10
101.99045269440694
20
-82.067916487316964
10
113.99045917416395
20
-82.067840129480643
42
0.41421356237308982
10
114.99045335099095
20
-81.067833226347915
10
114.99037699315471
20
-69.067826746590825
42
0.41421356237306645
10
113.99037009002194
20
-68.067832569764121
10
101.99036361026495
20
-68.067908927600371
42
0.4142135623731002
10
100.99036943343793
20
-69.067915830733128
0
LWPOLYLINE
5
151
100
AcDbEntity
8
0
100
AcDbPolyline
90
8
70
1
43
0.0
10
18.646447388262438
20
-49.018428970020778
42
0.4142135623730937
10
17.646453211435592
20
-50.018435873153422
10
17.646529569271785
20
-62.018442352910519
42
0.4142135623730977
10
18.646536472404538
20
-63.01843652973723
10
35.409045523815436
20
-63.018329867384779
42
0.41421356237303653
10
36.40903970064214
20
-62.018322964252022
10
36.408963342805706
20
-50.018316484494818
42
0.41421356237315227
10
35.408956439672636
20
-49.018322307668129
0
LWPOLYLINE
5
152
100
AcDbEntity
8
0
100
AcDbPolyline
90
8
70
1
43
0.0
10
166.37774502622395
20
-43.967486206573021
10
154.37773854646696
20
-43.967562564409299
42
-0.4142135623731002
10
153.37773164333419
20
-42.967568387582517
10
153.37765528549716
20
-30.967561907825424
42
-0.414213562373069
10
154.37764946232394
20
-29.967555004692755
10
166.37765594208093
20
-29.967478646856449
42
-0.41421356237306384
10
167.37766284521371
20
-30.967472823683124
10
167.37773920305074
20
-42.967479303440221
42
-0.41421356237308726
0
LWPOLYLINE
5
153
100
AcDbEntity
8
0
100
AcDbPolyline
90
8
70
1
43
0.0
10
77.17769049687638
20
-42.968053259842819
42
0.41421356237318346
10
78.177697400009436
20
-43.968047436669586
10
90.177703879766341
20
-43.967971078833372
42
0.41421356237309509
10
91.177698056592945
20
-42.96796417570053
10
91.177621698756724
20
-30.967957695943422
42
0.414213562373069
10
90.177614795623938
20
-29.967963519116722
10
78.177608315866948
20
-29.968039876953068
42
0.4142135623730977
10
77.177614139040145
20
-30.968046780085821
0
LWPOLYLINE
5
154
100
AcDbEntity
8
0
100
AcDbPolyline
90
8
70
1
43
0.0
10
230.57769060878198
20
-29.967070132432344
42
0.4142135623730977
10
229.57769643195519
20
-30.967077035565119
10
229.57777278979114
20
-42.96708351532223
42
0.4142135623731002
10
230.57777969292397
20
-43.967077692148919
10
242.57778617268093
20
-43.967001334312698
42
0.4142135623730977
10
243.57778034950795
20
-42.966994431179927
10
243.57770399167174
20
-30.966987951422823
42
0.4142135623730625
10
242.57769708853897
20
-29.966993774596119
0
LWPOLYLINE
5
155
100
AcDbEntity
8
0
100
AcDbPolyline
90
8
70
1
43
0.0
10
254.39008224898498
20
-10.916908323236644
42
0.4142135623730977
10
253.39008807215819
20
-11.91691522636942
10
253.39016442999417
20
-23.916921706126519
42
0.41421356237310414
10
254.39017133312694
20
-24.916915882953219
10
268.77142909871094
20
-24.916824372858901
42
0.41421356237310936
10
269.77142327553696
20
-23.916817469726119
10
269.77134691770073
20
-11.91681098996902
42
0.41421356237281148
10
268.77134001456892
20
-10.916816813142221
0
LWPOLYLINE
5
156
100
AcDbEntity
8
0
100
AcDbPolyline
90
8
70
1
43
0.0
10
324.82782422286328
20
-42.966477424996825
42
0.41421356237309243
10
325.827831125996
20
-43.966471601823585
10
337.82783760575296
20
-43.966395243987265
42
0.4142135623730977
10
338.82783178257898
20
-42.966388340854522
10
338.82775542474269
20
-30.966381861097425
42
0.41421356237306384
10
337.82774852160998
20
-29.966387684270721
10
325.82774204185296
20
-29.966464042107074
42
0.41421356237309892
10
324.82774786502694
20
-30.966470945239823
0
LWPOLYLINE
5
157
100
AcDbEntity
8
0
100
AcDbPolyline
90
8
70
1
43
0.0
10
139.09046636450321
20
-81.067679874360024
42
0.4142135623731002
10
140.09047326763596
20
-82.067674051186771
10
152.09047974739295
20
-82.067597693350592
42
0.41421356237312101
10
153.09047392421994
20
-81.067590790217722
10
153.09039756638367
20
-69.067584310460632
42
0.41421356237306117
10
152.09039066325096
20
-68.067590133633928
10
140.09038418349394
20
-68.067666491470263
42
0.41421356237309509
10
139.09039000666695
20
-69.06767339460302
0
LWPOLYLINE
5
158
100
AcDbEntity
8
0
100
AcDbPolyline
90
8
70
1
43
0.0
10
239.10289915116394
20
-62.017033192903916
10
239.10282279332719
20
-50.017026713146926
42
-0.4142135623730977
10
240.10281697015398
20
-49.017019810014155
10
252.10282344991097
20
-49.016943452177948
42
-0.41421356237306384
10
253.10283035304371
20
-50.016937629004623
10
253.10290671087972
20
-62.01694410876172
42
-0.4142135623730977
10
252.10291253405296
20
-63.016951011894491
10
240.10290605429594
20
-63.017027369730016
42
-0.414213562373134
0
LWPOLYLINE
5
159
100
AcDbEntity
8
0
100
AcDbPolyline
90
8
70
1
43
0.0
10
143.85284771809194
20
-62.017639283229428
10
143.85277136025519
20
-50.017632803472324
42
-0.41421356237309243
10
144.85276553708195
20
-49.017625900339553
10
156.85277201683991
20
-49.017549542503254
42
-0.41421356237280627
10
157.85277891997171
20
-50.017543719330028
10
157.85285527780871
20
-62.017550199087125
42
-0.41421356237309243
10
156.85286110098195
20
-63.017557102219889
10
144.85285462122496
20
-63.017633460055436
42
-0.41421356237338897
0
LWPOLYLINE
5
160
100
AcDbEntity
8
0
100
AcDbPolyline
90
20
70
1
43
0.0
10
294.87858262079169
20
-86.116691298374732
42
0.41421356237307944
10
293.87857571765892
20
-85.116697121548071
10
288.87857301776091
20
-85.116728937313141
42
0.41421356237308982
10
287.87857884093376
20
-86.116735840445926
42
-0.4142135623731002
10
286.87858466410694
20
-87.116742743578726
10
272.00257663136796
20
-87.11683740184256
42
-0.41421356237308982
10
271.0025697282357
20
-86.116843225016325
42
0.41421356237310542
10
270.00256282510293
20
-85.116849048189621
10
265.0025601252039
20
-85.116880863954648
42
0.41421356237312101
10
264.00256594837697
20
-86.116887767087533
10
264.00264866936618
20
-99.116894786824218
42
0.41421356237310542
10
265.00265557249895
20
-100.11688896365092
10
271.70860838600697
20
-100.11684629267049
42
-0.26794919243110171
10
272.57463743900382
20
-100.61684105200803
42
0.26794919243137943
10
273.44066649200192
20
-101.11683581134592
10
285.44067297175894
20
-101.11675945350966
42
0.26794919243127541
10
286.30669566160276
20
-100.61675367286681
42
-0.26794919243103388
10
287.17271835144692
20
-100.11674789222494
10
293.87867116495494
20
-100.1167052212444
42
0.41421356237312629
10
294.87866534178096
20
-99.116698318111531
0
LWPOLYLINE
5
161
100
AcDbEntity
8
0
100
AcDbPolyline
90
8
70
1
43
0.0
10
18.646204952131839
20
-10.918408396792072
42
0.41421356237300722
10
17.646210775305391
20
-11.918415299924819
10
17.646287133141673
20
-23.918421779681822
42
0.41421356237312362
10
18.646294036274536
20
-24.918415956508625
10
33.027551801858237
20
-24.918324446414175
42
0.41421356237309509
10
34.027545978685438
20
-23.918317543281418
10
34.027469620848805
20
-11.918311063524222
42
0.41421356237303714
10
33.027462717716141
20
-10.918316886697619
0
LWPOLYLINE
5
162
100
AcDbEntity
8
0
100
AcDbPolyline
90
8
70
1
43
0.0
10
337.82771638768799
20
-24.916384957372969
42
0.41421356237309892
10
338.82771056451475
20
-23.916378054240219
10
338.82763420667771
20
-11.91637157448312
42
0.41421356237309243
10
337.827627303545
20
-10.916377397656321
10
325.82762082378798
20
-10.916453755492675
42
0.4142135623730977
10
324.82762664696202
20
-11.916460658625422
10
324.82770300479729
20
-23.916467138382419
42
0.41421356237341372
10
325.82770990793102
20
-24.916461315209219
0
LWPOLYLINE
5
163
100
AcDbEntity
8
0
100
AcDbPolyline
90
8
70
1
43
0.0
10
305.77805637237896
20
-81.066619216290633
10
305.77798001454221
20
-69.066612736533529
42
-0.4142135623730977
10
306.77797419136897
20
-68.066605833400743
10
318.77798067112593
20
-68.06652947556455
42
-0.41421356237307161
10
319.77798757425876
20
-69.066523652391226
10
319.77806393209568
20
-81.06653013214833
42
-0.41421356237308465
10
318.77806975526897
20
-82.066537035281058
10
306.77806327551195
20
-82.066613393117578
42
-0.4142135623731002
0
LWPOLYLINE
5
164
100
AcDbEntity
8
0
100
AcDbPolyline
90
8
70
1
43
0.0
10
91.20875049756593
20
-11.917947210480619
10
100.96500576574392
20
-11.917885129968848
42
-0.4142135623730977
10
101.96501266887672
20
-12.917879306795621
10
101.9650953898657
20
-25.917886326532418
42
-0.41421356237312235
10
100.96510121303895
20
-26.917893229665268
10
91.208845944861338
20
-26.917955310176996
42
-0.41421356237312235
10
90.208839041728567
20
-25.917961133350119
10
90.208756320739354
20
-12.917954113613419
42
-0.41421356237308982
0
LWPOLYLINE
5
165
100
AcDbEntity
8
0
100
AcDbPolyline
90
8
70
1
43
0.0
10
172.42774192994796
20
-42.96744716951742
10
172.42766557211215
20
-30.967440689760419
42
-0.41421356237280493
10
173.42765974893794
20
-29.967433786627645
10
185.42766622869595
20
-29.967357428791349
42
-0.4142135623730534
10
186.4276731318287
20
-30.967351605618024
10
186.42774948966473
20
-42.967358085375118
42
-0.41421356237308982
10
185.42775531283797
20
-43.967364988507896
10
173.42774883308095
20
-43.967441346344451
42
-0.41421356237309509
0
LWPOLYLINE
5
166
100
AcDbEntity
8
0
100
AcDbPolyline
90
8
70
1
43
0.0
10
65.271312849677585
20
-23.918118734519119
42
0.41421356237317958
10
66.271319752810626
20
-24.918112911345887
10
80.65257751839404
20
-24.918021401251469
42
0.41421356237306772
10
81.652571695220729
20
-23.918014498118719
10
81.652495337384522
20
-11.918008018361622
42
0.41421356237306317
10
80.652488434251751
20
-10.918013841534819
10
66.271230668668139
20
-10.918105351629366
42
0.41421356237312362
10
65.27123649184135
20
-11.918112254762121
0
LWPOLYLINE
5
167
100
AcDbEntity
8
0
100
AcDbPolyline
90
8
70
1
43
0.0
10
120.04045607788922
20
-81.067801092425128
42
0.41421356237308982
10
121.04046298102193
20
-82.06779526925186
10
133.04046946077895
20
-82.067718911415568
42
0.41421356237309509
10
134.04046363760494
20
-81.067712008282825
10
134.04038727976871
20
-69.067705528525721
42
0.41421356237306645
10
133.04038037663594
20
-68.067711351699032
10
121.04037389687895
20
-68.067787709535281
42
0.41421356237309509
10
120.04037972005294
20
-69.067794612668024
0
LWPOLYLINE
5
168
100
AcDbEntity
8
0
100
AcDbPolyline
90
8
70
1
43
0.0
10
136.70885142448094
20
-23.917664166775122
10
136.70877506664516
20
-11.91765768701802
42
-0.4142135623730977
10
137.70876924347195
20
-10.917650783885255
10
161.61503215236294
20
-10.917498664758348
42
-0.41421356237306317
10
162.61503905549571
20
-11.91749284158502
10
162.61511541333175
20
-23.91749932134212
42
-0.41421356237310802
10
161.61512123650493
20
-24.917506224474899
10
137.70885832761397
20
-24.917658343602106
42
-0.4142135623730977
0
LWPOLYLINE
5
169
100
AcDbEntity
8
0
100
AcDbPolyline
90
8
70
1
43
0.0
10
67.6528065716345
20
-62.018124155489723
42
0.41421356237312101
10
68.652813474767342
20
-63.018118332316476
10
80.652819954524261
20
-63.01804197448017
42
0.41421356237305601
10
81.652814131351136
20
-62.01803507134742
10
81.652737773514616
20
-50.018028591590323
42
0.41421356237298057
10
80.652730870382143
20
-49.018034414763619
10
68.652724390625352
20
-49.018110772599869
42
0.41421356237318346
10
67.65273021379835
20
-50.018117675732618
0
LWPOLYLINE
5
170
100
AcDbEntity
8
0
100
AcDbPolyline
90
8
70
1
43
0.0
10
228.29052089385098
20
-82.067112821090205
10
216.29051441409393
20
-82.067189178926455
42
-0.41421356237339679
10
215.2905075109602
20
-81.067195002099709
10
215.29043115312419
20
-69.067188522342732
42
-0.41421356237308982
10
216.29042532995095
20
-68.067181619209947
10
228.29043180970797
20
-68.067105261373641
42
-0.41421356237306645
10
229.29043871284074
20
-69.06709943820033
10
229.29051507067666
20
-81.067105917957406
42
-0.41421356237282969
0
LWPOLYLINE
5
171
100
AcDbEntity
8
0
100
AcDbPolyline
90
8
70
1
43
0.0
10
182.95278611031094
20
-49.017383464209452
42
0.41421356237309509
10
181.95279193348415
20
-50.017390367342216
10
181.95286829132019
20
-62.017396847099221
42
0.41421356237309243
10
182.95287519445296
20
-63.017391023926024
10
194.95288167420995
20
-63.017314666089696
42
0.4142135623730977
10
195.95287585103694
20
-62.017307762956918
10
195.95279949320073
20
-50.017301283199828
42
0.41421356237306384
10
194.95279259006796
20
-49.017307106373124
0
LWPOLYLINE
5
172
100
AcDbEntity
8
0
100
AcDbPolyline
90
14
70
1
43
0.0
10
208.14638999928519
20
-23.917209599031118
42
0.28606663487952705
10
208.70577101348306
20
-24.814897790556888
42
-0.28606663487950601
10
209.26515202768098
20
-25.712585982082821
10
209.26515332969319
20
-25.917203560213125
42
0.41421356237308071
10
210.26516023282593
20
-26.917197737039924
10
215.26516293272493
20
-26.917165921274801
42
0.41421356237310802
10
216.26515710955115
20
-25.917159018142023
42
-0.4142135623730977
10
217.26515128637797
20
-24.917152115009223
10
221.14640338217495
20
-24.9171274180216
42
0.41421356237312756
10
222.14639755900194
20
-23.917120514888719
10
222.14632120116573
20
-11.91711403513162
42
0.41421356237307361
10
221.14631429803293
20
-10.91711985830492
10
209.14630781827594
20
-10.917196216141246
42
0.41421356237308726
10
208.14631364144898
20
-11.917203119274021
0
LWPOLYLINE
5
173
100
AcDbEntity
8
0
100
AcDbPolyline
90
8
70
1
43
0.0
10
191.19069088025896
20
-111.92986501921294
10
191.19076723809471
20
-123.92987149896993
42
-0.41421356237308465
10
190.19077306126798
20
-124.92987840210269
10
178.19076658151096
20
-124.92995475993867
42
-0.41421356237310542
10
177.19075967837821
20
-123.92996058311192
10
177.19068332054218
20
-111.92995410335493
42
-0.41421356237308982
10
178.19067749736891
20
-110.92994720022216
10
190.19068397712596
20
-110.9298708423859
42
-0.41421356237309509
0
LWPOLYLINE
5
174
100
AcDbEntity
8
0
100
AcDbPolyline
90
8
70
1
43
0.0
10
192.47767003555293
20
-29.967312568562544
42
0.41421356237308726
10
191.47767585872617
20
-30.967319471695323
10
191.47775221656218
20
-42.967325951452324
42
0.4142135623733838
10
192.47775911969595
20
-43.96732012827912
10
204.47776559945294
20
-43.967243770442892
42
0.41421356237280371
10
205.47775977627896
20
-42.967236867310127
10
205.47768341844275
20
-30.96723038755302
42
0.41421356237310281
10
204.47767651530995
20
-29.967236210726323
0
LWPOLYLINE
5
175
100
AcDbEntity
8
0
100
AcDbPolyline
90
8
70
1
43
0.0
10
128.27772445299493
20
-43.967728642703122
10
116.27771797323796
20
-43.967805000539492
42
-0.41421356237309243
10
115.27771107010517
20
-42.967810823712718
10
115.27763471226919
20
-30.967804343955621
42
-0.41421356237309243
10
116.27762888909594
20
-29.967797440822874
10
128.27763536885294
20
-29.96772108298655
42
-0.4142135623730977
10
129.27764227198571
20
-30.967715259813321
10
129.27771862982166
20
-42.967721739570322
42
-0.41421356237313145
0
LWPOLYLINE
5
176
100
AcDbEntity
8
0
100
AcDbPolyline
90
8
70
1
43
0.0
10
357.87764449329273
20
-11.916250356418022
42
0.41421356237309243
10
356.87763759016002
20
-10.916256179591258
10
344.877631110403
20
-10.916332537427573
42
0.41421356237311846
10
343.87763693357601
20
-11.91633944056032
10
343.87771329141225
20
-23.916345920317422
42
0.41421356237311319
10
344.87772019454502
20
-24.916340097144023
10
356.87772667430193
20
-24.916263739307869
42
0.41421356237309892
10
357.87772085112897
20
-23.916256836175119
0
LWPOLYLINE
5
177
100
AcDbEntity
8
0
100
AcDbPolyline
90
8
70
1
43
0.0
10
230.57756939071695
20
-10.917059845817921
10
244.95882715630097
20
-10.916968335723647
42
-0.41421356237306317
10
245.95883405943371
20
-11.91696251255032
10
245.95891041726972
20
-23.916968992307424
42
-0.41421356237309637
10
244.95891624044293
20
-24.916975895440196
10
230.57765847485894
20
-24.917067405534592
42
-0.41421356237308071
10
229.57765157172619
20
-23.917073228707824
10
229.57757521389004
20
-11.91706674895082
42
-0.41421356237308726
0
LWPOLYLINE
5
178
100
AcDbEntity
8
0
100
AcDbPolyline
90
8
70
1
43
0.0
10
81.940435504660428
20
-81.068043528555208
10
81.94035914682388
20
-69.068037048798232
42
-0.4142135623731002
10
82.940353323650641
20
-68.068030145665475
10
94.940359803407716
20
-68.067953787829168
42
-0.41421356237304041
10
95.940366706540402
20
-69.067947964655829
10
95.94044306437668
20
-81.067954444413033
42
-0.41421356237303264
10
94.940448887550147
20
-82.067961347545761
10
82.940442407793228
20
-82.068037705381727
42
-0.41421356237318346
0
LWPOLYLINE
5
179
100
AcDbEntity
8
0
100
AcDbPolyline
90
8
70
1
43
0.0
10
196.20890264273595
20
-26.917287179109621
10
191.20889994283692
20
-26.917318994874691
42
-0.41421356237309243
10
190.20889303970418
20
-25.91732481804792
10
190.20881031871514
20
-12.917317798311121
42
-0.41421356237310802
10
191.20880449554195
20
-11.917310895178346
10
196.20880719543993
20
-11.917279079413248
42
-0.41421356237306317
10
197.2088140985727
20
-12.91727325623992
10
197.20889681956277
20
-25.917280275976719
42
-0.41421356237312756
0
LWPOLYLINE
5
180
100
AcDbEntity
8
0
100
AcDbPolyline
90
8
70
1
43
0.0
10
210.24042842622694
20
-69.06722065626542
10
210.24050478406275
20
-81.067227136022524
42
-0.41421356237308982
10
209.24051060723599
20
-82.067234039155309
10
197.240504127479
20
-82.067310396991559
42
-0.4142135623731002
10
196.2404972243462
20
-81.067316220164827
10
196.24042086651019
20
-69.067309740407822
42
-0.41421356237311319
10
197.24041504333695
20
-68.067302837274951
10
209.24042152309394
20
-68.067226479438546
42
-0.41421356237307161
0
LWPOLYLINE
5
181
100
AcDbEntity
8
0
100
AcDbPolyline
90
8
70
1
43
0.0
10
178.19040475672193
20
-68.067424055340027
10
190.19041123647995
20
-68.067347697503749
42
-0.4142135623728011
10
191.19041813961172
20
-69.067341874330523
10
191.1904944974487
20
-81.067348354087528
42
-0.41421356237312629
10
190.19050032062194
20
-82.067355257220399
10
178.19049384086497
20
-82.067431615056648
42
-0.41421356237308982
10
177.1904869377322
20
-81.067437438229916
10
177.19041057989514
20
-69.067430958472826
42
-0.41421356237308982
0
LWPOLYLINE
5
182
100
AcDbEntity
8
0
100
AcDbPolyline
90
8
70
1
43
0.0
10
218.76563696860896
20
-101.11718371673669
42
0.41421356237280371
10
219.76563114543472
20
-100.11717681360393
10
219.76555478759872
20
-88.117170333847227
42
0.41421356237307422
10
218.76554788446595
20
-87.117176157020509
10
206.76554140470896
20
-87.117252514856744
42
0.41421356237313145
10
205.76554722788194
20
-88.117259417989629
10
205.7656235857182
20
-100.11726589774693
42
0.41421356237310542
10
206.76563048885097
20
-101.11726007457293
0
LWPOLYLINE
5
183
100
AcDbEntity
8
0
100
AcDbPolyline
90
8
70
1
43
0.0
10
34.315531006189936
20
-100.11835686033193
10
34.315454648353288
20
-88.118350380575322
42
-0.41421356237315354
10
35.315448825180141
20
-87.118343477442465
10
47.315455304937338
20
-87.118267119606259
42
-0.4142135623729728
10
48.315462208069782
20
-88.118261296432905
10
48.315538565906095
20
-100.11826777618991
42
-0.4142135623730977
10
47.315544389079342
20
-101.1182746793227
10
35.315537909322437
20
-101.11835103715822
42
-0.41421356237314966
0
LWPOLYLINE
5
184
100
AcDbEntity
8
0
100
AcDbPolyline
90
8
70
1
43
0.0
10
275.91581935103295
20
-124.9293329208097
42
0.41421356237308465
10
276.91581352785971
20
-123.92932601767694
10
276.91573717002268
20
-111.92931953791992
42
0.41421356237307944
10
275.91573026688997
20
-110.92932536109291
10
263.91572378713295
20
-110.92940171892914
42
0.4142135623731002
10
262.91572961030693
20
-111.92940862206193
10
262.91580596814322
20
-123.92941510181893
42
0.41421356237307944
10
263.91581287127593
20
-124.92940927864592
0
LWPOLYLINE
5
185
100
AcDbEntity
8
0
100
AcDbPolyline
90
8
70
1
43
0.0
10
158.14047665111795
20
-81.067558656294921
10
158.14040029328117
20
-69.067552176537831
42
-0.41421356237306384
10
159.14039447010794
20
-68.067545273405159
10
171.14040094986495
20
-68.067468915568853
42
-0.41421356237305079
10
172.1404078529977
20
-69.067463092395528
10
172.14048421083373
20
-81.067469572152632
42
-0.41421356237283485
10
171.14049003400794
20
-82.067476475285503
10
159.14048355425095
20
-82.067552833120914
42
-0.41421356237339158
0
LWPOLYLINE
5
186
100
AcDbEntity
8
0
100
AcDbPolyline
90
8
70
1
43
0.0
10
119.75275834674395
20
-50.017786155460122
10
119.7528347045797
20
-62.017792635217219
42
-0.41421356237312101
10
118.75284052775297
20
-63.017799538350062
10
106.75283404799598
20
-63.017875896186275
42
-0.4142135623730977
10
105.75282714486319
20
-62.017881719359522
10
105.75275078702718
20
-50.017875239602525
42
-0.4142135623728011
10
106.75274496385293
20
-49.017868336469775
10
118.75275144361095
20
-49.017791978633198
42
-0.41421356237306384
0
LWPOLYLINE
5
187
100
AcDbEntity
8
0
100
AcDbPolyline
90
8
70
1
43
0.0
10
48.602796285020077
20
-62.018245373554819
42
0.41421356237321466
10
49.602803188153246
20
-63.01823955038158
10
61.602809667910243
20
-63.018163192545281
42
0.41421356237303786
10
62.602803844736741
20
-62.018156289412516
10
62.602727486900505
20
-50.018149809655419
42
0.4142135623730977
10
61.602720583767734
20
-49.018155632828623
10
49.602714104010637
20
-49.018231990664972
42
0.41421356237309509
10
48.60271992718414
20
-50.018238893797722
0
LWPOLYLINE
5
188
100
AcDbEntity
8
0
100
AcDbPolyline
90
8
70
1
43
0.0
10
21.027819892154639
20
-68.068424104376973
42
0.41421356237324203
10
20.027825715327381
20
-69.06843100750973
10
20.027902073163695
20
-81.068437487266721
42
0.41421356237307033
10
21.027908976296242
20
-82.068431664093509
10
33.027915456053236
20
-82.068355306257274
42
0.41421356237318085
10
34.027909632880238
20
-81.068348403124531
10
34.027833275043996
20
-69.068341923367328
42
0.41421356237294676
10
33.027826371911637
20
-68.068347746540624
0
LWPOLYLINE
5
189
100
AcDbEntity
8
0
100
AcDbPolyline
90
8
70
1
43
0.0
10
243.86579568152823
20
-123.92953631988392
42
0.41421356237309509
10
244.86580258466094
20
-124.92953049671067
10
256.86580906441793
20
-124.92945413887469
42
0.41421356237309509
10
257.86580324124492
20
-123.92944723574192
10
257.86572688340868
20
-111.92944075598493
42
0.41421356237308465
10
256.86571998027597
20
-110.92944657915793
10
244.86571350051892
20
-110.92952293699415
42
0.41421356237308982
10
243.86571932369193
20
-111.92952984012693
0
LWPOLYLINE
5
190
100
AcDbEntity
8
0
100
AcDbPolyline
90
8
70
1
43
0.0
10
142.56559582215095
20
-101.1176685889977
42
0.41421356237308982
10
143.56558999897771
20
-100.11766168586493
10
143.56551364114168
20
-88.117655206107514
42
0.41421356237306384
10
142.56550673800893
20
-87.117661029280825
10
130.56550025825194
20
-87.117737387117188
42
0.41421356237309509
10
129.56550608142496
20
-88.117744290249931
10
129.56558243926122
20
-100.11775077000692
42
0.41421356237309509
10
130.56558934239393
20
-101.11774494683391
0
LWPOLYLINE
5
191
100
AcDbEntity
8
0
100
AcDbPolyline
90
8
70
1
43
0.0
10
343.87819816367227
20
-100.11638706677493
42
0.41421356237308982
10
344.87820506680498
20
-101.11638124360167
10
356.87821154656297
20
-101.11630488576566
42
0.41421356237280371
10
357.87820572338893
20
-100.11629798263293
10
357.87812936555275
20
-88.116291502875427
42
0.41421356237308465
10
356.87812246241998
20
-87.116297326048624
10
344.87811598266296
20
-87.116373683885087
42
0.414213562373069
10
343.87812180583592
20
-88.11638058701773
0
LWPOLYLINE
5
192
100
AcDbEntity
8
0
100
AcDbPolyline
90
8
70
1
43
0.0
10
318.77819097333401
20
-101.11654732189567
42
0.41421356237308982
10
319.77818515016071
20
-100.11654041876292
10
319.77810879232368
20
-88.11653393900562
42
0.41421356237308982
10
318.77810188919096
20
-87.116539762178832
10
306.77809540943394
20
-87.116616120015152
42
0.41421356237310542
10
305.77810123260792
20
-88.116623023147923
10
305.77817759044422
20
-100.11662950290493
42
0.41421356237308982
10
306.77818449357693
20
-101.11662367973193
0
LWPOLYLINE
5
193
100
AcDbEntity
8
0
100
AcDbPolyline
90
8
70
1
43
0.0
10
66.365554675694042
20
-101.11815346125793
10
54.365548195936945
20
-101.11822981909368
42
-0.41421356237321211
10
53.36554129280379
20
-100.11823564226694
10
53.365464934967584
20
-88.118229162510147
42
-0.41421356237309243
10
54.365459111794337
20
-87.118222259377376
10
66.365465591551526
20
-87.118145901541169
42
-0.414213562373069
10
67.365472494684283
20
-88.118140078367816
10
67.365548852520845
20
-100.11814655812492
42
-0.41421356237303786
0
LWPOLYLINE
5
194
100
AcDbEntity
8
0
100
AcDbPolyline
90
8
70
1
43
0.0
10
325.82825721863003
20
-110.92900776021818
42
0.4142135623731002
10
324.82826304180327
20
-111.92901466335093
10
324.82833939963928
20
-123.92902114310793
42
0.41421356237308982
10
325.82834630277199
20
-124.92901531993394
10
337.82835278252895
20
-124.92893896209766
42
0.41421356237309509
10
338.828346959356
20
-123.92893205896493
10
338.82827060151976
20
-111.92892557920793
42
0.41421356237311063
10
337.82826369838693
20
-110.92893140238192
0
LWPOLYLINE
5
195
100
AcDbEntity
8
0
100
AcDbPolyline
90
8
70
1
43
0.0
10
282.96573407374797
20
-110.92928050086415
42
0.41421356237309509
10
281.96573989692121
20
-111.92928740399692
10
281.96581625475721
20
-123.92929388375393
42
0.41421356237307944
10
282.96582315788993
20
-124.92928806058092
10
294.96582963764695
20
-124.92921170274471
42
0.41421356237311063
10
295.96582381447394
20
-123.92920479961192
10
295.9657474566377
20
-111.92919831985493
42
0.41421356237310542
10
294.96574055350493
20
-110.92920414302793
0
LWPOLYLINE
5
196
100
AcDbEntity
8
0
100
AcDbPolyline
90
8
70
1
43
0.0
10
28.265534102465143
20
-101.11839589738767
42
0.41421356237309109
10
29.265528279291892
20
-100.11838899425493
10
29.265451921455586
20
-88.118382514498009
42
0.41421356237300272
10
28.265445018323039
20
-87.11838833767132
10
16.265438538565739
20
-87.118464695507569
42
0.41421356237312168
10
15.265444361738638
20
-88.118471598640312
10
15.265520719575193
20
-100.11847807839693
42
0.41421356237312235
10
16.265527622708042
20
-101.11847225522394
0
LWPOLYLINE
5
197
100
AcDbEntity
8
0
100
AcDbPolyline
90
8
70
1
43
0.0
10
325.82810569604902
20
-87.116494901950091
42
0.41421356237309509
10
324.82811151922226
20
-88.116501805082819
10
324.82818787705821
20
-100.11650828483992
42
0.41421356237309509
10
325.82819478019098
20
-101.11650246166693
10
337.82820125994795
20
-101.11642610383066
42
0.41421356237311585
10
338.82819543677499
20
-100.11641920069793
10
338.82811907893876
20
-88.116412720940517
42
0.41421356237308465
10
337.82811217580593
20
-87.116418544113827
0
LWPOLYLINE
5
198
100
AcDbEntity
8
0
100
AcDbPolyline
90
8
70
1
43
0.0
10
105.46564459049395
20
-111.93041050050593
10
105.46572094833068
20
-123.93041698026293
42
-0.41421356237309509
10
104.46572677150394
20
-124.93042388339566
10
92.465720291746649
20
-124.93050024123167
42
-0.41421356237313145
10
91.465713388613793
20
-123.93050606440494
10
91.465637030777486
20
-111.93049958464795
42
-0.41421356237318868
10
92.465631207604545
20
-110.93049268151519
10
104.46563768736195
20
-110.93041632367888
42
-0.41421356237280371
0
LWPOLYLINE
5
199
100
AcDbEntity
8
0
100
AcDbPolyline
90
8
70
1
43
0.0
10
66.365706198275348
20
-124.9306663195257
42
0.41421356237303786
10
67.365700375101895
20
-123.93065941639293
10
67.365624017265603
20
-111.93065293663591
42
0.41421356237306117
10
66.365617114132945
20
-110.93065875980892
10
54.36561063437594
20
-110.93073511764517
42
0.4142135623731783
10
53.365616457549045
20
-111.93074202077793
10
53.365692815385195
20
-123.93074850053493
42
0.41421356237312101
10
54.365699718518037
20
-124.93074267736192
0
LWPOLYLINE
5
200
100
AcDbEntity
8
0
100
AcDbPolyline
90
8
70
1
43
0.0
10
306.77824693201592
20
-110.92912897828315
42
0.41421356237307944
10
305.77825275518921
20
-111.92913588141593
10
305.77832911302522
20
-123.92914236117292
42
0.41421356237309509
10
306.77833601615794
20
-124.92913653799891
10
318.77834249591496
20
-124.92906018016268
42
0.41421356237307944
10
319.77833667274194
20
-123.92905327702992
10
319.77826031490571
20
-111.92904679727293
42
0.41421356237280893
10
318.77825341177294
20
-110.92905262044692
0
LWPOLYLINE
5
201
100
AcDbEntity
8
0
100
AcDbPolyline
90
8
70
1
43
0.0
10
344.87826750524397
20
-110.92888654215318
42
0.41421356237309509
10
343.87827332841721
20
-111.92889344528592
10
343.87834968625418
20
-123.92889992504293
42
0.41421356237311063
10
344.87835658938701
20
-124.92889410186892
10
356.87836306914397
20
-124.92881774403267
42
0.4142135623731002
10
357.87835724597102
20
-123.92881084089993
10
357.87828088813376
20
-111.92880436114292
42
0.41421356237311063
10
356.87827398500099
20
-110.92881018431694
0
LWPOLYLINE
5
202
100
AcDbEntity
8
0
100
AcDbPolyline
90
8
70
1
43
0.0
10
72.41555157941815
20
-100.11811442420193
10
72.415475221581886
20
-88.118107944445129
42
-0.41421356237318346
10
73.415469398408945
20
-87.118101041312372
10
85.41547587816595
20
-87.118024683476079
42
-0.41421356237297541
10
86.41548278129838
20
-88.118018860302726
10
86.415559139134672
20
-100.11802534005993
42
-0.41421356237306384
10
85.415564962308039
20
-101.11803224319266
10
73.415558482550949
20
-101.11810860102875
42
-0.4142135623730977
0
LWPOLYLINE
5
203
100
AcDbEntity
8
0
100
AcDbPolyline
90
8
70
1
43
0.0
10
159.14066721075395
20
-110.93006841828716
42
0.41421356237279849
10
158.14067303392818
20
-111.93007532141992
10
158.14074939176422
20
-123.93008180117693
42
0.41421356237308465
10
159.14075629489693
20
-124.93007597800393
10
171.14076277465392
20
-124.92999962016769
42
0.4142135623731002
10
172.14075695148094
20
-123.92999271703491
10
172.14068059364467
20
-111.92998623727792
42
0.41421356237339679
10
171.14067369051094
20
-110.92999206045093
0
LWPOLYLINE
5
204
100
AcDbEntity
8
0
100
AcDbPolyline
90
8
70
1
43
0.0
10
181.66553421436964
20
-88.11741276997742
42
0.4142135623730534
10
180.66552731123696
20
-87.117418593150774
10
168.66552083148093
20
-87.117494950986952
42
0.41421356237338641
10
167.66552665465395
20
-88.117501854119723
10
167.66560301249024
20
-100.11750833387693
42
0.41421356237308982
10
168.66560991562295
20
-101.11750251070292
10
180.66561639537997
20
-101.11742615286771
42
0.41421356237338125
10
181.66561057220594
20
-100.11741924973393
0
LWPOLYLINE
5
205
100
AcDbEntity
8
0
100
AcDbPolyline
90
8
70
1
43
0.0
10
85.41571648488943
20
-124.93054510146067
42
0.414213562373069
10
86.415710661716076
20
-123.93053819832792
10
86.41563430387977
20
-111.93053171857093
42
0.41421356237309509
10
85.415627400747042
20
-110.93053754174393
10
73.415620920990051
20
-110.93061389958018
42
0.41421356237309509
10
72.415626744163546
20
-111.93062080271292
10
72.415703101999497
20
-123.93062728246991
42
0.41421356237318346
10
73.415710005132539
20
-124.93062145929693
0
LWPOLYLINE
5
206
100
AcDbEntity
8
0
100
AcDbPolyline
90
8
70
1
43
0.0
10
162.61552392775567
20
-88.11753398804251
42
0.41421356237308982
10
161.61551702462293
20
-87.117539811215778
10
149.61551054486594
20
-87.117616169052056
42
0.41421356237309509
10
148.61551636803895
20
-88.117623072184813
10
148.61559272587522
20
-100.11762955194193
42
0.41421356237308465
10
149.61559962900793
20
-101.11762372876794
10
161.61560610876501
20
-101.11754737093271
42
0.41421356237307944
10
162.61560028559194
20
-100.11754046779993
0
LWPOLYLINE
5
207
100
AcDbEntity
8
0
100
AcDbPolyline
90
8
70
1
43
0.0
10
134.32772135671894
20
-42.967689605647621
10
134.32764499888319
20
-30.967683125890524
42
-0.4142135623730937
10
135.32763917570995
20
-29.967676222757774
10
147.32764565546694
20
-29.967599864921546
42
-0.414213562373069
10
148.32765255859971
20
-30.967594041748221
10
148.32772891643572
20
-42.967600521505318
42
-0.41421356237309243
10
147.32773473960896
20
-43.967607424638082
10
135.32772825985194
20
-43.967683782474623
42
-0.4142135623730977
0
LWPOLYLINE
5
208
100
AcDbEntity
8
0
100
AcDbPolyline
90
8
70
1
43
0.0
10
57.839982479116834
20
-11.91815954094292
10
57.840058836953091
20
-23.91816602070012
42
-0.41421356237309509
10
56.840064660126338
20
-24.918172923832877
10
42.458806894542541
20
-24.918264433927284
42
-0.41421356237315488
10
41.458799991409578
20
-23.91827025710052
10
41.458723633573278
20
-11.918263777343421
42
-0.41421356237318346
10
42.458717810400337
20
-10.918256874210666
10
56.839975575984035
20
-10.918165364116231
42
-0.41421356237306839
0
LWPOLYLINE
5
209
100
AcDbEntity
8
0
100
AcDbPolyline
90
8
70
1
43
0.0
10
87.702734677239135
20
-49.017989554534829
10
99.702741156996353
20
-49.017913196698544
42
-0.41421356237303786
10
100.70274806012903
20
-50.017907373525219
10
100.7028244179653
20
-62.017913853282316
42
-0.41421356237306645
10
99.702830241138756
20
-63.017920756415165
10
87.702823761381637
20
-63.017997114251386
42
-0.41421356237315754
10
86.702816858248681
20
-62.018002937424619
10
86.702740500412432
20
-50.017996457667628
42
-0.41421356237312884
0
LWPOLYLINE
5
210
100
AcDbEntity
8
0
100
AcDbPolyline
90
8
70
1
43
0.0
10
201.00287857793495
20
-62.017275629034117
10
201.00280222009818
20
-50.017269149277119
42
-0.41421356237308465
10
202.00279639692494
20
-49.017262246144355
10
214.00280287668195
20
-49.017185888308049
42
-0.41421356237306117
10
215.00280977981473
20
-50.017180065134717
10
215.00288613765173
20
-62.017186544891828
42
-0.41421356237312629
10
214.00289196082494
20
-63.017193448024699
10
202.00288548106795
20
-63.017269805861211
42
-0.41421356237312362
0
LWPOLYLINE
5
211
100
AcDbEntity
8
0
100
AcDbPolyline
90
8
70
1
43
0.0
10
124.80283743147717
20
-62.017760501294525
42
0.4142135623730977
10
125.80284433460994
20
-63.017754678121278
10
137.80285081436693
20
-63.017678320284986
42
0.41421356237313145
10
138.80284499119395
20
-62.017671417152123
10
138.80276863335774
20
-50.017664937395026
42
0.414213562373069
10
137.80276173022494
20
-49.017670760568322
10
125.80275525046792
20
-49.017747118404678
42
0.41421356237308726
10
124.80276107364094
20
-50.017754021537428
0
LWPOLYLINE
5
212
100
AcDbEntity
8
0
100
AcDbPolyline
90
8
70
1
43
0.0
10
123.51558553553694
20
-101.11778980706192
10
111.51557905577994
20
-101.11786616489866
42
-0.41421356237308982
10
110.51557215264721
20
-100.11787198807193
10
110.51549579481021
20
-88.117865508314921
42
-0.41421356237308982
10
111.51548997163694
20
-87.117858605182192
10
123.51549645139494
20
-87.117782247345986
42
-0.41421356237278284
10
124.51550335452669
20
-88.117776424172632
10
124.51557971236296
20
-100.11778290392994
42
-0.41421356237309509
0
LWPOLYLINE
5
213
100
AcDbEntity
8
0
100
AcDbPolyline
90
8
70
1
43
0.0
10
91.465561866032431
20
-100.11799320613693
10
91.465485508196195
20
-88.117986726380025
42
-0.41421356237308982
10
92.465479685022927
20
-87.117979823247282
10
104.46548616477995
20
-87.117903465411089
42
-0.41421356237306384
10
105.46549306791269
20
-88.117897642237722
10
105.46556942574868
20
-100.11790412199491
42
-0.41421356237280371
10
104.46557524892296
20
-101.11791102512767
10
92.465568769165543
20
-101.11798738296373
42
-0.4142135623731783
0
LWPOLYLINE
5
214
100
AcDbEntity
8
0
100
AcDbPolyline
90
8
70
1
43
0.0
10
211.52768032216795
20
-29.967191350497444
42
0.41421356237338897
10
210.52768614534017
20
-30.967198253630222
10
210.52776250317717
20
-42.967204733387227
42
0.41421356237313145
10
211.52776940630997
20
-43.967198910214016
10
223.52777588606696
20
-43.967122552377795
42
0.4142135623730977
10
224.52777006289395
20
-42.967115649245017
10
224.52769370505675
20
-30.967109169487923
42
0.41421356237310414
10
223.52768680192395
20
-29.967114992661124
0
LWPOLYLINE
5
215
100
AcDbEntity
8
0
100
AcDbPolyline
90
24
70
1
43
0.0
10
39.935990646187442
20
-43.968290774370061
42
0.040738547422159842
10
40.098131236673737
20
-43.981578963596988
10
52.098130543397545
20
-43.985658011116954
42
0.41421357055498076
10
53.098470406260638
20
-42.985997961581816
10
53.102549162563207
20
-30.985869201172523
42
0.41421156384703411
10
52.102895936417646
20
-29.985529368586619
10
49.609342994220746
20
-29.984664813606123
10
49.609336526437403
20
-28.96822112111952
42
0.41421356237300788
10
48.609329623304838
20
-27.968226944292823
10
43.609326923406037
20
-27.968258760057964
42
0.41421356237312501
10
42.609332746579149
20
-28.968265663190724
42
-0.41421356237303786
10
41.609338569752737
20
-29.968272566323524
10
26.733330537013643
20
-29.968367224587862
42
-0.41421356237315488
10
25.733323633880705
20
-28.968373047761119
42
0.41421356237300788
10
24.733316730748136
20
-27.968378870934423
10
19.733314030849236
20
-27.968410686699574
42
0.41421356237312362
10
18.733319854022437
20
-28.96841758983232
10
18.733326252436637
20
-29.973959601135618
10
18.648587191435038
20
-29.973930220737998
42
0.41431511681343419
10
17.648240475344139
20
-30.973930160632023
10
17.64824047534389
20
-42.974287645093227
42
0.41411400542884147
10
18.647900554717239
20
-43.974287587320326
10
30.66713178153104
20
-43.978373172166989
42
0.035527960794664117
10
30.808710034403237
20
-43.968348852621929
0
LWPOLYLINE
5
216
100
AcDbEntity
8
0
100
AcDbPolyline
90
20
70
1
43
0.0
10
256.316065836191
20
-30.168587225191725
42
0.28093017065576131
10
255.77368095411293
20
-31.057737244784821
10
255.77367263852318
20
-43.057743724778625
42
0.41421356237327972
10
256.77367248555697
20
-44.057744957745022
10
294.96744310902494
20
-44.057771424739443
42
0.41421356237300133
10
295.96744434195796
20
-43.057771577703022
10
295.96745265754777
20
-31.057765097709019
42
0.41421356237327972
10
294.96745281051392
20
-30.057763864742618
10
287.73447205164996
20
-30.057758852531119
10
287.73446510911674
20
-28.966705895306024
42
0.4142135623730534
10
286.73445820598397
20
-27.96671171847942
10
281.73445550608494
20
-27.966743534244443
42
0.4142135623730977
10
280.73446132925773
20
-28.966750437377222
42
-0.41421356237311718
10
279.73446715243097
20
-29.966757340510121
10
264.85845911969295
20
-29.966851998774857
42
-0.41421356237310281
10
263.85845221655973
20
-28.96685782194762
42
0.4142135623730534
10
262.85844531342696
20
-27.966863645120924
10
257.85844261352793
20
-27.966895460886043
42
0.41421356237308726
10
256.85844843670196
20
-28.966902364018821
0
CIRCLE
5
217
100
AcDbEntity
8
0
100
AcDbCircle
10
-356.10288976509202
20
-46.494828297081327
30
-2.9976021626563438e-14
40
3.0000000000000004
210
-4.0389678347315795e-28
220
-8.2718061255302749e-25
230
-1
0
CIRCLE
5
218
100
AcDbEntity
8
0
100
AcDbCircle
10
-354.98447783610999
20
-31.177305024993125
30
-4.4408920985006262e-15
40
1.19999999999999
210
0
220
0
230
-1
0
CIRCLE
5
219
100
AcDbEntity
8
0
100
AcDbCircle
10
-354.94701055212494
20
-106.19329566833994
30
-6.6613381477509392e-15
40
1.19999999999999
210
0
220
0
230
-1
0
CIRCLE
5
220
100
AcDbEntity
8
0
100
AcDbCircle
10
-300.94701728747896
20
-106.16632497761793
30
-6.6613381477509392e-15
40
1.19999999999999
210
0
220
0
230
-1
0
CIRCLE
5
221
100
AcDbEntity
8
0
100
AcDbCircle
10
-273.53246966798497
20
-17.808735226930619
30
-2.2204460492503131e-15
40
1.19999999999999
210
0
220
0
230
-1
0
CIRCLE
5
222
100
AcDbEntity
8
0
100
AcDbCircle
10
-226.03247559260095
20
-17.785011008240421
30
-2.2204460492503131e-15
40
1.19999999999999
210
0
220
0
230
-1
0
CIRCLE
5
223
100
AcDbEntity
8
0
100
AcDbCircle
10
-216.94702776469595
20
-106.12437056982893
30
-6.6613381477509392e-15
40
1.19999999999999
210
0
220
0
230
-1
0
CIRCLE
5
224
100
AcDbEntity
8
0
100
AcDbCircle
10
-107.94704136013195
20
-106.06992973114993
30
-6.6613381477509392e-15
40
1.19999999999999
210
0
220
0
230
-1
0
CIRCLE
5
225
100
AcDbEntity
8
0
100
AcDbCircle
10
-86.03249305462964
20
-17.715086995258719
30
-2.2204460492503131e-15
40
1.19999999999999
210
0
220
0
230
-1
0
CIRCLE
5
226
100
AcDbEntity
8
0
100
AcDbCircle
10
-37.832499066556437
20
-17.691013156503523
30
-2.2204460492503131e-15
40
1.19999999999999
210
0
220
0
230
-1
0
CIRCLE
5
227
100
AcDbEntity
8
0
100
AcDbCircle
10
-38.934275035401441
20
-74.71069699817582
30
-1.1102230246251565e-15
40
1.19999999999999
210
0
220
0
230
-1
0
CIRCLE
5
228
100
AcDbEntity
8
0
100
AcDbCircle
10
-16.947052710450443
20
-106.02447912271191
30
-6.6613381477509392e-15
40
1.19999999999999
210
0
220
0
230
-1
0
ENDSEC
0
SECTION
2
OBJECTS
0
DICTIONARY
5
C
100
AcDbDictionary
3
ACAD_GROUP
350
D
3
ACAD_MLINESTYLE
350
17
0
DICTIONARY
5
D
100
AcDbDictionary
0
DICTIONARY
5
1A
330
C
100
AcDbDictionary
0
DICTIONARY
5
17
100
AcDbDictionary
0
ENDSEC
0
EOF
