0
SECTION
2
HEADER
9
$INSUNITS
70
4
9
$ACADVER
1
AC1014
9
$HANDSEED
5
FFFF
0
ENDSEC
0
SECTION
2
TABLES
0
TABLE
2
VPORT
5
8
100
AcDbSymbolTable
0
ENDTAB
0
TABLE
2
LTYPE
5
5
100
AcDbSymbolTable
0
LTYPE
5
14
100
AcDbSymbolTableRecord
100
AcDbLinetypeTableRecord
2
BYBLOCK
70
0
0
LTYPE
5
15
100
AcDbSymbolTableRecord
100
AcDbLinetypeTableRecord
2
BYLAYER
70
0
0
ENDTAB
0
TABLE
2
LAYER
5
2
100
AcDbSymbolTable
70
2
0
LAYER
5
50
100
AcDbSymbolTableRecord
100
AcDbLayerTableRecord
2
0
70
0
6
CONTINUOUS
0
ENDTAB
0
TABLE
2
STYLE
5
3
100
AcDbSymbolTable
70
1
0
STYLE
5
11
100
AcDbSymbolTableRecord
100
AcDbTextStyleTableRecord
2
STANDARD
70
0
0
ENDTAB
0
TABLE
2
VIEW
5
6
100
AcDbSymbolTable
70
0
0
ENDTAB
0
TABLE
2
UCS
5
7
100
AcDbSymbolTable
70
0
0
ENDTAB
0
TABLE
2
APPID
5
9
100
AcDbSymbolTable
70
2
0
APPID
5
12
100
AcDbSymbolTableRecord
100
AcDbRegAppTableRecord
2
ACAD
70
0
0
ENDTAB
0
TABLE
2
DIMSTYLE
5
A
100
AcDbSymbolTable
70
1
0
ENDTAB
0
TABLE
2
BLOCK_RECORD
5
1
100
AcDbSymbolTable
70
1
0
BLOCK_RECORD
5
1F
100
AcDbSymbolTableRecord
100
AcDbBlockTableRecord
2
*MODEL_SPACE
0
BLOCK_RECORD
5
1B
100
AcDbSymbolTableRecord
100
AcDbBlockTableRecord
2
*PAPER_SPACE
0
ENDTAB
0
ENDSEC
0
SECTION
2
BLOCKS
0
BLOCK
5
20
100
AcDbEntity
100
AcDbBlockBegin
2
*MODEL_SPACE
0
ENDBLK
5
21
100
AcDbEntity
100
AcDbBlockEnd
0
BLOCK
5
1C
100
AcDbEntity
100
AcDbBlockBegin
2
*PAPER_SPACE
0
ENDBLK
5
1D
100
AcDbEntity
100
AcDbBlockEnd
0
ENDSEC
0
SECTION
2
ENTITIES
0
LINE
5
100
100
AcDbEntity
8
0
100
AcDbLine
10
-302.37632454430423
20
134.27781412997103
30
8.8817841970012523e-15
11
-315.3763237924112
21
134.2822330980739
31
8.8817841970012523e-15
0
ELLIPSE
5
101
100
AcDbEntity
8
0
100
AcDbEllipse
10
-315.37598387178446
20
135.28223304030081
30
-2.3720643227420624e-08
11
-0.00033992062331646302
21
-0.99999994222688704
31
0.0
40
0.99999999996995725
41
4.7123889803846897
42
6.2831853071761188
0
LINE
5
102
100
AcDbEntity
8
0
100
AcDbLine
10
-316.37598381398129
20
135.28257296092411
30
-2.3720705399910003e-08
11
-316.37428435012401
21
140.28216294103652
31
0
0
ELLIPSE
5
103
100
AcDbEntity
8
0
100
AcDbEllipse
10
-317.37428429232091
20
140.28250286165988
30
-2.4597408554427602e-08
11
0.50059814161149507
21
0.86567979103292103
31
0.0
40
0.99999999998210043
41
5.2363386476065994
42
6.2831853071795294
0
ELLIPSE
5
104
100
AcDbEntity
8
0
100
AcDbEllipse
10
-316.37308800909801
20
142.01386244372569
30
-2.4900987938281105e-08
11
-0.00033992062332159585
21
-0.99999994222689126
31
0.0
40
0.99999999996995703
41
4.7123889803846613
42
5.7592356399368745
0
LINE
5
105
100
AcDbEntity
8
0
100
AcDbLine
10
-317.37308795129485
20
142.01420236434902
30
-2.4901050110770484e-08
11
-317.36784888777004
21
157.42680992950892
31
0
0
ELLIPSE
5
106
100
AcDbEntity
8
0
100
AcDbEllipse
10
-316.36784894557326
20
157.42647000888564
30
-2.7603457297686873e-08
11
-0.50001681701974732
21
0.86601569424538716
31
0.0
40
0.99999999998789213
41
6.2831853071795578
42
7.3300235190157252
0
ELLIPSE
5
107
100
AcDbEntity
8
0
100
AcDbEllipse
10
-317.36788257961274
20
159.15850139737643
30
-2.7907152144734937e-08
11
-0.00031063963992326052
21
-0.99999995175140755
31
0.0
40
0.99999999996995648
41
0.52392883399206647
42
1.5707963267948681
0
LINE
5
108
100
AcDbEntity
8
0
100
AcDbLine
10
-316.36788262789139
20
159.15819075773646
30
-2.7907098854029755e-08
11
-316.36632931592339
21
164.15855670177439
31
8.8817841970012523e-15
0
ELLIPSE
5
109
100
AcDbEntity
8
0
100
AcDbEllipse
10
-315.36632936420199
20
164.15824606213454
30
-2.8783819772115748e-08
11
0.00031063964324534634
21
0.99999995175141299
31
0.0
40
0.99999999996995681
41
0
42
1.5707963267982787
0
LINE
5
110
100
AcDbEntity
8
0
100
AcDbLine
10
-315.36601872455873
20
165.15824601388599
30
-2.8959163955732947e-08
11
-302.36584367316203
21
165.15420764399431
31
0
0
ELLIPSE
5
111
100
AcDbEntity
8
0
100
AcDbEllipse
10
-302.36615431280529
20
164.15420769224286
30
-2.8783118111164185e-08
11
0.00031063963992328036
21
0.99999995175141365
31
0.0
40
0.99999999996995692
41
4.7123889803846897
42
6.2831853071762325
0
LINE
5
112
100
AcDbEntity
8
0
100
AcDbLine
10
-301.36615436108389
20
164.15389705260299
30
-2.8783064820459003e-08
11
-301.36770768069022
21
159.1535065195512
31
0
0
ELLIPSE
5
113
100
AcDbEntity
8
0
100
AcDbEllipse
10
-302.36770763241162
20
159.15381715919111
30
-2.7906335020588813e-08
11
-0.00031063963992331413
21
-0.99999995175142065
31
0.0
40
0.99999999996995725
41
0.027957209021517108
42
1.5707963267948966
0
ELLIPSE
5
114
100
AcDbEntity
8
0
100
AcDbEllipse
10
-302.36786867879539
20
159.15381269269344
30
-2.7906335020588813e-08
11
-0.00032881178341460812
21
-0.99999994594130204
31
0.0
40
0.9999999999699567
41
6.2831853071768577
42
6.3113217966550064
0
ELLIPSE
5
115
100
AcDbEntity
8
0
100
AcDbEllipse
10
-302.36852630236223
20
157.15381280081084
30
-2.7555646653354415e-08
11
0.00031063963992347611
21
0.99999995175141854
31
0.0
40
0.99999999996995725
41
6.2831671350378633
42
7.8539816339744828
0
LINE
5
116
100
AcDbEntity
8
0
100
AcDbLine
10
-303.36852625408358
20
157.15412344045075
30
-2.7555699944059597e-08
11
-303.37314732943497
21
142.27812409941419
31
1.7763568394002505e-14
0
ELLIPSE
5
117
100
AcDbEntity
8
0
100
AcDbEllipse
10
-302.37314737771351
20
142.27781345977434
30
-2.4947262033947482e-08
11
-0.00056882141530873636
21
-0.99999983822103422
31
0.0
40
0.9999999999699547
41
4.7126471621858306
42
6.2831853071792452
0
ELLIPSE
5
118
100
AcDbEntity
8
0
100
AcDbEllipse
10
-302.37428502054422
20
140.27781378333242
30
-2.4596582548497281e-08
11
0.00033992062336974283
21
0.99999994222685196
31
0.0
40
0.99999999996995681
41
4.7123889803846328
42
6.2829564063638488
0
LINE
5
119
100
AcDbEntity
8
0
100
AcDbLine
10
-301.37428507834738
20
140.277473862709
30
-2.4596520376007902e-08
11
-301.3759846814807
21
135.27747415157455
31
0
0
ELLIPSE
5
120
100
AcDbEntity
8
0
100
AcDbEllipse
10
-302.37598462367765
20
135.277814072198
30
-2.3719879393979681e-08
11
-0.00033992062664054096
21
-0.99999994222695743
31
0.0
40
0.99999999996995681
41
0
42
1.5707963267980798
0
LINE
5
121
100
AcDbEntity
8
0
100
AcDbLine
10
-288.63473535168788
20
185.28081252330242
30
-1.6243753009348438e-08
11
-280.54631455877552
21
185.27806870708233
31
8.8817841970012523e-15
0
ELLIPSE
5
122
100
AcDbEntity
8
0
100
AcDbEllipse
10
-280.54665378662253
20
184.27806822462006
30
-3.2311673336948843e-08
11
0.0003392278469716644
21
1.0000004824622308
31
0.0
40
0.99999999996995725
41
4.7123889803848034
42
6.2831853071795862
0
LINE
5
123
100
AcDbEntity
8
0
100
AcDbLine
10
-279.54665330419033
20
184.27772899677319
30
-3.2311602282675267e-08
11
-279.55072403835391
21
172.27772320723048
31
1.7763568394002505e-14
0
ELLIPSE
5
124
100
AcDbEntity
8
0
100
AcDbEllipse
10
-280.55072452078605
20
172.27806243507413
30
-3.0207560897110852e-08
11
-0.00033922784362986323
21
-1.0000004824621707
31
0.0
40
0.99999999996995714
41
6.2831853071795294
42
7.8539816339744544
0
LINE
5
125
100
AcDbEntity
8
0
100
AcDbLine
10
-280.5510637486297
20
171.27806195261201
30
-3.0032225595277851e-08
11
-292.55106953781848
21
171.2821326867352
31
8.8817841970012523e-15
0
ELLIPSE
5
126
100
AcDbEntity
8
0
100
AcDbEllipse
10
-292.55073030997153
20
172.28213316919744
30
-3.0208280321630809e-08
11
-0.0003392278469716644
21
-1.0000004824622308
31
0.0
40
0.99999999996995725
41
4.7123889803846897
42
6.2831853071796431
0
LINE
5
127
100
AcDbEntity
8
0
100
AcDbLine
10
-293.55073079240373
20
172.28247239704439
30
-3.0208342494120188e-08
11
-293.54666005823992
21
184.28247818658721
31
1.7763568394002505e-14
0
ELLIPSE
5
128
100
AcDbEntity
8
0
100
AcDbEllipse
10
-292.54665957580789
20
184.28213895874364
30
-3.2312383879684603e-08
11
0.00033922784362978159
21
1.0000004824621349
31
0.0
40
0.99999999996995681
41
0.056176925243792551
42
1.570796326794925
0
LINE
5
129
100
AcDbEntity
8
0
100
AcDbLine
10
-292.60246829246273
20
185.28058097866528
30
-3.2487452727991695e-08
11
-288.65625876420143
21
185.28058086842856
31
-3.2487461609775892e-08
0
ARC
5
130
100
AcDbEntity
8
0
100
AcDbCircle
10
-288.65625873626658
20
186.28058086842861
30
-6.1733194376674139e-12
40
1.0000000000000857
210
4.8972202419824878e-18
220
1.753086564803956e-10
230
1
100
AcDbArc
50
269.99999839945121
51
271.23329433154817
0
ELLIPSE
5
131
100
AcDbEntity
8
0
100
AcDbEllipse
10
-282.95050965951236
20
153.23058017688118
30
-2.6867743585512471e-08
11
-0.99999999999997935
21
2.7934810020728998e-08
31
0.0
40
0.99999999999999956
41
1.5707963267948397
42
3.1415926535898215
0
LINE
5
132
100
AcDbEntity
8
0
100
AcDbLine
10
-282.95050968744715
20
152.23058017688118
30
-2.6692399401895273e-08
11
-294.95050968652743
21
152.23058068948515
31
-8.8974694278931565e-09
0
ELLIPSE
5
133
100
AcDbEntity
8
0
100
AcDbEllipse
10
-294.95050965859264
20
153.23058051209904
30
-2.6867743585512471e-08
11
4.2917952018939413e-05
21
0.99999999907900916
31
0.0
40
1
41
1.5707963267948966
42
3.1416355436070522
0
LINE
5
134
100
AcDbEntity
8
0
100
AcDbLine
10
-295.95050965767166
20
153.23062343005105
30
-2.6867752467296668e-08
11
-295.94999464224708
21
165.2306234300367
31
0
0
ELLIPSE
5
135
100
AcDbEntity
8
0
100
AcDbEllipse
10
-294.949994643168
20
165.23058051208469
30
-2.8971847143566265e-08
11
1.0000000000000151
21
-2.7934810020729994e-08
31
0.0
40
0.99999999999999956
41
1.5707963267948966
42
3.141549763572582
0
LINE
5
136
100
AcDbEntity
8
0
100
AcDbLine
10
-294.94999461523321
20
166.23058051208474
30
-2.9147191327183464e-08
11
-282.95050929635977
21
166.23058017688126
31
0
0
ARC
5
137
100
AcDbEntity
8
0
100
AcDbCircle
10
-282.95050932429456
20
165.23058017688132
30
-2.8971856025350462e-08
40
0.99999999999997891
210
-8.8817841970014338e-15
220
2.4811126973267462e-22
230
1
100
AcDbArc
50
-1.7075472925031877e-06
51
89.999998399454512
0
LINE
5
138
100
AcDbEntity
8
0
100
AcDbLine
10
-281.95050932429461
20
165.23058014894647
30
-2.8971847143566265e-08
11
-281.95050965951236
21
153.23058014894639
31
-2.6867743585512471e-08
0
LINE
5
139
100
AcDbEntity
8
0
100
AcDbLine
10
-41.421198094890002
20
184.28059232713179
30
-3.2312108544374496e-08
11
-41.42527726392612
21
172.28023553596856
31
-3.020795169561552e-08
0
ELLIPSE
5
140
100
AcDbEntity
8
0
100
AcDbEllipse
10
-42.425277206153098
20
172.28057545659522
30
-3.0208013868104899e-08
11
0.70722695106543676
21
0.70698659088181226
31
0.0
40
0.99999999999999978
41
3.9271607773038579
42
5.497617183465521
0
LINE
5
141
100
AcDbEntity
8
0
100
AcDbLine
10
-42.425277206153069
20
171.28057545659519
30
-3.0032660802703504e-08
11
-54.444509127354159
21
171.28057545659522
31
-3.0032660802703504e-08
0
ARC
5
142
100
AcDbEntity
8
0
100
AcDbCircle
10
-54.444509127354166
20
172.28057545659513
30
-3.0208013868104899e-08
40
1.0000000000000056
210
0
220
0
230
1
100
AcDbArc
50
179.99999852122065
51
270.0000000000004
0
LINE
5
143
100
AcDbEntity
8
0
100
AcDbLine
10
-55.444509127354173
20
172.28057548452998
30
-3.0208013868104899e-08
11
-55.444508792128687
21
184.2808505717104
31
-3.2312152953295481e-08
0
ARC
5
144
100
AcDbEntity
8
0
100
AcDbCircle
10
-54.444508792128687
20
184.2808505437755
30
4.7833214845170174e-13
40
1.0000000000000107
210
-1.1915452019163813e-15
220
1.7534418361314828e-10
230
1
100
AcDbArc
50
90.000389351444255
51
179.99999852122065
0
LINE
5
145
100
AcDbEntity
8
0
100
AcDbLine
10
-54.444515587593337
20
185.28085054375242
30
-3.2487506018696877e-08
11
-42.421204832581616
21
185.28093224773534
31
-3.2487514900481074e-08
0
ELLIPSE
5
146
100
AcDbEntity
8
0
100
AcDbEllipse
10
-42.42119803711698
20
184.28093224775841
30
-3.2312179598648072e-08
11
0.70722454891019038
21
0.70698899384557512
31
0.0
40
0.99999999999999978
41
5.4976137857332379
42
7.0687568286259648
0
LWPOLYLINE
5
147
100
AcDbEntity
8
0
100
AcDbPolyline
90
8
70
1
43
0.0
10
-80.63801021960559
20
133.18057505747657
10
-68.638010219605604
20
133.18057472225871
42
0.41421356237308982
10
-67.638010191670787
20
134.18057469432389
10
-67.638009856452953
20
146.18057469432389
42
0.4142135623731002
10
-68.63800982851815
20
147.18057472225868
10
-80.638009828518179
20
147.18057505747657
42
0.41421356237309509
10
-81.63800985645301
20
146.18057508541136
10
-81.63801019167083
20
134.18057508541133
42
0.41421356237312101
0
LWPOLYLINE
5
148
100
AcDbEntity
8
0
100
AcDbPolyline
90
8
70
1
43
0.0
10
-85.400509687447354
20
152.23057519051616
10
-73.400509687447226
20
152.23057485529824
42
0.41421356237310802
10
-72.400509659512394
20
153.23057482736345
10
-72.400509324294703
20
165.23057482736345
42
0.41421356237309509
10
-73.400509296359758
20
166.2305748552983
10
-85.400509296359886
20
166.23057519051605
42
0.41421356237310542
10
-86.40050932429466
20
165.23057521845089
10
-86.400509659512522
20
153.23057521845092
42
0.41421356237309509
0
LINE
5
149
100
AcDbEntity
8
0
100
AcDbLine
10
-383.67525826587695
20
87.518082840423702
30
-1.5345582582426687e-08
11
-37.062990005199971
21
87.518073157876429
31
-1.5345591464210884e-08
0
ARC
5
150
100
AcDbEntity
8
0
100
AcDbCircle
10
-37.062989977265183
20
88.518073157876401
30
-5.5894904419605121e-09
40
0.99999999999997891
210
3.1140381107692052e-18
220
1.1147527345656499e-10
230
1
100
AcDbArc
50
-90.000001600545502
51
0.00038935073850906272
0
LINE
5
151
100
AcDbEntity
8
0
100
AcDbLine
10
-36.062989977288268
20
88.518079953341385
30
-1.5456791402357339e-08
11
-36.063015825503804
21
92.321820174048682
31
-1.6184396045559879e-08
0
ARC
5
152
100
AcDbEntity
8
0
100
AcDbCircle
10
-33.06301582554088
20
92.321840560443547
30
4.7926437099837689e-10
40
3.0000000000000111
210
-3.568223283006343e-11
220
1.6775433239826917e-10
230
1
100
AcDbArc
50
102.00815254086581
51
180.00038935167456
0
ELLIPSE
5
153
100
AcDbEntity
8
0
100
AcDbEllipse
10
-34.311321033805172
20
98.190548604555175
30
-1.7216921222029669e-08
11
-2.999999999999996
21
-2.7650895895880518e-14
31
0.0
40
0.99999999999999967
41
1.780378125714722
42
3.1415926535898002
0
LINE
5
154
100
AcDbEntity
8
0
100
AcDbLine
10
-31.311321033805172
20
98.190548604555218
30
-1.7216921222029669e-08
11
-31.311321033805207
21
103.92193515966609
31
-1.8221877340351966e-08
0
ELLIPSE
5
155
100
AcDbEntity
8
0
100
AcDbEllipse
10
-34.311321033805228
20
103.92193515966608
30
-1.8221877340351966e-08
11
-2.1213203435596557
21
2.1213203435596326
31
0.0
40
0.99999999999999978
41
3.9269908169872436
42
5.2882255722362519
0
ELLIPSE
5
156
100
AcDbEntity
8
0
100
AcDbEllipse
10
-33.063134534348528
20
109.79066845251337
30
-1.9250903093848137e-08
11
2.9999999999307327
21
2.0386394851099175e-05
31
0.0
40
0.99999999999999967
41
3.1415926535897931
42
4.5028206133738582
0
LINE
5
157
100
AcDbEntity
8
0
100
AcDbLine
10
-36.063134534279257
20
109.79064806611854
30
-1.9250903093848137e-08
11
-36.063790566632015
21
206.33037892959692
31
-3.6180853868472695e-08
0
ARC
5
158
100
AcDbEntity
8
0
100
AcDbCircle
10
-37.063790566613463
20
206.33037213413195
30
-3.8372975788765118e-08
40
1.0000000000045359
210
6.0786931042597317e-11
220
4.1307545964114533e-16
230
1
100
AcDbArc
50
0.00038935073850906272
51
89.999998376031371
0
LINE
5
159
100
AcDbEntity
8
0
100
AcDbLine
10
-37.063790538269863
20
207.33037213413195
30
-3.6295189076440693e-08
11
-45.688774515061738
21
207.33037237859526
31
-3.6353711152514734e-08
0
ELLIPSE
5
160
100
AcDbEntity
8
0
100
AcDbEllipse
10
-45.688774486718131
20
208.3303723785952
30
-3.6529046454347736e-08
11
0.70710677116555931
21
-0.70710679120753905
31
0.0
40
1
41
3.926990831159122
42
5.4977871296103675
0
LINE
5
161
100
AcDbEntity
8
0
100
AcDbLine
10
-46.688774486718131
20
208.33037237859517
30
-3.6529046454347736e-08
11
-46.688774486718145
21
212.92511067164142
31
-3.7334713098857719e-08
0
ELLIPSE
5
162
100
AcDbEntity
8
0
100
AcDbEllipse
10
-47.688774486718124
20
212.92511067164139
30
-3.7334704217073522e-08
11
-0.70710678118655823
21
0.70710678118654058
31
0.0
40
0.99999999999999978
41
3.9269908169872814
42
5.497787143782138
0
LINE
5
163
100
AcDbEntity
8
0
100
AcDbLine
10
-47.688774486718124
20
213.92511067164145
30
-3.7510048400690721e-08
11
-56.288774486718118
21
213.92511067164139
31
-3.7510048400690721e-08
0
ARC
5
164
100
AcDbEntity
8
0
100
AcDbCircle
10
-56.288774486718118
20
212.92511067164142
30
4.7548524793129006e-13
40
0.99999999999997868
210
0
220
1.7534418361720247e-10
230
1
100
AcDbArc
50
90
51
168.30911561603361
0
ELLIPSE
5
165
100
AcDbEntity
8
0
100
AcDbEllipse
10
-58.247284609084062
20
213.33037367339489
30
-3.7405758490649532e-08
11
-1.0000000000000009
21
-3.3279585684448771e-15
31
0.0
40
0.99999999999999567
41
1.5707963267948752
42
2.9375482286195354
0
LINE
5
166
100
AcDbEntity
8
0
100
AcDbLine
10
-58.247284609084076
20
212.33037367339489
30
-3.7230414307032333e-08
11
-158.77097209244221
21
212.33037367339492
31
-3.7230414307032333e-08
0
ARC
5
167
100
AcDbEntity
8
0
100
AcDbCircle
10
-158.77097209244221
20
213.33037367339486
30
-4.1493479239147659e-08
40
0.99999999999999667
210
3.5233302479268173e-11
220
7.2926368627875484e-12
230
1
100
AcDbArc
50
191.69402878705222
51
270
0
SPLINE
5
168
100
AcDbEntity
8
0
100
AcDbSpline
70
0
71
3
72
14
73
10
74
0
42
0.000000001
43
0.0000000001
44
0.0000000001
40
0
40
0
40
0
40
0
40
0.039064447338691022
40
0.039064447338691022
40
0.078128894677385818
40
0.078128894677385818
40
0.10757471477727105
40
0.10757471477727105
40
0.13702053487715465
40
0.13702053487715465
40
0.13702053487715465
40
0.13702053487715465
10
-160.72945997094951
20
213.92500318885038
30
-3.751002175533813e-08
10
-160.59924514648719
20
213.92500318885038
30
-3.751002175533813e-08
10
-160.4702752467193
20
213.89956933808574
30
-3.7505030192619415e-08
10
-160.22934395443716
20
213.80069712541581
30
-3.7487692949866869e-08
10
-160.11968599639476
20
213.72820403575327
30
-3.7473872893656335e-08
10
-159.95714968190728
20
213.56778680451401
30
-3.7445735401320235e-08
10
-159.89782149331174
20
213.48892818531573
30
-3.7431249211294926e-08
10
-159.80404729236176
20
213.31646881114071
30
-3.7401006736104137e-08
10
-159.77011014229871
20
213.22380390068651
30
-3.7387071216699042e-08
10
-159.75021603169586
20
213.12768843112258
30
-3.737022247207733e-08
0
LINE
5
169
100
AcDbEntity
8
0
100
AcDbLine
10
-160.72945997094951
20
213.92500318885038
30
-3.751002175533813e-08
11
-170.37100133899543
21
213.92500318885061
31
-3.751002175533813e-08
0
ARC
5
170
100
AcDbEntity
8
0
100
AcDbCircle
10
-170.37100133899546
20
212.92500318885061
30
-1.4167515967406294e-12
40
1.0000000000000142
210
6.2291612519870213e-24
220
1.7533530183299924e-10
230
1
100
AcDbArc
50
89.99999999999838
51
168.30597121295452
0
ELLIPSE
5
171
100
AcDbEntity
8
0
100
AcDbEllipse
10
-172.32948921750278
20
213.33037367339486
30
-3.7405758490649532e-08
11
-0.99999999999999689
21
1.4435609825560874e-14
31
0.0
40
0.99999999999999967
41
1.5707963267948681
42
2.9374933484329282
0
LINE
5
172
100
AcDbEntity
8
0
100
AcDbLine
10
-172.32948921750281
20
212.33037367339489
30
-3.7230414307032333e-08
11
-286.77122198433887
21
212.33037367339489
31
-3.7230414307032333e-08
0
ELLIPSE
5
173
100
AcDbEntity
8
0
100
AcDbEllipse
10
-286.77122198433881
20
213.33037367339489
30
-3.7405758490649532e-08
11
0.70710678118657044
21
-0.70710678118652515
31
0.0
40
0.99999999999999989
41
4.1310901221425507
42
5.4977871437820678
0
ARC
5
174
100
AcDbEntity
8
0
100
AcDbCircle
10
-288.72970986284679
20
212.92500318885374
30
-4.5848408007907555e-08
40
0.9999999999999396
210
3.4798430812049253e-11
220
7.20262653363755e-12
230
1
100
AcDbArc
50
11.694028786950023
51
90
0
LINE
5
175
100
AcDbEntity
8
0
100
AcDbLine
10
-288.72970986284679
20
213.92500318885371
30
-3.7510030637122327e-08
11
-298.41251621650389
21
213.92500318885396
31
-3.751002175533813e-08
0
SPLINE
5
176
100
AcDbEntity
8
0
100
AcDbSpline
70
0
71
3
72
14
73
10
74
0
42
0.000000001
43
0.0000000001
44
0.0000000001
40
0
40
0
40
0
40
0
40
0.039064447338692049
40
0.039064447338692049
40
0.078128894677383709
40
0.078128894677383709
40
0.10757471477735847
40
0.10757471477735847
40
0.13702053487733096
40
0.13702053487733096
40
0.13702053487733096
40
0.13702053487733096
10
-299.39176015575799
20
213.12768843112451
30
-3.7370231353861527e-08
10
-299.3653675325146
20
213.25520050878029
30
-3.7392595686469576e-08
10
-299.31432129292136
20
213.3763384352701
30
-3.7413805387132015e-08
10
-299.16866806055697
20
213.59222900463521
30
-3.7451668433163832e-08
10
-299.07545359207427
20
213.6849176159979
30
-3.7467922098244344e-08
10
-298.88542227835154
20
213.81156611149055
30
-3.7490126558736847e-08
10
-298.79617550516446
20
213.85367940226246
30
-3.7497507321404555e-08
10
-298.60828906159713
20
213.91055225016461
30
-3.7507481565057788e-08
10
-298.51066895017044
20
213.92500318885399
30
-3.7510030637122327e-08
10
-298.41251621650389
20
213.92500318885396
30
-3.7510030637122327e-08
0
ARC
5
177
100
AcDbEntity
8
0
100
AcDbCircle
10
-300.37100409501198
20
213.33037367339514
30
4.8172186069749222e-13
40
1.0000000000000853
210
0
220
1.7534418361718378e-10
230
1
100
AcDbArc
50
270
51
348.3059712130443
0
LINE
5
178
100
AcDbEntity
8
0
100
AcDbLine
10
-300.37100409501198
20
212.33037367339506
30
-3.7230414307032333e-08
11
-364.81698578640311
21
212.33037367339489
31
-3.7230414307032333e-08
0
ELLIPSE
5
179
100
AcDbEntity
8
0
100
AcDbEllipse
10
-364.81698578640311
20
213.33037367339517
30
-3.7405758490649532e-08
11
-0.70710678118654824
21
-0.70710678118677361
31
0.0
40
0.99999999999995814
41
5.7016951117610875
42
7.0685834705768835
0
ELLIPSE
5
180
100
AcDbEntity
8
0
100
AcDbEllipse
10
-366.77555119150446
20
212.92537792781224
30
-3.7334748625994507e-08
11
-9.1616980928851334e-14
21
-1.0000000000002662
31
0.0
40
0.99999999999972478
41
1.7747042947742104
42
3.1415926535899636
0
LINE
5
181
100
AcDbEntity
8
0
100
AcDbLine
10
-366.77555119150446
20
213.92537792781255
30
-3.7510092809611706e-08
11
-375.41698578640313
21
213.92537792781286
31
-3.7510092809611706e-08
0
ELLIPSE
5
182
100
AcDbEntity
8
0
100
AcDbEllipse
10
-375.41698578640313
20
212.9253779278126
30
-3.7334748625994507e-08
11
0.70710678118658077
21
0.70710678118673498
31
0.0
40
0.99999999999996603
41
0.7853981633973981
42
2.3561944901923146
0
LINE
5
183
100
AcDbEntity
8
0
100
AcDbLine
10
-376.4169857864033
20
212.92537792781252
30
-3.7334748625994507e-08
11
-376.41698578640319
21
208.33038178097325
31
-3.6529046454347736e-08
0
ARC
5
184
100
AcDbEntity
8
0
100
AcDbCircle
10
-377.41698578640325
20
208.33038178097325
30
4.7238598595490646e-13
40
0.99999999999997913
210
4.9698641291740757e-18
220
1.7534418361720229e-10
230
1
100
AcDbArc
50
-90.000001623962518
51
0
0
LINE
5
185
100
AcDbEntity
8
0
100
AcDbLine
10
-377.41698581474674
20
207.33038178097328
30
-3.6353702270730537e-08
11
-383.67525505632011
21
207.33038195835533
31
-3.6353711152514734e-08
0
ARC
5
186
100
AcDbEntity
8
0
100
AcDbCircle
10
-383.67525508466377
20
206.3303819583553
30
-1.9165001174136377e-09
40
1.0000000000000147
210
4.707837507058614e-18
220
1.6609824626811791e-10
230
1
100
AcDbArc
50
89.999998376027719
51
179.99999879258175
0
LINE
5
187
100
AcDbEntity
8
0
100
AcDbLine
10
-384.67525508466383
20
206.33038198512057
30
-3.6187683960520189e-08
11
-384.67525766857636
21
109.79063775835137
31
-1.9250903093848137e-08
0
SPLINE
5
188
100
AcDbEntity
8
0
100
AcDbSpline
70
0
71
3
72
14
73
10
74
0
42
0.000000001
43
0.0000000001
44
0.0000000001
40
0
40
0
40
0
40
0
40
0.11719334201607758
40
0.11719334201607758
40
0.23438668403215485
40
0.23438668403215485
40
0.32189673280556785
40
0.32189673280556785
40
0.40940678157898097
40
0.40940678157898097
40
0.40940678157898097
40
0.40940678157898097
10
-387.05109245292408
20
106.85628649915665
30
-1.8736372453531658e-08
10
-386.66899640834151
20
106.93756206314829
30
-1.8750627717167845e-08
10
-386.30642833515094
20
107.09269244250916
30
-1.8777841503947457e-08
10
-385.66116387086083
20
107.53319918420011
30
-1.8855086381108777e-08
10
-385.38463655973595
20
107.81436406198497
30
-1.8904371401617936e-08
10
-385.00934170590489
20
108.38423069104664
30
-1.9004291473834201e-08
10
-384.8852901406724
20
108.64994937193536
30
-1.9050903077300063e-08
10
-384.71780217657363
20
109.20879078170587
30
-1.9148895802345578e-08
10
-384.67525767638369
20
109.49893759577333
30
-1.919974401687341e-08
10
-384.67525766857636
20
109.79063775835137
30
-1.925089421206394e-08
0
ELLIPSE
5
189
100
AcDbEntity
8
0
100
AcDbEllipse
10
-386.42692723727174
20
103.92193515966611
30
-1.8221877340351966e-08
11
-2.1213203435596468
21
2.1213203435596624
31
0.0
40
0.99999999999999967
41
5.7073732405903206
42
7.0685834705770443
0
LINE
5
190
100
AcDbEntity
8
0
100
AcDbLine
10
-389.4269272372718
20
103.92193515966608
30
-1.8221877340351966e-08
11
-389.42692723727163
21
98.190543139970586
31
-1.7216912340245472e-08
0
SPLINE
5
191
100
AcDbEntity
8
0
100
AcDbSpline
70
0
71
3
72
14
73
10
74
0
42
0.000000001
43
0.0000000001
44
0.0000000001
40
0
40
0
40
0
40
0
40
0.11719334201607753
40
0.11719334201607753
40
0.23438668403215623
40
0.23438668403215623
40
0.32189672482799336
40
0.32189672482799336
40
0.40940676562382988
40
0.40940676562382988
40
0.40940676562382988
40
0.40940676562382988
10
-387.05109268670265
20
95.256191850207074
30
-1.6702408345281583e-08
10
-387.4331887248099
20
95.337467444640168
30
-1.671666360891777e-08
10
-387.79575678564123
20
95.492597852886718
30
-1.6743877395697382e-08
10
-388.44102121483644
20
95.933104645985679
30
-1.6821113391074505e-08
10
-388.71754850356098
20
96.214269545801329
30
-1.6870380648015271e-08
10
-389.09284329736516
20
96.784136182554121
30
-1.6970300720231535e-08
10
-389.2168948335144
20
97.049854847206248
30
-1.7016912323697397e-08
10
-389.38438275260444
20
97.608696214945013
30
-1.7114905048742912e-08
10
-389.42692723727163
20
97.898843003984439
30
-1.7165771026839138e-08
10
-389.42692723727163
20
98.190543139970586
30
-1.7216921222029669e-08
0
ELLIPSE
5
192
100
AcDbEntity
8
0
100
AcDbEllipse
10
-387.67525813613355
20
92.321840560443576
30
-1.61878865867493e-08
11
2.1213203719485687
21
2.1213203151707405
31
0.0
40
0.99999999999999978
41
-0.78539817678006218
42
0.57581200030231239
0
LINE
5
193
100
AcDbEntity
8
0
100
AcDbLine
10
-384.67525813613349
20
92.321840480147742
30
-1.61878865867493e-08
11
-384.67525823565575
21
88.518082867188951
31
-1.5520926766043885e-08
0
ARC
5
194
100
AcDbEntity
8
0
100
AcDbCircle
10
-383.67525823794205
20
88.518082840423688
30
-1.6942233471950355e-08
40
0.99999999771370107
210
3.6948222343999866e-12
220
-9.8892931341379298e-20
230
1
100
AcDbArc
50
179.99999879258175
51
269.99999839944797
0
LINE
5
195
100
AcDbEntity
8
0
100
AcDbLine
10
-51.288774500889865
20
207.3303725373195
30
-3.6353711152514734e-08
11
-104.77097210661404
21
207.3303740531986
31
-3.6353702270730537e-08
0
ARC
5
196
100
AcDbEntity
8
0
100
AcDbCircle
10
-104.77097209244221
20
207.83037405319851
30
-3.6445637618953697e-08
40
0.50000000000002487
210
3.5527136788003242e-14
220
0
230
1
100
AcDbArc
50
180
51
269.99999837602769
0
ARC
5
197
100
AcDbEntity
8
0
100
AcDbCircle
10
-104.77097209244221
20
207.83037405319851
30
1.7447568539479241e-08
40
0.49999835374034518
210
0
220
2.5931342521010834e-10
230
1
100
AcDbArc
50
90
51
180
0
LINE
5
198
100
AcDbEntity
8
0
100
AcDbLine
10
-104.77097209244221
20
208.33037240693886
30
-3.6575293904661521e-08
11
-51.288774486718083
21
208.33037367339489
31
-3.6529055336131933e-08
0
ELLIPSE
5
199
100
AcDbEntity
8
0
100
AcDbEllipse
10
-51.288774486718097
20
207.83037240693886
30
-3.6441383244323333e-08
11
-0.35355339059326646
21
0.35355339059328278
31
0.0
40
0.99999999999999989
41
3.9269910777485184
42
5.4977871437821584
0
ELLIPSE
5
200
100
AcDbEntity
8
0
100
AcDbEllipse
10
-51.288774486718097
20
207.83037240693886
30
-3.6441383244323333e-08
11
0.35355338558277577
21
-0.35355339560377347
31
0.0
40
1
41
5.4977871296104039
42
7.0685837455100815
0
LWPOLYLINE
5
201
100
AcDbEntity
8
0
100
AcDbPolyline
90
8
70
1
43
0.0
10
-82.925508764201453
20
185.2805751213773
42
-0.41421356237310542
10
-81.925508792136398
20
184.28057509344256
10
-81.925509127354132
20
172.28057509344262
42
-0.41421356237310542
10
-82.925509155288921
20
171.28057512137741
10
-94.925509155289035
20
171.28057545659527
42
-0.4142135623731002
10
-95.925509127354189
20
172.28057548453009
10
-95.925508792136355
20
184.28057548453
42
-0.41421356237308982
10
-94.925508764201552
20
185.28057545659519
0
ARC
5
202
100
AcDbEntity
8
0
100
AcDbCircle
10
-251.87100418722648
20
207.83037822254582
30
-1.0794320922982534e-13
40
0.50000000000000733
210
4.970380070711463e-18
220
1.7536194718559006e-10
230
1
100
AcDbArc
50
-90.000001623965773
51
89.999999999996746
0
LINE
5
203
100
AcDbEntity
8
0
100
AcDbLine
10
-251.87100420139825
20
207.33037822254579
30
-3.6357965527145097e-08
11
-371.81698580057491
21
207.33038162224909
31
-3.6353711152514734e-08
0
ARC
5
204
100
AcDbEntity
8
0
100
AcDbCircle
10
-371.81698578640305
20
207.83038162224904
30
4.1660430838886967e-12
40
0.49999999999997158
210
-4.9840863080593374e-23
220
1.753619471856027e-10
230
1
100
AcDbArc
50
90.00000000001954
51
269.99999837602445
0
LINE
5
205
100
AcDbEntity
8
0
100
AcDbLine
10
-371.81698578640322
20
208.33038162224904
30
-3.6529055336131933e-08
11
-251.87100418722645
21
208.33037822254579
31
-3.653332747433069e-08
0
ARC
5
206
100
AcDbEntity
8
0
100
AcDbCircle
10
-358.39781651852667
20
161.33732359298938
30
-2.8289202091968946e-08
40
0.25970776936959999
210
-1.0259741246251322e-13
220
7.6759253559297092e-17
230
1
100
AcDbArc
50
179.9571336124217
51
267.79579056563335
0
LINE
5
207
100
AcDbEntity
8
0
100
AcDbLine
10
-358.65752421521154
20
161.33751789583255
30
-2.8289228737321537e-08
11
-358.65752421521154
21
162.09666584489557
31
1.7763568394002505e-14
0
ELLIPSE
5
208
100
AcDbEntity
8
0
100
AcDbEllipse
10
-358.39781651852661
20
162.09686014773865
30
-2.8422375564218783e-08
11
-0.00019430284311283691
21
0.2597076966848989
31
0.0
40
0.99999999999999989
41
0.037722552432240951
42
1.5707963267947829
0
LINE
5
209
100
AcDbEntity
8
0
100
AcDbLine
10
-358.40780519704259
20
162.35637575762081
30
-2.846787694466002e-08
11
-355.10152783514803
21
162.35637575762081
31
8.8817841970012523e-15
0
ARC
5
210
100
AcDbEntity
8
0
100
AcDbCircle
10
-355.1115165136639
20
162.09686014773868
30
-2.8422375564218783e-08
40
0.25970776936959999
210
-1.3679654995001763e-13
220
1.0234567141239612e-16
230
1
100
AcDbArc
50
-0.042866387578303841
51
87.795790565633851
0
LINE
5
211
100
AcDbEntity
8
0
100
AcDbLine
10
-354.85180881697909
20
162.09666584489554
30
-2.8422340037081995e-08
11
-354.85180881697909
21
158.7903884830011
31
8.8817841970012523e-15
0
ELLIPSE
5
212
100
AcDbEntity
8
0
100
AcDbEllipse
10
-355.1115165136639
20
158.79019418015798
30
-2.7842581573622738e-08
11
0.00019430284311283691
21
-0.2597076966848989
31
0.0
40
0.99999999999999989
41
0.03772255243157218
42
1.5707963267950102
0
LINE
5
213
100
AcDbEntity
8
0
100
AcDbLine
10
-355.10152783514803
20
158.53067857027588
30
-2.77970801931815e-08
11
-358.40780519704253
21
158.53067857027588
31
1.7763568394002505e-14
0
ARC
5
214
100
AcDbEntity
8
0
100
AcDbCircle
10
-358.39781651852661
20
158.79019418015798
30
-2.7842581573622738e-08
40
0.25970776936967099
210
-1.3679654994998025e-13
220
1.0234567139362684e-16
230
1
100
AcDbArc
50
179.95713361243017
51
267.79579056562108
0
LINE
5
215
100
AcDbEntity
8
0
100
AcDbLine
10
-358.65752421521154
20
158.7903884830011
30
-2.7842617100759526e-08
11
-358.65752421521159
21
159.5495364320642
31
8.8817841970012523e-15
0
ELLIPSE
5
216
100
AcDbEntity
8
0
100
AcDbEllipse
10
-358.40780519704253
20
159.5495364320642
30
-2.7975728400519984e-08
11
2.7074590200977719e-20
21
0.24971901816897471
31
0.0
40
1
41
6.2831853071793589
42
7.8539816339744828
0
LINE
5
217
100
AcDbEntity
8
0
100
AcDbLine
10
-358.40780519704248
20
159.79925545023318
30
-2.80195155966112e-08
11
-356.41005305169085
21
159.79925545023315
31
8.8817841970012523e-15
0
ELLIPSE
5
218
100
AcDbEntity
8
0
100
AcDbEllipse
10
-356.420041730207
20
160.05877106011522
30
-2.806500809526824e-08
11
0.00019430284311283691
21
-0.2597076966848989
31
0.0
40
0.99999999999999989
41
0.037722552432708237
42
1.5707963267948966
0
LINE
5
219
100
AcDbEntity
8
0
100
AcDbLine
10
-356.16033403352208
20
160.05896536295833
30
-2.8065043622405028e-08
11
-356.16033403352208
21
160.828096585758
31
1.7763568394002505e-14
0
ARC
5
220
100
AcDbEntity
8
0
100
AcDbCircle
10
-356.41005305168869
20
160.82809658575803
30
4.0219979474517663e-05
40
0.24971901816890513
210
-1.1292661089251444e-07
220
1.6065893505438144e-20
230
0.99999999999999367
100
AcDbArc
50
0
51
90.000000000013046
0
LINE
5
221
100
AcDbEntity
8
0
100
AcDbLine
10
-356.41005305169102
20
161.07781560392695
30
-2.8243691829743511e-08
11
-358.40780519704253
21
161.07780798310731
31
-2.8243700711527708e-08
0
ARC
5
222
100
AcDbEntity
8
0
100
AcDbCircle
10
-338.13064295189588
20
157.53161581557666
30
-2.7621895881679848e-08
40
0.2597077693697421
210
-1.3679654994994281e-13
220
1.0234567140292751e-16
230
1
100
AcDbArc
50
179.9571336124217
51
267.79579056562085
0
LINE
5
223
100
AcDbEntity
8
0
100
AcDbLine
10
-338.1406316304118
20
157.27210020569458
30
-2.757639450123861e-08
11
-332.29720050860294
21
157.27210020569458
31
1.7763568394002505e-14
0
ARC
5
224
100
AcDbEntity
8
0
100
AcDbCircle
10
-332.29720050860294
20
157.02238118752564
30
-2.7532607305147394e-08
40
0.24971901816897457
210
0
220
0
230
1
100
AcDbArc
50
0
51
90
0
LINE
5
225
100
AcDbEntity
8
0
100
AcDbLine
10
-332.04748149043394
20
157.02238118752564
30
-2.7532607305147394e-08
11
-332.04748149043394
21
156.26323323846256
31
1.7763568394002505e-14
0
ELLIPSE
5
226
100
AcDbEntity
8
0
100
AcDbEllipse
10
-332.30718810643884
20
156.26245923957731
30
-2.7399362778623981e-08
11
0.25970661600482015
21
0.00077399888525064918
31
0.0
40
0.99999999999999956
41
4.6322920573000559
42
6.2831853071795862
0
LINE
5
227
100
AcDbEntity
8
0
100
AcDbLine
10
-332.32719605473062
20
156.00352332573743
30
-2.7353967979593108e-08
11
-339.4391888148574
21
156.00352332573732
31
8.8817841970012523e-15
0
ARC
5
228
100
AcDbEntity
8
0
100
AcDbCircle
10
-339.42920013634148
20
156.26303893561945
30
-2.7399469360034345e-08
40
0.2597077693697421
210
-1.0259741246245711e-13
220
7.6759253545178133e-17
230
1
100
AcDbArc
50
179.95713361243017
51
267.79579056562136
0
LINE
5
229
100
AcDbEntity
8
0
100
AcDbLine
10
-339.68890783302646
20
156.26323323846256
30
-2.7399496005386936e-08
11
-339.68890783302641
21
162.06670078204644
31
8.8817841970012523e-15
0
ELLIPSE
5
230
100
AcDbEntity
8
0
100
AcDbEllipse
10
-339.42920013634159
20
162.06689508488952
30
-2.8417117547974158e-08
11
-0.00019430284311283691
21
0.2597076966848989
31
0.0
40
0.99999999999999989
41
0.037722552431567892
42
1.5707963267948966
0
LINE
5
231
100
AcDbEntity
8
0
100
AcDbLine
10
-339.4391888148574
20
162.32641069477165
30
-2.8462618928415395e-08
11
-332.32719605473062
21
162.32641069477165
31
8.8817841970012523e-15
0
ARC
5
232
100
AcDbEntity
8
0
100
AcDbCircle
10
-332.33718473324654
20
162.06689508488955
30
-2.8417117547974158e-08
40
0.25970776936967105
210
-1.0259741246248517e-13
220
7.675925355925511e-17
230
1
100
AcDbArc
50
-0.042866387578303841
51
87.79579056562109
0
LINE
5
233
100
AcDbEntity
8
0
100
AcDbLine
10
-332.07747703656167
20
162.06670078204641
30
-2.8417090902621567e-08
11
-332.07747703656167
21
160.06894863669493
31
1.7763568394002505e-14
0
ELLIPSE
5
234
100
AcDbEntity
8
0
100
AcDbEllipse
10
-331.81776926720084
20
160.06894649315583
30
-2.8066793333891837e-08
11
9.7641840568485316e-06
21
-0.25970776918612165
31
0.0
40
1
41
4.7123431299150411
42
6.2831853071793589
0
LINE
5
235
100
AcDbEntity
8
0
100
AcDbLine
10
-331.81775950301687
20
159.80923872396974
30
-2.8021265308098009e-08
11
-331.05860393313401
21
159.80923872396974
31
8.8817841970012523e-15
0
ELLIPSE
5
236
100
AcDbEntity
8
0
100
AcDbEllipse
10
-331.06859261164999
20
160.06875433385187
30
-2.8066766688539246e-08
11
0.00019430284307730977
21
-0.25970769668482785
31
0.0
40
1
41
0.037722552432236663
42
1.5707963267948966
0
LINE
5
237
100
AcDbEntity
8
0
100
AcDbLine
10
-330.80888491496518
20
160.06894863669493
30
-2.8066793333891837e-08
11
-330.80888491496523
21
164.63381198399043
31
8.8817841970012523e-15
0
ELLIPSE
5
238
100
AcDbEntity
8
0
100
AcDbEllipse
10
-330.54917714560429
20
164.63381412752943
30
-2.8867201962157196e-08
11
-2.1435390706869496e-06
21
0.25970776936084417
31
0.0
40
0.99999999999999989
41
6.2831394567103924
42
7.8539816339743691
0
LINE
5
239
100
AcDbEntity
8
0
100
AcDbLine
10
-330.54916738142026
20
164.89352189671558
30
-2.8912738869735222e-08
11
-329.79001181153762
21
164.89352189671564
31
8.8817841970012523e-15
0
ELLIPSE
5
240
100
AcDbEntity
8
0
100
AcDbEllipse
10
-329.79000204735348
20
164.63381412752943
30
-2.8867201962157196e-08
11
-9.7641840568485316e-06
21
0.25970776918612165
31
0.0
40
1
41
4.7123431299153822
42
6.2831853071798136
0
LINE
5
241
100
AcDbEntity
8
0
100
AcDbLine
10
-329.5302942779926
20
164.63381198399034
30
-2.8867210843941393e-08
11
-329.53029427799265
21
156.26323323846259
31
1.7763568394002505e-14
0
ELLIPSE
5
242
100
AcDbEntity
8
0
100
AcDbEllipse
10
-329.7900020473536
20
156.2632310949235
30
-2.7399496005386936e-08
11
2.1435390884505201e-06
21
-0.25970776936084417
31
0.0
40
0.99999999999999989
41
6.283139456710165
42
7.8539816339744828
0
LINE
5
243
100
AcDbEntity
8
0
100
AcDbLine
10
-329.79001181153757
20
156.00352332573735
30
-2.7353967979593108e-08
11
-330.5491673814202
21
156.00352332573735
31
8.8817841970012523e-15
0
ELLIPSE
5
244
100
AcDbEntity
8
0
100
AcDbEllipse
10
-330.54917714560429
20
156.2632310949235
30
-2.7399496005386936e-08
11
9.7641840568485316e-06
21
-0.25970776918612165
31
0.0
40
1
41
4.7123431299152685
42
6.2831853071798136
0
LINE
5
245
100
AcDbEntity
8
0
100
AcDbLine
10
-330.80888491496529
20
156.26323323846256
30
-2.7399496005386936e-08
11
-330.80888491496518
21
158.32092313033198
31
8.8817841970012523e-15
0
ARC
5
246
100
AcDbEntity
8
0
100
AcDbCircle
10
-331.05860393313202
20
158.32092313033198
30
3.6774760430389024e-05
40
0.24971901816890504
210
-1.111661811349482e-07
220
0
230
0.999999999999994
100
AcDbArc
50
0
51
90
0
LINE
5
247
100
AcDbEntity
8
0
100
AcDbLine
10
-331.05860393313407
20
158.57064214850095
30
-2.7804079039128737e-08
11
-333.05635607848558
21
158.57064214850089
31
1.7763568394002505e-14
0
ELLIPSE
5
248
100
AcDbEntity
8
0
100
AcDbEllipse
10
-333.05636584266961
20
158.83034991768704
30
-2.7849615946706763e-08
11
9.7641840568485316e-06
21
-0.25970776918612165
31
0.0
40
1
41
4.7123431299150411
42
6.2831853071795862
0
LINE
5
249
100
AcDbEntity
8
0
100
AcDbLine
10
-333.31607361203049
20
158.83035206122614
30
-2.7849615946706763e-08
11
-333.31607361203044
21
160.82810420657768
31
8.8817841970012523e-15
0
ARC
5
250
100
AcDbEntity
8
0
100
AcDbCircle
10
-333.56579263019734
20
160.82810420657768
30
3.7640254557874947e-05
40
0.24971901816897618
210
-1.1292661089248232e-07
220
-1.6065893505429004e-20
230
0.99999999999999378
100
AcDbArc
50
0
51
90
0
LINE
5
251
100
AcDbEntity
8
0
100
AcDbLine
10
-333.56579263019938
20
161.0778232247466
30
-2.8243700711527708e-08
11
-338.1406316304118
21
161.0778232247466
31
8.8817841970012523e-15
0
ELLIPSE
5
252
100
AcDbEntity
8
0
100
AcDbEllipse
10
-338.1406316304118
20
160.82810420657765
30
-2.8199913515436492e-08
11
2.7074590200970021e-20
21
0.24971901816890366
31
0.0
40
1
41
6.2831853071793589
42
7.8539816339743691
0
LINE
5
253
100
AcDbEntity
8
0
100
AcDbLine
10
-338.39035064858075
20
160.82810420657768
30
-2.8199913515436492e-08
11
-338.39035064858086
21
157.5318101184198
31
-2.7621931408816636e-08
0
LINE
5
254
100
AcDbEntity
8
0
100
AcDbLine
10
-358.49770038558984
20
157.26210931113835
30
1.7763568394002505e-14
11
-353.92286138537764
21
157.26210931113832
31
1.7763568394002505e-14
0
ELLIPSE
5
255
100
AcDbEntity
8
0
100
AcDbEllipse
10
-353.87287864065684
20
157.50677502852727
30
-2.7617543807423317e-08
11
0.0050533007800090974
21
-0.24966788377064131
31
0.0
40
1
41
6.0614309004125246
42
7.8539816339744828
0
LINE
5
256
100
AcDbEntity
8
0
100
AcDbLine
10
-353.62321075688618
20
157.51182832930729
30
-2.7618431985843017e-08
11
-353.62321075688612
21
162.086682571159
31
8.8817841970012523e-15
0
ELLIPSE
5
257
100
AcDbEntity
8
0
100
AcDbEllipse
10
-353.36369502366756
20
162.09666804475603
30
-2.8422340037081995e-08
11
-0.0099854735970339482
21
0.25951573321862054
31
0.0
40
1
41
6.244067291566358
42
7.8539816339744828
0
LINE
5
258
100
AcDbEntity
8
0
100
AcDbLine
10
-353.3635237066199
20
162.35637575762073
30
-2.846787694466002e-08
11
-352.60436813673721
21
162.35637575762081
31
8.8817841970012523e-15
0
ARC
5
259
100
AcDbEntity
8
0
100
AcDbCircle
10
-352.60436813673721
20
162.10665673945184
30
-2.8424089748568804e-08
40
0.24971901816890352
210
0
220
-0
230
1
100
AcDbArc
50
0
51
90
0
LINE
5
260
100
AcDbEntity
8
0
100
AcDbLine
10
-352.35464911856832
20
162.10665673945186
30
-2.8424089748568804e-08
11
-352.35464911856832
21
157.53180249760013
31
1.7763568394002505e-14
0
ELLIPSE
5
261
100
AcDbEntity
8
0
100
AcDbEllipse
10
-352.09513350846248
20
157.54179117030287
30
-2.7623681120303445e-08
11
0.25970769087168238
21
0.00020192343896496825
31
0.0
40
0.99999999999999956
41
3.1792858406485554
42
4.7123889803851444
0
LINE
5
262
100
AcDbEntity
8
0
100
AcDbLine
10
-352.09493158502346
20
157.28208347943121
30
-2.7578144212725419e-08
11
-347.53006061690832
21
157.28208347943115
31
1.7763568394002505e-14
0
ARC
5
263
100
AcDbEntity
8
0
100
AcDbCircle
10
-347.53006061690832
20
157.03236446126223
30
-2.7534357016634203e-08
40
0.24971901816897457
210
0
220
-0
230
1
100
AcDbArc
50
0
51
90
0
LINE
5
264
100
AcDbEntity
8
0
100
AcDbLine
10
-347.28034159873937
20
157.03236446126226
30
-2.7534357016634203e-08
11
-347.28034159873937
21
156.26323323846253
31
1.7763568394002505e-14
0
ELLIPSE
5
265
100
AcDbEntity
8
0
100
AcDbEllipse
10
-347.53006061690832
20
156.26323323846256
30
-2.7399496005386936e-08
11
-2.7074590200977719e-20
21
-0.24971901816897471
31
0.0
40
1
41
6.2831853071791315
42
7.8539816339743691
0
LINE
5
266
100
AcDbEntity
8
0
100
AcDbLine
10
-347.53006061690837
20
156.01351422029359
30
-2.7355717691079917e-08
11
-358.49770038558995
21
156.01351422029362
31
8.8817841970012523e-15
0
ARC
5
267
100
AcDbEntity
8
0
100
AcDbCircle
10
-358.49770038558995
20
156.26323323846259
30
-2.7399496005386936e-08
40
0.24971901816890352
210
0
220
0
230
1
100
AcDbArc
50
180
51
270
0
LINE
5
268
100
AcDbEntity
8
0
100
AcDbLine
10
-358.74741940375884
20
156.26323323846259
30
-2.7399496005386936e-08
11
-358.74741940375895
21
157.01239029296937
31
8.8817841970012523e-15
0
ELLIPSE
5
269
100
AcDbEntity
8
0
100
AcDbEllipse
10
-358.49770038558995
20
157.01239029296937
30
-2.7530857593660585e-08
11
2.7074590200977719e-20
21
0.24971901816897471
31
0.0
40
1
41
6.2831853071793589
42
7.8539816339744828
0
ELLIPSE
5
270
100
AcDbEntity
8
0
100
AcDbEllipse
10
-376.7269867884836
20
157.01239251482289
30
-2.7530848711876388e-08
11
-0.00020192343903602255
21
0.25970769087168233
31
0.0
40
1
41
4.7500821674433293
42
6.2831853071795862
0
LINE
5
271
100
AcDbEntity
8
0
100
AcDbLine
10
-376.46747117837776
20
157.02238118752564
30
-2.7532598423363197e-08
11
-376.46747117837782
21
156.26323323846259
31
1.7763568394002505e-14
0
ELLIPSE
5
272
100
AcDbEntity
8
0
100
AcDbEllipse
10
-376.72717894773871
20
156.2632310949235
30
-2.7399496005386936e-08
11
2.1435390884505201e-06
21
-0.25970776936084417
31
0.0
40
0.99999999999999989
41
6.283139456710165
42
7.8539816339743691
0
LINE
5
273
100
AcDbEntity
8
0
100
AcDbLine
10
-376.72718871192268
20
156.00352332573735
30
-2.7353967979593108e-08
11
-381.29205968003782
21
156.00352332573735
31
8.8817841970012523e-15
0
ELLIPSE
5
274
100
AcDbEntity
8
0
100
AcDbEllipse
10
-381.25215468741999
20
156.26014701333293
30
-2.7398963098335116e-08
11
-0.039904992617820781
21
-0.25662368759554977
31
0.0
40
1
41
4.8547698149026646
42
6.2831853071795862
0
LINE
5
275
100
AcDbEntity
8
0
100
AcDbLine
10
-381.51184411863625
20
156.26323323846253
30
-2.7399496005386936e-08
11
-381.51184411863619
21
162.06670840286608
31
8.8817841970012523e-15
0
ELLIPSE
5
276
100
AcDbEntity
8
0
100
AcDbEllipse
10
-381.25213642195126
20
162.0669027057092
30
-2.8417126429758355e-08
11
-0.00019430284311283691
21
0.2597076966848989
31
0.0
40
0.99999999999999989
41
0.037722552432253816
42
1.5707963267948966
0
LINE
5
277
100
AcDbEntity
8
0
100
AcDbLine
10
-381.26212510046736
20
162.3264183155913
30
-2.8462627810199592e-08
11
-380.50296953058466
21
162.32641831559135
31
8.8817841970012523e-15
0
ELLIPSE
5
278
100
AcDbEntity
8
0
100
AcDbEllipse
10
-380.50295976640052
20
162.0667105464052
30
-2.8417090902621567e-08
11
-9.7641840568485316e-06
21
0.25970776918612165
31
0.0
40
1
41
4.7123431299151548
42
6.2831853071798136
0
LINE
5
279
100
AcDbEntity
8
0
100
AcDbLine
10
-380.24325199703958
20
162.06670840286608
30
-2.8417090902621567e-08
11
-380.24325199703969
21
160.06895625751457
31
8.8817841970012523e-15
0
ARC
5
280
100
AcDbEntity
8
0
100
AcDbCircle
10
-379.98354430035255
20
160.06876195467146
30
-4.1106048728420925e-05
40
0.25970776936967249
210
1.0807057402770833e-07
220
-8.085405267005932e-11
230
0.99999999999999434
100
AcDbArc
50
179.95713361243867
51
267.79579056562108
0
LINE
5
281
100
AcDbEntity
8
0
100
AcDbLine
10
-379.99353297887069
20
159.80924634478936
30
-2.8021265308098009e-08
11
-377.99578083351918
21
159.80924634478936
31
1.7763568394002505e-14
0
ELLIPSE
5
282
100
AcDbEntity
8
0
100
AcDbEllipse
10
-377.99577106933521
20
160.06895411397551
30
-2.8066802215676034e-08
11
2.1435390706869496e-06
21
-0.25970776936084417
31
0.0
40
0.99999999999999989
41
6.2831394567103924
42
7.8539816339745965
0
LINE
5
283
100
AcDbEntity
8
0
100
AcDbLine
10
-377.73606329997443
20
160.06895625751463
30
-2.8066802215676034e-08
11
-377.73606329997443
21
162.06670840286614
31
8.8817841970012523e-15
0
ELLIPSE
5
284
100
AcDbEntity
8
0
100
AcDbEllipse
10
-377.47635560328939
20
162.0669027057092
30
-2.8417126429758355e-08
11
-0.00019430284311283691
21
0.2597076966848989
31
0.0
40
0.99999999999999989
41
0.037722552432476741
42
1.5707963267947829
0
LINE
5
285
100
AcDbEntity
8
0
100
AcDbLine
10
-377.48634428180543
20
162.32641831559133
30
-2.8462627810199592e-08
11
-376.72718871192279
21
162.32641831559135
31
8.8817841970012523e-15
0
ELLIPSE
5
286
100
AcDbEntity
8
0
100
AcDbEllipse
10
-376.72717894773871
20
162.06671054640515
30
-2.8417090902621567e-08
11
-9.7641840568485316e-06
21
0.25970776918612165
31
0.0
40
1
41
4.7123431299153822
42
6.2831853071798136
0
LINE
5
287
100
AcDbEntity
8
0
100
AcDbLine
10
-376.46747117837782
20
162.06670840286608
30
-2.8417090902621567e-08
11
-376.46747117837782
21
158.77041431470823
31
8.8817841970012523e-15
0
ELLIPSE
5
288
100
AcDbEntity
8
0
100
AcDbEllipse
10
-376.72717894773871
20
158.77041217116917
30
-2.783910879600171e-08
11
2.1435390884505201e-06
21
-0.25970776936084417
31
0.0
40
0.99999999999999989
41
6.2831394567099377
42
7.8539816339743691
0
LINE
5
289
100
AcDbEntity
8
0
100
AcDbLine
10
-376.72718871192274
20
158.51070440198302
30
-2.7793571888423685e-08
11
-380.02346755844133
21
158.51070440198305
31
1.7763568394002505e-14
0
ELLIPSE
5
290
100
AcDbEntity
8
0
100
AcDbEllipse
10
-380.02346755844138
20
158.2609853838141
30
-2.7749784692332469e-08
11
2.7074590200970021e-20
21
0.24971901816890366
31
0.0
40
1
41
6.2831853071793589
42
7.8539816339743691
0
LINE
5
291
100
AcDbEntity
8
0
100
AcDbLine
10
-380.27318657661027
20
158.2609853838141
30
-2.7749784692332469e-08
11
-380.27318657661027
21
157.53181011841977
31
8.8817841970012523e-15
0
ARC
5
292
100
AcDbEntity
8
0
100
AcDbCircle
10
-380.01347887992318
20
157.53161581557669
30
-4.0457481557780579e-05
40
0.25970776936974355
210
1.0635760762920557e-07
220
-7.9572480187608466e-11
230
0.99999999999999445
100
AcDbArc
50
179.95713361243017
51
267.79579056560829
0
LINE
5
293
100
AcDbEntity
8
0
100
AcDbLine
10
-380.02346755844133
20
157.27210020569456
30
-2.757639450123861e-08
11
-376.72718871192268
21
157.27210020569456
31
-2.7576385619454413e-08
0
ELLIPSE
5
294
100
AcDbEntity
8
0
100
AcDbEllipse
10
-360.26552862008532
20
157.01239251482289
30
-2.7530848711876388e-08
11
-0.00020192343903602255
21
0.25970769087168233
31
0.0
40
1
41
4.7500821674432157
42
6.2831853071795862
0
LINE
5
295
100
AcDbEntity
8
0
100
AcDbLine
10
-360.00601300997943
20
157.02238118752564
30
-2.7532598423363197e-08
11
-360.00601300997948
21
156.26323323846256
31
1.7763568394002505e-14
0
ELLIPSE
5
296
100
AcDbEntity
8
0
100
AcDbEllipse
10
-360.26572077934031
20
156.2632310949235
30
-2.7399496005386936e-08
11
2.1435390884505201e-06
21
-0.25970776936084417
31
0.0
40
0.99999999999999989
41
6.283139456710165
42
7.8539816339743691
0
LINE
5
297
100
AcDbEntity
8
0
100
AcDbLine
10
-360.2657305435244
20
156.00352332573735
30
-2.7353967979593108e-08
11
-369.9048785481898
21
156.00352332573735
31
8.8817841970012523e-15
0
ELLIPSE
5
298
100
AcDbEntity
8
0
100
AcDbEllipse
10
-369.90488831237377
20
156.2632310949235
30
-2.7399496005386936e-08
11
9.7641839857942512e-06
21
-0.25970776918612171
31
0.0
40
0.99999999999999989
41
4.7123431299156096
42
6.2831853071795862
0
LINE
5
299
100
AcDbEntity
8
0
100
AcDbLine
10
-370.16459608173471
20
156.26323323846256
30
-2.7399496005386936e-08
11
-370.16459608173454
21
159.52955464295167
31
1.7763568394002505e-14
0
ELLIPSE
5
300
100
AcDbEntity
8
0
100
AcDbEllipse
10
-369.90508047162876
20
159.51956597024895
30
-2.7970470384275359e-08
11
0.0099886727027254131
21
0.25951561010579394
31
0.0
40
1
41
0.037693187058976375
42
1.5707963267947829
0
LINE
5
301
100
AcDbEntity
8
0
100
AcDbLine
10
-369.9048785481898
20
159.77927366112056
30
-2.8016007291853384e-08
11
-361.53429218184226
21
159.77927366112061
31
8.8817841970012523e-15
0
ELLIPSE
5
302
100
AcDbEntity
8
0
100
AcDbEllipse
10
-361.53428241765823
20
160.03898143030676
30
-2.806154419943141e-08
11
2.1435391062141101e-06
21
-0.25970776936077311
31
0.0
40
1
41
6.283139456710165
42
7.8539816339742554
0
LINE
5
303
100
AcDbEntity
8
0
100
AcDbLine
10
-361.27457464829752
20
160.03898357384583
30
-2.806154419943141e-08
11
-361.2745746482974
21
160.79813152290893
31
8.8817841970012523e-15
0
ELLIPSE
5
304
100
AcDbEntity
8
0
100
AcDbEllipse
10
-361.53409025840324
20
160.78814285020616
30
-2.8192905787705058e-08
11
-0.25970769087166462
21
-0.00020192343903602261
31
0.0
40
0.99999999999999978
41
3.179285840648328
42
4.712388980384917
0
LINE
5
305
100
AcDbEntity
8
0
100
AcDbLine
10
-361.53429218184226
20
161.04785054107782
30
-2.8238433813498887e-08
11
-369.90487854818974
21
161.04785054107779
31
1.7763568394002505e-14
0
ELLIPSE
5
306
100
AcDbEntity
8
0
100
AcDbEllipse
10
-369.90488831237383
20
161.30755831026397
30
-2.8283979602861109e-08
11
9.7641840568485316e-06
21
-0.25970776918612165
31
0.0
40
1
41
4.7123431299152685
42
6.2831853071795862
0
LINE
5
307
100
AcDbEntity
8
0
100
AcDbLine
10
-370.16459608173471
20
161.30756045380303
30
-2.8283979602861109e-08
11
-370.16459608173466
21
162.06670840286614
31
8.8817841970012523e-15
0
ELLIPSE
5
308
100
AcDbEntity
8
0
100
AcDbEllipse
10
-369.90488831237377
20
162.0667105464052
30
-2.8417090902621567e-08
11
-2.1435390706869496e-06
21
0.25970776936084417
31
0.0
40
0.99999999999999989
41
6.283139456710165
42
7.8539816339744828
0
LINE
5
309
100
AcDbEntity
8
0
100
AcDbLine
10
-369.90487854818974
20
162.32641831559133
30
-2.8462627810199592e-08
11
-360.26573054352446
21
162.32641831559133
31
8.8817841970012523e-15
0
ELLIPSE
5
310
100
AcDbEntity
8
0
100
AcDbEllipse
10
-360.26572077934031
20
162.06671054640515
30
-2.8417090902621567e-08
11
-9.7641840568485316e-06
21
0.25970776918612165
31
0.0
40
1
41
4.7123431299152685
42
6.283185307180041
0
LINE
5
311
100
AcDbEntity
8
0
100
AcDbLine
10
-360.00601300997948
20
162.06670840286608
30
-2.8417090902621567e-08
11
-360.00601300997948
21
158.77041431470823
31
8.8817841970012523e-15
0
ELLIPSE
5
312
100
AcDbEntity
8
0
100
AcDbEllipse
10
-360.26572077934031
20
158.7704121711692
30
-2.783910879600171e-08
11
2.1435390884505201e-06
21
-0.25970776936084417
31
0.0
40
0.99999999999999989
41
6.283139456710165
42
7.8539816339743691
0
LINE
5
313
100
AcDbEntity
8
0
100
AcDbLine
10
-360.26573054352434
20
158.51070440198302
30
-2.7793571888423685e-08
11
-368.63631690987182
21
158.51070440198302
31
1.7763568394002505e-14
0
ELLIPSE
5
314
100
AcDbEntity
8
0
100
AcDbEllipse
10
-368.63651883331096
20
158.25099671111136
30
-2.7748034980845659e-08
11
0.0099886727027431801
21
0.25951561010579394
31
0.0
40
0.99999999999999978
41
0.03769318705829474
42
1.5707963267948966
0
LINE
5
315
100
AcDbEntity
8
0
100
AcDbLine
10
-368.89603444341674
20
158.2609853838141
30
-2.7749784692332469e-08
11
-368.89603444341674
21
157.53181011841977
31
8.8817841970012523e-15
0
ELLIPSE
5
316
100
AcDbEntity
8
0
100
AcDbEllipse
10
-368.63632667405591
20
157.53180797488073
30
-2.7621931408816636e-08
11
9.7641840568485316e-06
21
-0.25970776918612165
31
0.0
40
1
41
4.7123431299152685
42
6.2831853071791315
0
LINE
5
317
100
AcDbEntity
8
0
100
AcDbLine
10
-368.63631690987188
20
157.27210020569458
30
-2.757639450123861e-08
11
-360.26573054352434
21
157.27210020569458
31
-2.7576385619454413e-08
0
ELLIPSE
5
318
100
AcDbEntity
8
0
100
AcDbEllipse
10
-342.44577530079812
20
157.52181708032447
30
-2.7620181697329826e-08
11
2.1435391062140915e-06
21
-0.25970776936084417
31
0.0
40
0.99999999999999989
41
6.2831394567103924
42
7.8539816339744828
0
LINE
5
319
100
AcDbEntity
8
0
100
AcDbLine
10
-342.18606753143723
20
157.52181922386356
30
-2.7620181697329826e-08
11
-342.18606753143723
21
162.086682571159
31
8.8817841970012523e-15
0
ELLIPSE
5
320
100
AcDbEntity
8
0
100
AcDbEllipse
10
-341.93634851326834
20
162.086682571159
30
-2.8420590325595185e-08
11
2.7074590200977719e-20
21
0.24971901816897471
31
0.0
40
1
41
2.2737367544320621e-13
42
1.5707963267947829
0
LINE
5
321
100
AcDbEntity
8
0
100
AcDbLine
10
-341.9363485132684
20
162.33640158932798
30
-2.8464377521686401e-08
11
-341.18719145876156
21
162.33640158932789
31
8.8817841970012523e-15
0
ARC
5
322
100
AcDbEntity
8
0
100
AcDbCircle
10
-341.18639144715416
20
162.08668385263965
30
-3.3016434581656753e-08
40
0.24971901816892483
210
1.4004001029276783e-11
220
1.1236599861910326e-12
230
1
100
AcDbArc
50
4.5874989406532789
51
90.183555771639305
0
LINE
5
323
100
AcDbEntity
8
0
100
AcDbLine
10
-340.9374724405925
20
162.10665673945186
30
-2.8424098630353001e-08
11
-340.9374724405925
21
156.26323323846253
31
1.7763568394002505e-14
0
ELLIPSE
5
324
100
AcDbEntity
8
0
100
AcDbEllipse
10
-341.187191378477
20
156.26303299580158
30
-2.7399469360034345e-08
11
0.0002002426609948317
21
-0.24971893788446678
31
0.0
40
1
41
0.039247574438928061
42
1.5707963267947829
0
LINE
5
325
100
AcDbEntity
8
0
100
AcDbLine
10
-341.17719294338565
20
156.01351422029359
30
-2.7355717691079917e-08
11
-345.74206391150074
21
156.01351422029362
31
8.8817841970012523e-15
0
ARC
5
326
100
AcDbEntity
8
0
100
AcDbCircle
10
-345.74206391150062
20
156.26323323846256
30
-2.7399496005386936e-08
40
0.24971901816897457
210
0
220
0
230
1
100
AcDbArc
50
180
51
269.99999999997391
0
LINE
5
327
100
AcDbEntity
8
0
100
AcDbLine
10
-345.99178292966963
20
156.26323323846259
30
-2.7399496005386936e-08
11
-345.99178292966968
21
157.01239029296937
31
8.8817841970012523e-15
0
ELLIPSE
5
328
100
AcDbEntity
8
0
100
AcDbEllipse
10
-345.74206391150074
20
157.01239029296937
30
-2.7530857593660585e-08
11
2.7074590200977719e-20
21
0.24971901816897471
31
0.0
40
1
41
6.2831853071789041
42
7.8539816339743691
0
LINE
5
329
100
AcDbEntity
8
0
100
AcDbLine
10
-345.74206391150057
20
157.26210931113837
30
-2.7574635907967604e-08
11
-342.44578506498209
21
157.26210931113829
31
-2.7574644789751801e-08
0
ELLIPSE
5
330
100
AcDbEntity
8
0
100
AcDbEllipse
10
-344.48350078855867
20
162.086682571159
30
-2.8420590325595185e-08
11
2.7074590200977719e-20
21
0.24971901816897471
31
0.0
40
1
41
4.5474735088641242e-13
42
1.5707963267947829
0
LINE
5
331
100
AcDbEntity
8
0
100
AcDbLine
10
-344.48350078855873
20
162.33640158932798
30
-2.8464377521686401e-08
11
-343.72434521867598
21
162.33640158932789
31
8.8817841970012523e-15
0
ELLIPSE
5
332
100
AcDbEntity
8
0
100
AcDbEllipse
10
-343.72414329523684
20
162.07669389845623
30
-2.8418840614108376e-08
11
-0.25970769087166462
21
-0.00020192343903602261
31
0.0
40
0.99999999999999978
41
3.1792858406482143
42
4.712388980384917
0
LINE
5
333
100
AcDbEntity
8
0
100
AcDbLine
10
-343.46462768513106
20
162.08668257115897
30
-2.8420590325595185e-08
11
-343.46462768513106
21
158.7903884830011
31
8.8817841970012523e-15
0
ELLIPSE
5
334
100
AcDbEntity
8
0
100
AcDbEllipse
10
-343.72260107169672
20
158.8203527499667
30
-2.7847866235219954e-08
11
-0.02996426696562085
21
-0.25797338656573759
31
0.0
40
1
41
0.10868377254716176
42
1.5707963267948397
0
LINE
5
335
100
AcDbEntity
8
0
100
AcDbLine
10
-343.72440618523314
20
158.56065125394466
30
-2.7802338209426125e-08
11
-350.82640042998406
21
158.56065125394463
31
8.8817841970012523e-15
0
ELLIPSE
5
336
100
AcDbEntity
8
0
100
AcDbEllipse
10
-350.82641019416815
20
158.82035902313081
30
-2.7847866235219954e-08
11
9.7641840568485316e-06
21
-0.25970776918612165
31
0.0
40
1
41
4.7123431299153822
42
6.2831853071795862
0
LINE
5
337
100
AcDbEntity
8
0
100
AcDbLine
10
-351.08611796352898
20
158.82036116666987
30
-2.7847866235219954e-08
11
-351.08611796352886
21
162.11665525482775
31
1.7763568394002505e-14
0
ELLIPSE
5
338
100
AcDbEntity
8
0
100
AcDbEllipse
10
-350.82660235342308
20
162.106666582125
30
-2.8424089748568804e-08
11
0.0099886727027254131
21
0.25951561010579394
31
0.0
40
1
41
0.037693187058972094
42
1.5707963267947829
0
LINE
5
339
100
AcDbEntity
8
0
100
AcDbLine
10
-350.82640042998412
20
162.36637427299669
30
-2.8469626656146829e-08
11
-346.26152946186903
21
162.36637427299672
31
8.8817841970012523e-15
0
ELLIPSE
5
340
100
AcDbEntity
8
0
100
AcDbEllipse
10
-346.26132753842995
20
162.10666658212503
30
-2.8424089748568804e-08
11
-0.25970769087166462
21
-0.00020192343903602261
31
0.0
40
0.99999999999999978
41
3.1792858406482232
42
4.7123889803851444
0
LINE
5
341
100
AcDbEntity
8
0
100
AcDbLine
10
-346.00181192832417
20
162.11665525482772
30
-2.8425839460055613e-08
11
-346.00181192832406
21
161.35750730576464
31
1.7763568394002505e-14
0
ELLIPSE
5
342
100
AcDbEntity
8
0
100
AcDbEllipse
10
-346.261519697685
20
161.35750516222555
30
-2.8292728160295155e-08
11
2.1435390706869496e-06
21
-0.25970776936084417
31
0.0
40
0.99999999999999989
41
6.2831394567106198
42
7.8539816339745965
0
LINE
5
343
100
AcDbEntity
8
0
100
AcDbLine
10
-346.26152946186892
20
161.09779739303946
30
-2.8247200134501327e-08
11
-349.55780830838751
21
161.09779739303943
31
8.8817841970012523e-15
0
ELLIPSE
5
344
100
AcDbEntity
8
0
100
AcDbEllipse
10
-349.55801023182664
20
160.83808970216782
30
-2.8201663226923301e-08
11
0.0099886727027254131
21
0.25951561010579394
31
0.0
40
1
41
0.037693187058076096
42
1.5707963267947829
0
LINE
5
345
100
AcDbEntity
8
0
100
AcDbLine
10
-349.81752584193248
20
160.8480783748706
30
-2.8203412938410111e-08
11
-349.81752584193248
21
160.08893042580746
31
8.8817841970012523e-15
0
ELLIPSE
5
346
100
AcDbEntity
8
0
100
AcDbEllipse
10
-349.55781807257159
20
160.0889282822684
30
-2.8070301638649653e-08
11
9.7641839857942512e-06
21
-0.25970776918612171
31
0.0
40
0.99999999999999989
41
4.7123431299157232
42
6.2831853071795862
0
LINE
5
347
100
AcDbEntity
8
0
100
AcDbLine
10
-349.55780830838762
20
159.82922051308228
30
-2.8024764731071627e-08
11
-344.99293734027242
21
159.82922051308228
31
1.7763568394002505e-14
0
ELLIPSE
5
348
100
AcDbEntity
8
0
100
AcDbEllipse
10
-344.99292757608839
20
160.0889282822684
30
-2.8070301638649653e-08
11
2.1435390706869496e-06
21
-0.25970776936084417
31
0.0
40
0.99999999999999989
41
6.2831394567103924
42
7.8539816339743691
0
LINE
5
349
100
AcDbEntity
8
0
100
AcDbLine
10
-344.73321980672767
20
160.08893042580746
30
-2.8070301638649653e-08
11
-344.73321980672773
21
162.086682571159
31
-2.8420590325595185e-08
0
ARC
5
350
100
AcDbEntity
8
0
100
AcDbCircle
10
-373.63067662683204
20
157.53161581557669
30
-2.7621895881679848e-08
40
0.25970776936974205
210
-1.3679654994994281e-13
220
1.0234567138421419e-16
230
1
100
AcDbArc
50
179.95713361244719
51
267.79579056559623
0
LINE
5
351
100
AcDbEntity
8
0
100
AcDbLine
10
-373.64066530534808
20
157.27210020569456
30
-2.757639450123861e-08
11
-371.64291315999657
21
157.27210020569456
31
1.7763568394002505e-14
0
ARC
5
352
100
AcDbEntity
8
0
100
AcDbCircle
10
-371.64291315999657
20
157.02238118752564
30
-2.7532607305147394e-08
40
0.24971901816897457
210
0
220
-0
230
1
100
AcDbArc
50
0
51
90
0
LINE
5
353
100
AcDbEntity
8
0
100
AcDbLine
10
-371.39319414182756
20
157.02238118752564
30
-2.7532607305147394e-08
11
-371.39319414182751
21
156.26323323846256
31
1.7763568394002505e-14
0
ELLIPSE
5
354
100
AcDbEntity
8
0
100
AcDbEllipse
10
-371.65290076983064
20
156.26246327596925
30
-2.7399362778623981e-08
11
0.25970662800311584
21
0.00076996249333660725
31
0.0
40
0.99999999999999978
41
-1.4968464108872577
42
-1.1368683772161603e-13
0
LINE
5
355
100
AcDbEntity
8
0
100
AcDbLine
10
-371.63294512789918
20
156.00352332573732
30
-2.7353967979593108e-08
11
-374.93922248979356
21
156.00352332573732
31
8.8817841970012523e-15
0
ARC
5
356
100
AcDbEntity
8
0
100
AcDbCircle
10
-374.92923381127764
20
156.26303893561945
30
-2.7399469360034345e-08
40
0.2597077693697421
210
-1.0259741246245711e-13
220
7.6759253545178133e-17
230
1
100
AcDbArc
50
179.95713361243017
51
267.79579056562136
0
LINE
5
357
100
AcDbEntity
8
0
100
AcDbLine
10
-375.18894150796262
20
156.26323323846256
30
-2.7399496005386936e-08
11
-375.18894150796257
21
162.12664614938404
31
8.8817841970012523e-15
0
ELLIPSE
5
358
100
AcDbEntity
8
0
100
AcDbEllipse
10
-374.92923381127764
20
162.1268404522271
30
-2.8427633580463407e-08
11
-0.00019430284311283691
21
0.2597076966848989
31
0.0
40
0.99999999999999989
41
0.037722552432240951
42
1.5707963267945555
0
LINE
5
359
100
AcDbEntity
8
0
100
AcDbLine
10
-374.93922248979368
20
162.38635606210923
30
-2.8473134960904645e-08
11
-371.63294512789918
21
162.38635606210923
31
8.8817841970012523e-15
0
ARC
5
360
100
AcDbEntity
8
0
100
AcDbCircle
10
-371.6429338064151
20
162.12684045222713
30
-2.8427633580463407e-08
40
0.25970776936967105
210
-1.3679654994998022e-13
220
1.0234567141234012e-16
230
1
100
AcDbArc
50
-0.042866387578303841
51
87.79579056562109
0
LINE
5
361
100
AcDbEntity
8
0
100
AcDbLine
10
-371.38322610973023
20
162.12664614938399
30
-2.8427598053326619e-08
11
-371.38322610973023
21
158.83035206122614
31
8.8817841970012523e-15
0
ELLIPSE
5
362
100
AcDbEntity
8
0
100
AcDbEllipse
10
-371.64293380641516
20
158.83015775838305
30
-2.7849580419569975e-08
11
0.00019430284311283691
21
-0.2597076966848989
31
0.0
40
0.99999999999999989
41
0.037722552432018032
42
1.5707963267946692
0
LINE
5
363
100
AcDbEntity
8
0
100
AcDbLine
10
-371.63294512789918
20
158.57064214850095
30
-2.7804079039128737e-08
11
-372.40206872987926
21
158.57064214850092
31
1.7763568394002505e-14
0
ARC
5
364
100
AcDbEntity
8
0
100
AcDbCircle
10
-372.39208005136334
20
158.83015775838305
30
-2.7849580419569975e-08
40
0.25970776936967099
210
-1.3679654994998027e-13
220
1.0234567137491356e-16
230
1
100
AcDbArc
50
179.95713361244719
51
267.79579056562136
0
LINE
5
365
100
AcDbEntity
8
0
100
AcDbLine
10
-372.65178774804826
20
158.83035206122611
30
-2.7849615946706763e-08
11
-372.65178774804809
21
160.82810420657765
31
8.8817841970012523e-15
0
ARC
5
366
100
AcDbEntity
8
0
100
AcDbCircle
10
-372.90150676621471
20
160.82810420657768
30
4.2082303442293517e-05
40
0.24971901816897618
210
-1.1292661089248232e-07
220
0
230
0.99999999999999378
100
AcDbArc
50
0
51
90.000000000013046
0
LINE
5
367
100
AcDbEntity
8
0
100
AcDbLine
10
-372.90150676621715
20
161.07782322474662
30
-2.8243700711527708e-08
11
-373.64066530534808
21
161.07782322474662
31
8.8817841970012523e-15
0
ELLIPSE
5
368
100
AcDbEntity
8
0
100
AcDbEllipse
10
-373.64066530534808
20
160.82810420657768
30
-2.8199913515436492e-08
11
2.7074590200970021e-20
21
0.24971901816890366
31
0.0
40
1
41
2.2737367544320621e-13
42
1.5707963267950102
0
LINE
5
369
100
AcDbEntity
8
0
100
AcDbLine
10
-373.89038432351697
20
160.82810420657765
30
-2.8199913515436492e-08
11
-373.89038432351703
21
157.53181011841977
31
-2.7621931408816636e-08
0
LWPOLYLINE
5
370
100
AcDbEntity
8
0
100
AcDbPolyline
90
8
70
1
43
0.0
10
-319.76301105380901
20
103.31808173739003
42
-0.41421356237307422
10
-318.76301102587422
20
104.31808170945521
10
-306.76301102587416
20
104.31808137423737
42
-0.4142135623731002
10
-305.76301105380895
20
103.31808134630252
10
-305.76301138902681
20
91.318081346302691
42
-0.41421356237308982
10
-306.76301141696166
20
90.318081374237551
10
-318.7630114169616
20
90.318081709455242
42
-0.41421356237308465
10
-319.76301138902687
20
91.318081737390173
0
LWPOLYLINE
5
371
100
AcDbEntity
8
0
100
AcDbPolyline
90
8
70
1
43
0.0
10
-300.71301105380888
20
103.31808120523171
10
-300.71301138902686
20
91.318081205231877
42
0.41421356237307944
10
-299.71301141696165
20
90.318081177297131
10
-287.71301141696165
20
90.31808084207924
42
0.41421356237307944
10
-286.71301138902686
20
91.318080814144409
10
-286.71301105380894
20
103.31808081414421
42
0.41421356237311063
10
-287.71301102587415
20
104.31808084207908
10
-299.71301102587415
20
104.31808117729686
42
0.41421356237308982
0
LWPOLYLINE
5
372
100
AcDbEntity
8
0
100
AcDbPolyline
90
8
70
1
43
0.0
10
-262.90050965951241
20
153.23058014894633
42
-0.4142135623731002
10
-263.90050968744725
20
152.23058017688115
10
-275.90050968744708
20
152.23058051209904
42
-0.4142135623731002
10
-276.9005096595123
20
153.23058054003386
10
-276.90050932429455
20
165.23058054003386
42
-0.41421356237310542
10
-275.9005092963597
20
166.23058051209907
10
-263.90050929635981
20
166.23058017688118
42
-0.41421356237311585
10
-262.9005093242946
20
165.23058014894633
0
LWPOLYLINE
5
373
100
AcDbEntity
8
0
100
AcDbPolyline
90
8
70
1
43
0.0
10
-252.08801021960551
20
133.18057984690117
10
-240.08801021960548
20
133.18057951168333
42
0.41421356237312101
10
-239.08801019167061
20
134.18057948374849
10
-239.08800985645274
20
146.18057948374846
42
0.4142135623731002
10
-240.0880098285179
20
147.18057951168331
10
-252.0880098285179
20
147.18057984690114
42
0.4142135623731002
10
-253.08800985645286
20
146.18057987483596
10
-253.08801019167063
20
134.18057987483598
42
0.4142135623731002
0
LWPOLYLINE
5
374
100
AcDbEntity
8
0
100
AcDbPolyline
90
8
70
1
43
0.0
10
-135.31301102587409
20
104.31807658481276
10
-147.31301102587412
20
104.31807692003055
42
0.4142135623731002
10
-148.31301105380891
20
103.31807694796538
10
-148.31301138902674
20
91.318076947965579
42
0.41421356237308982
10
-147.31301141696156
20
90.318076920030734
10
-135.31301141696161
20
90.318076584812999
42
0.41421356237308982
10
-134.31301138902677
20
91.31807655687814
10
-134.31301105380891
20
103.31807655687794
42
0.41421356237308982
0
LWPOLYLINE
5
375
100
AcDbEntity
8
0
100
AcDbPolyline
90
8
70
1
43
0.0
10
-144.83800982851795
20
147.18057685089184
42
-0.41421356237308982
10
-143.83800985645277
20
146.18057682295702
10
-143.83801019167061
20
134.18057682295705
42
-0.41421356237308465
10
-144.83801021960542
20
133.18057685089187
10
-156.83801021960539
20
133.18057718610964
42
-0.4142135623731002
10
-157.83801019167061
20
134.18057721404449
10
-157.83800985645283
20
146.18057721404449
42
-0.4142135623731002
10
-156.83800982851795
20
147.18057718610967
0
LWPOLYLINE
5
376
100
AcDbEntity
8
0
100
AcDbPolyline
90
8
70
1
43
0.0
10
-280.66301141696152
20
90.318080645138792
10
-268.66301141696158
20
90.318080309921015
42
0.414213562373069
10
-267.66301138902685
20
91.318080281986127
10
-267.66301105380899
20
103.31808028198593
42
0.41421356237309509
10
-268.66301102587408
20
104.31808030992082
10
-280.66301102587408
20
104.31808064513861
42
0.41421356237310542
10
-281.66301105380899
20
103.31808067307341
10
-281.66301138902679
20
91.318080673073624
42
0.41421356237312101
0
LWPOLYLINE
5
377
100
AcDbEntity
8
0
100
AcDbPolyline
90
8
70
1
43
0.0
10
-221.00675828791276
20
202.3305789786522
42
-0.41421356237309509
10
-220.00675825997789
20
203.33057895071735
10
-215.00675825997791
20
203.33057881104321
42
-0.41421356237307422
10
-214.00675828791276
20
202.33057878310842
10
-214.00675865106538
20
189.33057878310836
42
-0.41421356237311585
10
-215.0067586790002
20
188.33057881104315
10
-220.00675867900014
20
188.3305789507173
42
-0.41421356237311585
10
-221.00675865106538
20
189.33057897865214
0
LWPOLYLINE
5
378
100
AcDbEntity
8
0
100
AcDbPolyline
90
8
70
1
43
0.0
10
-175.88801141696152
20
90.318077718268199
10
-163.88801141696163
20
90.318077383050422
42
0.41421356237312629
10
-162.88801138902676
20
91.318077355115591
10
-162.88801105380901
20
103.31807735511534
42
0.41421356237309509
10
-163.88801102587416
20
104.31807738305018
10
-175.88801102587408
20
104.31807771826803
42
0.41421356237311063
10
-176.88801105380892
20
103.3180777462028
10
-176.88801138902676
20
91.318077746203045
42
0.41421356237311063
0
LWPOLYLINE
5
379
100
AcDbEntity
8
0
100
AcDbPolyline
90
8
70
1
43
0.0
10
-213.98801021960543
20
133.18057878258455
42
-0.41421356237308982
10
-214.98801019167061
20
134.18057881051934
10
-214.98800985645275
20
146.18057881051936
42
-0.41421356237309509
10
-213.98800982851796
20
147.18057878258458
10
-201.98800982851796
20
147.18057844736671
42
-0.41421356237308465
10
-200.98800985645283
20
146.18057841943192
10
-200.98801019167055
20
134.18057841943192
42
-0.41421356237311063
10
-201.98801021960537
20
133.18057844736674
0
LWPOLYLINE
5
380
100
AcDbEntity
8
0
100
AcDbPolyline
90
8
70
1
43
0.0
10
-258.13801019167056
20
134.18058001590683
42
-0.41421356237310542
10
-259.13801021960541
20
133.18058004384164
10
-271.13801021960546
20
133.18058037905951
42
-0.41421356237308982
10
-272.13801019167056
20
134.18058040699427
10
-272.13800985645287
20
146.18058040699427
42
-0.41421356237311063
10
-271.13800982851797
20
147.18058037905951
10
-259.13800982851797
20
147.18058004384153
42
-0.41421356237308982
10
-258.13800985645287
20
146.18058001590677
0
LWPOLYLINE
5
381
100
AcDbEntity
8
0
100
AcDbPolyline
90
8
70
1
43
0.0
10
-97.213011025874209
20
104.31807552049614
10
-109.2130110258741
20
104.31807585571393
42
0.41421356237308465
10
-110.21301105380893
20
103.31807588364876
10
-110.2130113890268
20
91.318075883649016
42
0.41421356237310542
10
-109.21301141696156
20
90.318075855714156
10
-97.213011416961677
20
90.318075520496308
42
0.41421356237310542
10
-96.213011389026875
20
91.318075492561533
10
-96.213011053809055
20
103.31807549256129
42
0.41421356237308982
0
LWPOLYLINE
5
382
100
AcDbEntity
8
0
100
AcDbPolyline
90
8
70
1
43
0.0
10
-77.163011389026849
20
91.318074960403209
42
-0.41421356237308726
10
-78.163011416961666
20
90.318074988338054
10
-90.163011416961638
20
90.31807532355586
42
-0.41421356237314189
10
-91.163011389026977
20
91.31807535149072
10
-91.163011053809143
20
103.31807535149046
42
-0.41421356237311585
10
-90.163011025874283
20
104.3180753235557
10
-78.163011025874198
20
104.31807498833771
42
-0.41421356237308726
10
-77.163011053809143
20
103.31807496040301
0
LWPOLYLINE
5
383
100
AcDbEntity
8
0
100
AcDbPolyline
90
8
70
1
43
0.0
10
-234.32550912735417
20
172.2805793507089
42
-0.41421356237310542
10
-235.32550915528896
20
171.28057937864378
10
-247.32550915528887
20
171.28057971386164
42
-0.41421356237309509
10
-248.32550912735405
20
172.28057974179646
10
-248.32550879213616
20
184.2805797417964
42
-0.41421356237310542
10
-247.32550876420132
20
185.28057971386161
10
-235.32550876420135
20
185.28057937864375
42
-0.41421356237310542
10
-234.32550879213619
20
184.28057935070893
0
LWPOLYLINE
5
384
100
AcDbEntity
8
0
100
AcDbPolyline
90
8
70
1
43
0.0
10
-206.75050929635972
20
166.23057858040636
10
-218.75050929635975
20
166.23057891562422
42
0.41421356237308465
10
-219.75050932429451
20
165.23057894355901
10
-219.7505096595124
20
153.23057894355898
42
0.41421356237307422
10
-218.75050968744728
20
152.23057891562411
10
-206.75050968744716
20
152.2305785804063
42
0.4142135623731002
10
-205.75050965951243
20
153.23057855247151
10
-205.75050932429451
20
165.23057855247151
42
0.41421356237310542
0
LWPOLYLINE
5
385
100
AcDbEntity
8
0
100
AcDbPolyline
90
8
70
1
43
0.0
10
-180.65050968744717
20
152.23057785130757
10
-168.6505096874472
20
152.23057751608977
42
0.41421356237309509
10
-167.65050965951232
20
153.23057748815492
10
-167.65050932429449
20
165.23057748815495
42
0.41421356237312629
10
-168.65050929635973
20
166.23057751608974
10
-180.65050929635973
20
166.23057785130757
42
0.41421356237310542
10
-181.65050932429452
20
165.23057787924239
10
-181.65050965951238
20
153.23057787924239
42
0.4142135623731002
0
LWPOLYLINE
5
386
100
AcDbEntity
8
0
100
AcDbPolyline
90
8
70
1
43
0.0
10
-120.02550912735404
20
172.28057615775924
42
-0.4142135623731002
10
-121.02550915528882
20
171.28057618569412
10
-133.0255091552888
20
171.28057652091175
42
-0.41421356237311063
10
-134.02550912735404
20
172.28057654884662
10
-134.02550879213612
20
184.28057654884668
42
-0.41421356237305862
10
-133.02550876420131
20
185.28057652091175
10
-121.02550876420139
20
185.28057618569403
42
-0.41421356237308982
10
-120.02550879213621
20
184.28057615775919
0
LWPOLYLINE
5
387
100
AcDbEntity
8
0
100
AcDbPolyline
90
8
70
1
43
0.0
10
-266.3755091552888
20
171.28058024601995
10
-254.37550915528888
20
171.28057991080215
42
0.4142135623730534
10
-253.37550912735401
20
172.28057988286722
10
-253.37550879213632
20
184.28057988286724
42
0.41421356237307422
10
-254.37550876420141
20
185.28057991080209
10
-266.3755087642013
20
185.28058024601987
42
0.41421356237308465
10
-267.3755087921362
20
184.28058027395477
10
-267.37550912735401
20
172.28058027395468
42
0.41421356237311585
0
LWPOLYLINE
5
388
100
AcDbEntity
8
0
100
AcDbPolyline
90
8
70
1
43
0.0
10
-109.2130107517637
20
114.130575855714
42
-0.41421356237308982
10
-110.21301072382886
20
115.1305758836488
10
-110.21301038861105
20
127.13057588364877
42
-0.41421356237308982
10
-109.21301036067621
20
128.13057585571394
10
-97.21301036067635
20
128.13057552049614
42
-0.41421356237309509
10
-96.213010388611181
20
127.13057549256132
10
-96.213010723829001
20
115.13057549256135
42
-0.4142135623731002
10
-97.213010751763832
20
114.13057552049614
0
LWPOLYLINE
5
389
100
AcDbEntity
8
0
100
AcDbPolyline
90
8
70
1
43
0.0
10
-91.163010388611255
20
127.13057535149056
42
-0.41421356237309509
10
-90.163010360676438
20
128.13057532355575
10
-78.16301036067631
20
128.13057498833783
42
-0.4142135623730977
10
-77.163010388611141
20
127.130574960403
10
-77.163010723828975
20
115.13057496040304
42
-0.4142135623730977
10
-78.163010751763792
20
114.13057498833783
10
-90.163010751763878
20
114.13057532355565
42
-0.41421356237311063
10
-91.163010723829103
20
115.13057535149051
0
LWPOLYLINE
5
390
100
AcDbEntity
8
0
100
AcDbPolyline
90
8
70
1
43
0.0
10
-115.2630113890268
20
91.318076024719858
42
-0.41421356237309509
10
-116.2630114169616
20
90.318076052654675
10
-128.26301141696158
20
90.31807638787248
42
-0.41421356237309509
10
-129.26301138902676
20
91.318076415807269
10
-129.26301105380895
20
103.31807641580704
42
-0.41421356237310542
10
-128.26301102587411
20
104.31807638787228
10
-116.26301102587412
20
104.31807605265446
42
-0.41421356237311063
10
-115.26301105380894
20
103.31807602471963
0
LWPOLYLINE
5
391
100
AcDbEntity
8
0
100
AcDbPolyline
90
8
70
1
43
0.0
10
-115.26301072382887
20
115.1305760247196
42
-0.41421356237310542
10
-116.26301075176372
20
114.13057605265442
10
-128.26301075176374
20
114.1305763878723
42
-0.41421356237307944
10
-129.2630107238289
20
115.13057641580713
10
-129.26301038861112
20
127.1305764158071
42
-0.4142135623731002
10
-128.26301036067628
20
128.13057638787231
10
-116.26301036067619
20
128.13057605265445
42
-0.41421356237308982
10
-115.26301038861105
20
127.13057602471957
0
LWPOLYLINE
5
392
100
AcDbEntity
8
0
100
AcDbPolyline
90
8
70
1
43
0.0
10
-237.80050968744715
20
152.23057944778242
10
-225.80050968744712
20
152.23057911256458
42
0.41421356237308982
10
-224.80050965951233
20
153.23057908462977
10
-224.80050932429452
20
165.23057908462982
42
0.41421356237308465
10
-225.80050929635971
20
166.23057911256467
10
-237.80050929635968
20
166.23057944778242
42
0.41421356237304296
10
-238.80050932429452
20
165.23057947571738
10
-238.80050965951233
20
153.23057947571732
42
0.4142135623731002
0
LWPOLYLINE
5
393
100
AcDbEntity
8
0
100
AcDbPolyline
90
8
70
1
43
0.0
10
-243.56301038861102
20
127.13057960875685
10
-243.56301072382888
20
115.1305796087569
42
0.41421356237310542
10
-242.56301075176381
20
114.13057958082193
10
-230.56301075176367
20
114.1305792456042
42
0.41421356237308465
10
-229.56301072382882
20
115.13057921766931
10
-229.56301038861108
20
127.13057921766932
42
0.41421356237309509
10
-230.5630103606762
20
128.13057924560417
10
-242.56301036067626
20
128.130579580822
42
0.41421356237307422
0
LWPOLYLINE
5
394
100
AcDbEntity
8
0
100
AcDbPolyline
90
8
70
1
43
0.0
10
-148.31301038861102
20
127.13057694796535
10
-148.31301072382888
20
115.13057694796538
42
0.41421356237311585
10
-147.31301075176367
20
114.13057692003052
10
-135.31301075176373
20
114.13057658481273
42
0.41421356237310542
10
-134.31301072382888
20
115.13057655687795
10
-134.31301038861108
20
127.13057655687788
42
0.41421356237309509
10
-135.31301036067623
20
128.13057658481276
10
-147.31301036067626
20
128.13057692003053
42
0.4142135623731002
0
LWPOLYLINE
5
395
100
AcDbEntity
8
0
100
AcDbPolyline
90
8
70
1
43
0.0
10
-119.73800985645276
20
146.18057614972793
42
-0.41421356237310542
10
-118.73800982851792
20
147.18057612179311
10
-106.73800982851795
20
147.18057578657528
42
-0.41421356237309509
10
-105.73800985645278
20
146.18057575864046
10
-105.73801019167063
20
134.18057575864046
42
-0.4142135623731002
10
-106.73801021960543
20
133.18057578657528
10
-118.73801021960534
20
133.18057612179311
42
-0.41421356237311585
10
-119.73801019167058
20
134.18057614972793
0
LWPOLYLINE
5
396
100
AcDbEntity
8
0
100
AcDbPolyline
90
8
70
1
43
0.0
10
-200.7005093242945
20
165.2305784114007
10
-200.70050965951231
20
153.23057841140067
42
0.41421356237307944
10
-199.70050968744718
20
152.23057838346583
10
-187.70050968744715
20
152.23057804824802
42
0.41421356237307944
10
-186.70050965951233
20
153.2305780203132
10
-186.70050932429447
20
165.23057802031317
42
0.41421356237309509
10
-187.70050929635968
20
166.23057804824811
10
-199.70050929635963
20
166.23057838346594
42
0.41421356237311585
0
LWPOLYLINE
5
397
100
AcDbEntity
8
0
100
AcDbPolyline
90
8
70
1
43
0.0
10
-100.68800985645289
20
146.18057561756962
42
-0.41421356237309509
10
-99.688009828518034
20
147.18057558963477
10
-87.688009828518148
20
147.18057525441702
42
-0.41421356237310542
10
-86.688009856452936
20
146.18057522648218
10
-86.688010191670827
20
134.18057522648218
42
-0.41421356237309509
10
-87.68801021960563
20
133.18057525441699
10
-99.688010219605474
20
133.18057558963491
42
-0.4142135623731002
10
-100.6880101916706
20
134.18057561756962
0
LWPOLYLINE
5
398
100
AcDbEntity
8
0
100
AcDbPolyline
90
8
70
1
43
0.0
10
-216.27550876420148
20
185.28057884648547
42
-0.41421356237309509
10
-215.27550879213629
20
184.28057881855065
10
-215.27550912735407
20
172.28057881855065
42
-0.41421356237310542
10
-216.27550915528894
20
171.28057884648544
10
-228.27550915528886
20
171.2805791817033
42
-0.41421356237310542
10
-229.2755091273541
20
172.28057920963812
10
-229.27550879213626
20
184.28057920963818
42
-0.41421356237309509
10
-228.27550876420145
20
185.28057918170336
0
LWPOLYLINE
5
399
100
AcDbEntity
8
0
100
AcDbPolyline
90
8
70
1
43
0.0
10
-181.93801138902674
20
91.318077887273859
42
-0.41421356237308982
10
-182.93801141696153
20
90.318077915208704
10
-194.93801141696153
20
90.318078250426552
42
-0.4142135623731002
10
-195.93801138902674
20
91.318078278361355
10
-195.93801105380894
20
103.31807827836109
42
-0.41421356237311585
10
-194.93801102587409
20
104.31807825042631
10
-182.93801102587409
20
104.31807791520842
42
-0.41421356237309509
10
-181.93801105380891
20
103.31807788727363
0
LWPOLYLINE
5
400
100
AcDbEntity
8
0
100
AcDbPolyline
90
8
70
1
43
0.0
10
-268.66301036067631
20
128.13058030992079
10
-280.66301036067625
20
128.13058064513856
42
0.41421356237307422
10
-281.66301038861104
20
127.13058067307342
10
-281.6630107238289
20
115.13058067307338
42
0.41421356237310542
10
-280.66301075176369
20
114.13058064513861
10
-268.66301075176375
20
114.13058030992077
42
0.41421356237309509
10
-267.66301072382885
20
115.13058028198593
10
-267.66301038861104
20
127.13058028198594
42
0.41421356237312629
0
LWPOLYLINE
5
401
100
AcDbEntity
8
0
100
AcDbPolyline
90
8
70
1
43
0.0
10
-201.98801102587413
20
104.31807844736667
42
-0.41421356237308465
10
-200.988011053809
20
103.31807841943188
10
-200.98801138902675
20
91.31807841943214
42
-0.41421356237308465
10
-201.98801141696157
20
90.318078447366972
10
-213.98801141696146
20
90.318078782584692
42
-0.41421356237312101
10
-214.98801138902681
20
91.318078810519566
10
-214.98801105380895
20
103.31807881051937
42
-0.41421356237308982
10
-213.9880110258741
20
104.31807878258456
0
LWPOLYLINE
5
402
100
AcDbEntity
8
0
100
AcDbPolyline
90
8
70
1
43
0.0
10
-185.41301075176375
20
114.13057798434718
10
-173.41301075176372
20
114.13057764912932
42
0.41421356237309509
10
-172.41301072382882
20
115.1305776211945
10
-172.41301038861107
20
127.1305776211945
42
0.41421356237312101
10
-173.41301036067631
20
128.13057764912929
10
-185.41301036067614
20
128.1305779843471
42
0.41421356237309509
10
-186.41301038861099
20
127.13057801228194
10
-186.41301072382888
20
115.13057801228197
42
0.41421356237308982
0
LWPOLYLINE
5
403
100
AcDbEntity
8
0
100
AcDbPolyline
90
8
70
1
43
0.0
10
-130.55050929635965
20
166.23057645177312
10
-142.55050929635968
20
166.23057678699095
42
0.41421356237306384
10
-143.55050932429435
20
165.23057681492583
10
-143.55050965951219
20
153.2305768149258
42
0.41421356237310542
10
-142.55050968744709
20
152.23057678699109
10
-130.55050968744709
20
152.23057645177312
42
0.41421356237310542
10
-129.55050965951227
20
153.23057642383833
10
-129.55050932429447
20
165.23057642383836
42
0.41421356237310542
0
LWPOLYLINE
5
404
100
AcDbEntity
8
0
100
AcDbPolyline
90
8
70
1
43
0.0
10
-257.85050932429436
20
165.2305800078756
42
-0.41421356237309509
10
-256.85050929635963
20
166.23057997994067
10
-244.85050929635972
20
166.23057964472292
42
-0.41421356237310542
10
-243.85050932429451
20
165.23057961678813
10
-243.85050965951237
20
153.23057961678808
42
-0.4142135623731002
10
-244.85050968744724
20
152.23057964472287
10
-256.85050968744719
20
152.2305799799407
42
-0.41421356237309509
10
-257.85050965951234
20
153.23058000787552
0
LWPOLYLINE
5
405
100
AcDbEntity
8
0
100
AcDbPolyline
90
8
70
1
43
0.0
10
-192.46301036067632
20
128.13057818128763
10
-204.46301036067624
20
128.13057851650544
42
0.41421356237311585
10
-205.46301038861105
20
127.13057854444023
10
-205.46301072382892
20
115.13057854444025
42
0.41421356237308465
10
-204.4630107517637
20
114.13057851650544
10
-192.46301075176373
20
114.13057818128762
42
0.41421356237310542
10
-191.46301072382886
20
115.13057815335284
10
-191.46301038861108
20
127.13057815335281
42
0.41421356237311585
0
LWPOLYLINE
5
406
100
AcDbEntity
8
0
100
AcDbPolyline
90
8
70
1
43
0.0
10
-182.93800982851803
20
147.18057791520849
10
-194.93800982851798
20
147.18057825042627
42
0.4142135623731002
10
-195.93800985645282
20
146.18057827836111
10
-195.9380101916706
20
134.18057827836111
42
0.4142135623731002
10
-194.93801021960539
20
133.18057825042629
10
-182.93801021960533
20
133.18057791520843
42
0.41421356237309509
10
-181.93801019167057
20
134.18057788727364
10
-181.93800985645282
20
146.18057788727359
42
0.41421356237310542
0
LWPOLYLINE
5
407
100
AcDbEntity
8
0
100
AcDbPolyline
90
8
70
1
43
0.0
10
-316.38175862313051
20
190.33058164293547
10
-302.00050862313054
20
190.33058124119788
42
0.41421356237310542
10
-301.0005085951957
20
191.33058121326312
10
-301.00050825997801
20
203.33058121326297
42
0.4142135623730534
10
-302.00050823204299
20
204.33058124119785
10
-316.38175823204313
20
204.33058164293539
42
0.41421356237309509
10
-317.38175825997791
20
203.33058167087017
10
-317.38175859519566
20
191.33058167087034
42
0.41421356237311585
0
LWPOLYLINE
5
408
100
AcDbEntity
8
0
100
AcDbPolyline
90
14
70
1
43
0.0
10
-231.94425859519578
20
191.33057928418933
42
-0.28606663487962086
10
-232.50363362027261
20
190.43288803363583
42
0.28606663487963652
10
-233.06300864534947
20
189.53519678308211
10
-233.06300865106539
20
189.3305793154413
42
-0.41421356237309509
10
-234.06300867900018
20
188.33057934337614
10
-239.06300867900018
20
188.3305794830502
42
-0.41421356237310542
10
-240.06300865106539
20
189.33057951098505
42
0.41421356237307422
10
-241.06300862313063
20
190.33057953891981
10
-244.94425862313057
20
190.33057964734189
42
-0.41421356237309509
10
-245.94425859519575
20
191.33057967527677
10
-245.944258259978
20
203.33057967527657
42
-0.41421356237308465
10
-244.94425823204313
20
204.33057964734178
10
-232.94425823204313
20
204.33057931212392
42
-0.41421356237309509
10
-231.944258259978
20
203.33057928418918
0
LWPOLYLINE
5
409
100
AcDbEntity
8
0
100
AcDbPolyline
90
8
70
1
43
0.0
10
-110.50050965951236
20
153.23057589168005
42
-0.41421356237308982
10
-111.50050968744709
20
152.23057591961495
10
-123.50050968744711
20
152.2305762548327
42
-0.4142135623731002
10
-124.50050965951229
20
153.23057628276752
10
-124.50050932429436
20
165.23057628276749
42
-0.41421356237311585
10
-123.50050929635961
20
166.23057625483261
10
-111.50050929635967
20
166.23057591961492
42
-0.41421356237311063
10
-110.50050932429444
20
165.23057589168005
0
LWPOLYLINE
5
410
100
AcDbEntity
8
0
100
AcDbPolyline
90
8
70
1
43
0.0
10
-154.36301036067624
20
128.13057711697101
10
-166.36301036067621
20
128.13057745218885
42
0.41421356237311585
10
-167.36301038861097
20
127.13057748012368
10
-167.36301072382895
20
115.13057748012373
42
0.41421356237310542
10
-166.36301075176377
20
114.13057745218885
10
-154.36301075176374
20
114.1305771169711
42
0.41421356237307944
10
-153.36301072382889
20
115.13057708903622
10
-153.36301038861103
20
127.13057708903619
42
0.4142135623731002
0
LWPOLYLINE
5
411
100
AcDbEntity
8
0
100
AcDbPolyline
90
8
70
1
43
0.0
10
-148.60050965951223
20
153.23057695599661
42
-0.41421356237309509
10
-149.60050968744707
20
152.23057698393143
10
-161.60050968744707
20
152.23057731914929
42
-0.41421356237312101
10
-162.60050965951234
20
153.23057734708408
10
-162.60050932429439
20
165.23057734708408
42
-0.41421356237311585
10
-161.60050929635963
20
166.23057731914923
10
-149.60050929635963
20
166.23057698393148
42
-0.41421356237308465
10
-148.60050932429448
20
165.23057695599664
0
LWPOLYLINE
5
412
100
AcDbEntity
8
0
100
AcDbPolyline
90
8
70
1
43
0.0
10
-248.61301072382886
20
115.1305797498277
10
-248.613010388611
20
127.13057974982767
42
0.41421356237310542
10
-249.61301036067627
20
128.13057977776248
10
-261.61301036067618
20
128.13058011298028
42
0.41421356237308982
10
-262.61301038861097
20
127.13058014091513
10
-262.61301072382884
20
115.13058014091513
42
0.41421356237307944
10
-261.6130107517638
20
114.13058011298033
10
-249.61301075176374
20
114.13057977776251
42
0.41421356237309509
0
LWPOLYLINE
5
413
100
AcDbEntity
8
0
100
AcDbPolyline
90
8
70
1
43
0.0
10
-178.1755087642014
20
185.2805777821689
42
-0.41421356237309509
10
-177.17550879213621
20
184.28057775423406
10
-177.17550912735408
20
172.28057775423409
42
-0.41421356237309509
10
-178.17550915528886
20
171.2805777821689
10
-190.17550915528881
20
171.28057811738668
42
-0.41421356237310542
10
-191.17550912735396
20
172.2805781453215
10
-191.17550879213616
20
184.28057814532153
42
-0.41421356237308465
10
-190.17550876420137
20
185.28057811738665
0
LWPOLYLINE
5
414
100
AcDbEntity
8
0
100
AcDbPolyline
90
20
70
1
43
0.0
10
-312.67601030480654
20
130.13058153941589
42
-0.41421356237309509
10
-311.67601033274138
20
129.1305815114811
42
0.41421356237307422
10
-310.67601036067629
20
128.13058148354634
10
-295.8000103606762
20
128.13058106798798
42
0.41421356237308982
10
-294.80001033274146
20
129.13058104005307
42
-0.41421356237311063
10
-293.80001030480662
20
130.13058101211828
10
-288.80001030480673
20
130.13058087244423
42
-0.41421356237311063
10
-287.80001033274141
20
129.13058084450935
10
-287.800010695894
20
116.13058084450942
42
-0.41421356237310542
10
-288.8000107238289
20
115.13058087244423
10
-295.50595991625983
20
115.13058105977366
42
0.2679491924312038
10
-296.37198533401198
20
114.63058108396578
42
-0.26794919243107473
10
-297.23801075176374
20
114.13058110815822
10
-309.23801075176368
20
114.13058144337592
42
-0.26794919243112392
10
-310.10403614158082
20
114.63058146756828
42
0.26794919243111842
10
-310.97006153139779
20
115.13058149176049
10
-317.67601072382882
20
115.13058167909007
42
-0.4142135623731002
10
-318.67601069589404
20
116.13058170702487
10
-318.67601033274133
20
129.13058170702482
42
-0.41421356237308982
10
-317.67601030480654
20
130.13058167909003
0
LWPOLYLINE
5
415
100
AcDbEntity
8
0
100
AcDbPolyline
90
8
70
1
43
0.0
10
-220.03801019167059
20
134.18057895159023
10
-220.03800985645279
20
146.18057895159015
42
0.41421356237313667
10
-221.03800982851806
20
147.18057897952508
10
-233.03800982851794
20
147.18057931474289
42
0.41421356237308982
10
-234.03800985645279
20
146.18057934267767
10
-234.03801019167051
20
134.18057934267767
42
0.41421356237307944
10
-233.03801021960544
20
133.18057931474289
10
-221.03801021960544
20
133.18057897952502
42
0.41421356237310542
0
LWPOLYLINE
5
416
100
AcDbEntity
8
0
100
AcDbPolyline
90
8
70
1
43
0.0
10
-162.88801019167053
20
134.18057735511533
42
-0.41421356237308465
10
-163.88801021960532
20
133.18057738305015
10
-175.88801021960541
20
133.18057771826795
42
-0.41421356237310542
10
-176.88801019167067
20
134.18057774620277
10
-176.88800985645284
20
146.18057774620286
42
-0.41421356237309509
10
-175.88800982851797
20
147.18057771826801
10
-163.88800982851791
20
147.18057738305015
42
-0.41421356237307422
10
-162.88800985645284
20
146.18057735511533
0
LWPOLYLINE
5
417
100
AcDbEntity
8
0
100
AcDbPolyline
90
8
70
1
43
0.0
10
-137.78801021960541
20
133.18057665395139
42
-0.4142135623731002
10
-138.78801019167062
20
134.18057668188627
10
-138.78800985645276
20
146.18057668188624
42
-0.41421356237309509
10
-137.78800982851794
20
147.18057665395145
10
-125.78800982851796
20
147.18057631873359
42
-0.41421356237308465
10
-124.7880098564528
20
146.1805762907988
10
-124.78801019167062
20
134.18057629079874
42
-0.41421356237309509
10
-125.78801021960545
20
133.18057631873361
0
LWPOLYLINE
5
418
100
AcDbEntity
8
0
100
AcDbPolyline
90
8
70
1
43
0.0
10
-291.18800985645282
20
146.18058093915261
42
-0.4142135623731002
10
-290.18800982851792
20
147.18058091121779
10
-278.18800982851792
20
147.1805805759999
42
-0.414213562373069
10
-277.18800985645282
20
146.18058054806508
10
-277.18801019167057
20
134.18058054806511
42
-0.41421356237308982
10
-278.18801021960536
20
133.1805805759999
10
-290.18801021960536
20
133.18058091121773
42
-0.4142135623731002
10
-291.18801019167057
20
134.18058093915255
0
LWPOLYLINE
5
419
100
AcDbEntity
8
0
100
AcDbPolyline
90
8
70
1
43
0.0
10
-186.41300825997797
20
203.33057801228196
42
-0.41421356237308465
10
-185.41300823204313
20
204.33057798434714
10
-161.50675823204313
20
204.33057731653034
42
-0.41421356237310542
10
-160.50675825997791
20
203.33057728859555
10
-160.50675859519572
20
191.33057728859572
42
-0.41421356237312629
10
-161.50675862313051
20
190.33057731653045
10
-185.41300862313051
20
190.3305779843472
42
-0.41421356237308465
10
-186.41300859519572
20
191.33057801228199
0
LWPOLYLINE
5
420
100
AcDbEntity
8
0
100
AcDbPolyline
90
8
70
1
43
0.0
10
-153.07550879213619
20
184.28057708100499
42
-0.41421356237308465
10
-152.07550876420135
20
185.2805770530702
10
-140.07550876420135
20
185.28057671785228
42
-0.4142135623731002
10
-139.07550879213619
20
184.28057668991744
10
-139.075509127354
20
172.28057668991752
42
-0.41421356237310542
10
-140.07550915528881
20
171.28057671785228
10
-152.07550915528881
20
171.28057705307026
42
-0.4142135623731002
10
-153.075509127354
20
172.28057708100505
0
LWPOLYLINE
5
421
100
AcDbEntity
8
0
100
AcDbPolyline
90
8
70
1
43
0.0
10
-100.97550912735397
20
172.28057562560096
42
-0.41421356237308982
10
-101.97550915528885
20
171.28057565353572
10
-113.97550915528882
20
171.28057598875347
42
-0.41421356237311585
10
-114.97550912735404
20
172.28057601668834
10
-114.97550879213618
20
184.28057601668826
42
-0.41421356237312101
10
-113.97550876420138
20
185.28057598875353
10
-101.97550876420139
20
185.28057565353578
42
-0.41421356237311063
10
-100.9755087921362
20
184.28057562560093
0
LWPOLYLINE
5
422
100
AcDbEntity
8
0
100
AcDbPolyline
90
8
70
1
43
0.0
10
-223.51301075176377
20
114.13057904866372
10
-211.51301075176366
20
114.13057871344593
42
0.41421356237307422
10
-210.51301072382884
20
115.13057868551108
10
-210.51301038861098
20
127.13057868551107
42
0.41421356237311063
10
-211.51301036067622
20
128.13057871344591
10
-223.51301036067622
20
128.13057904866369
42
0.41421356237310542
10
-224.51301038861106
20
127.13057907659848
10
-224.51301072382898
20
115.13057907659856
42
0.4142135623731002
0
LWPOLYLINE
5
423
100
AcDbEntity
8
0
100
AcDbPolyline
90
8
70
1
43
0.0
10
-209.2255091552889
20
171.28057864954511
10
-197.22550915528885
20
171.28057831432727
42
0.41421356237306384
10
-196.22550912735409
20
172.2805782863924
10
-196.2255087921362
20
184.28057828639243
42
0.41421356237310542
10
-197.22550876420144
20
185.28057831432727
10
-209.22550876420135
20
185.28057864954502
42
0.41421356237309509
10
-210.22550879213617
20
184.28057867747984
10
-210.22550912735409
20
172.28057867747981
42
0.41421356237309509
0
LWPOLYLINE
5
424
100
AcDbEntity
8
0
100
AcDbPolyline
90
8
70
1
43
0.0
10
-171.12550915528888
20
171.28057758522851
42
-0.41421356237309509
10
-172.12550912735406
20
172.2805776131633
10
-172.12550879213615
20
184.28057761316327
42
-0.41421356237309509
10
-171.12550876420133
20
185.2805775852284
10
-159.12550876420136
20
185.28057725001065
42
-0.41421356237308982
10
-158.12550879213615
20
184.28057722207583
10
-158.12550912735395
20
172.28057722207581
42
-0.41421356237308982
10
-159.1255091552888
20
171.28057725001059
0
LWPOLYLINE
5
425
100
AcDbEntity
8
0
100
AcDbPolyline
90
8
70
1
43
0.0
10
-105.45050932429453
20
165.23057575060929
42
-0.41421356237308465
10
-104.45050929635967
20
166.23057572267447
10
-92.450509296359854
20
166.23057538745658
42
-0.41421356237307944
10
-91.450509324294686
20
165.23057535952179
10
-91.450509659512477
20
153.23057535952177
42
-0.41421356237311063
10
-92.450509687447322
20
152.23057538745653
10
-104.4505096874471
20
152.23057572267439
42
-0.41421356237310542
10
-105.45050965951231
20
153.2305757506092
0
LWPOLYLINE
5
426
100
AcDbEntity
8
0
100
AcDbPolyline
90
8
70
1
43
0.0
10
-114.00675865106543
20
189.33057598962645
42
-0.41421356237309509
10
-115.00675867900017
20
188.33057601756133
10
-124.76300867900015
20
188.33057629010031
42
-0.41421356237311063
10
-125.76300865106535
20
189.33057631803518
10
-125.7630082879127
20
202.33057631803524
42
-0.41421356237310542
10
-124.76300825997791
20
203.33057629010045
10
-115.00675825997794
20
203.33057601756136
42
-0.41421356237310542
10
-114.00675828791272
20
202.33057598962654
0
LWPOLYLINE
5
427
100
AcDbEntity
8
0
100
AcDbPolyline
90
8
70
1
43
0.0
10
-220.03801138902671
20
91.318078951590422
10
-220.0380110538089
20
103.31807895159022
42
0.41421356237311063
10
-221.03801102587414
20
104.31807897952504
10
-233.03801102587408
20
104.3180793147429
42
0.41421356237311063
10
-234.03801105380896
20
103.31807934267769
10
-234.03801138902676
20
91.318079342677891
42
0.41421356237308982
10
-233.03801141696164
20
90.318079314743045
10
-221.03801141696164
20
90.318078979525254
42
0.41421356237308982
0
LWPOLYLINE
5
428
100
AcDbEntity
8
0
100
AcDbPolyline
90
8
70
1
43
0.0
10
-249.61301102587413
20
104.31807977776243
10
-261.61301102587407
20
104.31808011298024
42
0.41421356237311063
10
-262.61301105380886
20
103.3180801409151
10
-262.61301138902672
20
91.318080140915313
42
0.41421356237311063
10
-261.61301141696151
20
90.31808011298051
10
-249.61301141696163
20
90.318079777762648
42
0.41421356237311063
10
-248.61301138902675
20
91.318079749827845
10
-248.61301105380898
20
103.3180797498276
42
0.4142135623731002
0
LWPOLYLINE
5
429
100
AcDbEntity
8
0
100
AcDbPolyline
90
8
70
1
43
0.0
10
-90.069258232043254
20
204.33057532093687
10
-104.45050823204303
20
204.33057572267444
42
0.41421356237310542
10
-105.45050825997788
20
203.33057575060923
10
-105.45050859519569
20
191.33057575060928
42
0.41421356237308982
10
-104.45050862313055
20
190.3305757226745
10
-90.069258623130736
20
190.33057532093682
42
0.41421356237308982
10
-89.069258595195947
20
191.33057529300203
10
-89.069258259978099
20
203.33057529300194
42
0.41421356237308982
0
LWPOLYLINE
5
430
100
AcDbEntity
8
0
100
AcDbPolyline
90
8
70
1
43
0.0
10
-254.3755082320431
20
204.33057991080207
10
-268.75675823204307
20
204.33058031253975
42
0.41421356237312629
10
-269.75675825997791
20
203.33058034047451
10
-269.75675859519572
20
191.33058034047463
42
0.41421356237308465
10
-268.75675862313057
20
190.33058031253972
10
-254.37550862313063
20
190.33057991080213
42
0.41421356237311585
10
-253.37550859519567
20
191.33057988286737
10
-253.37550825997789
20
203.3305798828672
42
0.41421356237310542
0
LWPOLYLINE
5
431
100
AcDbEntity
8
0
100
AcDbPolyline
90
8
70
1
43
0.0
10
-278.18800823204305
20
204.33058057599993
10
-292.56925823204301
20
204.33058097773755
42
0.41421356237309509
10
-293.56925825997797
20
203.33058100567231
10
-293.56925859519572
20
191.33058100567243
42
0.41421356237309509
10
-292.56925862313057
20
190.33058097773761
10
-278.18800862313049
20
190.33058057600005
42
0.41421356237307422
10
-277.1880085951957
20
191.3305805480652
10
-277.18800825997789
20
203.33058054806509
42
0.41421356237310542
0
LWPOLYLINE
5
432
100
AcDbEntity
8
0
100
AcDbPolyline
90
8
70
1
43
0.0
10
-342.57551021960575
20
133.18058237465314
42
-0.41421356237311063
10
-343.57551019167084
20
134.18058240258785
10
-343.57550985645304
20
146.18058240258782
42
-0.41421356237312101
10
-342.57550982851819
20
147.18058237465306
10
-330.57550982851797
20
147.18058203943511
42
-0.414213562373069
10
-329.57550985645292
20
146.18058201150035
10
-329.57551019167062
20
134.18058201150041
42
-0.4142135623731002
10
-330.57551021960546
20
133.18058203943525
0
LWPOLYLINE
5
433
100
AcDbEntity
8
0
100
AcDbPolyline
90
8
70
1
43
0.0
10
-349.62550823204316
20
204.33058257159348
42
-0.41421356237311585
10
-348.62550825997795
20
203.33058254365864
10
-348.62550859519587
20
191.33058254365886
42
-0.41421356237310542
10
-349.62550862313071
20
190.33058257159354
10
-361.62550862313049
20
190.33058290681143
42
-0.41421356237309509
10
-362.62550859519564
20
191.3305829347463
10
-362.62550825997778
20
203.33058293474622
42
-0.41421356237312629
10
-361.62550823204288
20
204.3305829068114
0
LWPOLYLINE
5
434
100
AcDbEntity
8
0
100
AcDbPolyline
90
8
70
1
43
0.0
10
-361.62551021960547
20
133.18058290681134
42
-0.41421356237311585
10
-362.62551019167068
20
134.18058293474618
10
-362.62550985645282
20
146.1805829347461
42
-0.41421356237313667
10
-361.62550982851792
20
147.18058290681137
10
-349.62550982851792
20
147.18058257159356
42
-0.41421356237310542
10
-348.62550985645271
20
146.18058254365874
10
-348.62551019167057
20
134.18058254365869
42
-0.41421356237308982
10
-349.62551021960536
20
133.18058257159348
0
LWPOLYLINE
5
435
100
AcDbEntity
8
0
100
AcDbPolyline
90
8
70
1
43
0.0
10
-343.57551038861124
20
127.13058240258788
42
-0.4142135623731002
10
-342.57551036067639
20
128.13058237465305
10
-330.57551036067628
20
128.13058203943515
42
-0.41421356237307422
10
-329.57551038861129
20
127.13058201150037
10
-329.57551072382898
20
115.13058201150042
42
-0.41421356237311063
10
-330.57551075176383
20
114.1305820394352
10
-342.57551075176394
20
114.13058237465307
42
-0.414213562373069
10
-343.57551072382904
20
115.13058240258792
0
LWPOLYLINE
5
436
100
AcDbEntity
8
0
100
AcDbPolyline
90
8
70
1
43
0.0
10
-348.62551138902688
20
91.318082543658875
42
-0.4142135623731002
10
-349.62551141696173
20
90.318082571593706
10
-361.6255114169615
20
90.31808290681154
42
-0.41421356237313145
10
-362.62551138902677
20
91.318082934746371
10
-362.62551105380885
20
103.31808293474622
42
-0.41421356237305862
10
-361.62551102587406
20
104.31808290681133
10
-349.62551102587435
20
104.31808257159355
42
-0.41421356237315227
10
-348.62551105380896
20
103.3180825436587
0
LWPOLYLINE
5
437
100
AcDbEntity
8
0
100
AcDbPolyline
90
8
70
1
43
0.0
10
-361.6255091552888
20
171.2805829068115
10
-349.62550915528891
20
171.28058257159353
42
0.41421356237315754
10
-348.62550912735406
20
172.28058254365877
10
-348.62550879213615
20
184.28058254365874
42
0.41421356237304296
10
-349.62550876420124
20
185.28058257159356
10
-361.62550876420141
20
185.28058290681139
42
0.41421356237309509
10
-362.6255087921362
20
184.28058293474612
10
-362.62550912735406
20
172.28058293474615
42
0.41421356237309509
0
LWPOLYLINE
5
438
100
AcDbEntity
8
0
100
AcDbPolyline
90
8
70
1
43
0.0
10
-349.62551036067629
20
128.13058257159355
10
-361.62551036067617
20
128.13058290681136
42
0.41421356237313145
10
-362.62551038861113
20
127.13058293474612
10
-362.625510723829
20
115.13058293474623
42
0.41421356237308982
10
-361.62551075176373
20
114.13058290681138
10
-349.62551075176384
20
114.13058257159358
42
0.41421356237308982
10
-348.62551072382882
20
115.13058254365873
10
-348.62551038861108
20
127.13058254365869
42
0.41421356237308982
0
LWPOLYLINE
5
439
100
AcDbEntity
8
0
100
AcDbPolyline
90
8
70
1
43
0.0
10
-330.57551102587416
20
104.31808203943517
42
-0.41421356237311063
10
-329.57551105380901
20
103.31808201150039
10
-329.57551138902681
20
91.318082011500593
42
-0.41421356237311063
10
-330.57551141696172
20
90.318082039435467
10
-342.57551141696183
20
90.318082374653386
42
-0.41421356237315754
10
-343.57551138902704
20
91.31808240258809
10
-343.57551105380907
20
103.31808240258781
42
-0.41421356237308465
10
-342.57551102587428
20
104.31808237465302
0
LWPOLYLINE
5
440
100
AcDbEntity
8
0
100
AcDbPolyline
90
8
70
1
43
0.0
10
-343.57550825997833
20
203.33058240258788
42
-0.41421356237309509
10
-342.57550823204338
20
204.33058237465306
10
-330.57550823204315
20
204.33058203943517
42
-0.41421356237311585
10
-329.57550825997799
20
203.33058201150038
10
-329.57550859519574
20
191.33058201150052
42
-0.41421356237309509
10
-330.57550862313059
20
190.33058203943537
10
-342.57550862313082
20
190.3305823746532
42
-0.41421356237310542
10
-343.57550859519608
20
191.33058240258802
0
LWPOLYLINE
5
441
100
AcDbEntity
8
0
100
AcDbPolyline
90
8
70
1
43
0.0
10
-368.67551102587436
20
104.31808310375186
10
-380.67551102587396
20
104.31808343896962
42
0.41421356237311585
10
-381.67551105380892
20
103.31808346690443
10
-381.67551138902661
20
91.31808346690471
42
0.41421356237304296
10
-380.67551141696151
20
90.318083438969822
10
-368.67551141696163
20
90.318083103751974
42
0.4142135623731002
10
-367.67551138902672
20
91.318083075817157
10
-367.67551105380903
20
103.31808307581696
42
0.41421356237313145
0
LWPOLYLINE
5
442
100
AcDbEntity
8
0
100
AcDbPolyline
90
8
70
1
43
0.0
10
-380.67550862313061
20
190.33058343896965
10
-368.67550862313078
20
190.33058310375165
42
0.41421356237319912
10
-367.67550859519559
20
191.33058307581712
10
-367.67550825997802
20
203.330583075817
42
0.41421356237308465
10
-368.67550823204317
20
204.33058310375176
10
-380.67550823204294
20
204.33058343896971
42
0.41421356237311585
10
-381.67550825997796
20
203.33058346690447
10
-381.67550859519559
20
191.33058346690456
42
0.41421356237301177
0
LWPOLYLINE
5
443
100
AcDbEntity
8
0
100
AcDbPolyline
90
8
70
1
43
0.0
10
-380.67551021960537
20
133.18058343896971
10
-368.67551021960548
20
133.18058310375179
42
0.41421356237312101
10
-367.67551019167058
20
134.18058307581697
10
-367.67550985645306
20
146.18058307581694
42
0.41421356237304818
10
-368.67550982851799
20
147.18058310375179
10
-380.67550982851799
20
147.18058343896962
42
0.41421356237311063
10
-381.675509856453
20
146.18058346690441
10
-381.67551019167064
20
134.18058346690444
42
0.41421356237311063
0
LWPOLYLINE
5
444
100
AcDbEntity
8
0
100
AcDbPolyline
90
8
70
1
43
0.0
10
-380.67551075176362
20
114.13058343896961
10
-368.67551075176391
20
114.13058310375183
42
0.41421356237313145
10
-367.67551072382889
20
115.13058307581701
10
-367.67551038861114
20
127.13058307581693
42
0.41421356237315227
10
-368.67551036067653
20
128.13058310375177
10
-380.67551036067607
20
128.13058343896964
42
0.41421356237307422
10
-381.67551038861109
20
127.13058346690447
10
-381.67551072382884
20
115.13058346690445
42
0.41421356237310542
0
LINE
5
445
100
AcDbEntity
8
0
100
AcDbLine
10
-245.77122198433869
20
208.33037367339386
30
-3.6529046454347736e-08
11
-110.87100137090688
21
208.33037367339483
31
-3.6529046454347736e-08
0
ELLIPSE
5
446
100
AcDbEntity
8
0
100
AcDbEllipse
10
-110.8710013709069
20
207.83037367339486
30
-3.6441374362539136e-08
11
-0.35355339059328522
21
0.35355339059326257
31
0.0
40
0.99999999999999989
41
3.9269919223883027
42
5.4977871437819976
0
ARC
5
447
100
AcDbEntity
8
0
100
AcDbCircle
10
-110.8710013709069
20
207.83037367339486
30
-1.7715577074928937e-09
40
0.49999944729940204
210
4.7282213274477475e-18
220
1.6681785518873409e-10
230
1
100
AcDbArc
50
-90.000001623970803
51
6.3329059471652148e-05
0
LINE
5
448
100
AcDbEntity
8
0
100
AcDbLine
10
-110.8710013850787
20
207.33037422609544
30
-3.6357965527145097e-08
11
-245.77122199851055
21
207.33037804965593
31
-3.6353711152514734e-08
0
ARC
5
449
100
AcDbEntity
8
0
100
AcDbCircle
10
-245.77122198433872
20
207.83037804965596
30
-3.6445637618953697e-08
40
0.50000000000000711
210
5.3290705182006757e-14
220
0
230
1
100
AcDbArc
50
180
51
269.99999837602769
0
ELLIPSE
5
450
100
AcDbEntity
8
0
100
AcDbEllipse
10
-245.77122198433872
20
207.83037804965596
30
-3.6445637618953697e-08
11
0.35355339059325763
21
0.35355339059329
31
0.0
40
0.99999999999999956
41
0.785398163397378
42
2.3561944901922343
0
LWPOLYLINE
5
451
100
AcDbEntity
8
0
100
AcDbPolyline
90
8
70
1
43
0.0
10
-80.638008623130759
20
190.33057505747664
10
-66.256758623130622
20
190.33057465573899
42
0.41421356237308726
10
-65.256758595195791
20
191.33057462780417
10
-65.256758259978085
20
203.33057462780408
42
0.41421356237310542
10
-66.256758232043168
20
204.33057465573884
10
-80.638008232043305
20
204.33057505747649
42
0.41421356237305862
10
-81.638008259978164
20
203.3305750854114
10
-81.638008595195942
20
191.33057508541143
42
0.41421356237309509
0
ELLIPSE
5
452
100
AcDbEntity
8
0
100
AcDbEllipse
10
-65.537575381038096
20
90.537412441861989
30
-1.587499909305734e-08
11
-0.20000000000001364
21
-8.8817950390252245e-15
31
0.0
40
0.99999999999999944
41
1.5707963267949534
42
3.1415926535896226
0
LINE
5
453
100
AcDbEntity
8
0
100
AcDbLine
10
-65.537575381038081
20
90.337412441861972
30
-1.5839933809047579e-08
11
-70.17213572520518
21
90.337412441861972
31
8.8817841970012523e-15
0
ELLIPSE
5
454
100
AcDbEntity
8
0
100
AcDbEllipse
10
-70.17213572520518
20
90.587131460030918
30
-1.5883721005138796e-08
11
-0.24971901816893927
21
2.7074590200971099e-20
31
0.0
40
0.99999999999999967
41
6.2831853071795294
42
7.8539816339744828
0
LINE
5
455
100
AcDbEntity
8
0
100
AcDbLine
10
-70.421854743374126
20
90.587131460030932
30
-1.5883721005138796e-08
11
-70.421854743374126
21
96.400590374472316
31
8.8817841970012523e-15
0
ELLIPSE
5
456
100
AcDbEntity
8
0
100
AcDbEllipse
10
-70.17213572520518
20
96.400590374472316
30
-1.6903065613860235e-08
11
1.3537295100488327e-20
21
0.24971901816893921
31
0.0
40
0.99999999999999989
41
0
42
1.5707963267948966
0
LINE
5
457
100
AcDbEntity
8
0
100
AcDbLine
10
-70.17213572520518
20
96.650309392641262
30
-1.6946852809951451e-08
11
-63.0301714721626
21
96.650309392641276
31
8.8817841970012523e-15
0
ELLIPSE
5
458
100
AcDbEntity
8
0
100
AcDbEllipse
10
-63.0301714721626
20
96.400590374472316
30
-1.6903065613860235e-08
11
0.24971901816893927
21
-2.7074590200971099e-20
31
0.0
40
0.99999999999999967
41
0
42
1.5707963267948681
0
LINE
5
459
100
AcDbEntity
8
0
100
AcDbLine
10
-62.780452453993654
20
96.400590374472316
30
-1.6903065613860235e-08
11
-62.780452453993654
21
94.402838229120817
31
8.8817841970012523e-15
0
ARC
5
460
100
AcDbEntity
8
0
100
AcDbCircle
10
-62.520936844172823
20
94.412826909231455
30
-3.7674083516897712e-06
40
0.25970776936967011
210
6.3695771392027752e-08
220
2.4516316581962525e-09
230
0.99999999999999811
100
AcDbArc
50
182.20420978644989
51
270.04239354170642
0
LINE
5
461
100
AcDbEntity
8
0
100
AcDbLine
10
-62.520744684623992
20
94.153119210951843
30
-1.6508989730823487e-08
11
-61.761598878916423
21
94.153119210951871
31
8.8817841970012523e-15
0
ELLIPSE
5
462
100
AcDbEntity
8
0
100
AcDbEllipse
10
-61.761406719367471
20
94.412826909231441
30
-1.6554526638401512e-08
11
-0.0099886801106485821
21
-0.25951560982071531
31
0.0
40
0.99999999999999989
41
0.037730811294094245
42
1.5707963267948966
0
LINE
5
463
100
AcDbEntity
8
0
100
AcDbLine
10
-61.501891109546762
20
94.402838229120789
30
-1.6552776926914703e-08
11
-61.501891109546733
21
98.987679078817749
31
8.8817841970012523e-15
0
ELLIPSE
5
464
100
AcDbEntity
8
0
100
AcDbEllipse
10
-61.252172091377808
20
98.987679078817749
30
-1.7356693859937877e-08
11
1.3537295100488327e-20
21
0.24971901816893921
31
0.0
40
0.99999999999999989
41
6.2831853071795578
42
7.8539816339745396
0
LINE
5
465
100
AcDbEntity
8
0
100
AcDbLine
10
-61.252172091377801
20
99.237398096986681
30
-1.7400472174244896e-08
11
-60.503015036870977
21
99.237398096986681
31
1.7763568394002505e-14
0
ELLIPSE
5
466
100
AcDbEntity
8
0
100
AcDbEllipse
10
-60.503015036870977
20
98.987679078817706
30
-1.7356693859937877e-08
11
0.24971901816893927
21
-2.7074590200971099e-20
31
0.0
40
0.99999999999999967
41
0
42
1.5707963267948966
0
LINE
5
467
100
AcDbEntity
8
0
100
AcDbLine
10
-60.253296018702038
20
98.987679078817706
30
-1.7356693859937877e-08
11
-60.253296018702038
21
90.587131460030932
31
8.8817841970012523e-15
0
ELLIPSE
5
468
100
AcDbEntity
8
0
100
AcDbEllipse
10
-60.503015036870977
20
90.587131460030918
30
-1.5883721005138796e-08
11
-1.3537295100488327e-20
21
-0.24971901816893921
31
0.0
40
0.99999999999999989
41
0
42
1.5707963267949534
0
LINE
5
469
100
AcDbEntity
8
0
100
AcDbLine
10
-60.503015036870977
20
90.337412441861972
30
-1.5839933809047579e-08
11
-61.252172091377808
21
90.337412441861972
31
8.8817841970012523e-15
0
ELLIPSE
5
470
100
AcDbEntity
8
0
100
AcDbEllipse
10
-61.272150876776919
20
90.586330975059539
30
-1.5883578896591644e-08
11
-0.24891853319758206
21
-0.019978785399130686
31
0.0
40
0.99999999999999944
41
6.1998891012265958
42
7.8539816339743975
0
LINE
5
471
100
AcDbEntity
8
0
100
AcDbLine
10
-61.521868611948207
20
90.587131460030918
30
-1.5883721005138796e-08
11
-61.521868611948214
21
92.584883605382458
31
8.8817841970012523e-15
0
ELLIPSE
5
472
100
AcDbEntity
8
0
100
AcDbEllipse
10
-61.78157638131789
20
92.584883605382444
30
-1.6234009692084328e-08
11
0.25970776936967271
21
-8.881785417156421e-15
31
0.0
40
0.99999999999999978
41
5.684341886080963e-14
42
1.570796326794925
0
LINE
5
473
100
AcDbEntity
8
0
100
AcDbLine
10
-61.78157638131789
20
92.844591374752127
30
-1.6279546599662353e-08
11
-62.540722187025438
21
92.844591374752099
31
8.8817841970012523e-15
0
ELLIPSE
5
474
100
AcDbEntity
8
0
100
AcDbEllipse
10
-62.540722187025438
20
92.584883605382458
30
-1.6234009692084328e-08
11
1.4078786388101545e-20
21
0.2597077693696816
31
0.0
40
1
41
6.2831853071795578
42
7.8539816339744828
0
LINE
5
475
100
AcDbEntity
8
0
100
AcDbLine
10
-62.800429956395121
20
92.584883605382458
30
-1.6234009692084328e-08
11
-62.800429956395121
21
90.587131460030932
31
8.8817841970012523e-15
0
ELLIPSE
5
476
100
AcDbEntity
8
0
100
AcDbEllipse
10
-63.050148974564067
20
90.587131460030932
30
-1.5883721005138796e-08
11
-1.3537295100488327e-20
21
-0.24971901816893921
31
0.0
40
0.99999999999999989
41
0
42
1.5707963267948966
0
LINE
5
477
100
AcDbEntity
8
0
100
AcDbLine
10
-63.050148974564067
20
90.337412441861972
30
-1.5839933809047579e-08
11
-63.809294780271621
21
90.337412441861972
31
8.8817841970012523e-15
0
ARC
5
478
100
AcDbEntity
8
0
100
AcDbCircle
10
-63.8094871779644
20
90.597120139965227
30
-1.6291576221331597e-08
40
0.25970776936966872
210
6.7322470469090874e-12
220
2.5912222018064818e-13
230
1
100
AcDbArc
50
182.20420974752329
51
270.04244608014363
0
LINE
5
479
100
AcDbEntity
8
0
100
AcDbLine
10
-64.069002787791902
20
90.587131460030946
30
-1.5883721005138796e-08
11
-64.069002787791916
21
95.171972786029102
31
8.8817841970012523e-15
0
ELLIPSE
5
480
100
AcDbEntity
8
0
100
AcDbEllipse
10
-64.318721805960848
20
95.171972786029073
30
-1.668763793816197e-08
11
0.24971901816893927
21
-2.7074590200971099e-20
31
0.0
40
0.99999999999999967
41
1.1368683772162249e-13
42
1.5707963267948966
0
LINE
5
481
100
AcDbEntity
8
0
100
AcDbLine
10
-64.318721805960848
20
95.421691804198019
30
-1.6731425134253186e-08
11
-68.90356265565778
21
95.421691804198019
31
8.8817841970012523e-15
0
ELLIPSE
5
482
100
AcDbEntity
8
0
100
AcDbEllipse
10
-68.90356265565778
20
95.171972786029087
30
-1.668763793816197e-08
11
1.3537295100488327e-20
21
0.24971901816893921
31
0.0
40
0.99999999999999989
41
0
42
1.5707963267948397
0
LINE
5
483
100
AcDbEntity
8
0
100
AcDbLine
10
-69.153281673826712
20
95.171972786029102
30
-1.668763793816197e-08
11
-69.15328167382674
21
91.845715302076371
31
8.8817841970012523e-15
0
ARC
5
484
100
AcDbEntity
8
0
100
AcDbCircle
10
-68.893573975547014
20
91.845523142527384
30
-4.2923815300925742e-06
40
0.25970776936968687
210
6.2009602879979733e-08
220
-4.58813404536309e-11
230
0.99999999999999811
100
AcDbArc
50
179.95760645828733
51
267.7957902135405
0
LINE
5
485
100
AcDbEntity
8
0
100
AcDbLine
10
-68.90356265565778
20
91.586007532706674
30
-1.605886978950366e-08
11
-65.597283388558367
21
91.586007532706674
31
8.8817841970012523e-15
0
ARC
5
486
100
AcDbEntity
8
0
100
AcDbCircle
10
-65.597090990865595
20
91.326299834603418
30
-1.6431284030460603e-08
40
0.25970776936967011
210
6.7322470469090155e-12
220
2.5912222018156709e-13
230
1
100
AcDbArc
50
2.2042097475295992
51
90.042446080142057
0
LINE
5
487
100
AcDbEntity
8
0
100
AcDbLine
10
-65.337575381038093
20
91.336288514537728
30
-1.6015082593412444e-08
11
-65.337575381038079
21
90.537412441861974
31
-1.587499909305734e-08
0
LINE
5
488
100
AcDbEntity
8
0
100
AcDbLine
10
-68.494023618277112
20
98.218544521909422
30
8.8817841970012523e-15
11
-68.494023618277112
21
102.80338537160637
31
1.7763568394002505e-14
0
ELLIPSE
5
489
100
AcDbEntity
8
0
100
AcDbEllipse
10
-68.753539228104628
20
102.79339669167206
30
-1.8023991188442778e-08
11
-0.00019239769278200938
21
0.25970769810326655
31
0.0
40
0.99999999999999989
41
4.7501188740305791
42
6.2831853071795294
0
LINE
5
490
100
AcDbEntity
8
0
100
AcDbLine
10
-68.7537316257974
20
103.0531043897753
30
-1.8069528096020804e-08
11
-70.152157746502482
21
103.05310438977531
31
8.8817841970012523e-15
0
ELLIPSE
5
491
100
AcDbEntity
8
0
100
AcDbEllipse
10
-70.142169066568158
20
103.31261999960282
30
-1.8115029476462041e-08
11
-0.25951560982750999
21
0.0099886799343273953
31
0.0
40
0.99999999999999956
41
0.037729893645836919
42
1.5707963267948966
0
LINE
5
492
100
AcDbEntity
8
0
100
AcDbLine
10
-70.401876764671442
20
103.3128123972956
30
-1.8115056121814632e-08
11
-70.401876764671442
21
104.07195844115377
31
8.8817841970012523e-15
0
ELLIPSE
5
493
100
AcDbEntity
8
0
100
AcDbEllipse
10
-70.152159028962728
20
104.0727587584533
30
-1.8248318411906439e-08
11
-0.00080031729956076014
21
0.24971773570870329
31
0.0
40
1
41
0.076877388123179055
42
1.5707963267948397
0
LINE
5
494
100
AcDbEntity
8
0
100
AcDbLine
10
-70.172135725205166
20
104.3216774593227
30
-1.8291963499450503e-08
11
-65.597282912257143
21
104.32167745932273
31
8.8817841970012523e-15
0
ELLIPSE
5
495
100
AcDbEntity
8
0
100
AcDbEllipse
10
-65.597090990852024
20
104.06196976086704
30
-1.8246426591872478e-08
11
-0.00019192140511492542
21
0.25970769845567793
31
0.0
40
1
41
4.7501207093259374
42
6.2831853071796715
0
LINE
5
496
100
AcDbEntity
8
0
100
AcDbLine
10
-65.337575381038079
20
104.07195844115375
30
-1.8248176303359287e-08
11
-65.337575381038093
21
103.32280138664694
31
8.8817841970012523e-15
0
ELLIPSE
5
497
100
AcDbEntity
8
0
100
AcDbEllipse
10
-65.597090990865581
20
103.3327900665813
30
-1.8118564426572448e-08
11
0.2595156098275011
21
-0.0099886799343273953
31
0.0
40
0.99999999999999956
41
-1.5330664331490595
42
-5.6843418860808015e-14
0
LINE
5
498
100
AcDbEntity
8
0
100
AcDbLine
10
-65.597283388558367
20
103.07308236847803
30
-1.8073027518994422e-08
11
-66.985720519912121
21
103.07308236847803
31
8.8817841970012523e-15
0
ELLIPSE
5
499
100
AcDbEntity
8
0
100
AcDbEllipse
10
-66.985912941425056
20
102.81337467039239
30
-1.8027499493200594e-08
11
-0.0099892987860172901
21
0.2595155860073462
31
0.0
40
1
41
6.2439712894667396
42
7.8539816339744828
0
LINE
5
500
100
AcDbEntity
8
0
100
AcDbLine
10
-67.245428527432423
20
102.80338537160638
30
-1.8025740899929588e-08
11
-67.245428527432395
21
99.497106104506969
31
8.8817841970012523e-15
0
ARC
5
501
100
AcDbEntity
8
0
100
AcDbCircle
10
-66.995909376806338
20
99.487117035171607
30
-4.9717348027050897e-06
40
0.24971901816893471
210
6.9799675313738306e-08
220
-2.7943097535607983e-09
230
0.99999999999999756
100
AcDbArc
50
177.7074863598672
51
270.04585781244833
0
LINE
5
502
100
AcDbEntity
8
0
100
AcDbLine
10
-66.995709509263463
20
99.237398096986681
30
-1.7400472174244896e-08
11
-65.597282912257143
21
99.237398096986681
31
1.7763568394002505e-14
0
ELLIPSE
5
503
100
AcDbEntity
8
0
100
AcDbEllipse
10
-65.597090990852024
20
98.97769039853101
30
-1.7354935266666871e-08
11
-0.00019192140512380723
21
0.25970769845567793
31
0.0
40
1
41
4.7501207093259357
42
6.2831853071796147
0
LINE
5
504
100
AcDbEntity
8
0
100
AcDbLine
10
-65.337575381038079
20
98.987679078817735
30
-1.7356693859937877e-08
11
-65.337575381038093
21
98.218544521909422
31
8.8817841970012523e-15
0
ELLIPSE
5
505
100
AcDbEntity
8
0
100
AcDbEllipse
10
-65.597090990865581
20
98.22853320184376
30
-1.722358256017742e-08
11
0.2595156098275011
21
-0.0099886799343273953
31
0.0
40
0.99999999999999956
41
-1.5330664331490049
42
0
0
LINE
5
506
100
AcDbEntity
8
0
100
AcDbLine
10
-65.597283388558367
20
97.968825503740476
30
-1.7178045652599394e-08
11
-68.24430460010818
21
97.968825503740504
31
8.8817841970012523e-15
0
ARC
5
507
100
AcDbEntity
8
0
100
AcDbCircle
10
-68.244304600108009
20
98.21854452190945
30
-4.7236820033517993e-06
40
0.24971901816893963
210
6.896487843318328e-08
220
4.9057630604776163e-21
230
0.99999999999999767
100
AcDbArc
50
180
51
269.99999999999676
0
ELLIPSE
5
508
100
AcDbEntity
8
0
100
AcDbEllipse
10
-60.522992468006045
20
101.51502862625395
30
-1.7799841600663058e-08
11
0.25951560982750999
21
-0.0099886799343273953
31
0.0
40
0.99999999999999956
41
0.03772989364595053
42
1.5707963267948966
0
LINE
5
509
100
AcDbEntity
8
0
100
AcDbLine
10
-60.263284769902782
20
101.51483622856119
30
-1.779980607352627e-08
11
-60.263284769902768
21
100.75569018470303
31
8.8817841970012523e-15
0
ELLIPSE
5
510
100
AcDbEntity
8
0
100
AcDbEllipse
10
-60.513003788071707
20
100.75569018470301
30
-1.7666694773765812e-08
11
-2.7074590200973873e-20
21
-0.24971901816893918
31
0.0
40
0.99999999999999989
41
6.2831853071795294
42
7.8539816339745396
0
LINE
5
511
100
AcDbEntity
8
0
100
AcDbLine
10
-60.513003788071714
20
100.50597116653407
30
-1.7622907577674596e-08
11
-63.819283531472351
21
100.50597116653408
31
8.8817841970012523e-15
0
ARC
5
512
100
AcDbEntity
8
0
100
AcDbCircle
10
-63.819283531472351
20
100.75569018470301
30
-1.7666694773765812e-08
40
0.24971901816893904
210
0
220
0
230
1
100
AcDbArc
50
180
51
270
0
LINE
5
513
100
AcDbEntity
8
0
100
AcDbLine
10
-64.069002549641297
20
100.75569018470301
30
-1.7666694773765812e-08
11
-64.069002549641297
21
104.07195844115377
31
8.8817841970012523e-15
0
ELLIPSE
5
514
100
AcDbEntity
8
0
100
AcDbEllipse
10
-63.819283531472365
20
104.07195844115377
30
-1.8248176303359287e-08
11
2.7074590200973873e-20
21
0.24971901816893918
31
0.0
40
0.99999999999999989
41
0
42
1.5707963267948966
0
LINE
5
515
100
AcDbEntity
8
0
100
AcDbLine
10
-63.819283531472351
20
104.32167745932273
30
-1.8291963499450503e-08
11
-60.513003788071714
21
104.32167745932273
31
8.8817841970012523e-15
0
ARC
5
516
100
AcDbEntity
8
0
100
AcDbCircle
10
-60.502233158258846
20
104.0721908232704
30
-1.8970673590464719e-08
40
0.24971901816894476
210
1.3827742429210691e-11
220
1.096811123440758e-12
230
1
100
AcDbArc
50
4.5351835484335767
51
92.471990838093475
0
LINE
5
517
100
AcDbEntity
8
0
100
AcDbLine
10
-60.253296018702045
20
104.09193641985649
30
-1.8251675726332905e-08
11
-60.253296018702038
21
103.32280138664697
31
8.8817841970012523e-15
0
ELLIPSE
5
518
100
AcDbEntity
8
0
100
AcDbEllipse
10
-60.502195802865202
20
103.3025903629522
30
-1.8113279764975232e-08
11
0.020211023694720616
21
-0.24889978416316799
31
0.0
40
0.99999999999999967
41
6.1588675164334452
42
7.8539816339745965
0
LINE
5
519
100
AcDbEntity
8
0
100
AcDbLine
10
-60.513003788071714
20
103.05310534237775
30
-1.8069528096020804e-08
11
-62.510755933423248
21
103.05310534237778
31
1.7763568394002505e-14
0
ELLIPSE
5
520
100
AcDbEntity
8
0
100
AcDbEllipse
10
-62.520744764600323
20
102.8035861822177
30
-1.8025785308850573e-08
11
-0.24971893819259364
21
-0.0001998580088802272
31
0.0
40
0.99999999999999978
41
4.6715776920509127
42
6.2831853071795294
0
LINE
5
521
100
AcDbEntity
8
0
100
AcDbLine
10
-62.770463702792931
20
102.80338632420884
30
-1.8025749781713785e-08
11
-62.770463702792938
21
102.02426325425043
31
1.7763568394002505e-14
0
ELLIPSE
5
522
100
AcDbEntity
8
0
100
AcDbEllipse
10
-62.520744764600337
20
102.02406339624153
30
-1.7889094650058723e-08
11
-0.24951916016004128
21
-0.0099888311770879347
31
0.0
40
0.99999999999999956
41
6.2423740188458066
42
7.8539816339745112
0
LINE
5
523
100
AcDbEntity
8
0
100
AcDbLine
10
-62.510755933423241
20
101.77454423608147
30
-1.7845351862888492e-08
11
-60.513003788071714
21
101.77454423608147
31
-1.7845342981104295e-08
0
ARC
5
524
100
AcDbEntity
8
0
100
AcDbCircle
10
-63.050149022194184
20
98.987679231234139
30
-1.7356693859937877e-08
40
0.24971901816893904
210
0
220
-0
230
1
100
AcDbArc
50
0
51
90.000000000001634
0
LINE
5
525
100
AcDbEntity
8
0
100
AcDbLine
10
-62.800430004025245
20
98.987679231234154
30
-1.7356693859937877e-08
11
-62.800430004025245
21
98.218544655273803
31
8.8817841970012523e-15
0
ELLIPSE
5
526
100
AcDbEntity
8
0
100
AcDbEllipse
10
-63.050149022194191
20
98.218544655273789
30
-1.7221823966906413e-08
11
1.7763543869791431e-14
21
-0.24971901816893918
31
0.0
40
0.99999999999999967
41
6.283185307179501
42
7.8539816339745396
0
LINE
5
527
100
AcDbEntity
8
0
100
AcDbLine
10
-63.050149022194191
20
97.968825637104828
30
-1.7178036770815197e-08
11
-63.819283598154534
21
97.968825637104842
31
1.7763568394002505e-14
0
ARC
5
528
100
AcDbEntity
8
0
100
AcDbCircle
10
-63.819283598154534
20
98.218544655273774
30
-1.7221823966906413e-08
40
0.24971901816893904
210
0
220
0
230
1
100
AcDbArc
50
180
51
270
0
LINE
5
529
100
AcDbEntity
8
0
100
AcDbLine
10
-64.069002616323473
20
98.218544655273774
30
-1.7221823966906413e-08
11
-64.069002616323459
21
98.987679231234125
31
8.8817841970012523e-15
0
ELLIPSE
5
530
100
AcDbEntity
8
0
100
AcDbEllipse
10
-63.819283598154527
20
98.987679231234139
30
-1.7356693859937877e-08
11
-1.7763543869791431e-14
21
0.24971901816893918
31
0.0
40
0.99999999999999967
41
6.2831853071795578
42
7.8539816339744259
0
LINE
5
531
100
AcDbEntity
8
0
100
AcDbLine
10
-63.819283598154534
20
99.2373982494031
30
-1.7400481056029093e-08
11
-63.050149022194191
21
99.2373982494031
31
-1.7400481056029093e-08
0
LWPOLYLINE
5
532
100
AcDbEntity
8
0
100
AcDbPolyline
90
8
70
1
43
0.0
10
-57.825508259978037
20
203.33057442021345
42
-0.4142135623730977
10
-56.82550823204317
20
204.33057439227869
10
-42.444258232043175
20
204.33057399054107
42
-0.41421356237310281
10
-41.444258259977993
20
203.33057396260619
10
-41.444258595195791
20
191.33057396260637
42
-0.41421356237311846
10
-42.444258623130622
20
190.3305739905411
10
-56.825508623130638
20
190.33057439227866
42
-0.41421356237310802
10
-57.82550859519587
20
191.33057442021357
0
LWPOLYLINE
5
533
100
AcDbEntity
8
0
100
AcDbPolyline
90
8
70
1
43
0.0
10
-60.206759324294566
20
165.23057448673336
42
-0.41421356237310542
10
-59.206759296359749
20
166.23057445879851
10
-42.444259296359732
20
166.23057399054105
42
-0.41421356237308982
10
-41.444259324294556
20
165.23057396260623
10
-41.444259659512383
20
153.23057396260623
42
-0.4142135623730977
10
-42.444259687447214
20
152.23057399054102
10
-59.206759687447231
20
152.23057445879849
42
-0.41421356237309509
10
-60.206759659512407
20
153.23057448673327
0
LWPOLYLINE
5
534
100
AcDbEntity
8
0
100
AcDbPolyline
90
8
70
1
43
0.0
10
-57.825509856452832
20
146.18057442021347
42
-0.41421356237309509
10
-56.825509828518022
20
147.18057439227866
10
-44.825509828518058
20
147.18057405706088
42
-0.41421356237310542
10
-43.82550985645284
20
146.18057402912603
10
-43.825510191670709
20
134.18057402912606
42
-0.41421356237310802
10
-44.825510219605505
20
133.18057405706085
10
-56.825510219605505
20
133.1805743922786
42
-0.41421356237309243
10
-57.825510191670695
20
134.18057442021342
0
LWPOLYLINE
5
535
100
AcDbEntity
8
0
100
AcDbPolyline
90
8
70
1
43
0.0
10
-40.063011025874225
20
104.31807392402128
42
-0.4142135623730977
10
-39.063011053809028
20
103.31807389608647
10
-39.063011389026855
20
91.318073896086688
42
-0.41421356237310542
10
-40.063011416961643
20
90.31807392402149
10
-52.063011416961686
20
90.31807425923941
42
-0.41421356237311846
10
-53.06301138902684
20
91.318074287174099
10
-53.063011053809149
20
103.31807428717396
42
-0.41421356237308982
10
-52.06301102587431
20
104.31807425923908
0
LWPOLYLINE
5
536
100
AcDbEntity
8
0
100
AcDbPolyline
90
8
70
1
43
0.0
10
-53.063010388611261
20
127.13057428717393
10
-53.063010723829066
20
115.13057428717391
42
0.41421356237309509
10
-52.063010751763905
20
114.13057425923913
10
-40.063010751763798
20
114.13057392402126
42
0.41421356237310542
10
-39.063010723828974
20
115.13057389608647
10
-39.063010388611161
20
127.13057389608649
42
0.41421356237309243
10
-40.063010360676344
20
128.13057392402126
10
-52.063010360676444
20
128.1305742592391
42
0.41421356237309243
0
LWPOLYLINE
5
537
100
AcDbEntity
8
0
100
AcDbPolyline
90
8
70
1
43
0.0
10
-59.113010360676341
20
128.13057445617949
10
-71.113010360676313
20
128.13057479139735
42
0.41421356237311319
10
-72.113010388611173
20
127.1305748193322
10
-72.113010723828992
20
115.13057481933222
42
0.41421356237310802
10
-71.113010751763767
20
114.13057479139736
10
-59.113010751763809
20
114.13057445617957
42
0.41421356237308982
10
-58.113010723828964
20
115.13057442824476
10
-58.113010388611258
20
127.13057442824477
42
0.41421356237308982
0
LINE
5
538
100
AcDbEntity
8
0
100
AcDbLine
10
-76.875509127354164
20
172.28057548453009
30
-3.0208013868104899e-08
11
-76.875508792132749
21
184.28070493810793
31
-3.2312144071511284e-08
0
ARC
5
539
100
AcDbEntity
8
0
100
AcDbCircle
10
-75.875508792132763
20
184.28070491017309
30
2.1417235342283927e-12
40
0.99999999999997524
210
-1.191605554652138e-15
220
1.753530653973513e-10
230
1
100
AcDbArc
50
90.000389351443033
51
179.99999829245272
0
LINE
5
540
100
AcDbEntity
8
0
100
AcDbLine
10
-75.875515587597391
20
185.28070491014998
30
-3.2487488255128483e-08
11
-63.87551558759511
21
185.28078645572549
31
-3.2487488255128483e-08
0
ELLIPSE
5
541
100
AcDbEntity
8
0
100
AcDbEllipse
10
-63.875508792130461
20
184.28078645574857
30
-3.2312144071511284e-08
11
-0.70710917386562311
21
0.70710438849937596
31
0.0
40
0.99999999999999978
41
3.9269874052875364
42
5.4977905554818731
0
LINE
5
542
100
AcDbEntity
8
0
100
AcDbLine
10
-62.875508792130461
20
184.28078642781375
30
-3.2312144071511284e-08
11
-62.87550912735415
21
172.28057542866043
31
-3.0208004986320702e-08
0
ARC
5
543
100
AcDbEntity
8
0
100
AcDbCircle
10
-63.875509127354178
20
172.28057545659524
30
1.9131473262828245e-12
40
0.99999999999997868
210
-1.5574480851779101e-24
220
1.7535306540139947e-10
230
1
100
AcDbArc
50
270.0000000000004
51
359.99999852122068
0
LINE
5
544
100
AcDbEntity
8
0
100
AcDbLine
10
-63.875509127354171
20
171.28057545659527
30
-3.0032660802703504e-08
11
-75.875509127354178
21
171.28057545659522
31
-3.0032660802703504e-08
0
ELLIPSE
5
545
100
AcDbEntity
8
0
100
AcDbEllipse
10
-75.875509127354178
20
172.28057545659524
30
-3.0208013868104899e-08
11
0.70710677131010735
21
-0.70710679106298802
31
0.0
40
1
41
3.9269908030197893
42
5.4977871577495101
0
ELLIPSE
5
546
100
AcDbEntity
8
0
100
AcDbEllipse
10
-306.7444871574927
20
172.28694808440284
30
-3.0209124091129524e-08
11
-0.00033922784362971838
21
-1.0000004824621529
31
0.0
40
0.9999999999699567
41
6.2831853071795294
42
7.8539816339745965
0
LINE
5
547
100
AcDbEntity
8
0
100
AcDbLine
10
-306.7448263853363
20
171.28694760194068
30
-3.0033779907512326e-08
11
-318.74483217452519
21
171.29101833606416
31
0
0
ELLIPSE
5
548
100
AcDbEntity
8
0
100
AcDbEllipse
10
-318.74449294667824
20
172.29101881852617
30
-3.0209843515649482e-08
11
-0.00033922784697176686
21
-1.0000004824621243
31
0.0
40
0.99999999996995681
41
4.7123889803846044
42
6.2831853071795862
0
LINE
5
549
100
AcDbEntity
8
0
100
AcDbLine
10
-319.74449342911032
20
172.2913580463732
30
-3.0209905688138861e-08
11
-319.74042269494657
21
184.29136383591606
31
0
0
ELLIPSE
5
550
100
AcDbEntity
8
0
100
AcDbEllipse
10
-318.74042221251437
20
184.29102460807241
30
-3.2313947073703275e-08
11
0.00033922784362980588
21
1.0000004824622062
31
0.0
40
0.99999999996995714
41
6.2831853071795294
42
7.8539816339744259
0
LINE
5
551
100
AcDbEntity
8
0
100
AcDbLine
10
-318.74008298467078
20
185.29102509053459
30
-3.2489282375536277e-08
11
-306.74007719548194
21
185.28695435641112
31
0
0
ELLIPSE
5
552
100
AcDbEntity
8
0
100
AcDbEllipse
10
-306.7404164233289
20
184.28695387394899
30
-3.2313227649183318e-08
11
0.00033922784697176686
21
1.0000004824621243
31
0.0
40
0.99999999996995681
41
4.7123889803880434
42
6.2831853071796431
0
LINE
5
553
100
AcDbEntity
8
0
100
AcDbLine
10
-305.74041594089687
20
184.28661464610539
30
-3.2313165476693939e-08
11
-305.74448667506056
21
172.28660885655933
31
-3.0209061918640145e-08
0
ELLIPSE
5
554
100
AcDbEntity
8
0
100
AcDbEllipse
10
-130.65408162089011
20
192.38259202641831
30
-3.3732732163116452e-08
11
6.9852442718520767e-20
21
1.2885501337517451
31
0.0
40
1
41
0
42
6.2831853071795862
0
ELLIPSE
5
555
100
AcDbEntity
8
0
100
AcDbEllipse
10
-134.26002424324963
20
202.07168993137319
30
-3.5431639844318852e-08
11
6.9852442718520767e-20
21
1.2885501337517451
31
0.0
40
1
41
0
42
6.2831853071795862
0
ELLIPSE
5
556
100
AcDbEntity
8
0
100
AcDbEllipse
10
-137.86596686560915
20
192.38259202641825
30
-3.3732732163116452e-08
11
6.9852442718520767e-20
21
1.2885501337517451
31
0.0
40
1
41
0
42
6.2831853071795862
0
ELLIPSE
5
557
100
AcDbEntity
8
0
100
AcDbEllipse
10
-141.47190948796867
20
202.07168993137321
30
-3.5431639844318852e-08
11
6.9852442718520767e-20
21
1.2885501337517451
31
0.0
40
1
41
0
42
6.2831853071795862
0
ELLIPSE
5
558
100
AcDbEntity
8
0
100
AcDbEllipse
10
-145.07785211032817
20
192.38259202641828
30
-3.3732732163116452e-08
11
6.9852442718520767e-20
21
1.2885501337517451
31
0.0
40
1
41
0
42
6.2831853071795862
0
ELLIPSE
5
559
100
AcDbEntity
8
0
100
AcDbEllipse
10
-148.68379473268769
20
202.07168993137319
30
-3.5431639844318852e-08
11
6.9852442718520767e-20
21
1.2885501337517451
31
0.0
40
1
41
0
42
6.2831853071795862
0
ELLIPSE
5
560
100
AcDbEntity
8
0
100
AcDbEllipse
10
-152.28973735504721
20
192.38259202641828
30
-3.3732732163116452e-08
11
6.9852442718520767e-20
21
1.2885501337517451
31
0.0
40
1
41
0
42
6.2831853071795862
0
ELLIPSE
5
561
100
AcDbEntity
8
0
100
AcDbEllipse
10
-155.8956799774067
20
202.07168993137319
30
-3.5431639844318852e-08
11
6.9852442718520767e-20
21
1.2885501337517451
31
0.0
40
1
41
0
42
6.2831853071795862
0
ELLIPSE
5
562
100
AcDbEntity
8
0
100
AcDbEllipse
10
-191.27587047158232
20
202.07168993137319
30
-3.5431639844318852e-08
11
6.9852442718519816e-20
21
1.2885501337517273
31
0.0
40
1
41
0
42
6.2831853071795862
0
ELLIPSE
5
563
100
AcDbEntity
8
0
100
AcDbEllipse
10
-194.8818130939419
20
192.38259202641828
30
-3.3732732163116452e-08
11
6.9852442718519816e-20
21
1.2885501337517273
31
0.0
40
1
41
0
42
6.2831853071795862
0
ELLIPSE
5
564
100
AcDbEntity
8
0
100
AcDbEllipse
10
-198.47776695557468
20
202.07168993137319
30
-3.5431639844318852e-08
11
6.9852442718519816e-20
21
1.2885501337517273
31
0.0
40
1
41
0
42
6.2831853071795862
0
ELLIPSE
5
565
100
AcDbEntity
8
0
100
AcDbEllipse
10
-202.0837095779342
20
192.38259202641828
30
-3.3732732163116452e-08
11
6.9852442718519816e-20
21
1.2885501337517273
31
0.0
40
1
41
0
42
6.2831853071795862
0
ELLIPSE
5
566
100
AcDbEntity
8
0
100
AcDbEllipse
10
-205.68965220029369
20
202.07168993137319
30
-3.5431639844318852e-08
11
6.9852442718519816e-20
21
1.2885501337517273
31
0.0
40
1
41
0
42
6.2831853071795862
0
ELLIPSE
5
567
100
AcDbEntity
8
0
100
AcDbEllipse
10
-209.29559482265321
20
192.38259202641825
30
-3.3732732163116452e-08
11
6.9852442718519816e-20
21
1.2885501337517273
31
0.0
40
1
41
0
42
6.2831853071795862
0
ELLIPSE
5
568
100
AcDbEntity
8
0
100
AcDbEllipse
10
-209.29559482265319
20
202.07168993137316
30
-3.5431639844318852e-08
11
6.9852442718519816e-20
21
1.2885501337517273
31
0.0
40
1
41
0
42
6.2831853071795862
0
ELLIPSE
5
569
100
AcDbEntity
8
0
100
AcDbEllipse
10
-205.68965220029372
20
192.38259202641828
30
-3.3732732163116452e-08
11
6.9852442718519816e-20
21
1.2885501337517273
31
0.0
40
1
41
0
42
6.2831853071795862
0
ELLIPSE
5
570
100
AcDbEntity
8
0
100
AcDbEllipse
10
-202.0837095779342
20
202.07168993137319
30
-3.5431639844318852e-08
11
6.9852442718519816e-20
21
1.2885501337517273
31
0.0
40
1
41
0
42
6.2831853071795862
0
ELLIPSE
5
571
100
AcDbEntity
8
0
100
AcDbEllipse
10
-198.47776695557471
20
192.38259202641825
30
-3.3732732163116452e-08
11
6.9852442718519816e-20
21
1.2885501337517273
31
0.0
40
1
41
0
42
6.2831853071795862
0
ELLIPSE
5
572
100
AcDbEntity
8
0
100
AcDbEllipse
10
-194.88181309394184
20
202.07168993137319
30
-3.5431639844318852e-08
11
6.9852442718519816e-20
21
1.2885501337517273
31
0.0
40
1
41
0
42
6.2831853071795862
0
ELLIPSE
5
573
100
AcDbEntity
8
0
100
AcDbEllipse
10
-191.27587047158238
20
192.38259202641825
30
-3.3732732163116452e-08
11
6.9852442718519816e-20
21
1.2885501337517273
31
0.0
40
1
41
0
42
6.2831853071795862
0
ELLIPSE
5
574
100
AcDbEntity
8
0
100
AcDbEllipse
10
-155.8956799774067
20
192.38259202641825
30
-3.3732732163116452e-08
11
6.9852442718520767e-20
21
1.2885501337517451
31
0.0
40
1
41
0
42
6.2831853071795862
0
ELLIPSE
5
575
100
AcDbEntity
8
0
100
AcDbEllipse
10
-152.28973735504721
20
202.07168993137319
30
-3.5431639844318852e-08
11
6.9852442718520767e-20
21
1.2885501337517451
31
0.0
40
1
41
0
42
6.2831853071795862
0
ELLIPSE
5
576
100
AcDbEntity
8
0
100
AcDbEllipse
10
-148.68379473268769
20
192.38259202641828
30
-3.3732732163116452e-08
11
6.9852442718520767e-20
21
1.2885501337517451
31
0.0
40
1
41
0
42
6.2831853071795862
0
ELLIPSE
5
577
100
AcDbEntity
8
0
100
AcDbEllipse
10
-145.07785211032817
20
202.07168993137319
30
-3.5431639844318852e-08
11
6.9852442718520767e-20
21
1.2885501337517451
31
0.0
40
1
41
0
42
6.2831853071795862
0
ELLIPSE
5
578
100
AcDbEntity
8
0
100
AcDbEllipse
10
-141.47190948796867
20
192.38259202641828
30
-3.3732732163116452e-08
11
6.9852442718520767e-20
21
1.2885501337517451
31
0.0
40
1
41
0
42
6.2831853071795862
0
ELLIPSE
5
579
100
AcDbEntity
8
0
100
AcDbEllipse
10
-137.86596686560915
20
202.07168993137319
30
-3.5431639844318852e-08
11
6.9852442718520767e-20
21
1.2885501337517451
31
0.0
40
1
41
0
42
6.2831853071795862
0
ELLIPSE
5
580
100
AcDbEntity
8
0
100
AcDbEllipse
10
-134.2600242432496
20
192.38259202641828
30
-3.3732732163116452e-08
11
6.9852442718520767e-20
21
1.2885501337517451
31
0.0
40
1
41
0
42
6.2831853071795862
0
ELLIPSE
5
581
100
AcDbEntity
8
0
100
AcDbEllipse
10
-130.65408162089011
20
202.07168993137321
30
-3.5431639844318852e-08
11
6.9852442718520767e-20
21
1.2885501337517451
31
0.0
40
1
41
0
42
6.2831853071795862
0
ELLIPSE
5
582
100
AcDbEntity
8
0
100
AcDbEllipse
10
-130.65408162089011
20
195.61895050188778
30
-3.4300207119031256e-08
11
6.9852442718520767e-20
21
1.2885501337517451
31
0.0
40
1
41
0
42
6.2831853071795862
0
ELLIPSE
5
583
100
AcDbEntity
8
0
100
AcDbEllipse
10
-134.2600242432496
20
198.84532021663051
30
-3.4865923481675054e-08
11
6.9852442718520767e-20
21
1.2885501337517451
31
0.0
40
1
41
0
42
6.2831853071795862
0
ELLIPSE
5
584
100
AcDbEntity
8
0
100
AcDbEllipse
10
-137.86596686560915
20
195.61895050188778
30
-3.4300207119031256e-08
11
6.9852442718520767e-20
21
1.2885501337517451
31
0.0
40
1
41
0
42
6.2831853071795862
0
ELLIPSE
5
585
100
AcDbEntity
8
0
100
AcDbEllipse
10
-141.47190948796867
20
198.84532021663048
30
-3.4865923481675054e-08
11
6.9852442718520767e-20
21
1.2885501337517451
31
0.0
40
1
41
0
42
6.2831853071795862
0
ELLIPSE
5
586
100
AcDbEntity
8
0
100
AcDbEllipse
10
-145.07785211032819
20
195.61895050188778
30
-3.4300207119031256e-08
11
6.9852442718520767e-20
21
1.2885501337517451
31
0.0
40
1
41
0
42
6.2831853071795862
0
ELLIPSE
5
587
100
AcDbEntity
8
0
100
AcDbEllipse
10
-148.68379473268769
20
198.84532021663051
30
-3.4865923481675054e-08
11
6.9852442718520767e-20
21
1.2885501337517451
31
0.0
40
1
41
0
42
6.2831853071795862
0
ELLIPSE
5
588
100
AcDbEntity
8
0
100
AcDbEllipse
10
-152.28973735504724
20
195.61895050188778
30
-3.4300207119031256e-08
11
6.9852442718520767e-20
21
1.2885501337517451
31
0.0
40
1
41
0
42
6.2831853071795862
0
ELLIPSE
5
589
100
AcDbEntity
8
0
100
AcDbEllipse
10
-155.8956799774067
20
198.84532021663048
30
-3.4865923481675054e-08
11
6.9852442718520767e-20
21
1.2885501337517451
31
0.0
40
1
41
0
42
6.2831853071795862
0
ELLIPSE
5
590
100
AcDbEntity
8
0
100
AcDbEllipse
10
-191.27587047158238
20
198.84532021663048
30
-3.4865923481675054e-08
11
6.9852442718519816e-20
21
1.2885501337517273
31
0.0
40
1
41
0
42
6.2831853071795862
0
ELLIPSE
5
591
100
AcDbEntity
8
0
100
AcDbEllipse
10
-194.8818130939419
20
195.61895050188778
30
-3.4300207119031256e-08
11
6.9852442718519816e-20
21
1.2885501337517273
31
0.0
40
1
41
0
42
6.2831853071795862
0
ELLIPSE
5
592
100
AcDbEntity
8
0
100
AcDbEllipse
10
-198.47776695557468
20
198.84532021663048
30
-3.4865923481675054e-08
11
6.9852442718519816e-20
21
1.2885501337517273
31
0.0
40
1
41
0
42
6.2831853071795862
0
ELLIPSE
5
593
100
AcDbEntity
8
0
100
AcDbEllipse
10
-202.0837095779342
20
195.61895050188778
30
-3.4300207119031256e-08
11
6.9852442718519816e-20
21
1.2885501337517273
31
0.0
40
1
41
0
42
6.2831853071795862
0
ELLIPSE
5
594
100
AcDbEntity
8
0
100
AcDbEllipse
10
-205.68965220029369
20
198.84532021663051
30
-3.4865923481675054e-08
11
6.9852442718519816e-20
21
1.2885501337517273
31
0.0
40
1
41
0
42
6.2831853071795862
0
ELLIPSE
5
595
100
AcDbEntity
8
0
100
AcDbEllipse
10
-209.29559482265321
20
195.61895050188778
30
-3.4300207119031256e-08
11
6.9852442718519816e-20
21
1.2885501337517273
31
0.0
40
1
41
0
42
6.2831853071795862
0
ELLIPSE
5
596
100
AcDbEntity
8
0
100
AcDbEllipse
10
-209.29559482265321
20
198.84532021663048
30
-3.4865923481675054e-08
11
6.9852442718519816e-20
21
1.2885501337517273
31
0.0
40
1
41
0
42
6.2831853071795862
0
ELLIPSE
5
597
100
AcDbEntity
8
0
100
AcDbEllipse
10
-205.68965220029369
20
195.61895050188778
30
-3.4300207119031256e-08
11
6.9852442718519816e-20
21
1.2885501337517273
31
0.0
40
1
41
0
42
6.2831853071795862
0
ELLIPSE
5
598
100
AcDbEntity
8
0
100
AcDbEllipse
10
-202.0837095779342
20
198.84532021663045
30
-3.4865923481675054e-08
11
6.9852442718519816e-20
21
1.2885501337517273
31
0.0
40
1
41
0
42
6.2831853071795862
0
ELLIPSE
5
599
100
AcDbEntity
8
0
100
AcDbEllipse
10
-198.47776695557471
20
195.61895050188781
30
-3.4300207119031256e-08
11
6.9852442718519816e-20
21
1.2885501337517273
31
0.0
40
1
41
0
42
6.2831853071795862
0
ELLIPSE
5
600
100
AcDbEntity
8
0
100
AcDbEllipse
10
-194.88181309394184
20
198.84532021663045
30
-3.4865923481675054e-08
11
6.9852442718519816e-20
21
1.2885501337517273
31
0.0
40
1
41
0
42
6.2831853071795862
0
ELLIPSE
5
601
100
AcDbEntity
8
0
100
AcDbEllipse
10
-191.27587047158238
20
195.61895050188781
30
-3.4300207119031256e-08
11
6.9852442718519816e-20
21
1.2885501337517273
31
0.0
40
1
41
0
42
6.2831853071795862
0
ELLIPSE
5
602
100
AcDbEntity
8
0
100
AcDbEllipse
10
-155.8956799774067
20
195.61895050188778
30
-3.4300207119031256e-08
11
6.9852442718520767e-20
21
1.2885501337517451
31
0.0
40
1
41
0
42
6.2831853071795862
0
ELLIPSE
5
603
100
AcDbEntity
8
0
100
AcDbEllipse
10
-152.28973735504721
20
198.84532021663048
30
-3.4865923481675054e-08
11
6.9852442718520767e-20
21
1.2885501337517451
31
0.0
40
1
41
0
42
6.2831853071795862
0
ELLIPSE
5
604
100
AcDbEntity
8
0
100
AcDbEllipse
10
-148.68379473268772
20
195.61895050188781
30
-3.4300207119031256e-08
11
6.9852442718520767e-20
21
1.2885501337517451
31
0.0
40
1
41
0
42
6.2831853071795862
0
ELLIPSE
5
605
100
AcDbEntity
8
0
100
AcDbEllipse
10
-145.07785211032817
20
198.84532021663048
30
-3.4865923481675054e-08
11
6.9852442718520767e-20
21
1.2885501337517451
31
0.0
40
1
41
0
42
6.2831853071795862
0
ELLIPSE
5
606
100
AcDbEntity
8
0
100
AcDbEllipse
10
-141.47190948796867
20
195.61895050188781
30
-3.4300207119031256e-08
11
6.9852442718520767e-20
21
1.2885501337517451
31
0.0
40
1
41
0
42
6.2831853071795862
0
ELLIPSE
5
607
100
AcDbEntity
8
0
100
AcDbEllipse
10
-137.86596686560915
20
198.84532021663048
30
-3.4865923481675054e-08
11
6.9852442718520767e-20
21
1.2885501337517451
31
0.0
40
1
41
0
42
6.2831853071795862
0
ELLIPSE
5
608
100
AcDbEntity
8
0
100
AcDbEllipse
10
-134.2600242432496
20
195.61895050188778
30
-3.4300207119031256e-08
11
6.9852442718520767e-20
21
1.2885501337517451
31
0.0
40
1
41
0
42
6.2831853071795862
0
ELLIPSE
5
609
100
AcDbEntity
8
0
100
AcDbEllipse
10
-130.65408162089011
20
198.84532021663048
30
-3.4865923481675054e-08
11
6.9852442718520767e-20
21
1.2885501337517451
31
0.0
40
1
41
0
42
6.2831853071795862
0
CIRCLE
5
610
100
AcDbEntity
8
0
100
AcDbCircle
10
-293.57111426848627
20
211.1278459266789
30
-3.7019560750195524e-08
40
1.7999999999999972
210
-2.3848530408528336e-39
220
0
230
1
0
CIRCLE
5
611
100
AcDbEntity
8
0
100
AcDbCircle
10
-386.55109256593533
20
101.12188763827588
30
-1.7730910073510131e-08
40
1.7999999999999972
210
-2.3848530408528336e-39
220
0
230
1
0
CIRCLE
5
612
100
AcDbEntity
8
0
100
AcDbCircle
10
-371.11698549058957
20
211.12787871489479
30
-3.7019569631979721e-08
40
1.7999999999999972
210
-2.3848530408528336e-39
220
0
230
1
0
CIRCLE
5
613
100
AcDbEntity
8
0
100
AcDbCircle
10
-165.57098812581302
20
211.12779180521866
30
-3.7019551868411327e-08
40
1.7999999999999972
210
-2.3848530408528336e-39
220
0
230
1
0
CIRCLE
5
614
100
AcDbEntity
8
0
100
AcDbCircle
10
-51.988775805952194
20
211.12774377999125
30
-3.701954298662713e-08
40
1.800000000000006
210
2.5849394142279724e-26
220
0
230
1
0
CIRCLE
5
615
100
AcDbEntity
8
0
100
AcDbCircle
10
-34.187198329911112
20
101.12188616118851
30
-1.7730901191725934e-08
40
1.800000000000006
210
2.5849394142279724e-26
220
0
230
1
0
ENDSEC
0
SECTION
2
OBJECTS
0
DICTIONARY
5
C
100
AcDbDictionary
3
ACAD_GROUP
350
D
3
ACAD_MLINESTYLE
350
17
0
DICTIONARY
5
D
100
AcDbDictionary
0
DICTIONARY
5
1A
330
C
100
AcDbDictionary
0
DICTIONARY
5
17
100
AcDbDictionary
0
ENDSEC
0
EOF
