M48
; DRILL file {KiCad (5.1.9)-1} date 02/08/21 19:10:33
; FORMAT={-:-/ absolute / inch / decimal}
; #@! TF.CreationDate,2021-02-08T19:10:33+01:00
; #@! TF.GenerationSoftware,Kicad,Pcbnew,(5.1.9)-1
; #@! TF.FileFunction,NonPlated,1,2,NPTH
FMAT,2
INCH
T1C0.0984
%
G90
G05
T1
X3.2475Y-5.5037
X3.2475Y-5.6337
X3.2475Y-5.7636
X3.2475Y-5.8935
X3.3774Y-5.5037
X3.3774Y-5.6337
X3.3774Y-5.7636
X3.3774Y-5.8935
X3.5073Y-5.5037
X3.5073Y-5.6337
X3.5073Y-5.7636
X3.5073Y-5.8935
X3.6373Y-5.5037
X3.6373Y-5.6337
X3.6373Y-5.7636
X3.6373Y-5.8935
X3.7672Y-5.5037
X3.7672Y-5.6337
X3.7672Y-5.7636
X3.7672Y-5.8935
X3.8971Y-5.5037
X3.8971Y-5.6337
X3.8971Y-5.7636
X3.8971Y-5.8935
X4.027Y-5.5037
X4.027Y-5.6337
X4.027Y-5.7636
X4.027Y-5.8935
X4.1569Y-5.5037
X4.1569Y-5.6337
X4.1569Y-5.7636
X4.1569Y-5.8935
X5.6315Y-5.5067
X5.6315Y-5.6367
X5.6315Y-5.7666
X5.6315Y-5.8965
X5.7614Y-5.5067
X5.7614Y-5.6367
X5.7614Y-5.7666
X5.7614Y-5.8965
X5.8913Y-5.5067
X5.8913Y-5.6367
X5.8913Y-5.7666
X5.8913Y-5.8965
X6.0213Y-5.5067
X6.0213Y-5.6367
X6.0213Y-5.7666
X6.0213Y-5.8965
X6.1512Y-5.5067
X6.1512Y-5.6367
X6.1512Y-5.7666
X6.1512Y-5.8965
X6.2811Y-5.5067
X6.2811Y-5.6367
X6.2811Y-5.7666
X6.2811Y-5.8965
T0
M30
