  0
SECTION
  2
HEADER
  9
$ACADVER
  1
AC1009
  9
$FILLMODE
 70
 0
  9
$SPLFRAME
 70
 1
  9
$EXTMIN
 10
0
 20
0
 30
0.0
  9
$EXTMAX
 10
41.6667
 20
41.6667
 30
0.0
  0
ENDSEC
  0
SECTION
  2
TABLES
  0
TABLE
  2
LAYER
 70
1
  0
LAYER
  2
0
 70
     0
 62
     7
  6
CONTINUOUS
  0
ENDTAB
  0
ENDSEC
  0
SECTION
  2
ENTITIES
  0
POLYLINE
  8
0
 62
     250
 66
     1
 10
0
 20
0
 30
0.0
 70
     1
 40
0
 41
0
  0
VERTEX
  8
0
 10
1.35824
 20
0.303331
 30
0.0
 40
0
 41
0
  0
VERTEX
  8
0
 10
1.44689
 20
0.303331
 30
0.0
 40
0
 41
0
  0
VERTEX
  8
0
 10
1.45215
 20
0.303331
 30
0.0
 40
0
 41
0
  0
VERTEX
  8
0
 10
1.46793
 20
0.312175
 30
0.0
 40
0
 41
0
  0
VERTEX
  8
0
 10
1.47651
 20
0.32921
 30
0.0
 40
0
 41
0
  0
VERTEX
  8
0
 10
1.47646
 20
0.333333
 30
0.0
 40
0
 41
0
  0
VERTEX
  8
0
 10
1.47646
 20
0.864583
 30
0.0
 40
0
 41
0
  0
VERTEX
  8
0
 10
1.47646
 20
0.869792
 30
0.0
 40
0
 41
0
  0
VERTEX
  8
0
 10
1.48508
 20
0.885417
 30
0.0
 40
0
 41
0
  0
VERTEX
  8
0
 10
1.50071
 20
0.894043
 30
0.0
 40
0
 41
0
  0
VERTEX
  8
0
 10
1.50592
 20
0.894043
 30
0.0
 40
0
 41
0
  0
VERTEX
  8
0
 10
1.88981
 20
0.894043
 30
0.0
 40
0
 41
0
  0
VERTEX
  8
0
 10
1.89501
 20
0.894043
 30
0.0
 40
0
 41
0
  0
VERTEX
  8
0
 10
1.91064
 20
0.902778
 30
0.0
 40
0
 41
0
  0
VERTEX
  8
0
 10
1.91928
 20
0.919596
 30
0.0
 40
0
 41
0
  0
VERTEX
  8
0
 10
1.91928
 20
0.923665
 30
0.0
 40
0
 41
0
  0
VERTEX
  8
0
 10
1.91928
 20
1.0121
 30
0.0
 40
0
 41
0
  0
VERTEX
  8
0
 10
1.91928
 20
1.01622
 30
0.0
 40
0
 41
0
  0
VERTEX
  8
0
 10
1.91064
 20
1.03304
 30
0.0
 40
0
 41
0
  0
VERTEX
  8
0
 10
1.89501
 20
1.04167
 30
0.0
 40
0
 41
0
  0
VERTEX
  8
0
 10
1.88981
 20
1.04167
 30
0.0
 40
0
 41
0
  0
VERTEX
  8
0
 10
1.35856
 20
1.04167
 30
0.0
 40
0
 41
0
  0
VERTEX
  8
0
 10
1.35444
 20
1.04167
 30
0.0
 40
0
 41
0
  0
VERTEX
  8
0
 10
1.33767
 20
1.03299
 30
0.0
 40
0
 41
0
  0
VERTEX
  8
0
 10
1.32905
 20
1.01736
 30
0.0
 40
0
 41
0
  0
VERTEX
  8
0
 10
1.32905
 20
1.0121
 30
0.0
 40
0
 41
0
  0
VERTEX
  8
0
 10
1.32905
 20
0.333333
 30
0.0
 40
0
 41
0
  0
VERTEX
  8
0
 10
1.32899
 20
0.329264
 30
0.0
 40
0
 41
0
  0
VERTEX
  8
0
 10
1.3374
 20
0.312338
 30
0.0
 40
0
 41
0
  0
VERTEX
  8
0
 10
1.35411
 20
0.303386
 30
0.0
 40
0
 41
0
  0
VERTEX
  8
0
 10
1.35824
 20
0.303331
 30
0.0
 40
0
 41
0
  0
SEQEND
 8
0
  0
POLYLINE
  8
0
 62
     250
 66
     1
 10
0
 20
0
 30
0.0
 70
     1
 40
0
 41
0
  0
VERTEX
  8
0
 10
4.69476
 20
1.04031
 30
0.0
 40
0
 41
0
  0
VERTEX
  8
0
 10
3.57292
 20
1.04031
 30
0.0
 40
0
 41
0
  0
VERTEX
  8
0
 10
3.56879
 20
1.04037
 30
0.0
 40
0
 41
0
  0
VERTEX
  8
0
 10
3.55181
 20
1.03157
 30
0.0
 40
0
 41
0
  0
VERTEX
  8
0
 10
3.54318
 20
1.01454
 30
0.0
 40
0
 41
0
  0
VERTEX
  8
0
 10
3.54324
 20
1.01042
 30
0.0
 40
0
 41
0
  0
VERTEX
  8
0
 10
3.54324
 20
0.921875
 30
0.0
 40
0
 41
0
  0
VERTEX
  8
0
 10
3.54324
 20
0.91786
 30
0.0
 40
0
 41
0
  0
VERTEX
  8
0
 10
3.55203
 20
0.901204
 30
0.0
 40
0
 41
0
  0
VERTEX
  8
0
 10
3.56885
 20
0.892686
 30
0.0
 40
0
 41
0
  0
VERTEX
  8
0
 10
3.57292
 20
0.892686
 30
0.0
 40
0
 41
0
  0
VERTEX
  8
0
 10
4.54731
 20
0.892686
 30
0.0
 40
0
 41
0
  0
VERTEX
  8
0
 10
4.55251
 20
0.892686
 30
0.0
 40
0
 41
0
  0
VERTEX
  8
0
 10
4.56819
 20
0.88406
 30
0.0
 40
0
 41
0
  0
VERTEX
  8
0
 10
4.57688
 20
0.868381
 30
0.0
 40
0
 41
0
  0
VERTEX
  8
0
 10
4.57688
 20
0.863118
 30
0.0
 40
0
 41
0
  0
VERTEX
  8
0
 10
4.57688
 20
0.774576
 30
0.0
 40
0
 41
0
  0
VERTEX
  8
0
 10
4.57688
 20
0.769368
 30
0.0
 40
0
 41
0
  0
VERTEX
  8
0
 10
4.56819
 20
0.753689
 30
0.0
 40
0
 41
0
  0
VERTEX
  8
0
 10
4.55251
 20
0.745008
 30
0.0
 40
0
 41
0
  0
VERTEX
  8
0
 10
4.54731
 20
0.745008
 30
0.0
 40
0
 41
0
  0
VERTEX
  8
0
 10
3.57292
 20
0.745008
 30
0.0
 40
0
 41
0
  0
VERTEX
  8
0
 10
3.56771
 20
0.745008
 30
0.0
 40
0
 41
0
  0
VERTEX
  8
0
 10
3.55208
 20
0.736382
 30
0.0
 40
0
 41
0
  0
VERTEX
  8
0
 10
3.54346
 20
0.720757
 30
0.0
 40
0
 41
0
  0
VERTEX
  8
0
 10
3.54346
 20
0.715494
 30
0.0
 40
0
 41
0
  0
VERTEX
  8
0
 10
3.54346
 20
0.331651
 30
0.0
 40
0
 41
0
  0
VERTEX
  8
0
 10
3.54346
 20
0.326443
 30
0.0
 40
0
 41
0
  0
VERTEX
  8
0
 10
3.55208
 20
0.310818
 30
0.0
 40
0
 41
0
  0
VERTEX
  8
0
 10
3.56885
 20
0.302138
 30
0.0
 40
0
 41
0
  0
VERTEX
  8
0
 10
3.57292
 20
0.302083
 30
0.0
 40
0
 41
0
  0
VERTEX
  8
0
 10
4.69476
 20
0.302083
 30
0.0
 40
0
 41
0
  0
VERTEX
  8
0
 10
4.69883
 20
0.302138
 30
0.0
 40
0
 41
0
  0
VERTEX
  8
0
 10
4.7156
 20
0.310818
 30
0.0
 40
0
 41
0
  0
VERTEX
  8
0
 10
4.72428
 20
0.326443
 30
0.0
 40
0
 41
0
  0
VERTEX
  8
0
 10
4.72428
 20
0.331651
 30
0.0
 40
0
 41
0
  0
VERTEX
  8
0
 10
4.72428
 20
0.420193
 30
0.0
 40
0
 41
0
  0
VERTEX
  8
0
 10
4.72428
 20
0.425456
 30
0.0
 40
0
 41
0
  0
VERTEX
  8
0
 10
4.7156
 20
0.441135
 30
0.0
 40
0
 41
0
  0
VERTEX
  8
0
 10
4.69883
 20
0.449815
 30
0.0
 40
0
 41
0
  0
VERTEX
  8
0
 10
4.69476
 20
0.449815
 30
0.0
 40
0
 41
0
  0
VERTEX
  8
0
 10
3.72043
 20
0.449815
 30
0.0
 40
0
 41
0
  0
VERTEX
  8
0
 10
3.71517
 20
0.449815
 30
0.0
 40
0
 41
0
  0
VERTEX
  8
0
 10
3.69954
 20
0.458387
 30
0.0
 40
0
 41
0
  0
VERTEX
  8
0
 10
3.69081
 20
0.475097
 30
0.0
 40
0
 41
0
  0
VERTEX
  8
0
 10
3.69081
 20
0.479167
 30
0.0
 40
0
 41
0
  0
VERTEX
  8
0
 10
3.69081
 20
0.567708
 30
0.0
 40
0
 41
0
  0
VERTEX
  8
0
 10
3.69081
 20
0.572971
 30
0.0
 40
0
 41
0
  0
VERTEX
  8
0
 10
3.69949
 20
0.58865
 30
0.0
 40
0
 41
0
  0
VERTEX
  8
0
 10
3.71517
 20
0.597276
 30
0.0
 40
0
 41
0
  0
VERTEX
  8
0
 10
3.72043
 20
0.597276
 30
0.0
 40
0
 41
0
  0
VERTEX
  8
0
 10
4.69476
 20
0.597276
 30
0.0
 40
0
 41
0
  0
VERTEX
  8
0
 10
4.69997
 20
0.597276
 30
0.0
 40
0
 41
0
  0
VERTEX
  8
0
 10
4.7156
 20
0.605957
 30
0.0
 40
0
 41
0
  0
VERTEX
  8
0
 10
4.72428
 20
0.621582
 30
0.0
 40
0
 41
0
  0
VERTEX
  8
0
 10
4.72428
 20
0.62679
 30
0.0
 40
0
 41
0
  0
VERTEX
  8
0
 10
4.72428
 20
1.01042
 30
0.0
 40
0
 41
0
  0
VERTEX
  8
0
 10
4.72428
 20
1.01454
 30
0.0
 40
0
 41
0
  0
VERTEX
  8
0
 10
4.71571
 20
1.03152
 30
0.0
 40
0
 41
0
  0
VERTEX
  8
0
 10
4.69883
 20
1.04031
 30
0.0
 40
0
 41
0
  0
VERTEX
  8
0
 10
4.69476
 20
1.04031
 30
0.0
 40
0
 41
0
  0
SEQEND
 8
0
  0
POLYLINE
  8
0
 62
     250
 66
     1
 10
0
 20
0
 30
0.0
 70
     1
 40
0
 41
0
  0
VERTEX
  8
0
 10
6.02354
 20
1.04031
 30
0.0
 40
0
 41
0
  0
VERTEX
  8
0
 10
5.49229
 20
1.04031
 30
0.0
 40
0
 41
0
  0
VERTEX
  8
0
 10
5.48812
 20
1.04037
 30
0.0
 40
0
 41
0
  0
VERTEX
  8
0
 10
5.47114
 20
1.03163
 30
0.0
 40
0
 41
0
  0
VERTEX
  8
0
 10
5.46246
 20
1.01459
 30
0.0
 40
0
 41
0
  0
VERTEX
  8
0
 10
5.46251
 20
1.01042
 30
0.0
 40
0
 41
0
  0
VERTEX
  8
0
 10
5.46251
 20
0.921875
 30
0.0
 40
0
 41
0
  0
VERTEX
  8
0
 10
5.46251
 20
0.916667
 30
0.0
 40
0
 41
0
  0
VERTEX
  8
0
 10
5.47114
 20
0.901042
 30
0.0
 40
0
 41
0
  0
VERTEX
  8
0
 10
5.48676
 20
0.892415
 30
0.0
 40
0
 41
0
  0
VERTEX
  8
0
 10
5.49197
 20
0.892415
 30
0.0
 40
0
 41
0
  0
VERTEX
  8
0
 10
5.87582
 20
0.892415
 30
0.0
 40
0
 41
0
  0
VERTEX
  8
0
 10
5.88103
 20
0.892415
 30
0.0
 40
0
 41
0
  0
VERTEX
  8
0
 10
5.89675
 20
0.883789
 30
0.0
 40
0
 41
0
  0
VERTEX
  8
0
 10
5.90543
 20
0.868056
 30
0.0
 40
0
 41
0
  0
VERTEX
  8
0
 10
5.90543
 20
0.862793
 30
0.0
 40
0
 41
0
  0
VERTEX
  8
0
 10
5.90543
 20
0.774251
 30
0.0
 40
0
 41
0
  0
VERTEX
  8
0
 10
5.90543
 20
0.769043
 30
0.0
 40
0
 41
0
  0
VERTEX
  8
0
 10
5.89675
 20
0.753364
 30
0.0
 40
0
 41
0
  0
VERTEX
  8
0
 10
5.88103
 20
0.744683
 30
0.0
 40
0
 41
0
  0
VERTEX
  8
0
 10
5.87582
 20
0.744683
 30
0.0
 40
0
 41
0
  0
VERTEX
  8
0
 10
5.49197
 20
0.744683
 30
0.0
 40
0
 41
0
  0
VERTEX
  8
0
 10
5.48676
 20
0.744683
 30
0.0
 40
0
 41
0
  0
VERTEX
  8
0
 10
5.47114
 20
0.736057
 30
0.0
 40
0
 41
0
  0
VERTEX
  8
0
 10
5.46251
 20
0.720432
 30
0.0
 40
0
 41
0
  0
VERTEX
  8
0
 10
5.46251
 20
0.715224
 30
0.0
 40
0
 41
0
  0
VERTEX
  8
0
 10
5.46251
 20
0.331651
 30
0.0
 40
0
 41
0
  0
VERTEX
  8
0
 10
5.46251
 20
0.326443
 30
0.0
 40
0
 41
0
  0
VERTEX
  8
0
 10
5.47114
 20
0.310818
 30
0.0
 40
0
 41
0
  0
VERTEX
  8
0
 10
5.4879
 20
0.302138
 30
0.0
 40
0
 41
0
  0
VERTEX
  8
0
 10
5.49197
 20
0.302083
 30
0.0
 40
0
 41
0
  0
VERTEX
  8
0
 10
5.58062
 20
0.302083
 30
0.0
 40
0
 41
0
  0
VERTEX
  8
0
 10
5.58469
 20
0.302138
 30
0.0
 40
0
 41
0
  0
VERTEX
  8
0
 10
5.60146
 20
0.310818
 30
0.0
 40
0
 41
0
  0
VERTEX
  8
0
 10
5.61008
 20
0.326443
 30
0.0
 40
0
 41
0
  0
VERTEX
  8
0
 10
5.61008
 20
0.331651
 30
0.0
 40
0
 41
0
  0
VERTEX
  8
0
 10
5.61008
 20
0.567817
 30
0.0
 40
0
 41
0
  0
VERTEX
  8
0
 10
5.61008
 20
0.573079
 30
0.0
 40
0
 41
0
  0
VERTEX
  8
0
 10
5.61876
 20
0.588758
 30
0.0
 40
0
 41
0
  0
VERTEX
  8
0
 10
5.63444
 20
0.597385
 30
0.0
 40
0
 41
0
  0
VERTEX
  8
0
 10
5.63971
 20
0.597385
 30
0.0
 40
0
 41
0
  0
VERTEX
  8
0
 10
5.87582
 20
0.597385
 30
0.0
 40
0
 41
0
  0
VERTEX
  8
0
 10
5.88103
 20
0.597385
 30
0.0
 40
0
 41
0
  0
VERTEX
  8
0
 10
5.89675
 20
0.588758
 30
0.0
 40
0
 41
0
  0
VERTEX
  8
0
 10
5.90543
 20
0.573079
 30
0.0
 40
0
 41
0
  0
VERTEX
  8
0
 10
5.90543
 20
0.567817
 30
0.0
 40
0
 41
0
  0
VERTEX
  8
0
 10
5.90543
 20
0.331651
 30
0.0
 40
0
 41
0
  0
VERTEX
  8
0
 10
5.90543
 20
0.326443
 30
0.0
 40
0
 41
0
  0
VERTEX
  8
0
 10
5.91407
 20
0.310818
 30
0.0
 40
0
 41
0
  0
VERTEX
  8
0
 10
5.93083
 20
0.302138
 30
0.0
 40
0
 41
0
  0
VERTEX
  8
0
 10
5.9349
 20
0.302083
 30
0.0
 40
0
 41
0
  0
VERTEX
  8
0
 10
6.02354
 20
0.302083
 30
0.0
 40
0
 41
0
  0
VERTEX
  8
0
 10
6.02761
 20
0.302138
 30
0.0
 40
0
 41
0
  0
VERTEX
  8
0
 10
6.04438
 20
0.310818
 30
0.0
 40
0
 41
0
  0
VERTEX
  8
0
 10
6.053
 20
0.326443
 30
0.0
 40
0
 41
0
  0
VERTEX
  8
0
 10
6.053
 20
0.331651
 30
0.0
 40
0
 41
0
  0
VERTEX
  8
0
 10
6.053
 20
1.01042
 30
0.0
 40
0
 41
0
  0
VERTEX
  8
0
 10
6.053
 20
1.01454
 30
0.0
 40
0
 41
0
  0
VERTEX
  8
0
 10
6.04449
 20
1.03152
 30
0.0
 40
0
 41
0
  0
VERTEX
  8
0
 10
6.02761
 20
1.04031
 30
0.0
 40
0
 41
0
  0
VERTEX
  8
0
 10
6.02354
 20
1.04031
 30
0.0
 40
0
 41
0
  0
SEQEND
 8
0
  0
POLYLINE
  8
0
 62
     250
 66
     1
 10
0
 20
0
 30
0.0
 70
     1
 40
0
 41
0
  0
VERTEX
  8
0
 10
2.80512
 20
0.333333
 30
0.0
 40
0
 41
0
  0
VERTEX
  8
0
 10
2.80512
 20
0.864583
 30
0.0
 40
0
 41
0
  0
VERTEX
  8
0
 10
2.80512
 20
0.869846
 30
0.0
 40
0
 41
0
  0
VERTEX
  8
0
 10
2.81375
 20
0.885471
 30
0.0
 40
0
 41
0
  0
VERTEX
  8
0
 10
2.83051
 20
0.894151
 30
0.0
 40
0
 41
0
  0
VERTEX
  8
0
 10
2.83458
 20
0.894151
 30
0.0
 40
0
 41
0
  0
VERTEX
  8
0
 10
3.36583
 20
0.894151
 30
0.0
 40
0
 41
0
  0
VERTEX
  8
0
 10
3.3699
 20
0.894097
 30
0.0
 40
0
 41
0
  0
VERTEX
  8
0
 10
3.38693
 20
0.902615
 30
0.0
 40
0
 41
0
  0
VERTEX
  8
0
 10
3.39578
 20
0.919488
 30
0.0
 40
0
 41
0
  0
VERTEX
  8
0
 10
3.39583
 20
0.923557
 30
0.0
 40
0
 41
0
  0
VERTEX
  8
0
 10
3.39583
 20
1.0121
 30
0.0
 40
0
 41
0
  0
VERTEX
  8
0
 10
3.39583
 20
1.01736
 30
0.0
 40
0
 41
0
  0
VERTEX
  8
0
 10
3.3871
 20
1.03309
 30
0.0
 40
0
 41
0
  0
VERTEX
  8
0
 10
3.37011
 20
1.04172
 30
0.0
 40
0
 41
0
  0
VERTEX
  8
0
 10
3.36604
 20
1.04167
 30
0.0
 40
0
 41
0
  0
VERTEX
  8
0
 10
2.09646
 20
1.04167
 30
0.0
 40
0
 41
0
  0
VERTEX
  8
0
 10
2.09239
 20
1.04167
 30
0.0
 40
0
 41
0
  0
VERTEX
  8
0
 10
2.07563
 20
1.03299
 30
0.0
 40
0
 41
0
  0
VERTEX
  8
0
 10
2.067
 20
1.01736
 30
0.0
 40
0
 41
0
  0
VERTEX
  8
0
 10
2.067
 20
1.0121
 30
0.0
 40
0
 41
0
  0
VERTEX
  8
0
 10
2.067
 20
0.923557
 30
0.0
 40
0
 41
0
  0
VERTEX
  8
0
 10
2.067
 20
0.918349
 30
0.0
 40
0
 41
0
  0
VERTEX
  8
0
 10
2.07563
 20
0.902724
 30
0.0
 40
0
 41
0
  0
VERTEX
  8
0
 10
2.09125
 20
0.894043
 30
0.0
 40
0
 41
0
  0
VERTEX
  8
0
 10
2.09646
 20
0.894043
 30
0.0
 40
0
 41
0
  0
VERTEX
  8
0
 10
2.62771
 20
0.894043
 30
0.0
 40
0
 41
0
  0
VERTEX
  8
0
 10
2.63178
 20
0.894097
 30
0.0
 40
0
 41
0
  0
VERTEX
  8
0
 10
2.6486
 20
0.885471
 30
0.0
 40
0
 41
0
  0
VERTEX
  8
0
 10
2.65728
 20
0.869846
 30
0.0
 40
0
 41
0
  0
VERTEX
  8
0
 10
2.65728
 20
0.864583
 30
0.0
 40
0
 41
0
  0
VERTEX
  8
0
 10
2.65728
 20
0.333333
 30
0.0
 40
0
 41
0
  0
VERTEX
  8
0
 10
2.65728
 20
0.328125
 30
0.0
 40
0
 41
0
  0
VERTEX
  8
0
 10
2.6659
 20
0.312446
 30
0.0
 40
0
 41
0
  0
VERTEX
  8
0
 10
2.68158
 20
0.303765
 30
0.0
 40
0
 41
0
  0
VERTEX
  8
0
 10
2.68685
 20
0.303765
 30
0.0
 40
0
 41
0
  0
VERTEX
  8
0
 10
2.7755
 20
0.303765
 30
0.0
 40
0
 41
0
  0
VERTEX
  8
0
 10
2.78071
 20
0.303765
 30
0.0
 40
0
 41
0
  0
VERTEX
  8
0
 10
2.79644
 20
0.312446
 30
0.0
 40
0
 41
0
  0
VERTEX
  8
0
 10
2.80512
 20
0.328125
 30
0.0
 40
0
 41
0
  0
VERTEX
  8
0
 10
2.80512
 20
0.333333
 30
0.0
 40
0
 41
0
  0
SEQEND
 8
0
  0
POLYLINE
  8
0
 62
     250
 66
     1
 10
0
 20
0
 30
0.0
 70
     1
 40
0
 41
0
  0
VERTEX
  8
0
 10
0.295301
 20
1.01042
 30
0.0
 40
0
 41
0
  0
VERTEX
  8
0
 10
0.295301
 20
0.921875
 30
0.0
 40
0
 41
0
  0
VERTEX
  8
0
 10
0.295301
 20
0.916667
 30
0.0
 40
0
 41
0
  0
VERTEX
  8
0
 10
0.303928
 20
0.901042
 30
0.0
 40
0
 41
0
  0
VERTEX
  8
0
 10
0.319553
 20
0.892415
 30
0.0
 40
0
 41
0
  0
VERTEX
  8
0
 10
0.324815
 20
0.892415
 30
0.0
 40
0
 41
0
  0
VERTEX
  8
0
 10
1.00396
 20
0.892415
 30
0.0
 40
0
 41
0
  0
VERTEX
  8
0
 10
1.00803
 20
0.892415
 30
0.0
 40
0
 41
0
  0
VERTEX
  8
0
 10
1.02479
 20
0.883735
 30
0.0
 40
0
 41
0
  0
VERTEX
  8
0
 10
1.03342
 20
0.868056
 30
0.0
 40
0
 41
0
  0
VERTEX
  8
0
 10
1.03342
 20
0.862793
 30
0.0
 40
0
 41
0
  0
VERTEX
  8
0
 10
1.03342
 20
0.479167
 30
0.0
 40
0
 41
0
  0
VERTEX
  8
0
 10
1.03342
 20
0.473958
 30
0.0
 40
0
 41
0
  0
VERTEX
  8
0
 10
1.02479
 20
0.458333
 30
0.0
 40
0
 41
0
  0
VERTEX
  8
0
 10
1.00917
 20
0.449707
 30
0.0
 40
0
 41
0
  0
VERTEX
  8
0
 10
1.00396
 20
0.449707
 30
0.0
 40
0
 41
0
  0
VERTEX
  8
0
 10
0.472711
 20
0.449707
 30
0.0
 40
0
 41
0
  0
VERTEX
  8
0
 10
0.468588
 20
0.449653
 30
0.0
 40
0
 41
0
  0
VERTEX
  8
0
 10
0.45166
 20
0.458225
 30
0.0
 40
0
 41
0
  0
VERTEX
  8
0
 10
0.442925
 20
0.473958
 30
0.0
 40
0
 41
0
  0
VERTEX
  8
0
 10
0.442925
 20
0.479167
 30
0.0
 40
0
 41
0
  0
VERTEX
  8
0
 10
0.442925
 20
0.715494
 30
0.0
 40
0
 41
0
  0
VERTEX
  8
0
 10
0.442871
 20
0.719618
 30
0.0
 40
0
 41
0
  0
VERTEX
  8
0
 10
0.43419
 20
0.736382
 30
0.0
 40
0
 41
0
  0
VERTEX
  8
0
 10
0.418565
 20
0.745008
 30
0.0
 40
0
 41
0
  0
VERTEX
  8
0
 10
0.413357
 20
0.745008
 30
0.0
 40
0
 41
0
  0
VERTEX
  8
0
 10
0.177083
 20
0.745008
 30
0.0
 40
0
 41
0
  0
VERTEX
  8
0
 10
0.171821
 20
0.745008
 30
0.0
 40
0
 41
0
  0
VERTEX
  8
0
 10
0.156142
 20
0.753689
 30
0.0
 40
0
 41
0
  0
VERTEX
  8
0
 10
0.147515
 20
0.769368
 30
0.0
 40
0
 41
0
  0
VERTEX
  8
0
 10
0.147515
 20
0.774576
 30
0.0
 40
0
 41
0
  0
VERTEX
  8
0
 10
0.147515
 20
1.01042
 30
0.0
 40
0
 41
0
  0
VERTEX
  8
0
 10
0.147515
 20
1.01454
 30
0.0
 40
0
 41
0
  0
VERTEX
  8
0
 10
0.138997
 20
1.03147
 30
0.0
 40
0
 41
0
  0
VERTEX
  8
0
 10
0.122179
 20
1.04031
 30
0.0
 40
0
 41
0
  0
VERTEX
  8
0
 10
0.11811
 20
1.04031
 30
0.0
 40
0
 41
0
  0
VERTEX
  8
0
 10
0.0294596
 20
1.04031
 30
0.0
 40
0
 41
0
  0
VERTEX
  8
0
 10
0.0253364
 20
1.04031
 30
0.0
 40
0
 41
0
  0
VERTEX
  8
0
 10
0.00851779
 20
1.03152
 30
0.0
 40
0
 41
0
  0
VERTEX
  8
0
 10
-5.42535e-05
 20
1.01454
 30
0.0
 40
0
 41
0
  0
VERTEX
  8
0
 10
0
 20
1.01042
 30
0.0
 40
0
 41
0
  0
VERTEX
  8
0
 10
0
 20
0.0363499
 30
0.0
 40
0
 41
0
  0
VERTEX
  8
0
 10
0
 20
0.0311415
 30
0.0
 40
0
 41
0
  0
VERTEX
  8
0
 10
0.00862631
 20
0.0155165
 30
0.0
 40
0
 41
0
  0
VERTEX
  8
0
 10
0.0242513
 20
0.00689019
 30
0.0
 40
0
 41
0
  0
VERTEX
  8
0
 10
0.0294596
 20
0.00689019
 30
0.0
 40
0
 41
0
  0
VERTEX
  8
0
 10
0.11811
 20
0.00689019
 30
0.0
 40
0
 41
0
  0
VERTEX
  8
0
 10
0.123318
 20
0.00689019
 30
0.0
 40
0
 41
0
  0
VERTEX
  8
0
 10
0.138943
 20
0.0155165
 30
0.0
 40
0
 41
0
  0
VERTEX
  8
0
 10
0.147624
 20
0.0311415
 30
0.0
 40
0
 41
0
  0
VERTEX
  8
0
 10
0.147624
 20
0.0363499
 30
0.0
 40
0
 41
0
  0
VERTEX
  8
0
 10
0.147624
 20
0.5676
 30
0.0
 40
0
 41
0
  0
VERTEX
  8
0
 10
0.147569
 20
0.571724
 30
0.0
 40
0
 41
0
  0
VERTEX
  8
0
 10
0.156142
 20
0.58865
 30
0.0
 40
0
 41
0
  0
VERTEX
  8
0
 10
0.17296
 20
0.597385
 30
0.0
 40
0
 41
0
  0
VERTEX
  8
0
 10
0.177083
 20
0.597385
 30
0.0
 40
0
 41
0
  0
VERTEX
  8
0
 10
0.265625
 20
0.597385
 30
0.0
 40
0
 41
0
  0
VERTEX
  8
0
 10
0.270833
 20
0.597385
 30
0.0
 40
0
 41
0
  0
VERTEX
  8
0
 10
0.286513
 20
0.588758
 30
0.0
 40
0
 41
0
  0
VERTEX
  8
0
 10
0.295193
 20
0.573079
 30
0.0
 40
0
 41
0
  0
VERTEX
  8
0
 10
0.295193
 20
0.567817
 30
0.0
 40
0
 41
0
  0
VERTEX
  8
0
 10
0.295193
 20
0.331651
 30
0.0
 40
0
 41
0
  0
VERTEX
  8
0
 10
0.295139
 20
0.327582
 30
0.0
 40
0
 41
0
  0
VERTEX
  8
0
 10
0.303819
 20
0.310764
 30
0.0
 40
0
 41
0
  0
VERTEX
  8
0
 10
0.320692
 20
0.302083
 30
0.0
 40
0
 41
0
  0
VERTEX
  8
0
 10
0.324815
 20
0.302083
 30
0.0
 40
0
 41
0
  0
VERTEX
  8
0
 10
1.15158
 20
0.302083
 30
0.0
 40
0
 41
0
  0
VERTEX
  8
0
 10
1.15679
 20
0.302083
 30
0.0
 40
0
 41
0
  0
VERTEX
  8
0
 10
1.17247
 20
0.310764
 30
0.0
 40
0
 41
0
  0
VERTEX
  8
0
 10
1.18115
 20
0.326443
 30
0.0
 40
0
 41
0
  0
VERTEX
  8
0
 10
1.18115
 20
0.331651
 30
0.0
 40
0
 41
0
  0
VERTEX
  8
0
 10
1.18115
 20
1.01042
 30
0.0
 40
0
 41
0
  0
VERTEX
  8
0
 10
1.18115
 20
1.01454
 30
0.0
 40
0
 41
0
  0
VERTEX
  8
0
 10
1.17258
 20
1.03157
 30
0.0
 40
0
 41
0
  0
VERTEX
  8
0
 10
1.15679
 20
1.04031
 30
0.0
 40
0
 41
0
  0
VERTEX
  8
0
 10
1.15158
 20
1.04031
 30
0.0
 40
0
 41
0
  0
VERTEX
  8
0
 10
0.324815
 20
1.04031
 30
0.0
 40
0
 41
0
  0
VERTEX
  8
0
 10
0.319553
 20
1.04031
 30
0.0
 40
0
 41
0
  0
VERTEX
  8
0
 10
0.303765
 20
1.03157
 30
0.0
 40
0
 41
0
  0
VERTEX
  8
0
 10
0.295247
 20
1.01454
 30
0.0
 40
0
 41
0
  0
VERTEX
  8
0
 10
0.295301
 20
1.01042
 30
0.0
 40
0
 41
0
  0
SEQEND
 8
0
  0
POLYLINE
  8
0
 62
     250
 66
     1
 10
0
 20
0
 30
0.0
 70
     1
 40
0
 41
0
  0
VERTEX
  8
0
 10
1.62386
 20
0.716797
 30
0.0
 40
0
 41
0
  0
VERTEX
  8
0
 10
1.62386
 20
0.333333
 30
0.0
 40
0
 41
0
  0
VERTEX
  8
0
 10
1.62386
 20
0.328125
 30
0.0
 40
0
 41
0
  0
VERTEX
  8
0
 10
1.63249
 20
0.312446
 30
0.0
 40
0
 41
0
  0
VERTEX
  8
0
 10
1.64817
 20
0.303765
 30
0.0
 40
0
 41
0
  0
VERTEX
  8
0
 10
1.65343
 20
0.303765
 30
0.0
 40
0
 41
0
  0
VERTEX
  8
0
 10
1.74197
 20
0.303765
 30
0.0
 40
0
 41
0
  0
VERTEX
  8
0
 10
1.74718
 20
0.303765
 30
0.0
 40
0
 41
0
  0
VERTEX
  8
0
 10
1.76286
 20
0.312446
 30
0.0
 40
0
 41
0
  0
VERTEX
  8
0
 10
1.77154
 20
0.328125
 30
0.0
 40
0
 41
0
  0
VERTEX
  8
0
 10
1.77154
 20
0.333333
 30
0.0
 40
0
 41
0
  0
VERTEX
  8
0
 10
1.77154
 20
0.569174
 30
0.0
 40
0
 41
0
  0
VERTEX
  8
0
 10
1.77154
 20
0.574382
 30
0.0
 40
0
 41
0
  0
VERTEX
  8
0
 10
1.78017
 20
0.590007
 30
0.0
 40
0
 41
0
  0
VERTEX
  8
0
 10
1.79579
 20
0.598633
 30
0.0
 40
0
 41
0
  0
VERTEX
  8
0
 10
1.80106
 20
0.598633
 30
0.0
 40
0
 41
0
  0
VERTEX
  8
0
 10
2.33231
 20
0.598633
 30
0.0
 40
0
 41
0
  0
VERTEX
  8
0
 10
2.33751
 20
0.598633
 30
0.0
 40
0
 41
0
  0
VERTEX
  8
0
 10
2.35314
 20
0.590007
 30
0.0
 40
0
 41
0
  0
VERTEX
  8
0
 10
2.36182
 20
0.573242
 30
0.0
 40
0
 41
0
  0
VERTEX
  8
0
 10
2.36187
 20
0.569174
 30
0.0
 40
0
 41
0
  0
VERTEX
  8
0
 10
2.36187
 20
0.480524
 30
0.0
 40
0
 41
0
  0
VERTEX
  8
0
 10
2.36182
 20
0.476454
 30
0.0
 40
0
 41
0
  0
VERTEX
  8
0
 10
2.35314
 20
0.45969
 30
0.0
 40
0
 41
0
  0
VERTEX
  8
0
 10
2.33751
 20
0.451064
 30
0.0
 40
0
 41
0
  0
VERTEX
  8
0
 10
2.33231
 20
0.451064
 30
0.0
 40
0
 41
0
  0
VERTEX
  8
0
 10
1.94862
 20
0.451064
 30
0.0
 40
0
 41
0
  0
VERTEX
  8
0
 10
1.94456
 20
0.451064
 30
0.0
 40
0
 41
0
  0
VERTEX
  8
0
 10
1.92779
 20
0.442383
 30
0.0
 40
0
 41
0
  0
VERTEX
  8
0
 10
1.91917
 20
0.426704
 30
0.0
 40
0
 41
0
  0
VERTEX
  8
0
 10
1.91917
 20
0.421442
 30
0.0
 40
0
 41
0
  0
VERTEX
  8
0
 10
1.91917
 20
0.333333
 30
0.0
 40
0
 41
0
  0
VERTEX
  8
0
 10
1.91917
 20
0.328125
 30
0.0
 40
0
 41
0
  0
VERTEX
  8
0
 10
1.92779
 20
0.3125
 30
0.0
 40
0
 41
0
  0
VERTEX
  8
0
 10
1.94456
 20
0.303819
 30
0.0
 40
0
 41
0
  0
VERTEX
  8
0
 10
1.94862
 20
0.303765
 30
0.0
 40
0
 41
0
  0
VERTEX
  8
0
 10
2.47987
 20
0.303765
 30
0.0
 40
0
 41
0
  0
VERTEX
  8
0
 10
2.48394
 20
0.303765
 30
0.0
 40
0
 41
0
  0
VERTEX
  8
0
 10
2.50092
 20
0.312392
 30
0.0
 40
0
 41
0
  0
VERTEX
  8
0
 10
2.50971
 20
0.328125
 30
0.0
 40
0
 41
0
  0
VERTEX
  8
0
 10
2.50971
 20
0.333333
 30
0.0
 40
0
 41
0
  0
VERTEX
  8
0
 10
2.50971
 20
0.716797
 30
0.0
 40
0
 41
0
  0
VERTEX
  8
0
 10
2.50971
 20
0.722006
 30
0.0
 40
0
 41
0
  0
VERTEX
  8
0
 10
2.50103
 20
0.737631
 30
0.0
 40
0
 41
0
  0
VERTEX
  8
0
 10
2.4854
 20
0.746257
 30
0.0
 40
0
 41
0
  0
VERTEX
  8
0
 10
2.48019
 20
0.746257
 30
0.0
 40
0
 41
0
  0
VERTEX
  8
0
 10
1.65343
 20
0.746257
 30
0.0
 40
0
 41
0
  0
VERTEX
  8
0
 10
1.64931
 20
0.746311
 30
0.0
 40
0
 41
0
  0
VERTEX
  8
0
 10
1.63249
 20
0.737685
 30
0.0
 40
0
 41
0
  0
VERTEX
  8
0
 10
1.62386
 20
0.72206
 30
0.0
 40
0
 41
0
  0
VERTEX
  8
0
 10
1.62386
 20
0.716797
 30
0.0
 40
0
 41
0
  0
SEQEND
 8
0
  0
POLYLINE
  8
0
 62
     250
 66
     1
 10
0
 20
0
 30
0.0
 70
     1
 40
0
 41
0
  0
VERTEX
  8
0
 10
3.12978
 20
0.449815
 30
0.0
 40
0
 41
0
  0
VERTEX
  8
0
 10
3.12457
 20
0.449815
 30
0.0
 40
0
 41
0
  0
VERTEX
  8
0
 10
3.10894
 20
0.458442
 30
0.0
 40
0
 41
0
  0
VERTEX
  8
0
 10
3.10032
 20
0.475151
 30
0.0
 40
0
 41
0
  0
VERTEX
  8
0
 10
3.10032
 20
0.479167
 30
0.0
 40
0
 41
0
  0
VERTEX
  8
0
 10
3.10032
 20
0.569174
 30
0.0
 40
0
 41
0
  0
VERTEX
  8
0
 10
3.10032
 20
0.574382
 30
0.0
 40
0
 41
0
  0
VERTEX
  8
0
 10
3.10894
 20
0.590007
 30
0.0
 40
0
 41
0
  0
VERTEX
  8
0
 10
3.12457
 20
0.598633
 30
0.0
 40
0
 41
0
  0
VERTEX
  8
0
 10
3.12978
 20
0.598633
 30
0.0
 40
0
 41
0
  0
VERTEX
  8
0
 10
3.36604
 20
0.598633
 30
0.0
 40
0
 41
0
  0
VERTEX
  8
0
 10
3.37011
 20
0.598633
 30
0.0
 40
0
 41
0
  0
VERTEX
  8
0
 10
3.3871
 20
0.60726
 30
0.0
 40
0
 41
0
  0
VERTEX
  8
0
 10
3.39583
 20
0.623047
 30
0.0
 40
0
 41
0
  0
VERTEX
  8
0
 10
3.39583
 20
0.628256
 30
0.0
 40
0
 41
0
  0
VERTEX
  8
0
 10
3.39583
 20
0.716797
 30
0.0
 40
0
 41
0
  0
VERTEX
  8
0
 10
3.39583
 20
0.722006
 30
0.0
 40
0
 41
0
  0
VERTEX
  8
0
 10
3.38721
 20
0.737631
 30
0.0
 40
0
 41
0
  0
VERTEX
  8
0
 10
3.37158
 20
0.746257
 30
0.0
 40
0
 41
0
  0
VERTEX
  8
0
 10
3.36637
 20
0.746257
 30
0.0
 40
0
 41
0
  0
VERTEX
  8
0
 10
2.98221
 20
0.746257
 30
0.0
 40
0
 41
0
  0
VERTEX
  8
0
 10
2.97808
 20
0.746311
 30
0.0
 40
0
 41
0
  0
VERTEX
  8
0
 10
2.96126
 20
0.737685
 30
0.0
 40
0
 41
0
  0
VERTEX
  8
0
 10
2.95258
 20
0.72206
 30
0.0
 40
0
 41
0
  0
VERTEX
  8
0
 10
2.95258
 20
0.716797
 30
0.0
 40
0
 41
0
  0
VERTEX
  8
0
 10
2.95258
 20
0.331381
 30
0.0
 40
0
 41
0
  0
VERTEX
  8
0
 10
2.95264
 20
0.327365
 30
0.0
 40
0
 41
0
  0
VERTEX
  8
0
 10
2.96137
 20
0.310656
 30
0.0
 40
0
 41
0
  0
VERTEX
  8
0
 10
2.977
 20
0.302083
 30
0.0
 40
0
 41
0
  0
VERTEX
  8
0
 10
2.98221
 20
0.302083
 30
0.0
 40
0
 41
0
  0
VERTEX
  8
0
 10
3.36604
 20
0.302083
 30
0.0
 40
0
 41
0
  0
VERTEX
  8
0
 10
3.37011
 20
0.302083
 30
0.0
 40
0
 41
0
  0
VERTEX
  8
0
 10
3.3871
 20
0.31071
 30
0.0
 40
0
 41
0
  0
VERTEX
  8
0
 10
3.39583
 20
0.326443
 30
0.0
 40
0
 41
0
  0
VERTEX
  8
0
 10
3.39583
 20
0.331651
 30
0.0
 40
0
 41
0
  0
VERTEX
  8
0
 10
3.39583
 20
0.420193
 30
0.0
 40
0
 41
0
  0
VERTEX
  8
0
 10
3.39583
 20
0.425456
 30
0.0
 40
0
 41
0
  0
VERTEX
  8
0
 10
3.38721
 20
0.441135
 30
0.0
 40
0
 41
0
  0
VERTEX
  8
0
 10
3.37044
 20
0.449815
 30
0.0
 40
0
 41
0
  0
VERTEX
  8
0
 10
3.36637
 20
0.449815
 30
0.0
 40
0
 41
0
  0
VERTEX
  8
0
 10
3.12978
 20
0.449815
 30
0.0
 40
0
 41
0
  0
SEQEND
 8
0
  0
POLYLINE
  8
0
 62
     250
 66
     1
 10
0
 20
0
 30
0.0
 70
     1
 40
0
 41
0
  0
VERTEX
  8
0
 10
4.87196
 20
1.01042
 30
0.0
 40
0
 41
0
  0
VERTEX
  8
0
 10
4.87196
 20
0.921875
 30
0.0
 40
0
 41
0
  0
VERTEX
  8
0
 10
4.87196
 20
0.916667
 30
0.0
 40
0
 41
0
  0
VERTEX
  8
0
 10
4.88058
 20
0.901042
 30
0.0
 40
0
 41
0
  0
VERTEX
  8
0
 10
4.89621
 20
0.892415
 30
0.0
 40
0
 41
0
  0
VERTEX
  8
0
 10
4.90147
 20
0.892415
 30
0.0
 40
0
 41
0
  0
VERTEX
  8
0
 10
5.13769
 20
0.892415
 30
0.0
 40
0
 41
0
  0
VERTEX
  8
0
 10
5.14176
 20
0.892415
 30
0.0
 40
0
 41
0
  0
VERTEX
  8
0
 10
5.15853
 20
0.883735
 30
0.0
 40
0
 41
0
  0
VERTEX
  8
0
 10
5.16721
 20
0.868056
 30
0.0
 40
0
 41
0
  0
VERTEX
  8
0
 10
5.16721
 20
0.862793
 30
0.0
 40
0
 41
0
  0
VERTEX
  8
0
 10
5.16721
 20
0.479167
 30
0.0
 40
0
 41
0
  0
VERTEX
  8
0
 10
5.16721
 20
0.473958
 30
0.0
 40
0
 41
0
  0
VERTEX
  8
0
 10
5.15853
 20
0.458333
 30
0.0
 40
0
 41
0
  0
VERTEX
  8
0
 10
5.1429
 20
0.449707
 30
0.0
 40
0
 41
0
  0
VERTEX
  8
0
 10
5.13769
 20
0.449707
 30
0.0
 40
0
 41
0
  0
VERTEX
  8
0
 10
5.04904
 20
0.449707
 30
0.0
 40
0
 41
0
  0
VERTEX
  8
0
 10
5.04383
 20
0.449707
 30
0.0
 40
0
 41
0
  0
VERTEX
  8
0
 10
5.02821
 20
0.458333
 30
0.0
 40
0
 41
0
  0
VERTEX
  8
0
 10
5.01958
 20
0.473958
 30
0.0
 40
0
 41
0
  0
VERTEX
  8
0
 10
5.01958
 20
0.479167
 30
0.0
 40
0
 41
0
  0
VERTEX
  8
0
 10
5.01958
 20
0.715494
 30
0.0
 40
0
 41
0
  0
VERTEX
  8
0
 10
5.01953
 20
0.719618
 30
0.0
 40
0
 41
0
  0
VERTEX
  8
0
 10
5.01069
 20
0.736546
 30
0.0
 40
0
 41
0
  0
VERTEX
  8
0
 10
4.99365
 20
0.745063
 30
0.0
 40
0
 41
0
  0
VERTEX
  8
0
 10
4.98958
 20
0.745008
 30
0.0
 40
0
 41
0
  0
VERTEX
  8
0
 10
4.90104
 20
0.745008
 30
0.0
 40
0
 41
0
  0
VERTEX
  8
0
 10
4.89583
 20
0.745008
 30
0.0
 40
0
 41
0
  0
VERTEX
  8
0
 10
4.88021
 20
0.736382
 30
0.0
 40
0
 41
0
  0
VERTEX
  8
0
 10
4.87158
 20
0.720757
 30
0.0
 40
0
 41
0
  0
VERTEX
  8
0
 10
4.87158
 20
0.715494
 30
0.0
 40
0
 41
0
  0
VERTEX
  8
0
 10
4.87158
 20
0.331651
 30
0.0
 40
0
 41
0
  0
VERTEX
  8
0
 10
4.87153
 20
0.327528
 30
0.0
 40
0
 41
0
  0
VERTEX
  8
0
 10
4.88032
 20
0.310601
 30
0.0
 40
0
 41
0
  0
VERTEX
  8
0
 10
4.89735
 20
0.302029
 30
0.0
 40
0
 41
0
  0
VERTEX
  8
0
 10
4.90147
 20
0.302083
 30
0.0
 40
0
 41
0
  0
VERTEX
  8
0
 10
5.28532
 20
0.302083
 30
0.0
 40
0
 41
0
  0
VERTEX
  8
0
 10
5.29053
 20
0.302083
 30
0.0
 40
0
 41
0
  0
VERTEX
  8
0
 10
5.30615
 20
0.310764
 30
0.0
 40
0
 41
0
  0
VERTEX
  8
0
 10
5.31478
 20
0.327582
 30
0.0
 40
0
 41
0
  0
VERTEX
  8
0
 10
5.31478
 20
0.331651
 30
0.0
 40
0
 41
0
  0
VERTEX
  8
0
 10
5.31478
 20
1.01042
 30
0.0
 40
0
 41
0
  0
VERTEX
  8
0
 10
5.31483
 20
1.01454
 30
0.0
 40
0
 41
0
  0
VERTEX
  8
0
 10
5.30632
 20
1.03157
 30
0.0
 40
0
 41
0
  0
VERTEX
  8
0
 10
5.29053
 20
1.04031
 30
0.0
 40
0
 41
0
  0
VERTEX
  8
0
 10
5.28532
 20
1.04031
 30
0.0
 40
0
 41
0
  0
VERTEX
  8
0
 10
4.90147
 20
1.04031
 30
0.0
 40
0
 41
0
  0
VERTEX
  8
0
 10
4.89621
 20
1.04031
 30
0.0
 40
0
 41
0
  0
VERTEX
  8
0
 10
4.88043
 20
1.03157
 30
0.0
 40
0
 41
0
  0
VERTEX
  8
0
 10
4.8719
 20
1.01454
 30
0.0
 40
0
 41
0
  0
VERTEX
  8
0
 10
4.87196
 20
1.01042
 30
0.0
 40
0
 41
0
  0
SEQEND
 8
0
  0
ENDSEC
  0
EOF
