%TF.GenerationSoftware,KiCad,Pcbnew,(5.1.9)-1*%
%TF.CreationDate,2021-02-08T17:33:52+01:00*%
%TF.ProjectId,P.01_ANSI,502e3031-5f41-44e5-9349-2e6b69636164,rev?*%
%TF.SameCoordinates,Original*%
%TF.FileFunction,Soldermask,Top*%
%TF.FilePolarity,Negative*%
%FSLAX46Y46*%
G04 Gerber Fmt 4.6, Leading zero omitted, Abs format (unit mm)*
G04 Created by KiCad (PCBNEW (5.1.9)-1) date 2021-02-08 17:33:52*
%MOMM*%
%LPD*%
G01*
G04 APERTURE LIST*
%ADD10C,1.000000*%
%ADD11C,2.500000*%
G04 APERTURE END LIST*
D10*
X104198699Y-132003802D02*
G75*
G02*
X103198699Y-133003802I-1000000J0D01*
G01*
X104198699Y-132003802D02*
X104198700Y-120003802D01*
X91198699Y-133003801D02*
X103198699Y-133003802D01*
X103198700Y-119003802D02*
X91198700Y-119003801D01*
X90198700Y-120003801D02*
X90198699Y-132003801D01*
X103198700Y-119003802D02*
G75*
G02*
X104198700Y-120003802I0J-1000000D01*
G01*
X91198699Y-133003801D02*
G75*
G02*
X90198699Y-132003801I0J1000000D01*
G01*
X90198700Y-120003801D02*
G75*
G02*
X91198700Y-119003801I1000000J0D01*
G01*
X66098699Y-132003800D02*
G75*
G02*
X65098699Y-133003800I-1000000J0D01*
G01*
X229311200Y-94903805D02*
X241311200Y-94903805D01*
X161636201Y-74853803D02*
X161636201Y-62853803D01*
X175636201Y-74853804D02*
G75*
G02*
X174636201Y-75853804I-1000000J0D01*
G01*
X266417950Y-100953806D02*
G75*
G02*
X267417950Y-101953806I0J-1000000D01*
G01*
X175636201Y-62853804D02*
X175636201Y-74853804D01*
X162636201Y-75853803D02*
G75*
G02*
X161636201Y-74853803I0J1000000D01*
G01*
X53098699Y-133003800D02*
G75*
G02*
X52098699Y-132003800I0J1000000D01*
G01*
X266417950Y-115953806D02*
X261417950Y-115953806D01*
X53098699Y-133003800D02*
X65098699Y-133003800D01*
X236541950Y-114953805D02*
X236541950Y-101953805D01*
X241311201Y-80903805D02*
G75*
G02*
X242311201Y-81903805I0J-1000000D01*
G01*
X65098700Y-119003800D02*
X53098700Y-119003800D01*
X237541950Y-100953805D02*
X244247899Y-100953805D01*
X242311200Y-93903805D02*
X242311201Y-81903805D01*
X136536199Y-138053802D02*
X112629949Y-138053802D01*
X242311200Y-93903805D02*
G75*
G02*
X241311200Y-94903805I-1000000J0D01*
G01*
X174636201Y-61853804D02*
G75*
G02*
X175636201Y-62853804I0J-1000000D01*
G01*
X123248699Y-132003802D02*
X123248700Y-120003802D01*
X259712001Y-100953806D02*
X266417950Y-100953806D01*
X136536200Y-138053802D02*
G75*
G02*
X137536199Y-139053803I-1J-1000000D01*
G01*
X137536199Y-151053803D02*
X137536199Y-139053803D01*
X137536199Y-151053802D02*
G75*
G02*
X136536199Y-152053802I-1000000J0D01*
G01*
X65098701Y-119003800D02*
G75*
G02*
X66098700Y-120003801I-1J-1000000D01*
G01*
X110248699Y-133003802D02*
G75*
G02*
X109248699Y-132003802I0J1000000D01*
G01*
X112629949Y-152053802D02*
X136536199Y-152053802D01*
X112629949Y-152053802D02*
G75*
G02*
X111629949Y-151053802I0J1000000D01*
G01*
X259712001Y-100953806D02*
G75*
G02*
X258845976Y-100453806I0J1000000D01*
G01*
X111629949Y-139053802D02*
X111629949Y-151053802D01*
X245113925Y-100453806D02*
G75*
G02*
X245979950Y-99953806I866025J-500000D01*
G01*
X259417950Y-113953806D02*
X244541950Y-113953806D01*
X259417950Y-113953806D02*
G75*
G02*
X260417950Y-114953806I0J-1000000D01*
G01*
X261417950Y-115953806D02*
G75*
G02*
X260417950Y-114953806I0J1000000D01*
G01*
X267417950Y-114953806D02*
G75*
G02*
X266417950Y-115953806I-1000000J0D01*
G01*
X245979950Y-99953806D02*
X257979950Y-99953806D01*
X257979950Y-99953805D02*
G75*
G02*
X258845976Y-100453806I0J-1000001D01*
G01*
X245113924Y-100453805D02*
G75*
G02*
X244247899Y-100953805I-866025J500000D01*
G01*
X237541950Y-115953805D02*
G75*
G02*
X236541950Y-114953805I0J1000000D01*
G01*
X228311201Y-81903805D02*
G75*
G02*
X229311201Y-80903805I1000000J0D01*
G01*
X110248699Y-133003802D02*
X122248699Y-133003802D01*
X52098700Y-120003800D02*
X52098699Y-132003800D01*
X111629949Y-139053802D02*
G75*
G02*
X112629949Y-138053802I1000000J0D01*
G01*
X160348699Y-133003803D02*
X148348699Y-133003803D01*
X161636201Y-62853803D02*
G75*
G02*
X162636201Y-61853803I1000000J0D01*
G01*
X161348699Y-132003803D02*
G75*
G02*
X160348699Y-133003803I-1000000J0D01*
G01*
X174636201Y-75853804D02*
X162636201Y-75853803D01*
X236541950Y-101953805D02*
G75*
G02*
X237541950Y-100953805I1000000J0D01*
G01*
X147348700Y-120003803D02*
G75*
G02*
X148348700Y-119003803I1000000J0D01*
G01*
X147348699Y-132003803D02*
X147348700Y-120003803D01*
X162636201Y-61853803D02*
X174636201Y-61853804D01*
X123248699Y-132003802D02*
G75*
G02*
X122248699Y-133003802I-1000000J0D01*
G01*
X229311200Y-94903805D02*
G75*
G02*
X228311200Y-93903805I0J1000000D01*
G01*
X267417950Y-101953806D02*
X267417950Y-114953806D01*
X241311201Y-80903805D02*
X229311201Y-80903805D01*
X160348700Y-119003803D02*
G75*
G02*
X161348700Y-120003803I0J-1000000D01*
G01*
X148348699Y-133003803D02*
G75*
G02*
X147348699Y-132003803I0J1000000D01*
G01*
X228311201Y-81903805D02*
X228311200Y-93903805D01*
X52098700Y-120003800D02*
G75*
G02*
X53098700Y-119003800I1000000J0D01*
G01*
X242541950Y-115953805D02*
X237541950Y-115953805D01*
X243541950Y-114953806D02*
G75*
G02*
X244541950Y-113953806I1000000J0D01*
G01*
X66098699Y-132003801D02*
X66098700Y-120003801D01*
X243541950Y-114953805D02*
G75*
G02*
X242541950Y-115953805I-1000000J0D01*
G01*
X161348700Y-120003803D02*
X161348699Y-132003803D01*
X148348700Y-119003803D02*
X160348700Y-119003803D01*
X23236201Y-62853799D02*
X23236201Y-74853799D01*
X231779450Y-121003805D02*
X231779449Y-134003805D01*
X254949500Y-120003806D02*
G75*
G02*
X254083475Y-119503806I0J1000000D01*
G01*
X23236201Y-74853799D02*
G75*
G02*
X22236201Y-75853799I-1000000J0D01*
G01*
X22236201Y-75853799D02*
X10236201Y-75853799D01*
X109248700Y-120003802D02*
X109248699Y-132003802D01*
X200736202Y-38041304D02*
X212736202Y-38041305D01*
X261655450Y-120003806D02*
G75*
G02*
X262655450Y-121003806I0J-1000000D01*
G01*
X109248700Y-120003802D02*
G75*
G02*
X110248700Y-119003802I1000000J0D01*
G01*
X42573700Y-100953800D02*
G75*
G02*
X43573700Y-99953800I1000000J0D01*
G01*
X66129948Y-151053801D02*
G75*
G02*
X65129949Y-150053800I1J1000000D01*
G01*
X213736202Y-39041305D02*
X213736202Y-51041305D01*
X43573700Y-113953800D02*
X55573700Y-113953800D01*
X42573700Y-100953800D02*
X42573700Y-112953800D01*
X55573700Y-99953800D02*
X43573700Y-99953800D01*
X262655449Y-134003806D02*
X262655450Y-121003806D01*
X9236201Y-74853799D02*
X9236201Y-62853799D01*
X253217450Y-119003806D02*
X241217450Y-119003805D01*
X253217450Y-119003806D02*
G75*
G02*
X254083475Y-119503806I0J-1000000D01*
G01*
X122248700Y-119003802D02*
X110248700Y-119003802D01*
X262655449Y-134003806D02*
G75*
G02*
X261655449Y-135003806I-1000000J0D01*
G01*
X122248700Y-119003802D02*
G75*
G02*
X123248700Y-120003802I0J-1000000D01*
G01*
X200736202Y-52041304D02*
G75*
G02*
X199736202Y-51041304I0J1000000D01*
G01*
X238779449Y-134003805D02*
G75*
G02*
X237779449Y-135003805I-1000000J0D01*
G01*
X171161202Y-39041303D02*
G75*
G02*
X172161202Y-38041303I1000000J0D01*
G01*
X212736202Y-52041305D02*
X200736202Y-52041304D01*
X213736202Y-51041305D02*
G75*
G02*
X212736202Y-52041305I-1000000J0D01*
G01*
X212736202Y-38041305D02*
G75*
G02*
X213736202Y-39041305I0J-1000000D01*
G01*
X55573700Y-99953800D02*
G75*
G02*
X56573700Y-100953800I0J-1000000D01*
G01*
X76886199Y-150053801D02*
G75*
G02*
X75886199Y-151053801I-1000000J0D01*
G01*
X9236201Y-62853799D02*
G75*
G02*
X10236201Y-61853799I1000000J0D01*
G01*
X56573700Y-112953800D02*
X56573700Y-100953800D01*
X172161202Y-38041303D02*
X184161202Y-38041304D01*
X184161202Y-52041304D02*
X172161202Y-52041303D01*
X239779449Y-133003805D02*
X254655449Y-133003806D01*
X256655449Y-135003806D02*
G75*
G02*
X255655449Y-134003806I0J1000000D01*
G01*
X22236201Y-61853799D02*
G75*
G02*
X23236201Y-62853799I0J-1000000D01*
G01*
X254655449Y-133003806D02*
G75*
G02*
X255655449Y-134003806I0J-1000000D01*
G01*
X10236201Y-75853799D02*
G75*
G02*
X9236201Y-74853799I0J1000000D01*
G01*
X199736202Y-39041304D02*
G75*
G02*
X200736202Y-38041304I1000000J0D01*
G01*
X256655449Y-135003806D02*
X261655449Y-135003806D01*
X199736202Y-51041304D02*
X199736202Y-39041304D01*
X261655450Y-120003806D02*
X254949500Y-120003806D01*
X75886199Y-136053801D02*
G75*
G02*
X76886199Y-137053801I0J-1000000D01*
G01*
X231779450Y-121003805D02*
G75*
G02*
X232779450Y-120003805I1000000J0D01*
G01*
X56573700Y-112953800D02*
G75*
G02*
X55573700Y-113953800I-1000000J0D01*
G01*
X185161202Y-51041304D02*
G75*
G02*
X184161202Y-52041304I-1000000J0D01*
G01*
X185161202Y-39041304D02*
X185161202Y-51041304D01*
X171161202Y-51041303D02*
X171161202Y-39041303D01*
X238779449Y-134003805D02*
G75*
G02*
X239779449Y-133003805I1000000J0D01*
G01*
X43573700Y-113953800D02*
G75*
G02*
X42573700Y-112953800I0J1000000D01*
G01*
X66129949Y-151053801D02*
X75886199Y-151053801D01*
X184161202Y-38041304D02*
G75*
G02*
X185161202Y-39041304I0J-1000000D01*
G01*
X172161202Y-52041303D02*
G75*
G02*
X171161202Y-51041303I0J1000000D01*
G01*
X75886199Y-136053801D02*
X66129949Y-136053801D01*
X76886199Y-150053801D02*
X76886199Y-137053801D01*
X10236201Y-61853799D02*
X22236201Y-61853799D01*
X232779449Y-135003805D02*
X237779449Y-135003805D01*
X65129949Y-137053800D02*
X65129949Y-150053800D01*
X239485399Y-120003805D02*
X232779450Y-120003805D01*
X240351424Y-119503805D02*
G75*
G02*
X239485399Y-120003805I-866025J500000D01*
G01*
X65129949Y-137053801D02*
G75*
G02*
X66129949Y-136053801I1000000J0D01*
G01*
X240351425Y-119503805D02*
G75*
G02*
X241217450Y-119003805I866025J-500000D01*
G01*
X232779449Y-135003805D02*
G75*
G02*
X231779449Y-134003805I0J1000000D01*
G01*
X8948700Y-93903799D02*
X8948701Y-81903799D01*
X7948701Y-80903799D02*
X-4051299Y-80903799D01*
X23530449Y-135003799D02*
X18530449Y-135003799D01*
X-7432550Y-100953798D02*
G75*
G02*
X-6432550Y-99953798I1000000J0D01*
G01*
X3186202Y-38041299D02*
G75*
G02*
X4186202Y-39041299I0J-1000000D01*
G01*
X-5345552Y-135003799D02*
G75*
G02*
X-6345551Y-134003798I1J1000000D01*
G01*
X2226425Y-119503799D02*
G75*
G02*
X3092450Y-119003799I866025J-500000D01*
G01*
X56573699Y-151053800D02*
G75*
G02*
X55573699Y-152053800I-1000000J0D01*
G01*
X-8813798Y-52041298D02*
X3186202Y-52041299D01*
X-8813799Y-61853798D02*
X3186201Y-61853799D01*
X-9813799Y-62853798D02*
G75*
G02*
X-8813799Y-61853798I1000000J0D01*
G01*
X-6345551Y-134003798D02*
X-6345550Y-121003798D01*
X23530450Y-120003799D02*
G75*
G02*
X24530450Y-121003799I0J-1000000D01*
G01*
X2226424Y-119503799D02*
G75*
G02*
X1360399Y-120003799I-866025J500000D01*
G01*
X654449Y-134003799D02*
G75*
G02*
X-345551Y-135003799I-1000000J0D01*
G01*
X-5345550Y-120003799D02*
X1360399Y-120003799D01*
X41192449Y-152053800D02*
G75*
G02*
X40192449Y-151053800I0J1000000D01*
G01*
X-345551Y-135003799D02*
X-5345551Y-135003799D01*
X16824500Y-120003799D02*
X23530450Y-120003799D01*
X16530449Y-133003799D02*
G75*
G02*
X17530449Y-134003799I0J-1000000D01*
G01*
X40192449Y-151053800D02*
X40192449Y-139053800D01*
X-6432550Y-113953798D02*
X10329950Y-113953799D01*
X18530449Y-135003799D02*
G75*
G02*
X17530449Y-134003799I0J1000000D01*
G01*
X7948701Y-80903799D02*
G75*
G02*
X8948701Y-81903799I0J-1000000D01*
G01*
X8948700Y-93903799D02*
G75*
G02*
X7948700Y-94903799I-1000000J0D01*
G01*
X-6345550Y-121003799D02*
G75*
G02*
X-5345550Y-120003799I1000000J0D01*
G01*
X-4051300Y-94903799D02*
X7948700Y-94903799D01*
X-5051299Y-81903799D02*
X-5051300Y-93903799D01*
X-5051299Y-81903799D02*
G75*
G02*
X-4051299Y-80903799I1000000J0D01*
G01*
X24530450Y-121003799D02*
X24530449Y-134003799D01*
X16824500Y-120003799D02*
G75*
G02*
X15958475Y-119503799I0J1000000D01*
G01*
X3186201Y-75853799D02*
X-8813799Y-75853798D01*
X-9813798Y-39041298D02*
X-9813798Y-51041298D01*
X-8813798Y-52041298D02*
G75*
G02*
X-9813798Y-51041298I0J1000000D01*
G01*
X-4051300Y-94903799D02*
G75*
G02*
X-5051300Y-93903799I0J1000000D01*
G01*
X4186202Y-51041299D02*
X4186202Y-39041299D01*
X4186202Y-51041299D02*
G75*
G02*
X3186202Y-52041299I-1000000J0D01*
G01*
X3186201Y-61853799D02*
G75*
G02*
X4186201Y-62853799I0J-1000000D01*
G01*
X15092450Y-119003799D02*
G75*
G02*
X15958475Y-119503799I0J-1000000D01*
G01*
X24530449Y-134003799D02*
G75*
G02*
X23530449Y-135003799I-1000000J0D01*
G01*
X-9813798Y-39041298D02*
G75*
G02*
X-8813798Y-38041298I1000000J0D01*
G01*
X3186202Y-38041299D02*
X-8813798Y-38041298D01*
X3092450Y-119003799D02*
X15092450Y-119003799D01*
X55573699Y-152053800D02*
X41192449Y-152053800D01*
X-9813799Y-74853798D02*
X-9813799Y-62853798D01*
X654449Y-134003799D02*
G75*
G02*
X1654449Y-133003799I1000000J0D01*
G01*
X16530449Y-133003799D02*
X1654449Y-133003799D01*
X4186201Y-62853799D02*
X4186201Y-74853799D01*
X-8813799Y-75853798D02*
G75*
G02*
X-9813799Y-74853798I0J1000000D01*
G01*
X32761199Y-151053800D02*
G75*
G02*
X31761199Y-152053800I-1000000J0D01*
G01*
X-6432550Y-113953798D02*
G75*
G02*
X-7432550Y-112953798I0J1000000D01*
G01*
X31761199Y-138053800D02*
G75*
G02*
X32761199Y-139053800I0J-1000000D01*
G01*
X17379949Y-152053799D02*
G75*
G02*
X16379949Y-151053799I0J1000000D01*
G01*
X31761199Y-152053800D02*
X17379949Y-152053799D01*
X32761199Y-139053800D02*
X32761199Y-151053800D01*
X10329950Y-99953799D02*
G75*
G02*
X11329950Y-100953799I0J-1000000D01*
G01*
X17379949Y-138053799D02*
X31761199Y-138053800D01*
X16379949Y-139053799D02*
G75*
G02*
X17379949Y-138053799I1000000J0D01*
G01*
X16379949Y-151053799D02*
X16379949Y-139053799D01*
X10329950Y-99953799D02*
X-6432550Y-99953798D01*
X11329950Y-112953799D02*
X11329950Y-100953799D01*
X11329950Y-112953799D02*
G75*
G02*
X10329950Y-113953799I-1000000J0D01*
G01*
X4186201Y-74853799D02*
G75*
G02*
X3186201Y-75853799I-1000000J0D01*
G01*
X-7432550Y-100953798D02*
X-7432550Y-112953798D01*
X229311199Y-152053805D02*
G75*
G02*
X228311199Y-151053805I0J1000000D01*
G01*
X294698700Y-93903807D02*
G75*
G02*
X293698700Y-94903807I-1000000J0D01*
G01*
X280698701Y-81903807D02*
G75*
G02*
X281698701Y-80903807I1000000J0D01*
G01*
X313748700Y-93903807D02*
G75*
G02*
X312748700Y-94903807I-1000000J0D01*
G01*
X300748700Y-94903807D02*
X312748700Y-94903807D01*
X280698701Y-81903807D02*
X280698700Y-93903807D01*
X312748699Y-138053807D02*
X300748699Y-138053807D01*
X55573699Y-138053800D02*
G75*
G02*
X56573699Y-139053800I0J-1000000D01*
G01*
X40192449Y-139053800D02*
G75*
G02*
X41192449Y-138053800I1000000J0D01*
G01*
X293698701Y-61853807D02*
X281698701Y-61853807D01*
X294698701Y-74853807D02*
X294698701Y-62853807D01*
X219879949Y-138053805D02*
G75*
G02*
X220879949Y-139053805I0J-1000000D01*
G01*
X300748702Y-52041307D02*
G75*
G02*
X299748702Y-51041307I0J1000000D01*
G01*
X313748699Y-151053807D02*
G75*
G02*
X312748699Y-152053807I-1000000J0D01*
G01*
X300748700Y-94903807D02*
G75*
G02*
X299748700Y-93903807I0J1000000D01*
G01*
X312748701Y-80903807D02*
G75*
G02*
X313748701Y-81903807I0J-1000000D01*
G01*
X313748700Y-93903807D02*
X313748701Y-81903807D01*
X293698701Y-80903807D02*
G75*
G02*
X294698701Y-81903807I0J-1000000D01*
G01*
X313748702Y-51041307D02*
X313748702Y-39041307D01*
X228311199Y-139053805D02*
G75*
G02*
X229311199Y-138053805I1000000J0D01*
G01*
X244692449Y-139053806D02*
X244692449Y-151053806D01*
X220879949Y-151053805D02*
G75*
G02*
X219879949Y-152053805I-1000000J0D01*
G01*
X299748702Y-39041307D02*
X299748702Y-51041307D01*
X56573699Y-139053800D02*
X56573699Y-151053800D01*
X294698700Y-93903807D02*
X294698701Y-81903807D01*
X312748702Y-38041307D02*
G75*
G02*
X313748702Y-39041307I0J-1000000D01*
G01*
X243692449Y-152053805D02*
X229311199Y-152053805D01*
X300748699Y-152053807D02*
X312748699Y-152053807D01*
X219879949Y-152053805D02*
X205498699Y-152053804D01*
X41192449Y-138053800D02*
X55573699Y-138053800D01*
X280698701Y-62853807D02*
G75*
G02*
X281698701Y-61853807I1000000J0D01*
G01*
X293698701Y-61853807D02*
G75*
G02*
X294698701Y-62853807I0J-1000000D01*
G01*
X294698701Y-74853807D02*
G75*
G02*
X293698701Y-75853807I-1000000J0D01*
G01*
X299748702Y-39041307D02*
G75*
G02*
X300748702Y-38041307I1000000J0D01*
G01*
X281698701Y-75853807D02*
X293698701Y-75853807D01*
X228311199Y-151053805D02*
X228311199Y-139053805D01*
X220879949Y-139053805D02*
X220879949Y-151053805D01*
X312748699Y-138053807D02*
G75*
G02*
X313748699Y-139053807I0J-1000000D01*
G01*
X280698701Y-62853807D02*
X280698701Y-74853807D01*
X313748699Y-151053807D02*
X313748699Y-139053807D01*
X244692449Y-151053805D02*
G75*
G02*
X243692449Y-152053805I-1000000J0D01*
G01*
X300748699Y-152053807D02*
G75*
G02*
X299748699Y-151053807I0J1000000D01*
G01*
X299748699Y-139053807D02*
X299748699Y-151053807D01*
X299748699Y-139053807D02*
G75*
G02*
X300748699Y-138053807I1000000J0D01*
G01*
X312748702Y-38041307D02*
X300748702Y-38041307D01*
X312748701Y-80903807D02*
X300748701Y-80903807D01*
X299748701Y-81903807D02*
X299748700Y-93903807D01*
X229311199Y-138053805D02*
X243692449Y-138053805D01*
X205498699Y-152053804D02*
G75*
G02*
X204498699Y-151053804I0J1000000D01*
G01*
X204498699Y-139053804D02*
G75*
G02*
X205498699Y-138053804I1000000J0D01*
G01*
X313748702Y-51041307D02*
G75*
G02*
X312748702Y-52041307I-1000000J0D01*
G01*
X293698701Y-80903807D02*
X281698701Y-80903807D01*
X299748701Y-81903807D02*
G75*
G02*
X300748701Y-80903807I1000000J0D01*
G01*
X243692450Y-138053805D02*
G75*
G02*
X244692449Y-139053806I-1J-1000000D01*
G01*
X281698700Y-94903807D02*
X293698700Y-94903807D01*
X281698700Y-94903807D02*
G75*
G02*
X280698700Y-93903807I0J1000000D01*
G01*
X300748702Y-52041307D02*
X312748702Y-52041307D01*
X204498699Y-151053804D02*
X204498699Y-139053804D01*
X205498699Y-138053804D02*
X219879949Y-138053805D01*
X281698701Y-75853807D02*
G75*
G02*
X280698701Y-74853807I0J1000000D01*
G01*
X318798701Y-81903808D02*
G75*
G02*
X319798701Y-80903808I1000000J0D01*
G01*
X331798699Y-152053808D02*
X319798699Y-152053808D01*
X294698699Y-151053807D02*
X294698699Y-139053807D01*
X318798700Y-93903808D02*
X318798701Y-81903808D01*
X281698699Y-152053807D02*
G75*
G02*
X280698699Y-151053807I0J1000000D01*
G01*
X319798700Y-94903808D02*
G75*
G02*
X318798700Y-93903808I0J1000000D01*
G01*
X331798702Y-38041308D02*
G75*
G02*
X332798702Y-39041308I0J-1000000D01*
G01*
X332798701Y-81903808D02*
X332798700Y-93903808D01*
X312748700Y-119003807D02*
G75*
G02*
X313748700Y-120003807I0J-1000000D01*
G01*
X294698699Y-151053807D02*
G75*
G02*
X293698699Y-152053807I-1000000J0D01*
G01*
X300748700Y-119003807D02*
X312748700Y-119003807D01*
X312748699Y-133003807D02*
X300748699Y-133003807D01*
X313748700Y-120003807D02*
X313748699Y-132003807D01*
X281698702Y-52041307D02*
G75*
G02*
X280698702Y-51041307I0J1000000D01*
G01*
X332798699Y-151053808D02*
G75*
G02*
X331798699Y-152053808I-1000000J0D01*
G01*
X331798701Y-80903808D02*
G75*
G02*
X332798701Y-81903808I0J-1000000D01*
G01*
X293698702Y-38041307D02*
X281698702Y-38041307D01*
X299748701Y-62853807D02*
G75*
G02*
X300748701Y-61853807I1000000J0D01*
G01*
X331798702Y-52041308D02*
X319798702Y-52041308D01*
X332798702Y-51041308D02*
G75*
G02*
X331798702Y-52041308I-1000000J0D01*
G01*
X332798699Y-139053808D02*
X332798699Y-151053808D01*
X332798702Y-39041308D02*
X332798702Y-51041308D01*
X318798699Y-139053808D02*
G75*
G02*
X319798699Y-138053808I1000000J0D01*
G01*
X319798702Y-38041308D02*
X331798702Y-38041308D01*
X331798699Y-138053808D02*
G75*
G02*
X332798699Y-139053808I0J-1000000D01*
G01*
X299748699Y-132003807D02*
X299748700Y-120003807D01*
X319798699Y-138053808D02*
X331798699Y-138053808D01*
X318798699Y-151053808D02*
X318798699Y-139053808D01*
X293698699Y-138053807D02*
X281698699Y-138053807D01*
X280698702Y-39041307D02*
G75*
G02*
X281698702Y-38041307I1000000J0D01*
G01*
X300748701Y-61853807D02*
X312748701Y-61853807D01*
X281698702Y-52041307D02*
X293698702Y-52041307D01*
X331798700Y-94903808D02*
X319798700Y-94903808D01*
X319798701Y-80903808D02*
X331798701Y-80903808D01*
X332798700Y-93903808D02*
G75*
G02*
X331798700Y-94903808I-1000000J0D01*
G01*
X319798699Y-152053808D02*
G75*
G02*
X318798699Y-151053808I0J1000000D01*
G01*
X299748700Y-120003807D02*
G75*
G02*
X300748700Y-119003807I1000000J0D01*
G01*
X280698702Y-39041307D02*
X280698702Y-51041307D01*
X294698702Y-51041307D02*
X294698702Y-39041307D01*
X313748701Y-62853807D02*
X313748701Y-74853807D01*
X293698702Y-38041307D02*
G75*
G02*
X294698702Y-39041307I0J-1000000D01*
G01*
X281698699Y-152053807D02*
X293698699Y-152053807D01*
X300748699Y-133003807D02*
G75*
G02*
X299748699Y-132003807I0J1000000D01*
G01*
X313748699Y-132003807D02*
G75*
G02*
X312748699Y-133003807I-1000000J0D01*
G01*
X280698699Y-139053807D02*
X280698699Y-151053807D01*
X294698702Y-51041307D02*
G75*
G02*
X293698702Y-52041307I-1000000J0D01*
G01*
X318798702Y-39041308D02*
G75*
G02*
X319798702Y-38041308I1000000J0D01*
G01*
X293698699Y-138053807D02*
G75*
G02*
X294698699Y-139053807I0J-1000000D01*
G01*
X280698699Y-139053807D02*
G75*
G02*
X281698699Y-138053807I1000000J0D01*
G01*
X319798702Y-52041308D02*
G75*
G02*
X318798702Y-51041308I0J1000000D01*
G01*
X318798702Y-51041308D02*
X318798702Y-39041308D01*
X312748701Y-61853807D02*
G75*
G02*
X313748701Y-62853807I0J-1000000D01*
G01*
X299748701Y-74853807D02*
X299748701Y-62853807D01*
X300748701Y-75853807D02*
G75*
G02*
X299748701Y-74853807I0J1000000D01*
G01*
X312748701Y-75853807D02*
X300748701Y-75853807D01*
X23523700Y-100953799D02*
G75*
G02*
X24523700Y-99953799I1000000J0D01*
G01*
X331798701Y-75853808D02*
X319798701Y-75853808D01*
X313748701Y-74853807D02*
G75*
G02*
X312748701Y-75853807I-1000000J0D01*
G01*
X332798701Y-74853808D02*
G75*
G02*
X331798701Y-75853808I-1000000J0D01*
G01*
X24523700Y-113953799D02*
G75*
G02*
X23523700Y-112953799I0J1000000D01*
G01*
X319798701Y-61853808D02*
X331798701Y-61853808D01*
X24523700Y-113953799D02*
X36523700Y-113953800D01*
X318798701Y-74853808D02*
X318798701Y-62853808D01*
X318798701Y-62853808D02*
G75*
G02*
X319798701Y-61853808I1000000J0D01*
G01*
X319798701Y-75853808D02*
G75*
G02*
X318798701Y-74853808I0J1000000D01*
G01*
X23523700Y-100953799D02*
X23523700Y-112953799D01*
X331798701Y-61853808D02*
G75*
G02*
X332798701Y-62853808I0J-1000000D01*
G01*
X332798701Y-62853808D02*
X332798701Y-74853808D01*
X37523700Y-112953800D02*
G75*
G02*
X36523700Y-113953800I-1000000J0D01*
G01*
X36523700Y-99953800D02*
G75*
G02*
X37523700Y-100953800I0J-1000000D01*
G01*
X37523700Y-112953800D02*
X37523700Y-100953800D01*
X36523700Y-99953800D02*
X24523700Y-99953799D01*
X239923201Y-77853805D02*
G75*
G02*
X238923201Y-76853805I0J1000000D01*
G01*
X245923201Y-76853806D02*
G75*
G02*
X244923201Y-77853806I-1000000J0D01*
G01*
X268799201Y-62853806D02*
X262093252Y-62853806D01*
X268799201Y-62853806D02*
G75*
G02*
X269799201Y-63853806I0J-1000000D01*
G01*
X245923201Y-76853806D02*
G75*
G02*
X246923201Y-75853806I1000000J0D01*
G01*
X269799201Y-76853806D02*
G75*
G02*
X268799201Y-77853806I-1000000J0D01*
G01*
X263799201Y-77853806D02*
G75*
G02*
X262799201Y-76853806I0J1000000D01*
G01*
X239923201Y-77853805D02*
X244923201Y-77853806D01*
X238923201Y-63853805D02*
G75*
G02*
X239923201Y-62853805I1000000J0D01*
G01*
X246629150Y-62853806D02*
X239923201Y-62853805D01*
X238923201Y-63853805D02*
X238923201Y-76853805D01*
X247495175Y-62353806D02*
G75*
G02*
X246629150Y-62853806I-866025J500000D01*
G01*
X261799201Y-75853806D02*
G75*
G02*
X262799201Y-76853806I0J-1000000D01*
G01*
X260361201Y-61853806D02*
X248361201Y-61853806D01*
X269799201Y-76853806D02*
X269799201Y-63853806D01*
X247495176Y-62353806D02*
G75*
G02*
X248361201Y-61853806I866025J-500000D01*
G01*
X260361201Y-61853805D02*
G75*
G02*
X261227227Y-62353806I0J-1000001D01*
G01*
X262093252Y-62853806D02*
G75*
G02*
X261227227Y-62353806I0J1000000D01*
G01*
X263799201Y-77853806D02*
X268799201Y-77853806D01*
X246923201Y-75853806D02*
X261799201Y-75853806D01*
X-6432551Y-152053798D02*
G75*
G02*
X-7432551Y-151053798I0J1000000D01*
G01*
X7948699Y-138053799D02*
X-6432551Y-138053798D01*
X8948699Y-151053799D02*
X8948699Y-139053799D01*
X-7432551Y-139053798D02*
X-7432551Y-151053798D01*
X-7432551Y-139053798D02*
G75*
G02*
X-6432551Y-138053798I1000000J0D01*
G01*
X8948699Y-151053799D02*
G75*
G02*
X7948699Y-152053799I-1000000J0D01*
G01*
X-6432551Y-152053798D02*
X7948699Y-152053799D01*
X238836202Y-52041305D02*
G75*
G02*
X237836202Y-51041305I0J1000000D01*
G01*
X257886202Y-52041306D02*
G75*
G02*
X256886202Y-51041306I0J1000000D01*
G01*
X256886202Y-39041306D02*
G75*
G02*
X257886202Y-38041306I1000000J0D01*
G01*
X33048700Y-120003800D02*
X33048699Y-132003800D01*
X266123701Y-81903806D02*
X266123700Y-93903806D01*
X269886202Y-38041306D02*
X257886202Y-38041306D01*
X85436202Y-39041301D02*
G75*
G02*
X86436202Y-38041301I1000000J0D01*
G01*
X251836202Y-51041306D02*
G75*
G02*
X250836202Y-52041306I-1000000J0D01*
G01*
X47048699Y-132003800D02*
G75*
G02*
X46048699Y-133003800I-1000000J0D01*
G01*
X250836202Y-52041306D02*
X238836202Y-52041305D01*
X127011202Y-38041302D02*
G75*
G02*
X128011202Y-39041302I0J-1000000D01*
G01*
X98436202Y-38041301D02*
G75*
G02*
X99436202Y-39041301I0J-1000000D01*
G01*
X238836202Y-38041305D02*
X250836202Y-38041306D01*
X204211200Y-93903804D02*
G75*
G02*
X203211200Y-94903804I-1000000J0D01*
G01*
X227023700Y-99953805D02*
G75*
G02*
X228023700Y-100953805I0J-1000000D01*
G01*
X7948699Y-138053799D02*
G75*
G02*
X8948699Y-139053799I0J-1000000D01*
G01*
X269886202Y-38041306D02*
G75*
G02*
X270886202Y-39041306I0J-1000000D01*
G01*
X251836202Y-39041306D02*
X251836202Y-51041306D01*
X204211201Y-81903804D02*
X204211200Y-93903804D01*
X33048700Y-120003800D02*
G75*
G02*
X34048700Y-119003800I1000000J0D01*
G01*
X228023700Y-112953805D02*
X228023700Y-100953805D01*
X228023700Y-112953805D02*
G75*
G02*
X227023700Y-113953805I-1000000J0D01*
G01*
X214023700Y-100953805D02*
X214023700Y-112953805D01*
X237836202Y-39041305D02*
G75*
G02*
X238836202Y-38041305I1000000J0D01*
G01*
X265123701Y-80903806D02*
G75*
G02*
X266123701Y-81903806I0J-1000000D01*
G01*
X127011202Y-52041302D02*
X115011202Y-52041302D01*
X46048700Y-119003800D02*
G75*
G02*
X47048700Y-120003800I0J-1000000D01*
G01*
X46048700Y-119003800D02*
X34048700Y-119003800D01*
X47048699Y-132003800D02*
X47048700Y-120003800D01*
X191211200Y-94903804D02*
G75*
G02*
X190211200Y-93903804I0J1000000D01*
G01*
X34048699Y-133003800D02*
X46048699Y-133003800D01*
X190211201Y-81903804D02*
G75*
G02*
X191211201Y-80903804I1000000J0D01*
G01*
X99436202Y-51041301D02*
G75*
G02*
X98436202Y-52041301I-1000000J0D01*
G01*
X98436202Y-52041301D02*
X86436202Y-52041301D01*
X190211200Y-93903804D02*
X190211201Y-81903804D01*
X203211200Y-94903804D02*
X191211200Y-94903804D01*
X265123700Y-94903806D02*
X253123700Y-94903806D01*
X115011202Y-38041302D02*
X127011202Y-38041302D01*
X191211201Y-80903804D02*
X203211201Y-80903804D01*
X253123700Y-94903806D02*
G75*
G02*
X252123700Y-93903806I0J1000000D01*
G01*
X128011202Y-51041302D02*
G75*
G02*
X127011202Y-52041302I-1000000J0D01*
G01*
X215023700Y-113953805D02*
X227023700Y-113953805D01*
X215023700Y-113953805D02*
G75*
G02*
X214023700Y-112953805I0J1000000D01*
G01*
X270886202Y-51041306D02*
G75*
G02*
X269886202Y-52041306I-1000000J0D01*
G01*
X214023700Y-100953805D02*
G75*
G02*
X215023700Y-99953805I1000000J0D01*
G01*
X256886202Y-39041306D02*
X256886202Y-51041306D01*
X128011202Y-39041302D02*
X128011202Y-51041302D01*
X270886202Y-51041306D02*
X270886202Y-39041306D01*
X203211201Y-80903804D02*
G75*
G02*
X204211201Y-81903804I0J-1000000D01*
G01*
X252123701Y-81903806D02*
G75*
G02*
X253123701Y-80903806I1000000J0D01*
G01*
X253123701Y-80903806D02*
X265123701Y-80903806D01*
X34048699Y-133003800D02*
G75*
G02*
X33048699Y-132003800I0J1000000D01*
G01*
X86436202Y-38041301D02*
X98436202Y-38041301D01*
X250836202Y-38041306D02*
G75*
G02*
X251836202Y-39041306I0J-1000000D01*
G01*
X85436202Y-51041301D02*
X85436202Y-39041301D01*
X252123700Y-93903806D02*
X252123701Y-81903806D01*
X114011202Y-39041302D02*
G75*
G02*
X115011202Y-38041302I1000000J0D01*
G01*
X266123700Y-93903806D02*
G75*
G02*
X265123700Y-94903806I-1000000J0D01*
G01*
X86436202Y-52041301D02*
G75*
G02*
X85436202Y-51041301I0J1000000D01*
G01*
X115011202Y-52041302D02*
G75*
G02*
X114011202Y-51041302I0J1000000D01*
G01*
X237836202Y-51041305D02*
X237836202Y-39041305D01*
X114011202Y-51041302D02*
X114011202Y-39041302D01*
X227023700Y-99953805D02*
X215023700Y-99953805D01*
X257886202Y-52041306D02*
X269886202Y-52041306D01*
X132773700Y-112953802D02*
G75*
G02*
X131773700Y-113953802I-1000000J0D01*
G01*
X132773700Y-100953802D02*
X132773700Y-112953802D01*
X28286202Y-39041299D02*
G75*
G02*
X29286202Y-38041299I1000000J0D01*
G01*
X42286202Y-51041300D02*
G75*
G02*
X41286202Y-52041300I-1000000J0D01*
G01*
X42286202Y-51041300D02*
X42286202Y-39041300D01*
X99436202Y-39041301D02*
X99436202Y-51041301D01*
X108961200Y-93903802D02*
G75*
G02*
X107961200Y-94903802I-1000000J0D01*
G01*
X232786202Y-51041305D02*
G75*
G02*
X231786202Y-52041305I-1000000J0D01*
G01*
X95961200Y-94903801D02*
X107961200Y-94903802D01*
X94961201Y-81903801D02*
X94961200Y-93903801D01*
X218786202Y-39041305D02*
G75*
G02*
X219786202Y-38041305I1000000J0D01*
G01*
X185448700Y-120003804D02*
X185448699Y-132003804D01*
X28286202Y-39041299D02*
X28286202Y-51041299D01*
X95961200Y-94903801D02*
G75*
G02*
X94961200Y-93903801I0J1000000D01*
G01*
X94961201Y-81903801D02*
G75*
G02*
X95961201Y-80903801I1000000J0D01*
G01*
X232786202Y-39041305D02*
X232786202Y-51041305D01*
X41286202Y-38041300D02*
X29286202Y-38041299D01*
X119773700Y-113953802D02*
G75*
G02*
X118773700Y-112953802I0J1000000D01*
G01*
X131773700Y-113953802D02*
X119773700Y-113953802D01*
X107961201Y-80903802D02*
X95961201Y-80903801D01*
X166111200Y-93903803D02*
G75*
G02*
X165111200Y-94903803I-1000000J0D01*
G01*
X186448699Y-133003804D02*
X198448699Y-133003804D01*
X107961201Y-80903802D02*
G75*
G02*
X108961201Y-81903802I0J-1000000D01*
G01*
X165111201Y-80903803D02*
G75*
G02*
X166111201Y-81903803I0J-1000000D01*
G01*
X172129949Y-150053803D02*
G75*
G02*
X171129949Y-151053803I-1000000J0D01*
G01*
X108961200Y-93903802D02*
X108961201Y-81903802D01*
X172129949Y-150053803D02*
X172129949Y-137053803D01*
X166129949Y-151053803D02*
X171129949Y-151053803D01*
X199448699Y-132003804D02*
G75*
G02*
X198448699Y-133003804I-1000000J0D01*
G01*
X231786202Y-38041305D02*
G75*
G02*
X232786202Y-39041305I0J-1000000D01*
G01*
X223261200Y-93903805D02*
G75*
G02*
X222261200Y-94903805I-1000000J0D01*
G01*
X166129949Y-151053803D02*
G75*
G02*
X165129949Y-150053803I0J1000000D01*
G01*
X165129949Y-137053803D02*
X165129949Y-150053803D01*
X152111201Y-81903803D02*
G75*
G02*
X153111201Y-80903803I1000000J0D01*
G01*
X210261200Y-94903805D02*
G75*
G02*
X209261200Y-93903805I0J1000000D01*
G01*
X153111200Y-94903803D02*
G75*
G02*
X152111200Y-93903803I0J1000000D01*
G01*
X186448699Y-133003804D02*
G75*
G02*
X185448699Y-132003804I0J1000000D01*
G01*
X152111201Y-81903803D02*
X152111200Y-93903803D01*
X41286202Y-38041300D02*
G75*
G02*
X42286202Y-39041300I0J-1000000D01*
G01*
X165129949Y-137053803D02*
G75*
G02*
X166129949Y-136053803I1000000J0D01*
G01*
X153111200Y-94903803D02*
X165111200Y-94903803D01*
X171129949Y-136053803D02*
X166129949Y-136053803D01*
X231786202Y-52041305D02*
X219786202Y-52041305D01*
X171129949Y-136053803D02*
G75*
G02*
X172129949Y-137053803I0J-1000000D01*
G01*
X131773700Y-99953802D02*
G75*
G02*
X132773700Y-100953802I0J-1000000D01*
G01*
X219786202Y-38041305D02*
X231786202Y-38041305D01*
X222261201Y-80903805D02*
X210261201Y-80903805D01*
X165111201Y-80903803D02*
X153111201Y-80903803D01*
X198448700Y-119003804D02*
X186448700Y-119003804D01*
X222261201Y-80903805D02*
G75*
G02*
X223261201Y-81903805I0J-1000000D01*
G01*
X199448699Y-132003804D02*
X199448700Y-120003804D01*
X209261201Y-81903805D02*
X209261200Y-93903805D01*
X29286202Y-52041299D02*
X41286202Y-52041300D01*
X218786202Y-51041305D02*
X218786202Y-39041305D01*
X166111200Y-93903803D02*
X166111201Y-81903803D01*
X119773700Y-99953802D02*
X131773700Y-99953802D01*
X223261200Y-93903805D02*
X223261201Y-81903805D01*
X29286202Y-52041299D02*
G75*
G02*
X28286202Y-51041299I0J1000000D01*
G01*
X198448700Y-119003804D02*
G75*
G02*
X199448700Y-120003804I0J-1000000D01*
G01*
X210261200Y-94903805D02*
X222261200Y-94903805D01*
X118773700Y-100953802D02*
G75*
G02*
X119773700Y-99953802I1000000J0D01*
G01*
X118773700Y-112953802D02*
X118773700Y-100953802D01*
X185448700Y-120003804D02*
G75*
G02*
X186448700Y-119003804I1000000J0D01*
G01*
X219786202Y-52041305D02*
G75*
G02*
X218786202Y-51041305I0J1000000D01*
G01*
X105486201Y-75853802D02*
G75*
G02*
X104486201Y-74853802I0J1000000D01*
G01*
X112723700Y-99953802D02*
G75*
G02*
X113723700Y-100953802I0J-1000000D01*
G01*
X113723700Y-112953802D02*
X113723700Y-100953802D01*
X213736201Y-62853805D02*
X213736201Y-74853805D01*
X117486201Y-75853802D02*
X105486201Y-75853802D01*
X118486201Y-74853802D02*
G75*
G02*
X117486201Y-75853802I-1000000J0D01*
G01*
X133061201Y-81903802D02*
G75*
G02*
X134061201Y-80903802I1000000J0D01*
G01*
X142298699Y-132003803D02*
G75*
G02*
X141298699Y-133003803I-1000000J0D01*
G01*
X212736201Y-61853805D02*
G75*
G02*
X213736201Y-62853805I0J-1000000D01*
G01*
X142298699Y-132003803D02*
X142298700Y-120003803D01*
X128298700Y-120003802D02*
X128298699Y-132003802D01*
X199736201Y-62853804D02*
G75*
G02*
X200736201Y-61853804I1000000J0D01*
G01*
X105486201Y-61853802D02*
X117486201Y-61853802D01*
X199736201Y-74853804D02*
X199736201Y-62853804D01*
X194973700Y-100953804D02*
X194973700Y-112953804D01*
X118486201Y-62853802D02*
X118486201Y-74853802D01*
X200736201Y-75853804D02*
G75*
G02*
X199736201Y-74853804I0J1000000D01*
G01*
X196067449Y-138053804D02*
G75*
G02*
X197067449Y-139053804I0J-1000000D01*
G01*
X133061200Y-93903802D02*
X133061201Y-81903802D01*
X134061200Y-94903802D02*
G75*
G02*
X133061200Y-93903802I0J1000000D01*
G01*
X195973700Y-113953804D02*
G75*
G02*
X194973700Y-112953804I0J1000000D01*
G01*
X104486201Y-62853802D02*
G75*
G02*
X105486201Y-61853802I1000000J0D01*
G01*
X183067449Y-139053804D02*
G75*
G02*
X183626824Y-138156113I1000000J0D01*
G01*
X190186199Y-136053804D02*
G75*
G02*
X191186199Y-137053804I0J-1000000D01*
G01*
X194973700Y-100953804D02*
G75*
G02*
X195973700Y-99953804I1000000J0D01*
G01*
X207973700Y-99953804D02*
X195973700Y-99953804D01*
X192186199Y-138053804D02*
G75*
G02*
X191186199Y-137053804I0J1000000D01*
G01*
X207973701Y-99953804D02*
G75*
G02*
X208973700Y-100953805I-1J-1000000D01*
G01*
X208973700Y-112953805D02*
X208973700Y-100953805D01*
X208973700Y-112953804D02*
G75*
G02*
X207973700Y-113953804I-1000000J0D01*
G01*
X195973700Y-113953804D02*
X207973700Y-113953804D01*
X128298700Y-120003802D02*
G75*
G02*
X129298700Y-119003802I1000000J0D01*
G01*
X190186199Y-136053804D02*
X185186199Y-136053804D01*
X100723700Y-113953801D02*
G75*
G02*
X99723700Y-112953801I0J1000000D01*
G01*
X129298699Y-133003802D02*
X141298699Y-133003803D01*
X184186200Y-137258421D02*
G75*
G02*
X183626824Y-138156113I-1000001J0D01*
G01*
X184067449Y-152053804D02*
G75*
G02*
X183067449Y-151053804I0J1000000D01*
G01*
X213736201Y-74853805D02*
G75*
G02*
X212736201Y-75853805I-1000000J0D01*
G01*
X183067449Y-139053804D02*
X183067449Y-151053804D01*
X200736201Y-61853804D02*
X212736201Y-61853805D01*
X129298699Y-133003802D02*
G75*
G02*
X128298699Y-132003802I0J1000000D01*
G01*
X184186199Y-137053804D02*
X184186199Y-137258421D01*
X184186199Y-137053804D02*
G75*
G02*
X185186199Y-136053804I1000000J0D01*
G01*
X212736201Y-75853805D02*
X200736201Y-75853804D01*
X197067449Y-151053804D02*
X197067449Y-139053804D01*
X113723700Y-112953802D02*
G75*
G02*
X112723700Y-113953802I-1000000J0D01*
G01*
X196067449Y-138053804D02*
X192186199Y-138053804D01*
X99723700Y-100953801D02*
X99723700Y-112953801D01*
X112723700Y-99953802D02*
X100723700Y-99953801D01*
X197067449Y-151053804D02*
G75*
G02*
X196067449Y-152053804I-1000000J0D01*
G01*
X100723700Y-113953801D02*
X112723700Y-113953802D01*
X117486201Y-61853802D02*
G75*
G02*
X118486201Y-62853802I0J-1000000D01*
G01*
X141298700Y-119003803D02*
X129298700Y-119003802D01*
X104486201Y-74853802D02*
X104486201Y-62853802D01*
X141298700Y-119003803D02*
G75*
G02*
X142298700Y-120003803I0J-1000000D01*
G01*
X184067449Y-152053804D02*
X196067449Y-152053804D01*
X99723700Y-100953801D02*
G75*
G02*
X100723700Y-99953801I1000000J0D01*
G01*
X137536201Y-74853802D02*
G75*
G02*
X136536201Y-75853802I-1000000J0D01*
G01*
X128011200Y-93903802D02*
G75*
G02*
X127011200Y-94903802I-1000000J0D01*
G01*
X115011200Y-94903802D02*
X127011200Y-94903802D01*
X146061202Y-38041303D02*
G75*
G02*
X147061202Y-39041303I0J-1000000D01*
G01*
X134061202Y-52041302D02*
X146061202Y-52041303D01*
X134061202Y-52041302D02*
G75*
G02*
X133061202Y-51041302I0J1000000D01*
G01*
X147061202Y-51041303D02*
X147061202Y-39041303D01*
X137536201Y-62853803D02*
X137536201Y-74853803D01*
X76911200Y-94903801D02*
G75*
G02*
X75911200Y-93903801I0J1000000D01*
G01*
X146061202Y-38041303D02*
X134061202Y-38041302D01*
X75911201Y-81903801D02*
X75911200Y-93903801D01*
X133061202Y-39041302D02*
X133061202Y-51041302D01*
X75911201Y-81903801D02*
G75*
G02*
X76911201Y-80903801I1000000J0D01*
G01*
X171161201Y-81903803D02*
G75*
G02*
X172161201Y-80903803I1000000J0D01*
G01*
X124536201Y-75853802D02*
G75*
G02*
X123536201Y-74853802I0J1000000D01*
G01*
X185161201Y-81903804D02*
X185161200Y-93903804D01*
X184161201Y-80903804D02*
G75*
G02*
X185161201Y-81903804I0J-1000000D01*
G01*
X185161200Y-93903804D02*
G75*
G02*
X184161200Y-94903804I-1000000J0D01*
G01*
X89911200Y-93903801D02*
G75*
G02*
X88911200Y-94903801I-1000000J0D01*
G01*
X114011201Y-81903802D02*
G75*
G02*
X115011201Y-80903802I1000000J0D01*
G01*
X88911201Y-80903801D02*
G75*
G02*
X89911201Y-81903801I0J-1000000D01*
G01*
X127011201Y-80903802D02*
X115011201Y-80903802D01*
X147061202Y-51041303D02*
G75*
G02*
X146061202Y-52041303I-1000000J0D01*
G01*
X88911201Y-80903801D02*
X76911201Y-80903801D01*
X171161200Y-93903803D02*
X171161201Y-81903803D01*
X115011200Y-94903802D02*
G75*
G02*
X114011200Y-93903802I0J1000000D01*
G01*
X76911200Y-94903801D02*
X88911200Y-94903801D01*
X128011200Y-93903802D02*
X128011201Y-81903802D01*
X184161200Y-94903804D02*
X172161200Y-94903803D01*
X172161200Y-94903803D02*
G75*
G02*
X171161200Y-93903803I0J1000000D01*
G01*
X89911200Y-93903801D02*
X89911201Y-81903801D01*
X133061202Y-39041302D02*
G75*
G02*
X134061202Y-38041302I1000000J0D01*
G01*
X136536201Y-75853802D02*
X124536201Y-75853802D01*
X172161201Y-80903803D02*
X184161201Y-80903804D01*
X114011201Y-81903802D02*
X114011200Y-93903802D01*
X127011201Y-80903802D02*
G75*
G02*
X128011201Y-81903802I0J-1000000D01*
G01*
X124536201Y-61853802D02*
X136536201Y-61853802D01*
X123536201Y-62853802D02*
G75*
G02*
X124536201Y-61853802I1000000J0D01*
G01*
X123536201Y-74853802D02*
X123536201Y-62853802D01*
X165111202Y-38041303D02*
X153111202Y-38041303D01*
X252123699Y-151053806D02*
X252123699Y-139053806D01*
X150823700Y-99953803D02*
G75*
G02*
X151823700Y-100953803I0J-1000000D01*
G01*
X268504949Y-151053806D02*
G75*
G02*
X267504949Y-152053806I-1000000J0D01*
G01*
X138823700Y-99953803D02*
X150823700Y-99953803D01*
X151823700Y-100953803D02*
X151823700Y-112953803D01*
X253123699Y-152053806D02*
G75*
G02*
X252123699Y-151053806I0J1000000D01*
G01*
X75623700Y-112953801D02*
X75623700Y-100953801D01*
X74623700Y-99953801D02*
G75*
G02*
X75623700Y-100953801I0J-1000000D01*
G01*
X137823700Y-112953803D02*
X137823700Y-100953803D01*
X80673700Y-100953801D02*
G75*
G02*
X81673700Y-99953801I1000000J0D01*
G01*
X75623700Y-112953801D02*
G75*
G02*
X74623700Y-113953801I-1000000J0D01*
G01*
X143586201Y-61853803D02*
X155586201Y-61853803D01*
X80673700Y-112953801D02*
X80673700Y-100953801D01*
X142586201Y-74853803D02*
X142586201Y-62853803D01*
X134061201Y-80903802D02*
X146061201Y-80903803D01*
X165111202Y-38041303D02*
G75*
G02*
X166111202Y-39041303I0J-1000000D01*
G01*
X138823700Y-113953803D02*
G75*
G02*
X137823700Y-112953803I0J1000000D01*
G01*
X150823700Y-113953803D02*
X138823700Y-113953803D01*
X151823700Y-112953803D02*
G75*
G02*
X150823700Y-113953803I-1000000J0D01*
G01*
X152111202Y-39041303D02*
X152111202Y-51041303D01*
X94673700Y-112953801D02*
G75*
G02*
X93673700Y-113953801I-1000000J0D01*
G01*
X166111202Y-51041303D02*
X166111202Y-39041303D01*
X166111202Y-51041303D02*
G75*
G02*
X165111202Y-52041303I-1000000J0D01*
G01*
X153111202Y-52041303D02*
X165111202Y-52041303D01*
X153111202Y-52041303D02*
G75*
G02*
X152111202Y-51041303I0J1000000D01*
G01*
X147061200Y-93903803D02*
G75*
G02*
X146061200Y-94903803I-1000000J0D01*
G01*
X81673700Y-99953801D02*
X93673700Y-99953801D01*
X156586201Y-62853803D02*
X156586201Y-74853803D01*
X156586201Y-74853803D02*
G75*
G02*
X155586201Y-75853803I-1000000J0D01*
G01*
X146061201Y-80903803D02*
G75*
G02*
X147061201Y-81903803I0J-1000000D01*
G01*
X253123699Y-138053806D02*
X267504949Y-138053806D01*
X74623700Y-99953801D02*
X62623700Y-99953800D01*
X93673700Y-113953801D02*
X81673700Y-113953801D01*
X61623700Y-100953800D02*
G75*
G02*
X62623700Y-99953800I1000000J0D01*
G01*
X267504949Y-138053806D02*
G75*
G02*
X268504949Y-139053806I0J-1000000D01*
G01*
X152111202Y-39041303D02*
G75*
G02*
X153111202Y-38041303I1000000J0D01*
G01*
X81673700Y-113953801D02*
G75*
G02*
X80673700Y-112953801I0J1000000D01*
G01*
X94673700Y-100953801D02*
X94673700Y-112953801D01*
X93673700Y-99953801D02*
G75*
G02*
X94673700Y-100953801I0J-1000000D01*
G01*
X268504949Y-139053806D02*
X268504949Y-151053806D01*
X62623700Y-113953800D02*
X74623700Y-113953801D01*
X267504949Y-152053806D02*
X253123699Y-152053806D01*
X62623700Y-113953800D02*
G75*
G02*
X61623700Y-112953800I0J1000000D01*
G01*
X155586201Y-61853803D02*
G75*
G02*
X156586201Y-62853803I0J-1000000D01*
G01*
X142586201Y-62853803D02*
G75*
G02*
X143586201Y-61853803I1000000J0D01*
G01*
X143586201Y-75853803D02*
G75*
G02*
X142586201Y-74853803I0J1000000D01*
G01*
X252123699Y-139053806D02*
G75*
G02*
X253123699Y-138053806I1000000J0D01*
G01*
X146061200Y-94903803D02*
X134061200Y-94903802D01*
X155586201Y-75853803D02*
X143586201Y-75853803D01*
X147061201Y-81903803D02*
X147061200Y-93903803D01*
X137823700Y-100953803D02*
G75*
G02*
X138823700Y-99953803I1000000J0D01*
G01*
X61623700Y-100953800D02*
X61623700Y-112953800D01*
X136536202Y-61853802D02*
G75*
G02*
X137536201Y-62853803I-1J-1000000D01*
G01*
X194686201Y-62853804D02*
X194686201Y-74853804D01*
X29286201Y-75853799D02*
G75*
G02*
X28286201Y-74853799I0J1000000D01*
G01*
X28286201Y-62853799D02*
X28286201Y-74853799D01*
X66386202Y-39041301D02*
X66386202Y-51041301D01*
X181686201Y-61853804D02*
X193686201Y-61853804D01*
X28286201Y-62853799D02*
G75*
G02*
X29286201Y-61853799I1000000J0D01*
G01*
X79386202Y-38041301D02*
G75*
G02*
X80386202Y-39041301I0J-1000000D01*
G01*
X41286201Y-61853800D02*
X29286201Y-61853799D01*
X66386202Y-39041301D02*
G75*
G02*
X67386202Y-38041301I1000000J0D01*
G01*
X179398700Y-119003804D02*
X167398700Y-119003803D01*
X217498699Y-133003805D02*
X205498699Y-133003804D01*
X205498700Y-119003804D02*
X217498700Y-119003805D01*
X175923700Y-100953804D02*
G75*
G02*
X176923700Y-99953804I1000000J0D01*
G01*
X179398700Y-119003804D02*
G75*
G02*
X180398700Y-120003804I0J-1000000D01*
G01*
X47336201Y-62853800D02*
X47336201Y-74853800D01*
X79386201Y-61853801D02*
X67386201Y-61853801D01*
X80386201Y-74853801D02*
X80386201Y-62853801D01*
X204498700Y-120003804D02*
G75*
G02*
X205498700Y-119003804I1000000J0D01*
G01*
X175923700Y-112953804D02*
X175923700Y-100953804D01*
X41286201Y-61853800D02*
G75*
G02*
X42286201Y-62853800I0J-1000000D01*
G01*
X176923700Y-99953804D02*
X188923700Y-99953804D01*
X188923700Y-113953804D02*
X176923700Y-113953804D01*
X189923700Y-112953804D02*
G75*
G02*
X188923700Y-113953804I-1000000J0D01*
G01*
X80386202Y-51041301D02*
G75*
G02*
X79386202Y-52041301I-1000000J0D01*
G01*
X166398700Y-120003803D02*
X166398699Y-132003803D01*
X67386202Y-52041301D02*
X79386202Y-52041301D01*
X67386201Y-75853801D02*
G75*
G02*
X66386201Y-74853801I0J1000000D01*
G01*
X66386201Y-62853801D02*
X66386201Y-74853801D01*
X60336201Y-61853800D02*
X48336201Y-61853800D01*
X167398699Y-133003803D02*
G75*
G02*
X166398699Y-132003803I0J1000000D01*
G01*
X61336201Y-74853800D02*
X61336201Y-62853800D01*
X61336201Y-74853800D02*
G75*
G02*
X60336201Y-75853800I-1000000J0D01*
G01*
X218498700Y-120003805D02*
X218498699Y-132003805D01*
X218498699Y-132003805D02*
G75*
G02*
X217498699Y-133003805I-1000000J0D01*
G01*
X180686201Y-62853804D02*
G75*
G02*
X181686201Y-61853804I1000000J0D01*
G01*
X60336201Y-61853800D02*
G75*
G02*
X61336201Y-62853800I0J-1000000D01*
G01*
X47336201Y-62853800D02*
G75*
G02*
X48336201Y-61853800I1000000J0D01*
G01*
X194686201Y-74853804D02*
G75*
G02*
X193686201Y-75853804I-1000000J0D01*
G01*
X205498699Y-133003804D02*
G75*
G02*
X204498699Y-132003804I0J1000000D01*
G01*
X217498700Y-119003805D02*
G75*
G02*
X218498700Y-120003805I0J-1000000D01*
G01*
X193686201Y-61853804D02*
G75*
G02*
X194686201Y-62853804I0J-1000000D01*
G01*
X176923700Y-113953804D02*
G75*
G02*
X175923700Y-112953804I0J1000000D01*
G01*
X48336201Y-75853800D02*
X60336201Y-75853800D01*
X181686201Y-75853804D02*
G75*
G02*
X180686201Y-74853804I0J1000000D01*
G01*
X204498699Y-132003804D02*
X204498700Y-120003804D01*
X188923700Y-99953804D02*
G75*
G02*
X189923700Y-100953804I0J-1000000D01*
G01*
X180398699Y-132003804D02*
X180398700Y-120003804D01*
X48336201Y-75853800D02*
G75*
G02*
X47336201Y-74853800I0J1000000D01*
G01*
X166398700Y-120003803D02*
G75*
G02*
X167398700Y-119003803I1000000J0D01*
G01*
X180398699Y-132003804D02*
G75*
G02*
X179398699Y-133003804I-1000000J0D01*
G01*
X189923700Y-100953804D02*
X189923700Y-112953804D01*
X79386202Y-38041301D02*
X67386202Y-38041301D01*
X66386201Y-62853801D02*
G75*
G02*
X67386201Y-61853801I1000000J0D01*
G01*
X79386201Y-61853801D02*
G75*
G02*
X80386201Y-62853801I0J-1000000D01*
G01*
X80386201Y-74853801D02*
G75*
G02*
X79386201Y-75853801I-1000000J0D01*
G01*
X80386202Y-51041301D02*
X80386202Y-39041301D01*
X42286201Y-74853800D02*
X42286201Y-62853800D01*
X67386202Y-52041301D02*
G75*
G02*
X66386202Y-51041301I0J1000000D01*
G01*
X67386201Y-75853801D02*
X79386201Y-75853801D01*
X167398699Y-133003803D02*
X179398699Y-133003804D01*
X180686201Y-74853804D02*
X180686201Y-62853804D01*
X193686201Y-75853804D02*
X181686201Y-75853804D01*
X42286201Y-74853800D02*
G75*
G02*
X41286201Y-75853800I-1000000J0D01*
G01*
X29286201Y-75853799D02*
X41286201Y-75853800D01*
X32761200Y-93903800D02*
X32761201Y-81903800D01*
X32761200Y-93903800D02*
G75*
G02*
X31761200Y-94903800I-1000000J0D01*
G01*
X209261201Y-81903805D02*
G75*
G02*
X210261201Y-80903805I1000000J0D01*
G01*
X18761201Y-81903799D02*
G75*
G02*
X19761201Y-80903799I1000000J0D01*
G01*
X31761201Y-80903800D02*
X19761201Y-80903799D01*
X31761201Y-80903800D02*
G75*
G02*
X32761201Y-81903800I0J-1000000D01*
G01*
X19761200Y-94903799D02*
X31761200Y-94903800D01*
X85148699Y-132003801D02*
X85148700Y-120003801D01*
X56861201Y-81903800D02*
G75*
G02*
X57861201Y-80903800I1000000J0D01*
G01*
X69861201Y-80903801D02*
X57861201Y-80903800D01*
X231786201Y-61853805D02*
G75*
G02*
X232786201Y-62853805I0J-1000000D01*
G01*
X218786201Y-74853805D02*
X218786201Y-62853805D01*
X219786201Y-75853805D02*
G75*
G02*
X218786201Y-74853805I0J1000000D01*
G01*
X219786201Y-61853805D02*
X231786201Y-61853805D01*
X72148699Y-133003801D02*
X84148699Y-133003801D01*
X85436201Y-74853801D02*
X85436201Y-62853801D01*
X85148699Y-132003801D02*
G75*
G02*
X84148699Y-133003801I-1000000J0D01*
G01*
X71148700Y-120003801D02*
G75*
G02*
X72148700Y-119003801I1000000J0D01*
G01*
X37811201Y-81903800D02*
G75*
G02*
X38811201Y-80903800I1000000J0D01*
G01*
X50811201Y-80903800D02*
X38811201Y-80903800D01*
X232786201Y-62853805D02*
X232786201Y-74853805D01*
X19761200Y-94903799D02*
G75*
G02*
X18761200Y-93903799I0J1000000D01*
G01*
X231786201Y-75853805D02*
X219786201Y-75853805D01*
X50811201Y-80903800D02*
G75*
G02*
X51811201Y-81903800I0J-1000000D01*
G01*
X48336202Y-52041300D02*
G75*
G02*
X47336202Y-51041300I0J1000000D01*
G01*
X18761201Y-81903799D02*
X18761200Y-93903799D01*
X170873700Y-100953803D02*
X170873700Y-112953803D01*
X169873700Y-99953803D02*
G75*
G02*
X170873700Y-100953803I0J-1000000D01*
G01*
X157873700Y-99953803D02*
X169873700Y-99953803D01*
X84148700Y-119003801D02*
X72148700Y-119003801D01*
X157873700Y-113953803D02*
G75*
G02*
X156873700Y-112953803I0J1000000D01*
G01*
X48336202Y-38041300D02*
X60336202Y-38041300D01*
X156873700Y-100953803D02*
G75*
G02*
X157873700Y-99953803I1000000J0D01*
G01*
X47336202Y-39041300D02*
G75*
G02*
X48336202Y-38041300I1000000J0D01*
G01*
X156873700Y-112953803D02*
X156873700Y-100953803D01*
X86436201Y-61853801D02*
X98436201Y-61853801D01*
X169873700Y-113953803D02*
X157873700Y-113953803D01*
X85436201Y-62853801D02*
G75*
G02*
X86436201Y-61853801I1000000J0D01*
G01*
X170873700Y-112953803D02*
G75*
G02*
X169873700Y-113953803I-1000000J0D01*
G01*
X98436201Y-61853801D02*
G75*
G02*
X99436201Y-62853801I0J-1000000D01*
G01*
X60336202Y-38041300D02*
G75*
G02*
X61336202Y-39041300I0J-1000000D01*
G01*
X86436201Y-75853801D02*
G75*
G02*
X85436201Y-74853801I0J1000000D01*
G01*
X38811200Y-94903800D02*
G75*
G02*
X37811200Y-93903800I0J1000000D01*
G01*
X72148699Y-133003801D02*
G75*
G02*
X71148699Y-132003801I0J1000000D01*
G01*
X61336202Y-39041300D02*
X61336202Y-51041300D01*
X70861200Y-93903801D02*
G75*
G02*
X69861200Y-94903801I-1000000J0D01*
G01*
X51811200Y-93903800D02*
G75*
G02*
X50811200Y-94903800I-1000000J0D01*
G01*
X57861200Y-94903800D02*
X69861200Y-94903801D01*
X218786201Y-62853805D02*
G75*
G02*
X219786201Y-61853805I1000000J0D01*
G01*
X71148700Y-120003801D02*
X71148699Y-132003801D01*
X47336202Y-51041300D02*
X47336202Y-39041300D01*
X60336202Y-52041300D02*
X48336202Y-52041300D01*
X51811200Y-93903800D02*
X51811201Y-81903800D01*
X61336202Y-51041300D02*
G75*
G02*
X60336202Y-52041300I-1000000J0D01*
G01*
X69861201Y-80903801D02*
G75*
G02*
X70861201Y-81903801I0J-1000000D01*
G01*
X70861200Y-93903801D02*
X70861201Y-81903801D01*
X37811201Y-81903800D02*
X37811200Y-93903800D01*
X56861201Y-81903800D02*
X56861200Y-93903800D01*
X38811200Y-94903800D02*
X50811200Y-94903800D01*
X232786201Y-74853805D02*
G75*
G02*
X231786201Y-75853805I-1000000J0D01*
G01*
X84148700Y-119003801D02*
G75*
G02*
X85148700Y-120003801I0J-1000000D01*
G01*
X98436201Y-75853801D02*
X86436201Y-75853801D01*
X99436201Y-62853801D02*
X99436201Y-74853801D01*
X99436201Y-74853801D02*
G75*
G02*
X98436201Y-75853801I-1000000J0D01*
G01*
X57861200Y-94903800D02*
G75*
G02*
X56861200Y-93903800I0J1000000D01*
G01*
D11*
%TO.C,REF\u002A\u002A*%
X143040100Y-149771100D03*
%TD*%
%TO.C,REF\u002A\u002A*%
X159540100Y-143171100D03*
%TD*%
%TO.C,REF\u002A\u002A*%
X159540100Y-146471100D03*
%TD*%
%TO.C,REF\u002A\u002A*%
X159540100Y-149771100D03*
%TD*%
%TO.C,REF\u002A\u002A*%
X156240100Y-139871100D03*
%TD*%
%TO.C,REF\u002A\u002A*%
X152940100Y-146471100D03*
%TD*%
%TO.C,REF\u002A\u002A*%
X149640100Y-143171100D03*
%TD*%
%TO.C,REF\u002A\u002A*%
X156240100Y-143171100D03*
%TD*%
%TO.C,REF\u002A\u002A*%
X156240100Y-149771100D03*
%TD*%
%TO.C,REF\u002A\u002A*%
X152940100Y-149771100D03*
%TD*%
%TO.C,REF\u002A\u002A*%
X149640100Y-146471100D03*
%TD*%
%TO.C,REF\u002A\u002A*%
X152940100Y-139871100D03*
%TD*%
%TO.C,REF\u002A\u002A*%
X146340100Y-139871100D03*
%TD*%
%TO.C,REF\u002A\u002A*%
X146340100Y-149771100D03*
%TD*%
%TO.C,REF\u002A\u002A*%
X152940100Y-143171100D03*
%TD*%
%TO.C,REF\u002A\u002A*%
X146340100Y-143171100D03*
%TD*%
%TO.C,REF\u002A\u002A*%
X159540100Y-139871100D03*
%TD*%
%TO.C,REF\u002A\u002A*%
X143040100Y-139871100D03*
%TD*%
%TO.C,REF\u002A\u002A*%
X143040100Y-143171100D03*
%TD*%
%TO.C,REF\u002A\u002A*%
X149640100Y-139871100D03*
%TD*%
%TO.C,REF\u002A\u002A*%
X146340100Y-146471100D03*
%TD*%
%TO.C,REF\u002A\u002A*%
X149640100Y-149771100D03*
%TD*%
%TO.C,REF\u002A\u002A*%
X156240100Y-146471100D03*
%TD*%
%TO.C,REF\u002A\u002A*%
X143040100Y-146471100D03*
%TD*%
%TO.C,REF\u002A\u002A*%
X105586500Y-139794900D03*
%TD*%
%TO.C,REF\u002A\u002A*%
X105586500Y-143094900D03*
%TD*%
%TO.C,REF\u002A\u002A*%
X105586500Y-146394900D03*
%TD*%
%TO.C,REF\u002A\u002A*%
X105586500Y-149694900D03*
%TD*%
%TO.C,REF\u002A\u002A*%
X102286500Y-139794900D03*
%TD*%
%TO.C,REF\u002A\u002A*%
X102286500Y-143094900D03*
%TD*%
%TO.C,REF\u002A\u002A*%
X102286500Y-146394900D03*
%TD*%
%TO.C,REF\u002A\u002A*%
X102286500Y-149694900D03*
%TD*%
%TO.C,REF\u002A\u002A*%
X98986500Y-139794900D03*
%TD*%
%TO.C,REF\u002A\u002A*%
X98986500Y-143094900D03*
%TD*%
%TO.C,REF\u002A\u002A*%
X98986500Y-146394900D03*
%TD*%
%TO.C,REF\u002A\u002A*%
X98986500Y-149694900D03*
%TD*%
%TO.C,REF\u002A\u002A*%
X95686500Y-139794900D03*
%TD*%
%TO.C,REF\u002A\u002A*%
X95686500Y-143094900D03*
%TD*%
%TO.C,REF\u002A\u002A*%
X95686500Y-146394900D03*
%TD*%
%TO.C,REF\u002A\u002A*%
X95686500Y-149694900D03*
%TD*%
%TO.C,REF\u002A\u002A*%
X92386500Y-139794900D03*
%TD*%
%TO.C,REF\u002A\u002A*%
X92386500Y-143094900D03*
%TD*%
%TO.C,REF\u002A\u002A*%
X92386500Y-146394900D03*
%TD*%
%TO.C,REF\u002A\u002A*%
X92386500Y-149694900D03*
%TD*%
%TO.C,REF\u002A\u002A*%
X89086500Y-139794900D03*
%TD*%
%TO.C,REF\u002A\u002A*%
X89086500Y-143094900D03*
%TD*%
%TO.C,REF\u002A\u002A*%
X89086500Y-146394900D03*
%TD*%
%TO.C,REF\u002A\u002A*%
X89086500Y-149694900D03*
%TD*%
%TO.C,REF\u002A\u002A*%
X85786500Y-139794900D03*
%TD*%
%TO.C,REF\u002A\u002A*%
X85786500Y-143094900D03*
%TD*%
%TO.C,REF\u002A\u002A*%
X85786500Y-146394900D03*
%TD*%
%TO.C,REF\u002A\u002A*%
X85786500Y-149694900D03*
%TD*%
%TO.C,REF\u002A\u002A*%
X82486500Y-139794900D03*
%TD*%
%TO.C,REF\u002A\u002A*%
X82486500Y-143094900D03*
%TD*%
%TO.C,REF\u002A\u002A*%
X82486500Y-146394900D03*
%TD*%
%TO.C,REF\u002A\u002A*%
X82486500Y-149694900D03*
%TD*%
M02*
