<svg xmlns="http://www.w3.org/2000/svg" viewBox="0 0 581.09 99.34"><defs><style>.cls-1{fill:#231f20;}</style></defs><g id="Layer_2" data-name="Layer 2"><g id="Layer_1-2" data-name="Layer 1"><path class="cls-1" d="M130.39,70.88h8.51A2.84,2.84,0,0,0,141.74,68V17a2.83,2.83,0,0,1,2.83-2.83h36.85a2.83,2.83,0,0,0,2.83-2.84V2.84A2.83,2.83,0,0,0,181.42,0h-51a2.84,2.84,0,0,0-2.83,2.84V68A2.84,2.84,0,0,0,130.39,70.88Z"/><path class="cls-1" d="M450.7.13H343A2.84,2.84,0,0,0,340.15,3v8.5A2.83,2.83,0,0,0,343,14.3h93.54a2.84,2.84,0,0,1,2.84,2.84v8.5a2.84,2.84,0,0,1-2.84,2.84H343a2.83,2.83,0,0,0-2.83,2.83V68.16A2.84,2.84,0,0,0,343,71H450.7a2.84,2.84,0,0,0,2.83-2.84v-8.5a2.84,2.84,0,0,0-2.83-2.84H357.16A2.84,2.84,0,0,1,354.32,54v-8.5a2.84,2.84,0,0,1,2.84-2.84H450.7a2.83,2.83,0,0,0,2.83-2.83V3A2.84,2.84,0,0,0,450.7.13Z"/><path class="cls-1" d="M578.26.13h-51A2.84,2.84,0,0,0,524.4,3v8.5a2.83,2.83,0,0,0,2.83,2.83h36.85a2.84,2.84,0,0,1,2.84,2.84v8.5a2.84,2.84,0,0,1-2.84,2.84H527.23a2.83,2.83,0,0,0-2.83,2.83V68.16A2.84,2.84,0,0,0,527.23,71h8.51a2.84,2.84,0,0,0,2.83-2.84V45.49a2.84,2.84,0,0,1,2.84-2.84h22.67a2.84,2.84,0,0,1,2.84,2.84V68.16A2.84,2.84,0,0,0,569.75,71h8.51a2.84,2.84,0,0,0,2.83-2.84V3A2.84,2.84,0,0,0,578.26.13Z"/><path class="cls-1" d="M269.29,68V17a2.84,2.84,0,0,1,2.83-2.84h51A2.83,2.83,0,0,0,326,11.34V2.84A2.84,2.84,0,0,0,323.14,0H201.26a2.84,2.84,0,0,0-2.83,2.84v8.5a2.83,2.83,0,0,0,2.83,2.83h51A2.83,2.83,0,0,1,255.1,17V68a2.84,2.84,0,0,0,2.84,2.84h8.51A2.84,2.84,0,0,0,269.29,68Z"/><path class="cls-1" d="M28.35,3v8.5a2.83,2.83,0,0,0,2.83,2.83h65.2a2.84,2.84,0,0,1,2.83,2.84V54a2.83,2.83,0,0,1-2.83,2.83h-51A2.83,2.83,0,0,1,42.52,54V31.31a2.84,2.84,0,0,0-2.84-2.83H17a2.84,2.84,0,0,1-2.84-2.84V3A2.84,2.84,0,0,0,11.34.13H2.83A2.84,2.84,0,0,0,0,3V96.51a2.83,2.83,0,0,0,2.83,2.83h8.51a2.83,2.83,0,0,0,2.83-2.83v-51A2.84,2.84,0,0,1,17,42.65h8.5a2.84,2.84,0,0,1,2.84,2.84V68.16A2.83,2.83,0,0,0,31.18,71h79.37a2.84,2.84,0,0,0,2.84-2.84V3A2.84,2.84,0,0,0,110.55.13H31.18A2.83,2.83,0,0,0,28.35,3Z"/><path class="cls-1" d="M155.89,31.19V68a2.84,2.84,0,0,0,2.84,2.84h8.5A2.84,2.84,0,0,0,170.07,68V45.36a2.83,2.83,0,0,1,2.83-2.83h51a2.84,2.84,0,0,1,2.84,2.83v8.51a2.84,2.84,0,0,1-2.84,2.83H187.07a2.84,2.84,0,0,0-2.83,2.84V68a2.84,2.84,0,0,0,2.83,2.84h51A2.84,2.84,0,0,0,240.93,68V31.19a2.83,2.83,0,0,0-2.83-2.83H158.73A2.83,2.83,0,0,0,155.89,31.19Z"/><path class="cls-1" d="M300.46,56.82A2.83,2.83,0,0,1,297.63,54V45.36a2.83,2.83,0,0,1,2.83-2.83h22.68A2.84,2.84,0,0,0,326,39.69v-8.5a2.83,2.83,0,0,0-2.83-2.83H286.29a2.83,2.83,0,0,0-2.84,2.83v37A2.84,2.84,0,0,0,286.29,71h36.85A2.84,2.84,0,0,0,326,68.16v-8.5a2.84,2.84,0,0,0-2.83-2.84Z"/><path class="cls-1" d="M467.71,3v8.5a2.83,2.83,0,0,0,2.83,2.83h22.68a2.84,2.84,0,0,1,2.83,2.84V54a2.83,2.83,0,0,1-2.83,2.83h-8.51A2.83,2.83,0,0,1,481.88,54V31.31A2.84,2.84,0,0,0,479,28.48h-8.5a2.83,2.83,0,0,0-2.83,2.83V68.16A2.83,2.83,0,0,0,470.54,71h36.85a2.83,2.83,0,0,0,2.83-2.84V3A2.83,2.83,0,0,0,507.39.13H470.54A2.83,2.83,0,0,0,467.71,3Z"/></g></g></svg>