  0
SECTION
  2
HEADER
  9
$ACADVER
  1
AC1009
  9
$FILLMODE
 70
 0
  9
$SPLFRAME
 70
 1
  9
$EXTMIN
 10
0
 20
0
 30
0.0
  9
$EXTMAX
 10
41.6667
 20
41.6667
 30
0.0
  0
ENDSEC
  0
SECTION
  2
TABLES
  0
TABLE
  2
LAYER
 70
1
  0
LAYER
  2
0
 70
     0
 62
     7
  6
CONTINUOUS
  0
ENDTAB
  0
ENDSEC
  0
SECTION
  2
ENTITIES
  0
POLYLINE
  8
0
 62
     250
 66
     1
 10
0
 20
0
 30
0.0
 70
     1
 40
0
 41
0
  0
VERTEX
  8
0
 10
0.325413
 20
0.738444
 30
0.0
 40
0
 41
0
  0
VERTEX
  8
0
 10
0.413411
 20
0.738444
 30
0.0
 40
0
 41
0
  0
VERTEX
  8
0
 10
0.418619
 20
0.738444
 30
0.0
 40
0
 41
0
  0
VERTEX
  8
0
 10
0.434299
 20
0.729872
 30
0.0
 40
0
 41
0
  0
VERTEX
  8
0
 10
0.442925
 20
0.714247
 30
0.0
 40
0
 41
0
  0
VERTEX
  8
0
 10
0.442925
 20
0.708985
 30
0.0
 40
0
 41
0
  0
VERTEX
  8
0
 10
0.442925
 20
0.620931
 30
0.0
 40
0
 41
0
  0
VERTEX
  8
0
 10
0.442925
 20
0.615722
 30
0.0
 40
0
 41
0
  0
VERTEX
  8
0
 10
0.434299
 20
0.600097
 30
0.0
 40
0
 41
0
  0
VERTEX
  8
0
 10
0.418619
 20
0.591471
 30
0.0
 40
0
 41
0
  0
VERTEX
  8
0
 10
0.413411
 20
0.591471
 30
0.0
 40
0
 41
0
  0
VERTEX
  8
0
 10
0.325413
 20
0.591471
 30
0.0
 40
0
 41
0
  0
VERTEX
  8
0
 10
0.32015
 20
0.591471
 30
0.0
 40
0
 41
0
  0
VERTEX
  8
0
 10
0.304525
 20
0.600097
 30
0.0
 40
0
 41
0
  0
VERTEX
  8
0
 10
0.295953
 20
0.615722
 30
0.0
 40
0
 41
0
  0
VERTEX
  8
0
 10
0.295953
 20
0.620931
 30
0.0
 40
0
 41
0
  0
VERTEX
  8
0
 10
0.295953
 20
0.708985
 30
0.0
 40
0
 41
0
  0
VERTEX
  8
0
 10
0.295953
 20
0.714247
 30
0.0
 40
0
 41
0
  0
VERTEX
  8
0
 10
0.304525
 20
0.729872
 30
0.0
 40
0
 41
0
  0
VERTEX
  8
0
 10
0.32015
 20
0.738444
 30
0.0
 40
0
 41
0
  0
VERTEX
  8
0
 10
0.325413
 20
0.738444
 30
0.0
 40
0
 41
0
  0
SEQEND
 8
0
  0
POLYLINE
  8
0
 62
     250
 66
     1
 10
0
 20
0
 30
0.0
 70
     1
 40
0
 41
0
  0
VERTEX
  8
0
 10
1.15158
 20
0
 30
0.0
 40
0
 41
0
  0
VERTEX
  8
0
 10
0.620335
 20
0
 30
0.0
 40
0
 41
0
  0
VERTEX
  8
0
 10
0.615072
 20
0
 30
0.0
 40
0
 41
0
  0
VERTEX
  8
0
 10
0.599338
 20
0.00868056
 30
0.0
 40
0
 41
0
  0
VERTEX
  8
0
 10
0.590712
 20
0.0243599
 30
0.0
 40
0
 41
0
  0
VERTEX
  8
0
 10
0.590712
 20
0.0295682
 30
0.0
 40
0
 41
0
  0
VERTEX
  8
0
 10
0.590712
 20
0.118001
 30
0.0
 40
0
 41
0
  0
VERTEX
  8
0
 10
0.590712
 20
0.123264
 30
0.0
 40
0
 41
0
  0
VERTEX
  8
0
 10
0.599393
 20
0.138997
 30
0.0
 40
0
 41
0
  0
VERTEX
  8
0
 10
0.616319
 20
0.147678
 30
0.0
 40
0
 41
0
  0
VERTEX
  8
0
 10
0.620443
 20
0.147624
 30
0.0
 40
0
 41
0
  0
VERTEX
  8
0
 10
0.782497
 20
0.147624
 30
0.0
 40
0
 41
0
  0
VERTEX
  8
0
 10
0.787651
 20
0.147624
 30
0.0
 40
0
 41
0
  0
VERTEX
  8
0
 10
0.803276
 20
0.15625
 30
0.0
 40
0
 41
0
  0
VERTEX
  8
0
 10
0.811849
 20
0.173014
 30
0.0
 40
0
 41
0
  0
VERTEX
  8
0
 10
0.811849
 20
0.177083
 30
0.0
 40
0
 41
0
  0
VERTEX
  8
0
 10
0.811849
 20
0.561361
 30
0.0
 40
0
 41
0
  0
VERTEX
  8
0
 10
0.811849
 20
0.566569
 30
0.0
 40
0
 41
0
  0
VERTEX
  8
0
 10
0.803222
 20
0.582194
 30
0.0
 40
0
 41
0
  0
VERTEX
  8
0
 10
0.787597
 20
0.590821
 30
0.0
 40
0
 41
0
  0
VERTEX
  8
0
 10
0.782389
 20
0.590821
 30
0.0
 40
0
 41
0
  0
VERTEX
  8
0
 10
0.620117
 20
0.590821
 30
0.0
 40
0
 41
0
  0
VERTEX
  8
0
 10
0.614854
 20
0.590821
 30
0.0
 40
0
 41
0
  0
VERTEX
  8
0
 10
0.599175
 20
0.599501
 30
0.0
 40
0
 41
0
  0
VERTEX
  8
0
 10
0.590494
 20
0.615235
 30
0.0
 40
0
 41
0
  0
VERTEX
  8
0
 10
0.590494
 20
0.620443
 30
0.0
 40
0
 41
0
  0
VERTEX
  8
0
 10
0.590494
 20
0.708985
 30
0.0
 40
0
 41
0
  0
VERTEX
  8
0
 10
0.590494
 20
0.714247
 30
0.0
 40
0
 41
0
  0
VERTEX
  8
0
 10
0.599175
 20
0.729926
 30
0.0
 40
0
 41
0
  0
VERTEX
  8
0
 10
0.614854
 20
0.738553
 30
0.0
 40
0
 41
0
  0
VERTEX
  8
0
 10
0.620117
 20
0.738553
 30
0.0
 40
0
 41
0
  0
VERTEX
  8
0
 10
0.930122
 20
0.738553
 30
0.0
 40
0
 41
0
  0
VERTEX
  8
0
 10
0.935331
 20
0.738553
 30
0.0
 40
0
 41
0
  0
VERTEX
  8
0
 10
0.95101
 20
0.729926
 30
0.0
 40
0
 41
0
  0
VERTEX
  8
0
 10
0.95969
 20
0.714247
 30
0.0
 40
0
 41
0
  0
VERTEX
  8
0
 10
0.95969
 20
0.708985
 30
0.0
 40
0
 41
0
  0
VERTEX
  8
0
 10
0.95969
 20
0.177083
 30
0.0
 40
0
 41
0
  0
VERTEX
  8
0
 10
0.959636
 20
0.17296
 30
0.0
 40
0
 41
0
  0
VERTEX
  8
0
 10
0.968317
 20
0.155871
 30
0.0
 40
0
 41
0
  0
VERTEX
  8
0
 10
0.985406
 20
0.14719
 30
0.0
 40
0
 41
0
  0
VERTEX
  8
0
 10
0.989583
 20
0.14719
 30
0.0
 40
0
 41
0
  0
VERTEX
  8
0
 10
1.15196
 20
0.14719
 30
0.0
 40
0
 41
0
  0
VERTEX
  8
0
 10
1.15717
 20
0.14719
 30
0.0
 40
0
 41
0
  0
VERTEX
  8
0
 10
1.17285
 20
0.138563
 30
0.0
 40
0
 41
0
  0
VERTEX
  8
0
 10
1.18153
 20
0.121799
 30
0.0
 40
0
 41
0
  0
VERTEX
  8
0
 10
1.18159
 20
0.11773
 30
0.0
 40
0
 41
0
  0
VERTEX
  8
0
 10
1.18159
 20
0.0297851
 30
0.0
 40
0
 41
0
  0
VERTEX
  8
0
 10
1.18159
 20
0.0256619
 30
0.0
 40
0
 41
0
  0
VERTEX
  8
0
 10
1.1728
 20
0.00862631
 30
0.0
 40
0
 41
0
  0
VERTEX
  8
0
 10
1.15571
 20
-5.42535e-05
 30
0.0
 40
0
 41
0
  0
VERTEX
  8
0
 10
1.15158
 20
0
 30
0.0
 40
0
 41
0
  0
SEQEND
 8
0
  0
POLYLINE
  8
0
 62
     250
 66
     1
 10
0
 20
0
 30
0.0
 70
     1
 40
0
 41
0
  0
VERTEX
  8
0
 10
0
 20
0.414387
 30
0.0
 40
0
 41
0
  0
VERTEX
  8
0
 10
0
 20
0.325846
 30
0.0
 40
0
 41
0
  0
VERTEX
  8
0
 10
0
 20
0.320637
 30
0.0
 40
0
 41
0
  0
VERTEX
  8
0
 10
0.00862631
 20
0.304958
 30
0.0
 40
0
 41
0
  0
VERTEX
  8
0
 10
0.0253907
 20
0.296278
 30
0.0
 40
0
 41
0
  0
VERTEX
  8
0
 10
0.0294596
 20
0.296224
 30
0.0
 40
0
 41
0
  0
VERTEX
  8
0
 10
0.265733
 20
0.296224
 30
0.0
 40
0
 41
0
  0
VERTEX
  8
0
 10
0.270942
 20
0.296224
 30
0.0
 40
0
 41
0
  0
VERTEX
  8
0
 10
0.286567
 20
0.287651
 30
0.0
 40
0
 41
0
  0
VERTEX
  8
0
 10
0.295247
 20
0.270888
 30
0.0
 40
0
 41
0
  0
VERTEX
  8
0
 10
0.295301
 20
0.266764
 30
0.0
 40
0
 41
0
  0
VERTEX
  8
0
 10
0.295301
 20
0.177083
 30
0.0
 40
0
 41
0
  0
VERTEX
  8
0
 10
0.295301
 20
0.171875
 30
0.0
 40
0
 41
0
  0
VERTEX
  8
0
 10
0.286621
 20
0.156196
 30
0.0
 40
0
 41
0
  0
VERTEX
  8
0
 10
0.270942
 20
0.147515
 30
0.0
 40
0
 41
0
  0
VERTEX
  8
0
 10
0.265733
 20
0.147515
 30
0.0
 40
0
 41
0
  0
VERTEX
  8
0
 10
0.0294596
 20
0.147515
 30
0.0
 40
0
 41
0
  0
VERTEX
  8
0
 10
0.0242513
 20
0.147515
 30
0.0
 40
0
 41
0
  0
VERTEX
  8
0
 10
0.00873481
 20
0.139051
 30
0.0
 40
0
 41
0
  0
VERTEX
  8
0
 10
5.42535e-05
 20
0.122504
 30
0.0
 40
0
 41
0
  0
VERTEX
  8
0
 10
0
 20
0.118435
 30
0.0
 40
0
 41
0
  0
VERTEX
  8
0
 10
0
 20
0.0297851
 30
0.0
 40
0
 41
0
  0
VERTEX
  8
0
 10
-5.42535e-05
 20
0.0257161
 30
0.0
 40
0
 41
0
  0
VERTEX
  8
0
 10
0.00851779
 20
0.00878907
 30
0.0
 40
0
 41
0
  0
VERTEX
  8
0
 10
0.0241971
 20
0
 30
0.0
 40
0
 41
0
  0
VERTEX
  8
0
 10
0.0294596
 20
0
 30
0.0
 40
0
 41
0
  0
VERTEX
  8
0
 10
0.413357
 20
0
 30
0.0
 40
0
 41
0
  0
VERTEX
  8
0
 10
0.418565
 20
0
 30
0.0
 40
0
 41
0
  0
VERTEX
  8
0
 10
0.43419
 20
0.00862631
 30
0.0
 40
0
 41
0
  0
VERTEX
  8
0
 10
0.442871
 20
0.0253907
 30
0.0
 40
0
 41
0
  0
VERTEX
  8
0
 10
0.442925
 20
0.0294596
 30
0.0
 40
0
 41
0
  0
VERTEX
  8
0
 10
0.442925
 20
0.414387
 30
0.0
 40
0
 41
0
  0
VERTEX
  8
0
 10
0.442925
 20
0.41965
 30
0.0
 40
0
 41
0
  0
VERTEX
  8
0
 10
0.434244
 20
0.435275
 30
0.0
 40
0
 41
0
  0
VERTEX
  8
0
 10
0.417426
 20
0.443901
 30
0.0
 40
0
 41
0
  0
VERTEX
  8
0
 10
0.413357
 20
0.443847
 30
0.0
 40
0
 41
0
  0
VERTEX
  8
0
 10
0.0294596
 20
0.443847
 30
0.0
 40
0
 41
0
  0
VERTEX
  8
0
 10
0.0242513
 20
0.443847
 30
0.0
 40
0
 41
0
  0
VERTEX
  8
0
 10
0.00862631
 20
0.435221
 30
0.0
 40
0
 41
0
  0
VERTEX
  8
0
 10
0
 20
0.419596
 30
0.0
 40
0
 41
0
  0
VERTEX
  8
0
 10
0
 20
0.414387
 30
0.0
 40
0
 41
0
  0
SEQEND
 8
0
  0
POLYLINE
  8
0
 62
     250
 66
     1
 10
0
 20
0
 30
0.0
 70
     1
 40
0
 41
0
  0
VERTEX
  8
0
 10
0.295301
 20
1.59554
 30
0.0
 40
0
 41
0
  0
VERTEX
  8
0
 10
0.295301
 20
1.50689
 30
0.0
 40
0
 41
0
  0
VERTEX
  8
0
 10
0.295301
 20
1.50168
 30
0.0
 40
0
 41
0
  0
VERTEX
  8
0
 10
0.303928
 20
1.48606
 30
0.0
 40
0
 41
0
  0
VERTEX
  8
0
 10
0.319553
 20
1.47738
 30
0.0
 40
0
 41
0
  0
VERTEX
  8
0
 10
0.324815
 20
1.47738
 30
0.0
 40
0
 41
0
  0
VERTEX
  8
0
 10
1.00396
 20
1.47738
 30
0.0
 40
0
 41
0
  0
VERTEX
  8
0
 10
1.00803
 20
1.47738
 30
0.0
 40
0
 41
0
  0
VERTEX
  8
0
 10
1.02474
 20
1.46875
 30
0.0
 40
0
 41
0
  0
VERTEX
  8
0
 10
1.03337
 20
1.45199
 30
0.0
 40
0
 41
0
  0
VERTEX
  8
0
 10
1.03342
 20
1.44792
 30
0.0
 40
0
 41
0
  0
VERTEX
  8
0
 10
1.03342
 20
1.06397
 30
0.0
 40
0
 41
0
  0
VERTEX
  8
0
 10
1.03342
 20
1.05876
 30
0.0
 40
0
 41
0
  0
VERTEX
  8
0
 10
1.02479
 20
1.04313
 30
0.0
 40
0
 41
0
  0
VERTEX
  8
0
 10
1.00917
 20
1.03451
 30
0.0
 40
0
 41
0
  0
VERTEX
  8
0
 10
1.00396
 20
1.03451
 30
0.0
 40
0
 41
0
  0
VERTEX
  8
0
 10
0.472711
 20
1.03451
 30
0.0
 40
0
 41
0
  0
VERTEX
  8
0
 10
0.467503
 20
1.03451
 30
0.0
 40
0
 41
0
  0
VERTEX
  8
0
 10
0.451878
 20
1.04313
 30
0.0
 40
0
 41
0
  0
VERTEX
  8
0
 10
0.443251
 20
1.05876
 30
0.0
 40
0
 41
0
  0
VERTEX
  8
0
 10
0.443251
 20
1.06397
 30
0.0
 40
0
 41
0
  0
VERTEX
  8
0
 10
0.443251
 20
1.29948
 30
0.0
 40
0
 41
0
  0
VERTEX
  8
0
 10
0.443251
 20
1.30474
 30
0.0
 40
0
 41
0
  0
VERTEX
  8
0
 10
0.434517
 20
1.32042
 30
0.0
 40
0
 41
0
  0
VERTEX
  8
0
 10
0.418837
 20
1.32905
 30
0.0
 40
0
 41
0
  0
VERTEX
  8
0
 10
0.413629
 20
1.32905
 30
0.0
 40
0
 41
0
  0
VERTEX
  8
0
 10
0.204047
 20
1.32905
 30
0.0
 40
0
 41
0
  0
VERTEX
  8
0
 10
0.204047
 20
1.3297
 30
0.0
 40
0
 41
0
  0
VERTEX
  8
0
 10
0.177083
 20
1.3297
 30
0.0
 40
0
 41
0
  0
VERTEX
  8
0
 10
0.171821
 20
1.3297
 30
0.0
 40
0
 41
0
  0
VERTEX
  8
0
 10
0.156142
 20
1.33838
 30
0.0
 40
0
 41
0
  0
VERTEX
  8
0
 10
0.147515
 20
1.35406
 30
0.0
 40
0
 41
0
  0
VERTEX
  8
0
 10
0.147515
 20
1.35927
 30
0.0
 40
0
 41
0
  0
VERTEX
  8
0
 10
0.147515
 20
1.59554
 30
0.0
 40
0
 41
0
  0
VERTEX
  8
0
 10
0.147515
 20
1.60075
 30
0.0
 40
0
 41
0
  0
VERTEX
  8
0
 10
0.138889
 20
1.61637
 30
0.0
 40
0
 41
0
  0
VERTEX
  8
0
 10
0.122179
 20
1.625
 30
0.0
 40
0
 41
0
  0
VERTEX
  8
0
 10
0.11811
 20
1.625
 30
0.0
 40
0
 41
0
  0
VERTEX
  8
0
 10
0.0294596
 20
1.625
 30
0.0
 40
0
 41
0
  0
VERTEX
  8
0
 10
0.0242513
 20
1.625
 30
0.0
 40
0
 41
0
  0
VERTEX
  8
0
 10
0.00862631
 20
1.61637
 30
0.0
 40
0
 41
0
  0
VERTEX
  8
0
 10
0
 20
1.60075
 30
0.0
 40
0
 41
0
  0
VERTEX
  8
0
 10
0
 20
1.59554
 30
0.0
 40
0
 41
0
  0
VERTEX
  8
0
 10
0
 20
0.621039
 30
0.0
 40
0
 41
0
  0
VERTEX
  8
0
 10
0
 20
0.615831
 30
0.0
 40
0
 41
0
  0
VERTEX
  8
0
 10
0.00862631
 20
0.600206
 30
0.0
 40
0
 41
0
  0
VERTEX
  8
0
 10
0.0242513
 20
0.591581
 30
0.0
 40
0
 41
0
  0
VERTEX
  8
0
 10
0.0294596
 20
0.591581
 30
0.0
 40
0
 41
0
  0
VERTEX
  8
0
 10
0.11811
 20
0.591581
 30
0.0
 40
0
 41
0
  0
VERTEX
  8
0
 10
0.123318
 20
0.591581
 30
0.0
 40
0
 41
0
  0
VERTEX
  8
0
 10
0.138943
 20
0.600206
 30
0.0
 40
0
 41
0
  0
VERTEX
  8
0
 10
0.147624
 20
0.615831
 30
0.0
 40
0
 41
0
  0
VERTEX
  8
0
 10
0.147624
 20
0.621039
 30
0.0
 40
0
 41
0
  0
VERTEX
  8
0
 10
0.147624
 20
1.15229
 30
0.0
 40
0
 41
0
  0
VERTEX
  8
0
 10
0.147569
 20
1.15641
 30
0.0
 40
0
 41
0
  0
VERTEX
  8
0
 10
0.156142
 20
1.17334
 30
0.0
 40
0
 41
0
  0
VERTEX
  8
0
 10
0.17296
 20
1.18207
 30
0.0
 40
0
 41
0
  0
VERTEX
  8
0
 10
0.177083
 20
1.18207
 30
0.0
 40
0
 41
0
  0
VERTEX
  8
0
 10
0.265625
 20
1.18207
 30
0.0
 40
0
 41
0
  0
VERTEX
  8
0
 10
0.270833
 20
1.18207
 30
0.0
 40
0
 41
0
  0
VERTEX
  8
0
 10
0.286458
 20
1.17345
 30
0.0
 40
0
 41
0
  0
VERTEX
  8
0
 10
0.295139
 20
1.15668
 30
0.0
 40
0
 41
0
  0
VERTEX
  8
0
 10
0.295193
 20
1.15262
 30
0.0
 40
0
 41
0
  0
VERTEX
  8
0
 10
0.295193
 20
0.916667
 30
0.0
 40
0
 41
0
  0
VERTEX
  8
0
 10
0.295139
 20
0.912597
 30
0.0
 40
0
 41
0
  0
VERTEX
  8
0
 10
0.303765
 20
0.895779
 30
0.0
 40
0
 41
0
  0
VERTEX
  8
0
 10
0.319444
 20
0.887099
 30
0.0
 40
0
 41
0
  0
VERTEX
  8
0
 10
0.324707
 20
0.887099
 30
0.0
 40
0
 41
0
  0
VERTEX
  8
0
 10
1.15148
 20
0.887099
 30
0.0
 40
0
 41
0
  0
VERTEX
  8
0
 10
1.15554
 20
0.887099
 30
0.0
 40
0
 41
0
  0
VERTEX
  8
0
 10
1.17242
 20
0.895725
 30
0.0
 40
0
 41
0
  0
VERTEX
  8
0
 10
1.18115
 20
0.911458
 30
0.0
 40
0
 41
0
  0
VERTEX
  8
0
 10
1.18115
 20
0.916667
 30
0.0
 40
0
 41
0
  0
VERTEX
  8
0
 10
1.18115
 20
1.59554
 30
0.0
 40
0
 41
0
  0
VERTEX
  8
0
 10
1.1811
 20
1.59961
 30
0.0
 40
0
 41
0
  0
VERTEX
  8
0
 10
1.17242
 20
1.61637
 30
0.0
 40
0
 41
0
  0
VERTEX
  8
0
 10
1.15679
 20
1.625
 30
0.0
 40
0
 41
0
  0
VERTEX
  8
0
 10
1.15158
 20
1.625
 30
0.0
 40
0
 41
0
  0
VERTEX
  8
0
 10
0.324815
 20
1.625
 30
0.0
 40
0
 41
0
  0
VERTEX
  8
0
 10
0.319553
 20
1.625
 30
0.0
 40
0
 41
0
  0
VERTEX
  8
0
 10
0.303928
 20
1.61637
 30
0.0
 40
0
 41
0
  0
VERTEX
  8
0
 10
0.295301
 20
1.60075
 30
0.0
 40
0
 41
0
  0
VERTEX
  8
0
 10
0.295301
 20
1.59554
 30
0.0
 40
0
 41
0
  0
SEQEND
 8
0
  0
ENDSEC
  0
EOF
