<svg xmlns="http://www.w3.org/2000/svg" viewBox="0 0 113.39 155.98"><defs><style>.cls-1{fill:#231f20;}</style></defs><g id="Layer_2" data-name="Layer 2"><g id="Layer_1-2" data-name="Layer 1"><rect class="cls-1" x="28.41" y="85.11" width="14.11" height="14.11" rx="2.83"/><path class="cls-1" d="M110.55,156h-51a2.84,2.84,0,0,1-2.84-2.84v-8.49a2.84,2.84,0,0,1,2.85-2.84l15.56,0A2.82,2.82,0,0,0,77.94,139V102.11a2.83,2.83,0,0,0-2.83-2.83H59.53a2.84,2.84,0,0,1-2.84-2.84v-8.5a2.84,2.84,0,0,1,2.84-2.84H89.29a2.84,2.84,0,0,1,2.84,2.84V139A2.84,2.84,0,0,0,95,141.87h15.59a2.84,2.84,0,0,1,2.84,2.83v8.44A2.84,2.84,0,0,1,110.55,156Z"/><path class="cls-1" d="M0,116.22v8.5a2.84,2.84,0,0,0,2.83,2.84H25.51a2.84,2.84,0,0,1,2.84,2.83V139a2.84,2.84,0,0,1-2.84,2.84H2.83A2.83,2.83,0,0,0,0,144.63v8.51A2.83,2.83,0,0,0,2.83,156H39.68a2.84,2.84,0,0,0,2.84-2.83V116.22a2.83,2.83,0,0,0-2.84-2.83H2.83A2.83,2.83,0,0,0,0,116.22Z"/><path class="cls-1" d="M28.35,2.83v8.51a2.83,2.83,0,0,0,2.83,2.83h65.2A2.84,2.84,0,0,1,99.21,17V53.86a2.83,2.83,0,0,1-2.83,2.83h-51a2.83,2.83,0,0,1-2.83-2.83V31.25a2.84,2.84,0,0,0-2.84-2.84H19.59v-.06H17a2.84,2.84,0,0,1-2.84-2.84V2.83A2.83,2.83,0,0,0,11.34,0H2.83A2.83,2.83,0,0,0,0,2.83V96.38a2.83,2.83,0,0,0,2.83,2.83h8.51a2.83,2.83,0,0,0,2.83-2.83v-51A2.84,2.84,0,0,1,17,42.52h8.5a2.84,2.84,0,0,1,2.84,2.83V68a2.83,2.83,0,0,0,2.83,2.84h79.37A2.84,2.84,0,0,0,113.39,68V2.83A2.84,2.84,0,0,0,110.55,0H31.18A2.83,2.83,0,0,0,28.35,2.83Z"/></g></g></svg>