%TF.GenerationSoftware,KiCad,Pcbnew,(5.1.9)-1*%
%TF.CreationDate,2021-02-08T19:59:39+01:00*%
%TF.ProjectId,P.02_ISO,502e3032-5f49-4534-9f2e-6b696361645f,rev?*%
%TF.SameCoordinates,Original*%
%TF.FileFunction,Profile,NP*%
%FSLAX46Y46*%
G04 Gerber Fmt 4.6, Leading zero omitted, Abs format (unit mm)*
G04 Created by KiCad (PCBNEW (5.1.9)-1) date 2021-02-08 19:59:39*
%MOMM*%
%LPD*%
G01*
G04 APERTURE LIST*
%TA.AperFunction,Profile*%
%ADD10C,0.300000*%
%TD*%
G04 APERTURE END LIST*
D10*
X93335775Y-124102094D02*
G75*
G02*
X93089241Y-124348628I-246534J0D01*
G01*
X135719862Y-119634902D02*
G75*
G02*
X135877644Y-119802545I-9861J-167353D01*
G01*
X92083383Y-123342770D02*
X92083383Y-124102094D01*
X92083383Y-123342770D02*
G75*
G02*
X92329917Y-123096236I246534J0D01*
G01*
X135226790Y-125305179D02*
G75*
G02*
X135059150Y-125137536I9604J177244D01*
G01*
X92329917Y-124348628D02*
X93089241Y-124348628D01*
X93089241Y-123096237D02*
G75*
G02*
X93335774Y-123342770I0J-246533D01*
G01*
X93335774Y-124102094D02*
X93335774Y-123342770D01*
X135867780Y-125137535D02*
G75*
G02*
X135709999Y-125305179I-167643J-291D01*
G01*
X135877644Y-119802545D02*
X135877644Y-121094382D01*
X135059150Y-125137536D02*
X135059150Y-119802545D01*
X93089241Y-123096236D02*
X92329917Y-123096236D01*
X136045284Y-121252163D02*
G75*
G02*
X135877644Y-121094382I-288J167642D01*
G01*
X135059150Y-119802545D02*
G75*
G02*
X135236654Y-119634902I177230J-9861D01*
G01*
X135709999Y-125305179D02*
X135226791Y-125305179D01*
X135236654Y-119634902D02*
X135719862Y-119634902D01*
X92329917Y-124348628D02*
G75*
G02*
X92083383Y-124102094I0J246534D01*
G01*
X144742995Y-123510414D02*
G75*
G02*
X144585214Y-123678056I-167642J-290D01*
G01*
X144102007Y-123678056D02*
X144585214Y-123678056D01*
X144102006Y-123678057D02*
G75*
G02*
X143934365Y-123510413I9604J177245D01*
G01*
X143934365Y-121409945D02*
X143934365Y-123510413D01*
X143934366Y-121409944D02*
G75*
G02*
X144102007Y-121252164I167352J-9862D01*
G01*
X148628370Y-121252164D02*
X144102007Y-121252164D01*
X89696936Y-115808698D02*
X89696936Y-124092232D01*
X90929606Y-124092232D02*
G75*
G02*
X90683071Y-124348628I-256396J-190D01*
G01*
X89943470Y-124348628D02*
X90683071Y-124348628D01*
X152188315Y-122060795D02*
X153480153Y-122060795D01*
X152030534Y-122218576D02*
G75*
G02*
X152188315Y-122060795I157781J0D01*
G01*
X152030533Y-122711644D02*
X152030533Y-122218576D01*
X152188316Y-122869425D02*
G75*
G02*
X152030533Y-122711644I-1J157782D01*
G01*
X153480154Y-121252164D02*
G75*
G02*
X153647794Y-121409945I288J-167642D01*
G01*
X153647794Y-121893152D02*
X153647794Y-121409945D01*
X153480153Y-122869425D02*
X152188315Y-122869425D01*
X153480154Y-122869425D02*
G75*
G02*
X153647794Y-123037068I-9604J-177244D01*
G01*
X151379684Y-123678056D02*
X153480153Y-123678056D01*
X153647795Y-123520275D02*
G75*
G02*
X153480153Y-123678056I-167353J9862D01*
G01*
X151221904Y-121409946D02*
G75*
G02*
X151379684Y-121252164I157781J1D01*
G01*
X151379685Y-123678056D02*
G75*
G02*
X151221903Y-123520274I0J157782D01*
G01*
X153647795Y-121893152D02*
G75*
G02*
X153480153Y-122060795I-177245J9602D01*
G01*
X90929605Y-119575733D02*
G75*
G02*
X91186000Y-119329200I256205J-9862D01*
G01*
X153647794Y-123520274D02*
X153647794Y-123037068D01*
X151221903Y-121409945D02*
X151221903Y-123520274D01*
X153480153Y-121252164D02*
X151379684Y-121252164D01*
X90929605Y-124092232D02*
X90929605Y-119575734D01*
X89943470Y-124348627D02*
G75*
G02*
X89696936Y-124092232I9861J256205D01*
G01*
X89696936Y-115808698D02*
G75*
G02*
X89943470Y-115562164I246534J0D01*
G01*
X145561487Y-120325197D02*
G75*
G02*
X145393845Y-120492840I-177245J9602D01*
G01*
X155265056Y-122228437D02*
G75*
G02*
X155422841Y-122060795I167642J290D01*
G01*
X143106012Y-123510413D02*
G75*
G02*
X142948230Y-123678056I-167643J-290D01*
G01*
X273836677Y-84240558D02*
X273836677Y-89240924D01*
X142948230Y-123678056D02*
X142484746Y-123678056D01*
X142484746Y-119634902D02*
X145393845Y-119634902D01*
X77460552Y-113416974D02*
G75*
G02*
X78460523Y-114417003I-29J-1000000D01*
G01*
X-7982569Y-113399892D02*
G75*
G02*
X-8482569Y-112899892I0J500000D01*
G01*
X177466855Y-113419833D02*
X172466852Y-113419690D01*
X-8482569Y-112899892D02*
X-8482569Y-46451507D01*
X178466455Y-127419869D02*
X178466827Y-114419862D01*
X155265055Y-122711644D02*
X155265055Y-122228438D01*
X33329450Y-96370776D02*
G75*
G02*
X34329421Y-97370805I-29J-1000000D01*
G01*
X78460152Y-127417010D02*
G75*
G02*
X77460122Y-128416982I-1000001J29D01*
G01*
X142317104Y-119792683D02*
G75*
G02*
X142484746Y-119634902I167353J-9862D01*
G01*
X177466856Y-113419833D02*
G75*
G02*
X178466827Y-114419862I-29J-1000000D01*
G01*
X145393845Y-120492840D02*
X143293376Y-120492840D01*
X72460120Y-128416838D02*
G75*
G02*
X71460148Y-127416810I28J1000000D01*
G01*
X77460122Y-128416982D02*
X72460120Y-128416839D01*
X172466424Y-128419697D02*
G75*
G02*
X171466452Y-127419669I28J1000000D01*
G01*
X142317104Y-123510413D02*
X142317104Y-119792684D01*
X160767691Y-122869425D02*
X155422841Y-122869425D01*
X178466456Y-127419869D02*
G75*
G02*
X177466426Y-128419841I-1000001J29D01*
G01*
X171466823Y-114419662D02*
X171466452Y-127419669D01*
X145393845Y-119634902D02*
G75*
G02*
X145561486Y-119792684I288J-167643D01*
G01*
X143106012Y-120601315D02*
G75*
G02*
X143293376Y-120492840I157819J-56544D01*
G01*
X155422841Y-122869425D02*
G75*
G02*
X155265055Y-122711644I-4J157782D01*
G01*
X78460523Y-114417003D02*
X78460151Y-127417010D01*
X71460520Y-114416803D02*
G75*
G02*
X72460548Y-113416831I1000000J-28D01*
G01*
X142484745Y-123678056D02*
G75*
G02*
X142317104Y-123510413I9604J177245D01*
G01*
X143106012Y-120601315D02*
X143106012Y-123510412D01*
X184567731Y-132927868D02*
X184567731Y-133933759D01*
X21423508Y-96365363D02*
G75*
G02*
X21524023Y-96370430I-28J-1000000D01*
G01*
X-6983386Y-113399892D02*
X-7982569Y-113399892D01*
X-6483386Y-112899906D02*
G75*
G02*
X-6983386Y-113399892I-500000J14D01*
G01*
X-6481486Y-46451522D02*
X-6483386Y-112899906D01*
X-6981485Y-45951507D02*
G75*
G02*
X-6481486Y-46451522I-1J-500000D01*
G01*
X-7982569Y-45951507D02*
X-6981486Y-45951507D01*
X-8482569Y-46451507D02*
G75*
G02*
X-7982569Y-45951507I500000J0D01*
G01*
X172466424Y-128419698D02*
X177466426Y-128419841D01*
X145561486Y-119792684D02*
X145561486Y-120325197D01*
X274836557Y-67096258D02*
X274836106Y-82508866D01*
X71460148Y-127416810D02*
X71460519Y-114416803D01*
X72460548Y-113416831D02*
X77460551Y-113416974D01*
X171466824Y-114419662D02*
G75*
G02*
X172466852Y-113419690I1000000J-28D01*
G01*
X155422841Y-122060795D02*
X160767691Y-122060795D01*
X22861109Y-110365411D02*
X21329634Y-110365367D01*
X299768606Y-45951507D02*
X300770274Y-45951507D01*
X21329691Y-96365360D02*
X21423508Y-96365362D01*
X299268606Y-46451493D02*
G75*
G02*
X299768606Y-45951507I500000J-14D01*
G01*
X300770274Y-113399892D02*
X299766707Y-113399892D01*
X9314934Y-132935354D02*
G75*
G02*
X9814913Y-132435355I500000J-1D01*
G01*
X184067731Y-132427868D02*
G75*
G02*
X184567731Y-132927868I0J-500000D01*
G01*
X9314934Y-133935550D02*
X9314934Y-132935355D01*
X54314137Y-134433759D02*
G75*
G02*
X53814137Y-133933759I0J500000D01*
G01*
X9814934Y-134435550D02*
G75*
G02*
X9314934Y-133935550I0J500000D01*
G01*
X53814137Y-132927868D02*
G75*
G02*
X54314137Y-132427868I500000J0D01*
G01*
X49814250Y-133935550D02*
G75*
G02*
X49314250Y-134435550I-500000J0D01*
G01*
X259836957Y-66364529D02*
G75*
G02*
X260836699Y-67364529I-258J-1000000D01*
G01*
X260836280Y-76327092D02*
X260836369Y-73277444D01*
X184567731Y-133933759D02*
G75*
G02*
X184067731Y-134433759I-500000J0D01*
G01*
X300770274Y-45951507D02*
G75*
G02*
X301270274Y-46451507I0J-500000D01*
G01*
X49314250Y-134435550D02*
X9814934Y-134435550D01*
X258837216Y-65364499D02*
X258837362Y-60364499D01*
X53814137Y-133933759D02*
X53814137Y-132927868D01*
X259836502Y-90240924D02*
G75*
G02*
X258836502Y-89240924I0J1000000D01*
G01*
X9814913Y-132435355D02*
X49314228Y-132433642D01*
X259808548Y-83240924D02*
G75*
G02*
X259836681Y-83240529I28115J-999605D01*
G01*
X34329421Y-97370805D02*
X34329069Y-109370812D01*
X260836699Y-73277444D02*
X260836699Y-67364529D01*
X258836502Y-84240533D02*
G75*
G02*
X259808548Y-83240924I1000000J0D01*
G01*
X260836699Y-82240529D02*
X260836699Y-76327092D01*
X259836957Y-66364529D02*
G75*
G02*
X258837216Y-65364499I259J1000000D01*
G01*
X299766707Y-113399892D02*
G75*
G02*
X299266707Y-112899878I0J500000D01*
G01*
X49814250Y-132933642D02*
X49814250Y-133935550D01*
X49314228Y-132433642D02*
G75*
G02*
X49814250Y-132933642I22J-500000D01*
G01*
X20329662Y-97365360D02*
G75*
G02*
X21329691Y-96365360I1000000J0D01*
G01*
X21524023Y-96370430D02*
X33329450Y-96370776D01*
X299266707Y-112899878D02*
X299268606Y-46451493D01*
X33329040Y-110370783D02*
X31861107Y-110370740D01*
X273836677Y-84240557D02*
G75*
G02*
X274336392Y-83374697I1000000J-1D01*
G01*
X31846019Y-110370853D02*
X22962750Y-110370593D01*
X54314137Y-132427868D02*
X184067731Y-132427868D01*
X31846019Y-110370853D02*
G75*
G02*
X31861107Y-110370740I15059J-999887D01*
G01*
X273836677Y-89240924D02*
G75*
G02*
X272836677Y-90240924I-1000000J0D01*
G01*
X274836106Y-82508866D02*
G75*
G02*
X274336392Y-83374697I-1000000J29D01*
G01*
X301270274Y-46451507D02*
X301270274Y-112899892D01*
X301270274Y-112899892D02*
G75*
G02*
X300770274Y-113399892I-500000J0D01*
G01*
X20329662Y-109365367D02*
X20329662Y-97365360D01*
X258836502Y-89240924D02*
X258836502Y-84240533D01*
X34329069Y-109370812D02*
G75*
G02*
X33329040Y-110370783I-1000000J29D01*
G01*
X184067731Y-134433759D02*
X54314137Y-134433759D01*
X-6481300Y-39951564D02*
G75*
G02*
X-8481300Y-41951507I-2000000J57D01*
G01*
X282567856Y-134427632D02*
X189068195Y-134427632D01*
X253405586Y-78327340D02*
X253405235Y-90327340D01*
X7887371Y-110369770D02*
G75*
G02*
X7985101Y-110364986I97701J-995216D01*
G01*
X189068195Y-134427632D02*
G75*
G02*
X188568195Y-133927632I0J500000D01*
G01*
X188568195Y-133927632D02*
X188568195Y-132923660D01*
X252508491Y-91321966D02*
X250873276Y-91321919D01*
X-101807Y-96369797D02*
X8423502Y-96370046D01*
X252405615Y-77327311D02*
G75*
G02*
X253405586Y-78327340I-29J-1000000D01*
G01*
X11898764Y-110365098D02*
X7985101Y-110364986D01*
X8423502Y-96364991D02*
X11898821Y-96365090D01*
X282567856Y-132423660D02*
G75*
G02*
X283067856Y-132923660I0J-500000D01*
G01*
X-6481250Y-38214127D02*
G75*
G02*
X-4481193Y-36214184I2000000J-57D01*
G01*
X253405235Y-90327340D02*
G75*
G02*
X252508491Y-91321966I-1000000J29D01*
G01*
X306270274Y-74175700D02*
X306270274Y-43951507D01*
X189068195Y-132423660D02*
X282567856Y-132423660D01*
X250770003Y-91327263D02*
X241888813Y-91327003D01*
X188568195Y-132923660D02*
G75*
G02*
X189068195Y-132423660I500000J0D01*
G01*
X-13482569Y-74302716D02*
G75*
G02*
X-14732569Y-76156766I-2000000J0D01*
G01*
X283067856Y-132923660D02*
X283067856Y-133927632D01*
X299268792Y-39951450D02*
X299268842Y-38222868D01*
X11898822Y-96365090D02*
G75*
G02*
X12898793Y-97365090I-29J-1000000D01*
G01*
X241873279Y-91326882D02*
G75*
G02*
X241888813Y-91327003I-29J-1000007D01*
G01*
X12898793Y-109365098D02*
G75*
G02*
X11898764Y-110365098I-1000000J0D01*
G01*
X12898793Y-97365090D02*
X12898793Y-109365098D01*
X-13482569Y-43951507D02*
G75*
G02*
X-11482569Y-41951507I2000000J0D01*
G01*
X8423502Y-96370046D02*
X8423502Y-96364991D01*
X283067856Y-133927632D02*
G75*
G02*
X282567856Y-134427632I-500000J0D01*
G01*
X192779851Y-96370261D02*
X204779857Y-96370604D01*
X42853825Y-129415993D02*
X23710065Y-129415446D01*
X2280437Y-72264803D02*
G75*
G02*
X1280465Y-71264773I29J1000001D01*
G01*
X204779457Y-110370612D02*
X192779451Y-110370269D01*
X133343407Y-58268541D02*
G75*
G02*
X134343380Y-59268570I-28J-1000001D01*
G01*
X191779821Y-97370233D02*
G75*
G02*
X192779851Y-96370261I1000001J-29D01*
G01*
X10518515Y-52215027D02*
G75*
G02*
X9518485Y-53214999I-1000001J29D01*
G01*
X134343380Y-59268570D02*
X134343037Y-71268577D01*
X14280443Y-72265145D02*
X2280437Y-72264802D01*
X148918933Y-40218977D02*
G75*
G02*
X149918961Y-39219005I1000000J-28D01*
G01*
X120343372Y-59268171D02*
G75*
G02*
X121343401Y-58268198I1000001J-28D01*
G01*
X68955329Y-77316711D02*
X80955335Y-77317054D01*
X-3481493Y-52214627D02*
X-3481150Y-40214620D01*
X-2481121Y-39214648D02*
X9518886Y-39214992D01*
X81955307Y-78317083D02*
X81954964Y-90317090D01*
X149918561Y-53219013D02*
G75*
G02*
X148918589Y-52218983I29J1000001D01*
G01*
X67955300Y-78316682D02*
G75*
G02*
X68955329Y-77316711I1000000J-29D01*
G01*
X23710064Y-129415445D02*
G75*
G02*
X22710093Y-128415416I29J1000000D01*
G01*
X7887371Y-110369770D02*
X-388666Y-110369770D01*
X133343008Y-72268549D02*
X121343001Y-72268206D01*
X23710465Y-115415438D02*
X42854225Y-115415985D01*
X80954935Y-91317062D02*
X68954928Y-91316718D01*
X9518885Y-39214992D02*
G75*
G02*
X10518857Y-40215020I-28J-1000000D01*
G01*
X121343002Y-72268206D02*
G75*
G02*
X120343029Y-71268177I28J1000001D01*
G01*
X-2481520Y-53214656D02*
G75*
G02*
X-3481493Y-52214627I28J1000001D01*
G01*
X68954928Y-91316719D02*
G75*
G02*
X67954956Y-90316689I29J1000001D01*
G01*
X43853855Y-128416021D02*
G75*
G02*
X42853825Y-129415993I-1000001J29D01*
G01*
X-1101836Y-97369768D02*
G75*
G02*
X-101807Y-96369797I1000000J-29D01*
G01*
X-558558Y-110259594D02*
G75*
G02*
X-1102188Y-109369774I456370J889790D01*
G01*
X157155377Y-77319233D02*
G75*
G02*
X158155348Y-78319262I-29J-1000000D01*
G01*
X42854225Y-115415986D02*
G75*
G02*
X43854197Y-116416014I-28J-1000000D01*
G01*
X145155370Y-77318889D02*
X157155376Y-77319232D01*
X144155340Y-78318861D02*
G75*
G02*
X145155370Y-77318889I1000001J-29D01*
G01*
X121343401Y-58268198D02*
X133343408Y-58268541D01*
X144154997Y-90318868D02*
X144155341Y-78318861D01*
X22710093Y-128415416D02*
X22710436Y-116415410D01*
X145154970Y-91318897D02*
G75*
G02*
X144154997Y-90318868I28J1000001D01*
G01*
X157154976Y-91319240D02*
X145154969Y-91318897D01*
X191779479Y-109370240D02*
X191779822Y-97370233D01*
X120343029Y-71268177D02*
X120343372Y-59268170D01*
X-3481150Y-40214621D02*
G75*
G02*
X-2481121Y-39214648I1000001J-28D01*
G01*
X15280816Y-59265167D02*
X15280473Y-71265173D01*
X2280837Y-58264795D02*
X14280844Y-58265138D01*
X1280465Y-71264773D02*
X1280808Y-59264766D01*
X67954956Y-90316689D02*
X67955299Y-78316683D01*
X1280809Y-59264767D02*
G75*
G02*
X2280837Y-58264795I1000000J-28D01*
G01*
X15280472Y-71265174D02*
G75*
G02*
X14280443Y-72265145I-1000000J29D01*
G01*
X134343037Y-71268576D02*
G75*
G02*
X133343008Y-72268549I-1000001J28D01*
G01*
X205779487Y-109370640D02*
G75*
G02*
X204779457Y-110370612I-1000001J29D01*
G01*
X43854197Y-116416014D02*
X43853854Y-128416021D01*
X158155348Y-78319262D02*
X158155005Y-90319268D01*
X192779451Y-110370268D02*
G75*
G02*
X191779479Y-109370240I28J1000000D01*
G01*
X204779857Y-96370605D02*
G75*
G02*
X205779829Y-97370633I-28J-1000000D01*
G01*
X14280844Y-58265137D02*
G75*
G02*
X15280816Y-59265167I-29J-1000001D01*
G01*
X9518485Y-53214999D02*
X-2481521Y-53214656D01*
X22710435Y-116415410D02*
G75*
G02*
X23710465Y-115415438I1000001J-29D01*
G01*
X148918589Y-52218983D02*
X148918932Y-40218977D01*
X-1102188Y-109369774D02*
X-1101836Y-97369768D01*
X10518857Y-40215020D02*
X10518515Y-52215027D01*
X-558556Y-110259594D02*
G75*
G02*
X-388666Y-110369770I-456370J-889791D01*
G01*
X158155006Y-90319268D02*
G75*
G02*
X157154976Y-91319240I-1000001J29D01*
G01*
X80955334Y-77317054D02*
G75*
G02*
X81955307Y-78317083I-28J-1000001D01*
G01*
X205779829Y-97370633D02*
X205779486Y-109370640D01*
X81954964Y-90317089D02*
G75*
G02*
X80954935Y-91317062I-1000001J28D01*
G01*
X247643469Y-58271809D02*
G75*
G02*
X248643442Y-59271838I-28J-1000001D01*
G01*
X67668888Y-40216654D02*
X67668545Y-52216661D01*
X100004945Y-91317606D02*
X88004939Y-91317263D01*
X283267544Y-91322846D02*
G75*
G02*
X282267572Y-90322816I29J1000001D01*
G01*
X296267923Y-78323210D02*
X296267580Y-90323216D01*
X282267572Y-90322816D02*
X282267915Y-78322810D01*
X296267579Y-90323217D02*
G75*
G02*
X295267550Y-91323188I-1000000J29D01*
G01*
X100005346Y-77317599D02*
G75*
G02*
X101005317Y-78317628I-29J-1000000D01*
G01*
X234643091Y-71271444D02*
X234643434Y-59271438D01*
X107055349Y-77317800D02*
X119055356Y-77318143D01*
X25093320Y-59265447D02*
G75*
G02*
X26093350Y-58265475I1000001J-29D01*
G01*
X247643069Y-72271817D02*
X235643063Y-72271473D01*
X63193341Y-59266536D02*
G75*
G02*
X64193371Y-58266564I1000001J-29D01*
G01*
X295267951Y-77323180D02*
G75*
G02*
X296267923Y-78323210I-29J-1000001D01*
G01*
X64192970Y-72266573D02*
G75*
G02*
X63192998Y-71266543I29J1000001D01*
G01*
X66668916Y-39216626D02*
G75*
G02*
X67668888Y-40216654I-28J-1000000D01*
G01*
X248643442Y-59271838D02*
X248643098Y-71271845D01*
X38092956Y-72265826D02*
X26092950Y-72265483D01*
X38093356Y-58265819D02*
G75*
G02*
X39093328Y-59265847I-28J-1000000D01*
G01*
X88005339Y-77317256D02*
X100005345Y-77317599D01*
X53668537Y-52216260D02*
X53668880Y-40216254D01*
X26092950Y-72265482D02*
G75*
G02*
X25092978Y-71265454I28J1000000D01*
G01*
X39093328Y-59265847D02*
X39092985Y-71265854D01*
X63192998Y-71266543D02*
X63193341Y-59266536D01*
X235643463Y-58271466D02*
X247643470Y-58271809D01*
X283267944Y-77322838D02*
X295267951Y-77323181D01*
X248643099Y-71271845D02*
G75*
G02*
X247643069Y-72271817I-1000001J29D01*
G01*
X64193371Y-58266564D02*
X76193377Y-58266908D01*
X53668880Y-40216253D02*
G75*
G02*
X54668909Y-39216282I1000000J-29D01*
G01*
X87005310Y-78317227D02*
G75*
G02*
X88005339Y-77317256I1000000J-29D01*
G01*
X76193377Y-58266907D02*
G75*
G02*
X77193349Y-59266937I-29J-1000001D01*
G01*
X87004967Y-90317234D02*
X87005310Y-78317227D01*
X76192977Y-72266915D02*
X64192970Y-72266572D01*
X88004938Y-91317263D02*
G75*
G02*
X87004967Y-90317234I29J1000000D01*
G01*
X101005317Y-78317628D02*
X101004974Y-90317634D01*
X54668909Y-39216282D02*
X66668917Y-39216625D01*
X120054985Y-90318179D02*
G75*
G02*
X119054955Y-91318151I-1000001J29D01*
G01*
X106055320Y-78317773D02*
G75*
G02*
X107055349Y-77317800I1000001J-28D01*
G01*
X106054977Y-90317779D02*
X106055320Y-78317772D01*
X282267916Y-78322810D02*
G75*
G02*
X283267944Y-77322838I1000000J-28D01*
G01*
X295267550Y-91323188D02*
X283267544Y-91322845D01*
X25092978Y-71265454D02*
X25093321Y-59265447D01*
X120055328Y-78318172D02*
X120054984Y-90318179D01*
X234643435Y-59271438D02*
G75*
G02*
X235643463Y-58271466I1000000J-28D01*
G01*
X119054955Y-91318151D02*
X107054949Y-91317808D01*
X107054949Y-91317807D02*
G75*
G02*
X106054977Y-90317779I28J1000000D01*
G01*
X26093350Y-58265475D02*
X38093357Y-58265818D01*
X235643062Y-72271473D02*
G75*
G02*
X234643091Y-71271444I29J1000000D01*
G01*
X101004974Y-90317635D02*
G75*
G02*
X100004945Y-91317606I-1000000J29D01*
G01*
X77193005Y-71266943D02*
G75*
G02*
X76192977Y-72266915I-1000000J28D01*
G01*
X119055355Y-77318143D02*
G75*
G02*
X120055328Y-78318172I-28J-1000001D01*
G01*
X77193349Y-59266937D02*
X77193006Y-71266943D01*
X39092986Y-71265854D02*
G75*
G02*
X38092956Y-72265826I-1000001J29D01*
G01*
X124818575Y-52218295D02*
G75*
G02*
X123818546Y-53218266I-1000000J29D01*
G01*
X123818546Y-53218266D02*
X111818541Y-53217923D01*
X268426046Y-40222392D02*
G75*
G02*
X267560036Y-39722368I29J999999D01*
G01*
X134629448Y-109368606D02*
X134629791Y-97368599D01*
X135629420Y-110368634D02*
G75*
G02*
X134629448Y-109368606I28J1000000D01*
G01*
X296267035Y-109373226D02*
G75*
G02*
X295267006Y-110373199I-1000001J28D01*
G01*
X283267400Y-96372848D02*
X295267406Y-96373191D01*
X110818569Y-52217894D02*
X110818912Y-40217888D01*
X295267405Y-96373191D02*
G75*
G02*
X296267378Y-97373220I-28J-1000001D01*
G01*
X282267370Y-97372820D02*
G75*
G02*
X283267400Y-96372848I1000001J-29D01*
G01*
X147629426Y-110368978D02*
X135629420Y-110368635D01*
X148629456Y-109369006D02*
G75*
G02*
X147629426Y-110368978I-1000001J29D01*
G01*
X148629798Y-97368999D02*
X148629455Y-109369006D01*
X134629790Y-97368599D02*
G75*
G02*
X135629820Y-96368627I1000001J-29D01*
G01*
X283266999Y-110372856D02*
G75*
G02*
X282267027Y-109372826I29J1000001D01*
G01*
X296267378Y-97373220D02*
X296267035Y-109373227D01*
X110818912Y-40217887D02*
G75*
G02*
X111818941Y-39217916I1000000J-29D01*
G01*
X295267006Y-110373199D02*
X283266999Y-110372856D01*
X123818947Y-39218259D02*
G75*
G02*
X124818918Y-40218288I-29J-1000000D01*
G01*
X111818540Y-53217923D02*
G75*
G02*
X110818569Y-52217894I29J1000000D01*
G01*
X282267027Y-109372826D02*
X282267370Y-97372820D01*
X147629826Y-96368971D02*
G75*
G02*
X148629798Y-97368999I-28J-1000000D01*
G01*
X135629820Y-96368627D02*
X147629826Y-96368970D01*
X276131600Y-54222621D02*
G75*
G02*
X275131572Y-55222593I-1000000J28D01*
G01*
X276131972Y-41222614D02*
X276131601Y-54222621D01*
X111818941Y-39217916D02*
X123818946Y-39218259D01*
X266694024Y-39222343D02*
G75*
G02*
X267560036Y-39722368I-28J-1000001D01*
G01*
X124818918Y-40218288D02*
X124818575Y-52218294D01*
X129579788Y-97368455D02*
X129579445Y-109368461D01*
X246255985Y-40221760D02*
X252961937Y-40221951D01*
X126104959Y-91318353D02*
G75*
G02*
X125104987Y-90318323I29J1000001D01*
G01*
X130960522Y-115418504D02*
G75*
G02*
X131960495Y-116418533I-28J-1000001D01*
G01*
X116579810Y-96368083D02*
X128579816Y-96368426D01*
X110816734Y-116417929D02*
G75*
G02*
X111816762Y-115417957I1000000J-28D01*
G01*
X166679836Y-96369515D02*
G75*
G02*
X167679809Y-97369544I-28J-1000001D01*
G01*
X166679436Y-110369523D02*
X154679430Y-110369179D01*
X58143339Y-59266392D02*
X58142996Y-71266399D01*
X251255559Y-55221911D02*
X246255556Y-55221768D01*
X111816362Y-129417965D02*
G75*
G02*
X110816390Y-128417935I29J1000001D01*
G01*
X130960123Y-129418512D02*
X111816362Y-129417964D01*
X110816390Y-128417935D02*
X110816733Y-116417929D01*
X139104994Y-90318723D02*
G75*
G02*
X138104966Y-91318695I-1000000J28D01*
G01*
X125105331Y-78318317D02*
G75*
G02*
X126105359Y-77318345I1000000J-28D01*
G01*
X125104987Y-90318323D02*
X125105330Y-78318317D01*
X57142967Y-72266371D02*
X45142960Y-72266027D01*
X183254990Y-91319987D02*
G75*
G02*
X182255018Y-90319957I29J1000001D01*
G01*
X167679809Y-97369544D02*
X167679466Y-109369551D01*
X71429785Y-96366793D02*
G75*
G02*
X72429757Y-97366821I-28J-1000000D01*
G01*
X252255588Y-54221938D02*
G75*
G02*
X253255617Y-53221967I1000000J-29D01*
G01*
X154679830Y-96369172D02*
X166679837Y-96369515D01*
X167679466Y-109369551D02*
G75*
G02*
X166679436Y-110369523I-1000001J29D01*
G01*
X72429757Y-97366821D02*
X72429414Y-109366828D01*
X182255362Y-78319951D02*
G75*
G02*
X183255390Y-77319979I1000000J-28D01*
G01*
X128579817Y-96368426D02*
G75*
G02*
X129579788Y-97368455I-29J-1000000D01*
G01*
X44143332Y-59265992D02*
G75*
G02*
X45143360Y-58266020I1000000J-28D01*
G01*
X111816762Y-115417957D02*
X130960523Y-115418504D01*
X195254996Y-91320329D02*
X183254990Y-91319986D01*
X126105359Y-77318345D02*
X138105366Y-77318688D01*
X44142988Y-71265998D02*
X44143331Y-59265992D01*
X154679430Y-110369180D02*
G75*
G02*
X153679458Y-109369150I29J1000001D01*
G01*
X153679802Y-97369144D02*
G75*
G02*
X154679830Y-96369172I1000000J-28D01*
G01*
X58429750Y-97366420D02*
G75*
G02*
X59429779Y-96366449I1000000J-29D01*
G01*
X59429779Y-96366449D02*
X71429785Y-96366792D01*
X268131625Y-53222391D02*
G75*
G02*
X269131597Y-54222421I-29J-1000001D01*
G01*
X59429378Y-110366456D02*
G75*
G02*
X58429407Y-109366427I29J1000000D01*
G01*
X58429407Y-109366427D02*
X58429750Y-97366421D01*
X45142960Y-72266028D02*
G75*
G02*
X44142988Y-71265998I29J1000001D01*
G01*
X275132000Y-40222586D02*
G75*
G02*
X276131972Y-41222614I-28J-1000000D01*
G01*
X115579781Y-97368054D02*
G75*
G02*
X116579810Y-96368083I1000000J-29D01*
G01*
X131960495Y-116418533D02*
X131960152Y-128418540D01*
X116579409Y-110368091D02*
G75*
G02*
X115579437Y-109368061I29J1000001D01*
G01*
X131960152Y-128418539D02*
G75*
G02*
X130960123Y-129418512I-1000001J28D01*
G01*
X72429415Y-109366828D02*
G75*
G02*
X71429385Y-110366800I-1000001J29D01*
G01*
X71429385Y-110366800D02*
X59429379Y-110366456D01*
X138104966Y-91318695D02*
X126104959Y-91318352D01*
X268131625Y-53222392D02*
X253255617Y-53221967D01*
X183255390Y-77319979D02*
X195255397Y-77320322D01*
X45143360Y-58266020D02*
X57143367Y-58266363D01*
X58142996Y-71266398D02*
G75*
G02*
X57142967Y-72266371I-1000001J28D01*
G01*
X153679458Y-109369150D02*
X153679801Y-97369144D01*
X196255369Y-78320351D02*
X196255026Y-90320357D01*
X138105366Y-77318687D02*
G75*
G02*
X139105338Y-78318717I-29J-1000001D01*
G01*
X253827977Y-39721976D02*
G75*
G02*
X252961937Y-40221951I-866011J500025D01*
G01*
X139105338Y-78318717D02*
X139104995Y-90318723D01*
X195255397Y-77320321D02*
G75*
G02*
X196255369Y-78320351I-29J-1000001D01*
G01*
X196255025Y-90320358D02*
G75*
G02*
X195254996Y-91320329I-1000000J29D01*
G01*
X115579437Y-109368061D02*
X115579781Y-97368055D01*
X268426047Y-40222393D02*
X275132000Y-40222585D01*
X182255018Y-90319957D02*
X182255361Y-78319950D01*
X57143367Y-58266362D02*
G75*
G02*
X58143339Y-59266392I-29J-1000001D01*
G01*
X128579416Y-110368433D02*
X116579409Y-110368090D01*
X129579444Y-109368461D02*
G75*
G02*
X128579416Y-110368433I-1000000J28D01*
G01*
X154456425Y-121419807D02*
G75*
G02*
X154614210Y-121252163I167643J291D01*
G01*
X160116846Y-120611176D02*
X160116846Y-121094382D01*
X154456425Y-119802546D02*
G75*
G02*
X154614210Y-119634902I167643J291D01*
G01*
X160767691Y-119634902D02*
X154614210Y-119634902D01*
X160116845Y-121094383D02*
G75*
G02*
X159959060Y-121252163I-157781J1D01*
G01*
X160925476Y-121903013D02*
X160925476Y-119802545D01*
X164120552Y-119802545D02*
X164120552Y-123520274D01*
X159959060Y-120443533D02*
G75*
G02*
X160116846Y-120611176I-9857J-167353D01*
G01*
X163962766Y-123678056D02*
X161852438Y-123678056D01*
X154614209Y-123678055D02*
G75*
G02*
X154456425Y-123520274I-3J157781D01*
G01*
X163962766Y-119634902D02*
G75*
G02*
X164120552Y-119802545I-9857J-167353D01*
G01*
X154456425Y-119802545D02*
X154456425Y-120285751D01*
X160925477Y-121903014D02*
G75*
G02*
X160767691Y-122060795I-157782J1D01*
G01*
X154614210Y-120443533D02*
X159959060Y-120443533D01*
X154456425Y-121419806D02*
X154456425Y-123520274D01*
X160767690Y-122869425D02*
G75*
G02*
X160925476Y-123037068I-9857J-167353D01*
G01*
X160925476Y-123520274D02*
X160925476Y-123037068D01*
X160925477Y-123520275D02*
G75*
G02*
X160767691Y-123678056I-157782J1D01*
G01*
X159959060Y-121252163D02*
X154614210Y-121252163D01*
X154614209Y-120443532D02*
G75*
G02*
X154456425Y-120285751I-3J157781D01*
G01*
X160767690Y-119634902D02*
G75*
G02*
X160925476Y-119802545I-9857J-167353D01*
G01*
X164120552Y-123520275D02*
G75*
G02*
X163962766Y-123678056I-157782J1D01*
G01*
X154614210Y-123678056D02*
X160767691Y-123678056D01*
X187016431Y-128420114D02*
X187016774Y-116420107D01*
X246255557Y-55221768D02*
G75*
G02*
X245255584Y-54221739I28J1000001D01*
G01*
X276216996Y-110372654D02*
X264216989Y-110372311D01*
X263217017Y-109372282D02*
X263217360Y-97372275D01*
X223829868Y-96371149D02*
G75*
G02*
X224829839Y-97371178I-29J-1000000D01*
G01*
X275131572Y-55222593D02*
X270131569Y-55222450D01*
X270131569Y-55222451D02*
G75*
G02*
X269131597Y-54222421I29J1000001D01*
G01*
X224829839Y-97371178D02*
X224829496Y-109371184D01*
X245255956Y-41221731D02*
G75*
G02*
X246255985Y-40221760I1000000J-29D01*
G01*
X211829861Y-96370806D02*
X223829868Y-96371149D01*
X211829460Y-110370813D02*
G75*
G02*
X210829489Y-109370784I29J1000000D01*
G01*
X210829489Y-109370784D02*
X210829832Y-97370778D01*
X223829467Y-110371156D02*
X211829461Y-110370813D01*
X254694018Y-39222000D02*
X266694024Y-39222344D01*
X264217389Y-96372303D02*
X276217396Y-96372646D01*
X276217396Y-96372646D02*
G75*
G02*
X277217368Y-97372676I-29J-1000001D01*
G01*
X263217360Y-97372276D02*
G75*
G02*
X264217389Y-96372303I1000001J-28D01*
G01*
X188016804Y-115420135D02*
X238116831Y-115421568D01*
X277217025Y-109372681D02*
G75*
G02*
X276216996Y-110372654I-1000001J28D01*
G01*
X245255584Y-54221739D02*
X245255956Y-41221732D01*
X224829496Y-109371185D02*
G75*
G02*
X223829467Y-110371156I-1000000J29D01*
G01*
X210829832Y-97370777D02*
G75*
G02*
X211829861Y-96370806I1000000J-29D01*
G01*
X187016774Y-116420107D02*
G75*
G02*
X188016804Y-115420135I1000001J-29D01*
G01*
X238116831Y-115421567D02*
G75*
G02*
X239116803Y-116421597I-29J-1000001D01*
G01*
X253827977Y-39721975D02*
G75*
G02*
X254694018Y-39222000I866012J-500026D01*
G01*
X252255588Y-54221938D02*
G75*
G02*
X251255559Y-55221911I-1000001J28D01*
G01*
X277217368Y-97372676D02*
X277217025Y-109372682D01*
X264216990Y-110372311D02*
G75*
G02*
X263217017Y-109372282I28J1000001D01*
G01*
X115293026Y-71268033D02*
G75*
G02*
X114292997Y-72268004I-1000000J29D01*
G01*
X102293391Y-58267654D02*
X114293398Y-58267997D01*
X114293398Y-58267996D02*
G75*
G02*
X115293370Y-59268026I-29J-1000001D01*
G01*
X158443050Y-71269266D02*
X158443393Y-59269259D01*
X282268117Y-71272806D02*
X282268460Y-59272799D01*
X171443028Y-72269638D02*
X159443022Y-72269295D01*
X53379404Y-109366282D02*
G75*
G02*
X52379375Y-110366255I-1000001J28D01*
G01*
X39379396Y-109365883D02*
X39379739Y-97365876D01*
X283268089Y-72272834D02*
G75*
G02*
X282268117Y-71272806I28J1000000D01*
G01*
X172443400Y-59269660D02*
X172443057Y-71269666D01*
X101293019Y-71267632D02*
X101293362Y-59267626D01*
X102292991Y-72267662D02*
G75*
G02*
X101293019Y-71267632I29J1000001D01*
G01*
X171443429Y-58269631D02*
G75*
G02*
X172443400Y-59269660I-29J-1000000D01*
G01*
X62905297Y-78316539D02*
X62904954Y-90316545D01*
X296268467Y-59273200D02*
X296268124Y-71273206D01*
X283268489Y-58272827D02*
X295268495Y-58273170D01*
X172443057Y-71269667D02*
G75*
G02*
X171443028Y-72269638I-1000000J29D01*
G01*
X257166441Y-129422120D02*
X245166434Y-129421777D01*
X226119003Y-39221183D02*
X238119009Y-39221526D01*
X140393011Y-72268750D02*
G75*
G02*
X139393040Y-71268721I29J1000000D01*
G01*
X225118630Y-52221162D02*
X225118973Y-40221155D01*
X53379747Y-97366276D02*
X53379404Y-109366283D01*
X40379369Y-110365912D02*
G75*
G02*
X39379396Y-109365883I28J1000001D01*
G01*
X139393040Y-71268721D02*
X139393383Y-59268715D01*
X244166462Y-128421747D02*
X244166805Y-116421741D01*
X295268095Y-72273178D02*
X283268089Y-72272835D01*
X239118638Y-52221561D02*
G75*
G02*
X238118609Y-53221534I-1000001J28D01*
G01*
X296268125Y-71273206D02*
G75*
G02*
X295268095Y-72273178I-1000001J29D01*
G01*
X258166470Y-128422147D02*
G75*
G02*
X257166441Y-129422120I-1000001J28D01*
G01*
X48905289Y-78316139D02*
G75*
G02*
X49905318Y-77316166I1000001J-28D01*
G01*
X159443021Y-72269295D02*
G75*
G02*
X158443050Y-71269266I29J1000000D01*
G01*
X39379739Y-97365876D02*
G75*
G02*
X40379769Y-96365904I1000001J-29D01*
G01*
X239118981Y-40221556D02*
X239118638Y-52221562D01*
X153393048Y-71269122D02*
G75*
G02*
X152393018Y-72269094I-1000001J29D01*
G01*
X52379774Y-96366247D02*
G75*
G02*
X53379747Y-97366276I-28J-1000001D01*
G01*
X152393018Y-72269094D02*
X140393011Y-72268750D01*
X152393418Y-58269087D02*
G75*
G02*
X153393390Y-59269115I-28J-1000000D01*
G01*
X153393390Y-59269115D02*
X153393047Y-71269122D01*
X238119009Y-39221526D02*
G75*
G02*
X239118981Y-40221556I-29J-1000001D01*
G01*
X188016404Y-129420143D02*
G75*
G02*
X187016431Y-128420114I28J1000001D01*
G01*
X239116459Y-128421604D02*
G75*
G02*
X238116430Y-129421575I-1000000J29D01*
G01*
X158443393Y-59269259D02*
G75*
G02*
X159443422Y-58269288I1000000J-29D01*
G01*
X115293370Y-59268026D02*
X115293027Y-71268032D01*
X101293363Y-59267626D02*
G75*
G02*
X102293391Y-58267654I1000000J-28D01*
G01*
X257166840Y-115422112D02*
G75*
G02*
X258166813Y-116422141I-28J-1000001D01*
G01*
X282268459Y-59272799D02*
G75*
G02*
X283268489Y-58272827I1000001J-29D01*
G01*
X140393412Y-58268743D02*
X152393418Y-58269086D01*
X139393383Y-59268714D02*
G75*
G02*
X140393412Y-58268743I1000000J-29D01*
G01*
X244166805Y-116421742D02*
G75*
G02*
X245166834Y-115421769I1000001J-28D01*
G01*
X159443422Y-58269288D02*
X171443428Y-58269631D01*
X238118609Y-53221534D02*
X226118602Y-53221191D01*
X225118973Y-40221155D02*
G75*
G02*
X226119003Y-39221183I1000001J-29D01*
G01*
X40379769Y-96365904D02*
X52379775Y-96366247D01*
X52379375Y-110366255D02*
X40379368Y-110365912D01*
X49905318Y-77316166D02*
X61905325Y-77316509D01*
X61905325Y-77316509D02*
G75*
G02*
X62905297Y-78316539I-29J-1000001D01*
G01*
X245166834Y-115421769D02*
X257166841Y-115422112D01*
X258166813Y-116422141D02*
X258166470Y-128422148D01*
X239116803Y-116421597D02*
X239116460Y-128421603D01*
X295268496Y-58273171D02*
G75*
G02*
X296268467Y-59273200I-29J-1000000D01*
G01*
X245166434Y-129421777D02*
G75*
G02*
X244166462Y-128421747I29J1000001D01*
G01*
X226118603Y-53221191D02*
G75*
G02*
X225118630Y-52221162I28J1000001D01*
G01*
X238116430Y-129421575D02*
X188016403Y-129420143D01*
X114292997Y-72268004D02*
X102292991Y-72267661D01*
X62904954Y-90316544D02*
G75*
G02*
X61904925Y-91316517I-1000001J28D01*
G01*
X234355046Y-90321447D02*
G75*
G02*
X233355017Y-91321418I-1000000J29D01*
G01*
X214305406Y-77320866D02*
G75*
G02*
X215305379Y-78320895I-28J-1000001D01*
G01*
X29327356Y-142435550D02*
G75*
G02*
X27390864Y-140935550I0J2000000D01*
G01*
X201305028Y-90320502D02*
X201305371Y-78320495D01*
X201305371Y-78320495D02*
G75*
G02*
X202305401Y-77320523I1000001J-29D01*
G01*
X215305036Y-90320901D02*
G75*
G02*
X214305007Y-91320874I-1000001J28D01*
G01*
X25454373Y-139435551D02*
G75*
G02*
X27390864Y-140935550I0J-1999999D01*
G01*
X215305379Y-78320895D02*
X215305036Y-90320902D01*
X34390864Y-140935550D02*
G75*
G02*
X36327356Y-139435550I1936492J-500000D01*
G01*
X214305007Y-91320874D02*
X202305000Y-91320531D01*
X202305001Y-91320531D02*
G75*
G02*
X201305028Y-90320502I28J1000001D01*
G01*
X234355389Y-78321440D02*
X234355046Y-90321446D01*
X5314934Y-134435637D02*
X5314934Y-137435550D01*
X233355418Y-77321411D02*
G75*
G02*
X234355389Y-78321440I-29J-1000000D01*
G01*
X220355039Y-90321046D02*
X220355382Y-78321040D01*
X220355382Y-78321039D02*
G75*
G02*
X221355411Y-77321068I1000000J-29D01*
G01*
X271390976Y-139427632D02*
X285068139Y-139427632D01*
X233355017Y-91321418D02*
X221355011Y-91321075D01*
X29327356Y-142435550D02*
X32454373Y-142435550D01*
X221355010Y-91321075D02*
G75*
G02*
X220355039Y-90321046I29J1000000D01*
G01*
X48904946Y-90316145D02*
X48905289Y-78316138D01*
X221355411Y-77321068D02*
X233355417Y-77321411D01*
X49904919Y-91316174D02*
G75*
G02*
X48904946Y-90316145I28J1000001D01*
G01*
X264390976Y-142427632D02*
X267517993Y-142427632D01*
X7314934Y-139435550D02*
X25454373Y-139435550D01*
X202305401Y-77320523D02*
X214305407Y-77320866D01*
X61904925Y-91316517D02*
X49904918Y-91316174D01*
X306270274Y-115399892D02*
X306270274Y-85048683D01*
X155377414Y-140934655D02*
G75*
G02*
X153440691Y-142435550I-1936723J499105D01*
G01*
X48618536Y-52216116D02*
G75*
G02*
X47618506Y-53216088I-1000001J29D01*
G01*
X304270274Y-41951507D02*
X301268792Y-41951507D01*
X308770274Y-81340584D02*
X308770274Y-77883799D01*
X239404620Y-90326817D02*
X239404971Y-78326606D01*
X-6481250Y-38214127D02*
X-6481300Y-39951565D01*
X250770002Y-91327263D02*
G75*
G02*
X250873276Y-91321919I103246J-994657D01*
G01*
X-8481300Y-41951507D02*
X-11482569Y-41951507D01*
X297268899Y-36222811D02*
X-4481193Y-36214184D01*
X48618878Y-40216109D02*
X48618535Y-52216116D01*
X155377414Y-140934654D02*
G75*
G02*
X157314137Y-139433759I1936723J-499105D01*
G01*
X47618506Y-53216088D02*
X35618500Y-53215745D01*
X304270274Y-41951507D02*
G75*
G02*
X306270274Y-43951507I0J-2000000D01*
G01*
X-13482569Y-43951507D02*
X-13482569Y-74302716D01*
X299266206Y-130422946D02*
X299266521Y-119399835D01*
X-11482569Y-117399892D02*
X-8483571Y-117399892D01*
X299266521Y-119399835D02*
G75*
G02*
X301266521Y-117399892I2000000J-57D01*
G01*
X34390865Y-140935550D02*
G75*
G02*
X32454373Y-142435550I-1936492J500000D01*
G01*
X-8483571Y-117399892D02*
G75*
G02*
X-6483571Y-119399949I0J-2000000D01*
G01*
X-15982569Y-78010816D02*
G75*
G02*
X-14732569Y-76156766I2000000J0D01*
G01*
X307520274Y-76029749D02*
G75*
G02*
X308770274Y-77883799I-750000J-1854050D01*
G01*
X3314847Y-132435637D02*
G75*
G02*
X5314934Y-134435637I87J-2000000D01*
G01*
X264390976Y-142427632D02*
G75*
G02*
X262455278Y-140930696I0J2000000D01*
G01*
X-6483571Y-119399949D02*
X-6483887Y-130435918D01*
X240222754Y-91310169D02*
G75*
G02*
X239404620Y-90326817I181866J983323D01*
G01*
X287068139Y-137427632D02*
G75*
G02*
X285068139Y-139427632I-2000000J0D01*
G01*
X-4483800Y-132435975D02*
G75*
G02*
X-6483887Y-130435918I-87J2000000D01*
G01*
X-14732569Y-83321650D02*
G75*
G02*
X-13482569Y-85175700I-750000J-1854050D01*
G01*
X-4483800Y-132435975D02*
X3314848Y-132435637D01*
X301268792Y-41951507D02*
G75*
G02*
X299268792Y-39951450I0J2000000D01*
G01*
X299266206Y-130422947D02*
G75*
G02*
X297266292Y-132422889I-2000000J58D01*
G01*
X-13482569Y-85175700D02*
X-13482569Y-115399892D01*
X297268899Y-36222811D02*
G75*
G02*
X299268842Y-38222868I-57J-2000000D01*
G01*
X-14732569Y-83321651D02*
G75*
G02*
X-15982569Y-81467601I750000J1854050D01*
G01*
X308770274Y-81340584D02*
G75*
G02*
X307520274Y-83194634I-2000000J0D01*
G01*
X150314250Y-142435550D02*
X153440691Y-142435550D01*
X146441266Y-139435550D02*
G75*
G02*
X148377758Y-140935550I0J-2000000D01*
G01*
X269454484Y-140927632D02*
G75*
G02*
X271390976Y-139427632I1936492J-500000D01*
G01*
X34618870Y-40215709D02*
G75*
G02*
X35618900Y-39215737I1000001J-29D01*
G01*
X35618500Y-53215744D02*
G75*
G02*
X34618528Y-52215716I28J1000000D01*
G01*
X240404591Y-91326846D02*
G75*
G02*
X240222754Y-91310169I29J1000000D01*
G01*
X241873280Y-91326889D02*
X240404591Y-91326846D01*
X-15982569Y-78010816D02*
X-15982569Y-81467601D01*
X34618528Y-52215716D02*
X34618871Y-40215709D01*
X260519581Y-139433759D02*
G75*
G02*
X262455278Y-140930696I-1J-2000000D01*
G01*
X306270275Y-85048683D02*
G75*
G02*
X307520274Y-83194634I1999999J0D01*
G01*
X269454485Y-140927632D02*
G75*
G02*
X267517993Y-142427632I-1936492J500000D01*
G01*
X287068139Y-137427632D02*
X287068139Y-134423244D01*
X7314934Y-139435550D02*
G75*
G02*
X5314934Y-137435550I0J2000000D01*
G01*
X289068052Y-132423244D02*
X297266292Y-132422889D01*
X306270274Y-115399892D02*
G75*
G02*
X304270274Y-117399892I-2000000J0D01*
G01*
X35618900Y-39215737D02*
X47618906Y-39216080D01*
X47618906Y-39216081D02*
G75*
G02*
X48618878Y-40216109I-28J-1000000D01*
G01*
X240404594Y-77326636D02*
X252405615Y-77327311D01*
X307520274Y-76029750D02*
G75*
G02*
X306270274Y-74175700I750000J1854050D01*
G01*
X239404971Y-78326606D02*
G75*
G02*
X240404594Y-77326636I1000000J-30D01*
G01*
X287068139Y-134423244D02*
G75*
G02*
X289068052Y-132423244I2000000J0D01*
G01*
X157314137Y-139433759D02*
X260519580Y-139433759D01*
X36327356Y-139435550D02*
X146441266Y-139435550D01*
X301266521Y-117399892D02*
X304270274Y-117399892D01*
X150314250Y-142435550D02*
G75*
G02*
X148377758Y-140935550I0J2000000D01*
G01*
X-11482569Y-117399892D02*
G75*
G02*
X-13482569Y-115399892I0J2000000D01*
G01*
X146527902Y-119634902D02*
X153529456Y-119634902D01*
X149762423Y-123727363D02*
G75*
G02*
X149604642Y-123559719I9862J167353D01*
G01*
X150413273Y-120601315D02*
X150413273Y-123510413D01*
X153529456Y-120492840D02*
X150571054Y-120492840D01*
X98483399Y-124605023D02*
X98483399Y-125354486D01*
X94716363Y-123342770D02*
G75*
G02*
X94962897Y-123096236I246534J0D01*
G01*
X146370120Y-119792684D02*
G75*
G02*
X146527902Y-119634902I157782J0D01*
G01*
X153697097Y-119792684D02*
X153697097Y-120325197D01*
X191493068Y-71270210D02*
G75*
G02*
X190493039Y-72270183I-1000001J28D01*
G01*
X177493060Y-71269811D02*
X177493403Y-59269804D01*
X190493039Y-72270183D02*
X178493032Y-72269840D01*
X178493033Y-72269840D02*
G75*
G02*
X177493060Y-71269811I28J1000001D01*
G01*
X149437001Y-120443533D02*
X146527902Y-120443533D01*
X153697097Y-120325196D02*
G75*
G02*
X153529456Y-120492840I-177245J9601D01*
G01*
X94716364Y-125857416D02*
G75*
G02*
X94962897Y-125601020I256395J191D01*
G01*
X98483399Y-125354486D02*
G75*
G02*
X98227004Y-125601020I-256205J9861D01*
G01*
X99479396Y-123096236D02*
X94962897Y-123096236D01*
X98227004Y-124348628D02*
G75*
G02*
X98483399Y-124605023I0J-256395D01*
G01*
X149604642Y-123559719D02*
X149604642Y-120601314D01*
X94962897Y-129368055D02*
X99479396Y-129368055D01*
X146527902Y-120443533D02*
G75*
G02*
X146370120Y-120275890I9861J167353D01*
G01*
X146370120Y-120275890D02*
X146370120Y-119792684D01*
X94716364Y-123342770D02*
X94716364Y-124102094D01*
X150413273Y-120601314D02*
G75*
G02*
X150571054Y-120492840I149943J-49112D01*
G01*
X149437001Y-120443532D02*
G75*
G02*
X149604642Y-120601314I288J-167643D01*
G01*
X94962897Y-129368055D02*
G75*
G02*
X94716364Y-129121522I0J246533D01*
G01*
X94962897Y-124348628D02*
X98227004Y-124348628D01*
X191493411Y-59270204D02*
X191493068Y-71270211D01*
X94716364Y-125857415D02*
X94716364Y-129121522D01*
X162918597Y-52219383D02*
G75*
G02*
X161918568Y-53219356I-1000001J28D01*
G01*
X150413272Y-123510413D02*
G75*
G02*
X150245631Y-123727362I-173047J-39527D01*
G01*
X150245631Y-123727362D02*
X149762424Y-123727362D01*
X153529456Y-119634902D02*
G75*
G02*
X153697097Y-119792684I288J-167643D01*
G01*
X177493403Y-59269805D02*
G75*
G02*
X178493432Y-58269832I1000001J-28D01*
G01*
X161918568Y-53219356D02*
X149918561Y-53219012D01*
X149918961Y-39219005D02*
X161918968Y-39219348D01*
X99735791Y-129121521D02*
G75*
G02*
X99479396Y-129368055I-256205J9861D01*
G01*
X98227004Y-125601020D02*
X94962897Y-125601020D01*
X94962897Y-124348627D02*
G75*
G02*
X94716364Y-124102094I0J246533D01*
G01*
X99479396Y-123096236D02*
G75*
G02*
X99735791Y-123342770I190J-256395D01*
G01*
X99735791Y-126626599D02*
X99735791Y-123342770D01*
X162918940Y-40219377D02*
X162918597Y-52219384D01*
X161918967Y-39219348D02*
G75*
G02*
X162918940Y-40219377I-28J-1000001D01*
G01*
X190493438Y-58270175D02*
G75*
G02*
X191493411Y-59270204I-28J-1000001D01*
G01*
X99735791Y-129121522D02*
X99735791Y-128381920D01*
X178493432Y-58269832D02*
X190493439Y-58270175D01*
X42855315Y-77315965D02*
G75*
G02*
X43855286Y-78315994I-29J-1000000D01*
G01*
X43855286Y-78315994D02*
X43854943Y-90316000D01*
X43854943Y-90316001D02*
G75*
G02*
X42854914Y-91315972I-1000000J29D01*
G01*
X201018960Y-40220466D02*
X201018617Y-52220473D01*
X90479394Y-110367344D02*
X78479389Y-110367001D01*
X209543049Y-72270727D02*
X197543042Y-72270384D01*
X130868951Y-39218460D02*
X142868958Y-39218803D01*
X197543443Y-58270377D02*
X209543449Y-58270720D01*
X129868922Y-40218433D02*
G75*
G02*
X130868951Y-39218460I1000001J-28D01*
G01*
X200018588Y-53220445D02*
X188018582Y-53220102D01*
X206068964Y-40220611D02*
G75*
G02*
X207068992Y-39220639I1000000J-28D01*
G01*
X143868587Y-52218839D02*
G75*
G02*
X142868557Y-53218811I-1000001J29D01*
G01*
X77479417Y-109366972D02*
X77479760Y-97366965D01*
X209543449Y-58270719D02*
G75*
G02*
X210543421Y-59270749I-29J-1000001D01*
G01*
X207068592Y-53220647D02*
G75*
G02*
X206068620Y-52220617I29J1000001D01*
G01*
X30854907Y-91315629D02*
G75*
G02*
X29854936Y-90315600I29J1000000D01*
G01*
X143868930Y-40218833D02*
X143868587Y-52218839D01*
X47522978Y-115416119D02*
X56166732Y-115416366D01*
X219068599Y-53220989D02*
X207068592Y-53220646D01*
X201018618Y-52220473D02*
G75*
G02*
X200018588Y-53220445I-1000001J29D01*
G01*
X15279182Y-116415198D02*
X15278839Y-128415204D01*
X196543414Y-59270348D02*
G75*
G02*
X197543443Y-58270377I1000000J-29D01*
G01*
X15278839Y-128415203D02*
G75*
G02*
X14278810Y-129415176I-1000001J28D01*
G01*
X14279210Y-115415168D02*
G75*
G02*
X15279182Y-116415198I-29J-1000001D01*
G01*
X220068627Y-52221017D02*
G75*
G02*
X219068599Y-53220989I-1000000J28D01*
G01*
X130868552Y-53218468D02*
G75*
G02*
X129868579Y-52218439I28J1000001D01*
G01*
X187018952Y-40220066D02*
G75*
G02*
X188018982Y-39220094I1000001J-29D01*
G01*
X91479423Y-109367373D02*
G75*
G02*
X90479394Y-110367344I-1000000J29D01*
G01*
X196543070Y-71270355D02*
X196543413Y-59270349D01*
X57166762Y-114416394D02*
G75*
G02*
X56166732Y-115416366I-1000001J29D01*
G01*
X129868579Y-52218439D02*
X129868922Y-40218432D01*
X197543042Y-72270385D02*
G75*
G02*
X196543070Y-71270355I29J1000001D01*
G01*
X-1102077Y-116414730D02*
G75*
G02*
X-102048Y-115414757I1000001J-28D01*
G01*
X29854936Y-90315600D02*
X29855279Y-78315594D01*
X220068971Y-40221011D02*
X220068628Y-52221017D01*
X219068999Y-39220981D02*
G75*
G02*
X220068971Y-40221011I-29J-1000001D01*
G01*
X30855308Y-77315622D02*
X42855314Y-77315965D01*
X188018582Y-53220101D02*
G75*
G02*
X187018610Y-52220073I28J1000000D01*
G01*
X42854914Y-91315972D02*
X30854908Y-91315629D01*
X200018988Y-39220438D02*
G75*
G02*
X201018960Y-40220466I-28J-1000000D01*
G01*
X142868958Y-39218803D02*
G75*
G02*
X143868930Y-40218833I-29J-1000001D01*
G01*
X142868557Y-53218811D02*
X130868551Y-53218468D01*
X210543421Y-59270749D02*
X210543078Y-71270755D01*
X57166761Y-114416394D02*
G75*
G02*
X58166791Y-113416422I1000001J-29D01*
G01*
X-1102420Y-128414736D02*
X-1102077Y-116414729D01*
X207068992Y-39220639D02*
X219068999Y-39220982D01*
X-102048Y-115414757D02*
X14279210Y-115415168D01*
X188018982Y-39220094D02*
X200018988Y-39220437D01*
X206068620Y-52220617D02*
X206068963Y-40220611D01*
X91479768Y-97367366D02*
X91479423Y-109367372D01*
X14278810Y-129415176D02*
X-102448Y-129414765D01*
X187018610Y-52220073D02*
X187018953Y-40220066D01*
X29855279Y-78315593D02*
G75*
G02*
X30855308Y-77315622I1000000J-29D01*
G01*
X63166794Y-113416565D02*
G75*
G02*
X64166765Y-114416594I-29J-1000000D01*
G01*
X238023225Y-110371563D02*
G75*
G02*
X237023253Y-109371533I29J1000001D01*
G01*
X210543077Y-71270755D02*
G75*
G02*
X209543049Y-72270727I-1000000J28D01*
G01*
X-102448Y-129414764D02*
G75*
G02*
X-1102420Y-128414736I28J1000000D01*
G01*
X64166765Y-114416594D02*
X64166394Y-127416601D01*
X185729447Y-110370067D02*
X173729440Y-110369724D01*
X109529805Y-96367881D02*
G75*
G02*
X110529778Y-97367910I-28J-1000001D01*
G01*
X238023625Y-96371555D02*
X250023632Y-96371898D01*
X237023253Y-109371533D02*
X237023596Y-97371527D01*
X60388624Y-128916494D02*
G75*
G02*
X59522584Y-129416469I-866011J500025D01*
G01*
X15568861Y-40215164D02*
G75*
G02*
X16568890Y-39215193I1000000J-29D01*
G01*
X85718527Y-53217177D02*
X73718520Y-53216834D01*
X250023632Y-96371897D02*
G75*
G02*
X251023604Y-97371927I-29J-1000001D01*
G01*
X296268669Y-52223195D02*
G75*
G02*
X295268640Y-53223168I-1000001J28D01*
G01*
X29568868Y-40215565D02*
X29568525Y-52215571D01*
X295268640Y-53223168D02*
X283268633Y-53222825D01*
X283268634Y-53222825D02*
G75*
G02*
X282268661Y-52222796I28J1000001D01*
G01*
X46522606Y-128416097D02*
X46522949Y-116416091D01*
X97529400Y-110367546D02*
G75*
G02*
X96529427Y-109367517I28J1000001D01*
G01*
X173729440Y-110369725D02*
G75*
G02*
X172729468Y-109369695I29J1000001D01*
G01*
X46522949Y-116416090D02*
G75*
G02*
X47522978Y-115416119I1000000J-29D01*
G01*
X72718548Y-52216805D02*
X72718891Y-40216798D01*
X15568517Y-52215171D02*
X15568860Y-40215165D01*
X59522584Y-129416469D02*
X47522578Y-129416126D01*
X96529770Y-97367511D02*
G75*
G02*
X97529799Y-96367538I1000001J-28D01*
G01*
X181968607Y-52219929D02*
G75*
G02*
X180968578Y-53219900I-1000000J29D01*
G01*
X86718899Y-40217199D02*
X86718556Y-52217205D01*
X16568890Y-39215193D02*
X28568896Y-39215536D01*
X237023597Y-97371527D02*
G75*
G02*
X238023625Y-96371555I1000000J-28D01*
G01*
X283269033Y-39222817D02*
X295269040Y-39223160D01*
X186729475Y-109370095D02*
G75*
G02*
X185729447Y-110370067I-1000000J28D01*
G01*
X282269004Y-40222790D02*
G75*
G02*
X283269033Y-39222817I1000001J-28D01*
G01*
X60388623Y-128916493D02*
G75*
G02*
X61254664Y-128416518I866012J-500026D01*
G01*
X73718520Y-53216835D02*
G75*
G02*
X72718548Y-52216805I29J1000001D01*
G01*
X109529406Y-110367889D02*
X97529399Y-110367546D01*
X181968950Y-40219922D02*
X181968607Y-52219928D01*
X282268661Y-52222796D02*
X282269004Y-40222789D01*
X63166365Y-128416573D02*
X61254664Y-128416518D01*
X29568524Y-52215571D02*
G75*
G02*
X28568496Y-53215543I-1000000J28D01*
G01*
X110529435Y-109367916D02*
G75*
G02*
X109529406Y-110367889I-1000001J28D01*
G01*
X167968600Y-52219528D02*
X167968943Y-40219521D01*
X28568896Y-39215535D02*
G75*
G02*
X29568868Y-40215565I-29J-1000001D01*
G01*
X180968979Y-39219893D02*
G75*
G02*
X181968950Y-40219922I-29J-1000000D01*
G01*
X167968943Y-40219521D02*
G75*
G02*
X168968972Y-39219550I1000000J-29D01*
G01*
X86718555Y-52217205D02*
G75*
G02*
X85718527Y-53217177I-1000000J28D01*
G01*
X97529799Y-96367538D02*
X109529806Y-96367881D01*
X72718892Y-40216799D02*
G75*
G02*
X73718920Y-39216827I1000000J-28D01*
G01*
X173729841Y-96369717D02*
X185729847Y-96370060D01*
X180968578Y-53219900D02*
X168968572Y-53219557D01*
X172729812Y-97369688D02*
G75*
G02*
X173729841Y-96369717I1000000J-29D01*
G01*
X110529778Y-97367910D02*
X110529435Y-109367917D01*
X168968571Y-53219557D02*
G75*
G02*
X167968600Y-52219528I29J1000000D01*
G01*
X96529427Y-109367517D02*
X96529770Y-97367510D01*
X295269039Y-39223160D02*
G75*
G02*
X296269012Y-40223189I-28J-1000001D01*
G01*
X47522577Y-129416126D02*
G75*
G02*
X46522606Y-128416097I29J1000000D01*
G01*
X168968972Y-39219550D02*
X180968978Y-39219893D01*
X64166393Y-127416601D02*
G75*
G02*
X63166365Y-128416573I-1000000J28D01*
G01*
X185729847Y-96370059D02*
G75*
G02*
X186729819Y-97370089I-29J-1000001D01*
G01*
X16568489Y-53215201D02*
G75*
G02*
X15568517Y-52215171I29J1000001D01*
G01*
X28568496Y-53215543D02*
X16568489Y-53215200D01*
X85718927Y-39217169D02*
G75*
G02*
X86718899Y-40217199I-29J-1000001D01*
G01*
X186729819Y-97370089D02*
X186729476Y-109370095D01*
X73718920Y-39216827D02*
X85718927Y-39217170D01*
X250023231Y-110371905D02*
X238023225Y-110371562D01*
X172729468Y-109369695D02*
X172729811Y-97369688D01*
X296269012Y-40223189D02*
X296268669Y-52223196D01*
X251023260Y-109371934D02*
G75*
G02*
X250023231Y-110371905I-1000000J29D01*
G01*
X251023604Y-97371927D02*
X251023261Y-109371933D01*
X229593089Y-71271300D02*
G75*
G02*
X228593059Y-72271272I-1000001J29D01*
G01*
X228593459Y-58271265D02*
G75*
G02*
X229593431Y-59271293I-28J-1000000D01*
G01*
X264216845Y-115422314D02*
X276216851Y-115422657D01*
X296266491Y-128423237D02*
G75*
G02*
X295266461Y-129423209I-1000001J29D01*
G01*
X91768558Y-52217350D02*
X91768901Y-40217343D01*
X78479789Y-96366994D02*
X90479795Y-96367337D01*
X277216480Y-128422693D02*
G75*
G02*
X276216451Y-129422664I-1000000J29D01*
G01*
X58166791Y-113416422D02*
X63166793Y-113416565D01*
X263216816Y-116422285D02*
G75*
G02*
X264216845Y-115422314I1000000J-29D01*
G01*
X216593453Y-58270921D02*
X228593459Y-58271264D01*
X17661180Y-90315252D02*
G75*
G02*
X16661150Y-91315224I-1000001J29D01*
G01*
X216593053Y-72270928D02*
G75*
G02*
X215593081Y-71270900I28J1000000D01*
G01*
X91768901Y-40217343D02*
G75*
G02*
X92768931Y-39217371I1000001J-29D01*
G01*
X104768537Y-53217722D02*
X92768530Y-53217379D01*
X-1100987Y-78314709D02*
G75*
G02*
X-100959Y-77314737I1000000J-28D01*
G01*
X228593059Y-72271272D02*
X216593053Y-72270929D01*
X82243009Y-71267088D02*
X82243352Y-59267081D01*
X104768937Y-39217715D02*
G75*
G02*
X105768909Y-40217743I-28J-1000000D01*
G01*
X96243359Y-59267481D02*
X96243016Y-71267488D01*
X163205008Y-90319412D02*
X163205351Y-78319406D01*
X215593423Y-59270893D02*
G75*
G02*
X216593453Y-58270921I1000001J-29D01*
G01*
X163205351Y-78319405D02*
G75*
G02*
X164205380Y-77319434I1000000J-29D01*
G01*
X276216852Y-115422657D02*
G75*
G02*
X277216823Y-116422686I-29J-1000000D01*
G01*
X105768909Y-40217743D02*
X105768566Y-52217750D01*
X83243381Y-58267109D02*
X95243387Y-58267452D01*
X264216444Y-129422321D02*
G75*
G02*
X263216473Y-128422292I29J1000000D01*
G01*
X67668546Y-52216661D02*
G75*
G02*
X66668516Y-53216633I-1000001J29D01*
G01*
X54668508Y-53216289D02*
G75*
G02*
X53668537Y-52216260I29J1000000D01*
G01*
X177205358Y-78319806D02*
X177205015Y-90319813D01*
X-100959Y-77314737D02*
X16661550Y-77315216D01*
X77479761Y-97366966D02*
G75*
G02*
X78479789Y-96366994I1000000J-28D01*
G01*
X78479388Y-110367001D02*
G75*
G02*
X77479417Y-109366972I29J1000000D01*
G01*
X176204986Y-91319785D02*
X164204980Y-91319441D01*
X92768531Y-53217379D02*
G75*
G02*
X91768558Y-52217350I28J1000001D01*
G01*
X296266833Y-116423230D02*
X296266490Y-128423237D01*
X164204979Y-91319441D02*
G75*
G02*
X163205008Y-90319412I29J1000000D01*
G01*
X-1101331Y-90314715D02*
X-1100988Y-78314709D01*
X177205016Y-90319813D02*
G75*
G02*
X176204986Y-91319785I-1000001J29D01*
G01*
X283266855Y-115422858D02*
X295266861Y-115423201D01*
X66668516Y-53216633D02*
X54668509Y-53216289D01*
X92768931Y-39217371D02*
X104768937Y-39217714D01*
X164205380Y-77319434D02*
X176205386Y-77319777D01*
X90479795Y-96367335D02*
G75*
G02*
X91479768Y-97367366I-29J-1000002D01*
G01*
X-101359Y-91314745D02*
G75*
G02*
X-1101331Y-90314715I29J1000001D01*
G01*
X16661150Y-91315224D02*
X-101359Y-91314744D01*
X105768566Y-52217749D02*
G75*
G02*
X104768537Y-53217722I-1000001J28D01*
G01*
X263216473Y-128422292D02*
X263216816Y-116422286D01*
X215593081Y-71270900D02*
X215593424Y-59270893D01*
X96243017Y-71267488D02*
G75*
G02*
X95242987Y-72267460I-1000001J29D01*
G01*
X282266483Y-128422837D02*
X282266826Y-116422830D01*
X295266861Y-115423202D02*
G75*
G02*
X296266833Y-116423230I-28J-1000000D01*
G01*
X83242981Y-72267116D02*
G75*
G02*
X82243009Y-71267088I28J1000000D01*
G01*
X17661522Y-78315245D02*
X17661179Y-90315252D01*
X16661551Y-77315216D02*
G75*
G02*
X17661522Y-78315245I-29J-1000000D01*
G01*
X229593431Y-59271293D02*
X229593088Y-71271300D01*
X276216451Y-129422664D02*
X264216444Y-129422321D01*
X95242987Y-72267460D02*
X83242981Y-72267117D01*
X176205386Y-77319778D02*
G75*
G02*
X177205358Y-78319806I-28J-1000000D01*
G01*
X277216823Y-116422686D02*
X277216480Y-128422692D01*
X95243387Y-58267453D02*
G75*
G02*
X96243359Y-59267481I-28J-1000000D01*
G01*
X82243351Y-59267081D02*
G75*
G02*
X83243381Y-58267109I1000001J-29D01*
G01*
X282266825Y-116422830D02*
G75*
G02*
X283266855Y-115422858I1000001J-29D01*
G01*
X283266455Y-129422865D02*
G75*
G02*
X282266483Y-128422837I28J1000000D01*
G01*
X295266461Y-129423209D02*
X283266455Y-129422866D01*
X95968755Y-127878991D02*
X95968755Y-127129528D01*
X167394520Y-121143688D02*
G75*
G02*
X167236735Y-121301470I-157782J0D01*
G01*
X258837362Y-60364500D02*
G75*
G02*
X259837391Y-59364529I1000000J-29D01*
G01*
X96225150Y-128135386D02*
G75*
G02*
X95968755Y-127878991I0J256395D01*
G01*
X165954764Y-122060795D02*
X167246598Y-122060795D01*
X-10682569Y-79675700D02*
G75*
G03*
X-10682569Y-79675700I-1800000J0D01*
G01*
X164968628Y-121469113D02*
X164968628Y-123520274D01*
X168045365Y-119634902D02*
X165086960Y-119634902D01*
X99479396Y-128135387D02*
X96225150Y-128135387D01*
X167404383Y-122228438D02*
X167404383Y-123520274D01*
X165787123Y-122228437D02*
G75*
G02*
X165954764Y-122060795I177244J-9602D01*
G01*
X165136268Y-120492839D02*
G75*
G02*
X164919319Y-120285751I-56731J157751D01*
G01*
X272836677Y-90240924D02*
X259836502Y-90240924D01*
X164919318Y-119802545D02*
G75*
G02*
X165086960Y-119634902I177245J-9602D01*
G01*
X168213014Y-123520274D02*
G75*
G02*
X168055229Y-123678056I-157782J0D01*
G01*
X167572024Y-123678056D02*
X168055229Y-123678056D01*
X274336886Y-66230394D02*
G75*
G02*
X274836557Y-67096258I-500329J-865835D01*
G01*
X168213014Y-123520274D02*
X168213014Y-119802545D01*
X165787122Y-123520274D02*
X165787122Y-122228438D01*
X167394520Y-120660483D02*
X167394520Y-121143689D01*
X165787123Y-123520275D02*
G75*
G02*
X165629337Y-123678056I-157782J1D01*
G01*
X164968629Y-121469112D02*
G75*
G02*
X165136270Y-121301470I177244J-9602D01*
G01*
X259837391Y-59364529D02*
X272837391Y-59364909D01*
X167236735Y-121301470D02*
X165136270Y-121301470D01*
X167236734Y-120492840D02*
G75*
G02*
X167394520Y-120660483I-9857J-167353D01*
G01*
X165136270Y-120492840D02*
X167236735Y-120492840D01*
X153569067Y-138434655D02*
G75*
G03*
X153569067Y-138434655I-1800000J0D01*
G01*
X273837362Y-60364939D02*
X273837216Y-65364529D01*
X272837392Y-59364909D02*
G75*
G02*
X273837362Y-60364939I-30J-1000000D01*
G01*
X21329633Y-110365367D02*
G75*
G02*
X20329662Y-109365367I29J1000000D01*
G01*
X274336887Y-66230393D02*
G75*
G02*
X273837216Y-65364529I500329J865835D01*
G01*
X267690976Y-138427632D02*
G75*
G03*
X267690976Y-138427632I-1800000J0D01*
G01*
X167572024Y-123678056D02*
G75*
G02*
X167404383Y-123520274I-288J167643D01*
G01*
X168045365Y-119634902D02*
G75*
G02*
X168213014Y-119802545I6J-167643D01*
G01*
X32627328Y-138435550D02*
G75*
G03*
X32627328Y-138435550I-1800000J0D01*
G01*
X167246599Y-122060795D02*
G75*
G02*
X167404383Y-122228438I-9858J-167352D01*
G01*
X165136270Y-123678056D02*
X165629337Y-123678056D01*
X307070274Y-79675700D02*
G75*
G03*
X307070274Y-79675700I-1800000J0D01*
G01*
X165136269Y-123678056D02*
G75*
G02*
X164968628Y-123520274I-288J167643D01*
G01*
X96225150Y-126882995D02*
X99479396Y-126882995D01*
X99479395Y-128135387D02*
G75*
G02*
X99735791Y-128381920I191J-256395D01*
G01*
X260836699Y-82240529D02*
G75*
G02*
X259836681Y-83240529I-1000000J0D01*
G01*
X22861109Y-110365411D02*
G75*
G02*
X22962750Y-110370593I-29J-1000001D01*
G01*
X99735792Y-126626599D02*
G75*
G02*
X99479396Y-126882995I-256396J0D01*
G01*
X164919319Y-119802545D02*
X164919319Y-120285751D01*
X95968755Y-127129529D02*
G75*
G02*
X96225150Y-126882995I256205J-9861D01*
G01*
X147829600Y-122869425D02*
X145719271Y-122869425D01*
X89897035Y-126854432D02*
X91955185Y-126853411D01*
X89696937Y-125847553D02*
G75*
G02*
X89943470Y-125601020I246533J0D01*
G01*
X148796012Y-123510413D02*
G75*
G02*
X148628370Y-123678056I-177245J9602D01*
G01*
X145551630Y-123027207D02*
G75*
G02*
X145719271Y-122869425I167353J-9861D01*
G01*
X144742996Y-122218576D02*
G75*
G02*
X144920500Y-122060795I167370J-9555D01*
G01*
X89696936Y-125847553D02*
X89696936Y-126654432D01*
X145719271Y-123678056D02*
G75*
G02*
X145551630Y-123510412I9604J177245D01*
G01*
X144742996Y-123510413D02*
X144742996Y-122218576D01*
X92201719Y-127099944D02*
X92201719Y-127869130D01*
X148796012Y-123510412D02*
X148796012Y-121409945D01*
X144920500Y-122060795D02*
X147829600Y-122060795D01*
X147829600Y-122060794D02*
G75*
G02*
X147997241Y-122218576I288J-167643D01*
G01*
X89696935Y-128381920D02*
G75*
G02*
X89982915Y-128115663I245452J23077D01*
G01*
X91955185Y-128115663D02*
X89982915Y-128115663D01*
X147997240Y-122701782D02*
G75*
G02*
X147829600Y-122869425I-177244J9601D01*
G01*
X145551630Y-123027206D02*
X145551630Y-123510412D01*
X92201718Y-127869130D02*
G75*
G02*
X91955185Y-128115663I-246533J0D01*
G01*
X148628371Y-121252163D02*
G75*
G02*
X148796012Y-121409945I288J-167643D01*
G01*
X91955185Y-126853410D02*
G75*
G02*
X92201719Y-127099944I0J-246534D01*
G01*
X89897035Y-126854432D02*
G75*
G02*
X89696936Y-126654432I-99J200000D01*
G01*
X145719271Y-123678056D02*
X148628370Y-123678056D01*
X147997241Y-122218576D02*
X147997241Y-122701782D01*
X137583654Y-122869425D02*
G75*
G02*
X137416012Y-122711644I-289J167643D01*
G01*
X141538057Y-123520274D02*
G75*
G02*
X141380275Y-123678056I-157782J0D01*
G01*
X137258231Y-121252163D02*
G75*
G02*
X137416012Y-121419807I-9862J-167353D01*
G01*
X141538057Y-119802545D02*
X141538057Y-123520274D01*
X141380275Y-119634902D02*
G75*
G02*
X141538057Y-119802545I-9861J-167353D01*
G01*
X136824328Y-120443533D02*
G75*
G02*
X136656687Y-120285751I-288J167643D01*
G01*
X137583653Y-122869425D02*
X140542058Y-122869425D01*
X140542058Y-120443533D02*
X136824329Y-120443533D01*
X137416012Y-121419807D02*
X137416012Y-122711644D01*
X135867780Y-122179131D02*
X135867780Y-125137536D01*
X141380275Y-123678056D02*
X136853915Y-123678056D01*
X136656687Y-119802546D02*
G75*
G02*
X136824332Y-119634902I177245J-9601D01*
G01*
X140699840Y-122711644D02*
X140699840Y-120611176D01*
X135867780Y-122179130D02*
G75*
G02*
X136045285Y-122060795I167453J-58884D01*
G01*
X136528493Y-122060795D02*
X136045285Y-122060795D01*
X136528493Y-122060794D02*
G75*
G02*
X136686274Y-122228438I-9862J-167353D01*
G01*
X136686274Y-123520274D02*
X136686274Y-122228438D01*
X136853915Y-123678056D02*
G75*
G02*
X136686274Y-123520274I-288J167643D01*
G01*
X136824332Y-119634902D02*
X141380275Y-119634902D01*
X140542059Y-120443532D02*
G75*
G02*
X140699840Y-120611176I-9862J-167353D01*
G01*
X140699840Y-122711643D02*
G75*
G02*
X140542058Y-122869425I-157782J0D01*
G01*
X136656687Y-120285751D02*
X136656687Y-119802545D01*
X136045285Y-121252164D02*
X137258230Y-121252164D01*
X161694653Y-123520274D02*
X161694653Y-121419807D01*
X163193589Y-120443533D02*
G75*
G02*
X163351375Y-120611176I-9857J-167353D01*
G01*
X162345505Y-121252164D02*
G75*
G02*
X162503291Y-121419807I-9857J-167353D01*
G01*
X89943469Y-129368055D02*
G75*
G02*
X89696936Y-129131383I-197J246533D01*
G01*
X161891891Y-120443532D02*
G75*
G02*
X161734107Y-120285751I-3J157781D01*
G01*
X163351375Y-122711644D02*
X163351375Y-120611176D01*
X161852437Y-123678055D02*
G75*
G02*
X161694653Y-123520274I-3J157781D01*
G01*
X93463972Y-129121522D02*
X93463972Y-125847553D01*
X89943470Y-129368055D02*
X93207577Y-129368055D01*
X163351375Y-122711643D02*
G75*
G02*
X163193590Y-122869425I-157782J0D01*
G01*
X162670932Y-122869425D02*
X163193590Y-122869425D01*
X161852438Y-121252164D02*
X162345506Y-121252164D01*
X161694652Y-121419807D02*
G75*
G02*
X161852438Y-121252164I167643J290D01*
G01*
X93207576Y-125601019D02*
G75*
G02*
X93463972Y-125847553I190J-256396D01*
G01*
X93207577Y-125601020D02*
X89943470Y-125601020D01*
X163193590Y-120443533D02*
X161891892Y-120443533D01*
X162670932Y-122869425D02*
G75*
G02*
X162503291Y-122711644I-9860J157473D01*
G01*
X89696936Y-128381920D02*
X89696936Y-129131383D01*
X162503291Y-121419807D02*
X162503291Y-122711644D01*
X161891884Y-119634902D02*
X163962766Y-119634902D01*
X161734105Y-119802546D02*
G75*
G02*
X161891884Y-119634902I167644J291D01*
G01*
X161734107Y-120285751D02*
X161734107Y-119802545D01*
X93463971Y-129121521D02*
G75*
G02*
X93207577Y-129368055I-256205J9861D01*
G01*
X98483399Y-120305474D02*
G75*
G02*
X98227004Y-120561869I-256395J0D01*
G01*
X99479396Y-115562164D02*
G75*
G02*
X99735791Y-115808698I190J-256395D01*
G01*
X98483399Y-117051228D02*
X98483399Y-120305474D01*
X90978912Y-117830274D02*
X90978912Y-115762164D01*
X91235306Y-118076808D02*
G75*
G02*
X90978912Y-117830274I-189J256395D01*
G01*
X92181996Y-119575734D02*
X92181996Y-121548004D01*
X93207577Y-118076808D02*
X91235307Y-118076808D01*
X92438391Y-121794538D02*
X99479396Y-121794538D01*
X92458114Y-116794833D02*
X98227004Y-116794833D01*
X93207577Y-118076808D02*
G75*
G02*
X93463972Y-118333203I0J-256395D01*
G01*
X93463972Y-120305473D02*
X93463972Y-118333203D01*
X99735791Y-121548004D02*
X99735791Y-115808698D01*
X98227004Y-120561869D02*
X93710506Y-120561869D01*
X98227004Y-116794833D02*
G75*
G02*
X98483399Y-117051228I0J-256395D01*
G01*
X92201719Y-115762164D02*
G75*
G02*
X92401719Y-115562164I200000J0D01*
G01*
X99735791Y-121548004D02*
G75*
G02*
X99479396Y-121794538I-256205J9861D01*
G01*
X93710506Y-120561869D02*
G75*
G02*
X93463972Y-120305473I-197J246534D01*
G01*
X92438391Y-121794539D02*
G75*
G02*
X92181996Y-121548004I-189J256396D01*
G01*
X99479396Y-115562164D02*
X92401719Y-115562164D01*
X90778912Y-115562164D02*
X89943470Y-115562164D01*
X92458113Y-116794833D02*
G75*
G02*
X92201719Y-116548299I-189J256395D01*
G01*
X92201719Y-115762164D02*
X92201719Y-116548299D01*
X90778912Y-115562164D02*
G75*
G02*
X90978912Y-115762164I0J-200000D01*
G01*
X91935463Y-119329201D02*
G75*
G02*
X92181996Y-119575734I0J-246533D01*
G01*
X91186000Y-119329200D02*
X91935463Y-119329200D01*
M02*
