<svg version="1.1" xmlns="http://www.w3.org/2000/svg" xmlns:xlink="http://www.w3.org/1999/xlink" stroke-linecap="round" stroke-linejoin="round" stroke-width="0" fill-rule="evenodd" width="358.1156310001mm" height="126.40730400000001mm" viewBox="-17624.1880001 -161659.799 358115.6310001 126407.304" id="aLZl2jz_KJeh3-LLxqd4"><g transform="translate(0,-196912.294) scale(1,-1)" fill="currentColor" stroke="currentColor"><path d="M 322648.476 -103694.496 322603.24 -103694.496 322467.532 -103769.66 322394.174 -103916.118 322394.69 -103951.55 322394.69 -103951.55 322394.69 -104713.037 322394.69 -104757.826 322468.822 -104892.201 322603.24 -104966.393 322648.476 -104966.393 324679.968 -104966.393 324714.97 -104966.393 324859.192 -105041.041 324933.84 -105175.881 324933.84 -105221.143 324933.84 -108520.326 324933.84 -108565.124 324859.192 -108699.499 324724.774 -108773.682 324679.968 -108773.682 323917.578 -108773.682 323872.772 -108773.682 323738.44 -108699.499 323664.222 -108565.124 323664.222 -108520.326 323664.222 -106487.914 323663.792 -106452.448 323587.768 -106306.867 323441.224 -106233.621 323406.222 -106234.094 322644.778 -106234.094 322599.972 -106234.094 322465.64 -106308.277 322391.422 -106442.652 322391.422 -106487.914 322391.422 -109788.964 322390.992 -109824.422 322466.586 -109969.994 322613.044 -110043.713 322648.476 -110043.249 325949.586 -110043.249 325994.392 -110043.249 326128.724 -109968.592 326202.942 -109823.957 326202.942 -109788.964 326202.942 -103951.55 326203.372 -103916.118 326130.186 -103769.66 325994.392 -103694.496 325949.586 -103694.496 322648.476 -103694.496 M 309446.616 -108772.753 307411.942 -108772.753 307411.942 -108772.753 307367.136 -108772.753 307232.718 -108698.561 307158.586 -108554.864 307158.586 -108520.326 307158.586 -107746.266 307158.586 -107701.477 307232.718 -107567.102 307367.136 -107492.919 307411.942 -107492.919 309443.778 -107492.919 309478.78 -107492.919 309624.894 -107418.726 309699.972 -107282.958 309699.972 -107238.161 309699.972 -106476.708 309699.972 -106431.911 309625.84 -106297.536 309491.422 -106223.352 309446.616 -106223.352 306142.84 -106223.352 306107.322 -106222.888 305962.669 -106297.071 305888.022 -106431.446 305888.022 -106476.708 305888.022 -109791.286 305888.538 -109825.823 305963.616 -109969.521 306098.034 -110043.249 306142.84 -110043.249 309443.778 -110043.249 309478.78 -110043.249 309624.894 -109969.056 309699.972 -109833.753 309699.972 -109788.964 309699.972 -109027.503 309699.972 -108982.241 309625.84 -108847.401 309481.618 -108772.753 309446.616 -108772.753 M 301870.274 -106223.352 301825.468 -106223.352 294715.332 -106223.352 294679.9 -106222.888 294535.248 -106297.071 294461.03 -106431.446 294461.03 -106476.708 294461.03 -106476.708 294461.03 -109774.499 294461.03 -109819.287 294535.248 -109954.127 294670.096 -110028.783 294715.332 -110028.783 295476.776 -110028.783 295521.582 -110028.783 295656.43 -109954.127 295731.078 -109819.287 295731.078 -109774.499 295731.078 -107746.266 295731.078 -107701.477 295805.296 -107567.102 295939.628 -107492.919 295984.95 -107492.919 300553.7 -107492.919 300598.42 -107492.919 300732.838 -107567.102 300807.486 -107711.281 300807.916 -107746.266 300807.916 -108508.656 300807.486 -108543.658 300732.838 -108687.828 300598.42 -108762.012 300553.7 -108762.012 297253.966 -108762.012 297219.05 -108762.012 297074.828 -108836.669 297000.696 -108971.508 297000.696 -109016.761 297000.696 -109774.499 297000.696 -109819.287 297074.828 -109953.662 297219.05 -110028.319 297253.966 -110028.783 301822.716 -110028.783 301857.718 -110028.783 302003.746 -109954.591 302079.34 -109819.287 302079.34 -109774.499 302079.34 -106476.708 302079.34 -106431.911 302004.692 -106297.536 301870.274 -106223.352 M 290653.724 -103916.118 290580.022 -103769.66 290444.228 -103694.496 290399.422 -103694.496 283289.243 -103694.496 283243.989 -103694.496 283108.213 -103769.66 283034.958 -103916.118 283035.422 -103951.55 283035.422 -103951.55 283035.422 -104713.037 283035.422 -104757.826 283109.614 -104892.201 283243.989 -104966.393 283289.243 -104966.393 289129.89 -104966.393 289164.892 -104966.393 289309.028 -105041.041 289383.246 -105175.881 289383.246 -105221.143 289383.246 -108520.326 289383.246 -108565.124 289309.028 -108699.499 289174.696 -108773.682 289129.89 -108773.682 284561.148 -108773.682 284525.69 -108774.147 284380.11 -108700.427 284304.989 -108565.124 284304.989 -108520.326 284304.989 -106487.914 284304.524 -106452.448 284229.868 -106308.277 284095.493 -106234.094 284050.704 -106234.094 282018.747 -106234.094 281973.494 -106234.094 281838.655 -106159.437 281764.463 -106024.598 281764.463 -105979.809 281764.463 -103951.55 281764.463 -103916.118 281691.208 -103770.52 281546.573 -103694.496 281511.58 -103694.496 280749.186 -103694.496 280713.727 -103694.496 280569.086 -103770.09 280495.368 -103916.118 280495.834 -103951.55 280495.834 -112328.553 280495.834 -112373.346 280570.02 -112507.721 280704.395 -112581.907 280749.186 -112581.907 281511.58 -112581.907 281556.368 -112581.907 281690.743 -112507.721 281765.4 -112373.346 281765.4 -112328.553 281765.4 -107759.802 281764.927 -107724.336 281838.655 -107578.772 281983.29 -107503.651 282018.747 -107503.651 282780.209 -107503.651 282824.997 -107503.651 282959.845 -107577.844 283034.493 -107712.683 283034.493 -107757.936 283034.493 -109788.964 283034.029 -109823.957 283108.677 -109968.592 283253.785 -110043.249 283289.243 -110043.249 290399.422 -110043.249 290444.228 -110043.249 290579.076 -109968.592 290653.724 -109833.753 290653.724 -109788.964 290653.724 -103951.55 290653.724 -103916.118 M 298480.584 -104952.393 298525.39 -104952.393 303094.14 -104952.393 303129.142 -104951.928 303273.794 -105026.112 303348.442 -105160.487 303348.442 -105205.749 303348.442 -109774.499 303348.442 -109819.287 303422.574 -109954.127 303557.422 -110028.783 303602.744 -110028.783 304365.134 -110028.783 304409.94 -110028.783 304545.218 -109954.127 304619.866 -109819.287 304619.866 -109774.499 304619.866 -109774.499 304619.866 -105205.749 304619.866 -105160.487 304694.084 -105026.112 304838.22 -104951.464 304873.222 -104951.464 309441.972 -104951.464 309476.974 -104951.928 309623.432 -104878.674 309699.542 -104733.566 309699.972 -104698.572 309699.972 -103937.102 309699.972 -103891.866 309624.894 -103756.588 309478.78 -103682.37 309443.778 -103682.8 298525.39 -103682.8 298490.388 -103682.8 298346.252 -103757.448 298272.034 -103891.866 298272.034 -103937.102 298272.034 -104698.572 298272.034 -104743.361 298346.252 -104877.736 298480.584 -104952.393 M 332298.278 -103694.496 332298.278 -103694.496 332333.28 -103694.496 332478.448 -103770.09 332551.634 -103916.118 332551.634 -103951.55 332551.634 -109788.964 332551.634 -109833.753 332477.502 -109968.128 332333.28 -110042.776 332298.278 -110043.249 331535.974 -110043.249 331500.972 -110042.776 331356.836 -109968.128 331282.532 -109833.753 331282.532 -109788.964 331282.532 -107757.936 331282.532 -107712.683 331207.884 -107577.844 331072.692 -107503.651 331027.886 -107503.651 328997.34 -107503.651 328952.018 -107503.651 328817.17 -107577.844 328742.522 -107712.683 328742.522 -107757.936 328742.522 -109788.964 328742.522 -109833.753 328668.39 -109968.128 328524.168 -110042.776 328489.166 -110043.249 327726.776 -110043.249 327691.774 -110042.776 327547.638 -109968.128 327473.42 -109833.753 327473.42 -109788.964 327473.42 -106490.236 327473.42 -106445.447 327547.638 -106311.072 327681.97 -106236.889 327726.776 -106236.889 331027.886 -106236.889 331072.692 -106236.889 331207.884 -106162.232 331282.532 -106027.393 331282.532 -105982.604 331282.532 -105221.143 331282.532 -105175.881 331207.884 -105040.577 331072.692 -104966.393 331027.886 -104966.393 327726.776 -104966.393 327681.97 -104966.393 327547.638 -104892.201 327473.42 -104757.826 327473.42 -104713.037 327473.42 -103951.55 327472.99 -103915.688 327547.638 -103769.144 327693.666 -103693.98 327729.528 -103694.496 332298.278 -103694.496 M 320905.772 -103694.496 320870.77 -103694.496 320870.77 -103694.496 311222.946 -103694.496 311187.428 -103693.98 311041.4 -103769.66 310967.182 -103916.118 310967.698 -103951.55 310967.698 -104713.037 310967.698 -104747.566 311043.292 -104890.808 311187.944 -104964.063 311222.946 -104964.063 319602.7 -104964.063 319647.42 -104964.063 319782.268 -105038.246 319857.002 -105173.086 319857.002 -105218.348 319857.002 -105979.809 319857.002 -106024.598 319782.268 -106159.437 319647.42 -106234.094 319602.7 -106234.094 311222.946 -106234.094 311178.14 -106234.094 311043.722 -106308.277 310969.59 -106442.652 310969.59 -106487.914 310969.59 -109788.964 310969.59 -109833.753 311043.722 -109968.128 311187.944 -110042.776 311222.946 -110043.249 320870.77 -110043.249 320905.772 -110042.776 321049.994 -109968.128 321124.642 -109833.753 321124.642 -109788.964 321124.642 -109027.503 321124.642 -108982.241 321049.994 -108847.401 320905.772 -108772.753 320870.77 -108772.753 312491.532 -108772.753 312446.296 -108772.753 312311.878 -108699.034 312236.8 -108555.328 312236.8 -108520.326 312236.8 -107758.874 312236.8 -107713.612 312311.448 -107578.772 312446.296 -107504.589 312491.532 -107504.589 320870.77 -107504.589 320915.576 -107504.589 321049.994 -107429.932 321124.642 -107295.557 321124.642 -107250.768 321124.642 -103951.55 321124.642 -103916.118 321050.94 -103770.09 320905.772 -103694.496 M 292144.018 -103682.8 291999.796 -103757.448 291925.664 -103891.866 291925.664 -103937.102 291925.664 -109774.499 291925.148 -109809.492 291997.474 -109955.056 292141.18 -110032.043 292176.698 -110032.516 292176.698 -110032.516 292939.088 -110032.516 292984.324 -110032.516 293120.032 -109956.457 293193.82 -109809.956 293193.39 -109774.499 293193.39 -105205.749 293193.39 -105160.951 293267.522 -105026.576 293401.94 -104952.393 293446.746 -104952.393 296748.2 -104952.393 296792.92 -104952.393 296927.338 -104877.272 297001.642 -104732.637 297001.642 -104697.643 297001.642 -103937.102 297001.642 -103901.67 296927.338 -103757.018 296792.92 -103682.8 296748.2 -103682.8 292179.45 -103682.8 292144.018 -103682.8 M 110814.707 -160862.11 A 1000.0000104 1000.0000104 0 0 1 109835.463 -160064.795 L 9311.775 -160064.795 A 979.0905178 979.0905178 0 0 1 8393.634 -160684.983 L 8332.52 -160862.164 A 1000.0000412 1000.0000412 0 0 0 7353.265 -161659.532 L -1219.258 -161656.039 A 976.957629 976.957629 0 0 0 -2246.735 -160659.532 L -2267.671 -156051.077 A 979.09 979.09 0 0 1 -3246.735 -155064.794 L -11871.72 -155064.794 A 1000 1000 0 0 0 -12871.719 -154064.8 L -12872.375 -57525.07 A 3000.0000001 3000.0000001 0 0 1 -15248.222 -54590.695 3000.0000001 3000.0000001 0 0 0 -17624.069 -51656.32 L -17624.188 -45924.991 A 3000.0000001 3000.0000001 0 0 0 -15248.341 -42990.616 3000.0000001 3000.0000001 0 0 1 -12872.494 -40056.241 L -12872.52 -36252.501 A 1000 1000 0 0 0 -11872.519 -35252.495 L 334739.749 -35252.504 A 1000 1000 0 0 0 335739.749 -36252.504 L 335739.749 -40056.262 A 3000.0000001 3000.0000001 0 0 1 338115.596 -42990.637 3000.0000001 3000.0000001 0 0 0 340491.443 -45925.012 L 340491.43 -51656.333 A 3000.0000001 3000.0000001 0 0 0 338115.583 -54590.708 3000.0000001 3000.0000001 0 0 1 335739.736 -57525.083 L 335739.746 -154064.803 A 1000 1000 0 0 0 334739.746 -155064.803 L 328481.476 -155064.803 A 1000 1000 0 0 1 327481.476 -156064.803 L 327481.476 -160659.799 A 1000 1000 0 0 0 326481.476 -161659.799 L 317840.042 -161659.799 A 1000 1000 0 0 0 316860.798 -160862.484 1000 1000 0 0 1 315881.554 -160065.169 L 251435.495 -160064.795 A 1000.0000104 1000.0000104 0 0 1 250456.251 -160862.11 L 250350.62 -161146.043 250305.985 -161218.705 250100.468 -161441.278 250031.589 -161491.554 249766.723 -161616.537 249477.007 -161659.425 239794.2 -161659.425 A 1000 1000 0 0 0 238814.956 -160862.11 1000 1000 0 0 1 237835.712 -160064.795 L 123393.98 -160064.795 A 1000.0000104 1000.0000104 0 0 1 122414.736 -160862.11 1000.0000104 1000.0000104 0 0 0 121435.492 -161659.425 L 111793.951 -161659.425 A 1000.0000104 1000.0000104 0 0 0 110814.707 -160862.11 M 2353.266 -156064.793 A 499.999 499.999 0 0 0 1853.266 -155564.794 499.999 499.999 0 0 0 2353.265 -155064.794 L 55835.463 -155064.796 A 500 500 0 0 0 56335.461 -155564.796 499.998 499.998 0 0 0 55835.463 -156064.794 L 2353.266 -156064.793 M 197335.707 -155564.8 A 499.994 499.994 0 0 0 196835.712 -156064.795 L 61935.492 -156064.795 A 499.998 499.998 0 0 0 61435.493 -155564.796 499.999 499.999 0 0 0 61935.492 -155064.796 L 196835.712 -155064.8 A 500 500 0 0 0 197335.712 -155564.8 M 33989.999 -133014.997 A 1000 1000 0 0 0 32989.999 -132014.997 L 32990 -120014.997 A 1000 1000 0 0 0 33990 -119014.997 L 45990 -119014.997 A 1000 1000 0 0 0 46990 -120014.997 L 46989.999 -132014.997 A 1000 1000 0 0 0 45989.999 -133014.997 L 33989.999 -133014.997 M 251777.502 -39052.503 251777.502 -51052.503 A 1000 1000 0 0 0 250777.502 -52052.503 L 238777.502 -52052.502 A 1000 1000 0 0 0 237777.502 -51052.502 L 237777.502 -39052.502 A 1000 1000 0 0 0 238777.502 -38052.502 L 250777.502 -38052.503 A 1000 1000 0 0 0 251777.502 -39052.503 M 108902.5 -93914.999 A 1000 1000 0 0 0 107902.5 -94914.999 L 95902.5 -94914.998 A 1000 1000 0 0 0 94902.5 -93914.998 L 94902.501 -81914.998 A 1000 1000 0 0 0 95902.501 -80914.998 L 107902.501 -80914.999 A 1000 1000 0 0 0 108902.501 -81914.999 L 108902.5 -93914.999 M 114952.502 -38052.499 126952.502 -38052.499 A 1000 1000 0 0 0 127952.502 -39052.499 L 127952.502 -51052.499 A 1000 1000 0 0 0 126952.502 -52052.499 L 114952.502 -52052.499 A 1000 1000 0 0 0 113952.502 -51052.499 L 113952.502 -39052.499 A 1000 1000 0 0 0 114952.502 -38052.499 M 253065.001 -80915.003 265065.001 -80915.003 A 1000 1000 0 0 0 266065.001 -81915.003 L 266065 -93915.003 A 1000 1000 0 0 0 265065 -94915.003 L 253065 -94915.003 A 1000 1000 0 0 0 252065 -93915.003 L 252065.001 -81915.003 A 1000 1000 0 0 0 253065.001 -80915.003 M 98377.502 -38052.498 A 1000 1000 0 0 0 99377.502 -39052.498 L 99377.502 -51052.498 A 1000 1000 0 0 0 98377.502 -52052.498 L 86377.502 -52052.498 A 1000 1000 0 0 0 85377.502 -51052.498 L 85377.502 -39052.498 A 1000 1000 0 0 0 86377.502 -38052.498 L 98377.502 -38052.498 M 256827.502 -39052.503 A 1000 1000 0 0 0 257827.502 -38052.503 L 269827.502 -38052.503 A 1000 1000 0 0 0 270827.502 -39052.503 L 270827.502 -51052.503 A 1000 1000 0 0 0 269827.502 -52052.503 L 257827.502 -52052.503 A 1000 1000 0 0 0 256827.502 -51052.503 L 256827.502 -39052.503 M 190152.501 -81915.001 A 1000 1000 0 0 0 191152.501 -80915.001 L 203152.501 -80915.001 A 1000 1000 0 0 0 204152.501 -81915.001 L 204152.5 -93915.001 A 1000 1000 0 0 0 203152.5 -94915.001 L 191152.5 -94915.001 A 1000 1000 0 0 0 190152.5 -93915.001 L 190152.501 -81915.001 M 223202.5 -93915.002 223202.501 -81915.002 A 1000 1000 0 0 1 222202.501 -80915.002 L 210202.501 -80915.002 A 1000 1000 0 0 1 209202.501 -81915.002 L 209202.5 -93915.002 A 1000 1000 0 0 1 210202.5 -94915.002 L 222202.5 -94915.002 A 1000 1000 0 0 1 223202.5 -93915.002 M 172071.249 -150065 172071.249 -137065 A 1000 1000 0 0 1 171071.249 -136065 L 166071.249 -136065 A 1000 1000 0 0 1 165071.249 -137065 L 165071.249 -150065 A 1000 1000 0 0 1 166071.249 -151065 L 171071.249 -151065 A 1000 1000 0 0 1 172071.249 -150065 M 153052.5 -94915 165052.5 -94915 A 1000 1000 0 0 1 166052.5 -93915 L 166052.501 -81915 A 1000 1000 0 0 1 165052.501 -80915 L 153052.501 -80915 A 1000 1000 0 0 1 152052.501 -81915 L 152052.5 -93915 A 1000 1000 0 0 1 153052.5 -94915 M 186389.999 -133015.001 A 1000 1000 0 0 0 185389.999 -132015.001 L 185390 -120015.001 A 1000 1000 0 0 0 186390 -119015.001 L 198390 -119015.001 A 1000 1000 0 0 0 199390 -120015.001 L 199389.999 -132015.001 A 1000 1000 0 0 0 198389.999 -133015.001 L 186389.999 -133015.001 M 32702.5 -93914.997 32702.501 -81914.997 A 1000 1000 0 0 1 31702.501 -80914.997 L 19702.501 -80914.996 A 1000 1000 0 0 1 18702.501 -81914.996 L 18702.5 -93914.996 A 1000 1000 0 0 1 19702.5 -94914.996 L 31702.5 -94914.997 A 1000 1000 0 0 1 32702.5 -93914.997 M 131715 -99964.999 A 1000 1000 0 0 0 132715 -100964.999 L 132715 -112964.999 A 1000 1000 0 0 0 131715 -113964.999 L 119715 -113964.999 A 1000 1000 0 0 0 118715 -112964.999 L 118715 -100964.999 A 1000 1000 0 0 0 119715 -99964.999 L 131715 -99964.999 M 29227.502 -52052.496 A 1000 1000 0 0 0 28227.502 -51052.496 L 28227.502 -39052.496 A 1000 1000 0 0 0 29227.502 -38052.496 L 41227.502 -38052.497 A 1000 1000 0 0 0 42227.502 -39052.497 L 42227.502 -51052.497 A 1000 1000 0 0 0 41227.502 -52052.497 L 29227.502 -52052.496 M 219727.502 -38052.502 231727.502 -38052.502 A 1000 1000 0 0 0 232727.502 -39052.502 L 232727.502 -51052.502 A 1000 1000 0 0 0 231727.502 -52052.502 L 219727.502 -52052.502 A 1000 1000 0 0 0 218727.502 -51052.502 L 218727.502 -39052.502 A 1000 1000 0 0 0 219727.502 -38052.502 M 8889.999 -151064.996 A 1000 1000 0 0 0 7889.999 -152064.996 L -6491.251 -152064.995 A 1000 1000 0 0 0 -7491.251 -151064.995 L -7491.251 -139064.995 A 1000 1000 0 0 0 -6491.251 -138064.995 L 7889.999 -138064.996 A 1000 1000 0 0 0 8889.999 -139064.996 L 8889.999 -151064.996 M 227965 -112965.002 227965 -100965.002 A 1000 1000 0 0 1 226965 -99965.002 L 214965 -99965.002 A 1000 1000 0 0 1 213965 -100965.002 L 213965 -112965.002 A 1000 1000 0 0 1 214965 -113965.002 L 226965 -113965.002 A 1000 1000 0 0 1 227965 -112965.002 M 313690.001 -74865.004 A 1000 1000 0 0 0 312690.001 -75865.004 L 300690.001 -75865.004 A 1000 1000 0 0 0 299690.001 -74865.004 L 299690.001 -62865.004 A 1000 1000 0 0 0 300690.001 -61865.004 L 312690.001 -61865.004 A 1000 1000 0 0 0 313690.001 -62865.004 L 313690.001 -74865.004 M 332740.002 -51052.505 A 1000 1000 0 0 0 331740.002 -52052.505 L 319740.002 -52052.505 A 1000 1000 0 0 0 318740.002 -51052.505 L 318740.002 -39052.505 A 1000 1000 0 0 0 319740.002 -38052.505 L 331740.002 -38052.505 A 1000 1000 0 0 0 332740.002 -39052.505 L 332740.002 -51052.505 M 300690 -119015.004 312690 -119015.004 A 1000 1000 0 0 0 313690 -120015.004 L 313689.999 -132015.004 A 1000 1000 0 0 0 312689.999 -133015.004 L 300689.999 -133015.004 A 1000 1000 0 0 0 299689.999 -132015.004 L 299690 -120015.004 A 1000 1000 0 0 0 300690 -119015.004 M 293639.999 -138065.004 281639.999 -138065.004 A 1000 1000 0 0 1 280639.999 -139065.004 L 280639.999 -151065.004 A 1000 1000 0 0 1 281639.999 -152065.004 L 293639.999 -152065.004 A 1000 1000 0 0 1 294639.999 -151065.004 L 294639.999 -139065.004 A 1000 1000 0 0 1 293639.999 -138065.004 M 331739.999 -152065.005 319739.999 -152065.005 A 1000 1000 0 0 0 318739.999 -151065.005 L 318739.999 -139065.005 A 1000 1000 0 0 0 319739.999 -138065.005 L 331739.999 -138065.005 A 1000 1000 0 0 0 332739.999 -139065.005 L 332739.999 -151065.005 A 1000 1000 0 0 0 331739.999 -152065.005 M 280640.002 -39052.504 280640.002 -51052.504 A 1000 1000 0 0 1 281640.002 -52052.504 L 293640.002 -52052.504 A 1000 1000 0 0 1 294640.002 -51052.504 L 294640.002 -39052.504 A 1000 1000 0 0 1 293640.002 -38052.504 L 281640.002 -38052.504 A 1000 1000 0 0 1 280640.002 -39052.504 M 263740.501 -77865.003 268740.501 -77865.003 A 1000 1000 0 0 1 269740.501 -76865.003 L 269740.501 -63865.003 A 1000 1000 0 0 1 268740.501 -62865.003 L 262034.552 -62865.003 A 1000 1000 0 0 0 261168.527 -62365.003 1000.001 1000.001 0 0 1 260302.501 -61865.003 L 248302.501 -61865.003 A 999.9996503 999.9996503 0 0 1 247436.476 -62365.003 999.9996503 999.9996503 0 0 0 246570.45 -62865.003 L 239864.501 -62865.002 A 1000 1000 0 0 1 238864.501 -63865.002 L 238864.501 -76865.002 A 1000 1000 0 0 1 239864.501 -77865.002 L 244864.501 -77865.003 A 1000 1000 0 0 1 245864.501 -76865.003 1000 1000 0 0 0 246864.501 -75865.003 L 261740.501 -75865.003 A 1000 1000 0 0 0 262740.501 -76865.003 1000 1000 0 0 1 263740.501 -77865.003 M 37465 -112964.997 37465 -100964.997 A 1000 1000 0 0 1 36465 -99964.997 L 24465 -99964.996 A 1000 1000 0 0 1 23465 -100964.996 L 23465 -112964.996 A 1000 1000 0 0 1 24465 -113964.996 L 36465 -113964.997 A 1000 1000 0 0 1 37465 -112964.997 M 318740.001 -62865.005 A 1000 1000 0 0 0 319740.001 -61865.005 L 331740.001 -61865.005 A 1000 1000 0 0 0 332740.001 -62865.005 L 332740.001 -74865.005 A 1000 1000 0 0 0 331740.001 -75865.005 L 319740.001 -75865.005 A 1000 1000 0 0 0 318740.001 -74865.005 L 318740.001 -62865.005 M 60277.501 -61864.997 A 1000 1000 0 0 0 61277.501 -62864.997 L 61277.501 -74864.997 A 1000 1000 0 0 0 60277.501 -75864.997 L 48277.501 -75864.997 A 1000 1000 0 0 0 47277.501 -74864.997 L 47277.501 -62864.997 A 1000 1000 0 0 0 48277.501 -61864.997 L 60277.501 -61864.997 M 217439.999 -133015.002 205439.999 -133015.001 A 1000 1000 0 0 0 204439.999 -132015.001 L 204440 -120015.001 A 1000 1000 0 0 0 205440 -119015.001 L 217440 -119015.002 A 1000 1000 0 0 0 218440 -120015.002 L 218439.999 -132015.002 A 1000 1000 0 0 0 217439.999 -133015.002 M 80327.502 -51052.498 80327.502 -39052.498 A 1000 1000 0 0 1 79327.502 -38052.498 L 67327.502 -38052.498 A 1000 1000 0 0 1 66327.502 -39052.498 L 66327.502 -51052.498 A 1000 1000 0 0 1 67327.502 -52052.498 L 79327.502 -52052.498 A 1000 1000 0 0 1 80327.502 -51052.498 M 67327.501 -75864.998 79327.501 -75864.998 A 1000 1000 0 0 1 80327.501 -74864.998 L 80327.501 -62864.998 A 1000 1000 0 0 1 79327.501 -61864.998 L 67327.501 -61864.998 A 1000 1000 0 0 1 66327.501 -62864.998 L 66327.501 -74864.998 A 1000 1000 0 0 1 67327.501 -75864.998 M 180627.501 -62865.001 A 1000 1000 0 0 0 181627.501 -61865.001 L 193627.501 -61865.001 A 1000 1000 0 0 0 194627.501 -62865.001 L 194627.501 -74865.001 A 1000 1000 0 0 0 193627.501 -75865.001 L 181627.501 -75865.001 A 1000 1000 0 0 0 180627.501 -74865.001 L 180627.501 -62865.001 M 99377.501 -62864.998 99377.501 -74864.998 A 1000 1000 0 0 0 98377.501 -75864.998 L 86377.501 -75864.998 A 1000 1000 0 0 0 85377.501 -74864.998 L 85377.501 -62864.998 A 1000 1000 0 0 0 86377.501 -61864.998 L 98377.501 -61864.998 A 1000 1000 0 0 0 99377.501 -62864.998 M 29227.501 -75864.996 41227.501 -75864.997 A 1000 1000 0 0 1 42227.501 -74864.997 L 42227.501 -62864.997 A 1000 1000 0 0 1 41227.501 -61864.997 L 29227.501 -61864.996 A 1000 1000 0 0 1 28227.501 -62864.996 L 28227.501 -74864.996 A 1000 1000 0 0 1 29227.501 -75864.996 M 175865 -112965.001 175865 -100965.001 A 1000 1000 0 0 0 176865 -99965.001 L 188865 -99965.001 A 1000 1000 0 0 0 189865 -100965.001 L 189865 -112965.001 A 1000 1000 0 0 0 188865 -113965.001 L 176865 -113965.001 A 1000 1000 0 0 0 175865 -112965.001 M 166340 -120015 166339.999 -132015 A 1000 1000 0 0 1 167339.999 -133015 L 179339.999 -133015.001 A 1000 1000 0 0 1 180339.999 -132015.001 L 180340 -120015.001 A 1000 1000 0 0 1 179340 -119015.001 L 167340 -119015 A 1000 1000 0 0 1 166340 -120015 M 72089.999 -133014.998 A 1000 1000 0 0 0 71089.999 -132014.998 L 71090 -120014.998 A 1000 1000 0 0 0 72090 -119014.998 L 84090 -119014.998 A 1000 1000 0 0 0 85090 -120014.998 L 85089.999 -132014.998 A 1000 1000 0 0 0 84089.999 -133014.998 L 72089.999 -133014.998 M 166052.502 -51052.5 166052.502 -39052.5 A 1000 1000 0 0 1 165052.502 -38052.5 L 153052.502 -38052.5 A 1000 1000 0 0 1 152052.502 -39052.5 L 152052.502 -51052.5 A 1000 1000 0 0 1 153052.502 -52052.5 L 165052.502 -52052.5 A 1000 1000 0 0 1 166052.502 -51052.5 M 75852.501 -81914.998 A 1000 1000 0 0 0 76852.501 -80914.998 L 88852.501 -80914.998 A 1000 1000 0 0 0 89852.501 -81914.998 L 89852.5 -93914.998 A 1000 1000 0 0 0 88852.5 -94914.998 L 76852.5 -94914.998 A 1000 1000 0 0 0 75852.5 -93914.998 L 75852.501 -81914.998 M 146002.502 -38052.5 A 1000 1000 0 0 0 147002.502 -39052.5 L 147002.502 -51052.5 A 1000 1000 0 0 0 146002.502 -52052.5 L 134002.502 -52052.499 A 1000 1000 0 0 0 133002.502 -51052.499 L 133002.502 -39052.499 A 1000 1000 0 0 0 134002.502 -38052.499 L 146002.502 -38052.5 M 127952.5 -93914.999 127952.501 -81914.999 A 1000 1000 0 0 1 126952.501 -80914.999 L 114952.501 -80914.999 A 1000 1000 0 0 1 113952.501 -81914.999 L 113952.5 -93914.999 A 1000 1000 0 0 1 114952.5 -94914.999 L 126952.5 -94914.999 A 1000 1000 0 0 1 127952.5 -93914.999 M 124477.501 -61864.999 136477.502 -61864.999 A 1000 1000 0 0 0 137477.501 -62865 L 137477.501 -74865 A 1000 1000 0 0 0 136477.501 -75864.999 L 124477.501 -75864.999 A 1000 1000 0 0 0 123477.501 -74864.999 L 123477.501 -62864.999 A 1000 1000 0 0 0 124477.501 -61864.999 M 138765 -113965 A 1000 1000 0 0 0 137765 -112965 L 137765 -100965 A 1000 1000 0 0 0 138765 -99965 L 150765 -99965 A 1000 1000 0 0 0 151765 -100965 L 151765 -112965 A 1000 1000 0 0 0 150765 -113965 L 138765 -113965 M 171102.501 -81915 A 1000 1000 0 0 0 172102.501 -80915 L 184102.501 -80915.001 A 1000 1000 0 0 0 185102.501 -81915.001 L 185102.5 -93915.001 A 1000 1000 0 0 0 184102.5 -94915.001 L 172102.5 -94915 A 1000 1000 0 0 0 171102.5 -93915 L 171102.501 -81915 M 81615 -99964.998 93615 -99964.998 A 1000 1000 0 0 0 94615 -100964.998 L 94615 -112964.998 A 1000 1000 0 0 0 93615 -113964.998 L 81615 -113964.998 A 1000 1000 0 0 0 80615 -112964.998 L 80615 -100964.998 A 1000 1000 0 0 0 81615 -99964.998 M 195915 -113965.001 207915 -113965.001 A 1000 1000 0 0 1 208915 -112965.001 L 208915 -100965.002 A 1000 1000 0 0 1 207915.001 -99965.001 L 195915 -99965.001 A 1000 1000 0 0 1 194915 -100965.001 L 194915 -112965.001 A 1000 1000 0 0 1 195915 -113965.001 M 62565 -113964.997 74565 -113964.998 A 1000 1000 0 0 1 75565 -112964.998 L 75565 -100964.998 A 1000 1000 0 0 1 74565 -99964.998 L 62565 -99964.997 A 1000 1000 0 0 1 61565 -100964.997 L 61565 -112964.997 A 1000 1000 0 0 1 62565 -113964.997 M 146002.5 -94915 134002.5 -94914.999 A 1000 1000 0 0 0 133002.5 -93914.999 L 133002.501 -81914.999 A 1000 1000 0 0 0 134002.501 -80914.999 L 146002.501 -80915 A 1000 1000 0 0 0 147002.501 -81915 L 147002.5 -93915 A 1000 1000 0 0 0 146002.5 -94915 M 155527.501 -75865 143527.501 -75865 A 1000 1000 0 0 0 142527.501 -74865 L 142527.501 -62865 A 1000 1000 0 0 0 143527.501 -61865 L 155527.501 -61865 A 1000 1000 0 0 0 156527.501 -62865 L 156527.501 -74865 A 1000 1000 0 0 0 155527.501 -75865 M 268446.249 -139065.003 268446.249 -151065.003 A 1000 1000 0 0 0 267446.249 -152065.003 L 253064.999 -152065.003 A 1000 1000 0 0 0 252064.999 -151065.003 L 252064.999 -139065.003 A 1000 1000 0 0 0 253064.999 -138065.003 L 267446.249 -138065.003 A 1000 1000 0 0 0 268446.249 -139065.003 M 184127.499 -137065.001 A 1000 1000 0 0 0 185127.499 -136065.001 L 190127.499 -136065.001 A 1000 1000 0 0 0 191127.499 -137065.001 1000 1000 0 0 1 192127.499 -138065.001 L 196008.749 -138065.001 A 1000 1000 0 0 0 197008.749 -139065.001 L 197008.749 -151065.001 A 1000 1000 0 0 0 196008.749 -152065.001 L 184008.749 -152065.001 A 1000 1000 0 0 0 183008.749 -151065.001 L 183008.749 -139065.001 A 1000 1000 0 0 0 183568.124 -138167.31 1000.001 1000.001 0 0 1 184127.499 -137269.618 L 184127.499 -137065.001 M 156815 -100965 A 1000 1000 0 0 0 157815 -99965 L 169815 -99965 A 1000 1000 0 0 0 170815 -100965 L 170815 -112965 A 1000 1000 0 0 0 169815 -113965 L 157815 -113965 A 1000 1000 0 0 0 156815 -112965 L 156815 -100965 M 70802.5 -93914.998 70802.501 -81914.998 A 1000 1000 0 0 1 69802.501 -80914.998 L 57802.501 -80914.997 A 1000 1000 0 0 1 56802.501 -81914.997 L 56802.5 -93914.997 A 1000 1000 0 0 1 57802.5 -94914.997 L 69802.5 -94914.998 A 1000 1000 0 0 1 70802.5 -93914.998 M 48277.502 -38052.497 60277.502 -38052.497 A 1000 1000 0 0 0 61277.502 -39052.497 L 61277.502 -51052.497 A 1000 1000 0 0 0 60277.502 -52052.497 L 48277.502 -52052.497 A 1000 1000 0 0 0 47277.502 -51052.497 L 47277.502 -39052.497 A 1000 1000 0 0 0 48277.502 -38052.497 M 232727.501 -74865.002 A 1000 1000 0 0 0 231727.501 -75865.002 L 219727.501 -75865.002 A 1000 1000 0 0 0 218727.501 -74865.002 L 218727.501 -62865.002 A 1000 1000 0 0 0 219727.501 -61865.002 L 231727.501 -61865.002 A 1000 1000 0 0 0 232727.501 -62865.002 L 232727.501 -74865.002 M 38752.5 -94914.997 A 1000 1000 0 0 0 37752.5 -93914.997 L 37752.501 -81914.997 A 1000 1000 0 0 0 38752.501 -80914.997 L 50752.501 -80914.997 A 1000 1000 0 0 0 51752.501 -81914.997 L 51752.5 -93914.997 A 1000 1000 0 0 0 50752.5 -94914.997 L 38752.5 -94914.997 M 113665 -112964.999 A 1000 1000 0 0 0 112665 -113964.999 L 100665 -113964.998 A 1000 1000 0 0 0 99665 -112964.998 L 99665 -100964.998 A 1000 1000 0 0 0 100665 -99964.998 L 112665 -99964.999 A 1000 1000 0 0 0 113665 -100964.999 L 113665 -112964.999 M 141240 -119015 A 1000 1000 0 0 0 142240 -120015 L 142239.999 -132015 A 1000 1000 0 0 0 141239.999 -133015 L 129239.999 -133014.999 A 1000 1000 0 0 0 128239.999 -132014.999 L 128240 -120014.999 A 1000 1000 0 0 0 129240 -119014.999 L 141240 -119015 M 213677.501 -74865.002 A 1000 1000 0 0 0 212677.501 -75865.002 L 200677.501 -75865.001 A 1000 1000 0 0 0 199677.501 -74865.001 L 199677.501 -62865.001 A 1000 1000 0 0 0 200677.501 -61865.001 L 212677.501 -61865.002 A 1000 1000 0 0 0 213677.501 -62865.002 L 213677.501 -74865.002 M 117427.501 -75864.999 105427.501 -75864.999 A 1000 1000 0 0 0 104427.501 -74864.999 L 104427.501 -62864.999 A 1000 1000 0 0 0 105427.501 -61864.999 L 117427.501 -61864.999 A 1000 1000 0 0 0 118427.501 -62864.999 L 118427.501 -74864.999 A 1000 1000 0 0 0 117427.501 -75864.999 M 323981.476 -158862.3 A 1800 1800 0 0 1 320381.476 -158862.3 1800 1800 0 0 1 323981.476 -158862.3 M 104139.999 -132014.999 104140 -120014.999 A 1000 1000 0 0 1 103140 -119014.999 L 91140 -119014.998 A 1000 1000 0 0 1 90140 -120014.998 L 90139.999 -132014.998 A 1000 1000 0 0 1 91139.999 -133014.998 L 103139.999 -133014.999 A 1000 1000 0 0 1 104139.999 -132014.999 M 246435.605 -158862.267 A 1800 1800 0 0 1 242835.605 -158862.267 1800 1800 0 0 1 246435.605 -158862.267 M 228252.501 -81915.002 228252.5 -93915.002 A 1000 1000 0 0 1 229252.5 -94915.002 L 241252.5 -94915.002 A 1000 1000 0 0 1 242252.5 -93915.002 L 242252.501 -81915.002 A 1000 1000 0 0 1 241252.501 -80915.002 L 229252.501 -80915.002 A 1000 1000 0 0 1 228252.501 -81915.002 M 112571.249 -152064.999 A 1000 1000 0 0 0 111571.249 -151064.999 L 111571.249 -139064.999 A 1000 1000 0 0 0 112571.249 -138064.999 L 136477.499 -138064.999 A 1000 1000 0 0 0 137477.499 -139065 L 137477.499 -151064.999 A 1000 1000 0 0 0 136477.499 -152064.999 L 112571.249 -152064.999 M 160289.999 -133015 148289.999 -133015 A 1000 1000 0 0 0 147289.999 -132015 L 147290 -120015 A 1000 1000 0 0 0 148290 -119015 L 160290 -119015 A 1000 1000 0 0 0 161290 -120015 L 161289.999 -132015 A 1000 1000 0 0 0 160289.999 -133015 M 322881.476 -155064.803 A 500 500 0 0 0 322881.476 -156064.803 L 202935.495 -156064.8 A 500 500 0 0 0 202935.495 -155064.8 L 322881.476 -155064.803 M 118435.479 -158862.213 A 1800 1800 0 0 1 114835.479 -158862.213 1800 1800 0 0 1 118435.479 -158862.213 M -12948.311 -48856.308 A 1800 1800 0 0 1 -16548.311 -48856.308 1800 1800 0 0 1 -12948.311 -48856.308 M 4853.266 -158862.165 A 1800 1800 0 0 1 1253.266 -158862.165 1800 1800 0 0 1 4853.266 -158862.165 M 339415.583 -48856.309 A 1800 1800 0 0 1 335815.583 -48856.309 1800 1800 0 0 1 339415.583 -48856.309 M 245055.225 -100465.003 A 999.9996503 999.9996503 0 0 0 244189.199 -100965.002 L 237483.25 -100965.002 A 1000 1000 0 0 1 236483.25 -101965.002 L 236483.25 -114965.002 A 1000 1000 0 0 1 237483.25 -115965.002 L 242483.25 -115965.002 A 1000 1000 0 0 1 243483.25 -114965.003 1000 1000 0 0 0 244483.25 -113965.003 L 259359.25 -113965.003 A 1000 1000 0 0 0 260359.25 -114965.003 1000 1000 0 0 1 261359.25 -115965.003 L 266359.25 -115965.003 A 1000 1000 0 0 1 267359.25 -114965.003 L 267359.25 -101965.003 A 1000 1000 0 0 1 266359.25 -100965.003 L 259653.301 -100965.003 A 1000 1000 0 0 0 258787.276 -100465.003 1000.001 1000.001 0 0 1 257921.25 -99965.003 L 245921.25 -99965.003 A 999.9996503 999.9996503 0 0 1 245055.225 -100465.003 M 174577.501 -75865.001 162577.501 -75865 A 1000 1000 0 0 0 161577.501 -74865 L 161577.501 -62865 A 1000 1000 0 0 0 162577.501 -61865 L 174577.501 -61865.001 A 1000 1000 0 0 0 175577.501 -62865.001 L 175577.501 -74865.001 A 1000 1000 0 0 0 174577.501 -75865.001 M 65040 -119014.997 A 1000 1000 0 0 0 66040 -120014.998 L 66039.999 -132014.997 A 1000 1000 0 0 0 65039.999 -133014.997 L 53039.999 -133014.997 A 1000 1000 0 0 0 52039.999 -132014.997 L 52040 -120014.997 A 1000 1000 0 0 0 53040 -119014.997 L 65040 -119014.997 M 109190 -120014.999 109189.999 -132014.999 A 1000 1000 0 0 1 110189.999 -133014.999 L 122189.999 -133014.999 A 1000 1000 0 0 1 123189.999 -132014.999 L 123190 -120014.999 A 1000 1000 0 0 1 122190 -119014.999 L 110190 -119014.999 A 1000 1000 0 0 1 109190 -120014.999 M 55515 -99964.997 A 1000 1000 0 0 0 56515 -100964.997 L 56515 -112964.997 A 1000 1000 0 0 0 55515 -113964.997 L 43515 -113964.997 A 1000 1000 0 0 0 42515 -112964.997 L 42515 -100964.997 A 1000 1000 0 0 0 43515 -99964.997 L 55515 -99964.997 M 212677.502 -38052.502 A 1000 1000 0 0 0 213677.502 -39052.502 L 213677.502 -51052.502 A 1000 1000 0 0 0 212677.502 -52052.502 L 200677.502 -52052.501 A 1000 1000 0 0 0 199677.502 -51052.501 L 199677.502 -39052.501 A 1000 1000 0 0 0 200677.502 -38052.501 L 212677.502 -38052.502 M 185102.502 -39052.501 185102.502 -51052.501 A 1000 1000 0 0 0 184102.502 -52052.501 L 172102.502 -52052.5 A 1000 1000 0 0 0 171102.502 -51052.5 L 171102.502 -39052.5 A 1000 1000 0 0 0 172102.502 -38052.5 L 184102.502 -38052.501 A 1000 1000 0 0 0 185102.502 -39052.501 M 253158.75 -119015.003 241158.75 -119015.002 A 999.9996503 999.9996503 0 0 1 240292.724 -119515.002 999.9996503 999.9996503 0 0 0 239426.699 -120015.002 L 232720.75 -120015.002 A 1000 1000 0 0 1 231720.75 -121015.002 L 231720.749 -134015.002 A 1000 1000 0 0 1 232720.749 -135015.002 L 237720.749 -135015.002 A 1000 1000 0 0 1 238720.749 -134015.002 1000 1000 0 0 0 239720.749 -133015.002 L 254596.749 -133015.003 A 1000 1000 0 0 0 255596.749 -134015.003 1000 1000 0 0 1 256596.749 -135015.003 L 261596.749 -135015.003 A 1000 1000 0 0 1 262596.749 -134015.003 L 262596.75 -121015.003 A 1000 1000 0 0 1 261596.75 -120015.003 L 254890.8 -120015.003 A 1000 1000 0 0 0 254024.775 -119515.003 1000 1000 0 0 1 253158.75 -119015.003 M 9177.501 -62864.996 A 1000 1000 0 0 0 10177.501 -61864.996 L 22177.501 -61864.996 A 1000 1000 0 0 0 23177.501 -62864.996 L 23177.501 -74864.996 A 1000 1000 0 0 0 22177.501 -75864.996 L 10177.501 -75864.996 A 1000 1000 0 0 0 9177.501 -74864.996 L 9177.501 -62864.996 M 31702.499 -152064.997 17321.249 -152064.996 A 1000 1000 0 0 0 16321.249 -151064.996 L 16321.249 -139064.996 A 1000 1000 0 0 0 17321.249 -138064.996 L 31702.499 -138064.997 A 1000 1000 0 0 0 32702.499 -139064.997 L 32702.499 -151064.997 A 1000 1000 0 0 0 31702.499 -152064.997 M 10271.25 -99964.996 A 1000 1000 0 0 0 11271.25 -100964.996 L 11271.25 -112964.996 A 1000 1000 0 0 0 10271.25 -113964.996 L -6491.25 -113964.995 A 1000 1000 0 0 0 -7491.25 -112964.995 L -7491.25 -100964.995 A 1000 1000 0 0 0 -6491.25 -99964.995 L 10271.25 -99964.996 M 76827.499 -150064.998 76827.499 -137064.998 A 1000 1000 0 0 1 75827.499 -136064.998 L 66071.249 -136064.998 A 1000 1000 0 0 1 65071.249 -137064.998 L 65071.249 -150064.997 A 1000 1000 0 0 1 66071.248 -151064.998 L 75827.499 -151064.998 A 1000 1000 0 0 1 76827.499 -150064.998 M 8890 -93914.996 8890.001 -81914.996 A 1000 1000 0 0 1 7890.001 -80914.996 L -4109.999 -80914.996 A 1000 1000 0 0 1 -5109.999 -81914.996 L -5110 -93914.996 A 1000 1000 0 0 1 -4110 -94914.996 L 7890 -94914.996 A 1000 1000 0 0 1 8890 -93914.996 M 15033.75 -119014.996 A 1000 1000 0 0 0 15899.775 -119514.996 1000 1000 0 0 1 16765.8 -120014.996 L 23471.75 -120014.996 A 1000 1000 0 0 0 24471.75 -121014.996 L 24471.749 -134014.996 A 1000 1000 0 0 0 23471.749 -135014.996 L 18471.749 -135014.996 A 1000 1000 0 0 0 17471.749 -134014.996 1000 1000 0 0 1 16471.749 -133014.996 L 1595.749 -133014.996 A 1000 1000 0 0 1 595.749 -134014.996 1000 1000 0 0 0 -404.251 -135014.996 L -5404.252 -135014.996 A 1000 1000 0 0 0 -6404.251 -134014.995 L -6404.25 -121014.995 A 1000 1000 0 0 0 -5404.25 -120014.996 L 1301.699 -120014.996 A 999.9996503 999.9996503 0 0 1 2167.725 -119514.996 999.9996503 999.9996503 0 0 0 3033.75 -119014.996 L 15033.75 -119014.996 M 3127.502 -38052.496 A 1000 1000 0 0 0 4127.502 -39052.496 L 4127.502 -51052.496 A 1000 1000 0 0 0 3127.502 -52052.496 L -8872.498 -52052.495 A 1000 1000 0 0 0 -9872.498 -51052.495 L -9872.498 -39052.495 A 1000 1000 0 0 0 -8872.498 -38052.495 L 3127.502 -38052.496 M 312690.001 -80915.004 300690.001 -80915.004 A 1000 1000 0 0 1 299690.001 -81915.004 L 299690 -93915.004 A 1000 1000 0 0 1 300690 -94915.004 L 312690 -94915.004 A 1000 1000 0 0 1 313690 -93915.004 L 313690.001 -81915.004 A 1000 1000 0 0 1 312690.001 -80915.004 M 281640.001 -75865.004 293640.001 -75865.004 A 1000 1000 0 0 1 294640.001 -74865.004 L 294640.001 -62865.004 A 1000 1000 0 0 1 293640.001 -61865.004 L 281640.001 -61865.004 A 1000 1000 0 0 1 280640.001 -62865.004 L 280640.001 -74865.004 A 1000 1000 0 0 1 281640.001 -75865.004 M -9872.499 -74864.995 -9872.499 -62864.995 A 1000 1000 0 0 0 -8872.499 -61864.995 L 3127.501 -61864.996 A 1000 1000 0 0 0 4127.501 -62864.996 L 4127.501 -74864.996 A 1000 1000 0 0 0 3127.501 -75864.996 L -8872.499 -75864.995 A 1000 1000 0 0 0 -9872.499 -74864.995 M 55514.999 -152064.997 41133.749 -152064.997 A 1000 1000 0 0 0 40133.749 -151064.997 L 40133.749 -139064.997 A 1000 1000 0 0 0 41133.749 -138064.997 L 55514.999 -138064.997 A 1000 1000 0 0 0 56514.999 -139064.997 L 56514.999 -151064.997 A 1000 1000 0 0 0 55514.999 -152064.997 M 299689.999 -139065.004 299689.999 -151065.004 A 1000 1000 0 0 1 300689.999 -152065.004 L 312689.999 -152065.004 A 1000 1000 0 0 1 313689.999 -151065.004 L 313689.999 -139065.004 A 1000 1000 0 0 1 312689.999 -138065.004 L 300689.999 -138065.004 A 1000 1000 0 0 1 299689.999 -139065.004 M 318740.001 -81915.005 A 1000 1000 0 0 0 319740.001 -80915.005 L 331740.001 -80915.005 A 1000 1000 0 0 0 332740.001 -81915.005 L 332740 -93915.005 A 1000 1000 0 0 0 331740 -94915.005 L 319740 -94915.005 A 1000 1000 0 0 0 318740 -93915.005 L 318740.001 -81915.005 M 300690.002 -52052.504 A 1000 1000 0 0 0 299690.002 -51052.504 L 299690.002 -39052.504 A 1000 1000 0 0 0 300690.002 -38052.504 L 312690.002 -38052.504 A 1000 1000 0 0 0 313690.002 -39052.504 L 313690.002 -51052.504 A 1000 1000 0 0 0 312690.002 -52052.504 L 300690.002 -52052.504 M 228252.499 -139065.002 A 1000 1000 0 0 0 229252.499 -138065.002 L 243633.75 -138065.002 A 1000 1000 0 0 0 244633.749 -139065.003 L 244633.749 -151065.003 A 1000 1000 0 0 0 243633.749 -152065.002 L 229252.499 -152065.002 A 1000 1000 0 0 0 228252.499 -151065.002 L 228252.499 -139065.002 M 220821.249 -139065.002 220821.249 -151065.002 A 1000 1000 0 0 0 219821.249 -152065.002 L 205439.999 -152065.001 A 1000 1000 0 0 0 204439.999 -151065.001 L 204439.999 -139065.001 A 1000 1000 0 0 0 205439.999 -138065.001 L 219821.249 -138065.002 A 1000 1000 0 0 0 220821.249 -139065.002 M 281640 -94915.004 293640 -94915.004 A 1000 1000 0 0 1 294640 -93915.004 L 294640.001 -81915.004 A 1000 1000 0 0 1 293640.001 -80915.004 L 281640.001 -80915.004 A 1000 1000 0 0 1 280640.001 -81915.004 L 280640 -93915.004 A 1000 1000 0 0 1 281640 -94915.004" fill="none" stroke-width="187.858"/></g></svg>