<svg version="1.1" xmlns="http://www.w3.org/2000/svg" xmlns:xlink="http://www.w3.org/1999/xlink" stroke-linecap="round" stroke-linejoin="round" stroke-width="0" fill-rule="evenodd" width="3.132in" height="0.49119999999999997in" viewBox="3198.3 -5945.7 3132 491.2" id="Ko_qVlIaFHFXP-KEd_IS"><defs><circle cx="0" cy="0" r="49.2" id="Ko_qVlIaFHFXP-KEd_IS_pad-1"/></defs><g transform="translate(0,-11400.199999999999) scale(1,-1)" fill="currentColor" stroke="currentColor"><use xlink:href="#Ko_qVlIaFHFXP-KEd_IS_pad-1" x="3247.5" y="-5503.7"/><use xlink:href="#Ko_qVlIaFHFXP-KEd_IS_pad-1" x="3247.5" y="-5633.7"/><use xlink:href="#Ko_qVlIaFHFXP-KEd_IS_pad-1" x="3247.5" y="-5763.6"/><use xlink:href="#Ko_qVlIaFHFXP-KEd_IS_pad-1" x="3247.5" y="-5893.5"/><use xlink:href="#Ko_qVlIaFHFXP-KEd_IS_pad-1" x="3377.4" y="-5503.7"/><use xlink:href="#Ko_qVlIaFHFXP-KEd_IS_pad-1" x="3377.4" y="-5633.7"/><use xlink:href="#Ko_qVlIaFHFXP-KEd_IS_pad-1" x="3377.4" y="-5763.6"/><use xlink:href="#Ko_qVlIaFHFXP-KEd_IS_pad-1" x="3377.4" y="-5893.5"/><use xlink:href="#Ko_qVlIaFHFXP-KEd_IS_pad-1" x="3507.3" y="-5503.7"/><use xlink:href="#Ko_qVlIaFHFXP-KEd_IS_pad-1" x="3507.3" y="-5633.7"/><use xlink:href="#Ko_qVlIaFHFXP-KEd_IS_pad-1" x="3507.3" y="-5763.6"/><use xlink:href="#Ko_qVlIaFHFXP-KEd_IS_pad-1" x="3507.3" y="-5893.5"/><use xlink:href="#Ko_qVlIaFHFXP-KEd_IS_pad-1" x="3637.3" y="-5503.7"/><use xlink:href="#Ko_qVlIaFHFXP-KEd_IS_pad-1" x="3637.3" y="-5633.7"/><use xlink:href="#Ko_qVlIaFHFXP-KEd_IS_pad-1" x="3637.3" y="-5763.6"/><use xlink:href="#Ko_qVlIaFHFXP-KEd_IS_pad-1" x="3637.3" y="-5893.5"/><use xlink:href="#Ko_qVlIaFHFXP-KEd_IS_pad-1" x="3767.2" y="-5503.7"/><use xlink:href="#Ko_qVlIaFHFXP-KEd_IS_pad-1" x="3767.2" y="-5633.7"/><use xlink:href="#Ko_qVlIaFHFXP-KEd_IS_pad-1" x="3767.2" y="-5763.6"/><use xlink:href="#Ko_qVlIaFHFXP-KEd_IS_pad-1" x="3767.2" y="-5893.5"/><use xlink:href="#Ko_qVlIaFHFXP-KEd_IS_pad-1" x="3897.1" y="-5503.7"/><use xlink:href="#Ko_qVlIaFHFXP-KEd_IS_pad-1" x="3897.1" y="-5633.7"/><use xlink:href="#Ko_qVlIaFHFXP-KEd_IS_pad-1" x="3897.1" y="-5763.6"/><use xlink:href="#Ko_qVlIaFHFXP-KEd_IS_pad-1" x="3897.1" y="-5893.5"/><use xlink:href="#Ko_qVlIaFHFXP-KEd_IS_pad-1" x="4027" y="-5503.7"/><use xlink:href="#Ko_qVlIaFHFXP-KEd_IS_pad-1" x="4027" y="-5633.7"/><use xlink:href="#Ko_qVlIaFHFXP-KEd_IS_pad-1" x="4027" y="-5763.6"/><use xlink:href="#Ko_qVlIaFHFXP-KEd_IS_pad-1" x="4027" y="-5893.5"/><use xlink:href="#Ko_qVlIaFHFXP-KEd_IS_pad-1" x="4156.9" y="-5503.7"/><use xlink:href="#Ko_qVlIaFHFXP-KEd_IS_pad-1" x="4156.9" y="-5633.7"/><use xlink:href="#Ko_qVlIaFHFXP-KEd_IS_pad-1" x="4156.9" y="-5763.6"/><use xlink:href="#Ko_qVlIaFHFXP-KEd_IS_pad-1" x="4156.9" y="-5893.5"/><use xlink:href="#Ko_qVlIaFHFXP-KEd_IS_pad-1" x="5631.5" y="-5506.7"/><use xlink:href="#Ko_qVlIaFHFXP-KEd_IS_pad-1" x="5631.5" y="-5636.7"/><use xlink:href="#Ko_qVlIaFHFXP-KEd_IS_pad-1" x="5631.5" y="-5766.6"/><use xlink:href="#Ko_qVlIaFHFXP-KEd_IS_pad-1" x="5631.5" y="-5896.5"/><use xlink:href="#Ko_qVlIaFHFXP-KEd_IS_pad-1" x="5761.4" y="-5506.7"/><use xlink:href="#Ko_qVlIaFHFXP-KEd_IS_pad-1" x="5761.4" y="-5636.7"/><use xlink:href="#Ko_qVlIaFHFXP-KEd_IS_pad-1" x="5761.4" y="-5766.6"/><use xlink:href="#Ko_qVlIaFHFXP-KEd_IS_pad-1" x="5761.4" y="-5896.5"/><use xlink:href="#Ko_qVlIaFHFXP-KEd_IS_pad-1" x="5891.3" y="-5506.7"/><use xlink:href="#Ko_qVlIaFHFXP-KEd_IS_pad-1" x="5891.3" y="-5636.7"/><use xlink:href="#Ko_qVlIaFHFXP-KEd_IS_pad-1" x="5891.3" y="-5766.6"/><use xlink:href="#Ko_qVlIaFHFXP-KEd_IS_pad-1" x="5891.3" y="-5896.5"/><use xlink:href="#Ko_qVlIaFHFXP-KEd_IS_pad-1" x="6021.3" y="-5506.7"/><use xlink:href="#Ko_qVlIaFHFXP-KEd_IS_pad-1" x="6021.3" y="-5636.7"/><use xlink:href="#Ko_qVlIaFHFXP-KEd_IS_pad-1" x="6021.3" y="-5766.6"/><use xlink:href="#Ko_qVlIaFHFXP-KEd_IS_pad-1" x="6021.3" y="-5896.5"/><use xlink:href="#Ko_qVlIaFHFXP-KEd_IS_pad-1" x="6151.2" y="-5506.7"/><use xlink:href="#Ko_qVlIaFHFXP-KEd_IS_pad-1" x="6151.2" y="-5636.7"/><use xlink:href="#Ko_qVlIaFHFXP-KEd_IS_pad-1" x="6151.2" y="-5766.6"/><use xlink:href="#Ko_qVlIaFHFXP-KEd_IS_pad-1" x="6151.2" y="-5896.5"/><use xlink:href="#Ko_qVlIaFHFXP-KEd_IS_pad-1" x="6281.1" y="-5506.7"/><use xlink:href="#Ko_qVlIaFHFXP-KEd_IS_pad-1" x="6281.1" y="-5636.7"/><use xlink:href="#Ko_qVlIaFHFXP-KEd_IS_pad-1" x="6281.1" y="-5766.6"/><use xlink:href="#Ko_qVlIaFHFXP-KEd_IS_pad-1" x="6281.1" y="-5896.5"/></g></svg>