%TF.GenerationSoftware,KiCad,Pcbnew,7.0.5*%
%TF.CreationDate,2023-07-12T21:54:34+02:00*%
%TF.ProjectId,Strata_ANSI,53747261-7461-45f4-914e-53492e6b6963,rev?*%
%TF.SameCoordinates,Original*%
%TF.FileFunction,Soldermask,Top*%
%TF.FilePolarity,Negative*%
%FSLAX46Y46*%
G04 Gerber Fmt 4.6, Leading zero omitted, Abs format (unit mm)*
G04 Created by KiCad (PCBNEW 7.0.5) date 2023-07-12 21:54:34*
%MOMM*%
%LPD*%
G01*
G04 APERTURE LIST*
%ADD10C,2.000000*%
G04 APERTURE END LIST*
D10*
X219872390Y114468720D02*
X214872387Y114468752D01*
X102960225Y98419455D02*
X102960301Y110419462D01*
X307748108Y141280675D02*
X307748184Y153280682D01*
X118577487Y191840370D02*
X118577291Y193041252D01*
X86578602Y41269529D02*
X86578678Y53269535D01*
X8997514Y73320093D02*
G75*
G03*
X7997507Y72320045I86J-1000093D01*
G01*
X111484859Y40269370D02*
X87578596Y40269522D01*
X287698180Y154280810D02*
X275698173Y154280886D01*
X255648156Y153281013D02*
X255648080Y141281007D01*
X17235451Y141282524D02*
X17235527Y153282530D01*
X179447402Y41268938D02*
X179447479Y53268944D01*
X121010590Y154281871D02*
X109010583Y154281947D01*
X113772692Y92369383D02*
X125772698Y92369307D01*
X293747949Y117468252D02*
G75*
G03*
X294747943Y116468245I1000059J52D01*
G01*
X99485338Y116469487D02*
X111485344Y116469411D01*
X127060195Y98419302D02*
G75*
G03*
X128060232Y97419295I1000005J-2D01*
G01*
X130535443Y130469297D02*
X118535437Y130469374D01*
X237748414Y115468607D02*
G75*
G03*
X236748412Y116468614I-1000114J-107D01*
G01*
X275698022Y130468373D02*
G75*
G03*
X274698015Y129468379I13J-1000020D01*
G01*
X103247482Y60319433D02*
X103247559Y72319439D01*
X146110274Y98419181D02*
G75*
G03*
X147110242Y97419174I1000026J19D01*
G01*
X20997521Y73319963D02*
X8997514Y73320040D01*
X213872352Y115468759D02*
G75*
G03*
X214872387Y114468752I1000048J41D01*
G01*
X31522392Y53269885D02*
G75*
G03*
X30522405Y54269892I-1000092J-85D01*
G01*
X61385406Y130469737D02*
X73385413Y130469661D01*
X293747828Y98418241D02*
X293747904Y110418248D01*
X-30363287Y57321540D02*
X-31363627Y58321200D01*
X16235533Y154282537D02*
X4235527Y154282614D01*
X166160341Y111419060D02*
X178160348Y111418984D01*
X164872713Y91369058D02*
X164872637Y79369051D01*
X219641195Y53268688D02*
G75*
G03*
X218641256Y54268695I-999995J12D01*
G01*
X73385323Y116469653D02*
X61385317Y116469730D01*
X93435341Y117469526D02*
X93435417Y129469533D01*
X293747464Y41268210D02*
G75*
G03*
X294747458Y40268204I999970J-36D01*
G01*
X242456181Y110418581D02*
G75*
G03*
X241456188Y111418581I-1000081J-81D01*
G01*
X255647807Y98418484D02*
G75*
G03*
X256647801Y97418477I999973J-34D01*
G01*
X166134923Y55269030D02*
G75*
G03*
X167134978Y54269023I1000077J70D01*
G01*
X269648008Y129468411D02*
G75*
G03*
X268648018Y130468418I-1000088J-81D01*
G01*
X63860197Y97419696D02*
G75*
G03*
X64860204Y98419698I3J1000004D01*
G01*
X42335547Y154282360D02*
G75*
G03*
X41335540Y153282377I-47J-999960D01*
G01*
X70910201Y97419659D02*
X82910207Y97419582D01*
X179160342Y110418977D02*
X179160266Y98418970D01*
X68622578Y78369715D02*
G75*
G03*
X69622585Y79369657I122J999885D01*
G01*
X137585447Y130469260D02*
G75*
G03*
X136585440Y129469258I-47J-999960D01*
G01*
X-31483879Y54270286D02*
G75*
G03*
X-32483886Y53270293I-21J-999986D01*
G01*
X274698089Y141280886D02*
G75*
G03*
X275698084Y140280879I999961J-46D01*
G01*
X-13721199Y91370194D02*
G75*
G03*
X-14721127Y92370201I-1000001J6D01*
G01*
X275697658Y73318339D02*
G75*
G03*
X274697651Y72318348I-28J-999979D01*
G01*
X158016217Y53269081D02*
X158016141Y41269074D01*
X60097535Y72319714D02*
X60097459Y60319707D01*
X164872664Y91369058D02*
G75*
G03*
X163872719Y92369064I-999964J42D01*
G01*
X306747554Y54268135D02*
X294747547Y54268211D01*
X242456182Y97419031D02*
X229455870Y97418650D01*
X313959952Y194039839D02*
X305945995Y194039890D01*
X68622578Y78369663D02*
X56622572Y78369739D01*
X293748025Y129468258D02*
X293747949Y117468252D01*
X306747465Y40268127D02*
G75*
G03*
X307747471Y41268121I-38J1000044D01*
G01*
X195828737Y53268840D02*
X195828661Y41268834D01*
X-16102340Y98420213D02*
X-16102263Y110420219D01*
X44810187Y97419825D02*
X32810180Y97419901D01*
X122010311Y110419341D02*
X122010235Y98419334D01*
X-20864493Y153282773D02*
X-20864570Y141282766D01*
X268648018Y130468418D02*
X256648011Y130468495D01*
X75672671Y92369636D02*
G75*
G03*
X74672664Y91369632I-71J-999936D01*
G01*
X232950284Y92461040D02*
X233816480Y91961335D01*
X32810269Y111419909D02*
X44810276Y111419832D01*
X194828654Y40268839D02*
X180447396Y40268931D01*
X17235424Y129470018D02*
G75*
G03*
X16235382Y130470024I-999924J82D01*
G01*
X175685468Y130469039D02*
G75*
G03*
X174685461Y129469016I-68J-999939D01*
G01*
X26760254Y110419947D02*
G75*
G03*
X25760266Y111419954I-999954J53D01*
G01*
X288697461Y41268243D02*
X288697538Y53268249D01*
X203259991Y53268793D02*
X203259915Y41268786D01*
X206735395Y116468805D02*
X194735389Y116468881D01*
X-30102271Y110420308D02*
X-30102347Y98420302D01*
X218641256Y54268695D02*
X204259998Y54268787D01*
X-23667006Y27075231D02*
G75*
G03*
X-22667026Y26075394I999906J69D01*
G01*
X74385482Y141282160D02*
X74385558Y153282167D01*
X40078583Y42269825D02*
X40078666Y55269832D01*
X-33864494Y154282856D02*
X-21864487Y154282780D01*
X59016868Y135421801D02*
G75*
G03*
X59016868Y135421801I-1200000J0D01*
G01*
X165160258Y98419060D02*
X165160335Y110419066D01*
X184210268Y98418938D02*
X184210345Y110418945D01*
X179447600Y72318955D02*
X179447523Y60318948D01*
X204260362Y111418818D02*
X216260368Y111418741D01*
X168635464Y130469055D02*
X156635457Y130469131D01*
X47097535Y73319772D02*
G75*
G03*
X46097528Y72319803I-35J-999972D01*
G01*
X288697582Y60318253D02*
X288697659Y72318259D01*
X212728272Y57318735D02*
X207728270Y57318766D01*
X309745959Y157280671D02*
G75*
G03*
X310745965Y158280665I-58J1000064D01*
G01*
X42254974Y26075020D02*
G75*
G03*
X43254980Y27075143I126J999880D01*
G01*
X43254980Y27075143D02*
X43254458Y30274265D01*
X155635424Y117469130D02*
G75*
G03*
X156635368Y116469124I1000076J70D01*
G01*
X230623671Y26073781D02*
X295545671Y26073368D01*
X230623995Y194040411D02*
G75*
G03*
X229623989Y193040207I105J-1000111D01*
G01*
X269647888Y110418401D02*
G75*
G03*
X268647897Y111418408I-1000088J-81D01*
G01*
X-17102347Y97420240D02*
G75*
G03*
X-16102340Y98420213I47J999960D01*
G01*
X294747547Y54268211D02*
G75*
G03*
X293747540Y53268217I-57J-999950D01*
G01*
X156635457Y130469049D02*
G75*
G03*
X155635451Y129469137I-57J-999949D01*
G01*
X146110248Y98419181D02*
X146110324Y110419187D01*
X111484859Y40269334D02*
G75*
G03*
X112484866Y41269364I-59J1000066D01*
G01*
X7710173Y98420061D02*
X7710249Y110420068D01*
X214728286Y59318721D02*
G75*
G03*
X213728279Y58318729I114J-1000121D01*
G01*
X274697817Y98418363D02*
G75*
G03*
X275697811Y97418356I1000018J11D01*
G01*
X-5289840Y97420144D02*
X6710166Y97420067D01*
X188972650Y79368898D02*
X188972726Y91368904D01*
X165134990Y56269037D02*
X160134987Y56269069D01*
X219872390Y114468703D02*
G75*
G03*
X220872397Y115468714I10J999997D01*
G01*
X-14721217Y78370110D02*
G75*
G03*
X-13721210Y79370187I17J999990D01*
G01*
X229623164Y30274502D02*
G75*
G03*
X221223156Y30273133I-4200004J-702D01*
G01*
X7997507Y72320045D02*
X7997431Y60320039D01*
X17522582Y79369989D02*
G75*
G03*
X18522551Y78369982I1000018J11D01*
G01*
X-16102605Y53270189D02*
G75*
G03*
X-17102621Y54270195I-999995J11D01*
G01*
X117535366Y117469373D02*
G75*
G03*
X118535348Y116469366I1000034J27D01*
G01*
X242456182Y110418581D02*
X242456182Y97419031D01*
X46097451Y60319797D02*
X46097528Y72319803D01*
X159110521Y140281672D02*
G75*
G03*
X160110528Y141281615I79J999928D01*
G01*
X193735623Y153281407D02*
X193735546Y141281401D01*
X131822695Y91369268D02*
X131822619Y79369261D01*
X22285302Y117469979D02*
X22285379Y129469985D01*
X23285385Y130469980D02*
X35285392Y130469903D01*
X172016198Y53268992D02*
G75*
G03*
X171016230Y54268998I-999998J8D01*
G01*
X54335465Y140282287D02*
X42335458Y140282364D01*
X223310493Y130468665D02*
G75*
G03*
X222444464Y129968712I7J-1000065D01*
G01*
X147078724Y55269151D02*
X147078641Y42269144D01*
X-33864494Y154282901D02*
G75*
G03*
X-34864501Y153282862I94J-1000101D01*
G01*
X158575593Y54166779D02*
G75*
G03*
X159134979Y55064457I-440493J897621D01*
G01*
X7710275Y110420068D02*
G75*
G03*
X6710255Y111420075I-999975J32D01*
G01*
X306016838Y135545167D02*
G75*
G03*
X306016838Y135545167I-1200000J0D01*
G01*
X269648171Y153280924D02*
G75*
G03*
X268648169Y154280931I-999911J96D01*
G01*
X166160341Y111419065D02*
G75*
G03*
X165160335Y110419066I-41J-999965D01*
G01*
X36285386Y129469896D02*
X36285310Y117469890D01*
X217260341Y110418734D02*
G75*
G03*
X216260368Y111418741I-999941J66D01*
G01*
X35285303Y116469896D02*
X23285296Y116469972D01*
X296545989Y193040119D02*
G75*
G03*
X295545995Y194039956I-1000001J-164D01*
G01*
X256648011Y130468495D02*
G75*
G03*
X255648005Y129468501I-11J-999995D01*
G01*
X147110604Y154281703D02*
G75*
G03*
X146110597Y153281710I-4J-1000003D01*
G01*
X80435327Y116469608D02*
X92435334Y116469532D01*
X122010247Y110419341D02*
G75*
G03*
X121010317Y111419347I-999947J59D01*
G01*
X11472637Y92370034D02*
X-527370Y92370111D01*
X158575592Y54166781D02*
G75*
G03*
X158016217Y53269081I440608J-897681D01*
G01*
X255647807Y98418484D02*
X255647883Y110418490D01*
X204259998Y54268709D02*
G75*
G03*
X203259991Y53268793I2J-1000009D01*
G01*
X206728275Y58318773D02*
X206728277Y58631302D01*
X307747956Y117468163D02*
X307748033Y129468169D01*
X174685612Y153281529D02*
X174685536Y141281522D01*
X252016844Y135518196D02*
G75*
G03*
X252016844Y135518196I-1200000J0D01*
G01*
X43255369Y193041732D02*
G75*
G03*
X42255298Y194041569I-1000069J-232D01*
G01*
X305945995Y194039890D02*
G75*
G03*
X304945989Y193039727I46J-1000052D01*
G01*
X131535397Y129469290D02*
G75*
G03*
X130535443Y130469297I-999997J10D01*
G01*
X244837280Y59409635D02*
X237604299Y59409630D01*
X74385407Y129469654D02*
X74385330Y117469647D01*
X18522640Y92369966D02*
G75*
G03*
X17522634Y91369995I-40J-999966D01*
G01*
X268647808Y97418400D02*
X256647801Y97418477D01*
X131239322Y26074372D02*
G75*
G03*
X132239328Y27074577I-22J1000028D01*
G01*
X121010501Y140281792D02*
G75*
G03*
X122010508Y141281857I-1J1000008D01*
G01*
X169635455Y129469048D02*
G75*
G03*
X168635464Y130469055I-999955J52D01*
G01*
X4235375Y130470132D02*
G75*
G03*
X3235368Y129470107I-75J-999932D01*
G01*
X296545677Y27073531D02*
X296545156Y30272653D01*
X174685615Y141281522D02*
G75*
G03*
X175685530Y140281515I999885J-122D01*
G01*
X12760176Y98420029D02*
X12760252Y110420036D01*
X-1487289Y57331355D02*
X-6487289Y57329655D01*
X49572568Y78369825D02*
G75*
G03*
X50572575Y79369778I-68J1000075D01*
G01*
X218641167Y40268726D02*
G75*
G03*
X219641174Y41268682I-67J1000074D01*
G01*
X-37866723Y158282883D02*
G75*
G03*
X-36866728Y157282877I1000023J17D01*
G01*
X73385475Y140282218D02*
G75*
G03*
X74385482Y141282160I125J999882D01*
G01*
X36285403Y129469896D02*
G75*
G03*
X35285392Y130469903I-1000103J-96D01*
G01*
X60097621Y72319714D02*
G75*
G03*
X59097541Y73319721I-1000121J-114D01*
G01*
X244748576Y128468569D02*
G75*
G03*
X243748498Y129468576I-1000076J-69D01*
G01*
X287697454Y40268248D02*
G75*
G03*
X288697461Y41268243I-35J1000042D01*
G01*
X128939225Y194041017D02*
X127977298Y194041023D01*
X275697569Y59318335D02*
X287697576Y59318259D01*
X122297493Y60319312D02*
X122297569Y72319318D01*
X54335465Y140282328D02*
G75*
G03*
X55335472Y141282282I-65J1000072D01*
G01*
X31810201Y98419908D02*
G75*
G03*
X32810180Y97419901I999899J-108D01*
G01*
X245835583Y153281076D02*
G75*
G03*
X244835657Y154281083I-999983J24D01*
G01*
X-37866722Y158282883D02*
X-37866577Y181060074D01*
X-14721127Y92370201D02*
X-31483637Y92370308D01*
X307747548Y53268128D02*
G75*
G03*
X306747554Y54268135I-999924J83D01*
G01*
X275698084Y140280879D02*
X287698091Y140280802D01*
X188685544Y141281433D02*
X188685620Y153281439D01*
X237748400Y115468607D02*
G75*
G03*
X238748400Y114468600I999900J-107D01*
G01*
X220084430Y91956667D02*
X219218574Y91456373D01*
X74672618Y79369625D02*
G75*
G03*
X75672582Y78369618I999882J-125D01*
G01*
X195828747Y53268840D02*
G75*
G03*
X194828743Y54268847I-999947J60D01*
G01*
X-15814718Y117470221D02*
X-15814642Y129470228D01*
X-34084553Y184842050D02*
X126939166Y184841025D01*
X227072759Y98418666D02*
G75*
G03*
X228072786Y97418659I1000041J34D01*
G01*
X28047435Y59319911D02*
X40047442Y59319835D01*
X211517384Y77453755D02*
X211512965Y90453754D01*
X-21864728Y116470321D02*
G75*
G03*
X-20864721Y117470254I128J999879D01*
G01*
X130535354Y116469339D02*
G75*
G03*
X131535361Y117469284I-54J1000061D01*
G01*
X255648100Y141281007D02*
G75*
G03*
X256648074Y140281000I999900J-107D01*
G01*
X125772609Y78369284D02*
G75*
G03*
X126772616Y79369294I-9J1000016D01*
G01*
X60385542Y141282249D02*
G75*
G03*
X61385468Y140282242I1000058J51D01*
G01*
X98485287Y117469494D02*
G75*
G03*
X99485338Y116469487I1000013J6D01*
G01*
X97197473Y59319520D02*
G75*
G03*
X98197480Y60319465I127J999880D01*
G01*
X69910283Y110419672D02*
X69910207Y98419666D01*
X142347497Y59319184D02*
X154347504Y59319107D01*
X-17102621Y54270195D02*
X-31483879Y54270287D01*
X274697651Y72318348D02*
X274697575Y60318342D01*
X42335396Y130469858D02*
X54335402Y130469782D01*
X121010228Y97419265D02*
G75*
G03*
X122010235Y98419334I-28J1000035D01*
G01*
X221872404Y116468703D02*
G75*
G03*
X220872397Y115468714I-4J-1000003D01*
G01*
X55335396Y129469775D02*
X55335320Y117469769D01*
X-20864645Y129470260D02*
X-20864721Y117470254D01*
X16235293Y116470001D02*
G75*
G03*
X17235299Y117470011I7J999999D01*
G01*
X-8198336Y72329074D02*
X-9064531Y72828780D01*
X234682675Y91461629D02*
X241388624Y91463908D01*
X163872630Y78369063D02*
G75*
G03*
X164872637Y79369051I-30J1000037D01*
G01*
X177102303Y47136882D02*
G75*
G03*
X177102303Y47136882I-1200000J0D01*
G01*
X13760259Y111419948D02*
G75*
G03*
X12760252Y110420036I-59J-999948D01*
G01*
X227072504Y53268641D02*
X227072428Y41268635D01*
X59097452Y59319713D02*
X47097446Y59319790D01*
X294748032Y130468252D02*
G75*
G03*
X293748025Y129468258I9J-1000016D01*
G01*
X27047517Y72319924D02*
X27047441Y60319918D01*
X268647444Y40268370D02*
X256647438Y40268446D01*
X179447541Y60318948D02*
G75*
G03*
X180447518Y59318941I1000059J52D01*
G01*
X140078582Y42269189D02*
G75*
G03*
X141078631Y41269182I1000018J11D01*
G01*
X64860311Y110419704D02*
G75*
G03*
X63860286Y111419711I-1000111J-104D01*
G01*
X268648080Y140280913D02*
G75*
G03*
X269648087Y141280918I120J999887D01*
G01*
X274697939Y117468373D02*
G75*
G03*
X275697933Y116468366I1000016J9D01*
G01*
X-13721210Y79370187D02*
X-13721133Y91370194D01*
X306054305Y60529176D02*
G75*
G03*
X306054305Y60529176I-1200000J0D01*
G01*
X55335548Y153282288D02*
X55335472Y141282282D01*
X46097390Y60319797D02*
G75*
G03*
X47097446Y59319790I1000010J3D01*
G01*
X65147462Y60319675D02*
X65147538Y72319682D01*
X78147462Y59319631D02*
G75*
G03*
X79147469Y60319586I-62J1000069D01*
G01*
X159016135Y40269067D02*
X171016141Y40268991D01*
X-23666708Y193041819D02*
X-23666513Y191842697D01*
X171016141Y40268952D02*
G75*
G03*
X172016148Y41268985I-41J1000048D01*
G01*
X161397596Y73319110D02*
G75*
G03*
X160397590Y72319076I104J-1000110D01*
G01*
X6709803Y40270091D02*
G75*
G03*
X7709809Y41270031I97J999909D01*
G01*
X170922634Y78369012D02*
X182922640Y78368936D01*
X288697946Y117468284D02*
X288698022Y129468290D01*
X229604294Y59318628D02*
X214728286Y59318723D01*
X60385551Y153282256D02*
X60385474Y141282249D01*
X61385558Y154282249D02*
G75*
G03*
X60385551Y153282256I-58J-999949D01*
G01*
X293747828Y98418241D02*
G75*
G03*
X294747822Y97418234I1000064J57D01*
G01*
X232835650Y154281157D02*
G75*
G03*
X231835643Y153281165I-50J-999957D01*
G01*
X155635451Y129469137D02*
X155635374Y117469130D01*
X203260310Y98418817D02*
G75*
G03*
X204260273Y97418810I999890J-117D01*
G01*
X69622671Y91369664D02*
G75*
G03*
X68622668Y92369671I-999971J36D01*
G01*
X-33864645Y130470343D02*
X-21864639Y130470267D01*
X50834833Y41269760D02*
G75*
G03*
X51834840Y42269750I-33J1000040D01*
G01*
X8997425Y59320032D02*
X20997432Y59319956D01*
X245837342Y72409643D02*
G75*
G03*
X244837270Y73409642I-999942J57D01*
G01*
X306747949Y116468168D02*
G75*
G03*
X307747956Y117468163I-40J1000047D01*
G01*
X151872712Y92369141D02*
X163872719Y92369064D01*
X188685533Y129468927D02*
G75*
G03*
X187685474Y130468933I-999933J73D01*
G01*
X132822702Y92369305D02*
G75*
G03*
X131822695Y91369268I98J-1000105D01*
G01*
X13760259Y111420030D02*
X25760266Y111419954D01*
X268647808Y97418385D02*
G75*
G03*
X269647815Y98418395I-8J1000015D01*
G01*
X-21864576Y140282772D02*
X-33864583Y140282849D01*
X88960237Y98419544D02*
G75*
G03*
X89960211Y97419537I1000063J56D01*
G01*
X150872633Y79369140D02*
G75*
G03*
X151872623Y78369133I1000067J60D01*
G01*
X159110249Y97419097D02*
X147110242Y97419174D01*
X16235293Y116470017D02*
X4235286Y116470093D01*
X88672596Y79369536D02*
X88672672Y91369542D01*
X180447607Y73319000D02*
G75*
G03*
X179447600Y72318955I93J-1000100D01*
G01*
X-487629Y58331694D02*
X-1487289Y57331355D01*
X140639348Y27074185D02*
G75*
G03*
X141639322Y26074348I1000052J215D01*
G01*
X161397507Y59319062D02*
X173397514Y59318986D01*
X35285303Y116469890D02*
G75*
G03*
X36285310Y117469890I-3J1000010D01*
G01*
X145939613Y184840904D02*
X306964134Y184839879D01*
X146078634Y41269159D02*
G75*
G03*
X147078641Y42269144I-34J1000041D01*
G01*
X269647527Y53268370D02*
G75*
G03*
X268647533Y54268377I-1000007J0D01*
G01*
X140638807Y30275068D02*
X140639329Y27074185D01*
X97197473Y59319471D02*
X85197466Y59319547D01*
X31522613Y91369906D02*
G75*
G03*
X30522647Y92369913I-1000013J-6D01*
G01*
X37572651Y92369856D02*
G75*
G03*
X36572644Y91369874I-51J-999956D01*
G01*
X-34864664Y117470343D02*
G75*
G03*
X-33864734Y116470336I1000064J57D01*
G01*
X141060549Y153281742D02*
G75*
G03*
X140060600Y154281749I-999949J58D01*
G01*
X-2814718Y116470138D02*
X-14814724Y116470214D01*
X79147546Y72319593D02*
X79147469Y60319586D01*
X-32066487Y191841328D02*
G75*
G03*
X-23666513Y191842697I4199987J672D01*
G01*
X194735541Y140281394D02*
X206735547Y140281318D01*
X136585364Y117469252D02*
X136585440Y129469258D01*
X180447518Y59318941D02*
X192447524Y59318865D01*
X269647891Y110418401D02*
X269647815Y98418395D01*
X16235444Y140282449D02*
G75*
G03*
X17235451Y141282524I-44J1000051D01*
G01*
X89960484Y140282061D02*
X101960490Y140281984D01*
X7997432Y60320039D02*
G75*
G03*
X8997425Y59320032I1000068J61D01*
G01*
X122297505Y60319312D02*
G75*
G03*
X123297487Y59319305I999895J-112D01*
G01*
X236393722Y76462210D02*
X235686516Y76754863D01*
X55335482Y129469775D02*
G75*
G03*
X54335402Y130469782I-1000082J-75D01*
G01*
X256647890Y111418484D02*
X268647897Y111418408D01*
X245837271Y72409643D02*
X245837280Y60409636D01*
X-33864645Y130470252D02*
G75*
G03*
X-34864652Y129470349I-55J-999952D01*
G01*
X288697538Y53268249D02*
G75*
G03*
X287697543Y54268256I-999967J40D01*
G01*
X140060238Y97419255D02*
G75*
G03*
X141060245Y98419213I-38J1000045D01*
G01*
X227072792Y98418666D02*
X227072868Y110418672D01*
X141078727Y56269190D02*
X146078730Y56269158D01*
X-32483700Y79370307D02*
G75*
G03*
X-31483726Y78370300I999900J-107D01*
G01*
X-23667542Y30276114D02*
X-23667020Y27075231D01*
X-7780762Y59036322D02*
X-7487628Y58329315D01*
X173397603Y73318994D02*
X161397596Y73319070D01*
X245835651Y153281076D02*
X245835574Y141281069D01*
X-41035460Y26075510D02*
X-33067026Y26075460D01*
X229455870Y97418650D02*
X228072786Y97418659D01*
X106722599Y78369421D02*
X94722593Y78369497D01*
X101960579Y154281992D02*
X89960573Y154282068D01*
X83910214Y98419577D02*
X83910291Y110419583D01*
X51655014Y27074751D02*
G75*
G03*
X52654974Y26074914I999886J49D01*
G01*
X307747912Y110418159D02*
G75*
G03*
X306747917Y111418166I-1000003J4D01*
G01*
X-30368386Y72321539D02*
X-23662437Y72323818D01*
X31810186Y98419908D02*
X31810263Y110419915D01*
X170922723Y92368984D02*
G75*
G03*
X169922716Y91369025I-23J-999984D01*
G01*
X313986987Y26073250D02*
G75*
G03*
X314986994Y27073413I79J999928D01*
G01*
X287697818Y97418279D02*
X275697811Y97418356D01*
X50860273Y110419793D02*
X50860196Y98419787D01*
X-8487968Y59328975D02*
X-23363967Y59323919D01*
X155347615Y72319108D02*
G75*
G03*
X154347593Y73319115I-1000115J-108D01*
G01*
X175685379Y116469002D02*
X187685385Y116468926D01*
X88960566Y153282074D02*
X88960490Y141282068D01*
X80435416Y130469591D02*
G75*
G03*
X79435409Y129469622I-16J-999991D01*
G01*
X242388964Y90464248D02*
X242393382Y77464249D01*
X307747912Y110418159D02*
X307747835Y98418152D01*
X150872629Y79369140D02*
X150872706Y91369147D01*
X131822554Y79369261D02*
G75*
G03*
X132822613Y78369254I1000046J39D01*
G01*
X30522405Y54269892D02*
X16141147Y54269984D01*
X287697818Y97418279D02*
G75*
G03*
X288697825Y98418273I6J1000001D01*
G01*
X-41062496Y194042102D02*
G75*
G03*
X-42062502Y193041936I-4J-1000002D01*
G01*
X305945671Y26073302D02*
X313986987Y26073250D01*
X218517384Y77456134D02*
X219517044Y78456474D01*
X3235292Y117470100D02*
X3235368Y129470107D01*
X-31983120Y135376350D02*
G75*
G03*
X-31983120Y135376350I-1200000J0D01*
G01*
X304945156Y30274022D02*
X304945677Y27073139D01*
X127060238Y98419302D02*
X127060314Y110419308D01*
X121010228Y97419340D02*
X109010221Y97419416D01*
X145822626Y79369172D02*
X145822703Y91369179D01*
X212517724Y76454094D02*
X211810518Y76746747D01*
X112772576Y79369383D02*
G75*
G03*
X113772603Y78369376I1000024J17D01*
G01*
X84197447Y60319554D02*
G75*
G03*
X85197466Y59319547I1000053J46D01*
G01*
X6710166Y97420027D02*
G75*
G03*
X7710173Y98420061I-66J1000073D01*
G01*
X202972722Y91368815D02*
G75*
G03*
X201972740Y92368822I-999922J85D01*
G01*
X234393043Y78461530D02*
X235100249Y78168877D01*
X126772707Y91369300D02*
G75*
G03*
X125772698Y92369307I-1000107J-100D01*
G01*
X294748095Y140280758D02*
X306748101Y140280681D01*
X229623681Y27073618D02*
G75*
G03*
X230623671Y26073781I999919J82D01*
G01*
X52654974Y26074914D02*
X131239322Y26074414D01*
X18522551Y78369982D02*
X30522558Y78369905D01*
X187685537Y140281356D02*
G75*
G03*
X188685544Y141281433I-37J1000044D01*
G01*
X25760177Y97419946D02*
X13760170Y97420022D01*
X243453744Y53268537D02*
G75*
G03*
X242453769Y54268544I-999944J63D01*
G01*
X194735478Y130468929D02*
G75*
G03*
X193735471Y129468894I-78J-999929D01*
G01*
X75672582Y78369618D02*
X87672589Y78369542D01*
X192447613Y73318872D02*
X180447607Y73318949D01*
X293748177Y153280771D02*
X293748100Y141280764D01*
X147110331Y111419181D02*
X159110338Y111419105D01*
X127060518Y141281825D02*
G75*
G03*
X128060504Y140281818I999882J-125D01*
G01*
X-22796581Y72824113D02*
X-21930726Y73324407D01*
X85197555Y73319552D02*
G75*
G03*
X84197548Y72319561I-55J-999952D01*
G01*
X41335464Y141282371D02*
G75*
G03*
X42335458Y140282364I1000036J29D01*
G01*
X16141147Y54269960D02*
G75*
G03*
X15141140Y53269990I-47J-999960D01*
G01*
X295545995Y194039956D02*
X230623995Y194040370D01*
X-15814686Y117470221D02*
G75*
G03*
X-14814724Y116470214I999886J-121D01*
G01*
X-32066513Y191841328D02*
X-32066709Y193042211D01*
X111485433Y130469418D02*
X99485427Y130469495D01*
X304945989Y193039727D02*
X304946184Y191840605D01*
X207735625Y153281318D02*
G75*
G03*
X206735636Y154281325I-999925J82D01*
G01*
X185210352Y111418855D02*
G75*
G03*
X184210345Y110418945I-52J-999955D01*
G01*
X193735395Y117468888D02*
X193735471Y129468894D01*
X22285385Y141282492D02*
G75*
G03*
X23285448Y140282485I1000015J8D01*
G01*
X179160284Y110418977D02*
G75*
G03*
X178160348Y111418984I-999984J23D01*
G01*
X51834864Y55269757D02*
G75*
G03*
X50834928Y56269764I-999964J43D01*
G01*
X21997463Y72319956D02*
G75*
G03*
X20997521Y73319963I-999963J44D01*
G01*
X-30102405Y98420302D02*
G75*
G03*
X-29102353Y97420295I1000005J-2D01*
G01*
X219641174Y41268682D02*
X219641250Y53268688D01*
X136297576Y72319229D02*
X136297500Y60319223D01*
X51654458Y30275634D02*
X51654980Y27074751D01*
X109010311Y111419496D02*
G75*
G03*
X108010304Y110419430I89J-1000096D01*
G01*
X3235520Y153282620D02*
X3235443Y141282613D01*
X268647929Y116468464D02*
G75*
G03*
X269647936Y117468405I-29J1000036D01*
G01*
X220950285Y92456962D02*
X232950284Y92461040D01*
X237042545Y129468619D02*
X243748498Y129468576D01*
X-33066702Y194042048D02*
X-41062496Y194042099D01*
X242453769Y54268544D02*
X228072511Y54268635D01*
X-32067020Y27075623D02*
X-32067541Y30274745D01*
X225785557Y140281236D02*
G75*
G03*
X226785564Y141281191I-57J1000064D01*
G01*
X217260363Y110418734D02*
X217260286Y98418728D01*
X35285543Y154282416D02*
X23285537Y154282492D01*
X-32066752Y193042211D02*
G75*
G03*
X-33066702Y194042048I-999948J-111D01*
G01*
X140638813Y30275068D02*
G75*
G03*
X132238807Y30273699I-4200003J-718D01*
G01*
X56622661Y92369747D02*
X68622668Y92369671D01*
X243453687Y41268530D02*
X243453763Y53268537D01*
X117577298Y194041089D02*
X52655298Y194041503D01*
X220223671Y26073823D02*
G75*
G03*
X221223677Y27074010I-71J1000077D01*
G01*
X136585345Y117469252D02*
G75*
G03*
X137585358Y116469245I1000055J48D01*
G01*
X50834833Y41269756D02*
X41078577Y41269818D01*
X174685461Y129469016D02*
X174685385Y117469009D01*
X22285272Y117469979D02*
G75*
G03*
X23285296Y116469972I1000028J21D01*
G01*
X206643499Y73409600D02*
G75*
G03*
X205643500Y72409615I1J-1000000D01*
G01*
X36572561Y79369867D02*
G75*
G03*
X37572562Y78369861I1000039J33D01*
G01*
X147078658Y55269151D02*
G75*
G03*
X146078730Y56269158I-999958J49D01*
G01*
X55622539Y79369746D02*
G75*
G03*
X56622572Y78369739I1000061J54D01*
G01*
X218224731Y76748927D02*
X217517724Y76455794D01*
X101960307Y111419469D02*
X89960300Y111419545D01*
X16141058Y40269976D02*
X30522315Y40269885D01*
X15141076Y41269983D02*
G75*
G03*
X16141058Y40269976I1000024J17D01*
G01*
X63860286Y111419711D02*
X51860280Y111419787D01*
X108010227Y98419423D02*
X108010304Y110419430D01*
X214872483Y129468760D02*
X221578435Y129468717D01*
X74672664Y91369632D02*
X74672588Y79369625D01*
X70910290Y111419717D02*
G75*
G03*
X69910283Y110419672I110J-1000117D01*
G01*
X128060594Y154281826D02*
X140060600Y154281749D01*
X203259879Y41268786D02*
G75*
G03*
X204259909Y40268779I1000021J14D01*
G01*
X41335313Y117469858D02*
X41335389Y129469864D01*
X140078637Y42269189D02*
X140078720Y55269196D01*
X23285537Y154282470D02*
G75*
G03*
X22285530Y153282498I-37J-999970D01*
G01*
X87672678Y92369549D02*
X75672671Y92369626D01*
X141060594Y153281742D02*
X141060518Y141281736D01*
X89960573Y154282034D02*
G75*
G03*
X88960566Y153282074I-73J-999934D01*
G01*
X256647527Y54268454D02*
X268647533Y54268377D01*
X-29102353Y97420295D02*
X-17102347Y97420219D01*
X155301995Y194040911D02*
G75*
G03*
X154301989Y193040686I105J-1000111D01*
G01*
X146110597Y153281710D02*
X146110521Y141281704D01*
X61385468Y140282242D02*
X73385475Y140282166D01*
X41078673Y56269834D02*
G75*
G03*
X40078666Y55269832I-73J-999934D01*
G01*
X-31483968Y40270279D02*
X-17102710Y40270188D01*
X225785646Y154281204D02*
X213785640Y154281280D01*
X206735547Y140281346D02*
G75*
G03*
X207735554Y141281312I-47J1000054D01*
G01*
X21997438Y60319950D02*
X21997515Y72319956D01*
X205643508Y60409608D02*
X205643500Y72409615D01*
X-9995898Y104062568D02*
G75*
G03*
X-9995898Y104062568I-1200000J0D01*
G01*
X274698015Y129468379D02*
X274697939Y117468373D01*
X108010576Y153281953D02*
X108010500Y141281946D01*
X98197578Y72319472D02*
G75*
G03*
X97197562Y73319478I-999978J28D01*
G01*
X151872712Y92369194D02*
G75*
G03*
X150872706Y91369147I88J-1000094D01*
G01*
X221224184Y191839716D02*
X221223989Y193040599D01*
X-14814635Y130470242D02*
G75*
G03*
X-15814642Y129470228I35J-1000042D01*
G01*
X201972650Y78368843D02*
G75*
G03*
X202972657Y79368809I-50J1000057D01*
G01*
X127977298Y194041008D02*
G75*
G03*
X126977292Y193040860I102J-1000108D01*
G01*
X-25363287Y57323239D02*
X-30363287Y57321540D01*
X169635382Y117469041D02*
X169635458Y129469048D01*
X275697448Y40268325D02*
X287697454Y40268248D01*
X255647927Y117468494D02*
G75*
G03*
X256647922Y116468487I999973J-34D01*
G01*
X112484942Y53269370D02*
X112484866Y41269364D01*
X-527370Y92370077D02*
G75*
G03*
X-1527377Y91370116I-30J-999977D01*
G01*
X-8487968Y59328975D02*
X-7780762Y59036322D01*
X60385323Y117469737D02*
X60385399Y129469743D01*
X-34084553Y184841977D02*
G75*
G03*
X-37866577Y181060074I-47J-3781977D01*
G01*
X228072422Y40268628D02*
X242453680Y40268536D01*
X232835650Y154281159D02*
X244835657Y154281083D01*
X145822786Y91369179D02*
G75*
G03*
X144822709Y92369186I-1000086J-79D01*
G01*
X212512625Y91454094D02*
X219218574Y91456373D01*
X256648074Y140281000D02*
X268648080Y140280924D01*
X-8671472Y41270135D02*
G75*
G03*
X-7671455Y40270128I1000072J65D01*
G01*
X274698166Y153280892D02*
X274698090Y141280886D01*
X154347593Y73319115D02*
X142347586Y73319191D01*
X12760222Y98420029D02*
G75*
G03*
X13760170Y97420022I1000078J71D01*
G01*
X111485344Y116469449D02*
G75*
G03*
X112485351Y117469405I-44J1000051D01*
G01*
X74385361Y129469654D02*
G75*
G03*
X73385413Y130469661I-999961J46D01*
G01*
X-24363627Y58323579D02*
X-25363287Y57323239D01*
X288698174Y153280803D02*
G75*
G03*
X287698180Y154280810I-1000033J-26D01*
G01*
X56622661Y92369746D02*
G75*
G03*
X55622654Y91369753I-61J-999946D01*
G01*
X30522647Y92369913D02*
X18522640Y92369989D01*
X174397521Y60318980D02*
X174397597Y72318987D01*
X154301989Y193040686D02*
X154302184Y191841564D01*
X294748184Y154280765D02*
G75*
G03*
X293748177Y153280771I83J-1000090D01*
G01*
X93435440Y129469533D02*
G75*
G03*
X92435423Y130469540I-999940J67D01*
G01*
X171016230Y54268998D02*
X167134978Y54269023D01*
X206735395Y116468798D02*
G75*
G03*
X207735402Y117468799I5J1000002D01*
G01*
X131535361Y117469284D02*
X131535438Y129469290D01*
X12472634Y91370027D02*
G75*
G03*
X11472637Y92370034I-999934J73D01*
G01*
X288698098Y141280797D02*
X288698174Y153280803D01*
X51860280Y111419827D02*
G75*
G03*
X50860273Y110419793I-80J-999927D01*
G01*
X163872630Y78369057D02*
X151872623Y78369133D01*
X310746110Y181057855D02*
G75*
G03*
X306964134Y184839879I-3782025J-1D01*
G01*
X87578685Y54269522D02*
G75*
G03*
X86578678Y53269535I115J-1000122D01*
G01*
X-1527377Y91370116D02*
X-1527453Y79370110D01*
X11472548Y78369946D02*
G75*
G03*
X12472554Y79370021I-48J1000054D01*
G01*
X123297576Y73319312D02*
X135297582Y73319236D01*
X188972591Y79368898D02*
G75*
G03*
X189972644Y78368891I1000009J2D01*
G01*
X206643499Y73409616D02*
X244837270Y73409642D01*
X54335313Y116469774D02*
X42335307Y116469851D01*
X256647527Y54268380D02*
G75*
G03*
X255647520Y53268459I-27J-999980D01*
G01*
X179447431Y41268938D02*
G75*
G03*
X180447396Y40268931I1000069J62D01*
G01*
X314959946Y193040002D02*
G75*
G03*
X313959952Y194039839I-999931J-94D01*
G01*
X175685530Y140281515D02*
X187685537Y140281439D01*
X112485351Y117469405D02*
X112485427Y129469411D01*
X-5289751Y111420158D02*
G75*
G03*
X-6289758Y110420157I-49J-999958D01*
G01*
X137585447Y130469252D02*
X149585454Y130469176D01*
X-527459Y78370103D02*
X11472548Y78370027D01*
X-16102703Y41270182D02*
X-16102627Y53270189D01*
X193447572Y72318865D02*
G75*
G03*
X192447613Y73318872I-999972J35D01*
G01*
X-1814654Y129470139D02*
G75*
G03*
X-2814629Y130470146I-999946J61D01*
G01*
X242453680Y40268513D02*
G75*
G03*
X243453687Y41268530I120J999887D01*
G01*
X-785181Y72038701D02*
X-492047Y71331694D01*
X32810269Y111419937D02*
G75*
G03*
X31810263Y110419915I-69J-999937D01*
G01*
X275697901Y111418363D02*
X287697907Y111418287D01*
X160134987Y56269120D02*
G75*
G03*
X159134980Y55269075I113J-1000120D01*
G01*
X69910159Y98419666D02*
G75*
G03*
X70910201Y97419659I1000041J34D01*
G01*
X112484877Y53269370D02*
G75*
G03*
X111484948Y54269377I-999977J30D01*
G01*
X109010311Y111419424D02*
X121010317Y111419347D01*
X52655298Y194041508D02*
G75*
G03*
X51655292Y193041340I2J-1000008D01*
G01*
X51654462Y30275634D02*
G75*
G03*
X43254458Y30274265I-4200002J-684D01*
G01*
X122010508Y141281857D02*
X122010584Y153281864D01*
X185210352Y111418939D02*
X197210358Y111418863D01*
X87672589Y78369604D02*
G75*
G03*
X88672596Y79369536I111J999896D01*
G01*
X104247566Y73319441D02*
G75*
G03*
X103247559Y72319439I-66J-999941D01*
G01*
X86578622Y41269529D02*
G75*
G03*
X87578596Y40269522I1000078J71D01*
G01*
X159134980Y55269075D02*
X159134979Y55064457D01*
X-17102258Y111420226D02*
X-29102264Y111420303D01*
X293748100Y141280764D02*
G75*
G03*
X294748095Y140280758I1000003J-3D01*
G01*
X306747828Y97418158D02*
X294747822Y97418234D01*
X35285454Y140282439D02*
G75*
G03*
X36285461Y141282403I-54J1000061D01*
G01*
X244748492Y128468569D02*
X244748410Y115468562D01*
X99485427Y130469480D02*
G75*
G03*
X98485420Y129469501I-27J-999980D01*
G01*
X-32483886Y53270293D02*
X-32483962Y41270286D01*
X241388624Y91463908D02*
X242095830Y91171255D01*
X287697939Y116468290D02*
G75*
G03*
X288697946Y117468284I-38J1000045D01*
G01*
X109010583Y154281924D02*
G75*
G03*
X108010576Y153281953I-83J-999924D01*
G01*
X169922612Y79369019D02*
G75*
G03*
X170922634Y78369012I999988J-19D01*
G01*
X42335396Y130469911D02*
G75*
G03*
X41335389Y129469864I104J-1000111D01*
G01*
X127060510Y141281825D02*
X127060587Y153281832D01*
X128060321Y111419303D02*
X140060327Y111419226D01*
X216260279Y97418734D02*
X204260273Y97418810D01*
X94722682Y92369525D02*
G75*
G03*
X93722675Y91369510I-82J-999925D01*
G01*
X212785633Y153281286D02*
X212785557Y141281280D01*
X159110610Y154281628D02*
X147110604Y154281705D01*
X118577493Y191840370D02*
G75*
G03*
X126977487Y191841739I4199997J680D01*
G01*
X92435423Y130469540D02*
X80435416Y130469616D01*
X-7671366Y54270173D02*
G75*
G03*
X-8671373Y53270141I66J-1000073D01*
G01*
X160110332Y110419098D02*
X160110255Y98419092D01*
X17235376Y129470018D02*
X17235299Y117470011D01*
X204260362Y111418845D02*
G75*
G03*
X203260355Y110418824I-62J-999945D01*
G01*
X79147500Y72319593D02*
G75*
G03*
X78147551Y73319600I-1000000J7D01*
G01*
X93722597Y79369504D02*
G75*
G03*
X94722593Y78369497I999903J-104D01*
G01*
X160110628Y153281621D02*
G75*
G03*
X159110610Y154281628I-999928J79D01*
G01*
X84197472Y60319554D02*
X84197548Y72319561D01*
X36285616Y153282409D02*
G75*
G03*
X35285543Y154282416I-1000116J-109D01*
G01*
X228072875Y111418632D02*
G75*
G03*
X227072868Y110418672I-75J-999932D01*
G01*
X140060511Y140281742D02*
X128060504Y140281818D01*
X49572568Y78369784D02*
X37572562Y78369861D01*
X306747828Y97418158D02*
G75*
G03*
X307747835Y98418152I3J1000004D01*
G01*
X308972717Y75846699D02*
G75*
G03*
X308972717Y75846699I-3000000J0D01*
G01*
X236176497Y129968610D02*
G75*
G03*
X235310500Y130468630I-865997J-499910D01*
G01*
X206728266Y58318773D02*
G75*
G03*
X207728270Y57318766I1000034J27D01*
G01*
X269647527Y53268370D02*
X269647451Y41268364D01*
X116247483Y59319410D02*
G75*
G03*
X117247490Y60319344I117J999890D01*
G01*
X274697530Y53268338D02*
X274697454Y41268332D01*
X187685626Y154281446D02*
X175685619Y154281523D01*
X149585365Y116469168D02*
X137585358Y116469245D01*
X-6289856Y98420150D02*
G75*
G03*
X-5289840Y97420144I1000056J50D01*
G01*
X-8198336Y72329074D02*
X-1492387Y72331354D01*
X156635368Y116469124D02*
X168635375Y116469047D01*
X304945156Y30274022D02*
G75*
G03*
X296545156Y30272653I-4200000J-622D01*
G01*
X159110249Y97419145D02*
G75*
G03*
X160110255Y98419092I-49J1000055D01*
G01*
X50572651Y91369785D02*
X50572575Y79369778D01*
X-31483726Y78370300D02*
X-14721217Y78370193D01*
X293747540Y53268217D02*
X293747464Y41268210D01*
X310746110Y181057855D02*
X310745965Y158280665D01*
X89960211Y97419537D02*
X101960218Y97419461D01*
X288698022Y129468290D02*
G75*
G03*
X287698028Y130468297I-1000047J-40D01*
G01*
X243748403Y114468568D02*
X238748400Y114468600D01*
X198210352Y110418856D02*
X198210276Y98418849D01*
X-20864633Y129470260D02*
G75*
G03*
X-21864639Y130470267I-999967J40D01*
G01*
X126772693Y91369300D02*
X126772616Y79369294D01*
X-23667459Y30276114D02*
G75*
G03*
X-32067541Y30274745I-4200041J-714D01*
G01*
X104247566Y73319434D02*
X116247572Y73319357D01*
X106722599Y78369394D02*
G75*
G03*
X107722606Y79369415I1J1000006D01*
G01*
X229623989Y193040207D02*
X229624184Y191841084D01*
X217517724Y76455794D02*
X212517724Y76454094D01*
X20997432Y59319962D02*
G75*
G03*
X21997438Y60319950I-32J1000038D01*
G01*
X182922729Y92368943D02*
X170922723Y92369020D01*
X126939166Y184841021D02*
G75*
G03*
X128939179Y186841012I134J1999879D01*
G01*
X73385323Y116469570D02*
G75*
G03*
X74385330Y117469647I-23J1000030D01*
G01*
X158016167Y41269074D02*
G75*
G03*
X159016135Y40269067I1000033J26D01*
G01*
X141060321Y110419219D02*
X141060245Y98419213D01*
X140060238Y97419219D02*
X128060232Y97419295D01*
X231835567Y141281158D02*
X231835643Y153281165D01*
X44810187Y97419806D02*
G75*
G03*
X45810194Y98419819I113J999894D01*
G01*
X168635375Y116469118D02*
G75*
G03*
X169635382Y117469041I125J999882D01*
G01*
X206728277Y58631302D02*
X206581851Y59151987D01*
X149585365Y116469128D02*
G75*
G03*
X150585372Y117469163I-65J1000072D01*
G01*
X155347510Y60319101D02*
X155347587Y72319108D01*
X183922647Y79368930D02*
X183922723Y91368936D01*
X275698173Y154280884D02*
G75*
G03*
X274698166Y153280892I-83J-999924D01*
G01*
X-20864520Y153282773D02*
G75*
G03*
X-21864487Y154282780I-999980J27D01*
G01*
X194828654Y40268839D02*
G75*
G03*
X195828661Y41268834I-54J1000061D01*
G01*
X118577289Y193041252D02*
G75*
G03*
X117577298Y194041089I-1000089J-252D01*
G01*
X144822709Y92369186D02*
X132822702Y92369262D01*
X-14814635Y130470222D02*
X-2814629Y130470146D01*
X117247557Y72319350D02*
G75*
G03*
X116247572Y73319357I-999957J50D01*
G01*
X160397462Y60319069D02*
G75*
G03*
X161397507Y59319062I1000038J31D01*
G01*
X275697901Y111418366D02*
G75*
G03*
X274697894Y110418369I59J-1000066D01*
G01*
X-21864728Y116470259D02*
X-33864734Y116470336D01*
X-34864577Y141282855D02*
X-34864501Y153282862D01*
X244835568Y140281126D02*
G75*
G03*
X245835574Y141281069I-68J1000074D01*
G01*
X288697901Y110418280D02*
X288697825Y98418273D01*
X166134937Y55269030D02*
G75*
G03*
X165134990Y56269037I-999937J70D01*
G01*
X150585448Y129469169D02*
X150585372Y117469163D01*
X23285385Y130470021D02*
G75*
G03*
X22285379Y129469985I115J-1000121D01*
G01*
X227072428Y41268635D02*
G75*
G03*
X228072422Y40268628I1000072J65D01*
G01*
X141639322Y26074348D02*
X220223671Y26073847D01*
X42335547Y154282371D02*
X54335554Y154282295D01*
X-7671366Y54270135D02*
X6709892Y54270044D01*
X66147545Y73319676D02*
X78147551Y73319600D01*
X221224176Y191839716D02*
G75*
G03*
X229624184Y191841084I4200004J614D01*
G01*
X79435409Y129469622D02*
X79435333Y117469615D01*
X256647890Y111418417D02*
G75*
G03*
X255647883Y110418490I10J-1000017D01*
G01*
X178160259Y97418976D02*
X166160252Y97419053D01*
X-21864576Y140282770D02*
G75*
G03*
X-20864570Y141282766I-24J1000030D01*
G01*
X160110528Y141281615D02*
X160110605Y153281621D01*
X221578435Y129468723D02*
G75*
G03*
X222444464Y129968712I-35J1000077D01*
G01*
X295545671Y26073368D02*
G75*
G03*
X296545677Y27073531I94J999912D01*
G01*
X98485420Y129469501D02*
X98485343Y117469494D01*
X128939179Y186841012D02*
X128939225Y194041017D01*
X50572592Y91369785D02*
G75*
G03*
X49572657Y92369792I-999992J15D01*
G01*
X45810332Y110419825D02*
G75*
G03*
X44810276Y111419832I-999932J75D01*
G01*
X144822620Y78369174D02*
G75*
G03*
X145822626Y79369172I-20J1000026D01*
G01*
X101960218Y97419475D02*
G75*
G03*
X102960225Y98419455I-18J1000025D01*
G01*
X122010671Y153281864D02*
G75*
G03*
X121010590Y154281871I-1000071J-64D01*
G01*
X54335313Y116469780D02*
G75*
G03*
X55335320Y117469769I-13J1000020D01*
G01*
X-1814634Y129470139D02*
X-1814711Y117470132D01*
X132822613Y78369254D02*
X144822620Y78369178D01*
X-34864551Y141282855D02*
G75*
G03*
X-33864583Y140282849I1000051J45D01*
G01*
X182922640Y78368853D02*
G75*
G03*
X183922647Y79368930I-40J1000047D01*
G01*
X92435334Y116469459D02*
G75*
G03*
X93435341Y117469526I-34J1000041D01*
G01*
X234682675Y91461629D02*
X233816480Y91961335D01*
X30522315Y40269878D02*
G75*
G03*
X31522322Y41269879I-15J1000022D01*
G01*
X-22667026Y26075394D02*
X42254974Y26074980D01*
X37572651Y92369868D02*
X49572657Y92369792D01*
X94722682Y92369504D02*
X106722688Y92369428D01*
X201972650Y78368814D02*
X189972644Y78368891D01*
X79435408Y117469615D02*
G75*
G03*
X80435327Y116469608I999892J-115D01*
G01*
X144901995Y194040915D02*
X143939671Y194040922D01*
X-2814718Y116470211D02*
G75*
G03*
X-1814711Y117470132I118J999889D01*
G01*
X287697543Y54268256D02*
X275697537Y54268332D01*
X218517384Y77456134D02*
X218224731Y76748927D01*
X-32483643Y91370313D02*
X-32483720Y79370307D01*
X3235293Y117470100D02*
G75*
G03*
X4235286Y116470093I999907J-100D01*
G01*
X40078618Y42269825D02*
G75*
G03*
X41078577Y41269818I999882J-125D01*
G01*
X82910207Y97419586D02*
G75*
G03*
X83910214Y98419577I-7J1000014D01*
G01*
X287697576Y59318259D02*
G75*
G03*
X288697582Y60318253I92J999914D01*
G01*
X294747911Y111418242D02*
G75*
G03*
X293747904Y110418248I54J-1000061D01*
G01*
X15141140Y53269990D02*
X15141063Y41269983D01*
X117247566Y72319350D02*
X117247490Y60319344D01*
X83910290Y110419583D02*
G75*
G03*
X82910296Y111419590I-1000090J-83D01*
G01*
X221223677Y27074010D02*
X221223156Y30273133D01*
X213785640Y154281267D02*
G75*
G03*
X212785633Y153281286I-40J-999967D01*
G01*
X207735479Y129468805D02*
X207735402Y117468799D01*
X236604285Y57318508D02*
G75*
G03*
X237604292Y58318577I15J999992D01*
G01*
X140060511Y140281782D02*
G75*
G03*
X141060518Y141281736I89J999918D01*
G01*
X89960300Y111419607D02*
G75*
G03*
X88960293Y110419551I100J-1000107D01*
G01*
X226785564Y141281191D02*
X226785641Y153281197D01*
X275697933Y116468366D02*
X287697939Y116468290D01*
X-31368046Y71321199D02*
X-30368386Y72321539D01*
X294747458Y40268204D02*
X306747465Y40268127D01*
X-6487289Y57329655D02*
X-7487628Y58329315D01*
X85197555Y73319555D02*
X97197562Y73319478D01*
X184210331Y98418938D02*
G75*
G03*
X185210263Y97418931I1000069J62D01*
G01*
X183922743Y91368936D02*
G75*
G03*
X182922729Y92368943I-999943J64D01*
G01*
X117535430Y129469379D02*
X117535354Y117469373D01*
X255647446Y41268453D02*
G75*
G03*
X256647438Y40268446I1000054J47D01*
G01*
X51860191Y97419780D02*
X63860197Y97419704D01*
X-42035490Y27075348D02*
G75*
G03*
X-41035460Y26075510I999990J152D01*
G01*
X88672649Y91369542D02*
G75*
G03*
X87672678Y92369549I-999949J58D01*
G01*
X102960269Y110419462D02*
G75*
G03*
X101960307Y111419469I-999969J38D01*
G01*
X194735478Y130468889D02*
X206735485Y130468812D01*
X108010439Y141281946D02*
G75*
G03*
X109010494Y140281939I1000061J54D01*
G01*
X229623156Y30274502D02*
X229623677Y27073618D01*
X287697665Y73318266D02*
X275697658Y73318343D01*
X160110305Y110419098D02*
G75*
G03*
X159110338Y111419105I-1000005J2D01*
G01*
X189972733Y92368898D02*
X201972740Y92368822D01*
X213785551Y140281273D02*
X225785557Y140281196D01*
X202972734Y91368815D02*
X202972657Y79368809D01*
X274697817Y98418363D02*
X274697894Y110418369D01*
X128060594Y154281813D02*
G75*
G03*
X127060587Y153281832I106J-1000113D01*
G01*
X314986994Y27073413D02*
X314959946Y193040002D01*
X192447524Y59318869D02*
G75*
G03*
X193447531Y60318859I-24J1000031D01*
G01*
X288697901Y110418280D02*
G75*
G03*
X287697907Y111418287I-1000045J-38D01*
G01*
X269648087Y141280918D02*
X269648164Y153280924D01*
X61385406Y130469801D02*
G75*
G03*
X60385399Y129469743I94J-1000101D01*
G01*
X107722628Y91369421D02*
G75*
G03*
X106722688Y92369428I-999928J79D01*
G01*
X-22666702Y194041908D02*
G75*
G03*
X-23666708Y193041819I2J-1000008D01*
G01*
X220084430Y91956667D02*
X220950285Y92456962D01*
X203260279Y98418817D02*
X203260355Y110418824D01*
X102960592Y153281985D02*
G75*
G03*
X101960579Y154281992I-999992J15D01*
G01*
X-1527497Y79370110D02*
G75*
G03*
X-527459Y78370103I999997J-10D01*
G01*
X160397590Y72319076D02*
X160397513Y60319069D01*
X50860280Y98419787D02*
G75*
G03*
X51860191Y97419780I999920J-87D01*
G01*
X45810270Y110419825D02*
X45810194Y98419819D01*
X43255487Y191840849D02*
X43255291Y193041732D01*
X101960490Y140281903D02*
G75*
G03*
X102960497Y141281978I10J999997D01*
G01*
X269647936Y117468405D02*
X269648012Y129468411D01*
X-42062502Y193041936D02*
X-42035454Y27075348D01*
X228072875Y111418666D02*
X241456188Y111418581D01*
X-8671449Y41270135D02*
X-8671373Y53270141D01*
X-9930727Y73328486D02*
X-9064531Y72828780D01*
X234393043Y78461530D02*
X219517044Y78456474D01*
X141060326Y110419219D02*
G75*
G03*
X140060327Y111419226I-999926J81D01*
G01*
X211512965Y90453754D02*
X212512625Y91454094D01*
X47097535Y73319797D02*
X59097541Y73319721D01*
X288697659Y72318259D02*
G75*
G03*
X287697665Y73318266I-999969J38D01*
G01*
X154347504Y59319090D02*
G75*
G03*
X155347510Y60319101I-4J1000010D01*
G01*
X40047442Y59319751D02*
G75*
G03*
X41047449Y60319829I-42J1000049D01*
G01*
X112772609Y79369383D02*
X112772685Y91369389D01*
X187685385Y116468908D02*
G75*
G03*
X188685392Y117468920I115J999892D01*
G01*
X307747471Y41268121D02*
X307747548Y53268128D01*
X7709844Y53270037D02*
G75*
G03*
X6709892Y54270044I-999944J63D01*
G01*
X206735636Y154281325D02*
X194735630Y154281401D01*
X141347584Y60319190D02*
G75*
G03*
X142347497Y59319184I999916J-90D01*
G01*
X93722598Y79369504D02*
X93722675Y91369510D01*
X224602297Y47160606D02*
G75*
G03*
X224602297Y47160606I-1200000J0D01*
G01*
X244837280Y59409620D02*
G75*
G03*
X245837280Y60409636I120J999880D01*
G01*
X88960293Y110419551D02*
X88960217Y98419544D01*
X135297493Y59319300D02*
G75*
G03*
X136297500Y60319223I107J999900D01*
G01*
X243748403Y114468490D02*
G75*
G03*
X244748410Y115468562I-3J1000010D01*
G01*
X213872393Y115468759D02*
X213872476Y128468766D01*
X294747911Y111418242D02*
X306747917Y111418166D01*
X197210269Y97418824D02*
G75*
G03*
X198210276Y98418849I-69J1000076D01*
G01*
X7709886Y53270037D02*
X7709809Y41270031D01*
X216260279Y97418714D02*
G75*
G03*
X217260286Y98418728I121J999886D01*
G01*
X-31363627Y58321200D02*
X-31368046Y71321199D01*
X150585476Y129469169D02*
G75*
G03*
X149585454Y130469176I-999976J31D01*
G01*
X98197556Y72319472D02*
X98197480Y60319465D01*
X309745959Y157280671D02*
X-36866728Y157282877D01*
X274697575Y60318342D02*
G75*
G03*
X275697569Y59318335I1000095J88D01*
G01*
X82910296Y111419590D02*
X70910290Y111419666D01*
X51655292Y193041340D02*
X51655487Y191842218D01*
X223310493Y130468707D02*
X235310500Y130468630D01*
X41047542Y72319835D02*
G75*
G03*
X40047531Y73319842I-999942J65D01*
G01*
X-17102710Y40270103D02*
G75*
G03*
X-16102703Y41270182I10J999997D01*
G01*
X207735554Y141281312D02*
X207735630Y153281318D01*
X236748412Y116468614D02*
X221872404Y116468708D01*
X294747943Y116468245D02*
X306747949Y116468168D01*
X41335251Y117469858D02*
G75*
G03*
X42335307Y116469851I1000049J42D01*
G01*
X197210269Y97418855D02*
X185210263Y97418931D01*
X125772609Y78369299D02*
X113772603Y78369376D01*
X212728272Y57318721D02*
G75*
G03*
X213728279Y58318729I128J999879D01*
G01*
X169922716Y91369025D02*
X169922640Y79369019D01*
X230604228Y58318621D02*
G75*
G03*
X229604294Y59318628I-999928J79D01*
G01*
X42255298Y194041569D02*
X-22666702Y194041982D01*
X147110515Y140281697D02*
X159110521Y140281621D01*
X145902176Y191840195D02*
G75*
G03*
X154302184Y191841564I4200004J685D01*
G01*
X141347579Y72319197D02*
X141347503Y60319190D01*
X118535348Y116469366D02*
X130535354Y116469290D01*
X-22796581Y72824113D02*
X-23662437Y72323818D01*
X145902015Y193041078D02*
G75*
G03*
X144901995Y194040915I-1000115J-278D01*
G01*
X306748101Y140280681D02*
G75*
G03*
X307748108Y141280675I32J999975D01*
G01*
X-492047Y71331694D02*
X-487629Y58331694D01*
X12472554Y79370021D02*
X12472631Y91370027D01*
X64860204Y98419698D02*
X64860280Y110419704D01*
X178160259Y97418934D02*
G75*
G03*
X179160266Y98418970I-59J1000066D01*
G01*
X173397514Y59318979D02*
G75*
G03*
X174397521Y60318980I-14J1000021D01*
G01*
X236176492Y129968607D02*
G75*
G03*
X237042545Y129468619I866008J499993D01*
G01*
X205643546Y60409608D02*
G75*
G03*
X206185893Y59520458I999854J-108D01*
G01*
X28047524Y73319883D02*
G75*
G03*
X27047517Y72319924I-24J-999983D01*
G01*
X142347586Y73319121D02*
G75*
G03*
X141347579Y72319197I14J-1000021D01*
G01*
X51834922Y55269757D02*
X51834840Y42269750D01*
X102960497Y141281978D02*
X102960574Y153281985D01*
X65147468Y60319675D02*
G75*
G03*
X66147456Y59319668I1000032J25D01*
G01*
X36572568Y79369867D02*
X36572644Y91369874D01*
X87578685Y54269529D02*
X111484948Y54269377D01*
X236604285Y57318583D02*
X231604283Y57318615D01*
X189972733Y92368874D02*
G75*
G03*
X188972726Y91368904I-33J-999974D01*
G01*
X304945677Y27073139D02*
G75*
G03*
X305945671Y26073302I999982J145D01*
G01*
X66147545Y73319662D02*
G75*
G03*
X65147538Y72319682I-45J-999962D01*
G01*
X256647922Y116468487D02*
X268647929Y116468411D01*
X136297636Y72319229D02*
G75*
G03*
X135297582Y73319236I-999936J71D01*
G01*
X207735512Y129468805D02*
G75*
G03*
X206735485Y130468812I-1000112J-105D01*
G01*
X55622578Y79369746D02*
X55622654Y91369753D01*
X37102320Y47066958D02*
G75*
G03*
X37102320Y47066958I-1200000J0D01*
G01*
X41078673Y56269826D02*
X50834928Y56269764D01*
X230604315Y58318621D02*
G75*
G03*
X231604283Y57318615I999885J-121D01*
G01*
X220223995Y194040436D02*
X155301995Y194040849D01*
X307748184Y153280682D02*
G75*
G03*
X306748190Y154280689I-1000062J-55D01*
G01*
X73385564Y154282174D02*
X61385558Y154282250D01*
X78147462Y59319592D02*
X66147456Y59319668D01*
X204259909Y40268779D02*
X218641167Y40268688D01*
X287698028Y130468297D02*
X275698022Y130468373D01*
X6709803Y40270036D02*
X-7671455Y40270128D01*
X4235438Y140282606D02*
X16235444Y140282530D01*
X-11097674Y47042884D02*
G75*
G03*
X-11097674Y47042884I-1200000J0D01*
G01*
X41335464Y141282371D02*
X41335540Y153282377D01*
X235100249Y78168877D02*
X235393383Y77461870D01*
X274697454Y41268332D02*
G75*
G03*
X275697448Y40268325I1000098J91D01*
G01*
X31522322Y41269879D02*
X31522399Y53269885D01*
X174685402Y117469009D02*
G75*
G03*
X175685379Y116469002I999898J-109D01*
G01*
X307748033Y129468169D02*
G75*
G03*
X306748039Y130468176I-1000004J3D01*
G01*
X306748190Y154280689D02*
X294748184Y154280765D01*
X147110331Y111419176D02*
G75*
G03*
X146110324Y110419187I-31J-999976D01*
G01*
X172016148Y41268985D02*
X172016225Y53268992D01*
X88960461Y141282068D02*
G75*
G03*
X89960484Y140282061I1000039J32D01*
G01*
X256648163Y154281044D02*
G75*
G03*
X255648156Y153281013I-63J-999944D01*
G01*
X228072511Y54268696D02*
G75*
G03*
X227072504Y53268641I89J-1000096D01*
G01*
X214872483Y129468724D02*
G75*
G03*
X213872476Y128468766I-83J-999924D01*
G01*
X221223936Y193040599D02*
G75*
G03*
X220223995Y194040436I-999936J-99D01*
G01*
X17522634Y91369995D02*
X17522557Y79369989D01*
X193447531Y60318859D02*
X193447607Y72318865D01*
X118535437Y130469370D02*
G75*
G03*
X117535430Y129469379I-37J-999970D01*
G01*
X-24363627Y58323579D02*
X-23363967Y59323919D01*
X168016855Y135476242D02*
G75*
G03*
X168016855Y135476242I-1200000J0D01*
G01*
X193735494Y141281401D02*
G75*
G03*
X194735541Y140281394I1000006J-1D01*
G01*
X135297493Y59319228D02*
X123297487Y59319305D01*
X55335495Y153282288D02*
G75*
G03*
X54335554Y154282295I-999995J12D01*
G01*
X275697537Y54268330D02*
G75*
G03*
X274697530Y53268338I13J-1000020D01*
G01*
X231835552Y141281158D02*
G75*
G03*
X232835561Y140281152I1000048J42D01*
G01*
X212785573Y141281280D02*
G75*
G03*
X213785551Y140281273I1000027J20D01*
G01*
X-1492387Y72331354D02*
X-785181Y72038701D01*
X59097452Y59319741D02*
G75*
G03*
X60097459Y60319707I-52J1000059D01*
G01*
X226785604Y153281197D02*
G75*
G03*
X225785646Y154281204I-1000004J3D01*
G01*
X107722682Y91369421D02*
X107722606Y79369415D01*
X112485418Y129469411D02*
G75*
G03*
X111485433Y130469418I-1000118J-111D01*
G01*
X306748039Y130468176D02*
X294748032Y130468252D01*
X143939704Y186840916D02*
G75*
G03*
X145939613Y184840904I1999896J-116D01*
G01*
X43255513Y191840849D02*
G75*
G03*
X51655487Y191842218I4199987J651D01*
G01*
X31522565Y79369900D02*
X31522641Y91369906D01*
X242095830Y91171255D02*
X242388964Y90464248D01*
X146078634Y41269150D02*
X141078631Y41269182D01*
X36285461Y141282403D02*
X36285538Y153282409D01*
X255647443Y41268453D02*
X255647520Y53268459D01*
X30522558Y78369935D02*
G75*
G03*
X31522565Y79369900I-58J1000065D01*
G01*
X25760177Y97420017D02*
G75*
G03*
X26760183Y98419940I123J999883D01*
G01*
X143939671Y194040922D02*
X143939626Y186840916D01*
X-29102264Y111420271D02*
G75*
G03*
X-30102271Y110420308I-36J-999971D01*
G01*
X4235527Y154282580D02*
G75*
G03*
X3235520Y153282620I-27J-999980D01*
G01*
X193735481Y117468888D02*
G75*
G03*
X194735389Y116468881I999919J-88D01*
G01*
X235686516Y76754863D02*
X235393383Y77461870D01*
X108010316Y98419423D02*
G75*
G03*
X109010221Y97419416I999884J-123D01*
G01*
X74385574Y153282167D02*
G75*
G03*
X73385564Y154282174I-999974J33D01*
G01*
X211810518Y76746747D02*
X211517384Y77453755D01*
X188685646Y153281439D02*
G75*
G03*
X187685626Y154281446I-999946J61D01*
G01*
X268648169Y154280931D02*
X256648163Y154281008D01*
X206581851Y59151987D02*
X206185893Y59520458D01*
X174397594Y72318987D02*
G75*
G03*
X173397603Y73318994I-1000094J-87D01*
G01*
X141078727Y56269180D02*
G75*
G03*
X140078720Y55269196I-27J-999980D01*
G01*
X116247483Y59319350D02*
X104247476Y59319426D01*
X3235406Y141282613D02*
G75*
G03*
X4235438Y140282606I999994J-13D01*
G01*
X187685474Y130468933D02*
X175685468Y130469010D01*
X198210363Y110418856D02*
G75*
G03*
X197210358Y111418863I-999963J44D01*
G01*
X244835568Y140281075D02*
X232835561Y140281152D01*
X26760260Y110419947D02*
X26760183Y98419940D01*
X-32484021Y41270286D02*
G75*
G03*
X-31483968Y40270279I1000021J14D01*
G01*
X241393722Y76463909D02*
X236393722Y76462210D01*
X27047411Y60319918D02*
G75*
G03*
X28047435Y59319911I999989J-18D01*
G01*
X194735630Y154281377D02*
G75*
G03*
X193735623Y153281407I-30J-999977D01*
G01*
X6710255Y111420075D02*
X-5289751Y111420151D01*
X287698091Y140280802D02*
G75*
G03*
X288698098Y141280797I33J999974D01*
G01*
X113772692Y92369315D02*
G75*
G03*
X112772685Y91369389I8J-1000015D01*
G01*
X242393382Y77464249D02*
X241393722Y76463909D01*
X17235537Y153282530D02*
G75*
G03*
X16235533Y154282537I-999937J70D01*
G01*
X145902184Y191840195D02*
X145901989Y193041078D01*
X296546184Y191839236D02*
X296545989Y193040119D01*
X188685392Y117468920D02*
X188685468Y129468927D01*
X41047449Y60319829D02*
X41047525Y72319835D01*
X296546184Y191839236D02*
G75*
G03*
X304946184Y191840605I4200000J592D01*
G01*
X-34864729Y117470343D02*
X-34864652Y129470349D01*
X109010494Y140281939D02*
X121010501Y140281863D01*
X146110597Y141281704D02*
G75*
G03*
X147110515Y140281697I999903J-104D01*
G01*
X-6289758Y110420157D02*
X-6289834Y98420150D01*
X255648005Y129468501D02*
X255647928Y117468494D01*
X4235375Y130470101D02*
X16235382Y130470024D01*
X-16102274Y110420219D02*
G75*
G03*
X-17102258Y111420226I-999926J81D01*
G01*
X165160253Y98419060D02*
G75*
G03*
X166160252Y97419053I1000047J40D01*
G01*
X23285448Y140282485D02*
X35285454Y140282409D01*
X22285530Y153282498D02*
X22285454Y141282492D01*
X-21930726Y73324407D02*
X-9930727Y73328486D01*
X40047531Y73319842D02*
X28047524Y73319918D01*
X60385330Y117469737D02*
G75*
G03*
X61385317Y116469730I1000070J63D01*
G01*
X237604299Y59409630D02*
X237604292Y58318577D01*
X-31483637Y92370343D02*
G75*
G03*
X-32483643Y91370313I37J-1000043D01*
G01*
X268647444Y40268349D02*
G75*
G03*
X269647451Y41268364I-44J1000051D01*
G01*
X180447485Y54268938D02*
X194828743Y54268847D01*
X175685619Y154281588D02*
G75*
G03*
X174685612Y153281529I81J-1000088D01*
G01*
X103247426Y60319433D02*
G75*
G03*
X104247476Y59319426I1000074J67D01*
G01*
X69622662Y91369664D02*
X69622585Y79369657D01*
X126977292Y193040860D02*
X126977487Y191841739D01*
X132239328Y27074577D02*
X132238807Y30273699D01*
X180447485Y54268921D02*
G75*
G03*
X179447479Y53268944I-85J-999921D01*
G01*
X-33067026Y26075520D02*
G75*
G03*
X-32067020Y27075623I126J999880D01*
G01*
X123297576Y73319331D02*
G75*
G03*
X122297569Y72319318I-76J-999931D01*
G01*
X128060321Y111419286D02*
G75*
G03*
X127060314Y110419308I-21J-999986D01*
G01*
M02*
