%TF.GenerationSoftware,KiCad,Pcbnew,7.0.5*%
%TF.CreationDate,2023-07-12T21:54:34+02:00*%
%TF.ProjectId,Strata_ANSI,53747261-7461-45f4-914e-53492e6b6963,rev?*%
%TF.SameCoordinates,Original*%
%TF.FileFunction,Soldermask,Bot*%
%TF.FilePolarity,Negative*%
%FSLAX46Y46*%
G04 Gerber Fmt 4.6, Leading zero omitted, Abs format (unit mm)*
G04 Created by KiCad (PCBNEW 7.0.5) date 2023-07-12 21:54:34*
%MOMM*%
%LPD*%
G01*
G04 APERTURE LIST*
%ADD10C,2.000000*%
G04 APERTURE END LIST*
D10*
X30522459Y54269890D02*
X16141201Y54269982D01*
X122010669Y153281862D02*
G75*
G03*
X121010644Y154281869I-1000069J-62D01*
G01*
X221224034Y193040597D02*
G75*
G03*
X220224049Y194040434I-999934J-97D01*
G01*
X118535491Y130469416D02*
G75*
G03*
X117535484Y129469377I9J-1000016D01*
G01*
X192447667Y73318870D02*
X180447661Y73318947D01*
X130535497Y130469295D02*
X118535491Y130469372D01*
X-17102293Y97420186D02*
G75*
G03*
X-16102286Y98420211I-7J1000014D01*
G01*
X287697993Y116468288D02*
G75*
G03*
X288698000Y117468282I-38J1000045D01*
G01*
X-14721163Y78370156D02*
G75*
G03*
X-13721156Y79370185I63J999944D01*
G01*
X304946043Y193039725D02*
X304946238Y191840603D01*
X227072846Y98418664D02*
X227072922Y110418670D01*
X111484913Y40269380D02*
G75*
G03*
X112484920Y41269362I-13J1000020D01*
G01*
X287698145Y140280800D02*
G75*
G03*
X288698152Y141280795I33J999974D01*
G01*
X103247524Y60319431D02*
G75*
G03*
X104247530Y59319424I1000076J69D01*
G01*
X94722736Y92369502D02*
X106722742Y92369426D01*
X145939667Y184840902D02*
X306964188Y184839877D01*
X201972704Y78368812D02*
X189972698Y78368889D01*
X12472608Y79370019D02*
X12472685Y91370025D01*
X306748244Y154280687D02*
X294748238Y154280763D01*
X87672643Y78369550D02*
G75*
G03*
X88672650Y79369534I57J999950D01*
G01*
X69622669Y91369662D02*
G75*
G03*
X68622722Y92369669I-999969J38D01*
G01*
X42335601Y154282406D02*
G75*
G03*
X41335594Y153282375I-1J-1000006D01*
G01*
X31522711Y91369904D02*
G75*
G03*
X30522701Y92369911I-1000111J-104D01*
G01*
X-1814580Y129470137D02*
X-1814657Y117470130D01*
X141639376Y26074346D02*
X220223725Y26073845D01*
X74385536Y141282158D02*
X74385612Y153282165D01*
X166135021Y55269028D02*
G75*
G03*
X167135032Y54269021I1000079J72D01*
G01*
X149585419Y116469174D02*
G75*
G03*
X150585426Y117469161I-19J1000026D01*
G01*
X50834887Y41269806D02*
G75*
G03*
X51834894Y42269748I13J999994D01*
G01*
X78147516Y59319577D02*
G75*
G03*
X79147523Y60319584I-116J1000123D01*
G01*
X31810240Y98419906D02*
X31810317Y110419913D01*
X-32483589Y91370311D02*
X-32483666Y79370305D01*
X155347613Y72319106D02*
G75*
G03*
X154347647Y73319113I-1000113J-106D01*
G01*
X47097589Y73319818D02*
G75*
G03*
X46097582Y72319801I11J-1000018D01*
G01*
X-34864666Y117470341D02*
G75*
G03*
X-33864680Y116470334I1000066J59D01*
G01*
X212517778Y76454092D02*
X211810572Y76746745D01*
X244837334Y59409633D02*
X237604353Y59409628D01*
X169922770Y91369023D02*
X169922694Y79369017D01*
X-487575Y58331692D02*
X-1487235Y57331353D01*
X198210406Y110418854D02*
X198210330Y98418847D01*
X287697630Y59318257D02*
G75*
G03*
X288697636Y60318251I92J999914D01*
G01*
X155635505Y129469135D02*
X155635428Y117469128D01*
X193447570Y72318863D02*
G75*
G03*
X192447667Y73318870I-999970J37D01*
G01*
X60097589Y72319712D02*
X60097513Y60319705D01*
X225785700Y154281202D02*
X213785694Y154281278D01*
X192447578Y59318915D02*
G75*
G03*
X193447585Y60318857I22J999985D01*
G01*
X223310547Y130468705D02*
X235310554Y130468628D01*
X106722653Y78369419D02*
X94722647Y78369495D01*
X101960272Y97419421D02*
G75*
G03*
X102960279Y98419453I28J999979D01*
G01*
X229623210Y30274500D02*
G75*
G03*
X221223210Y30273131I-4200000J-700D01*
G01*
X185210406Y111418937D02*
X197210412Y111418861D01*
X296546238Y191839234D02*
G75*
G03*
X304946238Y191840603I4200000J592D01*
G01*
X4235492Y140282604D02*
X16235498Y140282528D01*
X178160313Y97418974D02*
X166160306Y97419051D01*
X195828791Y53268838D02*
X195828715Y41268832D01*
X-14814581Y130470220D02*
X-2814575Y130470144D01*
X65147516Y60319673D02*
X65147592Y72319680D01*
X189972787Y92368920D02*
G75*
G03*
X188972780Y91368902I13J-1000020D01*
G01*
X61385612Y154282295D02*
G75*
G03*
X60385605Y153282254I-12J-999995D01*
G01*
X228072476Y40268626D02*
X242453734Y40268534D01*
X175685522Y130468985D02*
G75*
G03*
X174685515Y129469014I-122J-999885D01*
G01*
X204259963Y40268777D02*
X218641221Y40268686D01*
X145902242Y191840193D02*
G75*
G03*
X154302238Y191841562I4199998J687D01*
G01*
X178160313Y97418880D02*
G75*
G03*
X179160320Y98418968I-113J1000120D01*
G01*
X309746013Y157280669D02*
X-36866674Y157282875D01*
X108010281Y98419421D02*
X108010358Y110419428D01*
X31522376Y41269877D02*
X31522453Y53269883D01*
X-31983066Y135376348D02*
G75*
G03*
X-31983066Y135376348I-1200000J0D01*
G01*
X154302043Y193040684D02*
X154302238Y191841562D01*
X165160351Y98419058D02*
G75*
G03*
X166160306Y97419051I1000049J42D01*
G01*
X112484975Y53269368D02*
G75*
G03*
X111485002Y54269375I-999975J32D01*
G01*
X-7671312Y54270133D02*
X6709946Y54270042D01*
X136585418Y117469250D02*
X136585494Y129469256D01*
X306748155Y140280679D02*
G75*
G03*
X307748162Y141280673I32J999975D01*
G01*
X193447585Y60318857D02*
X193447661Y72318863D01*
X101960361Y111419467D02*
X89960354Y111419543D01*
X144822674Y78369220D02*
G75*
G03*
X145822680Y79369170I26J999980D01*
G01*
X128060375Y111419301D02*
X140060381Y111419224D01*
X-22666648Y194041954D02*
G75*
G03*
X-23666654Y193041817I48J-1000054D01*
G01*
X-6487235Y57329653D02*
X-7487574Y58329313D01*
X211513019Y90453752D02*
X212512679Y91454092D01*
X219641293Y53268686D02*
G75*
G03*
X218641310Y54268693I-999993J14D01*
G01*
X158575634Y54166803D02*
G75*
G03*
X158016271Y53269079I440666J-897703D01*
G01*
X193735677Y153281405D02*
X193735600Y141281399D01*
X-34864675Y117470341D02*
X-34864598Y129470347D01*
X306748003Y116468166D02*
G75*
G03*
X307748010Y117468161I-40J1000047D01*
G01*
X123297630Y73319277D02*
G75*
G03*
X122297623Y72319316I-130J-999877D01*
G01*
X255648210Y153281011D02*
X255648134Y141281005D01*
X140078680Y42269187D02*
G75*
G03*
X141078685Y41269180I1000020J13D01*
G01*
X23285439Y130469978D02*
X35285446Y130469901D01*
X126772805Y91369298D02*
G75*
G03*
X125772752Y92369305I-1000105J-98D01*
G01*
X160397644Y72319074D02*
X160397567Y60319067D01*
X268648223Y154280929D02*
X256648217Y154281006D01*
X293747594Y53268215D02*
X293747518Y41268208D01*
X159110303Y97419091D02*
G75*
G03*
X160110309Y98419090I-103J1000109D01*
G01*
X226785618Y141281189D02*
X226785695Y153281195D01*
X78147516Y59319590D02*
X66147510Y59319666D01*
X306747519Y40268125D02*
G75*
G03*
X307747525Y41268119I-38J1000044D01*
G01*
X-23666654Y193041817D02*
X-23666459Y191842695D01*
X159110303Y97419095D02*
X147110296Y97419172D01*
X16141112Y40269974D02*
X30522369Y40269883D01*
X256647944Y111418463D02*
G75*
G03*
X255647937Y110418488I56J-1000063D01*
G01*
X147078778Y55269149D02*
X147078695Y42269142D01*
X102960590Y153281983D02*
G75*
G03*
X101960633Y154281990I-999990J17D01*
G01*
X27047409Y60319916D02*
G75*
G03*
X28047489Y59319909I999991J-16D01*
G01*
X234393097Y78461528D02*
X219517098Y78456472D01*
X-41062442Y194042148D02*
G75*
G03*
X-42062448Y193041934I42J-1000048D01*
G01*
X118577541Y191840368D02*
X118577345Y193041250D01*
X89960354Y111419553D02*
G75*
G03*
X88960347Y110419549I46J-1000053D01*
G01*
X141060324Y110419217D02*
G75*
G03*
X140060381Y111419224I-999924J83D01*
G01*
X175685584Y140281513D02*
X187685591Y140281437D01*
X187685528Y130468931D02*
X175685522Y130469008D01*
X-6289758Y98420148D02*
G75*
G03*
X-5289786Y97420142I1000058J52D01*
G01*
X220084484Y91956665D02*
X220950339Y92456960D01*
X-22666972Y26075392D02*
X42255028Y26074978D01*
X287697719Y73318264D02*
X275697712Y73318341D01*
X217260439Y110418732D02*
G75*
G03*
X216260422Y111418739I-999939J68D01*
G01*
X174685666Y153281527D02*
X174685590Y141281520D01*
X269647945Y110418399D02*
X269647869Y98418393D01*
X70910255Y97419657D02*
X82910261Y97419580D01*
X294748238Y154280763D02*
G75*
G03*
X293748231Y153280769I83J-1000090D01*
G01*
X-8671374Y41270133D02*
G75*
G03*
X-7671401Y40270126I1000074J67D01*
G01*
X112772663Y79369381D02*
X112772739Y91369387D01*
X269647581Y53268368D02*
X269647505Y41268362D01*
X52655352Y194041554D02*
G75*
G03*
X51655346Y193041338I48J-1000054D01*
G01*
X307748162Y141280673D02*
X307748238Y153280680D01*
X175685433Y116469000D02*
X187685439Y116468924D01*
X86578620Y41269527D02*
G75*
G03*
X87578650Y40269520I1000080J73D01*
G01*
X142347551Y59319182D02*
X154347558Y59319105D01*
X128939279Y194041015D02*
X127977352Y194041021D01*
X226785602Y153281195D02*
G75*
G03*
X225785700Y154281202I-1000002J5D01*
G01*
X234682729Y91461627D02*
X241388678Y91463906D01*
X127060293Y98419300D02*
G75*
G03*
X128060286Y97419293I1000007J0D01*
G01*
X12760220Y98420027D02*
G75*
G03*
X13760224Y97420020I1000080J73D01*
G01*
X54335519Y140282274D02*
G75*
G03*
X55335526Y141282280I-119J1000126D01*
G01*
X-32483602Y79370305D02*
G75*
G03*
X-31483672Y78370298I999902J-105D01*
G01*
X219641228Y41268680D02*
X219641304Y53268686D01*
X188685644Y153281437D02*
G75*
G03*
X187685680Y154281444I-999944J63D01*
G01*
X73385618Y154282172D02*
X61385612Y154282248D01*
X275697623Y59318333D02*
X287697630Y59318257D01*
X150872631Y79369138D02*
G75*
G03*
X151872677Y78369131I1000069J62D01*
G01*
X73385377Y116469616D02*
G75*
G03*
X74385384Y117469645I23J999984D01*
G01*
X212728326Y57318667D02*
G75*
G03*
X213728333Y58318727I74J999933D01*
G01*
X125772663Y78369330D02*
G75*
G03*
X126772670Y79369292I37J999970D01*
G01*
X94722736Y92369471D02*
G75*
G03*
X93722729Y91369508I-136J-999871D01*
G01*
X73385377Y116469651D02*
X61385371Y116469728D01*
X274698220Y153280890D02*
X274698144Y141280884D01*
X121010282Y97419338D02*
X109010275Y97419414D01*
X60385328Y117469735D02*
G75*
G03*
X61385371Y116469728I1000072J65D01*
G01*
X-34084499Y184842048D02*
X126939220Y184841023D01*
X66147599Y73319708D02*
G75*
G03*
X65147592Y72319680I1J-1000008D01*
G01*
X274697705Y72318346D02*
X274697629Y60318340D01*
X-21864674Y116470267D02*
G75*
G03*
X-20864667Y117470252I74J999933D01*
G01*
X154347558Y59319136D02*
G75*
G03*
X155347564Y60319099I42J999964D01*
G01*
X150585502Y129469167D02*
X150585426Y117469161D01*
X180447539Y54268936D02*
X194828797Y54268845D01*
X288697713Y72318257D02*
G75*
G03*
X287697719Y73318264I-999969J38D01*
G01*
X195828745Y53268838D02*
G75*
G03*
X194828797Y54268845I-999945J62D01*
G01*
X117247655Y72319348D02*
G75*
G03*
X116247626Y73319355I-999955J52D01*
G01*
X275697955Y111418362D02*
G75*
G03*
X274697948Y110418367I55J-1000062D01*
G01*
X237604353Y59409628D02*
X237604346Y58318575D01*
X-29102299Y97420293D02*
X-17102293Y97420217D01*
X244835622Y140281073D02*
X232835615Y140281150D01*
X220950339Y92456960D02*
X232950338Y92461038D01*
X131535495Y129469288D02*
G75*
G03*
X130535497Y130469295I-999995J12D01*
G01*
X30522369Y40269924D02*
G75*
G03*
X31522376Y41269877I31J999976D01*
G01*
X188685446Y117468918D02*
X188685522Y129468925D01*
X18522694Y92370012D02*
G75*
G03*
X17522688Y91369993I6J-1000012D01*
G01*
X51834962Y55269755D02*
G75*
G03*
X50834982Y56269762I-999962J45D01*
G01*
X111485398Y116469395D02*
G75*
G03*
X112485405Y117469403I-98J1000105D01*
G01*
X50860278Y98419785D02*
G75*
G03*
X51860245Y97419778I999922J-85D01*
G01*
X236176628Y129968652D02*
G75*
G03*
X235310554Y130468628I-866028J-500052D01*
G01*
X255647865Y98418482D02*
G75*
G03*
X256647855Y97418475I999975J-32D01*
G01*
X132822756Y92369251D02*
G75*
G03*
X131822749Y91369266I44J-1000051D01*
G01*
X268647983Y116468410D02*
G75*
G03*
X269647990Y117468403I-33J1000040D01*
G01*
X88672650Y79369534D02*
X88672726Y91369540D01*
X-17102567Y54270193D02*
X-31483825Y54270285D01*
X206643553Y73409646D02*
G75*
G03*
X205643554Y72409613I47J-1000046D01*
G01*
X187685680Y154281444D02*
X175685673Y154281521D01*
X214872537Y129468758D02*
X221578489Y129468715D01*
X-30368332Y72321537D02*
X-23662383Y72323816D01*
X165160312Y98419058D02*
X165160389Y110419064D01*
X44810241Y97419823D02*
X32810234Y97419899D01*
X11472691Y92370032D02*
X-527316Y92370109D01*
X234393097Y78461528D02*
X235100303Y78168875D01*
X288698152Y141280795D02*
X288698228Y153280801D01*
X108010314Y98419421D02*
G75*
G03*
X109010275Y97419414I999886J-121D01*
G01*
X165135044Y56269035D02*
X160135041Y56269067D01*
X294747965Y111418240D02*
X306747971Y111418164D01*
X-14814581Y130470188D02*
G75*
G03*
X-15814588Y129470226I-19J-999988D01*
G01*
X79147598Y72319591D02*
G75*
G03*
X78147605Y73319598I-999998J9D01*
G01*
X242456236Y97419029D02*
X229455924Y97418648D01*
X51834976Y55269755D02*
X51834894Y42269748D01*
X206735601Y140281292D02*
G75*
G03*
X207735608Y141281310I-101J1000108D01*
G01*
X-30363233Y57321538D02*
X-31363573Y58321198D01*
X85197609Y73319598D02*
G75*
G03*
X84197602Y72319559I-9J-999998D01*
G01*
X40078637Y42269823D02*
X40078720Y55269830D01*
X-20864439Y153282771D02*
X-20864516Y141282764D01*
X40078616Y42269823D02*
G75*
G03*
X41078631Y41269816I999884J-123D01*
G01*
X116247537Y59319348D02*
X104247530Y59319424D01*
X204260416Y111418816D02*
X216260422Y111418739D01*
X231835650Y141281156D02*
G75*
G03*
X232835615Y140281150I1000050J44D01*
G01*
X-31483825Y54270332D02*
G75*
G03*
X-32483832Y53270291I25J-1000032D01*
G01*
X172016202Y41268983D02*
X172016279Y53268990D01*
X243453842Y53268535D02*
G75*
G03*
X242453823Y54268542I-999942J65D01*
G01*
X-8671395Y41270133D02*
X-8671319Y53270139D01*
X17235505Y141282522D02*
X17235581Y153282528D01*
X202972788Y91368813D02*
X202972711Y79368807D01*
X245835681Y153281074D02*
G75*
G03*
X244835711Y154281081I-999981J26D01*
G01*
X174685515Y129469014D02*
X174685439Y117469007D01*
X218641310Y54268693D02*
X204260052Y54268785D01*
X55335602Y153282286D02*
X55335526Y141282280D01*
X252016898Y135518194D02*
G75*
G03*
X252016898Y135518194I-1200000J0D01*
G01*
X151872766Y92369140D02*
G75*
G03*
X150872760Y91369145I34J-1000040D01*
G01*
X189972787Y92368896D02*
X201972794Y92368820D01*
X305946049Y194039888D02*
G75*
G03*
X304946043Y193039725I46J-1000052D01*
G01*
X122297603Y60319310D02*
G75*
G03*
X123297541Y59319303I999897J-110D01*
G01*
X242095884Y91171253D02*
X242389018Y90464246D01*
X160397560Y60319067D02*
G75*
G03*
X161397561Y59319060I1000040J33D01*
G01*
X-527316Y92370123D02*
G75*
G03*
X-1527323Y91370114I16J-1000023D01*
G01*
X221224242Y191839714D02*
G75*
G03*
X229624238Y191841082I4199998J616D01*
G01*
X109010637Y154281970D02*
G75*
G03*
X108010630Y153281951I-37J-999970D01*
G01*
X147110569Y140281695D02*
X159110575Y140281619D01*
X146078688Y41269148D02*
X141078685Y41269180D01*
X268648072Y130468416D02*
X256648065Y130468493D01*
X4235429Y130470099D02*
X16235436Y130470022D01*
X84197526Y60319552D02*
X84197602Y72319559D01*
X212728326Y57318733D02*
X207728324Y57318764D01*
X64860258Y98419696D02*
X64860334Y110419702D01*
X212785687Y153281284D02*
X212785611Y141281278D01*
X143939725Y194040920D02*
X143939680Y186840914D01*
X205643562Y60409606D02*
X205643554Y72409613D01*
X-2814664Y116470057D02*
G75*
G03*
X-1814657Y117470130I64J999943D01*
G01*
X-29102210Y111420317D02*
G75*
G03*
X-30102217Y110420306I10J-1000017D01*
G01*
X274697871Y98418361D02*
X274697948Y110418367D01*
X61385522Y140282240D02*
X73385529Y140282164D01*
X242453823Y54268542D02*
X228072565Y54268633D01*
X31522490Y53269883D02*
G75*
G03*
X30522459Y54269890I-1000090J-83D01*
G01*
X-9930673Y73328484D02*
X-9064477Y72828778D01*
X27047571Y72319922D02*
X27047495Y60319916D01*
X269648141Y141280916D02*
X269648218Y153280922D01*
X309746013Y157280669D02*
G75*
G03*
X310746019Y158280663I-58J1000064D01*
G01*
X243453741Y41268528D02*
X243453817Y53268535D01*
X188972689Y79368896D02*
G75*
G03*
X189972698Y78368889I1000011J4D01*
G01*
X255647985Y117468492D02*
G75*
G03*
X256647976Y116468485I999975J-32D01*
G01*
X256647976Y116468485D02*
X268647983Y116468409D01*
X104247620Y73319487D02*
G75*
G03*
X103247613Y72319437I-20J-999987D01*
G01*
X132822667Y78369252D02*
X144822674Y78369176D01*
X118535402Y116469364D02*
X130535408Y116469288D01*
X145822784Y91369177D02*
G75*
G03*
X144822763Y92369184I-1000084J-77D01*
G01*
X206728329Y58318771D02*
X206728331Y58631300D01*
X194735532Y130468875D02*
G75*
G03*
X193735525Y129468892I-132J-999875D01*
G01*
X-33864440Y154282847D02*
G75*
G03*
X-34864447Y153282860I40J-1000047D01*
G01*
X218517438Y77456132D02*
X218224785Y76748925D01*
X-33864591Y130470298D02*
G75*
G03*
X-34864598Y129470347I-9J-999998D01*
G01*
X41335518Y141282369D02*
X41335594Y153282375D01*
X166160395Y111419058D02*
X178160402Y111418982D01*
X-23667513Y30276112D02*
G75*
G03*
X-32067487Y30274743I-4199987J-712D01*
G01*
X193735449Y117468886D02*
X193735525Y129468892D01*
X182922783Y92368941D02*
X170922777Y92369018D01*
X211810572Y76746745D02*
X211517438Y77453753D01*
X229623779Y27073616D02*
G75*
G03*
X230623725Y26073779I999921J84D01*
G01*
X179160396Y110418975D02*
X179160320Y98418968D01*
X-16102649Y41270180D02*
X-16102573Y53270187D01*
X135297547Y59319246D02*
G75*
G03*
X136297554Y60319221I53J999954D01*
G01*
X287697872Y97418277D02*
X275697865Y97418354D01*
X122010365Y110419339D02*
X122010289Y98419332D01*
X51860245Y97419778D02*
X63860251Y97419702D01*
X51655346Y193041338D02*
X51655541Y191842216D01*
X161397561Y59319060D02*
X173397568Y59318984D01*
X174685613Y141281520D02*
G75*
G03*
X175685584Y140281513I999887J-120D01*
G01*
X36285614Y153282407D02*
G75*
G03*
X35285597Y154282414I-1000114J-107D01*
G01*
X236748466Y116468612D02*
X221872458Y116468706D01*
X173397568Y59319025D02*
G75*
G03*
X174397575Y60318978I32J999975D01*
G01*
X185210406Y111418901D02*
G75*
G03*
X184210399Y110418943I-6J-1000001D01*
G01*
X255647497Y41268451D02*
X255647574Y53268457D01*
X188685598Y141281431D02*
X188685674Y153281437D01*
X88672747Y91369540D02*
G75*
G03*
X87672732Y92369547I-999947J60D01*
G01*
X8997568Y73320039D02*
G75*
G03*
X7997561Y72320043I32J-1000039D01*
G01*
X172016296Y53268990D02*
G75*
G03*
X171016284Y54268996I-1000096J-90D01*
G01*
X82910350Y111419588D02*
X70910344Y111419664D01*
X-16102176Y110420217D02*
G75*
G03*
X-17102204Y111420224I-999924J83D01*
G01*
X183922701Y79368928D02*
X183922777Y91368934D01*
X52655028Y26074912D02*
X131239376Y26074412D01*
X74672616Y79369623D02*
G75*
G03*
X75672636Y78369616I999884J-123D01*
G01*
X231835621Y141281156D02*
X231835697Y153281163D01*
X88960235Y98419542D02*
G75*
G03*
X89960265Y97419535I1000065J58D01*
G01*
X194735684Y154281423D02*
G75*
G03*
X193735677Y153281405I16J-1000023D01*
G01*
X220224049Y194040434D02*
X155302049Y194040847D01*
X-32066541Y191841326D02*
G75*
G03*
X-23666459Y191842695I4200041J674D01*
G01*
X107722736Y91369419D02*
X107722660Y79369413D01*
X-33066972Y26075466D02*
G75*
G03*
X-32066966Y27075621I72J999934D01*
G01*
X287698234Y154280808D02*
X275698227Y154280884D01*
X45810324Y110419823D02*
X45810248Y98419817D01*
X206735690Y154281323D02*
X194735684Y154281399D01*
X293748231Y153280769D02*
X293748154Y141280762D01*
X244748546Y128468567D02*
X244748464Y115468560D01*
X145902013Y193041076D02*
G75*
G03*
X144902049Y194040913I-1000113J-276D01*
G01*
X234682729Y91461627D02*
X233816534Y91961333D01*
X136297630Y72319227D02*
X136297554Y60319221D01*
X103247536Y60319431D02*
X103247613Y72319437D01*
X269647990Y117468403D02*
X269648066Y129468409D01*
X87578739Y54269527D02*
X111485002Y54269375D01*
X243748457Y114468566D02*
X238748454Y114468598D01*
X-1814556Y129470137D02*
G75*
G03*
X-2814575Y130470144I-999944J63D01*
G01*
X99485392Y116469485D02*
X111485398Y116469409D01*
X-32066654Y193042209D02*
G75*
G03*
X-33066648Y194042046I-999946J-109D01*
G01*
X16235498Y140282495D02*
G75*
G03*
X17235505Y141282522I2J1000005D01*
G01*
X220223725Y26073869D02*
G75*
G03*
X221223731Y27074008I-25J1000031D01*
G01*
X118577539Y191840368D02*
G75*
G03*
X126977541Y191841737I4200001J682D01*
G01*
X20997575Y73319961D02*
X8997568Y73320038D01*
X164872762Y91369056D02*
G75*
G03*
X163872773Y92369062I-999962J44D01*
G01*
X256648217Y154280990D02*
G75*
G03*
X255648210Y153281011I-117J-999890D01*
G01*
X150872683Y79369138D02*
X150872760Y91369145D01*
X98485385Y117469492D02*
G75*
G03*
X99485392Y116469485I1000015J8D01*
G01*
X-9995844Y104062566D02*
G75*
G03*
X-9995844Y104062566I-1200000J0D01*
G01*
X160110626Y153281619D02*
G75*
G03*
X159110664Y154281626I-999926J81D01*
G01*
X51654512Y30275632D02*
X51655034Y27074749D01*
X17522580Y79369987D02*
G75*
G03*
X18522605Y78369980I1000020J13D01*
G01*
X74672718Y91369630D02*
X74672642Y79369623D01*
X236176580Y129968625D02*
G75*
G03*
X237042599Y129468617I866020J499975D01*
G01*
X288698076Y129468288D02*
G75*
G03*
X287698082Y130468295I-1000047J-40D01*
G01*
X93435395Y117469524D02*
X93435471Y129469531D01*
X236604339Y57318554D02*
G75*
G03*
X237604346Y58318575I61J999946D01*
G01*
X145822680Y79369170D02*
X145822757Y91369177D01*
X102960267Y110419460D02*
G75*
G03*
X101960361Y111419467I-999967J40D01*
G01*
X156635511Y130469095D02*
G75*
G03*
X155635505Y129469135I-11J-999995D01*
G01*
X135297547Y59319226D02*
X123297541Y59319303D01*
X127060616Y141281823D02*
G75*
G03*
X128060558Y140281816I999884J-123D01*
G01*
X230604313Y58318619D02*
G75*
G03*
X231604337Y57318613I999887J-119D01*
G01*
X307747966Y110418157D02*
X307747889Y98418150D01*
X229624043Y193040205D02*
X229624238Y191841082D01*
X244748574Y128468567D02*
G75*
G03*
X243748552Y129468574I-1000074J-67D01*
G01*
X22285483Y141282490D02*
G75*
G03*
X23285502Y140282483I1000017J10D01*
G01*
X174397692Y72318985D02*
G75*
G03*
X173397657Y73318992I-1000092J-85D01*
G01*
X3235404Y141282611D02*
G75*
G03*
X4235492Y140282604I999996J-11D01*
G01*
X217260417Y110418732D02*
X217260340Y98418726D01*
X-17102656Y40270149D02*
G75*
G03*
X-16102649Y41270180I56J999951D01*
G01*
X294748149Y140280756D02*
X306748155Y140280679D01*
X255648059Y129468499D02*
X255647982Y117468492D01*
X229623210Y30274500D02*
X229623731Y27073616D01*
X204260052Y54268755D02*
G75*
G03*
X203260045Y53268791I48J-1000055D01*
G01*
X141347582Y60319188D02*
G75*
G03*
X142347551Y59319182I999918J-88D01*
G01*
X79435406Y117469613D02*
G75*
G03*
X80435381Y116469606I999894J-113D01*
G01*
X-31483583Y92370289D02*
G75*
G03*
X-32483589Y91370311I-17J-999989D01*
G01*
X155635422Y117469128D02*
G75*
G03*
X156635422Y116469122I1000078J72D01*
G01*
X275698138Y140280877D02*
X287698145Y140280800D01*
X102960279Y98419453D02*
X102960355Y110419460D01*
X159016189Y40269065D02*
X171016195Y40268989D01*
X54335367Y116469772D02*
X42335361Y116469849D01*
X56622715Y92369792D02*
G75*
G03*
X55622708Y91369751I-15J-999992D01*
G01*
X306747608Y54268133D02*
X294747601Y54268209D01*
X101960544Y140281949D02*
G75*
G03*
X102960551Y141281976I56J999951D01*
G01*
X41047540Y72319833D02*
G75*
G03*
X40047585Y73319840I-999940J67D01*
G01*
X235686570Y76754861D02*
X235393437Y77461868D01*
X314960000Y193040000D02*
G75*
G03*
X313960006Y194039837I-999931J-94D01*
G01*
X274697629Y60318340D02*
G75*
G03*
X275697623Y59318333I1000095J88D01*
G01*
X194828708Y40268837D02*
X180447450Y40268929D01*
X306747882Y97418156D02*
G75*
G03*
X307747889Y98418150I3J1000004D01*
G01*
X127060564Y141281823D02*
X127060641Y153281830D01*
X112485516Y129469409D02*
G75*
G03*
X111485487Y130469416I-1000116J-109D01*
G01*
X50572690Y91369783D02*
G75*
G03*
X49572711Y92369790I-999990J17D01*
G01*
X179447456Y41268936D02*
X179447533Y53268942D01*
X88960559Y141282066D02*
G75*
G03*
X89960538Y140282059I999941J-66D01*
G01*
X-23667488Y30276112D02*
X-23666966Y27075229D01*
X59016922Y135421799D02*
G75*
G03*
X59016922Y135421799I-1200000J0D01*
G01*
X268647862Y97418401D02*
G75*
G03*
X269647869Y98418393I8J999999D01*
G01*
X160110403Y110419096D02*
G75*
G03*
X159110392Y111419103I-1000103J-96D01*
G01*
X-14721073Y92370199D02*
X-31483583Y92370306D01*
X218224785Y76748925D02*
X217517778Y76455792D01*
X296546043Y193040117D02*
G75*
G03*
X295546049Y194039954I-1000001J-164D01*
G01*
X256647581Y54268452D02*
X268647587Y54268375D01*
X20997486Y59320008D02*
G75*
G03*
X21997492Y60319948I14J999992D01*
G01*
X184210322Y98418936D02*
X184210399Y110418943D01*
X60385605Y153282254D02*
X60385528Y141282247D01*
X89960627Y154282080D02*
G75*
G03*
X88960620Y153282072I-27J-999980D01*
G01*
X7710273Y110420066D02*
G75*
G03*
X6710309Y111420073I-999973J34D01*
G01*
X28047578Y73319929D02*
G75*
G03*
X27047571Y72319922I22J-1000029D01*
G01*
X45810330Y110419823D02*
G75*
G03*
X44810330Y111419830I-999930J77D01*
G01*
X-785127Y72038699D02*
X-491993Y71331692D01*
X207735510Y129468803D02*
G75*
G03*
X206735539Y130468810I-1000110J-103D01*
G01*
X269647585Y53268368D02*
G75*
G03*
X268647587Y54268375I-1000015J-8D01*
G01*
X97197527Y59319466D02*
G75*
G03*
X98197534Y60319463I73J999934D01*
G01*
X17235535Y153282528D02*
G75*
G03*
X16235587Y154282535I-999935J72D01*
G01*
X117535364Y117469371D02*
G75*
G03*
X118535402Y116469364I1000036J29D01*
G01*
X245837325Y72409641D02*
X245837334Y60409634D01*
X17235422Y129470016D02*
G75*
G03*
X16235436Y130470022I-999922J84D01*
G01*
X98485474Y129469499D02*
X98485397Y117469492D01*
X-8198282Y72329072D02*
X-9064477Y72828778D01*
X216260333Y97418660D02*
G75*
G03*
X217260340Y98418726I67J999940D01*
G01*
X255647544Y41268451D02*
G75*
G03*
X256647492Y40268444I1000056J49D01*
G01*
X35285508Y140282385D02*
G75*
G03*
X36285515Y141282401I-108J1000115D01*
G01*
X-42035492Y27075346D02*
G75*
G03*
X-41035406Y26075508I999992J154D01*
G01*
X121010644Y154281869D02*
X109010637Y154281945D01*
X50834887Y41269754D02*
X41078631Y41269816D01*
X59097506Y59319687D02*
G75*
G03*
X60097513Y60319705I-106J1000113D01*
G01*
X230604326Y58318619D02*
G75*
G03*
X229604348Y59318626I-999926J81D01*
G01*
X206581905Y59151985D02*
X206185947Y59520456D01*
X166160395Y111419111D02*
G75*
G03*
X165160389Y110419064I5J-1000011D01*
G01*
X268647498Y40268365D02*
G75*
G03*
X269647505Y41268362I-38J1000045D01*
G01*
X-527405Y78370101D02*
X11472602Y78370025D01*
X126772747Y91369298D02*
X126772670Y79369292D01*
X13760313Y111420028D02*
X25760320Y111419952D01*
X106722653Y78369440D02*
G75*
G03*
X107722660Y79369413I47J999960D01*
G01*
X293748154Y141280762D02*
G75*
G03*
X294748149Y140280756I1000003J-3D01*
G01*
X60385377Y117469735D02*
X60385453Y129469741D01*
X66147599Y73319674D02*
X78147605Y73319598D01*
X275697591Y54268336D02*
G75*
G03*
X274697584Y53268336I19J-1000026D01*
G01*
X132239382Y27074575D02*
X132238861Y30273697D01*
X274697513Y41268330D02*
G75*
G03*
X275697502Y40268323I1000097J90D01*
G01*
X168635518Y130469053D02*
X156635511Y130469129D01*
X305945725Y26073300D02*
X313987041Y26073248D01*
X12472732Y91370025D02*
G75*
G03*
X11472691Y92370032I-999932J75D01*
G01*
X287697872Y97418277D02*
G75*
G03*
X288697879Y98418271I6J1000001D01*
G01*
X80435470Y130469637D02*
G75*
G03*
X79435463Y129469620I30J-1000037D01*
G01*
X-32066459Y191841326D02*
X-32066655Y193042209D01*
X236393776Y76462208D02*
X235686570Y76754861D01*
X126939220Y184840967D02*
G75*
G03*
X128939233Y186841010I80J1999933D01*
G01*
X-30102217Y110420306D02*
X-30102293Y98420300D01*
X42255352Y194041567D02*
X-22666648Y194041980D01*
X70910344Y111419663D02*
G75*
G03*
X69910337Y110419670I56J-1000063D01*
G01*
X310746164Y181057853D02*
X310746019Y158280663D01*
X-41035406Y26075508D02*
X-33066972Y26075458D01*
X179160382Y110418975D02*
G75*
G03*
X178160402Y111418982I-999982J25D01*
G01*
X122010345Y110419339D02*
G75*
G03*
X121010371Y111419345I-999945J61D01*
G01*
X-21930672Y73324405D02*
X-9930673Y73328484D01*
X275698076Y130468371D02*
G75*
G03*
X274698069Y129468377I14J-1000021D01*
G01*
X275697955Y111418361D02*
X287697961Y111418285D01*
X140060565Y140281728D02*
G75*
G03*
X141060572Y141281734I35J999972D01*
G01*
X-34084499Y184842023D02*
G75*
G03*
X-37866523Y181060072I-1J-3782023D01*
G01*
X313987041Y26073248D02*
G75*
G03*
X314987048Y27073411I79J999928D01*
G01*
X42335601Y154282369D02*
X54335608Y154282293D01*
X84197545Y60319552D02*
G75*
G03*
X85197520Y59319545I1000055J48D01*
G01*
X4235429Y130470078D02*
G75*
G03*
X3235422Y129470105I-129J-999878D01*
G01*
X145902238Y191840193D02*
X145902043Y193041076D01*
X307747525Y41268119D02*
X307747602Y53268126D01*
X59097506Y59319711D02*
X47097500Y59319788D01*
X141347633Y72319195D02*
X141347557Y60319188D01*
X31522619Y79369898D02*
X31522695Y91369904D01*
X75672636Y78369616D02*
X87672643Y78369540D01*
X16235587Y154282535D02*
X4235581Y154282612D01*
X61385460Y130469735D02*
X73385467Y130469659D01*
X127060292Y98419300D02*
X127060368Y110419306D01*
X-20864591Y129470258D02*
X-20864667Y117470252D01*
X203260045Y53268791D02*
X203259969Y41268784D01*
X296546238Y191839234D02*
X296546043Y193040117D01*
X17522688Y91369993D02*
X17522611Y79369987D01*
X213872450Y115468757D02*
G75*
G03*
X214872441Y114468750I1000050J43D01*
G01*
X128060375Y111419332D02*
G75*
G03*
X127060368Y110419306I25J-1000032D01*
G01*
X74385572Y153282165D02*
G75*
G03*
X73385618Y154282172I-999972J35D01*
G01*
X93722695Y79369502D02*
G75*
G03*
X94722647Y78369495I999905J-102D01*
G01*
X87672732Y92369547D02*
X75672725Y92369624D01*
X-32066966Y27075621D02*
X-32067487Y30274743D01*
X307748238Y153280680D02*
G75*
G03*
X306748244Y154280687I-1000062J-55D01*
G01*
X117577352Y194041087D02*
X52655352Y194041501D01*
X41335562Y141282369D02*
G75*
G03*
X42335512Y140282362I1000038J31D01*
G01*
X307748010Y117468161D02*
X307748087Y129468167D01*
X65147466Y60319673D02*
G75*
G03*
X66147510Y59319666I1000034J27D01*
G01*
X-1527399Y79370108D02*
G75*
G03*
X-527405Y78370101I999999J-8D01*
G01*
X36572622Y79369865D02*
X36572698Y91369872D01*
X160110582Y141281613D02*
X160110659Y153281619D01*
X109010365Y111419342D02*
G75*
G03*
X108010358Y110419428I35J-1000042D01*
G01*
X51654508Y30275632D02*
G75*
G03*
X43254512Y30274263I-4199998J-682D01*
G01*
X-32483923Y41270284D02*
G75*
G03*
X-31483914Y40270277I1000023J16D01*
G01*
X173397657Y73318992D02*
X161397650Y73319068D01*
X42255028Y26074966D02*
G75*
G03*
X43255034Y27075141I72J999934D01*
G01*
X288697636Y60318251D02*
X288697713Y72318257D01*
X93435438Y129469531D02*
G75*
G03*
X92435477Y130469538I-999938J69D01*
G01*
X205643569Y60409606D02*
G75*
G03*
X206185947Y59520456I999831J-106D01*
G01*
X83910388Y110419581D02*
G75*
G03*
X82910350Y111419588I-1000088J-81D01*
G01*
X51860334Y111419773D02*
G75*
G03*
X50860327Y110419791I-134J-999873D01*
G01*
X83910268Y98419575D02*
X83910345Y110419581D01*
X113772746Y92369381D02*
X125772752Y92369305D01*
X194828708Y40268885D02*
G75*
G03*
X195828715Y41268832I-8J1000015D01*
G01*
X143939702Y186840914D02*
G75*
G03*
X145939667Y184840902I1999898J-114D01*
G01*
X304945731Y27073137D02*
G75*
G03*
X305945725Y26073300I999982J145D01*
G01*
X85197609Y73319553D02*
X97197616Y73319476D01*
X21997561Y72319954D02*
G75*
G03*
X20997575Y73319961I-999961J46D01*
G01*
X220084484Y91956665D02*
X219218628Y91456371D01*
X-24363573Y58323577D02*
X-23363913Y59323917D01*
X293747518Y41268208D02*
G75*
G03*
X294747512Y40268202I999970J-36D01*
G01*
X256648128Y140280998D02*
X268648134Y140280922D01*
X188685531Y129468925D02*
G75*
G03*
X187685528Y130468931I-999931J75D01*
G01*
X194735595Y140281392D02*
X206735601Y140281316D01*
X170922688Y78369010D02*
X182922694Y78368934D01*
X-20864422Y153282771D02*
G75*
G03*
X-21864433Y154282778I-1000078J-71D01*
G01*
X30522612Y78369881D02*
G75*
G03*
X31522619Y79369898I-112J1000119D01*
G01*
X36285515Y141282401D02*
X36285592Y153282407D01*
X-21864674Y116470257D02*
X-33864680Y116470334D01*
X180447661Y73318946D02*
G75*
G03*
X179447654Y72318953I39J-1000046D01*
G01*
X294748086Y130468250D02*
G75*
G03*
X293748079Y129468256I9J-1000016D01*
G01*
X169635436Y117469039D02*
X169635512Y129469046D01*
X255648198Y141281005D02*
G75*
G03*
X256648128Y140280998I999902J-105D01*
G01*
X293748079Y129468256D02*
X293748003Y117468250D01*
X-16102607Y53270187D02*
G75*
G03*
X-17102567Y54270193I-999993J13D01*
G01*
X269648066Y129468409D02*
G75*
G03*
X268648072Y130468416I-1000096J-89D01*
G01*
X204260416Y111418791D02*
G75*
G03*
X203260409Y110418822I-116J-999891D01*
G01*
X207735533Y129468803D02*
X207735456Y117468797D01*
X177102357Y47136880D02*
G75*
G03*
X177102357Y47136880I-1200000J0D01*
G01*
X98197610Y72319470D02*
X98197534Y60319463D01*
X294747601Y54268209D02*
G75*
G03*
X293747594Y53268215I-57J-999950D01*
G01*
X55335480Y129469773D02*
G75*
G03*
X54335456Y130469780I-1000080J-73D01*
G01*
X55335450Y129469773D02*
X55335374Y117469767D01*
X-15814688Y117470219D02*
G75*
G03*
X-14814670Y116470212I999888J-119D01*
G01*
X171016284Y54268996D02*
X167135032Y54269021D01*
X50572705Y91369783D02*
X50572629Y79369776D01*
X74385461Y129469652D02*
X74385384Y117469645D01*
X187685439Y116468854D02*
G75*
G03*
X188685446Y117468918I61J999946D01*
G01*
X-37866725Y158282881D02*
G75*
G03*
X-36866674Y157282875I1000025J19D01*
G01*
X166135035Y55269028D02*
G75*
G03*
X165135044Y56269035I-999935J72D01*
G01*
X242453734Y40268459D02*
G75*
G03*
X243453741Y41268528I66J999941D01*
G01*
X141078781Y56269188D02*
X146078784Y56269156D01*
X293748003Y117468250D02*
G75*
G03*
X294747997Y116468243I1000059J52D01*
G01*
X221223731Y27074008D02*
X221223210Y30273131D01*
X-31363573Y58321198D02*
X-31367992Y71321197D01*
X141078781Y56269226D02*
G75*
G03*
X140078774Y55269194I19J-1000026D01*
G01*
X158016165Y41269072D02*
G75*
G03*
X159016189Y40269065I1000035J28D01*
G01*
X219872444Y114468718D02*
X214872441Y114468750D01*
X203260333Y98418815D02*
X203260409Y110418822D01*
X294747997Y116468243D02*
X306748003Y116468166D01*
X147078756Y55269149D02*
G75*
G03*
X146078784Y56269156I-999956J51D01*
G01*
X141060375Y110419217D02*
X141060299Y98419211D01*
X93722652Y79369502D02*
X93722729Y91369508D01*
X101960633Y154281990D02*
X89960627Y154282066D01*
X310746164Y181057853D02*
G75*
G03*
X306964188Y184839877I-3782025J-1D01*
G01*
X228072929Y111418664D02*
X241456242Y111418579D01*
X149585419Y116469166D02*
X137585412Y116469243D01*
X109010365Y111419422D02*
X121010371Y111419345D01*
X197210323Y97418853D02*
X185210317Y97418929D01*
X288697592Y53268247D02*
G75*
G03*
X287697597Y54268254I-999967J40D01*
G01*
X140060292Y97419217D02*
X128060286Y97419293D01*
X40047496Y59319797D02*
G75*
G03*
X41047503Y60319827I4J1000003D01*
G01*
X268648134Y140280919D02*
G75*
G03*
X269648141Y141280916I106J999901D01*
G01*
X92435477Y130469538D02*
X80435470Y130469614D01*
X159110664Y154281626D02*
X147110658Y154281703D01*
X68622632Y78369661D02*
G75*
G03*
X69622639Y79369655I68J999939D01*
G01*
X194735532Y130468887D02*
X206735539Y130468810D01*
X-37866668Y158282881D02*
X-37866523Y181060072D01*
X23285591Y154282516D02*
G75*
G03*
X22285584Y153282496I9J-1000016D01*
G01*
X154347647Y73319113D02*
X142347640Y73319189D01*
X313960006Y194039837D02*
X305946049Y194039888D01*
X-31483672Y78370298D02*
X-14721163Y78370191D01*
X47097589Y73319795D02*
X59097595Y73319719D01*
X307747966Y110418157D02*
G75*
G03*
X306747971Y111418164I-1000003J4D01*
G01*
X117247620Y72319348D02*
X117247544Y60319342D01*
X141060647Y153281740D02*
G75*
G03*
X140060654Y154281747I-999947J60D01*
G01*
X198210361Y110418854D02*
G75*
G03*
X197210412Y111418861I-999961J46D01*
G01*
X87578739Y54269468D02*
G75*
G03*
X86578732Y53269533I61J-1000068D01*
G01*
X6709857Y40270034D02*
X-7671401Y40270126D01*
X112485405Y117469403D02*
X112485481Y129469409D01*
X23285502Y140282483D02*
X35285508Y140282407D01*
X107722726Y91369419D02*
G75*
G03*
X106722742Y92369426I-999926J81D01*
G01*
X92435388Y116469505D02*
G75*
G03*
X93435395Y117469524I12J999995D01*
G01*
X25760231Y97419944D02*
X13760224Y97420020D01*
X140060292Y97419201D02*
G75*
G03*
X141060299Y98419211I-92J1000099D01*
G01*
X241393776Y76463907D02*
X236393776Y76462208D01*
X35285357Y116469936D02*
G75*
G03*
X36285364Y117469888I43J999964D01*
G01*
X137585501Y130469250D02*
X149585508Y130469174D01*
X-33864440Y154282854D02*
X-21864433Y154282778D01*
X42335450Y130469857D02*
G75*
G03*
X41335443Y129469862I50J-1000057D01*
G01*
X213785605Y140281271D02*
X225785611Y140281194D01*
X242393436Y77464247D02*
X241393776Y76463907D01*
X306747882Y97418156D02*
X294747876Y97418232D01*
X221872458Y116468749D02*
G75*
G03*
X220872451Y115468712I42J-1000049D01*
G01*
X125772663Y78369297D02*
X113772657Y78369374D01*
X159135034Y55269073D02*
X159135033Y55064455D01*
X217517778Y76455792D02*
X212517778Y76454092D01*
X3235574Y153282618D02*
X3235497Y141282611D01*
X-32483832Y53270291D02*
X-32483908Y41270284D01*
X229455924Y97418648D02*
X228072840Y97418657D01*
X89960538Y140282059D02*
X101960544Y140281982D01*
X18522605Y78369980D02*
X30522612Y78369903D01*
X32810323Y111419883D02*
G75*
G03*
X31810317Y110419913I-123J-999883D01*
G01*
X274697584Y53268336D02*
X274697508Y41268330D01*
X55622632Y79369744D02*
X55622708Y91369751D01*
X136297634Y72319227D02*
G75*
G03*
X135297636Y73319234I-999934J73D01*
G01*
X54335367Y116469826D02*
G75*
G03*
X55335374Y117469767I33J999974D01*
G01*
X184210329Y98418936D02*
G75*
G03*
X185210317Y97418929I1000071J64D01*
G01*
X-25363233Y57323237D02*
X-30363233Y57321538D01*
X41078727Y56269880D02*
G75*
G03*
X40078720Y55269830I-27J-999980D01*
G01*
X7997561Y72320043D02*
X7997485Y60320037D01*
X127977352Y194040954D02*
G75*
G03*
X126977346Y193040858I48J-1000054D01*
G01*
X-42062448Y193041934D02*
X-42035400Y27075346D01*
X235100303Y78168875D02*
X235393437Y77461868D01*
X35285357Y116469894D02*
X23285350Y116469970D01*
X37572705Y92369866D02*
X49572711Y92369790D01*
X304945210Y30274020D02*
X304945731Y27073137D01*
X228072565Y54268642D02*
G75*
G03*
X227072558Y53268639I35J-1000042D01*
G01*
X293747882Y98418239D02*
X293747958Y110418246D01*
X179447539Y60318946D02*
G75*
G03*
X180447572Y59318939I1000061J54D01*
G01*
X111484913Y40269368D02*
X87578650Y40269520D01*
X-8198282Y72329072D02*
X-1492333Y72331352D01*
X245835705Y153281074D02*
X245835628Y141281067D01*
X31810299Y98419906D02*
G75*
G03*
X32810234Y97419899I999901J-106D01*
G01*
X44810241Y97419752D02*
G75*
G03*
X45810248Y98419817I59J999948D01*
G01*
X36572659Y79369865D02*
G75*
G03*
X37572616Y78369859I1000041J35D01*
G01*
X160135041Y56269066D02*
G75*
G03*
X159135034Y55269073I59J-1000066D01*
G01*
X306748093Y130468174D02*
X294748086Y130468250D01*
X294747512Y40268202D02*
X306747519Y40268125D01*
X41335349Y117469856D02*
G75*
G03*
X42335361Y116469849I1000051J44D01*
G01*
X46097488Y60319795D02*
G75*
G03*
X47097500Y59319788I1000012J5D01*
G01*
X26760352Y110419945D02*
G75*
G03*
X25760320Y111419952I-999952J55D01*
G01*
X64860309Y110419702D02*
G75*
G03*
X63860340Y111419709I-1000109J-102D01*
G01*
X-8487914Y59328973D02*
X-7780708Y59036320D01*
X-8487914Y59328973D02*
X-23363913Y59323917D01*
X227072558Y53268639D02*
X227072482Y41268633D01*
X136585443Y117469250D02*
G75*
G03*
X137585412Y116469243I1000057J50D01*
G01*
X242456236Y110418579D02*
X242456236Y97419029D01*
X151872766Y92369139D02*
X163872773Y92369062D01*
X155302049Y194040857D02*
G75*
G03*
X154302043Y193040684I51J-1000057D01*
G01*
X288697955Y110418278D02*
X288697879Y98418271D01*
X-491993Y71331692D02*
X-487575Y58331692D01*
X11472602Y78369992D02*
G75*
G03*
X12472608Y79370019I-2J1000008D01*
G01*
X37572705Y92369902D02*
G75*
G03*
X36572698Y91369872I-5J-1000002D01*
G01*
X242456279Y110418579D02*
G75*
G03*
X241456242Y111418579I-1000079J-79D01*
G01*
X213785694Y154281313D02*
G75*
G03*
X212785687Y153281284I6J-1000013D01*
G01*
X193735479Y117468886D02*
G75*
G03*
X194735443Y116468879I999921J-86D01*
G01*
X256648065Y130468541D02*
G75*
G03*
X255648059Y129468499I35J-1000041D01*
G01*
X140060565Y140281740D02*
X128060558Y140281816D01*
X182922694Y78368899D02*
G75*
G03*
X183922701Y79368928I6J1000001D01*
G01*
X-1527323Y91370114D02*
X-1527399Y79370108D01*
X230624049Y194040357D02*
G75*
G03*
X229624043Y193040205I51J-1000057D01*
G01*
X63860340Y111419709D02*
X51860334Y111419785D01*
X137585501Y130469306D02*
G75*
G03*
X136585494Y129469256I-1J-1000006D01*
G01*
X295546049Y194039954D02*
X230624049Y194040368D01*
X99485481Y130469526D02*
G75*
G03*
X98485474Y129469499I19J-1000026D01*
G01*
X168635429Y116469064D02*
G75*
G03*
X169635436Y117469039I71J999936D01*
G01*
X28047489Y59319909D02*
X40047496Y59319833D01*
X237042599Y129468617D02*
X243748552Y129468574D01*
X211517438Y77453753D02*
X211513019Y90453752D01*
X203260308Y98418815D02*
G75*
G03*
X204260327Y97418808I999892J-115D01*
G01*
X170922777Y92369030D02*
G75*
G03*
X169922770Y91369023I23J-1000030D01*
G01*
X296545731Y27073529D02*
X296545210Y30272651D01*
X79435463Y129469620D02*
X79435387Y117469613D01*
X206728364Y58318771D02*
G75*
G03*
X207728324Y57318764I1000036J29D01*
G01*
X307747602Y53268126D02*
G75*
G03*
X306747608Y54268133I-999924J83D01*
G01*
X147110385Y111419179D02*
X159110392Y111419103D01*
X307748087Y129468167D02*
G75*
G03*
X306748093Y130468174I-1000004J3D01*
G01*
X147110658Y154281749D02*
G75*
G03*
X146110651Y153281708I42J-1000049D01*
G01*
X269648219Y153280922D02*
G75*
G03*
X268648223Y154280929I-999909J98D01*
G01*
X201972704Y78368789D02*
G75*
G03*
X202972711Y79368807I-104J1000111D01*
G01*
X41078727Y56269824D02*
X50834982Y56269762D01*
X32810323Y111419907D02*
X44810330Y111419830D01*
X8997479Y59320030D02*
X20997486Y59319954D01*
X49572622Y78369771D02*
G75*
G03*
X50572629Y79369776I-122J1000129D01*
G01*
X-33066648Y194042046D02*
X-41062442Y194042097D01*
X-1492333Y72331352D02*
X-785127Y72038699D01*
X242389018Y90464246D02*
X242393436Y77464247D01*
X206735449Y116468803D02*
X194735443Y116468879D01*
X146110651Y153281708D02*
X146110575Y141281702D01*
X207735608Y141281310D02*
X207735684Y153281316D01*
X156635422Y116469122D02*
X168635429Y116469045D01*
X130535408Y116469285D02*
G75*
G03*
X131535415Y117469282I-108J1000115D01*
G01*
X-17102204Y111420224D02*
X-29102210Y111420301D01*
X60097619Y72319712D02*
G75*
G03*
X59097595Y73319719I-1000119J-112D01*
G01*
X104247620Y73319432D02*
X116247626Y73319355D01*
X232835704Y154281203D02*
G75*
G03*
X231835697Y153281163I-4J-1000003D01*
G01*
X213872447Y115468757D02*
X213872530Y128468764D01*
X232950338Y92461038D02*
X233816534Y91961333D01*
X50860327Y110419791D02*
X50860250Y98419785D01*
X121010555Y140281838D02*
G75*
G03*
X122010562Y141281855I45J999962D01*
G01*
X13760313Y111419994D02*
G75*
G03*
X12760306Y110420034I-13J-999994D01*
G01*
X112772574Y79369381D02*
G75*
G03*
X113772657Y78369374I1000026J19D01*
G01*
X169922710Y79369017D02*
G75*
G03*
X170922688Y78369010I999890J-117D01*
G01*
X274697994Y117468371D02*
G75*
G03*
X275697987Y116468364I1000016J9D01*
G01*
X117535484Y129469377D02*
X117535408Y117469371D01*
X131822652Y79369259D02*
G75*
G03*
X132822667Y78369252I1000048J41D01*
G01*
X268647498Y40268368D02*
X256647492Y40268444D01*
X22285584Y153282496D02*
X22285508Y141282490D01*
X179447429Y41268936D02*
G75*
G03*
X180447450Y40268929I1000071J64D01*
G01*
X7710227Y98420059D02*
X7710303Y110420066D01*
X269647946Y110418399D02*
G75*
G03*
X268647951Y111418406I-1000086J-79D01*
G01*
X35285597Y154282414D02*
X23285591Y154282490D01*
X97197527Y59319469D02*
X85197520Y59319545D01*
X275697502Y40268323D02*
X287697508Y40268246D01*
X140639346Y27074183D02*
G75*
G03*
X141639376Y26074346I1000054J217D01*
G01*
X3235391Y117470098D02*
G75*
G03*
X4235340Y116470091I999909J-98D01*
G01*
X22285270Y117469977D02*
G75*
G03*
X23285350Y116469970I1000030J23D01*
G01*
X-21864522Y140282816D02*
G75*
G03*
X-20864516Y141282764I22J999984D01*
G01*
X-15814664Y117470219D02*
X-15814588Y129470226D01*
X295545725Y26073366D02*
G75*
G03*
X296545731Y27073529I94J999912D01*
G01*
X75672725Y92369682D02*
G75*
G03*
X74672718Y91369630I-25J-999982D01*
G01*
X180447572Y59318939D02*
X192447578Y59318863D01*
X146078688Y41269205D02*
G75*
G03*
X147078695Y42269142I12J999995D01*
G01*
X122297547Y60319310D02*
X122297623Y72319316D01*
X255647861Y98418482D02*
X255647937Y110418488D01*
X275697712Y73318335D02*
G75*
G03*
X274697705Y72318346I-32J-999975D01*
G01*
X183922741Y91368934D02*
G75*
G03*
X182922783Y92368941I-999941J66D01*
G01*
X218517438Y77456132D02*
X219517098Y78456472D01*
X155347564Y60319099D02*
X155347641Y72319106D01*
X-1487235Y57331353D02*
X-6487235Y57329653D01*
X108010630Y153281951D02*
X108010554Y141281944D01*
X43255539Y191840847D02*
G75*
G03*
X51655541Y191842216I4200001J683D01*
G01*
X180447539Y54268967D02*
G75*
G03*
X179447533Y53268942I-39J-999967D01*
G01*
X274697871Y98418361D02*
G75*
G03*
X275697865Y97418354I1000018J11D01*
G01*
X-34864553Y141282853D02*
G75*
G03*
X-33864529Y140282847I1000053J47D01*
G01*
X-11097620Y47042882D02*
G75*
G03*
X-11097620Y47042882I-1200000J0D01*
G01*
X275698227Y154280880D02*
G75*
G03*
X274698220Y153280890I-87J-999920D01*
G01*
X-5289697Y111420204D02*
G75*
G03*
X-6289704Y110420155I-3J-1000004D01*
G01*
X126977346Y193040858D02*
X126977541Y191841737D01*
X207735723Y153281316D02*
G75*
G03*
X206735690Y154281323I-999923J84D01*
G01*
X223310547Y130468704D02*
G75*
G03*
X222444518Y129968710I53J-1000104D01*
G01*
X244837334Y59409566D02*
G75*
G03*
X245837334Y60409634I66J999934D01*
G01*
X275697987Y116468364D02*
X287697993Y116468288D01*
X150585474Y129469167D02*
G75*
G03*
X149585508Y130469174I-999974J33D01*
G01*
X-22796527Y72824111D02*
X-21930672Y73324405D01*
X69910337Y110419670D02*
X69910261Y98419664D01*
X73385529Y140282164D02*
G75*
G03*
X74385536Y141282158I71J999936D01*
G01*
X244835622Y140281072D02*
G75*
G03*
X245835628Y141281067I-122J1000128D01*
G01*
X88960347Y110419549D02*
X88960271Y98419542D01*
X-33864591Y130470341D02*
X-21864585Y130470265D01*
X293747882Y98418239D02*
G75*
G03*
X294747876Y97418232I1000064J57D01*
G01*
X21997492Y60319948D02*
X21997569Y72319954D01*
X274698147Y141280884D02*
G75*
G03*
X275698138Y140280877I999963J-44D01*
G01*
X306054359Y60529174D02*
G75*
G03*
X306054359Y60529174I-1200000J0D01*
G01*
X245837340Y72409641D02*
G75*
G03*
X244837324Y73409640I-999940J59D01*
G01*
X7709942Y53270035D02*
G75*
G03*
X6709946Y54270042I-999942J65D01*
G01*
X36285501Y129469894D02*
G75*
G03*
X35285446Y130469901I-1000101J-94D01*
G01*
X16141201Y54270006D02*
G75*
G03*
X15141194Y53269988I-1J-1000006D01*
G01*
X41335367Y117469856D02*
X41335443Y129469862D01*
X43255034Y27075141D02*
X43254512Y30274263D01*
X146110272Y98419179D02*
G75*
G03*
X147110296Y97419172I1000028J21D01*
G01*
X26760314Y110419945D02*
X26760237Y98419938D01*
X163872684Y78369055D02*
X151872677Y78369131D01*
X56622715Y92369745D02*
X68622722Y92369669D01*
X193735592Y141281399D02*
G75*
G03*
X194735595Y140281392I1000008J1D01*
G01*
X-16102286Y98420211D02*
X-16102209Y110420217D01*
X158016271Y53269079D02*
X158016195Y41269072D01*
X16235347Y116470047D02*
G75*
G03*
X17235353Y117470009I53J999953D01*
G01*
X-6289704Y110420155D02*
X-6289780Y98420148D01*
X30522701Y92369911D02*
X18522694Y92369987D01*
X116247537Y59319356D02*
G75*
G03*
X117247544Y60319342I63J999944D01*
G01*
X54335519Y140282285D02*
X42335512Y140282362D01*
X206728331Y58631300D02*
X206581905Y59151985D01*
X98197576Y72319470D02*
G75*
G03*
X97197616Y73319476I-999976J30D01*
G01*
X128060648Y154281824D02*
X140060654Y154281747D01*
X17235430Y129470016D02*
X17235353Y117470009D01*
X111485487Y130469416D02*
X99485481Y130469493D01*
X287697508Y40268246D02*
G75*
G03*
X288697515Y41268241I-35J1000042D01*
G01*
X237748512Y115468605D02*
G75*
G03*
X236748466Y116468612I-1000112J-105D01*
G01*
X63860251Y97419742D02*
G75*
G03*
X64860258Y98419696I49J999958D01*
G01*
X203259877Y41268784D02*
G75*
G03*
X204259963Y40268777I1000023J16D01*
G01*
X46097505Y60319795D02*
X46097582Y72319801D01*
X80435381Y116469606D02*
X92435388Y116469530D01*
X147110385Y111419222D02*
G75*
G03*
X146110378Y110419185I15J-1000022D01*
G01*
X212512679Y91454092D02*
X219218628Y91456371D01*
X68622632Y78369661D02*
X56622626Y78369737D01*
X36285440Y129469894D02*
X36285364Y117469888D01*
X164872767Y91369056D02*
X164872691Y79369049D01*
X188972704Y79368896D02*
X188972780Y91368902D01*
X41047503Y60319827D02*
X41047579Y72319833D01*
X79147600Y72319591D02*
X79147523Y60319584D01*
X179447654Y72318953D02*
X179447577Y60318946D01*
X214872537Y129468770D02*
G75*
G03*
X213872530Y128468764I-37J-999970D01*
G01*
X219872444Y114468749D02*
G75*
G03*
X220872451Y115468712I56J999951D01*
G01*
X227072526Y41268633D02*
G75*
G03*
X228072476Y40268626I1000074J67D01*
G01*
X159110575Y140281618D02*
G75*
G03*
X160110582Y141281613I25J999982D01*
G01*
X61385460Y130469747D02*
G75*
G03*
X60385453Y129469741I40J-1000047D01*
G01*
X55622637Y79369744D02*
G75*
G03*
X56622626Y78369737I1000063J56D01*
G01*
X288697955Y110418278D02*
G75*
G03*
X287697961Y111418285I-1000045J-38D01*
G01*
X6709857Y40270037D02*
G75*
G03*
X7709863Y41270029I43J999963D01*
G01*
X224602351Y47160604D02*
G75*
G03*
X224602351Y47160604I-1200000J0D01*
G01*
X175685673Y154281534D02*
G75*
G03*
X174685666Y153281527I27J-1000034D01*
G01*
X15141194Y53269988D02*
X15141117Y41269981D01*
X142347640Y73319167D02*
G75*
G03*
X141347633Y72319195I60J-1000067D01*
G01*
X43255367Y193041730D02*
G75*
G03*
X42255352Y194041567I-1000067J-230D01*
G01*
X304945210Y30274020D02*
G75*
G03*
X296545210Y30272651I-4200000J-622D01*
G01*
X89960265Y97419535D02*
X101960272Y97419459D01*
X-13721156Y79370185D02*
X-13721079Y91370192D01*
X7709940Y53270035D02*
X7709863Y41270029D01*
X-20864635Y129470258D02*
G75*
G03*
X-21864585Y130470265I-999965J42D01*
G01*
X288697515Y41268241D02*
X288697592Y53268247D01*
X241388678Y91463906D02*
X242095884Y91171253D01*
X51655012Y27074749D02*
G75*
G03*
X52655028Y26074912I999888J51D01*
G01*
X212785571Y141281278D02*
G75*
G03*
X213785605Y140281271I1000029J22D01*
G01*
X-5289786Y97420142D02*
X6710220Y97420065D01*
X140078691Y42269187D02*
X140078774Y55269194D01*
X55335593Y153282286D02*
G75*
G03*
X54335608Y154282293I-999993J14D01*
G01*
X256647944Y111418482D02*
X268647951Y111418406D01*
X274698069Y129468377D02*
X274697993Y117468371D01*
X160110386Y110419096D02*
X160110309Y98419090D01*
X12760230Y98420027D02*
X12760306Y110420034D01*
X131535415Y117469282D02*
X131535492Y129469288D01*
X230623725Y26073779D02*
X295545725Y26073366D01*
X161397650Y73319056D02*
G75*
G03*
X160397644Y72319074I50J-1000056D01*
G01*
X216260333Y97418732D02*
X204260327Y97418808D01*
X16235347Y116470015D02*
X4235340Y116470091D01*
X314987048Y27073411D02*
X314960000Y193040000D01*
X40047585Y73319840D02*
X28047578Y73319916D01*
X158575635Y54166802D02*
G75*
G03*
X159135033Y55064455I-440435J897598D01*
G01*
X102960551Y141281976D02*
X102960628Y153281983D01*
X202972820Y91368813D02*
G75*
G03*
X201972794Y92368820I-999920J87D01*
G01*
X6710220Y97420073D02*
G75*
G03*
X7710227Y98420059I-20J1000027D01*
G01*
X49572622Y78369782D02*
X37572616Y78369859D01*
X306016892Y135545165D02*
G75*
G03*
X306016892Y135545165I-1200000J0D01*
G01*
X108010537Y141281944D02*
G75*
G03*
X109010548Y140281937I1000063J56D01*
G01*
X288698228Y153280801D02*
G75*
G03*
X287698234Y154280808I-1000033J-26D01*
G01*
X-34864523Y141282853D02*
X-34864447Y153282860D01*
X128060648Y154281759D02*
G75*
G03*
X127060641Y153281830I52J-1000059D01*
G01*
X294747965Y111418240D02*
G75*
G03*
X293747958Y110418246I54J-1000061D01*
G01*
X140638859Y30275066D02*
G75*
G03*
X132238861Y30273697I-4199999J-716D01*
G01*
X15141074Y41269981D02*
G75*
G03*
X16141112Y40269974I1000026J19D01*
G01*
X22285356Y117469977D02*
X22285433Y129469983D01*
X88960620Y153282072D02*
X88960544Y141282066D01*
X-24363573Y58323577D02*
X-25363233Y57323237D01*
X256647581Y54268426D02*
G75*
G03*
X255647574Y53268457I19J-1000026D01*
G01*
X122010562Y141281855D02*
X122010638Y153281862D01*
X168016909Y135476240D02*
G75*
G03*
X168016909Y135476240I-1200000J0D01*
G01*
X4235581Y154282626D02*
G75*
G03*
X3235574Y153282618I19J-1000026D01*
G01*
X7997530Y60320037D02*
G75*
G03*
X8997479Y59320030I1000070J63D01*
G01*
X221578489Y129468675D02*
G75*
G03*
X222444518Y129968710I-89J1000125D01*
G01*
X163872684Y78369109D02*
G75*
G03*
X164872691Y79369049I16J999991D01*
G01*
X146110302Y98419179D02*
X146110378Y110419185D01*
X112484996Y53269368D02*
X112484920Y41269362D01*
X-31483914Y40270277D02*
X-17102656Y40270186D01*
X221224238Y191839714D02*
X221224043Y193040597D01*
X171016195Y40268998D02*
G75*
G03*
X172016202Y41268983I5J1000002D01*
G01*
X113772746Y92369361D02*
G75*
G03*
X112772739Y91369387I54J-1000061D01*
G01*
X225785611Y140281182D02*
G75*
G03*
X226785618Y141281189I-111J1000118D01*
G01*
X243748457Y114468536D02*
G75*
G03*
X244748464Y115468560I43J999964D01*
G01*
X214728340Y59318767D02*
G75*
G03*
X213728333Y58318727I160J-1000167D01*
G01*
X131239376Y26074318D02*
G75*
G03*
X132239382Y27074575I-76J1000082D01*
G01*
X308972771Y75846697D02*
G75*
G03*
X308972771Y75846697I-3000000J0D01*
G01*
X-7780708Y59036320D02*
X-7487574Y58329313D01*
X206735449Y116468844D02*
G75*
G03*
X207735456Y117468797I51J999956D01*
G01*
X288698000Y117468282D02*
X288698076Y129468288D01*
X121010282Y97419311D02*
G75*
G03*
X122010289Y98419332I18J999989D01*
G01*
X197210323Y97418870D02*
G75*
G03*
X198210330Y98418847I-23J1000030D01*
G01*
X228072929Y111418678D02*
G75*
G03*
X227072922Y110418670I-29J-999978D01*
G01*
X144902049Y194040913D02*
X143939725Y194040920D01*
X43255541Y191840847D02*
X43255345Y193041730D01*
X82910261Y97419632D02*
G75*
G03*
X83910268Y98419575I39J999968D01*
G01*
X174397575Y60318978D02*
X174397651Y72318985D01*
X141060648Y153281740D02*
X141060572Y141281734D01*
X-13721101Y91370192D02*
G75*
G03*
X-14721073Y92370199I-999999J8D01*
G01*
X144822763Y92369184D02*
X132822756Y92369260D01*
X109010548Y140281937D02*
X121010555Y140281861D01*
X227072757Y98418664D02*
G75*
G03*
X228072840Y97418657I1000043J36D01*
G01*
X206643553Y73409614D02*
X244837324Y73409640D01*
X-2814664Y116470136D02*
X-14814670Y116470212D01*
X229604348Y59318626D02*
X214728340Y59318721D01*
X37102374Y47066956D02*
G75*
G03*
X37102374Y47066956I-1200000J0D01*
G01*
X-31367992Y71321197D02*
X-30368332Y72321537D01*
X140638861Y30275066D02*
X140639383Y27074183D01*
X69622716Y91369662D02*
X69622639Y79369655D01*
X118577387Y193041250D02*
G75*
G03*
X117577352Y194041087I-1000087J-250D01*
G01*
X218641221Y40268672D02*
G75*
G03*
X219641228Y41268680I-121J1000128D01*
G01*
X3235346Y117470098D02*
X3235422Y129470105D01*
X60385540Y141282247D02*
G75*
G03*
X61385522Y140282240I1000060J53D01*
G01*
X-23666908Y27075229D02*
G75*
G03*
X-22666972Y26075392I999908J71D01*
G01*
X169635553Y129469046D02*
G75*
G03*
X168635518Y130469053I-999953J54D01*
G01*
X174685500Y117469007D02*
G75*
G03*
X175685433Y116469000I999900J-107D01*
G01*
X287698082Y130468295D02*
X275698076Y130468371D01*
X268647862Y97418398D02*
X256647855Y97418475D01*
X236604339Y57318581D02*
X231604337Y57318613D01*
X128939233Y186841010D02*
X128939279Y194041015D01*
X187685591Y140281402D02*
G75*
G03*
X188685598Y141281431I9J999998D01*
G01*
X-22796527Y72824111D02*
X-23662383Y72323816D01*
X123297630Y73319310D02*
X135297636Y73319234D01*
X287697597Y54268254D02*
X275697591Y54268330D01*
X23285439Y130469967D02*
G75*
G03*
X22285433Y129469983I61J-1000067D01*
G01*
X69910257Y98419664D02*
G75*
G03*
X70910255Y97419657I1000043J36D01*
G01*
X6710309Y111420073D02*
X-5289697Y111420149D01*
X-7671312Y54270119D02*
G75*
G03*
X-8671319Y53270139I12J-1000019D01*
G01*
X86578656Y41269527D02*
X86578732Y53269533D01*
X232835704Y154281157D02*
X244835711Y154281081D01*
X131822749Y91369266D02*
X131822673Y79369259D01*
X237748498Y115468605D02*
G75*
G03*
X238748454Y114468598I999902J-105D01*
G01*
X-21864522Y140282770D02*
X-33864529Y140282847D01*
X-30102307Y98420300D02*
G75*
G03*
X-29102299Y97420293I1000007J0D01*
G01*
X74385459Y129469652D02*
G75*
G03*
X73385467Y130469659I-999959J48D01*
G01*
X146110595Y141281702D02*
G75*
G03*
X147110569Y140281695I999905J-102D01*
G01*
X25760231Y97419963D02*
G75*
G03*
X26760237Y98419938I69J999937D01*
G01*
X42335450Y130469856D02*
X54335456Y130469780D01*
M02*
