%TF.GenerationSoftware,KiCad,Pcbnew,7.0.5*%
%TF.CreationDate,2023-07-12T21:53:11+02:00*%
%TF.ProjectId,Strata_ISO,53747261-7461-45f4-9953-4f2e6b696361,rev?*%
%TF.SameCoordinates,Original*%
%TF.FileFunction,Soldermask,Bot*%
%TF.FilePolarity,Negative*%
%FSLAX46Y46*%
G04 Gerber Fmt 4.6, Leading zero omitted, Abs format (unit mm)*
G04 Created by KiCad (PCBNEW 7.0.5) date 2023-07-12 21:53:11*
%MOMM*%
%LPD*%
G01*
G04 APERTURE LIST*
%ADD10C,2.000000*%
G04 APERTURE END LIST*
D10*
X-94985974Y116172946D02*
G75*
G03*
X-94985974Y116172946I-1200000J0D01*
G01*
X-72998752Y84859164D02*
G75*
G03*
X-72998752Y84859164I-1200000J0D01*
G01*
X-74100528Y27839480D02*
G75*
G03*
X-74100528Y27839480I-1200000J0D01*
G01*
X-25900534Y27863554D02*
G75*
G03*
X-25900534Y27863554I-1200000J0D01*
G01*
X-3985986Y116218397D02*
G75*
G03*
X-3985986Y116218397I-1200000J0D01*
G01*
X105014001Y116272838D02*
G75*
G03*
X105014001Y116272838I-1200000J0D01*
G01*
X114099449Y27933478D02*
G75*
G03*
X114099449Y27933478I-1200000J0D01*
G01*
X161599443Y27957202D02*
G75*
G03*
X161599443Y27957202I-1200000J0D01*
G01*
X189013990Y116314792D02*
G75*
G03*
X189013990Y116314792I-1200000J0D01*
G01*
X243013984Y116341763D02*
G75*
G03*
X243013984Y116341763I-1200000J0D01*
G01*
X243051451Y41325772D02*
G75*
G03*
X243051451Y41325772I-1200000J0D01*
G01*
X245969863Y56643295D02*
G75*
G03*
X245969863Y56643295I-3000000J0D01*
G01*
X143183039Y40317054D02*
X143725421Y39115369D01*
X143725368Y39115369D02*
G75*
G03*
X144725416Y38115362I1000005J-2D01*
G01*
X144725416Y38115362D02*
X149725418Y38115331D01*
X149725418Y38115415D02*
G75*
G03*
X150725425Y39115325I55J999952D01*
G01*
X151725432Y40115415D02*
G75*
G03*
X150725425Y39115325I41J-1000048D01*
G01*
X151725432Y40115319D02*
X166601440Y40115224D01*
X167601430Y39115217D02*
G75*
G03*
X166601440Y40115224I-999957J50D01*
G01*
X167601517Y39115217D02*
G75*
G03*
X168601429Y38115211I999956J-50D01*
G01*
X168601429Y38115211D02*
X173601431Y38115179D01*
X173601431Y38115202D02*
G75*
G03*
X174601438Y39115173I42J999965D01*
G01*
X174601438Y39115173D02*
X174601445Y40206226D01*
X174601445Y40206226D02*
X181834426Y40206231D01*
X181834426Y40206314D02*
G75*
G03*
X182834426Y41206232I47J999953D01*
G01*
X182834426Y41206232D02*
X182834417Y53206239D01*
X182834344Y53206239D02*
G75*
G03*
X181834416Y54206238I-999971J28D01*
G01*
X181834416Y54206238D02*
X143640645Y54206212D01*
X143640645Y54206194D02*
G75*
G03*
X142640646Y53206211I28J-1000027D01*
G01*
X142640646Y53206211D02*
X142640654Y41206204D01*
X142640698Y41206204D02*
G75*
G03*
X143183039Y40317054I999975J-37D01*
G01*
X-73197036Y54116758D02*
X-82324317Y54116816D01*
X-82324317Y54116819D02*
G75*
G03*
X-82465895Y54126840I-141210J-989952D01*
G01*
X-82465895Y54126840D02*
X-94485126Y54122755D01*
X-94485126Y54122727D02*
G75*
G03*
X-95484787Y53122755I299J-999960D01*
G01*
X-95484787Y53122755D02*
X-95484787Y41122397D01*
X-95484797Y41122397D02*
G75*
G03*
X-94484440Y40122397I999970J-30D01*
G01*
X-94484440Y40122397D02*
X-94399701Y40122427D01*
X-94399701Y40122427D02*
X-94399707Y39116885D01*
X-94399716Y39116885D02*
G75*
G03*
X-93399713Y38116878I999989J-18D01*
G01*
X-93399713Y38116878D02*
X-88399710Y38116846D01*
X-88399710Y38116843D02*
G75*
G03*
X-87399703Y39116840I-17J1000024D01*
G01*
X-86399696Y40116843D02*
G75*
G03*
X-87399703Y39116840I-31J-999976D01*
G01*
X-86399696Y40116834D02*
X-71523688Y40116740D01*
X-70523754Y39116733D02*
G75*
G03*
X-71523688Y40116740I-999973J34D01*
G01*
X-70523768Y39116733D02*
G75*
G03*
X-69523700Y38116726I1000041J34D01*
G01*
X-69523700Y38116726D02*
X-64523697Y38116694D01*
X-64523697Y38116630D02*
G75*
G03*
X-63523690Y39116688I-30J1000037D01*
G01*
X-63523690Y39116688D02*
X-63523684Y40133132D01*
X-63523684Y40133132D02*
X-61030131Y40133996D01*
X-61030131Y40133918D02*
G75*
G03*
X-60030478Y41134336I-396J1000049D01*
G01*
X-60030478Y41134336D02*
X-60034557Y53134465D01*
X-60034569Y53134465D02*
G75*
G03*
X-61034896Y54134125I-999958J-298D01*
G01*
X-61034896Y54134125D02*
X-73034896Y54130046D01*
X-73034896Y54130052D02*
G75*
G03*
X-73197036Y54116758I369J-999885D01*
G01*
X98394653Y40115658D02*
X110394660Y40115582D01*
X110394660Y40115573D02*
G75*
G03*
X111394667Y41115576I13J999994D01*
G01*
X111394667Y41115576D02*
X111394743Y53115583D01*
X111394796Y53115583D02*
G75*
G03*
X110394749Y54115590I-1000023J-16D01*
G01*
X110394749Y54115590D02*
X98394742Y54115666D01*
X98394742Y54115704D02*
G75*
G03*
X97394736Y53115672I31J-1000037D01*
G01*
X97394736Y53115672D02*
X97394659Y41115665D01*
X97394664Y41115665D02*
G75*
G03*
X98394653Y40115658I1000009J2D01*
G01*
X-20667458Y111266505D02*
G75*
G03*
X-21667465Y110266460I31J-1000038D01*
G01*
X-20667458Y111266454D02*
X-8667452Y111266378D01*
X-7667416Y110266371D02*
G75*
G03*
X-8667452Y111266378I-1000011J-4D01*
G01*
X-7667458Y110266371D02*
X-7667534Y98266365D01*
X-8667541Y97266374D02*
G75*
G03*
X-7667534Y98266365I14J999993D01*
G01*
X-8667541Y97266370D02*
X-20667547Y97266447D01*
X-21667547Y98266454D02*
G75*
G03*
X-20667547Y97266447I1000020J13D01*
G01*
X-21667541Y98266454D02*
X-21667465Y110266460D01*
X11382563Y110266250D02*
G75*
G03*
X10382559Y111266257I-999990J17D01*
G01*
X11382553Y110266250D02*
X11382476Y98266243D01*
X10382469Y97266264D02*
G75*
G03*
X11382476Y98266243I4J1000003D01*
G01*
X10382469Y97266249D02*
X-1617537Y97266326D01*
X-2617568Y98266333D02*
G75*
G03*
X-1617537Y97266326I1000041J34D01*
G01*
X-2617531Y98266333D02*
X-2617455Y110266339D01*
X-1617448Y111266395D02*
G75*
G03*
X-2617455Y110266339I21J-1000028D01*
G01*
X-1617448Y111266333D02*
X10382559Y111266257D01*
X11669810Y72166228D02*
X11669734Y60166221D01*
X11669820Y60166221D02*
G75*
G03*
X12669728Y59166214I999953J-54D01*
G01*
X12669728Y59166214D02*
X24669735Y59166138D01*
X24669735Y59166198D02*
G75*
G03*
X25669742Y60166132I38J999969D01*
G01*
X25669742Y60166132D02*
X25669818Y72166138D01*
X25669751Y72166138D02*
G75*
G03*
X24669824Y73166145I-999978J29D01*
G01*
X24669824Y73166145D02*
X12669817Y73166222D01*
X12669817Y73166230D02*
G75*
G03*
X11669810Y72166228I-44J-999963D01*
G01*
X88869858Y73165788D02*
G75*
G03*
X87869852Y72165743I15J-1000021D01*
G01*
X88869858Y73165737D02*
X100869865Y73165660D01*
X101869866Y72165654D02*
G75*
G03*
X100869865Y73165660I-999993J13D01*
G01*
X101869859Y72165654D02*
X101869783Y60165647D01*
X100869776Y59165657D02*
G75*
G03*
X101869783Y60165647I-3J1000010D01*
G01*
X100869776Y59165653D02*
X88869769Y59165729D01*
X87869735Y60165736D02*
G75*
G03*
X88869769Y59165729I1000038J31D01*
G01*
X87869775Y60165736D02*
X87869852Y72165743D01*
X-26430337Y60166463D02*
G75*
G03*
X-25430292Y59166457I1000010J4D01*
G01*
X-26430286Y60166463D02*
X-26430210Y72166470D01*
X-25430203Y73166450D02*
G75*
G03*
X-26430210Y72166470I-24J-999983D01*
G01*
X-25430203Y73166464D02*
X-13430197Y73166388D01*
X-12430206Y72166381D02*
G75*
G03*
X-13430197Y73166388I-1000021J-14D01*
G01*
X-12430203Y72166381D02*
X-12430279Y60166374D01*
X-13430286Y59166319D02*
G75*
G03*
X-12430279Y60166374I-41J1000048D01*
G01*
X-13430286Y59166380D02*
X-25430292Y59166457D01*
X-56293051Y21066685D02*
G75*
G03*
X-55293045Y22066627I24J999982D01*
G01*
X-56293051Y21066632D02*
X-70674309Y21066724D01*
X-71674370Y22066731D02*
G75*
G03*
X-70674309Y21066724I1000043J36D01*
G01*
X-71674303Y22066731D02*
X-71674227Y34066737D01*
X-70674220Y35066767D02*
G75*
G03*
X-71674227Y34066737I-7J-1000000D01*
G01*
X-70674220Y35066731D02*
X-56292962Y35066640D01*
X-55292954Y34066633D02*
G75*
G03*
X-56292962Y35066640I-999973J34D01*
G01*
X-55292968Y34066633D02*
X-55293045Y22066627D01*
X22194701Y54116146D02*
G75*
G03*
X21194694Y53116157I-28J-999979D01*
G01*
X22194701Y54116151D02*
X34194708Y54116074D01*
X35194680Y53116068D02*
G75*
G03*
X34194708Y54116074I-1000007J-1D01*
G01*
X35194702Y53116068D02*
X35194626Y41116061D01*
X34194619Y40116114D02*
G75*
G03*
X35194626Y41116061I54J999953D01*
G01*
X34194619Y40116067D02*
X22194612Y40116143D01*
X21194549Y41116150D02*
G75*
G03*
X22194612Y40116143I1000024J17D01*
G01*
X21194618Y41116150D02*
X21194694Y53116157D01*
X49482497Y98266001D02*
X49482573Y110266007D01*
X49482620Y110266007D02*
G75*
G03*
X48482579Y111266014I-1000047J-40D01*
G01*
X48482579Y111266014D02*
X36482573Y111266091D01*
X36482573Y111266074D02*
G75*
G03*
X35482566Y110266097I0J-1000007D01*
G01*
X35482566Y110266097D02*
X35482489Y98266090D01*
X35482489Y98266090D02*
G75*
G03*
X36482484Y97266083I999984J-23D01*
G01*
X36482484Y97266083D02*
X48482490Y97266007D01*
X48482490Y97265943D02*
G75*
G03*
X49482497Y98266001I-17J1000024D01*
G01*
X-27717311Y135079012D02*
X-39717317Y135079088D01*
X-39717317Y135079064D02*
G75*
G03*
X-40717324Y134079094I-10J-999997D01*
G01*
X-40717324Y134079094D02*
X-40717400Y122079088D01*
X-40717413Y122079088D02*
G75*
G03*
X-39717406Y121079081I999986J-21D01*
G01*
X-39717406Y121079081D02*
X-27717400Y121079005D01*
X-27717400Y121078933D02*
G75*
G03*
X-26717393Y122078999I-27J1000034D01*
G01*
X-26717393Y122078999D02*
X-26717316Y134079005D01*
X-26717282Y134079005D02*
G75*
G03*
X-27717311Y135079012I-1000045J-38D01*
G01*
X68532507Y98265880D02*
X68532584Y110265886D01*
X68532599Y110265886D02*
G75*
G03*
X67532589Y111265893I-1000026J-19D01*
G01*
X67532589Y111265893D02*
X55532583Y111265970D01*
X55532583Y111265964D02*
G75*
G03*
X54532576Y110265975I-10J-999997D01*
G01*
X54532576Y110265975D02*
X54532500Y98265969D01*
X54532468Y98265969D02*
G75*
G03*
X55532494Y97265962I1000005J-2D01*
G01*
X55532494Y97265962D02*
X67532500Y97265886D01*
X67532500Y97265833D02*
G75*
G03*
X68532507Y98265880I-27J1000034D01*
G01*
X46007640Y121078535D02*
X58007647Y121078459D01*
X58007647Y121078486D02*
G75*
G03*
X59007654Y122078453I26J999981D01*
G01*
X59007654Y122078453D02*
X59007730Y134078460D01*
X59007773Y134078460D02*
G75*
G03*
X58007736Y135078467I-1000000J7D01*
G01*
X58007736Y135078467D02*
X46007729Y135078543D01*
X46007729Y135078518D02*
G75*
G03*
X45007722Y134078549I-56J-999951D01*
G01*
X45007722Y134078549D02*
X45007646Y122078542D01*
X45007641Y122078542D02*
G75*
G03*
X46007640Y121078535I1000032J25D01*
G01*
X-39717469Y111266615D02*
G75*
G03*
X-40717475Y110266581I42J-1000048D01*
G01*
X-39717469Y111266576D02*
X-27717462Y111266499D01*
X-26717395Y110266492D02*
G75*
G03*
X-27717462Y111266499I-1000032J-25D01*
G01*
X-26717468Y110266492D02*
X-26717544Y98266486D01*
X-27717551Y97266484D02*
G75*
G03*
X-26717544Y98266486I24J999983D01*
G01*
X-27717551Y97266492D02*
X-39717558Y97266568D01*
X-40717526Y98266575D02*
G75*
G03*
X-39717558Y97266568I999999J-8D01*
G01*
X-40717552Y98266575D02*
X-40717475Y110266581D01*
X231745241Y121077354D02*
X243745247Y121077277D01*
X243745247Y121077286D02*
G75*
G03*
X244745254Y122077271I26J999981D01*
G01*
X244745254Y122077271D02*
X244745330Y134077278D01*
X244745391Y134077278D02*
G75*
G03*
X243745336Y135077285I-1000018J-11D01*
G01*
X243745336Y135077285D02*
X231745330Y135077361D01*
X231745330Y135077417D02*
G75*
G03*
X230745323Y134077367I43J-1000050D01*
G01*
X230745323Y134077367D02*
X230745246Y122077360D01*
X230745260Y122077360D02*
G75*
G03*
X231745241Y121077354I1000013J7D01*
G01*
X193645220Y121077596D02*
X205645226Y121077520D01*
X205645226Y121077607D02*
G75*
G03*
X206645233Y122077514I47J999960D01*
G01*
X206645233Y122077514D02*
X206645310Y134077520D01*
X206645233Y134077520D02*
G75*
G03*
X205645315Y135077527I-999960J47D01*
G01*
X205645315Y135077527D02*
X193645309Y135077604D01*
X193645309Y135077538D02*
G75*
G03*
X192645302Y134077609I-36J-999971D01*
G01*
X192645302Y134077609D02*
X192645226Y122077603D01*
X192645302Y122077603D02*
G75*
G03*
X193645220Y121077596I999971J-36D01*
G01*
X-46767321Y135079133D02*
X-58767327Y135079210D01*
X-58767327Y135079174D02*
G75*
G03*
X-59767334Y134079216I0J-1000007D01*
G01*
X-59767334Y134079216D02*
X-59767411Y122079209D01*
X-59767392Y122079209D02*
G75*
G03*
X-58767416Y121079202I999965J-42D01*
G01*
X-58767416Y121079202D02*
X-46767410Y121079126D01*
X-46767410Y121079143D02*
G75*
G03*
X-45767403Y122079120I-17J1000024D01*
G01*
X-45767403Y122079120D02*
X-45767327Y134079126D01*
X-45767361Y134079126D02*
G75*
G03*
X-46767321Y135079133I-999966J41D01*
G01*
X-8667389Y121078822D02*
G75*
G03*
X-7667382Y122078878I-38J1000045D01*
G01*
X-8667389Y121078883D02*
X-20667396Y121078960D01*
X-21667434Y122078967D02*
G75*
G03*
X-20667396Y121078960I1000007J0D01*
G01*
X-21667390Y122078967D02*
X-21667314Y134078973D01*
X-20667307Y135078954D02*
G75*
G03*
X-21667314Y134078973I-20J-999987D01*
G01*
X-20667307Y135078967D02*
X-8667300Y135078891D01*
X-7667303Y134078884D02*
G75*
G03*
X-8667300Y135078891I-1000024J-17D01*
G01*
X-7667306Y134078884D02*
X-7667382Y122078878D01*
X212695079Y97264962D02*
X224695085Y97264886D01*
X224695085Y97264848D02*
G75*
G03*
X225695092Y98264880I-12J1000019D01*
G01*
X225695092Y98264880D02*
X225695168Y110264886D01*
X225695199Y110264886D02*
G75*
G03*
X224695174Y111264893I-1000026J-19D01*
G01*
X224695174Y111264893D02*
X212695168Y111264969D01*
X212695168Y111264979D02*
G75*
G03*
X211695161Y110264975I5J-1000012D01*
G01*
X211695161Y110264975D02*
X211695085Y98264969D01*
X211695068Y98264969D02*
G75*
G03*
X212695079Y97264962I1000005J-2D01*
G01*
X-84867493Y111266863D02*
X-96867499Y111266939D01*
X-96867499Y111266936D02*
G75*
G03*
X-97867506Y110266945I-8J-999999D01*
G01*
X-97867506Y110266945D02*
X-97867583Y98266939D01*
X-97867662Y98266939D02*
G75*
G03*
X-96867588Y97266932I1000035J28D01*
G01*
X-96867588Y97266932D02*
X-84867582Y97266855D01*
X-84867582Y97266915D02*
G75*
G03*
X-83867575Y98266850I55J999952D01*
G01*
X-83867575Y98266850D02*
X-83867499Y110266856D01*
X-83867531Y110266856D02*
G75*
G03*
X-84867493Y111266863I-999996J11D01*
G01*
X169832707Y121077748D02*
X181832714Y121077671D01*
X181832714Y121077620D02*
G75*
G03*
X182832720Y122077665I-41J1000047D01*
G01*
X182832720Y122077665D02*
X182832797Y134077672D01*
X182832785Y134077672D02*
G75*
G03*
X181832803Y135077679I-1000012J-5D01*
G01*
X181832803Y135077679D02*
X169832796Y135077755D01*
X169832796Y135077751D02*
G75*
G03*
X168832789Y134077761I-23J-999984D01*
G01*
X168832789Y134077761D02*
X168832713Y122077754D01*
X168832654Y122077754D02*
G75*
G03*
X169832707Y121077748I1000019J13D01*
G01*
X212695230Y121077475D02*
X224695237Y121077398D01*
X224695237Y121077396D02*
G75*
G03*
X225695244Y122077393I36J999971D01*
G01*
X225695244Y122077393D02*
X225695320Y134077399D01*
X225695312Y134077399D02*
G75*
G03*
X224695326Y135077406I-1000039J-32D01*
G01*
X224695326Y135077406D02*
X212695319Y135077482D01*
X212695319Y135077428D02*
G75*
G03*
X211695312Y134077488I-46J-999961D01*
G01*
X211695312Y134077488D02*
X211695236Y122077482D01*
X211695281Y122077482D02*
G75*
G03*
X212695230Y121077475I999992J-15D01*
G01*
X-45767574Y110266614D02*
G75*
G03*
X-46767472Y111266620I-999953J53D01*
G01*
X-45767478Y110266614D02*
X-45767555Y98266607D01*
X-46767561Y97266595D02*
G75*
G03*
X-45767555Y98266607I34J999972D01*
G01*
X-46767561Y97266613D02*
X-58767568Y97266689D01*
X-59767505Y98266696D02*
G75*
G03*
X-58767568Y97266689I999978J-29D01*
G01*
X-59767562Y98266696D02*
X-59767486Y110266703D01*
X-58767479Y111266626D02*
G75*
G03*
X-59767486Y110266703I-48J-999959D01*
G01*
X-58767479Y111266697D02*
X-46767472Y111266620D01*
X205645164Y111265014D02*
X193645157Y111265091D01*
X193645157Y111265089D02*
G75*
G03*
X192645151Y110265097I16J-1000022D01*
G01*
X192645151Y110265097D02*
X192645074Y98265090D01*
X192645089Y98265090D02*
G75*
G03*
X193645068Y97265083I999984J-23D01*
G01*
X193645068Y97265083D02*
X205645075Y97265007D01*
X205645075Y97264958D02*
G75*
G03*
X206645082Y98265001I-2J1000009D01*
G01*
X206645082Y98265001D02*
X206645158Y110265007D01*
X206645220Y110265007D02*
G75*
G03*
X205645164Y111265014I-1000047J-40D01*
G01*
X230745171Y110264854D02*
X230745095Y98264848D01*
X230745047Y98264848D02*
G75*
G03*
X231745089Y97264841I1000026J19D01*
G01*
X231745089Y97264841D02*
X243745095Y97264764D01*
X243745095Y97264738D02*
G75*
G03*
X244745102Y98264759I-22J1000029D01*
G01*
X244745102Y98264759D02*
X244745179Y110264765D01*
X244745178Y110264765D02*
G75*
G03*
X243745185Y111264772I-1000005J2D01*
G01*
X243745185Y111264772D02*
X231745178Y111264848D01*
X231745178Y111264869D02*
G75*
G03*
X230745171Y110264854I-5J-1000002D01*
G01*
X29432569Y111266136D02*
X17432562Y111266212D01*
X17432562Y111266185D02*
G75*
G03*
X16432555Y110266218I11J-1000018D01*
G01*
X16432555Y110266218D02*
X16432479Y98266211D01*
X16432510Y98266211D02*
G75*
G03*
X17432473Y97266204I999963J-44D01*
G01*
X17432473Y97266204D02*
X29432480Y97266128D01*
X29432480Y97266153D02*
G75*
G03*
X30432487Y98266122I-7J1000014D01*
G01*
X30432487Y98266122D02*
X30432563Y110266129D01*
X30432542Y110266129D02*
G75*
G03*
X29432569Y111266136I-999969J38D01*
G01*
X130732769Y134078003D02*
X130732692Y122077997D01*
X130732696Y122077997D02*
G75*
G03*
X131732687Y121077990I999977J-30D01*
G01*
X131732687Y121077990D02*
X143732693Y121077914D01*
X143732693Y121077840D02*
G75*
G03*
X144732700Y122077908I-20J1000027D01*
G01*
X144732700Y122077908D02*
X144732776Y134077914D01*
X144732727Y134077914D02*
G75*
G03*
X143732782Y135077921I-999954J53D01*
G01*
X143732782Y135077921D02*
X131732776Y135077997D01*
X131732776Y135077971D02*
G75*
G03*
X130732769Y134078003I-3J-1000004D01*
G01*
X-92105207Y78216891D02*
X-80105201Y78216815D01*
X-80105201Y78216814D02*
G75*
G03*
X-79105194Y79216809I4J1000003D01*
G01*
X-79105194Y79216809D02*
X-79105117Y91216815D01*
X-79105172Y91216815D02*
G75*
G03*
X-80105112Y92216822I-999955J52D01*
G01*
X-80105112Y92216822D02*
X-92105118Y92216899D01*
X-92105118Y92216895D02*
G75*
G03*
X-93105125Y91216904I-9J-999998D01*
G01*
X-93105125Y91216904D02*
X-93105201Y79216898D01*
X-93105203Y79216898D02*
G75*
G03*
X-92105207Y78216891I999976J-31D01*
G01*
X-64530231Y72166712D02*
X-64530307Y60166706D01*
X-64530295Y60166706D02*
G75*
G03*
X-63530313Y59166699I999968J-39D01*
G01*
X-63530313Y59166699D02*
X-51530306Y59166623D01*
X-51530306Y59166640D02*
G75*
G03*
X-50530300Y60166617I-21J1000027D01*
G01*
X-50530300Y60166617D02*
X-50530223Y72166623D01*
X-50530264Y72166623D02*
G75*
G03*
X-51530217Y73166630I-999963J44D01*
G01*
X-51530217Y73166630D02*
X-63530224Y73166707D01*
X-63530224Y73166671D02*
G75*
G03*
X-64530231Y72166712I-3J-1000004D01*
G01*
X5619724Y59166309D02*
G75*
G03*
X6619731Y60166253I49J999958D01*
G01*
X5619724Y59166259D02*
X-6380282Y59166335D01*
X-7380259Y60166342D02*
G75*
G03*
X-6380282Y59166335I1000032J25D01*
G01*
X-7380276Y60166342D02*
X-7380200Y72166349D01*
X-6380193Y73166340D02*
G75*
G03*
X-7380200Y72166349I-34J-999973D01*
G01*
X-6380193Y73166343D02*
X5619814Y73166267D01*
X6619773Y72166260D02*
G75*
G03*
X5619814Y73166267I-1000000J7D01*
G01*
X6619808Y72166260D02*
X6619731Y60166253D01*
X46007457Y92216090D02*
G75*
G03*
X45007450Y91216026I16J-1000023D01*
G01*
X46007457Y92216020D02*
X58007463Y92215943D01*
X59007449Y91215937D02*
G75*
G03*
X58007463Y92215943I-999976J30D01*
G01*
X59007457Y91215937D02*
X59007381Y79215930D01*
X58007374Y78215959D02*
G75*
G03*
X59007381Y79215930I-1J1000008D01*
G01*
X58007374Y78215936D02*
X46007367Y78216012D01*
X45007418Y79216019D02*
G75*
G03*
X46007367Y78216012I999955J-52D01*
G01*
X45007373Y79216019D02*
X45007450Y91216026D01*
X162782792Y135077800D02*
X150782786Y135077876D01*
X150782786Y135077861D02*
G75*
G03*
X149782779Y134077882I-13J-999994D01*
G01*
X149782779Y134077882D02*
X149782703Y122077876D01*
X149782675Y122077876D02*
G75*
G03*
X150782697Y121077869I999998J-9D01*
G01*
X150782697Y121077869D02*
X162782703Y121077792D01*
X162782703Y121077730D02*
G75*
G03*
X163782710Y122077787I-30J1000037D01*
G01*
X163782710Y122077787D02*
X163782787Y134077793D01*
X163782806Y134077793D02*
G75*
G03*
X162782792Y135077800I-1000033J-26D01*
G01*
X-77817489Y111266816D02*
G75*
G03*
X-78817496Y110266824I-8J-999999D01*
G01*
X-77817489Y111266818D02*
X-65817483Y111266742D01*
X-64817552Y110266735D02*
G75*
G03*
X-65817483Y111266742I-999975J32D01*
G01*
X-64817488Y110266735D02*
X-64817565Y98266728D01*
X-65817572Y97266805D02*
G75*
G03*
X-64817565Y98266728I45J999962D01*
G01*
X-65817572Y97266734D02*
X-77817578Y97266810D01*
X-78817484Y98266817D02*
G75*
G03*
X-77817578Y97266810I999957J-50D01*
G01*
X-78817572Y98266817D02*
X-78817496Y110266824D01*
X105632610Y111265651D02*
X93632603Y111265727D01*
X93632603Y111265743D02*
G75*
G03*
X92632597Y110265733I-30J-999976D01*
G01*
X92632597Y110265733D02*
X92632520Y98265726D01*
X92632426Y98265726D02*
G75*
G03*
X93632514Y97265720I1000047J41D01*
G01*
X93632514Y97265720D02*
X105632521Y97265643D01*
X105632521Y97265712D02*
G75*
G03*
X106632528Y98265637I52J999955D01*
G01*
X106632528Y98265637D02*
X106632604Y110265644D01*
X106632557Y110265644D02*
G75*
G03*
X105632610Y111265651I-999984J23D01*
G01*
X64057397Y79215898D02*
G75*
G03*
X65057378Y78215891I999976J-31D01*
G01*
X64057384Y79215898D02*
X64057460Y91215904D01*
X65057467Y92215880D02*
G75*
G03*
X64057460Y91215904I6J-1000013D01*
G01*
X65057467Y92215899D02*
X77057473Y92215822D01*
X78057428Y91215815D02*
G75*
G03*
X77057473Y92215822I-999955J52D01*
G01*
X78057467Y91215815D02*
X78057391Y79215809D01*
X77057384Y78215749D02*
G75*
G03*
X78057391Y79215809I-11J1000018D01*
G01*
X77057384Y78215815D02*
X65057378Y78215891D01*
X96107395Y78215639D02*
G75*
G03*
X97107401Y79215688I-22J1000028D01*
G01*
X96107395Y78215693D02*
X84107388Y78215770D01*
X83107376Y79215777D02*
G75*
G03*
X84107388Y78215770I999997J-10D01*
G01*
X83107394Y79215777D02*
X83107470Y91215783D01*
X84107477Y92215770D02*
G75*
G03*
X83107470Y91215783I-4J-1000003D01*
G01*
X84107477Y92215777D02*
X96107484Y92215701D01*
X97107507Y91215694D02*
G75*
G03*
X96107484Y92215701I-1000034J-27D01*
G01*
X97107478Y91215694D02*
X97107401Y79215688D01*
X84075860Y36065747D02*
G75*
G03*
X83075876Y37065754I-999987J20D01*
G01*
X84075870Y36065747D02*
X84075787Y23065740D01*
X83075780Y22065753D02*
G75*
G03*
X84075787Y23065740I-7J1000014D01*
G01*
X83075780Y22065746D02*
X78075777Y22065778D01*
X77075784Y23065785D02*
G75*
G03*
X78075777Y22065778I999989J-18D01*
G01*
X77075783Y23065785D02*
X77075866Y36065792D01*
X78075873Y37065774D02*
G75*
G03*
X77075866Y36065792I0J-1000007D01*
G01*
X78075873Y37065786D02*
X83075876Y37065754D01*
X-30192585Y92216431D02*
G75*
G03*
X-31192591Y91216511I-42J-999964D01*
G01*
X-30192585Y92216505D02*
X-18192578Y92216428D01*
X-17192666Y91216421D02*
G75*
G03*
X-18192578Y92216428I-999961J46D01*
G01*
X-17192584Y91216421D02*
X-17192660Y79216415D01*
X-18192667Y78216500D02*
G75*
G03*
X-17192660Y79216415I40J999967D01*
G01*
X-18192667Y78216421D02*
X-30192674Y78216497D01*
X-31192597Y79216504D02*
G75*
G03*
X-30192674Y78216497I999970J-37D01*
G01*
X-31192668Y79216504D02*
X-31192591Y91216511D01*
X116444533Y22065534D02*
G75*
G03*
X117444542Y21065527I1000040J33D01*
G01*
X116444548Y22065534D02*
X116444625Y34065540D01*
X117444631Y35065515D02*
G75*
G03*
X116444625Y34065540I-58J-999948D01*
G01*
X117444631Y35065534D02*
X131825889Y35065443D01*
X132825849Y34065436D02*
G75*
G03*
X131825889Y35065443I-999976J31D01*
G01*
X132825883Y34065436D02*
X132825807Y22065430D01*
X131825800Y21065433D02*
G75*
G03*
X132825807Y22065430I-27J1000034D01*
G01*
X131825800Y21065435D02*
X117444542Y21065527D01*
X244744617Y22064717D02*
X244744694Y34064724D01*
X244744637Y34064724D02*
G75*
G03*
X243744700Y35064731I-999964J43D01*
G01*
X243744700Y35064731D02*
X231744693Y35064807D01*
X231744693Y35064754D02*
G75*
G03*
X230744686Y34064813I-20J-999987D01*
G01*
X230744686Y34064813D02*
X230744610Y22064806D01*
X230744606Y22064806D02*
G75*
G03*
X231744604Y21064800I999967J-39D01*
G01*
X231744604Y21064800D02*
X243744611Y21064723D01*
X243744611Y21064723D02*
G75*
G03*
X244744617Y22064717I-38J1000044D01*
G01*
X16144702Y53116189D02*
G75*
G03*
X15144697Y54116196I-1000029J-22D01*
G01*
X16144692Y53116189D02*
X16144615Y41116182D01*
X15144608Y40116125D02*
G75*
G03*
X16144615Y41116182I-35J1000042D01*
G01*
X15144608Y40116188D02*
X3144602Y40116264D01*
X2144570Y41116271D02*
G75*
G03*
X3144602Y40116264I1000003J-4D01*
G01*
X2144608Y41116271D02*
X2144684Y53116278D01*
X3144691Y54116256D02*
G75*
G03*
X2144684Y53116278I-18J-999989D01*
G01*
X3144691Y54116272D02*
X15144697Y54116196D01*
X79344643Y40115780D02*
X91344650Y40115703D01*
X91344650Y40115684D02*
G75*
G03*
X92344656Y41115697I23J999983D01*
G01*
X92344656Y41115697D02*
X92344733Y53115704D01*
X92344817Y53115704D02*
G75*
G03*
X91344739Y54115711I-1000044J-37D01*
G01*
X91344739Y54115711D02*
X79344732Y54115787D01*
X79344732Y54115815D02*
G75*
G03*
X78344725Y53115793I41J-1000048D01*
G01*
X78344725Y53115793D02*
X78344649Y41115786D01*
X78344686Y41115786D02*
G75*
G03*
X79344643Y40115780I999987J-19D01*
G01*
X77057657Y121078376D02*
G75*
G03*
X78057664Y122078332I16J999991D01*
G01*
X77057657Y121078338D02*
X65057650Y121078414D01*
X64057720Y122078421D02*
G75*
G03*
X65057650Y121078414I999953J-54D01*
G01*
X64057656Y122078421D02*
X64057733Y134078428D01*
X65057740Y135078507D02*
G75*
G03*
X64057733Y134078428I33J-1000040D01*
G01*
X65057740Y135078422D02*
X77057746Y135078345D01*
X78057751Y134078338D02*
G75*
G03*
X77057746Y135078345I-999978J29D01*
G01*
X78057740Y134078338D02*
X78057664Y122078332D01*
X95013363Y34065677D02*
X95013287Y22065670D01*
X95013269Y22065670D02*
G75*
G03*
X96013281Y21065663I1000004J-3D01*
G01*
X96013281Y21065663D02*
X108013287Y21065587D01*
X108013287Y21065546D02*
G75*
G03*
X109013294Y22065581I-14J1000021D01*
G01*
X109013294Y22065581D02*
X109013371Y34065588D01*
X109013400Y34065588D02*
G75*
G03*
X108013376Y35065594I-1000027J-21D01*
G01*
X108013376Y35065594D02*
X104132124Y35065619D01*
X103132125Y36065626D02*
G75*
G03*
X104132124Y35065619I1000048J41D01*
G01*
X103132139Y36065626D02*
G75*
G03*
X102132136Y37065633I-999966J41D01*
G01*
X102132136Y37065633D02*
X97132133Y37065665D01*
X97132133Y37065714D02*
G75*
G03*
X96132126Y36065671I40J-1000047D01*
G01*
X96132126Y36065671D02*
X96132125Y35861053D01*
X95572729Y34963395D02*
G75*
G03*
X96132125Y35861053I-440556J897672D01*
G01*
X95572743Y34963367D02*
G75*
G03*
X95013363Y34065677I440630J-897700D01*
G01*
X69819759Y59165850D02*
X81819766Y59165774D01*
X81819766Y59165768D02*
G75*
G03*
X82819772Y60165768I7J999999D01*
G01*
X82819772Y60165768D02*
X82819849Y72165775D01*
X82819888Y72165775D02*
G75*
G03*
X81819855Y73165782I-1000015J-8D01*
G01*
X81819855Y73165782D02*
X69819848Y73165858D01*
X69819848Y73165899D02*
G75*
G03*
X68819841Y72165864I25J-1000032D01*
G01*
X68819841Y72165864D02*
X68819765Y60165857D01*
X68819756Y60165857D02*
G75*
G03*
X69819759Y59165850I1000017J10D01*
G01*
X116157486Y91215573D02*
G75*
G03*
X115157494Y92215580I-1000013J-6D01*
G01*
X116157488Y91215573D02*
X116157412Y79215566D01*
X115157405Y78215528D02*
G75*
G03*
X116157412Y79215566I-32J1000039D01*
G01*
X115157405Y78215572D02*
X103157398Y78215649D01*
X102157355Y79215656D02*
G75*
G03*
X103157398Y78215649I1000018J11D01*
G01*
X102157404Y79215656D02*
X102157481Y91215662D01*
X103157487Y92215659D02*
G75*
G03*
X102157481Y91215662I-14J-999992D01*
G01*
X103157487Y92215656D02*
X115157494Y92215580D01*
X-45480220Y72166591D02*
X-45480297Y60166585D01*
X-45480316Y60166585D02*
G75*
G03*
X-44480303Y59166578I999989J-18D01*
G01*
X-44480303Y59166578D02*
X-32480296Y59166501D01*
X-32480296Y59166429D02*
G75*
G03*
X-31480289Y60166496I-31J1000038D01*
G01*
X-31480289Y60166496D02*
X-31480213Y72166502D01*
X-31480185Y72166502D02*
G75*
G03*
X-32480207Y73166509I-1000042J-35D01*
G01*
X-32480207Y73166509D02*
X-44480214Y73166585D01*
X-44480214Y73166560D02*
G75*
G03*
X-45480220Y72166591I-13J-999993D01*
G01*
X24575831Y35066216D02*
G75*
G03*
X23575824Y34066131I42J-1000049D01*
G01*
X24575831Y35066125D02*
X48482094Y35065973D01*
X49482079Y34065966D02*
G75*
G03*
X48482094Y35065973I-1000006J1D01*
G01*
X49482088Y34065966D02*
X49482012Y22065960D01*
X48482005Y21065928D02*
G75*
G03*
X49482012Y22065960I-32J1000039D01*
G01*
X48482005Y21065966D02*
X24575742Y21066118D01*
X23575724Y22066125D02*
G75*
G03*
X24575742Y21066118I1000049J42D01*
G01*
X23575748Y22066125D02*
X23575824Y34066131D01*
X6907429Y91216268D02*
X6907353Y79216262D01*
X6907361Y79216262D02*
G75*
G03*
X7907347Y78216255I1000012J5D01*
G01*
X7907347Y78216255D02*
X19907353Y78216178D01*
X19907353Y78216180D02*
G75*
G03*
X20907360Y79216173I20J999987D01*
G01*
X20907360Y79216173D02*
X20907437Y91216179D01*
X20907492Y91216179D02*
G75*
G03*
X19907442Y92216186I-1000019J-12D01*
G01*
X19907442Y92216186D02*
X7907436Y92216262D01*
X7907436Y92216311D02*
G75*
G03*
X6907429Y91216268I37J-1000044D01*
G01*
X-47861714Y34066586D02*
X-47861791Y22066579D01*
X-47861822Y22066579D02*
G75*
G03*
X-46861796Y21066572I999995J-12D01*
G01*
X-46861796Y21066572D02*
X-32480539Y21066481D01*
X-32480539Y21066472D02*
G75*
G03*
X-31480532Y22066475I12J999995D01*
G01*
X-31480532Y22066475D02*
X-31480455Y34066481D01*
X-31480406Y34066481D02*
G75*
G03*
X-32480449Y35066488I-1000021J-14D01*
G01*
X-32480449Y35066488D02*
X-46861707Y35066580D01*
X-46861707Y35066554D02*
G75*
G03*
X-47861714Y34066586I-20J-999987D01*
G01*
X60294722Y54115825D02*
G75*
G03*
X59294715Y53115914I-49J-999958D01*
G01*
X60294722Y54115908D02*
X72294728Y54115832D01*
X73294638Y53115825D02*
G75*
G03*
X72294728Y54115832I-999965J42D01*
G01*
X73294722Y53115825D02*
X73294646Y41115819D01*
X72294639Y40115894D02*
G75*
G03*
X73294646Y41115819I34J999973D01*
G01*
X72294639Y40115824D02*
X60294633Y40115901D01*
X59294707Y41115908D02*
G75*
G03*
X60294633Y40115901I999966J-41D01*
G01*
X59294639Y41115908D02*
X59294715Y53115914D01*
X-22924180Y23066421D02*
G75*
G03*
X-21924277Y22066414I999953J-54D01*
G01*
X-22924271Y23066421D02*
X-22924188Y36066428D01*
X-21924181Y37066428D02*
G75*
G03*
X-22924188Y36066428I-46J-999961D01*
G01*
X-21924181Y37066422D02*
X-12167926Y37066360D01*
X-11167934Y36066353D02*
G75*
G03*
X-12167926Y37066360I-999993J14D01*
G01*
X-11167932Y36066353D02*
X-11168014Y23066346D01*
X-12168021Y22066354D02*
G75*
G03*
X-11168014Y23066346I-6J1000013D01*
G01*
X-12168021Y22066352D02*
X-21924277Y22066414D01*
X193645036Y92215111D02*
G75*
G03*
X192645029Y91215086I37J-1000044D01*
G01*
X193645036Y92215080D02*
X205645043Y92215004D01*
X206645110Y91214997D02*
G75*
G03*
X205645043Y92215004I-1000037J-30D01*
G01*
X206645037Y91214997D02*
X206644961Y79214991D01*
X205644954Y78214979D02*
G75*
G03*
X206644961Y79214991I19J999988D01*
G01*
X205644954Y78214996D02*
X193644947Y78215073D01*
X192644979Y79215080D02*
G75*
G03*
X193644947Y78215073I999994J-13D01*
G01*
X192644953Y79215080D02*
X192645029Y91215086D01*
X224694689Y35064852D02*
X212694683Y35064928D01*
X212694683Y35064964D02*
G75*
G03*
X211694676Y34064934I-10J-999997D01*
G01*
X211694676Y34064934D02*
X211694600Y22064928D01*
X211694527Y22064928D02*
G75*
G03*
X212694594Y21064921I1000046J39D01*
G01*
X212694594Y21064921D02*
X224694600Y21064844D01*
X224694600Y21064833D02*
G75*
G03*
X225694607Y22064839I-27J1000034D01*
G01*
X225694607Y22064839D02*
X225694684Y34064845D01*
X225694658Y34064845D02*
G75*
G03*
X224694689Y35064852I-999985J22D01*
G01*
X-94486822Y21066875D02*
X-80105564Y21066784D01*
X-80105564Y21066797D02*
G75*
G03*
X-79105557Y22066778I37J999970D01*
G01*
X-79105557Y22066778D02*
X-79105481Y34066785D01*
X-79105503Y34066785D02*
G75*
G03*
X-80105475Y35066791I-1000024J-18D01*
G01*
X-80105475Y35066791D02*
X-94486733Y35066883D01*
X-94486733Y35066880D02*
G75*
G03*
X-95486740Y34066889I6J-1000013D01*
G01*
X-95486740Y34066889D02*
X-95486816Y22066882D01*
X-95486819Y22066882D02*
G75*
G03*
X-94486822Y21066875I999992J-15D01*
G01*
X181745556Y96265158D02*
X181745638Y109265165D01*
X181745678Y109265165D02*
G75*
G03*
X180745644Y110265172I-1000005J2D01*
G01*
X180745644Y110265172D02*
X174039691Y110265215D01*
X173173671Y110765222D02*
G75*
G03*
X174039691Y110265215I866002J499945D01*
G01*
X173173675Y110765225D02*
G75*
G03*
X172307646Y111265226I-866002J-499958D01*
G01*
X172307646Y111265226D02*
X160307639Y111265303D01*
X160307639Y111265320D02*
G75*
G03*
X159441610Y110765308I34J-1000053D01*
G01*
X158575581Y110265278D02*
G75*
G03*
X159441610Y110765308I-8J999989D01*
G01*
X158575581Y110265313D02*
X151869629Y110265356D01*
X151869629Y110265318D02*
G75*
G03*
X150869622Y109265362I-56J-999951D01*
G01*
X150869622Y109265362D02*
X150869539Y96265355D01*
X150869554Y96265355D02*
G75*
G03*
X151869533Y95265348I1000019J12D01*
G01*
X151869533Y95265348D02*
X156869536Y95265316D01*
X156869536Y95265297D02*
G75*
G03*
X157869543Y96265310I37J999970D01*
G01*
X158869550Y97265297D02*
G75*
G03*
X157869543Y96265310I23J-1000030D01*
G01*
X158869550Y97265304D02*
X173745558Y97265210D01*
X174745616Y96265203D02*
G75*
G03*
X173745558Y97265210I-1000043J-36D01*
G01*
X174745602Y96265203D02*
G75*
G03*
X175745546Y95265196I999971J-36D01*
G01*
X175745546Y95265196D02*
X180745549Y95265164D01*
X180745549Y95265184D02*
G75*
G03*
X181745556Y96265158I24J999983D01*
G01*
X31719828Y73166019D02*
G75*
G03*
X30719821Y72166106I-55J-999952D01*
G01*
X31719828Y73166100D02*
X43719834Y73166024D01*
X44719830Y72166017D02*
G75*
G03*
X43719834Y73166024I-999957J50D01*
G01*
X44719828Y72166017D02*
X44719752Y60166011D01*
X43719745Y59165988D02*
G75*
G03*
X44719752Y60166011I28J999979D01*
G01*
X43719745Y59166017D02*
X31719739Y59166093D01*
X30719799Y60166100D02*
G75*
G03*
X31719739Y59166093I999974J-33D01*
G01*
X30719744Y60166100D02*
X30719821Y72166106D01*
X126969879Y73165468D02*
G75*
G03*
X125969872Y72165500I-6J-1000001D01*
G01*
X126969879Y73165494D02*
X138969886Y73165418D01*
X139969824Y72165411D02*
G75*
G03*
X138969886Y73165418I-999951J56D01*
G01*
X139969880Y72165411D02*
X139969803Y60165405D01*
X138969796Y59165337D02*
G75*
G03*
X139969803Y60165405I-23J1000030D01*
G01*
X138969796Y59165410D02*
X126969790Y59165487D01*
X125969793Y60165494D02*
G75*
G03*
X126969790Y59165487I999980J-27D01*
G01*
X125969796Y60165494D02*
X125969872Y72165500D01*
X25957439Y91216147D02*
X25957363Y79216140D01*
X25957339Y79216140D02*
G75*
G03*
X26957357Y78216133I1000034J27D01*
G01*
X26957357Y78216133D02*
X38957364Y78216057D01*
X38957364Y78216069D02*
G75*
G03*
X39957371Y79216051I9J999998D01*
G01*
X39957371Y79216051D02*
X39957447Y91216058D01*
X39957471Y91216058D02*
G75*
G03*
X38957453Y92216065I-999998J9D01*
G01*
X38957453Y92216065D02*
X26957446Y92216141D01*
X26957446Y92216201D02*
G75*
G03*
X25957439Y91216147I27J-1000034D01*
G01*
X211694797Y53114944D02*
X211694721Y41114938D01*
X211694637Y41114938D02*
G75*
G03*
X212694715Y40114931I1000036J29D01*
G01*
X212694715Y40114931D02*
X224694722Y40114855D01*
X224694722Y40114912D02*
G75*
G03*
X225694728Y41114849I51J999955D01*
G01*
X225694728Y41114849D02*
X225694805Y53114855D01*
X225694768Y53114855D02*
G75*
G03*
X224694811Y54114862I-999995J12D01*
G01*
X224694811Y54114862D02*
X212694804Y54114939D01*
X212694804Y54114943D02*
G75*
G03*
X211694797Y53114944I-31J-999976D01*
G01*
X141257055Y21065375D02*
X155638313Y21065284D01*
X155638313Y21065220D02*
G75*
G03*
X156638320Y22065278I-40J1000047D01*
G01*
X156638320Y22065278D02*
X156638396Y34065284D01*
X156638397Y34065284D02*
G75*
G03*
X155638402Y35065291I-1000024J-17D01*
G01*
X155638402Y35065291D02*
X141257144Y35065383D01*
X141257144Y35065403D02*
G75*
G03*
X140257137Y34065389I29J-1000036D01*
G01*
X140257137Y34065389D02*
X140257061Y22065382D01*
X140257081Y22065382D02*
G75*
G03*
X141257055Y21065375I999992J-15D01*
G01*
X117444664Y40115537D02*
X129444670Y40115461D01*
X129444670Y40115463D02*
G75*
G03*
X130444677Y41115455I3J1000004D01*
G01*
X130444677Y41115455D02*
X130444753Y53115461D01*
X130444774Y53115461D02*
G75*
G03*
X129444759Y54115468I-1000001J6D01*
G01*
X129444759Y54115468D02*
X117444753Y54115545D01*
X117444753Y54115594D02*
G75*
G03*
X116444746Y53115551I20J-1000027D01*
G01*
X116444746Y53115551D02*
X116444669Y41115544D01*
X116444643Y41115544D02*
G75*
G03*
X117444664Y40115537I1000030J23D01*
G01*
X-35955337Y53116520D02*
X-35955413Y41116514D01*
X-35955387Y41116514D02*
G75*
G03*
X-34955419Y40116507I999960J-47D01*
G01*
X-34955419Y40116507D02*
X-22955412Y40116431D01*
X-22955412Y40116445D02*
G75*
G03*
X-21955405Y41116425I-15J1000022D01*
G01*
X-21955405Y41116425D02*
X-21955329Y53116431D01*
X-21955356Y53116431D02*
G75*
G03*
X-22955323Y54116438I-999971J36D01*
G01*
X-22955323Y54116438D02*
X-34955330Y54116514D01*
X-34955330Y54116477D02*
G75*
G03*
X-35955337Y53116520I3J-1000010D01*
G01*
X54244659Y53115946D02*
G75*
G03*
X53244718Y54115953I-999986J21D01*
G01*
X54244712Y53115946D02*
X54244636Y41115940D01*
X53244629Y40116004D02*
G75*
G03*
X54244636Y41115940I44J999963D01*
G01*
X53244629Y40115946D02*
X41244622Y40116022D01*
X40244628Y41116029D02*
G75*
G03*
X41244622Y40116022I1000045J38D01*
G01*
X40244628Y41116029D02*
X40244705Y53116035D01*
X41244712Y54116035D02*
G75*
G03*
X40244705Y53116035I-39J-999968D01*
G01*
X41244712Y54116030D02*
X53244718Y54115953D01*
X-94486580Y59166896D02*
X-77724071Y59166789D01*
X-77724071Y59166804D02*
G75*
G03*
X-76724064Y60166783I44J999963D01*
G01*
X-76724064Y60166783D02*
X-76723987Y72166790D01*
X-76723997Y72166790D02*
G75*
G03*
X-77723981Y73166797I-1000030J-23D01*
G01*
X-77723981Y73166797D02*
X-94486491Y73166904D01*
X-94486491Y73166907D02*
G75*
G03*
X-95486497Y72166909I-6J-1000000D01*
G01*
X-95486497Y72166909D02*
X-95486574Y60166903D01*
X-95486498Y60166903D02*
G75*
G03*
X-94486580Y59166896I999971J-36D01*
G01*
X-12142581Y91216389D02*
X-12142658Y79216383D01*
X-12142618Y79216383D02*
G75*
G03*
X-11142663Y78216376I999991J-16D01*
G01*
X-11142663Y78216376D02*
X857343Y78216300D01*
X857343Y78216290D02*
G75*
G03*
X1857350Y79216294I30J999977D01*
G01*
X1857350Y79216294D02*
X1857426Y91216300D01*
X1857513Y91216300D02*
G75*
G03*
X857432Y92216307I-1000040J-33D01*
G01*
X857432Y92216307D02*
X-11142574Y92216383D01*
X-11142574Y92216321D02*
G75*
G03*
X-12142581Y91216389I-53J-999954D01*
G01*
X-55005347Y53116641D02*
X-55005423Y41116635D01*
X-55005466Y41116635D02*
G75*
G03*
X-54005429Y40116628I1000039J32D01*
G01*
X-54005429Y40116628D02*
X-42005422Y40116552D01*
X-42005422Y40116556D02*
G75*
G03*
X-41005416Y41116546I-5J1000011D01*
G01*
X-41005416Y41116546D02*
X-41005339Y53116552D01*
X-41005335Y53116552D02*
G75*
G03*
X-42005333Y54116559I-999992J15D01*
G01*
X-42005333Y54116559D02*
X-54005340Y54116636D01*
X-54005340Y54116687D02*
G75*
G03*
X-55005347Y53116641I13J-1000020D01*
G01*
X154257443Y91215330D02*
G75*
G03*
X153257514Y92215337I-999970J37D01*
G01*
X154257509Y91215330D02*
X154257432Y79215324D01*
X153257425Y78215408D02*
G75*
G03*
X154257432Y79215324I48J999959D01*
G01*
X153257425Y78215330D02*
X141257419Y78215406D01*
X140257512Y79215413D02*
G75*
G03*
X141257419Y78215406I999961J-46D01*
G01*
X140257425Y79215413D02*
X140257501Y91215420D01*
X141257508Y92215339D02*
G75*
G03*
X140257501Y91215420I-35J-999972D01*
G01*
X141257508Y92215414D02*
X153257514Y92215337D01*
X-49242595Y92216642D02*
G75*
G03*
X-50242602Y91216632I-32J-999975D01*
G01*
X-49242595Y92216626D02*
X-37242588Y92216550D01*
X-36242644Y91216543D02*
G75*
G03*
X-37242588Y92216550I-999983J24D01*
G01*
X-36242594Y91216543D02*
X-36242671Y79216536D01*
X-37242677Y78216611D02*
G75*
G03*
X-36242671Y79216536I50J999956D01*
G01*
X-37242677Y78216542D02*
X-49242684Y78216618D01*
X-50242776Y79216625D02*
G75*
G03*
X-49242684Y78216618I1000049J42D01*
G01*
X-50242678Y79216625D02*
X-50242602Y91216632D01*
X206644679Y34064966D02*
G75*
G03*
X205644679Y35064973I-1000006J1D01*
G01*
X206644673Y34064966D02*
X206644597Y22064960D01*
X205644590Y21064943D02*
G75*
G03*
X206644597Y22064960I-17J1000024D01*
G01*
X205644590Y21064966D02*
X193644584Y21065042D01*
X192644548Y22065049D02*
G75*
G03*
X193644584Y21065042I1000025J18D01*
G01*
X192644589Y22065049D02*
X192644666Y34065055D01*
X193644673Y35065074D02*
G75*
G03*
X192644666Y34065055I0J-1000007D01*
G01*
X193644673Y35065050D02*
X205644679Y35064973D01*
X111682607Y110265612D02*
X111682531Y98265605D01*
X111682604Y98265605D02*
G75*
G03*
X112682525Y97265598I999969J-38D01*
G01*
X112682525Y97265598D02*
X124682531Y97265522D01*
X124682531Y97265602D02*
G75*
G03*
X125682538Y98265516I42J999965D01*
G01*
X125682538Y98265516D02*
X125682614Y110265523D01*
X125682535Y110265523D02*
G75*
G03*
X124682620Y111265529I-999962J44D01*
G01*
X124682620Y111265529D02*
X112682614Y111265606D01*
X112682614Y111265533D02*
G75*
G03*
X111682607Y110265612I-41J-999966D01*
G01*
X164069650Y34065237D02*
X164069574Y22065231D01*
X164069530Y22065231D02*
G75*
G03*
X165069568Y21065224I1000043J36D01*
G01*
X165069568Y21065224D02*
X179450826Y21065132D01*
X179450826Y21065207D02*
G75*
G03*
X180450833Y22065126I47J999960D01*
G01*
X180450833Y22065126D02*
X180450909Y34065133D01*
X180450846Y34065133D02*
G75*
G03*
X179450915Y35065140I-999973J34D01*
G01*
X179450915Y35065140D02*
X165069657Y35065231D01*
X165069657Y35065290D02*
G75*
G03*
X164069650Y34065237I16J-1000023D01*
G01*
X87582578Y110265765D02*
G75*
G03*
X86582600Y111265772I-1000005J2D01*
G01*
X87582594Y110265765D02*
X87582518Y98265759D01*
X86582511Y97265722D02*
G75*
G03*
X87582518Y98265759I-38J1000045D01*
G01*
X86582511Y97265764D02*
X74582504Y97265841D01*
X73582447Y98265848D02*
G75*
G03*
X74582504Y97265841I1000026J19D01*
G01*
X73582510Y98265848D02*
X73582586Y110265854D01*
X74582593Y111265854D02*
G75*
G03*
X73582586Y110265854I-20J-999987D01*
G01*
X74582593Y111265848D02*
X86582600Y111265772D01*
X143732541Y97265392D02*
G75*
G03*
X144732548Y98265395I32J999975D01*
G01*
X143732541Y97265401D02*
X131732535Y97265477D01*
X130732583Y98265484D02*
G75*
G03*
X131732535Y97265477I999990J-17D01*
G01*
X130732541Y98265484D02*
X130732617Y110265490D01*
X131732624Y111265423D02*
G75*
G03*
X130732617Y110265490I-51J-999956D01*
G01*
X131732624Y111265485D02*
X143732631Y111265408D01*
X144732714Y110265401D02*
G75*
G03*
X143732631Y111265408I-1000041J-34D01*
G01*
X144732625Y110265401D02*
X144732548Y98265395D01*
X-69292612Y91216753D02*
X-69292688Y79216746D01*
X-69292754Y79216746D02*
G75*
G03*
X-68292694Y78216740I1000027J21D01*
G01*
X-68292694Y78216740D02*
X-56292688Y78216663D01*
X-56292688Y78216621D02*
G75*
G03*
X-55292681Y79216657I-39J1000046D01*
G01*
X-55292681Y79216657D02*
X-55292605Y91216664D01*
X-55292623Y91216664D02*
G75*
G03*
X-56292599Y92216671I-1000004J3D01*
G01*
X-56292599Y92216671D02*
X-68292605Y92216747D01*
X-68292605Y92216752D02*
G75*
G03*
X-69292612Y91216753I-22J-999985D01*
G01*
X211694958Y79214959D02*
G75*
G03*
X212694957Y78214952I1000015J8D01*
G01*
X211694963Y79214959D02*
X211695040Y91214965D01*
X212695047Y92215000D02*
G75*
G03*
X211695040Y91214965I26J-1000033D01*
G01*
X212695047Y92214959D02*
X224695053Y92214883D01*
X225695089Y91214876D02*
G75*
G03*
X224695053Y92214883I-1000016J-9D01*
G01*
X225695047Y91214876D02*
X225694971Y79214869D01*
X224694964Y78214869D02*
G75*
G03*
X225694971Y79214869I9J999998D01*
G01*
X224694964Y78214875D02*
X212694957Y78214952D01*
X121207333Y79215534D02*
G75*
G03*
X122207409Y78215527I1000040J33D01*
G01*
X121207414Y79215534D02*
X121207491Y91215541D01*
X122207498Y92215549D02*
G75*
G03*
X121207491Y91215541I-25J-999982D01*
G01*
X122207498Y92215535D02*
X134207504Y92215459D01*
X135207465Y91215452D02*
G75*
G03*
X134207504Y92215459I-999992J15D01*
G01*
X135207498Y91215452D02*
X135207422Y79215445D01*
X134207415Y78215418D02*
G75*
G03*
X135207422Y79215445I-42J1000049D01*
G01*
X134207415Y78215451D02*
X122207409Y78215527D01*
X83107743Y134078306D02*
X83107667Y122078300D01*
X83107699Y122078300D02*
G75*
G03*
X84107661Y121078293I999974J-33D01*
G01*
X84107661Y121078293D02*
X96107667Y121078217D01*
X96107667Y121078266D02*
G75*
G03*
X97107674Y122078211I6J1000001D01*
G01*
X97107674Y122078211D02*
X97107751Y134078217D01*
X97107730Y134078217D02*
G75*
G03*
X96107756Y135078224I-999957J50D01*
G01*
X96107756Y135078224D02*
X84107750Y135078301D01*
X84107750Y135078297D02*
G75*
G03*
X83107743Y134078306I23J-1000030D01*
G01*
X111682758Y134078125D02*
X111682682Y122078118D01*
X111682717Y122078118D02*
G75*
G03*
X112682676Y121078111I999956J-51D01*
G01*
X112682676Y121078111D02*
X124682683Y121078035D01*
X124682683Y121078050D02*
G75*
G03*
X125682690Y122078029I-10J1000017D01*
G01*
X125682690Y122078029D02*
X125682766Y134078035D01*
X125682748Y134078035D02*
G75*
G03*
X124682772Y135078042I-999975J32D01*
G01*
X124682772Y135078042D02*
X112682765Y135078119D01*
X112682765Y135078182D02*
G75*
G03*
X111682758Y134078125I8J-1000015D01*
G01*
X230744936Y79214837D02*
G75*
G03*
X231744968Y78214830I1000037J30D01*
G01*
X230744974Y79214837D02*
X230745050Y91214844D01*
X231745057Y92214890D02*
G75*
G03*
X230745050Y91214844I16J-1000023D01*
G01*
X231745057Y92214838D02*
X243745063Y92214762D01*
X244745068Y91214755D02*
G75*
G03*
X243745063Y92214762I-999995J12D01*
G01*
X244745058Y91214755D02*
X244744981Y79214748D01*
X243744974Y78214759D02*
G75*
G03*
X244744981Y79214748I-1J1000008D01*
G01*
X243744974Y78214754D02*
X231744968Y78214830D01*
X25957712Y134078670D02*
X25957636Y122078664D01*
X25957663Y122078664D02*
G75*
G03*
X26957630Y121078657I1000010J3D01*
G01*
X26957630Y121078657D02*
X38957636Y121078580D01*
X38957636Y121078597D02*
G75*
G03*
X39957643Y122078574I37J999970D01*
G01*
X39957643Y122078574D02*
X39957720Y134078581D01*
X39957694Y134078581D02*
G75*
G03*
X38957725Y135078588I-1000021J-14D01*
G01*
X38957725Y135078588D02*
X26957719Y135078664D01*
X26957719Y135078628D02*
G75*
G03*
X25957712Y134078670I-46J-999961D01*
G01*
X-96867348Y135079495D02*
G75*
G03*
X-97867355Y134079458I21J-1000028D01*
G01*
X-96867348Y135079452D02*
X-84867341Y135079376D01*
X-83867318Y134079369D02*
G75*
G03*
X-84867341Y135079376I-1000009J-2D01*
G01*
X-83867347Y134079369D02*
X-83867424Y122079362D01*
X-84867430Y121079364D02*
G75*
G03*
X-83867424Y122079362I3J1000003D01*
G01*
X-84867430Y121079368D02*
X-96867437Y121079445D01*
X-97867449Y122079451D02*
G75*
G03*
X-96867437Y121079445I1000022J16D01*
G01*
X-97867431Y122079451D02*
X-97867355Y134079458D01*
X-2617303Y134078852D02*
X-2617380Y122078845D01*
X-2617456Y122078845D02*
G75*
G03*
X-1617386Y121078838I1000029J22D01*
G01*
X-1617386Y121078838D02*
X10382621Y121078762D01*
X10382621Y121078812D02*
G75*
G03*
X11382628Y122078756I52J999955D01*
G01*
X11382628Y122078756D02*
X11382704Y134078763D01*
X11382676Y134078763D02*
G75*
G03*
X10382710Y135078770I-1000003J4D01*
G01*
X10382710Y135078770D02*
X-1617296Y135078846D01*
X-1617296Y135078843D02*
G75*
G03*
X-2617303Y134078852I-31J-999976D01*
G01*
X106919862Y72165621D02*
X106919786Y60165615D01*
X106919814Y60165615D02*
G75*
G03*
X107919780Y59165608I999959J-48D01*
G01*
X107919780Y59165608D02*
X119919786Y59165532D01*
X119919786Y59165547D02*
G75*
G03*
X120919793Y60165526I-13J1000020D01*
G01*
X120919793Y60165526D02*
X120919869Y72165532D01*
X120919845Y72165532D02*
G75*
G03*
X119919875Y73165539I-999972J35D01*
G01*
X119919875Y73165539D02*
X107919869Y73165616D01*
X107919869Y73165578D02*
G75*
G03*
X106919862Y72165621I4J-1000011D01*
G01*
X63769909Y72165896D02*
G75*
G03*
X62769844Y73165903I-1000036J-29D01*
G01*
X63769839Y72165896D02*
X63769762Y60165890D01*
X62769755Y59165878D02*
G75*
G03*
X63769762Y60165890I18J999989D01*
G01*
X62769755Y59165895D02*
X50769749Y59165972D01*
X49769778Y60165979D02*
G75*
G03*
X50769749Y59165972I999995J-12D01*
G01*
X49769755Y60165979D02*
X49769831Y72165985D01*
X50769838Y73166009D02*
G75*
G03*
X49769831Y72165985I35J-1000042D01*
G01*
X50769838Y73165979D02*
X62769844Y73165903D01*
X-16905408Y41116393D02*
G75*
G03*
X-15905408Y40116386I999981J-26D01*
G01*
X-16905403Y41116393D02*
X-16905326Y53116399D01*
X-15905319Y54116366D02*
G75*
G03*
X-16905326Y53116399I-8J-999999D01*
G01*
X-15905319Y54116393D02*
X-3905313Y54116317D01*
X-2905277Y53116310D02*
G75*
G03*
X-3905313Y54116317I-1000050J-43D01*
G01*
X-2905319Y53116310D02*
X-2905395Y41116303D01*
X-3905402Y40116235D02*
G75*
G03*
X-2905395Y41116303I-25J1000032D01*
G01*
X-3905402Y40116309D02*
X-15905408Y40116386D01*
X250957098Y174836435D02*
X242943141Y174836486D01*
X242943141Y174836505D02*
G75*
G03*
X241943135Y173836323I32J-1000038D01*
G01*
X241943135Y173836323D02*
X241943330Y172637201D01*
X233543416Y172635832D02*
G75*
G03*
X241943330Y172637201I4199957J635D01*
G01*
X233543330Y172635832D02*
X233543135Y173836715D01*
X233543158Y173836715D02*
G75*
G03*
X232543141Y174836552I-999985J-148D01*
G01*
X232543141Y174836552D02*
X167621141Y174836966D01*
X167621141Y174837005D02*
G75*
G03*
X166621135Y173836803I32J-1000038D01*
G01*
X166621135Y173836803D02*
X166621330Y172637680D01*
X158221416Y172636312D02*
G75*
G03*
X166621330Y172637680I4199957J655D01*
G01*
X158221330Y172636312D02*
X158221135Y173837195D01*
X158221138Y173837195D02*
G75*
G03*
X157221141Y174837032I-999965J-128D01*
G01*
X157221141Y174837032D02*
X92299141Y174837445D01*
X92299141Y174837505D02*
G75*
G03*
X91299135Y173837282I32J-1000038D01*
G01*
X91299135Y173837282D02*
X91299330Y172638160D01*
X82899336Y172636791D02*
G75*
G03*
X91299330Y172638160I4199997J686D01*
G01*
X82899330Y172636791D02*
X82899135Y173837674D01*
X82899217Y173837674D02*
G75*
G03*
X81899141Y174837511I-1000044J-207D01*
G01*
X81899141Y174837511D02*
X80936817Y174837518D01*
X80936817Y174837518D02*
X80936772Y167637512D01*
X80936806Y167637512D02*
G75*
G03*
X82936759Y165637500I1999967J-45D01*
G01*
X82936759Y165637500D02*
X243961280Y165636475D01*
X247743281Y161854451D02*
G75*
G03*
X243961280Y165636475I-3782008J16D01*
G01*
X247743256Y161854451D02*
X247743111Y139077261D01*
X246743105Y138077229D02*
G75*
G03*
X247743111Y139077261I-32J1000038D01*
G01*
X246743105Y138077267D02*
X-99869582Y138079473D01*
X-100869581Y139079479D02*
G75*
G03*
X-99869582Y138079473I1000004J-2D01*
G01*
X-100869576Y139079479D02*
X-100869431Y161856670D01*
X-97087407Y165638651D02*
G75*
G03*
X-100869431Y161856670I-20J-3782004D01*
G01*
X-97087407Y165638646D02*
X63936312Y165637621D01*
X63936312Y165637715D02*
G75*
G03*
X65936325Y167637608I61J1999952D01*
G01*
X65936325Y167637608D02*
X65936371Y174837613D01*
X65936371Y174837613D02*
X64974444Y174837619D01*
X64974444Y174837702D02*
G75*
G03*
X63974438Y173837456I29J-1000035D01*
G01*
X63974438Y173837456D02*
X63974633Y172638335D01*
X55574633Y172636966D02*
G75*
G03*
X63974633Y172638335I4200000J681D01*
G01*
X55574633Y172636966D02*
X55574437Y173837848D01*
X55574491Y173837848D02*
G75*
G03*
X54574444Y174837685I-1000018J-181D01*
G01*
X54574444Y174837685D02*
X-10347556Y174838099D01*
X-10347556Y174838102D02*
G75*
G03*
X-11347562Y173837936I29J-1000035D01*
G01*
X-11347562Y173837936D02*
X-11347367Y172638814D01*
X-19747367Y172637445D02*
G75*
G03*
X-11347367Y172638814I4200000J682D01*
G01*
X-19747367Y172637445D02*
X-19747563Y173838328D01*
X-19747529Y173838328D02*
G75*
G03*
X-20747556Y174838165I-999998J-161D01*
G01*
X-20747556Y174838165D02*
X-85669556Y174838578D01*
X-85669556Y174838602D02*
G75*
G03*
X-86669562Y173838415I29J-1000035D01*
G01*
X-86669562Y173838415D02*
X-86669367Y172639293D01*
X-95069367Y172637924D02*
G75*
G03*
X-86669367Y172639293I4200000J683D01*
G01*
X-95069367Y172637924D02*
X-95069563Y173838807D01*
X-95069550Y173838807D02*
G75*
G03*
X-96069556Y174838644I-999977J-140D01*
G01*
X-96069556Y174838644D02*
X-104065350Y174838695D01*
X-104065350Y174838696D02*
G75*
G03*
X-105065356Y173838532I-7J-999999D01*
G01*
X-105065356Y173838532D02*
X-105038308Y7871944D01*
X-105038288Y7871944D02*
G75*
G03*
X-104038314Y6872106I999961J123D01*
G01*
X-104038314Y6872106D02*
X-96069880Y6872056D01*
X-96069880Y6872114D02*
G75*
G03*
X-95069874Y7872219I53J999953D01*
G01*
X-95069874Y7872219D02*
X-95070395Y11071341D01*
X-86670399Y11072710D02*
G75*
G03*
X-95070395Y11071341I-4199998J-683D01*
G01*
X-86670396Y11072710D02*
X-86669874Y7871827D01*
X-86669804Y7871827D02*
G75*
G03*
X-85669880Y6871990I999977J140D01*
G01*
X-85669880Y6871990D02*
X-20747880Y6871576D01*
X-20747880Y6871614D02*
G75*
G03*
X-19747874Y7871739I53J999953D01*
G01*
X-19747874Y7871739D02*
X-19748396Y11070861D01*
X-11348398Y11072230D02*
G75*
G03*
X-19748396Y11070861I-4199999J-683D01*
G01*
X-11348396Y11072230D02*
X-11347874Y7871347D01*
X-11347784Y7871347D02*
G75*
G03*
X-10347880Y6871510I999957J120D01*
G01*
X-10347880Y6871510D02*
X68236468Y6871010D01*
X68236468Y6870966D02*
G75*
G03*
X69236474Y7871173I5J1000001D01*
G01*
X69236474Y7871173D02*
X69235953Y11070295D01*
X77635993Y11071664D02*
G75*
G03*
X69235953Y11070295I-4200020J-697D01*
G01*
X77635953Y11071664D02*
X77636475Y7870781D01*
X77636450Y7870781D02*
G75*
G03*
X78636468Y6870944I1000023J186D01*
G01*
X78636468Y6870944D02*
X157220817Y6870443D01*
X157220817Y6870417D02*
G75*
G03*
X158220823Y7870606I-44J1000050D01*
G01*
X158220823Y7870606D02*
X158220302Y11069729D01*
X166620244Y11071098D02*
G75*
G03*
X158220302Y11069729I-4199971J-731D01*
G01*
X166620302Y11071098D02*
X166620823Y7870214D01*
X166620883Y7870214D02*
G75*
G03*
X167620817Y6870377I999990J153D01*
G01*
X167620817Y6870377D02*
X232542817Y6869964D01*
X232542817Y6870017D02*
G75*
G03*
X233542823Y7870127I56J999950D01*
G01*
X233542823Y7870127D02*
X233542302Y11069249D01*
X241942244Y11070618D02*
G75*
G03*
X233542302Y11069249I-4199971J-651D01*
G01*
X241942302Y11070618D02*
X241942823Y7869735D01*
X241942804Y7869735D02*
G75*
G03*
X242942817Y6869898I999969J132D01*
G01*
X242942817Y6869898D02*
X250984133Y6869846D01*
X250984133Y6869900D02*
G75*
G03*
X251984140Y7870009I40J999967D01*
G01*
X251984140Y7870009D02*
X251957092Y173836598D01*
X251957041Y173836598D02*
G75*
G03*
X250957098Y174836435I-999968J-131D01*
G01*
X179168000Y90915986D02*
X179460893Y90208879D01*
X178460893Y91208879D02*
X179168000Y90915986D01*
X179460893Y90208879D02*
X179460893Y85209289D01*
X179960589Y84343439D02*
X179460893Y85209289D01*
X179960589Y84343439D02*
X180460285Y83477589D01*
X180460285Y83477589D02*
X180460285Y68064981D01*
X180460285Y68064981D02*
X179960596Y67199135D01*
X179460908Y66333260D02*
X179960596Y67199135D01*
X179460908Y66333260D02*
X179461054Y61332894D01*
X179168181Y60625779D02*
X178461083Y60332865D01*
X179461054Y61332894D02*
X179168181Y60625779D01*
X178461083Y60332865D02*
X165460908Y60332484D01*
X164753792Y60625357D02*
X164460878Y61332455D01*
X165460908Y60332484D02*
X164753792Y60625357D01*
X164460878Y61332455D02*
X164460732Y66332846D01*
X164460732Y66332846D02*
X165432749Y67332483D01*
X165432749Y67332483D02*
X165460882Y67332879D01*
X166167992Y67625787D02*
X165460882Y67332879D01*
X166460871Y68332909D02*
X166167992Y67625787D01*
X166460871Y68332909D02*
X166460435Y83208909D01*
X165460664Y84208880D02*
X166460435Y83208909D01*
X165460664Y84208880D02*
X164460893Y85208879D01*
X164460893Y85208879D02*
X164460893Y90208879D01*
X164753786Y90915986D02*
X165460893Y91208879D01*
X164460893Y90208879D02*
X164753786Y90915986D01*
X165460893Y91208879D02*
X178460893Y91208879D01*
X159045085Y60253888D02*
X158045425Y59253591D01*
X158045425Y59253591D02*
X146045940Y59249512D01*
X145338734Y59542165D02*
X145045600Y60249172D01*
X146045940Y59249512D02*
X145338734Y59542165D01*
X145045600Y60249172D02*
X145041522Y72249171D01*
X145334175Y72956378D02*
X146041182Y73249511D01*
X145041522Y72249171D02*
X145334175Y72956378D01*
X146041182Y73249511D02*
X158041181Y73253590D01*
X158748402Y72960922D02*
X159041521Y72253887D01*
X158041181Y73253590D02*
X158748402Y72960922D01*
X159041521Y72253887D02*
X159045085Y60253888D01*
M02*
