%TF.GenerationSoftware,KiCad,Pcbnew,7.0.5*%
%TF.CreationDate,2023-07-12T21:57:34+02:00*%
%TF.ProjectId,Strata_Universal,53747261-7461-45f5-956e-697665727361,rev?*%
%TF.SameCoordinates,Original*%
%TF.FileFunction,Soldermask,Bot*%
%TF.FilePolarity,Negative*%
%FSLAX46Y46*%
G04 Gerber Fmt 4.6, Leading zero omitted, Abs format (unit mm)*
G04 Created by KiCad (PCBNEW 7.0.5) date 2023-07-12 21:57:34*
%MOMM*%
%LPD*%
G01*
G04 APERTURE LIST*
%ADD10C,2.000000*%
G04 APERTURE END LIST*
D10*
X-49763066Y142996348D02*
G75*
G03*
X-49763066Y142996348I-1200000J0D01*
G01*
X-27775844Y111682566D02*
G75*
G03*
X-27775844Y111682566I-1200000J0D01*
G01*
X-28877620Y54662882D02*
G75*
G03*
X-28877620Y54662882I-1200000J0D01*
G01*
X19322374Y54686956D02*
G75*
G03*
X19322374Y54686956I-1200000J0D01*
G01*
X41236922Y143041799D02*
G75*
G03*
X41236922Y143041799I-1200000J0D01*
G01*
X150236909Y143096240D02*
G75*
G03*
X150236909Y143096240I-1200000J0D01*
G01*
X159322357Y54756880D02*
G75*
G03*
X159322357Y54756880I-1200000J0D01*
G01*
X206822351Y54780604D02*
G75*
G03*
X206822351Y54780604I-1200000J0D01*
G01*
X234236898Y143138194D02*
G75*
G03*
X234236898Y143138194I-1200000J0D01*
G01*
X288236892Y143165165D02*
G75*
G03*
X288236892Y143165165I-1200000J0D01*
G01*
X288274359Y68149174D02*
G75*
G03*
X288274359Y68149174I-1200000J0D01*
G01*
X291192771Y83466697D02*
G75*
G03*
X291192771Y83466697I-3000000J0D01*
G01*
X-14832144Y80440344D02*
G75*
G03*
X-15332092Y80940344I-499975J25D01*
G01*
X-14832092Y80440344D02*
X-14832092Y67440344D01*
X-15332092Y66940342D02*
G75*
G03*
X-14832092Y67440344I-27J500027D01*
G01*
X-15332092Y66940344D02*
X-18300342Y66940344D01*
X-18300342Y66940344D02*
X-18300342Y65440344D01*
X-18800342Y64940392D02*
G75*
G03*
X-18300342Y65440344I23J499977D01*
G01*
X-18800342Y64940344D02*
X-24800342Y64940344D01*
X-25300344Y65440344D02*
G75*
G03*
X-24800342Y64940344I500025J25D01*
G01*
X-25300342Y65440344D02*
X-25300342Y66940344D01*
X-25300342Y66940344D02*
X-42176342Y66940344D01*
X-42176342Y66940344D02*
X-42176342Y65440344D01*
X-42676342Y64940392D02*
G75*
G03*
X-42176342Y65440344I23J499977D01*
G01*
X-42676342Y64940344D02*
X-48676342Y64940344D01*
X-49176344Y65440344D02*
G75*
G03*
X-48676342Y64940344I500025J25D01*
G01*
X-49176342Y65440344D02*
X-49176342Y66940344D01*
X-49176342Y66940344D02*
X-49763342Y66940344D01*
X-50263344Y67440344D02*
G75*
G03*
X-49763342Y66940344I500025J25D01*
G01*
X-50263342Y67440344D02*
X-50263342Y80440344D01*
X-49763342Y80940392D02*
G75*
G03*
X-50263342Y80440344I23J-500023D01*
G01*
X-49763342Y80940344D02*
X-15996229Y80940344D01*
X-15627068Y80940344D02*
G75*
G03*
X-15996229Y80940344I-184580J-982794D01*
G01*
X-15627068Y80940344D02*
X-15332092Y80940344D01*
X251867856Y61390344D02*
G75*
G03*
X251367908Y61890344I-499975J25D01*
G01*
X251867908Y61390344D02*
X251867908Y48390344D01*
X251367908Y47890342D02*
G75*
G03*
X251867908Y48390344I-27J500027D01*
G01*
X251367908Y47890344D02*
X238367908Y47890344D01*
X237867856Y48390344D02*
G75*
G03*
X238367908Y47890344I500025J25D01*
G01*
X237867908Y48390344D02*
X237867908Y61390344D01*
X238367908Y61890342D02*
G75*
G03*
X237867908Y61390344I-27J-499973D01*
G01*
X238367908Y61890344D02*
X251367908Y61890344D01*
X289467908Y105040342D02*
G75*
G03*
X289967908Y105540344I-27J500027D01*
G01*
X289467908Y105040344D02*
X276467908Y105040344D01*
X275967856Y105540344D02*
G75*
G03*
X276467908Y105040344I500025J25D01*
G01*
X275967908Y105540344D02*
X275967908Y118540344D01*
X276467908Y119040342D02*
G75*
G03*
X275967908Y118540344I-27J-499973D01*
G01*
X276467908Y119040344D02*
X289467908Y119040344D01*
X289967856Y118540344D02*
G75*
G03*
X289467908Y119040344I-499975J25D01*
G01*
X289967908Y118540344D02*
X289967908Y105540344D01*
X-33882144Y61390344D02*
G75*
G03*
X-34382092Y61890344I-499975J25D01*
G01*
X-33882092Y61390344D02*
X-33882092Y48390344D01*
X-34382092Y47890342D02*
G75*
G03*
X-33882092Y48390344I-27J500027D01*
G01*
X-34382092Y47890344D02*
X-49763342Y47890344D01*
X-50263344Y48390344D02*
G75*
G03*
X-49763342Y47890344I500025J25D01*
G01*
X-50263342Y48390344D02*
X-50263342Y61390344D01*
X-49763342Y61890392D02*
G75*
G03*
X-50263342Y61390344I23J-500023D01*
G01*
X-49763342Y61890344D02*
X-34382092Y61890344D01*
X94705356Y61390344D02*
G75*
G03*
X94205408Y61890344I-499975J25D01*
G01*
X94705408Y61390344D02*
X94705408Y48390344D01*
X94205408Y47890342D02*
G75*
G03*
X94705408Y48390344I-27J500027D01*
G01*
X94205408Y47890344D02*
X69299158Y47890344D01*
X68799156Y48390344D02*
G75*
G03*
X69299158Y47890344I500025J25D01*
G01*
X68799158Y48390344D02*
X68799158Y61390344D01*
X69299158Y61890392D02*
G75*
G03*
X68799158Y61390344I23J-500023D01*
G01*
X69299158Y61890344D02*
X94205408Y61890344D01*
X201861656Y61390344D02*
G75*
G03*
X201361658Y61890344I-499975J25D01*
G01*
X201861658Y61390344D02*
X201861658Y48390344D01*
X201361658Y47890392D02*
G75*
G03*
X201861658Y48390344I23J499977D01*
G01*
X201361658Y47890344D02*
X185980408Y47890344D01*
X185480356Y48390344D02*
G75*
G03*
X185980408Y47890344I500025J25D01*
G01*
X185480408Y48390344D02*
X185480408Y61390344D01*
X185980408Y61890342D02*
G75*
G03*
X185480408Y61390344I-27J-499973D01*
G01*
X185980408Y61890344D02*
X201361658Y61890344D01*
X156617856Y80440344D02*
G75*
G03*
X156117908Y80940344I-499975J25D01*
G01*
X156617908Y80440344D02*
X156617908Y67440344D01*
X156117908Y66940342D02*
G75*
G03*
X156617908Y67440344I-27J500027D01*
G01*
X156117908Y66940344D02*
X143117908Y66940344D01*
X142617856Y67440344D02*
G75*
G03*
X143117908Y66940344I500025J25D01*
G01*
X142617908Y67440344D02*
X142617908Y80440344D01*
X143117908Y80940342D02*
G75*
G03*
X142617908Y80440344I-27J-499973D01*
G01*
X143117908Y80940344D02*
X156117908Y80940344D01*
X80417856Y80440344D02*
G75*
G03*
X79917908Y80940344I-499975J25D01*
G01*
X80417908Y80440344D02*
X80417908Y67440344D01*
X79917908Y66940342D02*
G75*
G03*
X80417908Y67440344I-27J500027D01*
G01*
X79917908Y66940344D02*
X66917908Y66940344D01*
X66417856Y67440344D02*
G75*
G03*
X66917908Y66940344I500025J25D01*
G01*
X66417908Y67440344D02*
X66417908Y80440344D01*
X66917908Y80940342D02*
G75*
G03*
X66417908Y80440344I-27J-499973D01*
G01*
X66917908Y80940344D02*
X79917908Y80940344D01*
X4217856Y80440344D02*
G75*
G03*
X3717908Y80940344I-499975J25D01*
G01*
X4217908Y80440344D02*
X4217908Y67440344D01*
X3717908Y66940342D02*
G75*
G03*
X4217908Y67440344I-27J500027D01*
G01*
X3717908Y66940344D02*
X-9282092Y66940344D01*
X-9782144Y67440344D02*
G75*
G03*
X-9282092Y66940344I500025J25D01*
G01*
X-9782092Y67440344D02*
X-9782092Y80440344D01*
X-9282092Y80940342D02*
G75*
G03*
X-9782092Y80440344I-27J-499973D01*
G01*
X-9282092Y80940344D02*
X3717908Y80940344D01*
X-5307144Y99490344D02*
G75*
G03*
X-5807092Y99990344I-499975J25D01*
G01*
X-5307092Y99490344D02*
X-5307092Y86490344D01*
X-5807092Y85990342D02*
G75*
G03*
X-5307092Y86490344I-27J500027D01*
G01*
X-5807092Y85990344D02*
X-18807092Y85990344D01*
X-19307144Y86490344D02*
G75*
G03*
X-18807092Y85990344I500025J25D01*
G01*
X-19307092Y86490344D02*
X-19307092Y99490344D01*
X-18807092Y99990342D02*
G75*
G03*
X-19307092Y99490344I-27J-499973D01*
G01*
X-18807092Y99990344D02*
X-5807092Y99990344D01*
X32792856Y99490344D02*
G75*
G03*
X32292908Y99990344I-499975J25D01*
G01*
X32792908Y99490344D02*
X32792908Y86490344D01*
X32292908Y85990342D02*
G75*
G03*
X32792908Y86490344I-27J500027D01*
G01*
X32292908Y85990344D02*
X19292908Y85990344D01*
X18792856Y86490344D02*
G75*
G03*
X19292908Y85990344I500025J25D01*
G01*
X18792908Y86490344D02*
X18792908Y99490344D01*
X19292908Y99990342D02*
G75*
G03*
X18792908Y99490344I-27J-499973D01*
G01*
X19292908Y99990344D02*
X32292908Y99990344D01*
X70392908Y85990342D02*
G75*
G03*
X70892908Y86490344I-27J500027D01*
G01*
X70392908Y85990344D02*
X57392908Y85990344D01*
X56892856Y86490344D02*
G75*
G03*
X57392908Y85990344I500025J25D01*
G01*
X56892908Y86490344D02*
X56892908Y99490344D01*
X57392908Y99990342D02*
G75*
G03*
X56892908Y99490344I-27J-499973D01*
G01*
X57392908Y99990344D02*
X70392908Y99990344D01*
X70892856Y99490344D02*
G75*
G03*
X70392908Y99990344I-499975J25D01*
G01*
X70892908Y99490344D02*
X70892908Y86490344D01*
X108992856Y99490344D02*
G75*
G03*
X108492908Y99990344I-499975J25D01*
G01*
X108992908Y99490344D02*
X108992908Y86490344D01*
X108492908Y85990342D02*
G75*
G03*
X108992908Y86490344I-27J500027D01*
G01*
X108492908Y85990344D02*
X95492908Y85990344D01*
X94992856Y86490344D02*
G75*
G03*
X95492908Y85990344I500025J25D01*
G01*
X94992908Y86490344D02*
X94992908Y99490344D01*
X95492908Y99990342D02*
G75*
G03*
X94992908Y99490344I-27J-499973D01*
G01*
X95492908Y99990344D02*
X108492908Y99990344D01*
X147092856Y99490344D02*
G75*
G03*
X146592908Y99990344I-499975J25D01*
G01*
X147092908Y99490344D02*
X147092908Y86490344D01*
X146592908Y85990342D02*
G75*
G03*
X147092908Y86490344I-27J500027D01*
G01*
X146592908Y85990344D02*
X133592908Y85990344D01*
X133092856Y86490344D02*
G75*
G03*
X133592908Y85990344I500025J25D01*
G01*
X133092908Y86490344D02*
X133092908Y99490344D01*
X133592908Y99990342D02*
G75*
G03*
X133092908Y99490344I-27J-499973D01*
G01*
X133592908Y99990344D02*
X146592908Y99990344D01*
X184692908Y85990342D02*
G75*
G03*
X185192908Y86490344I-27J500027D01*
G01*
X184692908Y85990344D02*
X171692908Y85990344D01*
X171192856Y86490344D02*
G75*
G03*
X171692908Y85990344I500025J25D01*
G01*
X171192908Y86490344D02*
X171192908Y99490344D01*
X171692908Y99990342D02*
G75*
G03*
X171192908Y99490344I-27J-499973D01*
G01*
X171692908Y99990344D02*
X184692908Y99990344D01*
X185192856Y99490344D02*
G75*
G03*
X184692908Y99990344I-499975J25D01*
G01*
X185192908Y99490344D02*
X185192908Y86490344D01*
X219968356Y122590344D02*
G75*
G03*
X220468408Y122090344I500025J25D01*
G01*
X219968408Y122590344D02*
X219968408Y124090344D01*
X219968408Y124090344D02*
X203092408Y124090344D01*
X203092408Y124090344D02*
X203092408Y122590344D01*
X202592408Y122090342D02*
G75*
G03*
X203092408Y122590344I-27J500027D01*
G01*
X202592408Y122090344D02*
X196592408Y122090344D01*
X196092356Y122590344D02*
G75*
G03*
X196592408Y122090344I500025J25D01*
G01*
X196092408Y122590344D02*
X196092408Y124090344D01*
X196092408Y124090344D02*
X195505408Y124090344D01*
X195005356Y124590344D02*
G75*
G03*
X195505408Y124090344I500025J25D01*
G01*
X195005408Y124590344D02*
X195005408Y137590344D01*
X195505408Y138090342D02*
G75*
G03*
X195005408Y137590344I-27J-499973D01*
G01*
X195505408Y138090344D02*
X227555408Y138090344D01*
X228055356Y137590344D02*
G75*
G03*
X227555408Y138090344I-499975J25D01*
G01*
X228055408Y137590344D02*
X228055408Y124590344D01*
X227555408Y124090342D02*
G75*
G03*
X228055408Y124590344I-27J500027D01*
G01*
X227555408Y124090344D02*
X226968408Y124090344D01*
X226968408Y124090344D02*
X226968408Y122590344D01*
X226468408Y122090342D02*
G75*
G03*
X226968408Y122590344I-27J500027D01*
G01*
X226468408Y122090344D02*
X220468408Y122090344D01*
X132805356Y137590344D02*
G75*
G03*
X132305408Y138090344I-499975J25D01*
G01*
X132805408Y137590344D02*
X132805408Y124590344D01*
X132305408Y124090342D02*
G75*
G03*
X132805408Y124590344I-27J500027D01*
G01*
X132305408Y124090344D02*
X119305408Y124090344D01*
X118805356Y124590344D02*
G75*
G03*
X119305408Y124090344I500025J25D01*
G01*
X118805408Y124590344D02*
X118805408Y137590344D01*
X119305408Y138090342D02*
G75*
G03*
X118805408Y137590344I-27J-499973D01*
G01*
X119305408Y138090344D02*
X132305408Y138090344D01*
X56105408Y124090342D02*
G75*
G03*
X56605408Y124590344I-27J500027D01*
G01*
X56105408Y124090344D02*
X43105408Y124090344D01*
X42605356Y124590344D02*
G75*
G03*
X43105408Y124090344I500025J25D01*
G01*
X42605408Y124590344D02*
X42605408Y137590344D01*
X43105408Y138090342D02*
G75*
G03*
X42605408Y137590344I-27J-499973D01*
G01*
X43105408Y138090344D02*
X56105408Y138090344D01*
X56605356Y137590344D02*
G75*
G03*
X56105408Y138090344I-499975J25D01*
G01*
X56605408Y137590344D02*
X56605408Y124590344D01*
X-20094592Y124090342D02*
G75*
G03*
X-19594592Y124590344I-27J500027D01*
G01*
X-20094592Y124090344D02*
X-33094592Y124090344D01*
X-33594644Y124590344D02*
G75*
G03*
X-33094592Y124090344I500025J25D01*
G01*
X-33594592Y124590344D02*
X-33594592Y137590344D01*
X-33094592Y138090342D02*
G75*
G03*
X-33594592Y137590344I-27J-499973D01*
G01*
X-33094592Y138090344D02*
X-20094592Y138090344D01*
X-19594644Y137590344D02*
G75*
G03*
X-20094592Y138090344I-499975J25D01*
G01*
X-19594592Y137590344D02*
X-19594592Y124590344D01*
X-544644Y137590344D02*
G75*
G03*
X-1044592Y138090344I-499975J25D01*
G01*
X-544592Y137590344D02*
X-544592Y124590344D01*
X-1044592Y124090342D02*
G75*
G03*
X-544592Y124590344I-27J500027D01*
G01*
X-1044592Y124090344D02*
X-14044592Y124090344D01*
X-14544644Y124590344D02*
G75*
G03*
X-14044592Y124090344I500025J25D01*
G01*
X-14544592Y124590344D02*
X-14544592Y137590344D01*
X-14044592Y138090342D02*
G75*
G03*
X-14544592Y137590344I-27J-499973D01*
G01*
X-14044592Y138090344D02*
X-1044592Y138090344D01*
X75655356Y137590344D02*
G75*
G03*
X75155408Y138090344I-499975J25D01*
G01*
X75655408Y137590344D02*
X75655408Y124590344D01*
X75155408Y124090342D02*
G75*
G03*
X75655408Y124590344I-27J500027D01*
G01*
X75155408Y124090344D02*
X62155408Y124090344D01*
X61655356Y124590344D02*
G75*
G03*
X62155408Y124090344I500025J25D01*
G01*
X61655408Y124590344D02*
X61655408Y137590344D01*
X62155408Y138090342D02*
G75*
G03*
X61655408Y137590344I-27J-499973D01*
G01*
X62155408Y138090344D02*
X75155408Y138090344D01*
X151355408Y124090342D02*
G75*
G03*
X151855408Y124590344I-27J500027D01*
G01*
X151355408Y124090344D02*
X138355408Y124090344D01*
X137855356Y124590344D02*
G75*
G03*
X138355408Y124090344I500025J25D01*
G01*
X137855408Y124590344D02*
X137855408Y137590344D01*
X138355408Y138090342D02*
G75*
G03*
X137855408Y137590344I-27J-499973D01*
G01*
X138355408Y138090344D02*
X151355408Y138090344D01*
X151855356Y137590344D02*
G75*
G03*
X151355408Y138090344I-499975J25D01*
G01*
X151855408Y137590344D02*
X151855408Y124590344D01*
X224174158Y119040344D02*
X209792908Y119040344D01*
X209792908Y119040342D02*
G75*
G03*
X209292908Y118540344I-27J-499973D01*
G01*
X209292908Y118540344D02*
X209292908Y105540344D01*
X209292856Y105540344D02*
G75*
G03*
X209792908Y105040344I500025J25D01*
G01*
X209792908Y105040344D02*
X211674158Y105040344D01*
X211674158Y105040344D02*
X211674158Y99990344D01*
X211674158Y99990344D02*
X190742908Y99990344D01*
X190742908Y99990342D02*
G75*
G03*
X190242908Y99490344I-27J-499973D01*
G01*
X190242908Y99490344D02*
X190242908Y86490344D01*
X190242856Y86490344D02*
G75*
G03*
X190742908Y85990344I500025J25D01*
G01*
X190742908Y85990344D02*
X193711158Y85990344D01*
X193711158Y85990344D02*
X193711158Y84490344D01*
X193711156Y84490344D02*
G75*
G03*
X194211158Y83990344I500025J25D01*
G01*
X194211158Y83990344D02*
X200211158Y83990344D01*
X200211158Y83990392D02*
G75*
G03*
X200711158Y84490344I23J499977D01*
G01*
X200711158Y84490344D02*
X200711158Y85990344D01*
X200711158Y85990344D02*
X217587158Y85990344D01*
X217587158Y85990344D02*
X217587158Y84490344D01*
X217587156Y84490344D02*
G75*
G03*
X218087158Y83990344I500025J25D01*
G01*
X218087158Y83990344D02*
X224174158Y83990344D01*
X224174158Y83990392D02*
G75*
G03*
X224674158Y84490344I23J499977D01*
G01*
X224674158Y84490344D02*
X224674158Y95515344D01*
X224674158Y95515344D02*
X225174158Y95515344D01*
X225174158Y95515392D02*
G75*
G03*
X225674158Y96015344I23J499977D01*
G01*
X225674158Y96015344D02*
X225674158Y109015344D01*
X225674156Y109015344D02*
G75*
G03*
X225174158Y109515344I-499975J25D01*
G01*
X225174158Y109515344D02*
X224674158Y109515344D01*
X224674158Y109515344D02*
X224674158Y118540344D01*
X224674156Y118540344D02*
G75*
G03*
X224174158Y119040344I-499975J25D01*
G01*
X166142856Y99490344D02*
G75*
G03*
X165642908Y99990344I-499975J25D01*
G01*
X166142908Y99490344D02*
X166142908Y86490344D01*
X165642908Y85990342D02*
G75*
G03*
X166142908Y86490344I-27J500027D01*
G01*
X165642908Y85990344D02*
X152642908Y85990344D01*
X152142856Y86490344D02*
G75*
G03*
X152642908Y85990344I500025J25D01*
G01*
X152142908Y86490344D02*
X152142908Y99490344D01*
X152642908Y99990342D02*
G75*
G03*
X152142908Y99490344I-27J-499973D01*
G01*
X152642908Y99990344D02*
X165642908Y99990344D01*
X127542908Y85990342D02*
G75*
G03*
X128042908Y86490344I-27J500027D01*
G01*
X127542908Y85990344D02*
X114542908Y85990344D01*
X114042856Y86490344D02*
G75*
G03*
X114542908Y85990344I500025J25D01*
G01*
X114042908Y86490344D02*
X114042908Y99490344D01*
X114542908Y99990342D02*
G75*
G03*
X114042908Y99490344I-27J-499973D01*
G01*
X114542908Y99990344D02*
X127542908Y99990344D01*
X128042856Y99490344D02*
G75*
G03*
X127542908Y99990344I-499975J25D01*
G01*
X128042908Y99490344D02*
X128042908Y86490344D01*
X89942856Y99490344D02*
G75*
G03*
X89442908Y99990344I-499975J25D01*
G01*
X89942908Y99490344D02*
X89942908Y86490344D01*
X89442908Y85990342D02*
G75*
G03*
X89942908Y86490344I-27J500027D01*
G01*
X89442908Y85990344D02*
X76442908Y85990344D01*
X75942856Y86490344D02*
G75*
G03*
X76442908Y85990344I500025J25D01*
G01*
X75942908Y86490344D02*
X75942908Y99490344D01*
X76442908Y99990342D02*
G75*
G03*
X75942908Y99490344I-27J-499973D01*
G01*
X76442908Y99990344D02*
X89442908Y99990344D01*
X51842856Y99490344D02*
G75*
G03*
X51342908Y99990344I-499975J25D01*
G01*
X51842908Y99490344D02*
X51842908Y86490344D01*
X51342908Y85990342D02*
G75*
G03*
X51842908Y86490344I-27J500027D01*
G01*
X51342908Y85990344D02*
X38342908Y85990344D01*
X37842856Y86490344D02*
G75*
G03*
X38342908Y85990344I500025J25D01*
G01*
X37842908Y86490344D02*
X37842908Y99490344D01*
X38342908Y99990342D02*
G75*
G03*
X37842908Y99490344I-27J-499973D01*
G01*
X38342908Y99990344D02*
X51342908Y99990344D01*
X13742856Y99490344D02*
G75*
G03*
X13242908Y99990344I-499975J25D01*
G01*
X13742908Y99490344D02*
X13742908Y86490344D01*
X13242908Y85990342D02*
G75*
G03*
X13742908Y86490344I-27J500027D01*
G01*
X13242908Y85990344D02*
X242908Y85990344D01*
X-257144Y86490344D02*
G75*
G03*
X242908Y85990344I500025J25D01*
G01*
X-257092Y86490344D02*
X-257092Y99490344D01*
X242908Y99990342D02*
G75*
G03*
X-257092Y99490344I-27J-499973D01*
G01*
X242908Y99990344D02*
X13242908Y99990344D01*
X-31500844Y99490344D02*
G75*
G03*
X-32000842Y99990344I-499975J25D01*
G01*
X-31500842Y99490344D02*
X-31500842Y86490344D01*
X-32000842Y85990392D02*
G75*
G03*
X-31500842Y86490344I23J499977D01*
G01*
X-32000842Y85990344D02*
X-45000842Y85990344D01*
X-45500844Y86490344D02*
G75*
G03*
X-45000842Y85990344I500025J25D01*
G01*
X-45500842Y86490344D02*
X-45500842Y99490344D01*
X-45000842Y99990392D02*
G75*
G03*
X-45500842Y99490344I23J-500023D01*
G01*
X-45000842Y99990344D02*
X-32000842Y99990344D01*
X23267856Y80440344D02*
G75*
G03*
X22767908Y80940344I-499975J25D01*
G01*
X23267908Y80440344D02*
X23267908Y67440344D01*
X22767908Y66940342D02*
G75*
G03*
X23267908Y67440344I-27J500027D01*
G01*
X22767908Y66940344D02*
X9767908Y66940344D01*
X9267856Y67440344D02*
G75*
G03*
X9767908Y66940344I500025J25D01*
G01*
X9267908Y67440344D02*
X9267908Y80440344D01*
X9767908Y80940342D02*
G75*
G03*
X9267908Y80440344I-27J-499973D01*
G01*
X9767908Y80940344D02*
X22767908Y80940344D01*
X99467856Y80440344D02*
G75*
G03*
X98967908Y80940344I-499975J25D01*
G01*
X99467908Y80440344D02*
X99467908Y67440344D01*
X98967908Y66940342D02*
G75*
G03*
X99467908Y67440344I-27J500027D01*
G01*
X98967908Y66940344D02*
X85967908Y66940344D01*
X85467856Y67440344D02*
G75*
G03*
X85967908Y66940344I500025J25D01*
G01*
X85467908Y67440344D02*
X85467908Y80440344D01*
X85967908Y80940342D02*
G75*
G03*
X85467908Y80440344I-27J-499973D01*
G01*
X85967908Y80940344D02*
X98967908Y80940344D01*
X175667856Y80440344D02*
G75*
G03*
X175167908Y80940344I-499975J25D01*
G01*
X175667908Y80440344D02*
X175667908Y67440344D01*
X175167908Y66940342D02*
G75*
G03*
X175667908Y67440344I-27J500027D01*
G01*
X175167908Y66940344D02*
X162167908Y66940344D01*
X161667856Y67440344D02*
G75*
G03*
X162167908Y66940344I500025J25D01*
G01*
X161667908Y67440344D02*
X161667908Y80440344D01*
X162167908Y80940342D02*
G75*
G03*
X161667908Y80440344I-27J-499973D01*
G01*
X162167908Y80940344D02*
X175167908Y80940344D01*
X178049156Y61390344D02*
G75*
G03*
X177549158Y61890344I-499975J25D01*
G01*
X178049158Y61390344D02*
X178049158Y48390344D01*
X177549158Y47890392D02*
G75*
G03*
X178049158Y48390344I23J499977D01*
G01*
X177549158Y47890344D02*
X162167908Y47890344D01*
X161667856Y48390344D02*
G75*
G03*
X162167908Y47890344I500025J25D01*
G01*
X161667908Y48390344D02*
X161667908Y61390344D01*
X162167908Y61890342D02*
G75*
G03*
X161667908Y61390344I-27J-499973D01*
G01*
X162167908Y61890344D02*
X177549158Y61890344D01*
X34055356Y63390344D02*
G75*
G03*
X33555408Y63890344I-499975J25D01*
G01*
X34055408Y63390344D02*
X34055408Y49390344D01*
X33555408Y48890342D02*
G75*
G03*
X34055408Y49390344I-27J500027D01*
G01*
X33555408Y48890344D02*
X22799158Y48890344D01*
X22299156Y49390344D02*
G75*
G03*
X22799158Y48890344I500025J25D01*
G01*
X22299158Y49390344D02*
X22299158Y63390344D01*
X22799158Y63890392D02*
G75*
G03*
X22299158Y63390344I23J-500023D01*
G01*
X22799158Y63890344D02*
X33555408Y63890344D01*
X251867856Y137590344D02*
G75*
G03*
X251367908Y138090344I-499975J25D01*
G01*
X251867908Y137590344D02*
X251867908Y124590344D01*
X251367908Y124090342D02*
G75*
G03*
X251867908Y124590344I-27J500027D01*
G01*
X251367908Y124090344D02*
X238367908Y124090344D01*
X237867856Y124590344D02*
G75*
G03*
X238367908Y124090344I500025J25D01*
G01*
X237867908Y124590344D02*
X237867908Y137590344D01*
X238367908Y138090342D02*
G75*
G03*
X237867908Y137590344I-27J-499973D01*
G01*
X238367908Y138090344D02*
X251367908Y138090344D01*
X270417908Y105040342D02*
G75*
G03*
X270917908Y105540344I-27J500027D01*
G01*
X270417908Y105040344D02*
X257417908Y105040344D01*
X256917856Y105540344D02*
G75*
G03*
X257417908Y105040344I500025J25D01*
G01*
X256917908Y105540344D02*
X256917908Y118540344D01*
X257417908Y119040342D02*
G75*
G03*
X256917908Y118540344I-27J-499973D01*
G01*
X257417908Y119040344D02*
X270417908Y119040344D01*
X270917856Y118540344D02*
G75*
G03*
X270417908Y119040344I-499975J25D01*
G01*
X270917908Y118540344D02*
X270917908Y105540344D01*
X270917856Y61390344D02*
G75*
G03*
X270417908Y61890344I-499975J25D01*
G01*
X270917908Y61390344D02*
X270917908Y48390344D01*
X270417908Y47890342D02*
G75*
G03*
X270917908Y48390344I-27J500027D01*
G01*
X270417908Y47890344D02*
X257417908Y47890344D01*
X256917856Y48390344D02*
G75*
G03*
X257417908Y47890344I500025J25D01*
G01*
X256917908Y48390344D02*
X256917908Y61390344D01*
X257417908Y61890342D02*
G75*
G03*
X256917908Y61390344I-27J-499973D01*
G01*
X257417908Y61890344D02*
X270417908Y61890344D01*
X270917856Y80440344D02*
G75*
G03*
X270417908Y80940344I-499975J25D01*
G01*
X270917908Y80440344D02*
X270917908Y67440344D01*
X270417908Y66940342D02*
G75*
G03*
X270917908Y67440344I-27J500027D01*
G01*
X270417908Y66940344D02*
X257417908Y66940344D01*
X256917856Y67440344D02*
G75*
G03*
X257417908Y66940344I500025J25D01*
G01*
X256917908Y67440344D02*
X256917908Y80440344D01*
X257417908Y80940342D02*
G75*
G03*
X256917908Y80440344I-27J-499973D01*
G01*
X257417908Y80940344D02*
X270417908Y80940344D01*
X289967856Y137590344D02*
G75*
G03*
X289467908Y138090344I-499975J25D01*
G01*
X289967908Y137590344D02*
X289967908Y124590344D01*
X289467908Y124090342D02*
G75*
G03*
X289967908Y124590344I-27J500027D01*
G01*
X289467908Y124090344D02*
X276467908Y124090344D01*
X275967856Y124590344D02*
G75*
G03*
X276467908Y124090344I500025J25D01*
G01*
X275967908Y124590344D02*
X275967908Y137590344D01*
X276467908Y138090342D02*
G75*
G03*
X275967908Y137590344I-27J-499973D01*
G01*
X276467908Y138090344D02*
X289467908Y138090344D01*
X-10069644Y61390344D02*
G75*
G03*
X-10569592Y61890344I-499975J25D01*
G01*
X-10069592Y61390344D02*
X-10069592Y48390344D01*
X-10569592Y47890342D02*
G75*
G03*
X-10069592Y48390344I-27J500027D01*
G01*
X-10569592Y47890344D02*
X-25950842Y47890344D01*
X-26450844Y48390344D02*
G75*
G03*
X-25950842Y47890344I500025J25D01*
G01*
X-26450842Y48390344D02*
X-26450842Y61390344D01*
X-25950842Y61890392D02*
G75*
G03*
X-26450842Y61390344I23J-500023D01*
G01*
X-25950842Y61890344D02*
X-10569592Y61890344D01*
X129299156Y63390344D02*
G75*
G03*
X128799158Y63890344I-499975J25D01*
G01*
X129299158Y63390344D02*
X129299158Y49390344D01*
X128799158Y48890392D02*
G75*
G03*
X129299158Y49390344I23J499977D01*
G01*
X128799158Y48890344D02*
X122799158Y48890344D01*
X122299156Y49390344D02*
G75*
G03*
X122799158Y48890344I500025J25D01*
G01*
X122299158Y49390344D02*
X122299158Y63390344D01*
X122799158Y63890392D02*
G75*
G03*
X122299158Y63390344I23J-500023D01*
G01*
X122799158Y63890344D02*
X128799158Y63890344D01*
X225674156Y61390344D02*
G75*
G03*
X225174158Y61890344I-499975J25D01*
G01*
X225674158Y61390344D02*
X225674158Y48390344D01*
X225174158Y47890392D02*
G75*
G03*
X225674158Y48390344I23J499977D01*
G01*
X225174158Y47890344D02*
X209792908Y47890344D01*
X209292856Y48390344D02*
G75*
G03*
X209792908Y47890344I500025J25D01*
G01*
X209292908Y48390344D02*
X209292908Y61390344D01*
X209792908Y61890342D02*
G75*
G03*
X209292908Y61390344I-27J-499973D01*
G01*
X209792908Y61890344D02*
X225174158Y61890344D01*
X137067908Y66940342D02*
G75*
G03*
X137567908Y67440344I-27J500027D01*
G01*
X137067908Y66940344D02*
X124067908Y66940344D01*
X123567856Y67440344D02*
G75*
G03*
X124067908Y66940344I500025J25D01*
G01*
X123567908Y67440344D02*
X123567908Y80440344D01*
X124067908Y80940342D02*
G75*
G03*
X123567908Y80440344I-27J-499973D01*
G01*
X124067908Y80940344D02*
X137067908Y80940344D01*
X137567856Y80440344D02*
G75*
G03*
X137067908Y80940344I-499975J25D01*
G01*
X137567908Y80440344D02*
X137567908Y67440344D01*
X60867908Y66940342D02*
G75*
G03*
X61367908Y67440344I-27J500027D01*
G01*
X60867908Y66940344D02*
X47867908Y66940344D01*
X47367856Y67440344D02*
G75*
G03*
X47867908Y66940344I500025J25D01*
G01*
X47367908Y67440344D02*
X47367908Y80440344D01*
X47867908Y80940342D02*
G75*
G03*
X47367908Y80440344I-27J-499973D01*
G01*
X47867908Y80940344D02*
X60867908Y80940344D01*
X61367856Y80440344D02*
G75*
G03*
X60867908Y80940344I-499975J25D01*
G01*
X61367908Y80440344D02*
X61367908Y67440344D01*
X-10569592Y105040342D02*
G75*
G03*
X-10069592Y105540344I-27J500027D01*
G01*
X-10569592Y105040344D02*
X-23569592Y105040344D01*
X-24069644Y105540344D02*
G75*
G03*
X-23569592Y105040344I500025J25D01*
G01*
X-24069592Y105540344D02*
X-24069592Y118540344D01*
X-23569592Y119040342D02*
G75*
G03*
X-24069592Y118540344I-27J-499973D01*
G01*
X-23569592Y119040344D02*
X-10569592Y119040344D01*
X-10069644Y118540344D02*
G75*
G03*
X-10569592Y119040344I-499975J25D01*
G01*
X-10069592Y118540344D02*
X-10069592Y105540344D01*
X28030356Y118540344D02*
G75*
G03*
X27530408Y119040344I-499975J25D01*
G01*
X28030408Y118540344D02*
X28030408Y105540344D01*
X27530408Y105040342D02*
G75*
G03*
X28030408Y105540344I-27J500027D01*
G01*
X27530408Y105040344D02*
X14530408Y105040344D01*
X14030356Y105540344D02*
G75*
G03*
X14530408Y105040344I500025J25D01*
G01*
X14030408Y105540344D02*
X14030408Y118540344D01*
X14530408Y119040342D02*
G75*
G03*
X14030408Y118540344I-27J-499973D01*
G01*
X14530408Y119040344D02*
X27530408Y119040344D01*
X65630408Y105040342D02*
G75*
G03*
X66130408Y105540344I-27J500027D01*
G01*
X65630408Y105040344D02*
X52630408Y105040344D01*
X52130356Y105540344D02*
G75*
G03*
X52630408Y105040344I500025J25D01*
G01*
X52130408Y105540344D02*
X52130408Y118540344D01*
X52630408Y119040342D02*
G75*
G03*
X52130408Y118540344I-27J-499973D01*
G01*
X52630408Y119040344D02*
X65630408Y119040344D01*
X66130356Y118540344D02*
G75*
G03*
X65630408Y119040344I-499975J25D01*
G01*
X66130408Y118540344D02*
X66130408Y105540344D01*
X104230356Y118540344D02*
G75*
G03*
X103730408Y119040344I-499975J25D01*
G01*
X104230408Y118540344D02*
X104230408Y105540344D01*
X103730408Y105040342D02*
G75*
G03*
X104230408Y105540344I-27J500027D01*
G01*
X103730408Y105040344D02*
X90730408Y105040344D01*
X90230356Y105540344D02*
G75*
G03*
X90730408Y105040344I500025J25D01*
G01*
X90230408Y105540344D02*
X90230408Y118540344D01*
X90730408Y119040342D02*
G75*
G03*
X90230408Y118540344I-27J-499973D01*
G01*
X90730408Y119040344D02*
X103730408Y119040344D01*
X142330356Y118540344D02*
G75*
G03*
X141830408Y119040344I-499975J25D01*
G01*
X142330408Y118540344D02*
X142330408Y105540344D01*
X141830408Y105040342D02*
G75*
G03*
X142330408Y105540344I-27J500027D01*
G01*
X141830408Y105040344D02*
X128830408Y105040344D01*
X128330356Y105540344D02*
G75*
G03*
X128830408Y105040344I500025J25D01*
G01*
X128330408Y105540344D02*
X128330408Y118540344D01*
X128830408Y119040342D02*
G75*
G03*
X128330408Y118540344I-27J-499973D01*
G01*
X128830408Y119040344D02*
X141830408Y119040344D01*
X180430356Y118540344D02*
G75*
G03*
X179930408Y119040344I-499975J25D01*
G01*
X180430408Y118540344D02*
X180430408Y105540344D01*
X179930408Y105040342D02*
G75*
G03*
X180430408Y105540344I-27J500027D01*
G01*
X179930408Y105040344D02*
X166930408Y105040344D01*
X166430356Y105540344D02*
G75*
G03*
X166930408Y105040344I500025J25D01*
G01*
X166430408Y105540344D02*
X166430408Y118540344D01*
X166930408Y119040342D02*
G75*
G03*
X166430408Y118540344I-27J-499973D01*
G01*
X166930408Y119040344D02*
X179930408Y119040344D01*
X189955356Y137590344D02*
G75*
G03*
X189455408Y138090344I-499975J25D01*
G01*
X189955408Y137590344D02*
X189955408Y124590344D01*
X189455408Y124090342D02*
G75*
G03*
X189955408Y124590344I-27J500027D01*
G01*
X189455408Y124090344D02*
X176455408Y124090344D01*
X175955356Y124590344D02*
G75*
G03*
X176455408Y124090344I500025J25D01*
G01*
X175955408Y124590344D02*
X175955408Y137590344D01*
X176455408Y138090342D02*
G75*
G03*
X175955408Y137590344I-27J-499973D01*
G01*
X176455408Y138090344D02*
X189455408Y138090344D01*
X113755356Y137590344D02*
G75*
G03*
X113255408Y138090344I-499975J25D01*
G01*
X113755408Y137590344D02*
X113755408Y124590344D01*
X113255408Y124090342D02*
G75*
G03*
X113755408Y124590344I-27J500027D01*
G01*
X113255408Y124090344D02*
X100255408Y124090344D01*
X99755356Y124590344D02*
G75*
G03*
X100255408Y124090344I500025J25D01*
G01*
X99755408Y124590344D02*
X99755408Y137590344D01*
X100255408Y138090342D02*
G75*
G03*
X99755408Y137590344I-27J-499973D01*
G01*
X100255408Y138090344D02*
X113255408Y138090344D01*
X37555356Y137590344D02*
G75*
G03*
X37055408Y138090344I-499975J25D01*
G01*
X37555408Y137590344D02*
X37555408Y124590344D01*
X37055408Y124090342D02*
G75*
G03*
X37555408Y124590344I-27J500027D01*
G01*
X37055408Y124090344D02*
X24055408Y124090344D01*
X23555356Y124590344D02*
G75*
G03*
X24055408Y124090344I500025J25D01*
G01*
X23555408Y124590344D02*
X23555408Y137590344D01*
X24055408Y138090342D02*
G75*
G03*
X23555408Y137590344I-27J-499973D01*
G01*
X24055408Y138090344D02*
X37055408Y138090344D01*
X-38644644Y137590344D02*
G75*
G03*
X-39144592Y138090344I-499975J25D01*
G01*
X-38644592Y137590344D02*
X-38644592Y124590344D01*
X-39144592Y124090342D02*
G75*
G03*
X-38644592Y124590344I-27J500027D01*
G01*
X-39144592Y124090344D02*
X-52144592Y124090344D01*
X-52644644Y124590344D02*
G75*
G03*
X-52144592Y124090344I500025J25D01*
G01*
X-52644592Y124590344D02*
X-52644592Y137590344D01*
X-52144592Y138090342D02*
G75*
G03*
X-52644592Y137590344I-27J-499973D01*
G01*
X-52144592Y138090344D02*
X-39144592Y138090344D01*
X18505356Y137590344D02*
G75*
G03*
X18005408Y138090344I-499975J25D01*
G01*
X18505408Y137590344D02*
X18505408Y124590344D01*
X18005408Y124090342D02*
G75*
G03*
X18505408Y124590344I-27J500027D01*
G01*
X18005408Y124090344D02*
X5005408Y124090344D01*
X4505356Y124590344D02*
G75*
G03*
X5005408Y124090344I500025J25D01*
G01*
X4505408Y124590344D02*
X4505408Y137590344D01*
X5005408Y138090342D02*
G75*
G03*
X4505408Y137590344I-27J-499973D01*
G01*
X5005408Y138090344D02*
X18005408Y138090344D01*
X94705356Y137590344D02*
G75*
G03*
X94205408Y138090344I-499975J25D01*
G01*
X94705408Y137590344D02*
X94705408Y124590344D01*
X94205408Y124090342D02*
G75*
G03*
X94705408Y124590344I-27J500027D01*
G01*
X94205408Y124090344D02*
X81205408Y124090344D01*
X80705356Y124590344D02*
G75*
G03*
X81205408Y124090344I500025J25D01*
G01*
X80705408Y124590344D02*
X80705408Y137590344D01*
X81205408Y138090342D02*
G75*
G03*
X80705408Y137590344I-27J-499973D01*
G01*
X81205408Y138090344D02*
X94205408Y138090344D01*
X170905356Y137590344D02*
G75*
G03*
X170405408Y138090344I-499975J25D01*
G01*
X170905408Y137590344D02*
X170905408Y124590344D01*
X170405408Y124090342D02*
G75*
G03*
X170905408Y124590344I-27J500027D01*
G01*
X170405408Y124090344D02*
X157405408Y124090344D01*
X156905356Y124590344D02*
G75*
G03*
X157405408Y124090344I500025J25D01*
G01*
X156905408Y124590344D02*
X156905408Y137590344D01*
X157405408Y138090342D02*
G75*
G03*
X156905408Y137590344I-27J-499973D01*
G01*
X157405408Y138090344D02*
X170405408Y138090344D01*
X199480356Y118540344D02*
G75*
G03*
X198980408Y119040344I-499975J25D01*
G01*
X199480408Y118540344D02*
X199480408Y105540344D01*
X198980408Y105040342D02*
G75*
G03*
X199480408Y105540344I-27J500027D01*
G01*
X198980408Y105040344D02*
X185980408Y105040344D01*
X185480356Y105540344D02*
G75*
G03*
X185980408Y105040344I500025J25D01*
G01*
X185480408Y105540344D02*
X185480408Y118540344D01*
X185980408Y119040342D02*
G75*
G03*
X185480408Y118540344I-27J-499973D01*
G01*
X185980408Y119040344D02*
X198980408Y119040344D01*
X161380356Y118540344D02*
G75*
G03*
X160880408Y119040344I-499975J25D01*
G01*
X161380408Y118540344D02*
X161380408Y105540344D01*
X160880408Y105040342D02*
G75*
G03*
X161380408Y105540344I-27J500027D01*
G01*
X160880408Y105040344D02*
X147880408Y105040344D01*
X147380356Y105540344D02*
G75*
G03*
X147880408Y105040344I500025J25D01*
G01*
X147380408Y105540344D02*
X147380408Y118540344D01*
X147880408Y119040342D02*
G75*
G03*
X147380408Y118540344I-27J-499973D01*
G01*
X147880408Y119040344D02*
X160880408Y119040344D01*
X123280356Y118540344D02*
G75*
G03*
X122780408Y119040344I-499975J25D01*
G01*
X123280408Y118540344D02*
X123280408Y105540344D01*
X122780408Y105040342D02*
G75*
G03*
X123280408Y105540344I-27J500027D01*
G01*
X122780408Y105040344D02*
X109780408Y105040344D01*
X109280356Y105540344D02*
G75*
G03*
X109780408Y105040344I500025J25D01*
G01*
X109280408Y105540344D02*
X109280408Y118540344D01*
X109780408Y119040342D02*
G75*
G03*
X109280408Y118540344I-27J-499973D01*
G01*
X109780408Y119040344D02*
X122780408Y119040344D01*
X85180356Y118540344D02*
G75*
G03*
X84680408Y119040344I-499975J25D01*
G01*
X85180408Y118540344D02*
X85180408Y105540344D01*
X84680408Y105040342D02*
G75*
G03*
X85180408Y105540344I-27J500027D01*
G01*
X84680408Y105040344D02*
X71680408Y105040344D01*
X71180356Y105540344D02*
G75*
G03*
X71680408Y105040344I500025J25D01*
G01*
X71180408Y105540344D02*
X71180408Y118540344D01*
X71680408Y119040342D02*
G75*
G03*
X71180408Y118540344I-27J-499973D01*
G01*
X71680408Y119040344D02*
X84680408Y119040344D01*
X47080356Y118540344D02*
G75*
G03*
X46580408Y119040344I-499975J25D01*
G01*
X47080408Y118540344D02*
X47080408Y105540344D01*
X46580408Y105040342D02*
G75*
G03*
X47080408Y105540344I-27J500027D01*
G01*
X46580408Y105040344D02*
X33580408Y105040344D01*
X33080356Y105540344D02*
G75*
G03*
X33580408Y105040344I500025J25D01*
G01*
X33080408Y105540344D02*
X33080408Y118540344D01*
X33580408Y119040342D02*
G75*
G03*
X33080408Y118540344I-27J-499973D01*
G01*
X33580408Y119040344D02*
X46580408Y119040344D01*
X8480408Y105040342D02*
G75*
G03*
X8980408Y105540344I-27J500027D01*
G01*
X8480408Y105040344D02*
X-4519592Y105040344D01*
X-5019644Y105540344D02*
G75*
G03*
X-4519592Y105040344I500025J25D01*
G01*
X-5019592Y105540344D02*
X-5019592Y118540344D01*
X-4519592Y119040342D02*
G75*
G03*
X-5019592Y118540344I-27J-499973D01*
G01*
X-4519592Y119040344D02*
X8480408Y119040344D01*
X8980356Y118540344D02*
G75*
G03*
X8480408Y119040344I-499975J25D01*
G01*
X8980408Y118540344D02*
X8980408Y105540344D01*
X-34382092Y105040342D02*
G75*
G03*
X-33882092Y105540344I-27J500027D01*
G01*
X-34382092Y105040344D02*
X-47382092Y105040344D01*
X-47882144Y105540344D02*
G75*
G03*
X-47382092Y105040344I500025J25D01*
G01*
X-47882092Y105540344D02*
X-47882092Y118540344D01*
X-47382092Y119040342D02*
G75*
G03*
X-47882092Y118540344I-27J-499973D01*
G01*
X-47382092Y119040344D02*
X-34382092Y119040344D01*
X-33882144Y118540344D02*
G75*
G03*
X-34382092Y119040344I-499975J25D01*
G01*
X-33882092Y118540344D02*
X-33882092Y105540344D01*
X42317856Y80440344D02*
G75*
G03*
X41817908Y80940344I-499975J25D01*
G01*
X42317908Y80440344D02*
X42317908Y67440344D01*
X41817908Y66940342D02*
G75*
G03*
X42317908Y67440344I-27J500027D01*
G01*
X41817908Y66940344D02*
X28817908Y66940344D01*
X28317856Y67440344D02*
G75*
G03*
X28817908Y66940344I500025J25D01*
G01*
X28317908Y67440344D02*
X28317908Y80440344D01*
X28817908Y80940342D02*
G75*
G03*
X28317908Y80440344I-27J-499973D01*
G01*
X28817908Y80940344D02*
X41817908Y80940344D01*
X118517856Y80440344D02*
G75*
G03*
X118017908Y80940344I-499975J25D01*
G01*
X118517908Y80440344D02*
X118517908Y67440344D01*
X118017908Y66940342D02*
G75*
G03*
X118517908Y67440344I-27J500027D01*
G01*
X118017908Y66940344D02*
X105017908Y66940344D01*
X104517856Y67440344D02*
G75*
G03*
X105017908Y66940344I500025J25D01*
G01*
X104517908Y67440344D02*
X104517908Y80440344D01*
X105017908Y80940342D02*
G75*
G03*
X104517908Y80440344I-27J-499973D01*
G01*
X105017908Y80940344D02*
X118017908Y80940344D01*
X228055356Y80440344D02*
G75*
G03*
X227555408Y80940344I-499975J25D01*
G01*
X228055408Y80440344D02*
X228055408Y67440344D01*
X227555408Y66940342D02*
G75*
G03*
X228055408Y67440344I-27J500027D01*
G01*
X227555408Y66940344D02*
X219824658Y66940344D01*
X219824658Y66940344D02*
X219824658Y65440344D01*
X219324658Y64940392D02*
G75*
G03*
X219824658Y65440344I23J499977D01*
G01*
X219324658Y64940344D02*
X213324658Y64940344D01*
X212824656Y65440344D02*
G75*
G03*
X213324658Y64940344I500025J25D01*
G01*
X212824658Y65440344D02*
X212824658Y66940344D01*
X212824658Y66940344D02*
X195948658Y66940344D01*
X195948658Y66940344D02*
X195948658Y65440344D01*
X195448658Y64940392D02*
G75*
G03*
X195948658Y65440344I23J499977D01*
G01*
X195448658Y64940344D02*
X189448658Y64940344D01*
X188948656Y65440344D02*
G75*
G03*
X189448658Y64940344I500025J25D01*
G01*
X188948658Y65440344D02*
X188948658Y66940344D01*
X188948658Y66940344D02*
X188361658Y66940344D01*
X187861656Y67440344D02*
G75*
G03*
X188361658Y66940344I500025J25D01*
G01*
X187861658Y67440344D02*
X187861658Y80440344D01*
X188361658Y80940392D02*
G75*
G03*
X187861658Y80440344I23J-500023D01*
G01*
X188361658Y80940344D02*
X227555408Y80940344D01*
X140236656Y48390344D02*
G75*
G03*
X140736658Y47890344I500025J25D01*
G01*
X140236658Y48390344D02*
X140236658Y61390344D01*
X140736658Y61890392D02*
G75*
G03*
X140236658Y61390344I23J-500023D01*
G01*
X140736658Y61890344D02*
X141355408Y61890344D01*
X141355408Y61890344D02*
X141355408Y63390344D01*
X141855408Y63890342D02*
G75*
G03*
X141355408Y63390344I-27J-499973D01*
G01*
X141855408Y63890344D02*
X147855408Y63890344D01*
X148355356Y63390344D02*
G75*
G03*
X147855408Y63890344I-499975J25D01*
G01*
X148355408Y63390344D02*
X148355408Y61890344D01*
X148355408Y61890344D02*
X153736658Y61890344D01*
X154236656Y61390344D02*
G75*
G03*
X153736658Y61890344I-499975J25D01*
G01*
X154236658Y61390344D02*
X154236658Y48390344D01*
X153736658Y47890392D02*
G75*
G03*
X154236658Y48390344I23J499977D01*
G01*
X153736658Y47890344D02*
X140736658Y47890344D01*
X-2638344Y48390344D02*
G75*
G03*
X-2138342Y47890344I500025J25D01*
G01*
X-2638342Y48390344D02*
X-2638342Y61390344D01*
X-2138342Y61890392D02*
G75*
G03*
X-2638342Y61390344I23J-500023D01*
G01*
X-2138342Y61890344D02*
X13242908Y61890344D01*
X13742856Y61390344D02*
G75*
G03*
X13242908Y61890344I-499975J25D01*
G01*
X13742908Y61390344D02*
X13742908Y48390344D01*
X13242908Y47890342D02*
G75*
G03*
X13742908Y48390344I-27J500027D01*
G01*
X13242908Y47890344D02*
X-2138342Y47890344D01*
X270917856Y137590344D02*
G75*
G03*
X270417908Y138090344I-499975J25D01*
G01*
X270917908Y137590344D02*
X270917908Y124590344D01*
X270417908Y124090342D02*
G75*
G03*
X270917908Y124590344I-27J500027D01*
G01*
X270417908Y124090344D02*
X257417908Y124090344D01*
X256917856Y124590344D02*
G75*
G03*
X257417908Y124090344I500025J25D01*
G01*
X256917908Y124590344D02*
X256917908Y137590344D01*
X257417908Y138090342D02*
G75*
G03*
X256917908Y137590344I-27J-499973D01*
G01*
X257417908Y138090344D02*
X270417908Y138090344D01*
X251367908Y105040342D02*
G75*
G03*
X251867908Y105540344I-27J500027D01*
G01*
X251367908Y105040344D02*
X238367908Y105040344D01*
X237867856Y105540344D02*
G75*
G03*
X238367908Y105040344I500025J25D01*
G01*
X237867908Y105540344D02*
X237867908Y118540344D01*
X238367908Y119040342D02*
G75*
G03*
X237867908Y118540344I-27J-499973D01*
G01*
X238367908Y119040344D02*
X251367908Y119040344D01*
X251867856Y118540344D02*
G75*
G03*
X251367908Y119040344I-499975J25D01*
G01*
X251867908Y118540344D02*
X251867908Y105540344D01*
X289967856Y61390344D02*
G75*
G03*
X289467908Y61890344I-499975J25D01*
G01*
X289967908Y61390344D02*
X289967908Y48390344D01*
X289467908Y47890342D02*
G75*
G03*
X289967908Y48390344I-27J500027D01*
G01*
X289467908Y47890344D02*
X276467908Y47890344D01*
X275967856Y48390344D02*
G75*
G03*
X276467908Y47890344I500025J25D01*
G01*
X275967908Y48390344D02*
X275967908Y61390344D01*
X276467908Y61890342D02*
G75*
G03*
X275967908Y61390344I-27J-499973D01*
G01*
X276467908Y61890344D02*
X289467908Y61890344D01*
X-55646673Y165902881D02*
G75*
G03*
X-54646674Y164902875I1000004J-2D01*
G01*
X-55646668Y165902881D02*
X-55646523Y188680072D01*
X-51864499Y192462053D02*
G75*
G03*
X-55646523Y188680072I-20J-3782004D01*
G01*
X-51864499Y192462048D02*
X109159220Y192461023D01*
X109159220Y192461117D02*
G75*
G03*
X111159233Y194461010I61J1999952D01*
G01*
X111159233Y194461010D02*
X111159279Y201661015D01*
X111159279Y201661015D02*
X110197352Y201661021D01*
X110197352Y201661104D02*
G75*
G03*
X109197346Y200660858I29J-1000035D01*
G01*
X109197346Y200660858D02*
X109197541Y199461737D01*
X100797541Y199460368D02*
G75*
G03*
X109197541Y199461737I4200000J681D01*
G01*
X100797541Y199460368D02*
X100797345Y200661250D01*
X100797399Y200661250D02*
G75*
G03*
X99797352Y201661087I-1000018J-181D01*
G01*
X99797352Y201661087D02*
X34875352Y201661501D01*
X34875352Y201661504D02*
G75*
G03*
X33875346Y200661338I29J-1000035D01*
G01*
X33875346Y200661338D02*
X33875541Y199462216D01*
X25475541Y199460847D02*
G75*
G03*
X33875541Y199462216I4200000J682D01*
G01*
X25475541Y199460847D02*
X25475345Y200661730D01*
X25475379Y200661730D02*
G75*
G03*
X24475352Y201661567I-999998J-161D01*
G01*
X24475352Y201661567D02*
X-40446648Y201661980D01*
X-40446648Y201662004D02*
G75*
G03*
X-41446654Y200661817I29J-1000035D01*
G01*
X-41446654Y200661817D02*
X-41446459Y199462695D01*
X-49846459Y199461326D02*
G75*
G03*
X-41446459Y199462695I4200000J683D01*
G01*
X-49846459Y199461326D02*
X-49846655Y200662209D01*
X-49846642Y200662209D02*
G75*
G03*
X-50846648Y201662046I-999977J-140D01*
G01*
X-50846648Y201662046D02*
X-58842442Y201662097D01*
X-58842442Y201662098D02*
G75*
G03*
X-59842448Y200661934I-7J-999999D01*
G01*
X-59842448Y200661934D02*
X-59815400Y34695346D01*
X-59815380Y34695346D02*
G75*
G03*
X-58815406Y33695508I999961J123D01*
G01*
X-58815406Y33695508D02*
X-50846972Y33695458D01*
X-50846972Y33695516D02*
G75*
G03*
X-49846966Y34695621I53J999953D01*
G01*
X-49846966Y34695621D02*
X-49847487Y37894743D01*
X-41447491Y37896112D02*
G75*
G03*
X-49847487Y37894743I-4199998J-683D01*
G01*
X-41447488Y37896112D02*
X-41446966Y34695229D01*
X-41446896Y34695229D02*
G75*
G03*
X-40446972Y33695392I999977J140D01*
G01*
X-40446972Y33695392D02*
X24475028Y33694978D01*
X24475028Y33695016D02*
G75*
G03*
X25475034Y34695141I53J999953D01*
G01*
X25475034Y34695141D02*
X25474512Y37894263D01*
X33874510Y37895632D02*
G75*
G03*
X25474512Y37894263I-4199999J-683D01*
G01*
X33874512Y37895632D02*
X33875034Y34694749D01*
X33875124Y34694749D02*
G75*
G03*
X34875028Y33694912I999957J120D01*
G01*
X34875028Y33694912D02*
X113459376Y33694412D01*
X113459376Y33694368D02*
G75*
G03*
X114459382Y34694575I5J1000001D01*
G01*
X114459382Y34694575D02*
X114458861Y37893697D01*
X122858901Y37895066D02*
G75*
G03*
X114458861Y37893697I-4200020J-697D01*
G01*
X122858861Y37895066D02*
X122859383Y34694183D01*
X122859358Y34694183D02*
G75*
G03*
X123859376Y33694346I1000023J186D01*
G01*
X123859376Y33694346D02*
X202443725Y33693845D01*
X202443725Y33693819D02*
G75*
G03*
X203443731Y34694008I-44J1000050D01*
G01*
X203443731Y34694008D02*
X203443210Y37893131D01*
X211843152Y37894500D02*
G75*
G03*
X203443210Y37893131I-4199971J-731D01*
G01*
X211843210Y37894500D02*
X211843731Y34693616D01*
X211843791Y34693616D02*
G75*
G03*
X212843725Y33693779I999990J153D01*
G01*
X212843725Y33693779D02*
X277765725Y33693366D01*
X277765725Y33693419D02*
G75*
G03*
X278765731Y34693529I56J999950D01*
G01*
X278765731Y34693529D02*
X278765210Y37892651D01*
X287165152Y37894020D02*
G75*
G03*
X278765210Y37892651I-4199971J-651D01*
G01*
X287165210Y37894020D02*
X287165731Y34693137D01*
X287165712Y34693137D02*
G75*
G03*
X288165725Y33693300I999969J132D01*
G01*
X288165725Y33693300D02*
X296207041Y33693248D01*
X296207041Y33693302D02*
G75*
G03*
X297207048Y34693411I40J999967D01*
G01*
X297207048Y34693411D02*
X297180000Y200660000D01*
X297179949Y200660000D02*
G75*
G03*
X296180006Y201659837I-999968J-131D01*
G01*
X296180006Y201659837D02*
X288166049Y201659888D01*
X288166049Y201659907D02*
G75*
G03*
X287166043Y200659725I32J-1000038D01*
G01*
X287166043Y200659725D02*
X287166238Y199460603D01*
X278766324Y199459234D02*
G75*
G03*
X287166238Y199460603I4199957J635D01*
G01*
X278766238Y199459234D02*
X278766043Y200660117D01*
X278766066Y200660117D02*
G75*
G03*
X277766049Y201659954I-999985J-148D01*
G01*
X277766049Y201659954D02*
X212844049Y201660368D01*
X212844049Y201660407D02*
G75*
G03*
X211844043Y200660205I32J-1000038D01*
G01*
X211844043Y200660205D02*
X211844238Y199461082D01*
X203444324Y199459714D02*
G75*
G03*
X211844238Y199461082I4199957J655D01*
G01*
X203444238Y199459714D02*
X203444043Y200660597D01*
X203444046Y200660597D02*
G75*
G03*
X202444049Y201660434I-999965J-128D01*
G01*
X202444049Y201660434D02*
X137522049Y201660847D01*
X137522049Y201660907D02*
G75*
G03*
X136522043Y200660684I32J-1000038D01*
G01*
X136522043Y200660684D02*
X136522238Y199461562D01*
X128122244Y199460193D02*
G75*
G03*
X136522238Y199461562I4199997J686D01*
G01*
X128122238Y199460193D02*
X128122043Y200661076D01*
X128122125Y200661076D02*
G75*
G03*
X127122049Y201660913I-1000044J-207D01*
G01*
X127122049Y201660913D02*
X126159725Y201660920D01*
X126159725Y201660920D02*
X126159680Y194460914D01*
X126159714Y194460914D02*
G75*
G03*
X128159667Y192460902I1999967J-45D01*
G01*
X128159667Y192460902D02*
X289184188Y192459877D01*
X292966189Y188677853D02*
G75*
G03*
X289184188Y192459877I-3782008J16D01*
G01*
X292966164Y188677853D02*
X292966019Y165900663D01*
X291966013Y164900631D02*
G75*
G03*
X292966019Y165900663I-32J1000038D01*
G01*
X291966013Y164900669D02*
X-54646674Y164902875D01*
X289968066Y161402854D02*
G75*
G03*
X289468060Y161902854I-499985J15D01*
G01*
X289968060Y161402854D02*
X289968060Y148402854D01*
X289468060Y147902890D02*
G75*
G03*
X289968060Y148402854I21J499979D01*
G01*
X289468060Y147902854D02*
X276468060Y147902854D01*
X275968066Y148402854D02*
G75*
G03*
X276468060Y147902854I500015J15D01*
G01*
X275968060Y148402854D02*
X275968060Y161402854D01*
X276468060Y161902890D02*
G75*
G03*
X275968060Y161402854I21J-500021D01*
G01*
X276468060Y161902854D02*
X289468060Y161902854D01*
X209005566Y161402854D02*
G75*
G03*
X208505560Y161902854I-499985J15D01*
G01*
X209005560Y161402854D02*
X209005560Y148402854D01*
X208505560Y147902890D02*
G75*
G03*
X209005560Y148402854I21J499979D01*
G01*
X208505560Y147902854D02*
X195505560Y147902854D01*
X195005566Y148402854D02*
G75*
G03*
X195505560Y147902854I500015J15D01*
G01*
X195005560Y148402854D02*
X195005560Y161402854D01*
X195505560Y161902890D02*
G75*
G03*
X195005560Y161402854I21J-500021D01*
G01*
X195505560Y161902854D02*
X208505560Y161902854D01*
X123280566Y161402854D02*
G75*
G03*
X122780560Y161902854I-499985J15D01*
G01*
X123280560Y161402854D02*
X123280560Y148402854D01*
X122780560Y147902890D02*
G75*
G03*
X123280560Y148402854I21J499979D01*
G01*
X122780560Y147902854D02*
X109780560Y147902854D01*
X109280566Y148402854D02*
G75*
G03*
X109780560Y147902854I500015J15D01*
G01*
X109280560Y148402854D02*
X109280560Y161402854D01*
X109780560Y161902890D02*
G75*
G03*
X109280560Y161402854I21J-500021D01*
G01*
X109780560Y161902854D02*
X122780560Y161902854D01*
X37055560Y147902890D02*
G75*
G03*
X37555560Y148402854I21J499979D01*
G01*
X37055560Y147902854D02*
X24055560Y147902854D01*
X23555566Y148402854D02*
G75*
G03*
X24055560Y147902854I500015J15D01*
G01*
X23555560Y148402854D02*
X23555560Y161402854D01*
X24055560Y161902890D02*
G75*
G03*
X23555560Y161402854I21J-500021D01*
G01*
X24055560Y161902854D02*
X37055560Y161902854D01*
X37555566Y161402854D02*
G75*
G03*
X37055560Y161902854I-499985J15D01*
G01*
X37555560Y161402854D02*
X37555560Y148402854D01*
X-39144440Y147902890D02*
G75*
G03*
X-38644440Y148402854I21J499979D01*
G01*
X-39144440Y147902854D02*
X-52144440Y147902854D01*
X-52644434Y148402854D02*
G75*
G03*
X-52144440Y147902854I500015J15D01*
G01*
X-52644440Y148402854D02*
X-52644440Y161402854D01*
X-52144440Y161902890D02*
G75*
G03*
X-52644440Y161402854I21J-500021D01*
G01*
X-52144440Y161902854D02*
X-39144440Y161902854D01*
X-38644434Y161402854D02*
G75*
G03*
X-39144440Y161902854I-499985J15D01*
G01*
X-38644440Y161402854D02*
X-38644440Y148402854D01*
X56105560Y147902890D02*
G75*
G03*
X56605560Y148402854I21J499979D01*
G01*
X56105560Y147902854D02*
X43105560Y147902854D01*
X42605566Y148402854D02*
G75*
G03*
X43105560Y147902854I500015J15D01*
G01*
X42605560Y148402854D02*
X42605560Y161402854D01*
X43105560Y161902890D02*
G75*
G03*
X42605560Y161402854I21J-500021D01*
G01*
X43105560Y161902854D02*
X56105560Y161902854D01*
X56605566Y161402854D02*
G75*
G03*
X56105560Y161902854I-499985J15D01*
G01*
X56605560Y161402854D02*
X56605560Y148402854D01*
X142330566Y161402854D02*
G75*
G03*
X141830560Y161902854I-499985J15D01*
G01*
X142330560Y161402854D02*
X142330560Y148402854D01*
X141830560Y147902890D02*
G75*
G03*
X142330560Y148402854I21J499979D01*
G01*
X141830560Y147902854D02*
X128830560Y147902854D01*
X128330566Y148402854D02*
G75*
G03*
X128830560Y147902854I500015J15D01*
G01*
X128330560Y148402854D02*
X128330560Y161402854D01*
X128830560Y161902890D02*
G75*
G03*
X128330560Y161402854I21J-500021D01*
G01*
X128830560Y161902854D02*
X141830560Y161902854D01*
X228055566Y161402854D02*
G75*
G03*
X227555560Y161902854I-499985J15D01*
G01*
X228055560Y161402854D02*
X228055560Y148402854D01*
X227555560Y147902890D02*
G75*
G03*
X228055560Y148402854I21J499979D01*
G01*
X227555560Y147902854D02*
X214555560Y147902854D01*
X214055566Y148402854D02*
G75*
G03*
X214555560Y147902854I500015J15D01*
G01*
X214055560Y148402854D02*
X214055560Y161402854D01*
X214555560Y161902890D02*
G75*
G03*
X214055560Y161402854I21J-500021D01*
G01*
X214555560Y161902854D02*
X227555560Y161902854D01*
X270918066Y161402854D02*
G75*
G03*
X270418060Y161902854I-499985J15D01*
G01*
X270918060Y161402854D02*
X270918060Y148402854D01*
X270418060Y147902890D02*
G75*
G03*
X270918060Y148402854I21J499979D01*
G01*
X270418060Y147902854D02*
X257418060Y147902854D01*
X256918066Y148402854D02*
G75*
G03*
X257418060Y147902854I500015J15D01*
G01*
X256918060Y148402854D02*
X256918060Y161402854D01*
X257418060Y161902890D02*
G75*
G03*
X256918060Y161402854I21J-500021D01*
G01*
X257418060Y161902854D02*
X270418060Y161902854D01*
X189955566Y161402854D02*
G75*
G03*
X189455560Y161902854I-499985J15D01*
G01*
X189955560Y161402854D02*
X189955560Y148402854D01*
X189455560Y147902890D02*
G75*
G03*
X189955560Y148402854I21J499979D01*
G01*
X189455560Y147902854D02*
X176455560Y147902854D01*
X175955566Y148402854D02*
G75*
G03*
X176455560Y147902854I500015J15D01*
G01*
X175955560Y148402854D02*
X175955560Y161402854D01*
X176455560Y161902890D02*
G75*
G03*
X175955560Y161402854I21J-500021D01*
G01*
X176455560Y161902854D02*
X189455560Y161902854D01*
X104230566Y161402854D02*
G75*
G03*
X103730560Y161902854I-499985J15D01*
G01*
X104230560Y161402854D02*
X104230560Y148402854D01*
X103730560Y147902890D02*
G75*
G03*
X104230560Y148402854I21J499979D01*
G01*
X103730560Y147902854D02*
X90730560Y147902854D01*
X90230566Y148402854D02*
G75*
G03*
X90730560Y147902854I500015J15D01*
G01*
X90230560Y148402854D02*
X90230560Y161402854D01*
X90730560Y161902890D02*
G75*
G03*
X90230560Y161402854I21J-500021D01*
G01*
X90730560Y161902854D02*
X103730560Y161902854D01*
X18005560Y147902890D02*
G75*
G03*
X18505560Y148402854I21J499979D01*
G01*
X18005560Y147902854D02*
X5005560Y147902854D01*
X4505566Y148402854D02*
G75*
G03*
X5005560Y147902854I500015J15D01*
G01*
X4505560Y148402854D02*
X4505560Y161402854D01*
X5005560Y161902890D02*
G75*
G03*
X4505560Y161402854I21J-500021D01*
G01*
X5005560Y161902854D02*
X18005560Y161902854D01*
X18505566Y161402854D02*
G75*
G03*
X18005560Y161902854I-499985J15D01*
G01*
X18505560Y161402854D02*
X18505560Y148402854D01*
X-544434Y161402854D02*
G75*
G03*
X-1044440Y161902854I-499985J15D01*
G01*
X-544440Y161402854D02*
X-544440Y148402854D01*
X-1044440Y147902890D02*
G75*
G03*
X-544440Y148402854I21J499979D01*
G01*
X-1044440Y147902854D02*
X-14044440Y147902854D01*
X-14544434Y148402854D02*
G75*
G03*
X-14044440Y147902854I500015J15D01*
G01*
X-14544440Y148402854D02*
X-14544440Y161402854D01*
X-14044440Y161902890D02*
G75*
G03*
X-14544440Y161402854I21J-500021D01*
G01*
X-14044440Y161902854D02*
X-1044440Y161902854D01*
X84680560Y147902890D02*
G75*
G03*
X85180560Y148402854I21J499979D01*
G01*
X84680560Y147902854D02*
X71680560Y147902854D01*
X71180566Y148402854D02*
G75*
G03*
X71680560Y147902854I500015J15D01*
G01*
X71180560Y148402854D02*
X71180560Y161402854D01*
X71680560Y161902890D02*
G75*
G03*
X71180560Y161402854I21J-500021D01*
G01*
X71680560Y161902854D02*
X84680560Y161902854D01*
X85180566Y161402854D02*
G75*
G03*
X84680560Y161902854I-499985J15D01*
G01*
X85180560Y161402854D02*
X85180560Y148402854D01*
X170405560Y147902890D02*
G75*
G03*
X170905560Y148402854I21J499979D01*
G01*
X170405560Y147902854D02*
X157405560Y147902854D01*
X156905566Y148402854D02*
G75*
G03*
X157405560Y147902854I500015J15D01*
G01*
X156905560Y148402854D02*
X156905560Y161402854D01*
X157405560Y161902890D02*
G75*
G03*
X156905560Y161402854I21J-500021D01*
G01*
X157405560Y161902854D02*
X170405560Y161902854D01*
X170905566Y161402854D02*
G75*
G03*
X170405560Y161902854I-499985J15D01*
G01*
X170905560Y161402854D02*
X170905560Y148402854D01*
X251368060Y147902890D02*
G75*
G03*
X251868060Y148402854I21J499979D01*
G01*
X251368060Y147902854D02*
X238368060Y147902854D01*
X237868066Y148402854D02*
G75*
G03*
X238368060Y147902854I500015J15D01*
G01*
X237868060Y148402854D02*
X237868060Y161402854D01*
X238368060Y161902890D02*
G75*
G03*
X237868060Y161402854I21J-500021D01*
G01*
X238368060Y161902854D02*
X251368060Y161902854D01*
X251868066Y161402854D02*
G75*
G03*
X251368060Y161902854I-499985J15D01*
G01*
X251868060Y161402854D02*
X251868060Y148402854D01*
M02*
