0
SECTION
2
HEADER
9
$INSUNITS
70
4
9
$ACADVER
1
AC1014
9
$HANDSEED
5
FFFF
0
ENDSEC
0
SECTION
2
TABLES
0
TABLE
2
VPORT
5
8
100
AcDbSymbolTable
0
ENDTAB
0
TABLE
2
LTYPE
5
5
100
AcDbSymbolTable
0
LTYPE
5
14
100
AcDbSymbolTableRecord
100
AcDbLinetypeTableRecord
2
BYBLOCK
70
0
0
LTYPE
5
15
100
AcDbSymbolTableRecord
100
AcDbLinetypeTableRecord
2
BYLAYER
70
0
0
ENDTAB
0
TABLE
2
LAYER
5
2
100
AcDbSymbolTable
70
2
0
LAYER
5
50
100
AcDbSymbolTableRecord
100
AcDbLayerTableRecord
2
0
70
0
6
CONTINUOUS
0
ENDTAB
0
TABLE
2
STYLE
5
3
100
AcDbSymbolTable
70
1
0
STYLE
5
11
100
AcDbSymbolTableRecord
100
AcDbTextStyleTableRecord
2
STANDARD
70
0
0
ENDTAB
0
TABLE
2
VIEW
5
6
100
AcDbSymbolTable
70
0
0
ENDTAB
0
TABLE
2
UCS
5
7
100
AcDbSymbolTable
70
0
0
ENDTAB
0
TABLE
2
APPID
5
9
100
AcDbSymbolTable
70
2
0
APPID
5
12
100
AcDbSymbolTableRecord
100
AcDbRegAppTableRecord
2
ACAD
70
0
0
ENDTAB
0
TABLE
2
DIMSTYLE
5
A
100
AcDbSymbolTable
70
1
0
ENDTAB
0
TABLE
2
BLOCK_RECORD
5
1
100
AcDbSymbolTable
70
1
0
BLOCK_RECORD
5
1F
100
AcDbSymbolTableRecord
100
AcDbBlockTableRecord
2
*MODEL_SPACE
0
BLOCK_RECORD
5
1B
100
AcDbSymbolTableRecord
100
AcDbBlockTableRecord
2
*PAPER_SPACE
0
ENDTAB
0
ENDSEC
0
SECTION
2
BLOCKS
0
BLOCK
5
20
100
AcDbEntity
100
AcDbBlockBegin
2
*MODEL_SPACE
0
ENDBLK
5
21
100
AcDbEntity
100
AcDbBlockEnd
0
BLOCK
5
1C
100
AcDbEntity
100
AcDbBlockBegin
2
*PAPER_SPACE
0
ENDBLK
5
1D
100
AcDbEntity
100
AcDbBlockEnd
0
ENDSEC
0
SECTION
2
ENTITIES
0
LWPOLYLINE
5
100
100
AcDbEntity
8
0
100
AcDbPolyline
90
8
70
1
43
0.0
10
319.7781791452939
20
-111.43098510427993
10
319.7781791452939
20
-124.43098510427993
42
-0.41421356237309509
10
319.2781791452939
20
-124.93098510427993
10
306.2781791452939
20
-124.93098510427993
42
-0.41421356237309509
10
305.7781791452939
20
-124.43098510427993
10
305.7781791452939
20
-111.43098510427993
42
-0.41421356237309509
10
306.2781791452939
20
-110.93098510427993
10
319.2781791452939
20
-110.93098510427993
42
-0.41421356237309509
0
LWPOLYLINE
5
101
100
AcDbEntity
8
0
100
AcDbPolyline
90
8
70
1
43
0.0
10
238.81567914529387
20
-111.43098510427993
10
238.81567914529387
20
-124.43098510427993
42
-0.41421356237309509
10
238.31567914529387
20
-124.93098510427993
10
225.31567914529387
20
-124.93098510427993
42
-0.41421356237309509
10
224.81567914529387
20
-124.43098510427993
10
224.81567914529387
20
-111.43098510427993
42
-0.41421356237309509
10
225.31567914529387
20
-110.93098510427993
10
238.31567914529387
20
-110.93098510427993
42
-0.41421356237309509
0
LWPOLYLINE
5
102
100
AcDbEntity
8
0
100
AcDbPolyline
90
8
70
1
43
0.0
10
153.09067914529382
20
-111.43098510427993
10
153.09067914529382
20
-124.43098510427993
42
-0.41421356237309509
10
152.59067914529382
20
-124.93098510427993
10
139.59067914529382
20
-124.93098510427993
42
-0.41421356237309509
10
139.09067914529382
20
-124.43098510427993
10
139.09067914529382
20
-111.43098510427993
42
-0.41421356237309509
10
139.59067914529382
20
-110.93098510427993
10
152.59067914529382
20
-110.93098510427993
42
-0.41421356237309509
0
LWPOLYLINE
5
103
100
AcDbEntity
8
0
100
AcDbPolyline
90
8
70
1
43
0.0
10
66.865679145293853
20
-124.93098510427991
10
53.865679145293839
20
-124.93098510427993
42
-0.41421356237309509
10
53.365679145293832
20
-124.43098510427993
10
53.365679145293832
20
-111.43098510427993
42
-0.41421356237309509
10
53.865679145293839
20
-110.93098510427993
10
66.865679145293853
20
-110.93098510427993
42
-0.41421356237309509
10
67.365679145293853
20
-111.43098510427993
10
67.365679145293839
20
-124.43098510427993
42
-0.41421356237309509
0
LWPOLYLINE
5
104
100
AcDbEntity
8
0
100
AcDbPolyline
90
8
70
1
43
0.0
10
86.415679145293836
20
-111.43098510427993
10
86.415679145293822
20
-124.43098510427993
42
-0.41421356237309509
10
85.915679145293836
20
-124.93098510427991
10
72.915679145293836
20
-124.93098510427993
42
-0.41421356237309509
10
72.415679145293822
20
-124.43098510427993
10
72.415679145293822
20
-111.43098510427993
42
-0.41421356237309509
10
72.915679145293836
20
-110.93098510427993
10
85.915679145293836
20
-110.93098510427993
42
-0.41421356237309509
0
LWPOLYLINE
5
105
100
AcDbEntity
8
0
100
AcDbPolyline
90
8
70
1
43
0.0
10
171.64067914529386
20
-124.93098510427993
10
158.64067914529383
20
-124.93098510427993
42
-0.41421356237309509
10
158.14067914529383
20
-124.43098510427993
10
158.14067914529383
20
-111.43098510427993
42
-0.41421356237309509
10
158.64067914529383
20
-110.93098510427993
10
171.64067914529386
20
-110.93098510427993
42
-0.41421356237309509
10
172.14067914529386
20
-111.43098510427993
10
172.14067914529386
20
-124.43098510427993
42
-0.41421356237309509
0
LWPOLYLINE
5
106
100
AcDbEntity
8
0
100
AcDbPolyline
90
8
70
1
43
0.0
10
257.36567914529388
20
-124.93098510427993
10
244.36567914529388
20
-124.93098510427993
42
-0.41421356237309509
10
243.86567914529388
20
-124.43098510427993
10
243.86567914529388
20
-111.43098510427993
42
-0.41421356237309509
10
244.36567914529388
20
-110.93098510427993
10
257.36567914529388
20
-110.93098510427993
42
-0.41421356237309509
10
257.86567914529388
20
-111.43098510427993
10
257.86567914529388
20
-124.43098510427993
42
-0.41421356237309509
0
LWPOLYLINE
5
107
100
AcDbEntity
8
0
100
AcDbPolyline
90
8
70
1
43
0.0
10
338.32817914529386
20
-124.9309851042799
10
325.32817914529392
20
-124.9309851042799
42
-0.41421356237309509
10
324.82817914529392
20
-124.43098510427993
10
324.82817914529392
20
-111.43098510427993
42
-0.41421356237309509
10
325.32817914529392
20
-110.93098510427996
10
338.32817914529386
20
-110.93098510427996
42
-0.41421356237309509
10
338.8281791452938
20
-111.43098510427993
10
338.8281791452938
20
-124.43098510427993
42
-0.41421356237309509
0
LWPOLYLINE
5
108
100
AcDbEntity
8
0
100
AcDbPolyline
90
8
70
1
43
0.0
10
295.4656791452939
20
-124.93098510427993
10
282.4656791452939
20
-124.93098510427993
42
-0.41421356237309509
10
281.9656791452939
20
-124.43098510427993
10
281.9656791452939
20
-111.43098510427993
42
-0.41421356237309509
10
282.4656791452939
20
-110.93098510427993
10
295.4656791452939
20
-110.93098510427993
42
-0.41421356237309509
10
295.9656791452939
20
-111.43098510427993
10
295.9656791452939
20
-124.43098510427993
42
-0.41421356237309509
0
LWPOLYLINE
5
109
100
AcDbEntity
8
0
100
AcDbPolyline
90
8
70
1
43
0.0
10
209.74067914529388
20
-124.93098510427993
10
196.74067914529388
20
-124.93098510427993
42
-0.41421356237309509
10
196.24067914529388
20
-124.43098510427993
10
196.24067914529388
20
-111.43098510427993
42
-0.41421356237309509
10
196.74067914529388
20
-110.93098510427993
10
209.74067914529388
20
-110.93098510427993
42
-0.41421356237309509
10
210.24067914529388
20
-111.43098510427993
10
210.24067914529388
20
-124.43098510427993
42
-0.41421356237309509
0
LWPOLYLINE
5
110
100
AcDbEntity
8
0
100
AcDbPolyline
90
8
70
1
43
0.0
10
124.51567914529384
20
-111.43098510427993
10
124.51567914529384
20
-124.43098510427993
42
-0.41421356237309509
10
124.01567914529383
20
-124.93098510427993
10
111.01567914529383
20
-124.93098510427993
42
-0.41421356237309509
10
110.51567914529383
20
-124.43098510427993
10
110.51567914529383
20
-111.43098510427993
42
-0.41421356237309509
10
111.01567914529383
20
-110.93098510427993
10
124.01567914529383
20
-110.93098510427993
42
-0.41421356237309509
0
LWPOLYLINE
5
111
100
AcDbEntity
8
0
100
AcDbPolyline
90
8
70
1
43
0.0
10
29.265679145293841
20
-111.43098510427993
10
29.265679145293824
20
-124.43098510427993
42
-0.41421356237309509
10
28.765679145293834
20
-124.93098510427991
10
15.765679145293838
20
-124.93098510427993
42
-0.41421356237309509
10
15.265679145293831
20
-124.43098510427993
10
15.265679145293831
20
-111.43098510427993
42
-0.41421356237309509
10
15.765679145293838
20
-110.93098510427993
10
28.765679145293834
20
-110.93098510427993
42
-0.41421356237309509
0
LWPOLYLINE
5
112
100
AcDbEntity
8
0
100
AcDbPolyline
90
8
70
1
43
0.0
10
105.46567914529383
20
-111.43098510427993
10
105.46567914529383
20
-124.43098510427993
42
-0.41421356237309509
10
104.96567914529382
20
-124.93098510427993
10
91.965679145293819
20
-124.93098510427993
42
-0.41421356237309509
10
91.465679145293819
20
-124.43098510427993
10
91.465679145293819
20
-111.43098510427993
42
-0.41421356237309509
10
91.965679145293819
20
-110.93098510427993
10
104.96567914529382
20
-110.93098510427993
42
-0.41421356237309509
0
LWPOLYLINE
5
113
100
AcDbEntity
8
0
100
AcDbPolyline
90
8
70
1
43
0.0
10
190.69067914529384
20
-124.93098510427993
10
177.69067914529387
20
-124.93098510427993
42
-0.41421356237309509
10
177.19067914529387
20
-124.43098510427993
10
177.19067914529387
20
-111.43098510427993
42
-0.41421356237309509
10
177.69067914529387
20
-110.93098510427993
10
190.69067914529384
20
-110.93098510427993
42
-0.41421356237309509
10
191.19067914529384
20
-111.43098510427993
10
191.19067914529384
20
-124.43098510427993
42
-0.41421356237309509
0
LWPOLYLINE
5
114
100
AcDbEntity
8
0
100
AcDbPolyline
90
8
70
1
43
0.0
10
276.41567914529389
20
-124.93098510427993
10
263.41567914529389
20
-124.93098510427993
42
-0.41421356237309509
10
262.91567914529389
20
-124.43098510427993
10
262.91567914529389
20
-111.43098510427993
42
-0.41421356237309509
10
263.41567914529389
20
-110.93098510427993
10
276.41567914529389
20
-110.93098510427993
42
-0.41421356237309509
10
276.91567914529389
20
-111.43098510427993
10
276.91567914529389
20
-124.43098510427993
42
-0.41421356237309509
0
LWPOLYLINE
5
115
100
AcDbEntity
8
0
100
AcDbPolyline
90
8
70
1
43
0.0
10
357.37817914529387
20
-124.9309851042799
10
344.37817914529387
20
-124.9309851042799
42
-0.41421356237309509
10
343.87817914529393
20
-124.43098510427993
10
343.87817914529393
20
-111.43098510427993
42
-0.41421356237309509
10
344.37817914529387
20
-110.93098510427996
10
357.37817914529387
20
-110.93098510427996
42
-0.41421356237309509
10
357.87817914529387
20
-111.43098510427993
10
357.87817914529387
20
-124.43098510427993
42
-0.41421356237309509
0
LWPOLYLINE
5
116
100
AcDbEntity
8
0
100
AcDbPolyline
90
88
70
1
43
0.0
10
13.263445106113439
20
-127.93100583721693
10
359.87613196828698
20
-127.92880028884215
42
-0.4142135623731002
10
360.87613833141677
20
-128.92879392567193
10
360.87628326608137
20
-151.70598352275394
42
-0.4142135615143146
10
357.09430734267903
20
-155.48800758810924
10
196.06978587991594
20
-155.48903268337193
42
0.41421356237323548
10
194.06979861211951
20
-157.4890454154949
10
194.06984444787295
20
-164.68905059326994
10
195.03216790681222
20
-164.68904446694648
42
0.41416396509822773
10
196.03216152735368
20
-163.68920743944545
10
196.03235723833805
20
-162.48832381164289
42
-0.99999999999999989
10
204.43235712678586
20
-162.48969278046292
10
204.43216170281556
20
-163.68881528623106
42
0.41426316138741764
10
205.43216805571433
20
-164.68897825868936
10
270.35416790532429
20
-164.68856495365009
42
0.41416396509822773
10
271.35416152586572
20
-163.68872792614906
10
271.35435723680285
20
-162.48784458907377
42
-1.0000000074505804
10
279.75435712526087
20
-162.48921349530892
10
279.75416170132814
20
-163.68833577293367
42
0.41426316138742802
10
280.75416805422657
20
-164.68849874539194
10
345.6761679038371
20
-164.68808544035269
42
0.41416396509824849
10
346.67616152437859
20
-163.68824841285164
10
346.67635723529827
20
-162.48736517875105
42
-0.9999999925494194
10
355.07635712373599
20
-162.48873421015591
10
355.07616169984078
20
-163.68785625963724
42
0.4142631613874177
10
356.07616805273881
20
-164.68801923209554
10
364.09012504142822
20
-164.68796821381483
42
0.41416396509820691
10
365.09011866196965
20
-163.68813118631385
10
365.1171666486714
20
2.2784576344619367
42
0.41426316135910207
10
364.11716029587024
20
3.2786206069202759
10
356.07584385055986
20
3.2785694152415372
42
0.4141639651265665
10
355.07585022992168
20
2.2787323877403498
10
355.07532857404999
20
-0.92215078510364901
42
-0.99999999999999989
10
346.67532868560204
20
-0.92078181628380795
10
346.67585005445966
20
2.2783402355311555
42
0.41426316135910574
10
345.67584370165747
20
3.2785032079894365
10
280.75384385212368
20
3.278089909223973
42
0.41416396512655679
10
279.75385023148556
20
2.2782528817227821
10
279.75332857557794
20
-0.92263051533308604
42
-0.99999999999999989
10
271.35332868712999
20
-0.92126154651324477
10
271.35385005602359
20
2.2778607295141784
42
0.41426316135910607
10
270.35384370322191
20
3.2780237019724607
10
191.76949525786571
20
3.2775234275774459
42
0.41416396512654713
10
190.76950163722759
20
2.277686400076262
10
190.76897998135993
20
-0.9231967472404532
42
-0.99999999999999989
10
182.36898009291198
20
-0.92182777842061392
10
182.3695014617652
20
2.2772942478677871
42
0.41426316135910735
10
181.36949510896326
20
3.277457220326073
10
102.78514666360664
20
3.2769569459310683
42
0.41416396512653963
10
101.78515304296852
20
2.277119918429884
10
101.7846313871427
20
-0.92376297914782313
42
-0.99999999999999989
10
93.384631498694816
20
-0.92239401032798585
10
93.385152867506861
20
2.2767277662214047
42
0.41426316135911423
10
92.385146514704957
20
3.2768907386796968
10
27.463146665171188
20
3.2764774399142231
42
0.41416396512653447
10
26.463153044533094
20
2.2766404124130446
10
26.462631388670378
20
-0.92424270937726216
42
-0.99999999999999989
10
18.062631500222498
20
-0.92287374055742488
10
18.063152869071054
20
2.2762482602044365
42
0.41426316135909652
10
17.063146516269292
20
3.2764112326627171
10
9.0947125295053155
20
3.2763605049597508
42
0.41416396512655235
10
8.0947189088671596
20
2.276523477458543
10
8.0676709221683574
20
-163.69006537763073
42
0.41426316138740982
10
9.0676772750668277
20
-164.690228350089
10
17.063470718463201
20
-164.6901774474415
42
0.41416396509824649
10
18.063464339004696
20
-163.6903404199395
10
18.063660049908677
20
-162.48945728232496
42
-0.99999999999999989
10
26.463659938356603
20
-162.49082625114494
10
26.463464514467034
20
-163.68994826672446
42
0.41426316138740593
10
27.463470867365416
20
-164.69011123918273
10
92.38547071697559
20
-164.68969793414345
42
0.41416396509824327
10
93.385464337517078
20
-163.68986090664239
10
93.385660048393987
20
-162.48897793458707
42
-0.9999999925494194
10
101.78565993683171
20
-162.49034696599193
10
101.78546451297889
20
-163.689468753428
42
0.41426316138741764
10
102.78547086587744
20
-164.6896317258863
10
167.707470715488
20
-164.68921842084708
42
0.41416396509823811
10
168.70746433602949
20
-163.68938139334603
10
168.70766004685905
20
-162.48849871201895
42
-0.99999999999999989
10
177.10765993530686
20
-162.48986768083893
10
177.10746451149194
20
-163.68898924013166
42
0.41426316138740721
10
178.10747086439062
20
-164.68915221258993
10
179.06939751634894
20
-164.68914608879291
10
179.06935168059596
20
-157.48914090956592
42
0.41421356237324591
10
177.06933894847293
20
-155.48915364176943
10
16.045620489730439
20
-155.49017873192031
42
-0.41421356311191887
10
12.263596413285915
20
-151.70820279897794
10
12.263451469283028
20
-128.9310122007559
42
-0.41421356249299879
0
LWPOLYLINE
5
117
100
AcDbEntity
8
0
100
AcDbPolyline
90
8
70
1
43
0.0
10
357.37802708272261
20
-24.918475427589968
10
344.37802708272267
20
-24.918475427590039
42
-0.41421356237309509
10
343.87802708272261
20
-24.418475427589996
10
343.87802708272267
20
-11.418475427590007
42
-0.41421356237309509
10
344.37802708272267
20
-10.918475427590035
10
357.37802708272261
20
-10.918475427589964
42
-0.41421356237309509
10
357.87802708272267
20
-11.418475427590007
10
357.87802708272261
20
-24.418475427589996
42
-0.41421356237309509
0
LWPOLYLINE
5
118
100
AcDbEntity
8
0
100
AcDbPolyline
90
8
70
1
43
0.0
10
319.77802708272264
20
-68.568475427590002
10
319.77802708272264
20
-81.568475427589988
42
-0.41421356237309509
10
319.27802708272264
20
-82.068475427590002
10
306.27802708272264
20
-82.068475427590002
42
-0.41421356237309509
10
305.77802708272264
20
-81.568475427589988
10
305.77802708272264
20
-68.568475427590002
42
-0.41421356237309509
10
306.27802708272264
20
-68.068475427590002
10
319.27802708272264
20
-68.068475427590002
42
-0.41421356237309509
0
LWPOLYLINE
5
119
100
AcDbEntity
8
0
100
AcDbPolyline
90
8
70
1
43
0.0
10
338.3280270827226
20
-101.11847542758997
10
325.32802708272266
20
-101.11847542759006
42
-0.41421356237309509
10
324.8280270827226
20
-100.61847542759
10
324.8280270827226
20
-87.618475427589999
42
-0.41421356237309509
10
325.32802708272266
20
-87.118475427589956
10
338.3280270827226
20
-87.118475427589956
42
-0.41421356237309509
10
338.82802708272266
20
-87.618475427589999
10
338.8280270827226
20
-100.61847542759
42
-0.41421356237309509
0
LWPOLYLINE
5
120
100
AcDbEntity
8
0
100
AcDbPolyline
90
8
70
1
43
0.0
10
65.771777082722608
20
-10.918475427590009
10
81.153027082722602
20
-10.91847542759
42
-0.41421356237309509
10
81.653027082722616
20
-11.418475427590007
10
81.653027082722616
20
-24.418475427589996
42
-0.41421356237309509
10
81.153027082722602
20
-24.918475427590003
10
65.771777082722608
20
-24.918475427590003
42
-0.41421356237309509
10
65.271777082722593
20
-24.418475427589996
10
65.271777082722608
20
-11.418475427590007
42
-0.41421356237309509
0
LWPOLYLINE
5
121
100
AcDbEntity
8
0
100
AcDbPolyline
90
14
70
1
43
0.0
10
208.64677708272265
20
-10.918475427590018
10
221.64677708272262
20
-10.91847542759
42
-0.41421356237309509
10
222.14677708272262
20
-11.418475427590007
10
222.14677708272262
20
-24.418475427589996
42
-0.41421356237309509
10
221.64677708272262
20
-24.918475427590003
10
216.26552708272266
20
-24.918475427590003
10
216.26552708272266
20
-26.418475427590025
42
-0.41421356237309509
10
215.76552708272263
20
-26.918475427590032
10
209.76552708272263
20
-26.918475427589996
42
-0.41421356237309509
10
209.26552708272266
20
-26.418475427590025
10
209.26552708272266
20
-24.918475427590003
10
208.64677708272265
20
-24.918475427590021
42
-0.41421356237309509
10
208.14677708272262
20
-24.418475427590014
10
208.14677708272262
20
-11.418475427590025
42
-0.41421356237309509
0
LWPOLYLINE
5
122
100
AcDbEntity
8
0
100
AcDbPolyline
90
20
70
1
43
0.0
10
295.46552708272264
20
-43.968475427590015
10
256.27177708272262
20
-43.968475427590015
42
-0.41421356237309509
10
255.77177708272262
20
-43.468475427590008
10
255.77177708272262
20
-30.46847542759
42
-0.41421356237309509
10
256.27177708272262
20
-29.968475427589993
10
256.85877708272261
20
-29.968475427589993
10
256.85877708272261
20
-28.468475427590008
42
-0.41421356237309509
10
257.35877708272261
20
-27.96847542759
10
263.35877708272261
20
-27.96847542759
42
-0.41421356237309509
10
263.85877708272261
20
-28.468475427590008
10
263.85877708272261
20
-29.968475427589993
10
280.73477708272264
20
-29.968475427589993
10
280.73477708272264
20
-28.468475427590008
42
-0.41421356237309509
10
281.23477708272264
20
-27.96847542759
10
287.23477708272264
20
-27.96847542759
42
-0.41421356237309509
10
287.73477708272264
20
-28.468475427590008
10
287.73477708272264
20
-29.968475427589993
10
295.46552708272264
20
-29.968475427589993
42
-0.41421356237309509
10
295.96552708272264
20
-30.46847542759
10
295.96552708272264
20
-43.468475427590008
42
-0.41421356237309509
0
LWPOLYLINE
5
123
100
AcDbEntity
8
0
100
AcDbPolyline
90
8
70
1
43
0.0
10
185.92802708272262
20
-43.968475427590015
10
172.92802708272262
20
-43.968475427590015
42
-0.41421356237309509
10
172.42802708272262
20
-43.468475427590008
10
172.42802708272262
20
-30.46847542759
42
-0.41421356237309509
10
172.92802708272262
20
-29.968475427589993
10
185.92802708272262
20
-29.968475427589993
42
-0.41421356237309509
10
186.42802708272262
20
-30.46847542759
10
186.42802708272262
20
-43.468475427590008
42
-0.41421356237309509
0
LWPOLYLINE
5
124
100
AcDbEntity
8
0
100
AcDbPolyline
90
8
70
1
43
0.0
10
109.7280270827226
20
-43.968475427590015
10
96.728027082722591
20
-43.968475427590015
42
-0.41421356237309509
10
96.228027082722591
20
-43.468475427590008
10
96.228027082722591
20
-30.46847542759
42
-0.41421356237309509
10
96.728027082722591
20
-29.968475427589993
10
109.7280270827226
20
-29.968475427589993
42
-0.41421356237309509
10
110.2280270827226
20
-30.46847542759
10
110.2280270827226
20
-43.468475427590008
42
-0.41421356237309509
0
LWPOLYLINE
5
125
100
AcDbEntity
8
0
100
AcDbPolyline
90
8
70
1
43
0.0
10
34.028027082722602
20
-68.568475427590002
10
34.028027082722609
20
-81.568475427589988
42
-0.41421356237309509
10
33.528027082722602
20
-82.068475427590002
10
20.528027082722602
20
-82.068475427590002
42
-0.41421356237309509
10
20.028027082722595
20
-81.568475427589988
10
20.028027082722602
20
-68.568475427590002
42
-0.41421356237309509
10
20.528027082722602
20
-68.068475427590002
10
33.528027082722602
20
-68.068475427590002
42
-0.41421356237309509
0
LWPOLYLINE
5
126
100
AcDbEntity
8
0
100
AcDbPolyline
90
8
70
1
43
0.0
10
76.890527082722599
20
-68.568475427590002
10
76.890527082722599
20
-81.568475427589988
42
-0.41421356237309509
10
76.390527082722599
20
-82.068475427590002
10
63.390527082722599
20
-82.068475427590002
42
-0.41421356237309509
10
62.890527082722592
20
-81.568475427589988
10
62.890527082722599
20
-68.568475427590002
42
-0.41421356237309509
10
63.390527082722599
20
-68.068475427590002
10
76.390527082722599
20
-68.068475427590002
42
-0.41421356237309509
0
LWPOLYLINE
5
127
100
AcDbEntity
8
0
100
AcDbPolyline
90
8
70
1
43
0.0
10
114.49052708272261
20
-82.068475427590002
10
101.49052708272259
20
-82.068475427590002
42
-0.41421356237309509
10
100.99052708272259
20
-81.568475427589988
10
100.99052708272259
20
-68.568475427590002
42
-0.41421356237309509
10
101.49052708272259
20
-68.068475427590002
10
114.49052708272261
20
-68.068475427590016
42
-0.41421356237309509
10
114.99052708272259
20
-68.568475427590002
10
114.99052708272261
20
-81.568475427589988
42
-0.41421356237309509
0
LWPOLYLINE
5
128
100
AcDbEntity
8
0
100
AcDbPolyline
90
8
70
1
43
0.0
10
152.59052708272259
20
-82.068475427590002
10
139.59052708272259
20
-82.068475427590002
42
-0.41421356237309509
10
139.09052708272259
20
-81.568475427589988
10
139.09052708272259
20
-68.568475427590002
42
-0.41421356237309509
10
139.59052708272259
20
-68.068475427590002
10
152.59052708272259
20
-68.068475427590016
42
-0.41421356237309509
10
153.09052708272259
20
-68.568475427590002
10
153.09052708272259
20
-81.568475427589988
42
-0.41421356237309509
0
LWPOLYLINE
5
129
100
AcDbEntity
8
0
100
AcDbPolyline
90
8
70
1
43
0.0
10
190.69052708272261
20
-82.068475427590002
10
177.69052708272261
20
-82.068475427590002
42
-0.41421356237309509
10
177.19052708272261
20
-81.568475427589988
10
177.19052708272261
20
-68.568475427590002
42
-0.41421356237309509
10
177.69052708272261
20
-68.068475427590002
10
190.69052708272261
20
-68.068475427590002
42
-0.41421356237309509
10
191.19052708272261
20
-68.568475427590002
10
191.19052708272261
20
-81.568475427589988
42
-0.41421356237309509
0
LWPOLYLINE
5
130
100
AcDbEntity
8
0
100
AcDbPolyline
90
8
70
1
43
0.0
10
228.79052708272266
20
-82.068475427590002
10
215.79052708272263
20
-82.068475427590002
42
-0.41421356237309509
10
215.29052708272263
20
-81.568475427589988
10
215.29052708272263
20
-68.568475427590002
42
-0.41421356237309509
10
215.79052708272263
20
-68.068475427590002
10
228.79052708272266
20
-68.068475427590002
42
-0.41421356237309509
10
229.29052708272266
20
-68.568475427590002
10
229.29052708272266
20
-81.568475427589988
42
-0.41421356237309509
0
LWPOLYLINE
5
131
100
AcDbEntity
8
0
100
AcDbPolyline
90
8
70
1
43
0.0
10
266.89052708272266
20
-82.068475427590002
10
253.89052708272263
20
-82.068475427590002
42
-0.41421356237309509
10
253.39052708272263
20
-81.568475427589988
10
253.39052708272263
20
-68.568475427590002
42
-0.41421356237309509
10
253.89052708272263
20
-68.068475427590002
10
266.89052708272266
20
-68.068475427590002
42
-0.41421356237309509
10
267.39052708272266
20
-68.568475427590002
10
267.39052708272266
20
-81.568475427589988
42
-0.41421356237309509
0
LWPOLYLINE
5
132
100
AcDbEntity
8
0
100
AcDbPolyline
90
8
70
1
43
0.0
10
238.31552708272261
20
-101.11847542759001
10
225.31552708272261
20
-101.11847542759001
42
-0.41421356237309509
10
224.81552708272261
20
-100.61847542759
10
224.81552708272261
20
-87.618475427589999
42
-0.41421356237309509
10
225.31552708272261
20
-87.118475427589999
10
238.31552708272261
20
-87.118475427589999
42
-0.41421356237309509
10
238.81552708272264
20
-87.618475427589999
10
238.81552708272264
20
-100.61847542759
42
-0.41421356237309509
0
LWPOLYLINE
5
133
100
AcDbEntity
8
0
100
AcDbPolyline
90
8
70
1
43
0.0
10
162.11552708272262
20
-101.11847542759001
10
149.11552708272262
20
-101.11847542759001
42
-0.41421356237309509
10
148.61552708272259
20
-100.61847542759
10
148.61552708272259
20
-87.618475427589999
42
-0.41421356237309509
10
149.11552708272262
20
-87.118475427589999
10
162.11552708272262
20
-87.118475427589999
42
-0.41421356237309509
10
162.61552708272262
20
-87.618475427589999
10
162.61552708272262
20
-100.61847542759
42
-0.41421356237309509
0
LWPOLYLINE
5
134
100
AcDbEntity
8
0
100
AcDbPolyline
90
8
70
1
43
0.0
10
85.915527082722605
20
-101.11847542759001
10
72.915527082722605
20
-101.11847542759001
42
-0.41421356237309509
10
72.415527082722591
20
-100.61847542759
10
72.415527082722591
20
-87.618475427589999
42
-0.41421356237309509
10
72.915527082722605
20
-87.118475427589999
10
85.915527082722605
20
-87.118475427589999
42
-0.41421356237309509
10
86.415527082722605
20
-87.618475427589999
10
86.415527082722605
20
-100.61847542759
42
-0.41421356237309509
0
LWPOLYLINE
5
135
100
AcDbEntity
8
0
100
AcDbPolyline
90
8
70
1
43
0.0
10
28.765527082722599
20
-101.11847542759001
10
15.765527082722599
20
-101.11847542759001
42
-0.41421356237309509
10
15.265527082722592
20
-100.61847542759
10
15.265527082722592
20
-87.618475427589999
42
-0.41421356237309509
10
15.765527082722599
20
-87.118475427589999
10
28.765527082722599
20
-87.118475427589999
42
-0.41421356237309509
10
29.265527082722606
20
-87.618475427589999
10
29.265527082722606
20
-100.61847542759
42
-0.41421356237309509
0
LWPOLYLINE
5
136
100
AcDbEntity
8
0
100
AcDbPolyline
90
8
70
1
43
0.0
10
104.9655270827226
20
-101.11847542759001
10
91.965527082722588
20
-101.11847542759001
42
-0.41421356237309509
10
91.465527082722588
20
-100.61847542759
10
91.465527082722602
20
-87.618475427589999
42
-0.41421356237309509
10
91.965527082722588
20
-87.118475427590013
10
104.9655270827226
20
-87.118475427589999
42
-0.41421356237309509
10
105.4655270827226
20
-87.618475427589999
10
105.4655270827226
20
-100.61847542759
42
-0.41421356237309509
0
LWPOLYLINE
5
137
100
AcDbEntity
8
0
100
AcDbPolyline
90
8
70
1
43
0.0
10
181.16552708272263
20
-101.11847542759001
10
168.16552708272263
20
-101.11847542759001
42
-0.41421356237309509
10
167.6655270827226
20
-100.61847542759
10
167.6655270827226
20
-87.618475427589999
42
-0.41421356237309509
10
168.16552708272263
20
-87.118475427589999
10
181.16552708272263
20
-87.118475427589999
42
-0.41421356237309509
10
181.66552708272263
20
-87.618475427589999
10
181.66552708272263
20
-100.61847542759
42
-0.41421356237309509
0
LWPOLYLINE
5
138
100
AcDbEntity
8
0
100
AcDbPolyline
90
8
70
1
43
0.0
10
257.36552708272262
20
-101.11847542759001
10
244.36552708272262
20
-101.11847542759001
42
-0.41421356237309509
10
243.86552708272262
20
-100.61847542759
10
243.86552708272262
20
-87.618475427589999
42
-0.41421356237309509
10
244.36552708272262
20
-87.118475427589999
10
257.36552708272262
20
-87.118475427589999
42
-0.41421356237309509
10
257.86552708272262
20
-87.618475427589999
10
257.86552708272262
20
-100.61847542759
42
-0.41421356237309509
0
LWPOLYLINE
5
139
100
AcDbEntity
8
0
100
AcDbPolyline
90
8
70
1
43
0.0
10
247.84052708272264
20
-82.068475427590002
10
234.84052708272262
20
-82.068475427590002
42
-0.41421356237309509
10
234.34052708272262
20
-81.568475427589988
10
234.34052708272262
20
-68.568475427590002
42
-0.41421356237309509
10
234.84052708272262
20
-68.068475427590002
10
247.84052708272264
20
-68.068475427590002
42
-0.41421356237309509
10
248.34052708272264
20
-68.568475427590002
10
248.34052708272264
20
-81.568475427589988
42
-0.41421356237309509
0
LWPOLYLINE
5
140
100
AcDbEntity
8
0
100
AcDbPolyline
90
8
70
1
43
0.0
10
209.74052708272265
20
-82.068475427590002
10
196.74052708272262
20
-82.068475427590002
42
-0.41421356237309509
10
196.24052708272262
20
-81.568475427589988
10
196.24052708272262
20
-68.568475427590002
42
-0.41421356237309509
10
196.74052708272262
20
-68.068475427590002
10
209.74052708272265
20
-68.068475427590002
42
-0.41421356237309509
10
210.24052708272265
20
-68.568475427590002
10
210.24052708272265
20
-81.568475427589988
42
-0.41421356237309509
0
LWPOLYLINE
5
141
100
AcDbEntity
8
0
100
AcDbPolyline
90
8
70
1
43
0.0
10
171.64052708272263
20
-82.068475427590002
10
158.6405270827226
20
-82.068475427590002
42
-0.41421356237309509
10
158.1405270827226
20
-81.568475427589988
10
158.1405270827226
20
-68.568475427590002
42
-0.41421356237309509
10
158.6405270827226
20
-68.068475427590002
10
171.64052708272263
20
-68.068475427590002
42
-0.41421356237309509
10
172.14052708272263
20
-68.568475427590002
10
172.14052708272263
20
-81.568475427589988
42
-0.41421356237309509
0
LWPOLYLINE
5
142
100
AcDbEntity
8
0
100
AcDbPolyline
90
8
70
1
43
0.0
10
134.0405270827226
20
-68.568475427590002
10
134.0405270827226
20
-81.568475427589988
42
-0.41421356237309509
10
133.5405270827226
20
-82.068475427590002
10
120.5405270827226
20
-82.068475427590002
42
-0.41421356237309509
10
120.0405270827226
20
-81.568475427589988
10
120.0405270827226
20
-68.568475427590002
42
-0.41421356237309509
10
120.5405270827226
20
-68.068475427590002
10
133.5405270827226
20
-68.068475427590002
42
-0.41421356237309509
0
LWPOLYLINE
5
143
100
AcDbEntity
8
0
100
AcDbPolyline
90
8
70
1
43
0.0
10
95.44052708272261
20
-82.068475427590002
10
82.44052708272261
20
-82.068475427590002
42
-0.41421356237309509
10
81.940527082722596
20
-81.568475427589988
10
81.940527082722596
20
-68.568475427590002
42
-0.41421356237309509
10
82.44052708272261
20
-68.068475427590002
10
95.44052708272261
20
-68.068475427590002
42
-0.41421356237309509
10
95.94052708272261
20
-68.568475427590002
10
95.94052708272261
20
-81.568475427589988
42
-0.41421356237309509
0
LWPOLYLINE
5
144
100
AcDbEntity
8
0
100
AcDbPolyline
90
8
70
1
43
0.0
10
57.840527082722595
20
-68.568475427590002
10
57.840527082722602
20
-81.568475427589988
42
-0.41421356237309509
10
57.340527082722595
20
-82.068475427590002
10
44.340527082722602
20
-82.068475427590002
42
-0.41421356237309509
10
43.840527082722588
20
-81.568475427589988
10
43.840527082722602
20
-68.568475427590002
42
-0.41421356237309509
10
44.340527082722602
20
-68.068475427590002
10
57.340527082722595
20
-68.068475427590002
42
-0.41421356237309509
0
LWPOLYLINE
5
145
100
AcDbEntity
8
0
100
AcDbPolyline
90
8
70
1
43
0.0
10
129.27802708272259
20
-30.46847542759
10
129.27802708272259
20
-43.468475427590008
42
-0.41421356237309509
10
128.77802708272259
20
-43.968475427590015
10
115.7780270827226
20
-43.968475427590015
42
-0.41421356237309509
10
115.2780270827226
20
-43.468475427590008
10
115.2780270827226
20
-30.46847542759
42
-0.41421356237309509
10
115.7780270827226
20
-29.968475427589993
10
128.77802708272259
20
-29.968475427589993
42
-0.41421356237309509
0
LWPOLYLINE
5
146
100
AcDbEntity
8
0
100
AcDbPolyline
90
8
70
1
43
0.0
10
205.47802708272263
20
-30.46847542759
10
205.47802708272263
20
-43.468475427590008
42
-0.41421356237309509
10
204.97802708272263
20
-43.968475427590015
10
191.97802708272263
20
-43.968475427590015
42
-0.41421356237309509
10
191.47802708272263
20
-43.468475427590008
10
191.47802708272263
20
-30.46847542759
42
-0.41421356237309509
10
191.97802708272263
20
-29.968475427589993
10
204.97802708272263
20
-29.968475427589993
42
-0.41421356237309509
0
LWPOLYLINE
5
147
100
AcDbEntity
8
0
100
AcDbPolyline
90
8
70
1
43
0.0
10
293.08427708272262
20
-24.918475427590003
10
277.7030270827226
20
-24.918475427590003
42
-0.41421356237309509
10
277.2030270827226
20
-24.418475427589996
10
277.2030270827226
20
-11.418475427590007
42
-0.41421356237309509
10
277.7030270827226
20
-10.91847542759
10
293.08427708272262
20
-10.91847542759
42
-0.41421356237309509
10
293.58427708272262
20
-11.418475427590007
10
293.58427708272262
20
-24.418475427589996
42
-0.41421356237309509
0
LWPOLYLINE
5
148
100
AcDbEntity
8
0
100
AcDbPolyline
90
8
70
1
43
0.0
10
196.70927708272262
20
-26.918475427590032
10
190.70927708272262
20
-26.918475427590032
42
-0.41421356237309509
10
190.20927708272262
20
-26.418475427590025
10
190.20927708272262
20
-12.418475427590021
42
-0.41421356237309509
10
190.70927708272262
20
-11.918475427590014
10
196.70927708272262
20
-11.918475427590014
42
-0.41421356237309509
10
197.20927708272262
20
-12.418475427590021
10
197.20927708272262
20
-26.418475427590025
42
-0.41421356237309509
0
LWPOLYLINE
5
149
100
AcDbEntity
8
0
100
AcDbPolyline
90
8
70
1
43
0.0
10
57.340527082722595
20
-24.918475427589996
10
41.959277082722593
20
-24.918475427590003
42
-0.41421356237309509
10
41.459277082722593
20
-24.418475427589996
10
41.4592770827226
20
-11.418475427590007
42
-0.41421356237309509
10
41.959277082722593
20
-10.918475427590009
10
57.340527082722595
20
-10.91847542759
42
-0.41421356237309509
10
57.840527082722602
20
-11.418475427590007
10
57.840527082722595
20
-24.418475427589996
42
-0.41421356237309509
0
LWPOLYLINE
5
150
100
AcDbEntity
8
0
100
AcDbPolyline
90
8
70
1
43
0.0
10
357.37802708272261
20
-101.11847542758997
10
344.37802708272267
20
-101.11847542759006
42
-0.41421356237309509
10
343.87802708272261
20
-100.61847542759
10
343.87802708272267
20
-87.618475427589999
42
-0.41421356237309509
10
344.37802708272267
20
-87.118475427590027
10
357.37802708272261
20
-87.118475427589956
42
-0.41421356237309509
10
357.87802708272267
20
-87.618475427589999
10
357.87802708272261
20
-100.61847542759
42
-0.41421356237309509
0
LWPOLYLINE
5
151
100
AcDbEntity
8
0
100
AcDbPolyline
90
8
70
1
43
0.0
10
338.3280270827226
20
-43.968475427589979
10
325.32802708272266
20
-43.96847542759005
42
-0.41421356237309509
10
324.8280270827226
20
-43.468475427590008
10
324.8280270827226
20
-30.46847542759
42
-0.41421356237309509
10
325.32802708272266
20
-29.968475427589958
10
338.3280270827226
20
-29.968475427589958
42
-0.41421356237309509
10
338.82802708272266
20
-30.46847542759
10
338.8280270827226
20
-43.468475427590008
42
-0.41421356237309509
0
LWPOLYLINE
5
152
100
AcDbEntity
8
0
100
AcDbPolyline
90
8
70
1
43
0.0
10
338.3280270827226
20
-24.918475427589968
10
325.32802708272266
20
-24.918475427590039
42
-0.41421356237309509
10
324.8280270827226
20
-24.418475427589996
10
324.8280270827226
20
-11.418475427590007
42
-0.41421356237309509
10
325.32802708272266
20
-10.918475427589964
10
338.3280270827226
20
-10.918475427589964
42
-0.41421356237309509
10
338.82802708272266
20
-11.418475427590007
10
338.8280270827226
20
-24.418475427589996
42
-0.41421356237309509
0
LWPOLYLINE
5
153
100
AcDbEntity
8
0
100
AcDbPolyline
90
8
70
1
43
0.0
10
338.8280270827226
20
-68.568475427590002
10
338.8280270827226
20
-81.568475427589988
42
-0.41421356237309509
10
338.3280270827226
20
-82.068475427589959
10
325.32802708272266
20
-82.068475427590045
42
-0.41421356237309509
10
324.8280270827226
20
-81.568475427589988
10
324.8280270827226
20
-68.568475427590002
42
-0.41421356237309509
10
325.32802708272266
20
-68.068475427589959
10
338.3280270827226
20
-68.06847542759003
42
-0.41421356237309509
0
LWPOLYLINE
5
154
100
AcDbEntity
8
0
100
AcDbPolyline
90
8
70
1
43
0.0
10
319.27802708272264
20
-101.11847542759001
10
306.27802708272264
20
-101.11847542759001
42
-0.41421356237309509
10
305.77802708272264
20
-100.61847542759
10
305.77802708272264
20
-87.618475427589999
42
-0.41421356237309509
10
306.27802708272264
20
-87.118475427589999
10
319.27802708272264
20
-87.118475427589999
42
-0.41421356237309509
10
319.77802708272264
20
-87.618475427589999
10
319.77802708272264
20
-100.61847542759
42
-0.41421356237309509
0
LWPOLYLINE
5
155
100
AcDbEntity
8
0
100
AcDbPolyline
90
8
70
1
43
0.0
10
101.4655270827226
20
-26.918475427590032
10
90.709277082722593
20
-26.918475427590014
42
-0.41421356237309509
10
90.209277082722608
20
-26.418475427590025
10
90.209277082722608
20
-12.418475427590021
42
-0.41421356237309509
10
90.709277082722593
20
-11.918475427590032
10
101.4655270827226
20
-11.918475427590014
42
-0.41421356237309509
10
101.96552708272262
20
-12.418475427590021
10
101.96552708272262
20
-26.418475427590025
42
-0.41421356237309509
0
LWPOLYLINE
5
156
100
AcDbEntity
8
0
100
AcDbPolyline
90
8
70
1
43
0.0
10
245.45927708272262
20
-24.918475427590003
10
230.07802708272263
20
-24.918475427590003
42
-0.41421356237309509
10
229.5780270827226
20
-24.418475427589996
10
229.5780270827226
20
-11.418475427590007
42
-0.41421356237309509
10
230.07802708272263
20
-10.91847542759
10
245.45927708272262
20
-10.91847542759
42
-0.41421356237309509
10
245.95927708272262
20
-11.418475427590007
10
245.95927708272262
20
-24.418475427589996
42
-0.41421356237309509
0
LWPOLYLINE
5
157
100
AcDbEntity
8
0
100
AcDbPolyline
90
8
70
1
43
0.0
10
243.07802708272263
20
-43.968475427590015
10
230.07802708272263
20
-43.968475427590015
42
-0.41421356237309509
10
229.5780270827226
20
-43.468475427590008
10
229.5780270827226
20
-30.46847542759
42
-0.41421356237309509
10
230.07802708272263
20
-29.968475427589993
10
243.07802708272263
20
-29.968475427589993
42
-0.41421356237309509
10
243.57802708272263
20
-30.46847542759
10
243.57802708272263
20
-43.468475427590008
42
-0.41421356237309509
0
LWPOLYLINE
5
158
100
AcDbEntity
8
0
100
AcDbPolyline
90
8
70
1
43
0.0
10
166.87802708272261
20
-43.968475427590015
10
153.87802708272258
20
-43.968475427590015
42
-0.41421356237309509
10
153.37802708272258
20
-43.468475427590008
10
153.37802708272258
20
-30.46847542759
42
-0.41421356237309509
10
153.87802708272258
20
-29.968475427589993
10
166.87802708272261
20
-29.968475427589993
42
-0.41421356237309509
10
167.37802708272261
20
-30.46847542759
10
167.37802708272261
20
-43.468475427590008
42
-0.41421356237309509
0
LWPOLYLINE
5
159
100
AcDbEntity
8
0
100
AcDbPolyline
90
8
70
1
43
0.0
10
90.678027082722608
20
-43.968475427590015
10
77.678027082722593
20
-43.968475427590015
42
-0.41421356237309509
10
77.178027082722593
20
-43.468475427590008
10
77.178027082722608
20
-30.46847542759
42
-0.41421356237309509
10
77.678027082722593
20
-29.96847542759
10
90.678027082722608
20
-29.968475427589993
42
-0.41421356237309509
10
91.178027082722622
20
-30.46847542759
10
91.178027082722622
20
-43.468475427590008
42
-0.41421356237309509
0
LWPOLYLINE
5
160
100
AcDbEntity
8
0
100
AcDbPolyline
90
8
70
1
43
0.0
10
35.909277082722603
20
-63.018475427589998
10
22.9092770827226
20
-63.018475427589998
42
-0.41421356237309509
10
22.4092770827226
20
-62.518475427590005
10
22.409277082722593
20
-49.518475427589991
42
-0.41421356237309509
10
22.9092770827226
20
-49.018475427589991
10
35.909277082722603
20
-49.018475427589991
42
-0.41421356237309509
10
36.40927708272261
20
-49.518475427589991
10
36.409277082722596
20
-62.518475427590005
42
-0.41421356237309509
0
LWPOLYLINE
5
161
100
AcDbEntity
8
0
100
AcDbPolyline
90
8
70
1
43
0.0
10
81.153027082722602
20
-63.018475427590005
10
68.153027082722602
20
-63.018475427589998
42
-0.41421356237309509
10
67.653027082722602
20
-62.518475427590005
10
67.653027082722602
20
-49.518475427589991
42
-0.41421356237309509
10
68.153027082722602
20
-49.018475427589998
10
81.153027082722602
20
-49.018475427589991
42
-0.41421356237309509
10
81.653027082722616
20
-49.518475427589991
10
81.653027082722616
20
-62.518475427590005
42
-0.41421356237309509
0
LWPOLYLINE
5
162
100
AcDbEntity
8
0
100
AcDbPolyline
90
8
70
1
43
0.0
10
119.25302708272261
20
-63.018475427590005
10
106.2530270827226
20
-63.018475427589991
42
-0.41421356237309509
10
105.75302708272261
20
-62.518475427590005
10
105.7530270827226
20
-49.518475427589991
42
-0.41421356237309509
10
106.2530270827226
20
-49.018475427589991
10
119.25302708272261
20
-49.018475427589991
42
-0.41421356237309509
10
119.75302708272261
20
-49.518475427589991
10
119.75302708272261
20
-62.518475427590005
42
-0.41421356237309509
0
LWPOLYLINE
5
163
100
AcDbEntity
8
0
100
AcDbPolyline
90
8
70
1
43
0.0
10
157.3530270827226
20
-63.018475427590005
10
144.35302708272263
20
-63.018475427589991
42
-0.41421356237309509
10
143.85302708272263
20
-62.518475427590005
10
143.8530270827226
20
-49.518475427589991
42
-0.41421356237309509
10
144.35302708272263
20
-49.018475427589991
10
157.3530270827226
20
-49.018475427589991
42
-0.41421356237309509
10
157.85302708272263
20
-49.518475427589991
10
157.85302708272263
20
-62.518475427590005
42
-0.41421356237309509
0
LWPOLYLINE
5
164
100
AcDbEntity
8
0
100
AcDbPolyline
90
8
70
1
43
0.0
10
195.95302708272266
20
-49.518475427589991
10
195.95302708272266
20
-62.518475427590005
42
-0.41421356237309509
10
195.45302708272263
20
-63.018475427590005
10
182.45302708272263
20
-63.018475427590005
42
-0.41421356237309509
10
181.95302708272263
20
-62.518475427590005
10
181.95302708272263
20
-49.518475427589991
42
-0.41421356237309509
10
182.45302708272263
20
-49.018475427589991
10
195.45302708272263
20
-49.018475427589991
42
-0.41421356237309509
0
LWPOLYLINE
5
165
100
AcDbEntity
8
0
100
AcDbPolyline
90
8
70
1
43
0.0
10
233.55302708272262
20
-63.018475427590005
10
220.55302708272262
20
-63.018475427590005
42
-0.41421356237309509
10
220.05302708272262
20
-62.518475427590005
10
220.05302708272262
20
-49.518475427589991
42
-0.41421356237309509
10
220.55302708272262
20
-49.018475427589991
10
233.55302708272262
20
-49.018475427589991
42
-0.41421356237309509
10
234.05302708272262
20
-49.518475427589991
10
234.05302708272262
20
-62.518475427590005
42
-0.41421356237309509
0
LWPOLYLINE
5
166
100
AcDbEntity
8
0
100
AcDbPolyline
90
29
70
1
43
0.0
10
292.08427708272262
20
-82.068475427590016
42
0.41421356237309509
10
292.58427708272268
20
-81.568475427590016
10
292.58427708272262
20
-72.54347542759001
10
293.08427708272262
20
-72.54347542759001
42
0.41421356237309509
10
293.58427708272262
20
-72.04347542759001
10
293.58427708272262
20
-59.04347542759001
42
0.41421356237309509
10
293.08427708272262
20
-58.54347542759001
10
292.58427708272262
20
-58.54347542759001
10
292.58427708272262
20
-47.518475427589983
42
0.41421356237309509
10
292.08427708272262
20
-47.018475427589983
10
285.99727708272263
20
-47.018475427589991
42
0.41421356237309509
10
285.49727708272263
20
-47.518475427590005
10
285.49727708272263
20
-49.018475427589991
10
268.62127708272266
20
-49.018475427589991
10
268.62127708272266
20
-47.518475427590005
42
0.41421356237309509
10
268.12127708272266
20
-47.018475427589991
10
262.1212770827226
20
-47.018475427589991
42
0.41421356237309509
10
261.6212770827226
20
-47.518475427590005
10
261.6212770827226
20
-49.018475427590005
10
258.65302708272264
20
-49.018475427589991
42
0.41421356237309509
10
258.15302708272264
20
-49.518475427589991
10
258.15302708272264
20
-62.518475427590005
42
0.41421356237309509
10
258.65302708272264
20
-63.018475427589998
10
279.58427708272262
20
-63.018475427589998
10
279.58427708272262
20
-68.068475427590002
10
277.7030270827226
20
-68.068475427590002
42
0.41421356237309509
10
277.2030270827226
20
-68.568475427590002
10
277.2030270827226
20
-81.568475427589988
42
0.41421356237309509
10
277.7030270827226
20
-82.068475427590002
0
LWPOLYLINE
5
167
100
AcDbEntity
8
0
100
AcDbPolyline
90
8
70
1
43
0.0
10
219.76552708272266
20
-87.618475427589999
10
219.76552708272266
20
-100.61847542759
42
-0.41421356237309509
10
219.26552708272266
20
-101.11847542759001
10
206.26552708272266
20
-101.11847542759001
42
-0.41421356237309509
10
205.76552708272263
20
-100.61847542759
10
205.76552708272263
20
-87.618475427589999
42
-0.41421356237309509
10
206.26552708272266
20
-87.118475427589999
10
219.26552708272266
20
-87.118475427589999
42
-0.41421356237309509
0
LWPOLYLINE
5
168
100
AcDbEntity
8
0
100
AcDbPolyline
90
8
70
1
43
0.0
10
143.06552708272258
20
-101.11847542759001
10
130.06552708272261
20
-101.11847542759001
42
-0.41421356237309509
10
129.56552708272261
20
-100.61847542759
10
129.56552708272261
20
-87.618475427589999
42
-0.41421356237309509
10
130.06552708272261
20
-87.118475427589999
10
143.06552708272258
20
-87.118475427589999
42
-0.41421356237309509
10
143.56552708272258
20
-87.618475427589999
10
143.56552708272258
20
-100.61847542759
42
-0.41421356237309509
0
LWPOLYLINE
5
169
100
AcDbEntity
8
0
100
AcDbPolyline
90
8
70
1
43
0.0
10
66.865527082722608
20
-101.11847542759001
10
53.865527082722593
20
-101.11847542759001
42
-0.41421356237309509
10
53.365527082722586
20
-100.61847542759
10
53.365527082722586
20
-87.618475427589999
42
-0.41421356237309509
10
53.865527082722593
20
-87.118475427589999
10
66.865527082722608
20
-87.118475427589999
42
-0.41421356237309509
10
67.365527082722608
20
-87.618475427589999
10
67.365527082722608
20
-100.61847542759
42
-0.41421356237309509
0
LWPOLYLINE
5
170
100
AcDbEntity
8
0
100
AcDbPolyline
90
8
70
1
43
0.0
10
48.31552708272261
20
-87.618475427589999
10
48.31552708272261
20
-100.61847542759
42
-0.41421356237309509
10
47.815527082722596
20
-101.11847542759001
10
34.815527082722603
20
-101.11847542759001
42
-0.41421356237309509
10
34.315527082722596
20
-100.61847542759
10
34.315527082722596
20
-87.618475427589999
42
-0.41421356237309509
10
34.815527082722603
20
-87.118475427589999
10
47.815527082722596
20
-87.118475427589999
42
-0.41421356237309509
0
LWPOLYLINE
5
171
100
AcDbEntity
8
0
100
AcDbPolyline
90
8
70
1
43
0.0
10
124.51552708272261
20
-87.618475427589999
10
124.51552708272261
20
-100.61847542759
42
-0.41421356237309509
10
124.01552708272261
20
-101.11847542759001
10
111.0155270827226
20
-101.11847542759001
42
-0.41421356237309509
10
110.5155270827226
20
-100.61847542759
10
110.5155270827226
20
-87.618475427589999
42
-0.41421356237309509
10
111.0155270827226
20
-87.118475427589999
10
124.01552708272261
20
-87.118475427589999
42
-0.41421356237309509
0
LWPOLYLINE
5
172
100
AcDbEntity
8
0
100
AcDbPolyline
90
8
70
1
43
0.0
10
200.21552708272259
20
-101.11847542759001
10
187.21552708272264
20
-101.11847542759001
42
-0.41421356237309509
10
186.71552708272262
20
-100.61847542759
10
186.71552708272262
20
-87.618475427589999
42
-0.41421356237309509
10
187.21552708272264
20
-87.118475427589999
10
200.21552708272259
20
-87.118475427589999
42
-0.41421356237309509
10
200.71552708272262
20
-87.618475427589999
10
200.71552708272262
20
-100.61847542759
42
-0.41421356237309509
0
LWPOLYLINE
5
173
100
AcDbEntity
8
0
100
AcDbPolyline
90
20
70
1
43
0.0
10
288.3785270827226
20
-85.118475427589999
10
294.3785270827226
20
-85.118475427589999
42
-0.41421356237309509
10
294.8785270827226
20
-85.618475427589999
10
294.8785270827226
20
-87.118475427589999
10
295.46552708272264
20
-87.118475427589999
42
-0.41421356237309509
10
295.96552708272264
20
-87.618475427589999
10
295.96552708272264
20
-100.61847542759
42
-0.41421356237309509
10
295.46552708272264
20
-101.11847542759001
10
263.41552708272263
20
-101.11847542759001
42
-0.41421356237309509
10
262.91552708272263
20
-100.61847542759
10
262.91552708272263
20
-87.618475427589999
42
-0.41421356237309509
10
263.41552708272263
20
-87.118475427589999
10
264.00252708272262
20
-87.118475427590013
10
264.00252708272262
20
-85.618475427589999
42
-0.41421356237309509
10
264.50252708272262
20
-85.118475427589999
10
270.50252708272262
20
-85.118475427589999
42
-0.41421356237309509
10
271.00252708272262
20
-85.618475427589999
10
271.00252708272262
20
-87.118475427589999
10
287.8785270827226
20
-87.118475427589999
10
287.8785270827226
20
-85.618475427589999
42
-0.41421356237309509
0
LWPOLYLINE
5
174
100
AcDbEntity
8
0
100
AcDbPolyline
90
8
70
1
43
0.0
10
253.10302708272263
20
-49.518475427589991
10
253.10302708272263
20
-62.518475427590005
42
-0.41421356237309509
10
252.60302708272263
20
-63.018475427590005
10
239.60302708272263
20
-63.018475427590005
42
-0.41421356237309509
10
239.10302708272263
20
-62.518475427590005
10
239.10302708272263
20
-49.518475427589991
42
-0.41421356237309509
10
239.60302708272263
20
-49.018475427589991
10
252.60302708272263
20
-49.018475427589991
42
-0.41421356237309509
0
LWPOLYLINE
5
175
100
AcDbEntity
8
0
100
AcDbPolyline
90
8
70
1
43
0.0
10
214.50302708272261
20
-63.018475427590005
10
201.50302708272261
20
-63.018475427590005
42
-0.41421356237309509
10
201.00302708272261
20
-62.518475427590005
10
201.00302708272261
20
-49.518475427589991
42
-0.41421356237309509
10
201.50302708272261
20
-49.018475427589991
10
214.50302708272261
20
-49.018475427589991
42
-0.41421356237309509
10
215.00302708272261
20
-49.518475427589991
10
215.00302708272261
20
-62.518475427590005
42
-0.41421356237309509
0
LWPOLYLINE
5
176
100
AcDbEntity
8
0
100
AcDbPolyline
90
8
70
1
43
0.0
10
176.40302708272262
20
-63.018475427590005
10
163.40302708272262
20
-63.018475427590005
42
-0.41421356237309509
10
162.90302708272262
20
-62.518475427590005
10
162.90302708272262
20
-49.518475427589991
42
-0.41421356237309509
10
163.40302708272262
20
-49.018475427589991
10
176.40302708272262
20
-49.018475427589991
42
-0.41421356237309509
10
176.90302708272264
20
-49.518475427589991
10
176.90302708272264
20
-62.518475427590005
42
-0.41421356237309509
0
LWPOLYLINE
5
177
100
AcDbEntity
8
0
100
AcDbPolyline
90
8
70
1
43
0.0
10
138.80302708272262
20
-49.518475427589991
10
138.80302708272262
20
-62.518475427590005
42
-0.41421356237309509
10
138.30302708272259
20
-63.018475427590005
10
125.30302708272261
20
-63.018475427589991
42
-0.41421356237309509
10
124.80302708272262
20
-62.518475427590005
10
124.80302708272261
20
-49.518475427589991
42
-0.41421356237309509
10
125.30302708272261
20
-49.018475427589991
10
138.30302708272259
20
-49.018475427589991
42
-0.41421356237309509
0
LWPOLYLINE
5
178
100
AcDbEntity
8
0
100
AcDbPolyline
90
8
70
1
43
0.0
10
100.20302708272261
20
-63.018475427590005
10
87.203027082722599
20
-63.018475427590005
42
-0.41421356237309509
10
86.703027082722599
20
-62.518475427590005
10
86.703027082722599
20
-49.518475427589991
42
-0.41421356237309509
10
87.203027082722599
20
-49.018475427589991
10
100.20302708272261
20
-49.018475427589991
42
-0.41421356237309509
10
100.70302708272263
20
-49.518475427589991
10
100.70302708272263
20
-62.518475427590005
42
-0.41421356237309509
0
LWPOLYLINE
5
179
100
AcDbEntity
8
0
100
AcDbPolyline
90
8
70
1
43
0.0
10
62.103027082722598
20
-63.018475427589998
10
49.103027082722605
20
-63.018475427589998
42
-0.41421356237309509
10
48.603027082722605
20
-62.518475427590005
10
48.603027082722605
20
-49.518475427589991
42
-0.41421356237309509
10
49.103027082722605
20
-49.018475427589998
10
62.103027082722598
20
-49.018475427589991
42
-0.41421356237309509
10
62.603027082722605
20
-49.518475427589991
10
62.603027082722598
20
-62.518475427590005
42
-0.41421356237309509
0
LWPOLYLINE
5
180
100
AcDbEntity
8
0
100
AcDbPolyline
90
8
70
1
43
0.0
10
71.62802708272261
20
-43.968475427590008
10
58.628027082722596
20
-43.968475427590015
42
-0.41421356237309509
10
58.128027082722589
20
-43.468475427590008
10
58.128027082722596
20
-30.46847542759
42
-0.41421356237309509
10
58.628027082722596
20
-29.96847542759
10
71.62802708272261
20
-29.968475427589993
42
-0.41421356237309509
10
72.12802708272261
20
-30.46847542759
10
72.12802708272261
20
-43.468475427590008
42
-0.41421356237309509
0
LWPOLYLINE
5
181
100
AcDbEntity
8
0
100
AcDbPolyline
90
8
70
1
43
0.0
10
147.8280270827226
20
-43.968475427590015
10
134.82802708272263
20
-43.968475427590015
42
-0.41421356237309509
10
134.3280270827226
20
-43.468475427590008
10
134.3280270827226
20
-30.46847542759
42
-0.41421356237309509
10
134.82802708272263
20
-29.968475427589993
10
147.8280270827226
20
-29.968475427589993
42
-0.41421356237309509
10
148.3280270827226
20
-30.46847542759
10
148.3280270827226
20
-43.468475427590008
42
-0.41421356237309509
0
LWPOLYLINE
5
182
100
AcDbEntity
8
0
100
AcDbPolyline
90
8
70
1
43
0.0
10
224.02802708272262
20
-43.968475427590015
10
211.02802708272262
20
-43.968475427590015
42
-0.41421356237309509
10
210.52802708272259
20
-43.468475427590008
10
210.52802708272259
20
-30.46847542759
42
-0.41421356237309509
10
211.02802708272262
20
-29.968475427589993
10
224.02802708272262
20
-29.968475427589993
42
-0.41421356237309509
10
224.52802708272262
20
-30.46847542759
10
224.52802708272262
20
-43.468475427590008
42
-0.41421356237309509
0
LWPOLYLINE
5
183
100
AcDbEntity
8
0
100
AcDbPolyline
90
8
70
1
43
0.0
10
269.27177708272262
20
-24.918475427590003
10
253.89052708272263
20
-24.918475427590003
42
-0.41421356237309509
10
253.39052708272263
20
-24.418475427589996
10
253.39052708272263
20
-11.418475427590007
42
-0.41421356237309509
10
253.89052708272263
20
-10.91847542759
10
269.27177708272262
20
-10.91847542759
42
-0.41421356237309509
10
269.77177708272268
20
-11.418475427590007
10
269.77177708272268
20
-24.418475427589996
42
-0.41421356237309509
0
LWPOLYLINE
5
184
100
AcDbEntity
8
0
100
AcDbPolyline
90
8
70
1
43
0.0
10
162.11552708272262
20
-24.918475427590003
10
137.20927708272259
20
-24.918475427590003
42
-0.41421356237309509
10
136.70927708272259
20
-24.418475427589996
10
136.70927708272259
20
-11.418475427590007
42
-0.41421356237309509
10
137.20927708272259
20
-10.91847542759
10
162.11552708272262
20
-10.91847542759
42
-0.41421356237309509
10
162.61552708272262
20
-11.418475427590007
10
162.61552708272262
20
-24.418475427589996
42
-0.41421356237309509
0
LWPOLYLINE
5
185
100
AcDbEntity
8
0
100
AcDbPolyline
90
8
70
1
43
0.0
10
33.528027082722602
20
-24.918475427589996
10
18.1467770827226
20
-24.918475427590003
42
-0.41421356237309509
10
17.646777082722593
20
-24.418475427589996
10
17.6467770827226
20
-11.418475427590007
42
-0.41421356237309509
10
18.1467770827226
20
-10.918475427590007
10
33.528027082722602
20
-10.91847542759
42
-0.41421356237309509
10
34.028027082722609
20
-11.418475427590007
10
34.028027082722602
20
-24.418475427589996
42
-0.41421356237309509
0
LWPOLYLINE
5
186
100
AcDbEntity
8
0
100
AcDbPolyline
90
8
70
1
43
0.0
10
357.87802708272261
20
-68.568475427590002
10
357.87802708272261
20
-81.568475427589988
42
-0.41421356237309509
10
357.37802708272261
20
-82.068475427589959
10
344.37802708272267
20
-82.068475427590045
42
-0.41421356237309509
10
343.87802708272261
20
-81.568475427589988
10
343.87802708272267
20
-68.568475427590002
42
-0.41421356237309509
10
344.37802708272267
20
-68.06847542759003
10
357.37802708272261
20
-68.06847542759003
42
-0.41421356237309509
0
LWPOLYLINE
5
187
100
AcDbEntity
8
0
100
AcDbPolyline
90
8
70
1
43
0.0
10
319.27802708272264
20
-24.918475427590003
10
306.27802708272264
20
-24.918475427590003
42
-0.41421356237309509
10
305.77802708272264
20
-24.418475427589996
10
305.77802708272264
20
-11.418475427590007
42
-0.41421356237309509
10
306.27802708272264
20
-10.91847542759
10
319.27802708272264
20
-10.91847542759
42
-0.41421356237309509
10
319.77802708272264
20
-11.418475427590007
10
319.77802708272264
20
-24.418475427589996
42
-0.41421356237309509
0
LWPOLYLINE
5
188
100
AcDbEntity
8
0
100
AcDbPolyline
90
22
70
1
43
0.0
10
52.578027082722599
20
-43.968475427590015
10
52.283051176553563
20
-43.968475427590015
42
-0.093090123363870875
10
51.913889751494722
20
-43.968475427590015
10
18.1467770827226
20
-43.968475427590015
42
-0.41421356237309509
10
17.646777082722593
20
-43.468475427590008
10
17.6467770827226
20
-30.46847542759
42
-0.41421356237309509
10
18.1467770827226
20
-29.96847542759
10
18.7337770827226
20
-29.968475427589993
10
18.7337770827226
20
-28.468475427590008
42
-0.41421356237309509
10
19.233777082722597
20
-27.968475427590008
10
25.2337770827226
20
-27.96847542759
42
-0.41421356237309509
10
25.733777082722607
20
-28.468475427590008
10
25.733777082722604
20
-29.968475427589993
10
42.609777082722601
20
-29.968475427589993
10
42.609777082722601
20
-28.468475427590008
42
-0.41421356237309509
10
43.109777082722601
20
-27.968475427590008
10
49.109777082722601
20
-27.96847542759
42
-0.41421356237309509
10
49.609777082722609
20
-28.468475427590008
10
49.609777082722601
20
-29.968475427589993
10
52.578027082722599
20
-29.968475427589993
42
-0.41421356237309509
10
53.078027082722613
20
-30.46847542759
10
53.078027082722613
20
-43.468475427590008
42
-0.41421356237309509
0
CIRCLE
5
189
100
AcDbEntity
8
0
100
AcDbCircle
10
-356.10288976509202
20
-46.494828297081327
30
-2.3314683478812496e-14
40
3.0000000000000004
210
-4.0389678347315795e-28
220
-8.2718061255302749e-25
230
-1
0
CIRCLE
5
190
100
AcDbEntity
8
0
100
AcDbCircle
10
-354.98447783610999
20
-31.177305024993125
30
2.2204460492503131e-15
40
1.19999999999999
210
0
220
0
230
-1
0
CIRCLE
5
191
100
AcDbEntity
8
0
100
AcDbCircle
10
-354.94701055212494
20
-106.19329566833994
30
0
40
1.19999999999999
210
0
220
0
230
-1
0
CIRCLE
5
192
100
AcDbEntity
8
0
100
AcDbCircle
10
-300.94701728747896
20
-106.16632497761793
30
0
40
1.19999999999999
210
0
220
0
230
-1
0
CIRCLE
5
193
100
AcDbEntity
8
0
100
AcDbCircle
10
-273.53246966798497
20
-17.808735226930619
30
4.4408920985006262e-15
40
1.19999999999999
210
0
220
0
230
-1
0
CIRCLE
5
194
100
AcDbEntity
8
0
100
AcDbCircle
10
-226.03247559260095
20
-17.785011008240421
30
4.4408920985006262e-15
40
1.19999999999999
210
0
220
0
230
-1
0
CIRCLE
5
195
100
AcDbEntity
8
0
100
AcDbCircle
10
-216.94702776469595
20
-106.12437056982893
30
0
40
1.19999999999999
210
0
220
0
230
-1
0
CIRCLE
5
196
100
AcDbEntity
8
0
100
AcDbCircle
10
-107.94704136013195
20
-106.06992973114993
30
0
40
1.19999999999999
210
0
220
0
230
-1
0
CIRCLE
5
197
100
AcDbEntity
8
0
100
AcDbCircle
10
-86.03249305462964
20
-17.715086995258719
30
4.4408920985006262e-15
40
1.19999999999999
210
0
220
0
230
-1
0
CIRCLE
5
198
100
AcDbEntity
8
0
100
AcDbCircle
10
-37.832499066556437
20
-17.691013156503523
30
4.4408920985006262e-15
40
1.19999999999999
210
0
220
0
230
-1
0
CIRCLE
5
199
100
AcDbEntity
8
0
100
AcDbCircle
10
-38.934275035401441
20
-74.71069699817582
30
5.5511151231257827e-15
40
1.19999999999999
210
0
220
0
230
-1
0
CIRCLE
5
200
100
AcDbEntity
8
0
100
AcDbCircle
10
-16.947052710450443
20
-106.02447912271191
30
0
40
1.19999999999999
210
0
220
0
230
-1
0
ENDSEC
0
SECTION
2
OBJECTS
0
DICTIONARY
5
C
100
AcDbDictionary
3
ACAD_GROUP
350
D
3
ACAD_MLINESTYLE
350
17
0
DICTIONARY
5
D
100
AcDbDictionary
0
DICTIONARY
5
1A
330
C
100
AcDbDictionary
0
DICTIONARY
5
17
100
AcDbDictionary
0
ENDSEC
0
EOF
