0
SECTION
2
HEADER
9
$INSUNITS
70
4
9
$ACADVER
1
AC1014
9
$HANDSEED
5
FFFF
0
ENDSEC
0
SECTION
2
TABLES
0
TABLE
2
VPORT
5
8
100
AcDbSymbolTable
0
ENDTAB
0
TABLE
2
LTYPE
5
5
100
AcDbSymbolTable
0
LTYPE
5
14
100
AcDbSymbolTableRecord
100
AcDbLinetypeTableRecord
2
BYBLOCK
70
0
0
LTYPE
5
15
100
AcDbSymbolTableRecord
100
AcDbLinetypeTableRecord
2
BYLAYER
70
0
0
ENDTAB
0
TABLE
2
LAYER
5
2
100
AcDbSymbolTable
70
2
0
LAYER
5
50
100
AcDbSymbolTableRecord
100
AcDbLayerTableRecord
2
0
70
0
6
CONTINUOUS
0
ENDTAB
0
TABLE
2
STYLE
5
3
100
AcDbSymbolTable
70
1
0
STYLE
5
11
100
AcDbSymbolTableRecord
100
AcDbTextStyleTableRecord
2
STANDARD
70
0
0
ENDTAB
0
TABLE
2
VIEW
5
6
100
AcDbSymbolTable
70
0
0
ENDTAB
0
TABLE
2
UCS
5
7
100
AcDbSymbolTable
70
0
0
ENDTAB
0
TABLE
2
APPID
5
9
100
AcDbSymbolTable
70
2
0
APPID
5
12
100
AcDbSymbolTableRecord
100
AcDbRegAppTableRecord
2
ACAD
70
0
0
ENDTAB
0
TABLE
2
DIMSTYLE
5
A
100
AcDbSymbolTable
70
1
0
ENDTAB
0
TABLE
2
BLOCK_RECORD
5
1
100
AcDbSymbolTable
70
1
0
BLOCK_RECORD
5
1F
100
AcDbSymbolTableRecord
100
AcDbBlockTableRecord
2
*MODEL_SPACE
0
BLOCK_RECORD
5
1B
100
AcDbSymbolTableRecord
100
AcDbBlockTableRecord
2
*PAPER_SPACE
0
ENDTAB
0
ENDSEC
0
SECTION
2
BLOCKS
0
BLOCK
5
20
100
AcDbEntity
100
AcDbBlockBegin
2
*MODEL_SPACE
0
ENDBLK
5
21
100
AcDbEntity
100
AcDbBlockEnd
0
BLOCK
5
1C
100
AcDbEntity
100
AcDbBlockBegin
2
*PAPER_SPACE
0
ENDBLK
5
1D
100
AcDbEntity
100
AcDbBlockEnd
0
ENDSEC
0
SECTION
2
ENTITIES
0
LWPOLYLINE
5
100
100
AcDbEntity
8
0
100
AcDbPolyline
90
8
70
1
43
0.0
10
79.589128410195414
20
-228.68383676997456
10
79.589128410195485
20
-322.18349734967683
42
0.41421356237308465
10
80.0891284101954
20
-322.68349734967677
10
81.093100050735401
20
-322.68349734967677
42
0.41421356237310542
10
81.593100050736197
20
-322.18349734967671
10
81.593100050736183
20
-228.68383676997462
42
0.41421356237310542
10
81.093100050736169
20
-228.18383676997459
10
80.0891284101954
20
-228.18383676997459
42
0.41421356237310542
0
ARC
5
101
100
AcDbEntity
8
0
100
AcDbCircle
10
132.6761765789895
20
-346.38591564716842
30
6.1175953192105226e-10
40
1.9999999999999889
210
1.9760722357353531e-13
220
7.9936057773007598e-14
230
1
100
AcDbArc
50
202.02431283704058
51
270.00000000000159
0
LINE
5
102
100
AcDbEntity
8
0
100
AcDbLine
10
132.67617657898955
20
-348.38591564716836
30
6.1289640029826842e-10
11
136.13296143810118
21
-348.38591564716836
31
1.1439027503001853e-09
0
ARC
5
103
100
AcDbEntity
8
0
100
AcDbCircle
10
136.13296143810115
20
-346.38591564716842
30
-9.1564075599004991e-08
40
1.9999999999999574
210
-2.3635061581327745e-24
220
2.6610713632636021e-10
230
1
100
AcDbArc
50
270.0000000000008
51
337.97568716295973
0
ARC
5
104
100
AcDbEntity
8
0
100
AcDbCircle
10
139.84106068164903
20
-347.88591564716825
30
6.1172400478426425e-10
40
1.9999999999999574
210
0
220
9.7699626167015856e-13
230
1
100
AcDbArc
50
90
51
157.97568716296095
0
LINE
5
105
100
AcDbEntity
8
0
100
AcDbLine
10
139.84106068164903
20
-345.8859156471683
30
6.0977001226092398e-10
11
170.06525306327899
21
-345.88591564716819
31
1.1356959817021561e-09
0
ARC
5
106
100
AcDbEntity
8
0
100
AcDbCircle
10
170.06525306327899
20
-343.88591564716825
30
-8.9453918766614682e-08
40
1.9999999999999574
210
0
220
2.6190605240117851e-10
230
1
100
AcDbArc
50
-90
51
0
0
LINE
5
107
100
AcDbEntity
8
0
100
AcDbLine
10
172.06525306327899
20
-343.88591564716825
30
6.0726534911736962e-10
11
172.06525306327893
21
-340.88443365718945
31
1.1094591911842144e-09
0
ARC
5
108
100
AcDbEntity
8
0
100
AcDbCircle
10
174.06525306327893
20
-340.88443365718939
30
-4.0348051289519897e-12
40
1.9999999999999662
210
9.4201590288289604e-17
220
3.2951419357410024e-12
230
1
100
AcDbArc
50
89.998362026992638
51
180
0
LINE
5
109
100
AcDbEntity
8
0
100
AcDbLine
10
174.065310239323
20
-338.88443365800669
30
1.1126211063583469e-09
11
175.79389261791408
21
-338.88448307475784
31
1.1127276877687109e-09
0
ARC
5
110
100
AcDbEntity
8
0
100
AcDbCircle
10
175.79394979395818
20
-336.88448307557508
30
-5.5095745269166628e-11
40
2.0000000000000373
210
9.8518105268368624e-17
220
3.4461322670282032e-12
230
1
100
AcDbArc
50
269.99836202699186
51
359.99836202730484
0
LINE
5
111
100
AcDbEntity
8
0
100
AcDbLine
10
177.79394979314094
20
-336.88454025161917
30
1.1058354232318379e-09
11
177.80257623142276
21
-35.13444827320464
31
1.1533884958225826e-10
0
ARC
5
112
100
AcDbEntity
8
0
100
AcDbCircle
10
175.80257623224003
20
-35.134391097160574
30
1.1581846592889633e-10
40
2.0000000000000018
210
2.3980817322103901e-13
220
-6.855641342800081e-18
230
1
100
AcDbArc
50
-0.0016379726951299411
51
89.998362026992638
0
LINE
5
113
100
AcDbEntity
8
0
100
AcDbLine
10
175.80263340828409
20
-33.134391097977847
30
1.0926370919150941e-10
11
174.0651958872329
21
-33.134341428075459
31
1.0876632927647734e-10
0
ARC
5
114
100
AcDbEntity
8
0
100
AcDbCircle
10
174.06525306327697
20
-31.134341428892974
30
1.0349054946345859e-10
40
1.9999999999999929
210
-1.7763568394002568e-14
220
3.9443045261050871e-29
230
1
100
AcDbArc
50
180
51
269.99836202699265
0
LINE
5
115
100
AcDbEntity
8
0
100
AcDbLine
10
172.065253063277
20
-31.13434142889297
30
1.0345502232667059e-10
11
172.06525306327703
21
-28.133072877655707
31
1.120881165661558e-10
0
ARC
5
116
100
AcDbEntity
8
0
100
AcDbCircle
10
170.06525306327703
20
-28.13307287765571
30
4.3077208685646671e-08
40
1.9999999999999929
210
2.4970248091449409e-10
220
5.544508872345921e-25
230
1
100
AcDbArc
50
0
51
90
0
LINE
5
117
100
AcDbEntity
8
0
100
AcDbLine
10
170.06525306327703
20
-26.133072877655707
30
6.0959237657698395e-10
11
139.71404402785438
21
-26.133072877655707
31
-3.7429614963002678e-10
0
ARC
5
118
100
AcDbEntity
8
0
100
AcDbCircle
10
139.71404402785436
20
-24.133072877655707
30
1.1558972250758513e-09
40
1.9999999999999791
210
4.1909198666221039e-12
220
1.6953105586024931e-12
230
1
100
AcDbArc
50
202.02431283704016
51
270.0000000000008
0
ARC
5
119
100
AcDbEntity
8
0
100
AcDbCircle
10
136.00594478430648
20
-25.633072877655575
30
8.2641495699303209e-11
40
2.0000000000000155
210
-4.2073871352531588e-12
220
-1.7019718967502018e-12
230
1
100
AcDbArc
50
22.024312837040164
51
90.00000000000081
0
LINE
5
120
100
AcDbEntity
8
0
100
AcDbLine
10
136.00594478430645
20
-23.633072877655579
30
6.1014304719719803e-10
11
132.54915992519494
21
-23.633072877655607
31
7.7573503176608938e-11
0
ARC
5
121
100
AcDbEntity
8
0
100
AcDbCircle
10
132.54915992519494
20
-25.633072877655625
30
-6.2231104586684518e-09
40
2.0000000000000195
210
-2.3679237792018652e-24
220
2.6660451624138401e-10
230
1
100
AcDbArc
50
90
51
157.97568716295939
0
ARC
5
122
100
AcDbEntity
8
0
100
AcDbCircle
10
128.84106068164709
20
-24.13307287765571
30
6.1076477209098812e-10
40
1.9999999999999973
210
0
220
9.5923269327613666e-13
230
1
100
AcDbArc
50
270
51
337.97568716295876
0
LINE
5
123
100
AcDbEntity
8
0
100
AcDbLine
10
128.84106068164709
20
-26.133072877655707
30
6.1268323747754039e-10
11
98.616868300016961
21
-26.133072877655707
31
-3.7429614963002678e-10
0
ARC
5
124
100
AcDbEntity
8
0
100
AcDbCircle
10
98.616868300016961
20
-28.13307287765571
30
-1.3248183769213752e-08
40
2.0000000000000018
210
0
220
4.9262816048667405e-10
230
1
100
AcDbArc
50
90
51
180
0
LINE
5
125
100
AcDbEntity
8
0
100
AcDbLine
10
96.616868300016975
20
-28.13307287765571
30
6.156142262625508e-10
11
96.616868300017003
21
-31.132070156717777
31
-2.6032509481410671e-10
0
ARC
5
126
100
AcDbEntity
8
0
100
AcDbCircle
10
94.616868300016975
20
-31.132070156717774
30
8.8164345450282051e-13
40
1.9999999999999973
210
9.3693765032822666e-17
220
3.2773783673542074e-12
230
1
100
AcDbArc
50
269.99836202699225
51
360
0
LINE
5
127
100
AcDbEntity
8
0
100
AcDbLine
10
94.616811123972894
20
-33.132070155900493
30
1.0945910844384343e-10
11
83.580842648922584
21
-33.131754659390722
31
1.0874856570808333e-10
0
ARC
5
128
100
AcDbEntity
8
0
100
AcDbCircle
10
83.580785472878532
20
-35.131754658573144
30
-8.9505833318738954e-12
40
1.9999999999996954
210
1.0156505691462546e-16
220
3.5527136773492707e-12
230
1
100
AcDbArc
50
89.99836202699305
51
180.00248483570428
0
LINE
5
129
100
AcDbEntity
8
0
100
AcDbLine
10
81.580785474759352
20
-35.131841395703979
30
1.1583622949729033e-10
11
81.581123690925224
21
-42.930489157429371
31
1.4093615163801587e-10
0
ARC
5
130
100
AcDbEntity
8
0
100
AcDbCircle
10
79.581123692806074
20
-42.930575894560157
30
6.1039173715471406e-10
40
2.0000000000000107
210
0
220
9.6811447747313125e-13
230
1
100
AcDbArc
50
-90
51
0.0024848357042617699
0
LINE
5
131
100
AcDbEntity
8
0
100
AcDbLine
10
79.581123692806074
20
-44.930575894560164
30
6.1232796610966034e-10
11
76.581210431817851
21
-44.930575894560214
31
1.475086719437968e-10
0
ARC
5
132
100
AcDbEntity
8
0
100
AcDbCircle
10
76.581210431817851
20
-46.930575894560192
30
-1.0250494546581293e-08
40
1.999999999999984
210
0
220
2.3142376903706649e-10
230
1
100
AcDbArc
50
90
51
180
0
LINE
5
133
100
AcDbEntity
8
0
100
AcDbLine
10
74.581210431817851
20
-46.930575894560192
30
6.1501026493715472e-10
11
74.581210431817837
21
-65.070014267246222
31
4.652811469441076e-10
0
ARC
5
134
100
AcDbEntity
8
0
100
AcDbCircle
10
72.581210431817837
20
-65.070014267246236
30
3.5174958759607943e-10
40
2.0000000000000022
210
-7.9714013168088612e-13
220
3.0873104545935581e-12
230
1
100
AcDbArc
50
-75.522487814069663
51
0
0
ARC
5
135
100
AcDbEntity
8
0
100
AcDbCircle
10
73.581210431817865
20
-68.942997613453656
30
8.7166212192421649e-10
40
2.0000000000000107
210
7.6605388699137437e-13
220
-2.9669139466149671e-12
230
1
100
AcDbArc
50
104.47751218593027
51
180
0
LINE
5
136
100
AcDbEntity
8
0
100
AcDbLine
10
71.581210431817851
20
-68.942997613453656
30
6.1540106344182277e-10
11
71.58121043181788
21
-72.07001426724625
31
-3.5527136788005009e-14
0
ARC
5
137
100
AcDbEntity
8
0
100
AcDbCircle
10
73.581210431817865
20
-72.07001426724625
30
-2.1852047138466631e-08
40
1.999999999999984
210
-3.0527580463513247e-10
220
-1.3556969086675915e-24
230
1
100
AcDbArc
50
180
51
255.52248781406954
0
ARC
5
138
100
AcDbEntity
8
0
100
AcDbCircle
10
72.581210431817851
20
-75.942997613453656
30
4.4186630236410143e-10
40
2.0000000000000018
210
-2.3270274596143261e-12
220
1.0334077858395236e-26
230
1
100
AcDbArc
50
0
51
75.522487814070132
0
LINE
5
139
100
AcDbEntity
8
0
100
AcDbLine
10
74.581210431817851
20
-75.942997613453656
30
6.1541882701021677e-10
11
74.581210431817851
21
-186.05690798778471
31
3.2663471927207866e-09
0
ARC
5
140
100
AcDbEntity
8
0
100
AcDbCircle
10
72.581210431817851
20
-186.05690798778471
30
-1.9764618636173709e-11
40
1.9999999999999849
210
-7.9491968563164954e-13
220
3.0787107040236843e-12
230
1
100
AcDbArc
50
-75.522487814069549
51
0
0
ARC
5
141
100
AcDbEntity
8
0
100
AcDbCircle
10
73.58121043181788
20
-189.92989133399215
30
1.2521983814206073e-09
40
2.0000000000000213
210
7.9269923958238429e-13
220
-3.0701109534537293e-12
230
1
100
AcDbArc
50
104.47751218593005
51
180
0
LINE
5
142
100
AcDbEntity
8
0
100
AcDbLine
10
71.58121043181788
20
-189.9298913339922
30
6.1538329987342877e-10
11
71.581210431817851
21
-193.05633285578654
31
6.3387517457158538e-10
0
ARC
5
143
100
AcDbEntity
8
0
100
AcDbCircle
10
73.581210431817908
20
-193.05633285578654
30
1.4610104661353776e-09
40
2.0000000000000639
210
1.1555201240298259e-11
220
0
230
1
100
AcDbArc
50
180
51
255.54897711394958
0
ARC
5
144
100
AcDbEntity
8
0
100
AcDbCircle
10
72.583001117586406
20
-196.92977811356175
30
4.4164897256841098e-10
40
2.0000000000000018
210
-2.3270274596143261e-12
220
4.1336311433580944e-26
230
1
100
AcDbArc
50
0
51
75.548977113948624
0
LINE
5
145
100
AcDbEntity
8
0
100
AcDbLine
10
74.583001117586406
20
-196.92977811356178
30
6.1520566418948874e-10
11
74.583001117587045
21
-300.1352215667759
31
9.4248164828059089e-10
0
ARC
5
146
100
AcDbEntity
8
0
100
AcDbCircle
10
72.583001117585781
20
-300.1352215667759
30
-3.7049315758228832e-10
40
2.0000000000000191
210
-7.997903911465716e-13
220
3.0774489818523385e-12
230
1
100
AcDbArc
50
-75.431823885494921
51
0
0
ARC
5
147
100
AcDbEntity
8
0
100
AcDbCircle
10
73.589128410195343
20
-304.00661768072064
30
1.5752701673885689e-09
40
2.0000000000000169
210
7.752158260554637e-13
220
-2.9828904935831394e-12
230
1
100
AcDbArc
50
104.56817611450388
51
180
0
LINE
5
148
100
AcDbEntity
8
0
100
AcDbLine
10
71.589128410195343
20
-304.00661768072064
30
6.1605831547240086e-10
11
71.589128410195443
21
-307.13363433451326
31
-5.3290705182007514e-14
0
ARC
5
149
100
AcDbEntity
8
0
100
AcDbCircle
10
73.5891284101954
20
-307.13363433451326
30
-2.1909800078732703e-08
40
1.9999999999999574
210
-3.0604851986027567e-10
220
0
230
1
100
AcDbArc
50
180
51
255.52248781406973
0
ARC
5
150
100
AcDbEntity
8
0
100
AcDbCircle
10
72.589128410195414
20
-311.00661768072064
30
4.4254065617834621e-10
40
2.0000000000000018
210
-2.3270274596143261e-12
220
4.1336311433580944e-26
230
1
100
AcDbArc
50
0
51
75.522487814070516
0
LINE
5
151
100
AcDbEntity
8
0
100
AcDbLine
10
74.589128410195414
20
-311.00661768072064
30
6.1611160617758287e-10
11
74.589128410195414
21
-324.68378048284671
31
-7.7216455451889487e-10
0
ARC
5
152
100
AcDbEntity
8
0
100
AcDbCircle
10
76.589128410195414
20
-324.68378048284671
30
-5.2316111858868548e-08
40
2.0000000000000018
210
-6.9103833766348482e-10
220
0
230
1
100
AcDbArc
50
180
51
270
0
LINE
5
153
100
AcDbEntity
8
0
100
AcDbLine
10
76.589128410195414
20
-326.68378048284666
30
6.1183058619462827e-10
11
79.593516399362031
21
-326.68378048284637
31
1.0726530774718412e-09
0
ARC
5
154
100
AcDbEntity
8
0
100
AcDbCircle
10
79.593516399362017
20
-328.6837804828466
30
4.2403995116774628e-10
40
2.0000000000000009
210
-2.3359092416146014e-12
220
-1.0130503275940476e-16
230
1
100
AcDbArc
50
0.0024848357042617699
51
89.999999999999588
0
LINE
5
155
100
AcDbEntity
8
0
100
AcDbLine
10
81.593516397481181
20
-328.68369374571586
30
6.1460170286409266e-10
11
81.593871943400018
21
-336.8819339948476
31
1.106137403894536e-09
0
ARC
5
156
100
AcDbEntity
8
0
100
AcDbCircle
10
83.593871941519183
20
-336.8818472577168
30
1.1058531868002319e-09
40
1.9999999999999831
210
1.4210854701838006e-13
220
6.1630438231114655e-18
230
1
100
AcDbArc
50
180.00248483570428
51
269.99836202699225
0
LINE
5
157
100
AcDbEntity
8
0
100
AcDbLine
10
83.593814765475102
20
-338.8818472568995
30
1.1124257071060129e-09
11
94.616925476063201
21
-338.88216238583152
31
1.1127099242003169e-09
0
ARC
5
158
100
AcDbEntity
8
0
100
AcDbCircle
10
94.616868300019121
20
-340.8821623850144
30
1.1187495374542777e-09
40
1.9999999999999929
210
0
220
-0
230
1
100
AcDbArc
50
0
51
89.99836202699224
0
LINE
5
159
100
AcDbEntity
8
0
100
AcDbLine
10
96.616868300019121
20
-340.88216238501434
30
1.1187495374542777e-09
11
96.616868300019135
21
-343.8859156471683
31
1.1094769547526084e-09
0
ARC
5
160
100
AcDbEntity
8
0
100
AcDbCircle
10
98.616868300019092
20
-343.88591564716825
30
2.5167156383705273e-08
40
1.9999999999999574
210
2.4900081996293543e-10
220
8.846286191148804e-24
230
1
100
AcDbArc
50
180
51
270
0
LINE
5
161
100
AcDbEntity
8
0
100
AcDbLine
10
98.616868300019092
20
-345.8859156471683
30
6.1337601664490649e-10
11
128.96807733544165
21
-345.8859156471683
31
1.1094591911842144e-09
0
ARC
5
162
100
AcDbEntity
8
0
100
AcDbCircle
10
128.96807733544168
20
-347.88591564716819
30
6.1172400478426425e-10
40
1.9999999999999356
210
-2.1407449220467468e-13
220
-8.6597395920746446e-14
230
1
100
AcDbArc
50
22.024312837037836
51
90.00000000000081
0
LWPOLYLINE
5
163
100
AcDbEntity
8
0
100
AcDbPolyline
90
8
70
1
43
0.0
10
160.80101563159081
20
-75.234141049583926
10
160.80067257514133
20
-87.234147524679813
42
0.41421356237308982
10
161.80064452669515
20
-88.234176652308648
10
173.80065100179161
20
-88.234519708758285
42
0.41421356237311063
10
174.8006801294203
20
-87.23454775720441
10
174.80102318586998
20
-75.234541282108552
42
0.41421356237314189
10
173.80105123431608
20
-74.23451215447966
10
161.80104475921979
20
-74.234169098030051
42
0.41421356237308465
0
LWPOLYLINE
5
164
100
AcDbEntity
8
0
100
AcDbPolyline
90
8
70
1
43
0.0
10
97.595019494202006
20
-283.78244681739397
10
85.59501301910565
20
-283.78210376094449
42
0.41421356237309509
10
84.594983891476758
20
-284.78207571249834
10
84.594640835027121
20
-296.7820821875946
42
0.41421356237309509
10
85.594612786581052
20
-297.78211131522346
10
97.594619261677423
20
-297.78245437167317
42
0.41421356237307944
10
98.594648389306201
20
-296.78248242011932
10
98.59499144575588
20
-284.78247594502301
42
0.41421356237307422
0
LWPOLYLINE
5
165
100
AcDbEntity
8
0
100
AcDbPolyline
90
8
70
1
43
0.0
10
136.69589430249334
20
-253.92104849611215
10
136.69623735894299
20
-241.92104202101586
42
0.4142135623731002
10
135.69626540738909
20
-240.92101289338697
10
123.69625893229271
20
-240.92066983693729
42
0.41421356237307422
10
122.69622980466382
20
-241.9206417884912
10
122.69588674821426
20
-253.92064826358759
42
0.4142135623731002
10
123.69585869976817
20
-254.92067739121643
10
135.69586517486451
20
-254.921020447666
42
0.41421356237308465
0
LWPOLYLINE
5
166
100
AcDbEntity
8
0
100
AcDbPolyline
90
8
70
1
43
0.0
10
155.74767453857868
20
-192.00905969077564
10
155.7480175950283
20
-180.00905321567927
42
0.41421356237310542
10
154.74804564347448
20
-179.00902408805052
10
142.74803916837817
20
-179.00868103160082
42
0.41421356237310542
10
141.74801004074939
20
-180.00865298315478
10
141.74766698429971
20
-192.00865945825103
42
0.41421356237307944
10
142.74763893585353
20
-193.00868858587992
10
154.74764541094993
20
-193.00903164232946
42
0.41421356237308465
0
LWPOLYLINE
5
167
100
AcDbEntity
8
0
100
AcDbPolyline
90
8
70
1
43
0.0
10
123.70021551667878
20
-102.52059515749259
10
135.70022199177512
20
-102.52093821394226
42
0.41421356237311063
10
136.70025111940402
20
-101.52096626238831
10
136.70059417585355
20
-89.520959787292028
42
0.41421356237307944
10
135.70062222429976
20
-88.520930659663208
10
123.70061574920342
20
-88.520587603213528
42
0.41421356237310542
10
122.70058662157453
20
-89.520559554767431
10
122.70024356512491
20
-101.5205660298637
42
0.41421356237309509
0
LWPOLYLINE
5
168
100
AcDbEntity
8
0
100
AcDbPolyline
90
8
70
1
43
0.0
10
135.69572080527527
20
-259.97102317260237
10
123.69571433017889
20
-259.97068011615278
42
0.41421356237310542
10
122.69568520255001
20
-260.97065206770657
10
122.69534214610044
20
-272.97065854280305
42
0.41421356237308982
10
123.69531409765428
20
-273.97068767043186
10
135.69532057275063
20
-273.97103072688151
42
0.41421356237309509
10
136.6953497003795
20
-272.97105877532761
10
136.69569275682909
20
-260.97105230023118
42
0.41421356237308465
0
LWPOLYLINE
5
169
100
AcDbEntity
8
0
100
AcDbPolyline
90
8
70
1
43
0.0
10
103.65084864341598
20
-79.995009813045826
10
103.65050558696632
20
-91.995016288142153
42
0.41421356237310542
10
104.65047753852025
20
-92.995045415770988
10
116.65048401361658
20
-92.995388472220668
42
0.41421356237310542
10
117.65051314124543
20
-91.995416520666737
10
117.65085619769513
20
-79.995410045570409
42
0.41421356237312362
10
116.65088424614113
20
-78.995380917941588
10
104.65087777104486
20
-78.995037861491909
42
0.4142135623731002
0
LWPOLYLINE
5
170
100
AcDbEntity
8
0
100
AcDbPolyline
90
8
70
1
43
0.0
10
141.74460627756648
20
-299.07121622825088
10
141.74426322108809
20
-311.07122370334775
42
0.41421356237309509
10
142.74423517264214
20
-312.07125283097662
10
154.74424164773853
20
-312.07159588742621
42
0.41421356237309509
10
155.74427077536728
20
-311.07162393587231
10
155.74461383184553
20
-299.07161646077543
42
0.41421356237310542
10
154.74464188029162
20
-298.07158733314657
10
142.74463540519534
20
-298.07124427669692
42
0.41421356237311585
0
LWPOLYLINE
5
171
100
AcDbEntity
8
0
100
AcDbPolyline
90
8
70
1
43
0.0
10
141.74392552489567
20
-322.8837300772708
10
141.74358246844579
20
-334.88373655236683
42
0.41421356237309509
10
142.74355441999978
20
-335.88376567999609
10
154.74356089509615
20
-335.88410873644534
42
0.4142135623730534
10
155.7435900227249
20
-334.88413678489167
10
155.7439330791747
20
-322.88413030979535
42
0.41421356237308982
10
154.74396112762074
20
-321.8841011821666
10
142.74395465252437
20
-321.88375812571672
42
0.41421356237315754
0
LWPOLYLINE
5
172
100
AcDbEntity
8
0
100
AcDbPolyline
90
8
70
1
43
0.0
10
97.596653300543522
20
-226.63241597974763
10
85.596646825447138
20
-226.6320729232979
42
0.41421356237311063
10
84.596617697818246
20
-227.63204487485189
10
84.595185437140941
20
-277.73207190837928
42
0.41421356237308465
10
85.595157388694858
20
-278.73210103600809
10
97.595163863791171
20
-278.73244409245774
42
0.414213562373069
10
98.595192991420078
20
-277.73247214090395
10
98.596625252097411
20
-227.63244510737655
42
0.41421356237308982
0
LWPOLYLINE
5
173
100
AcDbEntity
8
0
100
AcDbPolyline
90
8
70
1
43
0.0
10
117.64561172222091
20
-263.44550903360607
10
117.64595477867056
20
-251.4455025585097
42
0.41421356237308982
10
116.64598282711668
20
-250.44547343088084
10
104.64597635202031
20
-250.44513037443122
42
0.4142135623731002
10
103.64594722439148
20
-251.44510232598506
10
103.64560416794185
20
-263.4451088010814
42
0.41421356237308465
10
104.64557611949571
20
-264.44513792871027
10
116.64558259459201
20
-264.44548098515986
42
0.414213562373069
0
LWPOLYLINE
5
174
100
AcDbEntity
8
0
100
AcDbPolyline
90
8
70
1
43
0.0
10
155.74712993646497
20
-211.05906996999101
10
155.74747299291454
20
-199.05906349489467
42
0.41421356237310542
10
154.74750104136069
20
-198.05903436726589
10
142.74749456626432
20
-198.0586913108161
42
0.41421356237312101
10
141.74746543863552
20
-199.05866326237015
10
141.74712238218589
20
-211.05866973746654
42
0.41421356237308465
10
142.74709433373971
20
-212.05869886509518
10
154.74710080883605
20
-212.05904192154489
42
0.41421356237307422
0
LWPOLYLINE
5
175
100
AcDbEntity
8
0
100
AcDbPolyline
90
8
70
1
43
0.0
10
141.74909924497706
20
-141.90863242472375
10
141.7487561885273
20
-153.90863889982012
42
0.41421356237311063
10
142.74872814008125
20
-154.90866802744898
10
154.7487346151776
20
-154.9090110838986
42
0.41421356237309509
10
155.7487637428064
20
-153.9090391323447
10
155.74910679925614
20
-141.90903265724836
42
0.41421356237313667
10
154.74913484770212
20
-140.90900352961953
10
142.74912837260581
20
-140.90866047316993
42
0.41421356237308982
0
LWPOLYLINE
5
176
100
AcDbEntity
8
0
100
AcDbPolyline
90
8
70
1
43
0.0
10
173.79560521317788
20
-264.73461494663405
10
161.79559873808148
20
-264.73427189018435
42
0.41421356237310542
10
160.79556961045256
20
-265.73424384173808
10
160.79522655400294
20
-277.73425031683462
42
0.41421356237306384
10
161.79519850555678
20
-278.73427944446325
10
173.79520498065324
20
-278.73462250091313
42
0.41421356237309509
10
174.79523410828199
20
-277.73465054935923
10
174.7955771647317
20
-265.73464407426275
42
0.41421356237309509
0
LWPOLYLINE
5
177
100
AcDbEntity
8
0
100
AcDbPolyline
90
8
70
1
43
0.0
10
116.6444851713036
20
-302.83300169872336
10
104.64447869620726
20
-302.83265864227371
42
0.41421356237311063
10
103.64444956857852
20
-303.83263059382767
10
103.64410651212872
20
-315.83263706892382
42
0.41421356237308465
10
104.6440784636826
20
-316.83266619655274
10
116.64408493877907
20
-316.83300925300239
42
0.41421356237310542
10
117.64411406640782
20
-315.83303730144854
10
117.6444571228575
20
-303.83303082635229
42
0.41421356237311585
0
LINE
5
178
100
AcDbEntity
8
0
100
AcDbLine
10
158.79416734578913
20
-314.74721311265478
30
1.0334133548894897e-09
11
158.79431028597662
21
-309.74721041469775
31
1.0170175812618254e-09
0
ARC
5
179
100
AcDbEntity
8
0
100
AcDbCircle
10
159.79431082556798
20
-309.74723900273523
30
4.6075032181073751e-12
40
1.000000539999957
210
9.343980190070303e-17
220
3.2684948181737702e-12
230
1
100
AcDbArc
50
89.998362026993718
51
179.99836202708235
0
ARC
5
180
100
AcDbEntity
8
0
100
AcDbCircle
10
159.79436800164291
20
-307.74723792355269
30
1.0091871793503416e-11
40
1.0000005399998504
210
9.2931976948137479e-17
220
3.2507312593796939e-12
230
1
100
AcDbArc
50
269.99836202699214
51
359.99836202708235
0
LINE
5
181
100
AcDbEntity
8
0
100
AcDbLine
10
160.79436854123423
20
-307.74726651159017
30
1.0104805880928325e-09
11
160.79479381687969
21
-292.87125848462898
31
9.6159524787253758e-10
0
ARC
5
182
100
AcDbEntity
8
0
100
AcDbCircle
10
159.79479327728825
20
-292.87122989659156
30
9.6159524787253758e-10
40
1.0000005400000636
210
0
220
0
230
1
100
AcDbArc
50
-0.0016379729176161022
51
89.998362026992098
0
ARC
5
183
100
AcDbEntity
8
0
100
AcDbCircle
10
159.79485045336324
20
-290.87122881740873
30
9.5504049113515066e-10
40
1.0000005400000103
210
0
220
0
230
1
100
AcDbArc
50
179.99836202708235
51
269.99836202699049
0
LINE
5
184
100
AcDbEntity
8
0
100
AcDbLine
10
158.79484991377186
20
-290.87120022937131
30
9.5504049113515066e-10
11
158.79499285395926
21
-285.87119753141462
31
9.3862695393909235e-10
0
ARC
5
185
100
AcDbEntity
8
0
100
AcDbCircle
10
159.79499339355058
20
-285.8712261194521
30
-8.0474526969461852e-13
40
1.000000539999957
210
9.394762696940858e-17
220
3.2862583769681927e-12
230
1
100
AcDbArc
50
89.998362026992098
51
179.99836202708235
0
LINE
5
186
100
AcDbEntity
8
0
100
AcDbLine
10
159.79502198158806
20
-284.87122557986078
30
9.3534069378620188e-10
11
172.79502899627599
21
-284.87159722434785
31
9.3535845735459588e-10
0
ARC
5
187
100
AcDbEntity
8
0
100
AcDbCircle
10
172.79500040823845
20
-285.87159776393923
30
9.3862695393909235e-10
40
1.000000540000028
210
-1.7763558794421401e-14
220
5.078250096987475e-19
230
1
100
AcDbArc
50
-0.0016379729176161022
51
89.998362026988843
0
LINE
5
188
100
AcDbEntity
8
0
100
AcDbLine
10
173.79500094782983
20
-285.87162635197666
30
9.3864471750748635e-10
11
173.79480923790845
21
-292.5775789704486
31
9.6063601517926145e-10
0
ARC
5
189
100
AcDbEntity
8
0
100
AcDbCircle
10
174.79480977749972
20
-292.57760755848608
30
9.6065377874765545e-10
40
1.0000005399999214
210
-1.7763558794423294e-14
220
5.0782501032994388e-19
230
1
100
AcDbArc
50
179.99836202708235
51
239.99836753957231
0
ARC
5
190
100
AcDbEntity
8
0
100
AcDbCircle
10
173.79475972196971
20
-294.30963090504844
30
9.6633812063373625e-10
40
1.0000005399999214
210
0
220
0
230
1
100
AcDbArc
50
-0.0016379729176161022
51
59.998362027172504
0
LINE
5
191
100
AcDbEntity
8
0
100
AcDbLine
10
174.79476026156101
20
-294.30965949308592
30
9.6633812063373625e-10
11
174.79441685542977
21
-306.30966576627208
31
1.0057554789000278e-09
0
ARC
5
192
100
AcDbEntity
8
0
100
AcDbCircle
10
173.79441666552003
20
-306.30963738014481
30
4.7950447048180407e-12
40
1.0000001903126241
210
-1.4210153311106274e-12
220
2.4614321082545266e-12
230
1
100
AcDbArc
50
299.9983735945595
51
359.99837359504147
0
ARC
5
193
100
AcDbEntity
8
0
100
AcDbCircle
10
174.7943676892009
20
-308.04171690278156
30
-1.4784995335168616e-12
40
1.0000001903118052
210
-1.4298966769315979e-12
220
2.4768160589329384e-12
230
1
100
AcDbArc
50
119.99837359456656
51
179.99836202708235
0
LINE
5
194
100
AcDbEntity
8
0
100
AcDbLine
10
173.79436749929769
20
-308.04168831475403
30
1.0114220572177146e-09
11
173.79417543965988
21
-314.74764193321687
31
1.0334311184578837e-09
0
ARC
5
195
100
AcDbEntity
8
0
100
AcDbCircle
10
172.79417490006836
20
-314.74761334517916
30
-8.7686535735031664e-13
40
1.0000005399999925
210
9.3947626911026253e-17
220
3.286258376968076e-12
230
1
100
AcDbArc
50
269.99836202699214
51
359.99836202708235
0
LINE
5
196
100
AcDbEntity
8
0
100
AcDbLine
10
172.79414631203088
20
-315.74761388477049
30
1.0367351421791682e-09
11
159.79413929734304
21
-315.74724224028364
31
1.0367173786107742e-09
0
ARC
5
197
100
AcDbEntity
8
0
100
AcDbCircle
10
159.79416788538057
20
-314.74724170069214
30
1.0334488820262777e-09
40
1.0000005400000991
210
-3.5527117588840278e-14
220
1.0156500181351748e-18
230
1
100
AcDbArc
50
179.99836202708235
51
269.99836202698884
0
LINE
5
198
100
AcDbEntity
8
0
100
AcDbLine
10
121.69506949842133
20
-282.48888509073083
30
9.2752472369284078e-10
11
134.69507651310909
21
-282.48925673521813
31
9.2750696012444678e-10
0
ARC
5
199
100
AcDbEntity
8
0
100
AcDbCircle
10
134.69504792507163
20
-283.4892572748094
30
9.3079322027733724e-10
40
1.0000005399999747
210
-1.7763558794422348e-14
220
5.0782500969880171e-19
230
1
100
AcDbArc
50
-0.0016379729176161022
51
89.998362026993718
0
LINE
5
200
100
AcDbEntity
8
0
100
AcDbLine
10
135.69504846466296
20
-283.48928586284683
30
9.3081098384573124e-10
11
135.69485675474166
21
-290.19523848131917
31
9.5282004508590035e-10
0
ARC
5
201
100
AcDbEntity
8
0
100
AcDbCircle
10
136.69485729433302
20
-290.19526706935659
30
9.5283780865429435e-10
40
1.0000005399999925
210
-1.7763558794422032e-14
220
5.0782501032987166e-19
230
1
100
AcDbArc
50
179.99836202708235
51
239.99836753959735
0
ARC
5
202
100
AcDbEntity
8
0
100
AcDbCircle
10
135.69480723880278
20
-291.92729041591872
30
9.5852215054037515e-10
40
1.0000005399998859
210
0
220
0
230
1
100
AcDbArc
50
-0.0016379729176161022
51
59.998362027129652
0
LINE
5
203
100
AcDbEntity
8
0
100
AcDbLine
10
136.69480777839402
20
-291.9273190039562
30
9.5852215054037515e-10
11
136.69446437226202
21
-303.92732527714259
31
9.979039816698787e-10
0
ARC
5
204
100
AcDbEntity
8
0
100
AcDbCircle
10
135.6944641823531
20
-303.9272968910152
30
5.7001424145009626e-11
40
1.0000001903118141
210
-1.4210153311121723e-12
220
2.4614321082562928e-12
230
1
100
AcDbArc
50
299.99837359456819
51
359.99837359504147
0
ARC
5
205
100
AcDbEntity
8
0
100
AcDbCircle
10
136.69441520603417
20
-305.6593764136519
30
5.7001424145877132e-11
40
1.0000001903127307
210
-1.4210153311109299e-12
220
2.4614321082540019e-12
230
1
100
AcDbArc
50
119.99837359456936
51
179.99836202708235
0
LINE
5
206
100
AcDbEntity
8
0
100
AcDbLine
10
135.69441501613008
20
-305.65934782562442
30
1.0036060871243535e-09
11
135.69422295649289
21
-312.36530144408709
31
1.0256151483645226e-09
0
ARC
5
207
100
AcDbEntity
8
0
100
AcDbCircle
10
134.69422241690162
20
-312.36527285604967
30
-9.0295559845731291e-13
40
1.000000539999957
210
9.394762696940858e-17
220
3.2862583769681927e-12
230
1
100
AcDbArc
50
269.99836202699214
51
359.99836202708235
0
LINE
5
208
100
AcDbEntity
8
0
100
AcDbLine
10
134.69419382886414
20
-313.365273395641
30
1.0288836449490191e-09
11
121.69418681417633
21
-313.36490175115381
31
1.0288836449490191e-09
0
ARC
5
209
100
AcDbEntity
8
0
100
AcDbCircle
10
121.69421540221386
20
-312.36490121156248
30
1.0256151483645226e-09
40
1.0000005399999747
210
-1.7763558794422348e-14
220
5.0782500969880171e-19
230
1
100
AcDbArc
50
179.99836202708235
51
269.99836202698964
0
LINE
5
210
100
AcDbEntity
8
0
100
AcDbLine
10
120.69421486262252
20
-312.36487262352506
30
1.0255973847961286e-09
11
120.69435780280992
21
-307.36486992556826
31
1.0092016111684643e-09
0
ARC
5
211
100
AcDbEntity
8
0
100
AcDbCircle
10
121.69435834240122
20
-307.36489851360568
30
4.5746406165863804e-12
40
1.000000539999957
210
9.3439801958763131e-17
220
3.2684948181737702e-12
230
1
100
AcDbArc
50
89.998362026991273
51
179.99836202708235
0
ARC
5
212
100
AcDbEntity
8
0
100
AcDbCircle
10
121.69441551847615
20
-305.36489743442297
30
-8.6742846161166375e-13
40
1.000000540000028
210
9.394762685264394e-17
220
3.2862583769679593e-12
230
1
100
AcDbArc
50
269.99836202699453
51
359.99836202708235
0
LINE
5
213
100
AcDbEntity
8
0
100
AcDbLine
10
122.69441605806755
20
-305.36492602246039
30
1.0026290908626834e-09
11
122.69484133371293
21
-290.48891799549926
31
9.5377927777917648e-10
0
ARC
5
214
100
AcDbEntity
8
0
100
AcDbCircle
10
121.69484079412163
20
-290.4888894074619
30
9.5377927777917648e-10
40
1.0000005399999392
210
0
220
0
230
1
100
AcDbArc
50
-0.0016379729176161022
51
89.998362026992908
0
ARC
5
215
100
AcDbEntity
8
0
100
AcDbCircle
10
121.69489797019651
20
-288.48888832827913
30
9.4722452104178956e-10
40
1.0000005399999925
210
0
220
0
230
1
100
AcDbArc
50
179.99836202708235
51
269.99836202699618
0
LINE
5
216
100
AcDbEntity
8
0
100
AcDbLine
10
120.69489743060515
20
-288.48885974024165
30
9.4722452104178956e-10
11
120.69504037079255
21
-283.48885704228474
31
9.3081098384573124e-10
0
ARC
5
217
100
AcDbEntity
8
0
100
AcDbCircle
10
121.6950409103839
20
-283.48888563032216
30
-7.9530837399965111e-13
40
1.000000539999957
210
9.3947626852657289e-17
220
3.2862583769681927e-12
230
1
100
AcDbArc
50
89.998362026994542
51
179.99836202708235
0
LWPOLYLINE
5
218
100
AcDbEntity
8
0
100
AcDbPolyline
90
8
70
1
43
0.0
10
117.64615632433474
20
-244.39549875439056
10
117.64649938078441
20
-232.39549227929416
42
0.41421356237304818
10
116.64652742923056
20
-231.39546315166547
10
104.64652095413419
20
-231.3951200952157
42
0.4142135623731002
10
103.64649182650527
20
-232.39509204676963
10
103.64614877005563
20
-244.39509852186589
42
0.4142135623731002
10
104.64612072160955
20
-245.39512764949481
10
116.64612719670592
20
-245.39547070594435
42
0.41421356237307422
0
LWPOLYLINE
5
219
100
AcDbEntity
8
0
100
AcDbPolyline
90
8
70
1
43
0.0
10
123.69967091456495
20
-121.57060543670801
10
135.6996773896613
20
-121.57094849315772
42
0.41421356237308982
10
136.69970651729014
20
-120.57097654160386
10
136.70004957373979
20
-108.57097006650744
42
0.4142135623731002
10
135.70007762218592
20
-107.57094093887866
10
123.70007114708957
20
-107.57059788242901
42
0.41421356237309509
10
122.70004201946074
20
-108.57056983398283
10
122.69969896301107
20
-120.57057630907926
42
0.41421356237309509
0
LWPOLYLINE
5
220
100
AcDbEntity
8
0
100
AcDbPolyline
90
8
70
1
43
0.0
10
141.75195840607472
20
-41.896078458842958
10
141.75161534962498
20
-53.896084933939392
42
0.4142135623730977
10
142.75158730117883
20
-54.896114061568255
10
154.7515937762752
20
-54.896457118017878
42
0.4142135623730977
10
155.75162290390404
20
-53.896485166463997
10
155.75196596035369
20
-41.89647869136757
42
0.41421356237308982
10
154.75199400879984
20
-40.896449563738713
10
142.75198753370344
20
-40.896106507289133
42
0.41421356237309243
0
LWPOLYLINE
5
221
100
AcDbEntity
8
0
100
AcDbPolyline
90
8
70
1
43
0.0
10
142.74818353796744
20
-173.95867830666444
10
154.74819001306375
20
-173.95902136311418
42
0.41421356237309509
10
155.74821914069264
20
-172.95904941156022
10
155.74856219714221
20
-160.95904293646379
42
0.41421356237308465
10
154.7485902455883
20
-159.95901380883501
10
142.74858377049196
20
-159.95867075238533
42
0.41421356237310542
10
141.74855464286316
20
-160.95864270393929
10
141.74821158641353
20
-172.9586491790356
42
0.41421356237310542
0
LWPOLYLINE
5
222
100
AcDbEntity
8
0
100
AcDbPolyline
90
8
70
1
43
0.0
10
141.74692083652167
20
-218.10867354158563
10
141.74657778007207
20
-230.10868001668211
42
0.4142135623731002
10
142.74654973162592
20
-231.10870914431081
10
154.74655620672229
20
-231.1090522007606
42
0.41421356237309509
10
155.74658533435118
20
-230.10908024920667
10
155.74692839080075
20
-218.10907377411016
42
0.41421356237308465
10
154.74695643924684
20
-217.10904464648144
10
142.74694996415059
20
-217.10870159003176
42
0.4142135623731002
0
LWPOLYLINE
5
223
100
AcDbEntity
8
0
100
AcDbPolyline
90
8
70
1
43
0.0
10
160.79774801890781
20
-189.53420272487634
10
160.79740496245833
20
-201.53420919997268
42
0.41421356237308465
10
161.79737691401212
20
-202.53423832760137
10
173.79738338910869
20
-202.53458138405114
42
0.4142135623730222
10
174.79741251673738
20
-201.53460943249726
10
174.79775557318709
20
-189.53460295740089
42
0.41421356237312629
10
173.79778362163319
20
-188.53457382977209
10
161.7977771465367
20
-188.53423077332226
42
0.41421356237311585
0
LWPOLYLINE
5
224
100
AcDbEntity
8
0
100
AcDbPolyline
90
8
70
1
43
0.0
10
97.601350493775371
20
-62.326077321514674
10
85.601344018678972
20
-62.325734265065044
42
0.41421356237309509
10
84.601314891050123
20
-63.325706216618926
10
84.600767608807743
20
-82.469466546421614
42
0.41421356237311063
10
85.600739560361703
20
-83.469495674050449
10
97.60074603545803
20
-83.469838730500129
42
0.41421356237339679
10
98.600775163086865
20
-82.469866778945203
10
98.601322445329203
20
-63.326106449143523
42
0.41421356237307683
0
LWPOLYLINE
5
225
100
AcDbEntity
8
0
100
AcDbPolyline
90
8
70
1
43
0.0
10
122.69786361100546
20
-184.7706109508448
10
122.69752055455571
20
-196.77061742594111
42
0.414213562373069
10
123.6974925061096
20
-197.77064655356995
10
135.69749898120602
20
-197.77098961001954
42
0.41421356237307944
10
136.69752810883489
20
-196.77101765846569
10
136.69787116528451
20
-184.77101118336932
42
0.4142135623731002
10
135.69789921373061
20
-183.77098205574055
10
123.69789273863418
20
-183.77063899929087
42
0.41421356237310542
0
LWPOLYLINE
5
226
100
AcDbEntity
8
0
100
AcDbPolyline
90
8
70
1
43
0.0
10
161.80173373092282
20
-50.134156093878218
10
173.80174020604773
20
-50.134498150327353
42
0.41421356237310542
10
174.80176833364743
20
-49.13452719874541
10
174.80211239009753
20
-37.134520723677618
42
0.41421356237306384
10
173.8021404385438
20
-36.134491596048804
10
161.80213396344743
20
-36.134148539599124
42
0.41421356237308854
10
160.80210483581857
20
-37.134120491153013
10
160.80176177936889
20
-49.134126966249383
42
0.4142135623730977
0
LWPOLYLINE
5
227
100
AcDbEntity
8
0
100
AcDbPolyline
90
8
70
1
43
0.0
10
174.79850172099347
20
-163.43458787406564
10
174.79884477741462
20
-151.43458239896984
42
0.41421356237311585
10
173.79887282586077
20
-150.43455327134095
10
161.7988663507644
20
-150.43421021489141
42
0.41421356237308982
10
160.79883722313556
20
-151.43418216644523
10
160.79849416671451
20
-163.43418764154106
42
0.41421356237310542
10
161.79846611826846
20
-164.43421676916995
10
173.79847259336475
20
-164.43455982561957
42
0.41421356237310542
0
LWPOLYLINE
5
228
100
AcDbEntity
8
0
100
AcDbPolyline
90
8
70
1
43
0.0
10
122.69677440677775
20
-222.87063150927568
10
122.69643135032807
20
-234.87063798437202
42
0.41421356237309509
10
123.69640330188196
20
-235.87066711200092
10
135.6964097769783
20
-235.87101016845048
42
0.41421356237311585
10
136.69643890460708
20
-234.87103821689655
10
136.6967819610569
20
-222.87103174180021
42
0.41421356237310542
10
135.69681000950288
20
-221.8710026141714
10
123.69680353440654
20
-221.87065955772186
42
0.41421356237308465
0
LWPOLYLINE
5
229
100
AcDbEntity
8
0
100
AcDbPolyline
90
8
70
1
43
0.0
10
103.65030404130218
20
-99.04502009226124
10
103.64996098485253
20
-111.04502656735768
42
0.4142135623731002
10
104.6499329364064
20
-112.0450556949865
10
116.64993941150271
20
-112.04539875143615
42
0.41421356237308465
10
117.64996853913161
20
-111.04542679988226
10
117.6503115955812
20
-99.045420324785852
42
0.41421356237307944
10
116.6503396440274
20
-98.045391197157073
10
104.65033316893098
20
-98.04504814070738
42
0.41421356237308982
0
LWPOLYLINE
5
230
100
AcDbEntity
8
0
100
AcDbPolyline
90
8
70
1
43
0.0
10
141.75073305131852
20
-84.758601587077393
10
141.7503899948689
20
-96.758608062173721
42
0.41421356237308982
10
142.75036194642271
20
-97.758637189802528
10
154.75036842151911
20
-97.758980246252221
42
0.41421356237310542
10
155.75039754914786
20
-96.759008294698333
10
155.75074060559757
20
-84.759001819601991
42
0.41421356237312101
10
154.75076865404364
20
-83.758972691973128
10
142.75076217894733
20
-83.758629635524471
42
0.41421356237280893
0
LWPOLYLINE
5
231
100
AcDbEntity
8
0
100
AcDbPolyline
90
8
70
1
43
0.0
10
136.69807271094868
20
-177.72100737925024
10
136.69841576739833
20
-165.72100090415387
42
0.41421356237308982
10
135.69844381584443
20
-164.72097177652503
10
123.69843734074803
20
-164.72062872007541
42
0.41421356237307422
10
122.69840821311922
20
-165.72060067162923
10
122.69806515666959
20
-177.72060714672568
42
0.41421356237307944
10
123.69803710822345
20
-178.7206362743544
10
135.69804358331987
20
-178.7209793308042
42
0.41421356237311063
0
LWPOLYLINE
5
232
100
AcDbEntity
8
0
100
AcDbPolyline
90
8
70
1
43
0.0
10
104.64353386156886
20
-335.88267647576833
10
116.64354033666521
20
-335.88301953221765
42
0.414213562373069
10
117.64356946429396
20
-334.88304758066386
10
117.64391252074364
20
-322.8830411055676
42
0.41421356237311585
10
116.64394056918974
20
-321.88301197793885
10
104.64393409409345
20
-321.88266892148903
42
0.41421356237309509
10
103.64390496646448
20
-322.88264087304304
10
103.64356191001485
20
-334.88264734813924
42
0.41421356237313667
0
LWPOLYLINE
5
233
100
AcDbEntity
8
0
100
AcDbPolyline
90
8
70
1
43
0.0
10
85.59822077558519
20
-171.57579321542102
10
97.598227250681546
20
-171.57613627187078
42
0.41421356237311063
10
98.598256378310438
20
-170.57616432031679
10
98.598803660552775
20
-151.43240399051453
42
0.41421356237308465
10
97.598831708998858
20
-150.43237486288561
10
85.598825233902488
20
-150.43203180643604
42
0.41421356237310542
10
84.59879610627371
20
-151.43200375798986
10
84.598248824031202
20
-170.57576408779224
42
0.41421356237309509
0
LWPOLYLINE
5
234
100
AcDbEntity
8
0
100
AcDbPolyline
90
8
70
1
43
0.0
10
104.64720992583722
20
-207.29510709106367
10
116.64721640093364
20
-207.29545014751329
42
0.41421356237306384
10
117.64724552856239
20
-206.29547819595956
10
117.64758858501203
20
-194.29547172086328
42
0.41421356237307422
10
116.64761663345817
20
-193.29544259323444
10
104.64761015836187
20
-193.29509953678468
42
0.41421356237313145
10
103.64758103073291
20
-194.29507148833878
10
103.6472379742834
20
-206.29507796343501
42
0.41421356237308465
0
LWPOLYLINE
5
235
100
AcDbEntity
8
0
100
AcDbPolyline
90
8
70
1
43
0.0
10
117.6483347327901
20
-168.19545763752865
10
117.64867778923974
20
-156.19545116243228
42
0.41421356237309509
10
116.64870583768582
20
-155.19542203480347
10
104.6486993625895
20
-155.19507897835382
42
0.41421356237308982
10
103.64867023496068
20
-156.19505092990772
10
103.64832717851101
20
-168.19505740500406
42
0.41421356237308982
10
104.64829913006488
20
-169.19508653263281
10
116.64830560516126
20
-169.19542958908252
42
0.41421356237308465
0
LWPOLYLINE
5
236
100
AcDbEntity
8
0
100
AcDbPolyline
90
8
70
1
43
0.0
10
161.79683231189827
20
-221.58424860681689
10
173.79683878699478
20
-221.58459166326651
42
0.4142135623730534
10
174.79686791462353
20
-220.5846197117128
10
174.7972109710733
20
-208.58461323661626
42
0.41421356237311585
10
173.79723901951931
20
-207.58458410898757
10
161.79723254442291
20
-207.58424105253783
42
0.41421356237308465
10
160.79720341679408
20
-208.58421300409174
10
160.7968603603444
20
-220.58421947918816
42
0.41421356237309509
0
LWPOLYLINE
5
237
100
AcDbEntity
8
0
100
AcDbPolyline
90
8
70
1
43
0.0
10
116.64925043979969
20
-136.14541175558799
10
104.64924396470332
20
-136.14506869913839
42
0.41421356237311063
10
103.64921483707448
20
-137.14504065069215
10
103.64887178062482
20
-149.14504712578855
42
0.41421356237309509
10
104.64884373217872
20
-150.14507625341741
10
116.64885020727509
20
-150.14541930986712
42
0.41421356237308465
10
117.64887933490398
20
-149.14544735831322
10
117.6492223913535
20
-137.14544088321679
42
0.41421356237308465
0
LWPOLYLINE
5
238
100
AcDbEntity
8
0
100
AcDbPolyline
90
8
70
1
43
0.0
10
117.64779013067626
20
-187.24546791674419
10
117.64813318712589
20
-175.24546144164782
42
0.41421356237309509
10
116.64816123557202
20
-174.24543231401896
10
104.64815476047569
20
-174.24508925756939
42
0.41421356237311063
10
103.64812563284687
20
-175.24506120912326
10
103.64778257639716
20
-187.24506768421952
42
0.41421356237310542
10
104.64775452795107
20
-188.24509681184844
10
116.64776100304738
20
-188.24543986829809
42
0.41421356237308465
0
LWPOLYLINE
5
239
100
AcDbEntity
8
0
100
AcDbPolyline
90
8
70
1
43
0.0
10
104.64666532372343
20
-226.34511737027921
10
116.64667179881977
20
-226.34546042672892
42
0.41421356237308465
10
117.64670092644852
20
-225.34548847517499
10
117.64704398289825
20
-213.34548200007879
42
0.41421356237310542
10
116.64707203134432
20
-212.34545287244987
10
104.64706555624795
20
-212.34510981600022
42
0.41421356237313145
10
103.64703642861917
20
-213.34508176755418
10
103.64669337216952
20
-225.34508824265043
42
0.41421356237310542
0
LWPOLYLINE
5
240
100
AcDbEntity
8
0
100
AcDbPolyline
90
8
70
1
43
0.0
10
174.79959092519252
20
-125.33456831563535
10
174.79993398164223
20
-113.33456184053895
42
0.41421356237312101
10
173.79996203008832
20
-112.33453271291013
10
161.7999555549921
20
-112.33418965646052
42
0.4142135623731002
10
160.79992642736315
20
-113.33416160801443
10
160.79958337091367
20
-125.33416808311075
42
0.41421356237307422
10
161.79955532246743
20
-126.33419721073952
10
173.7995617975638
20
-126.33454026718921
42
0.41421356237308465
0
LWPOLYLINE
5
241
100
AcDbEntity
8
0
100
AcDbPolyline
90
8
70
1
43
0.0
10
161.80118912880897
20
-69.18416637309366
10
173.80119560390528
20
-69.184509429543311
42
0.41421356237308204
10
174.80122473153403
20
-68.184537477989437
10
174.8015677879838
20
-56.184531002893053
42
0.41421356237312884
10
173.80159583642984
20
-55.184501875264267
10
161.8015893613335
20
-55.184158818814552
42
0.41421356237308465
10
160.80156023370478
20
-56.184130770368469
10
160.80121717725515
20
-68.184137245464811
42
0.41421356237307683
0
LINE
5
242
100
AcDbEntity
8
0
100
AcDbLine
10
99.600166420129582
20
-103.78240686702361
30
3.4074076893375604e-10
11
86.6001594054419
21
-103.7820352225375
31
3.4072300536536204e-10
0
ARC
5
243
100
AcDbEntity
8
0
100
AcDbCircle
10
86.600187993479381
20
-102.78203468294609
30
3.3747227234925958e-10
40
1.0000005400000103
210
-1.7763558794421717e-14
220
5.078250109609417e-19
230
1
100
AcDbArc
50
179.99836202708235
51
269.99836202699214
0
LINE
5
244
100
AcDbEntity
8
0
100
AcDbLine
10
85.600187453888012
20
-102.7820060949086
30
3.3745450878086558e-10
11
85.600242105639239
21
-100.87030506337081
31
3.3116620556938869e-10
0
ARC
5
245
100
AcDbEntity
8
0
100
AcDbCircle
10
84.600241566047899
20
-100.87027647533334
30
3.3116620556938869e-10
40
1.0000005399999747
210
0
220
0
230
1
100
AcDbArc
50
-0.0016379729176161022
51
59.998362027147749
0
ARC
5
246
100
AcDbEntity
8
0
100
AcDbCircle
10
85.600291621549545
20
-99.138254128771578
30
3.2548186368330789e-10
40
1.0000005400000103
210
0
220
0
230
1
100
AcDbArc
50
179.99836202708235
51
239.99833889167851
0
LINE
5
247
100
AcDbEntity
8
0
100
AcDbLine
10
84.600291081958176
20
-99.138225540734126
30
3.2548186368330789e-10
11
84.600634138407855
21
-87.138219065638808
31
2.8608226898541034e-10
0
ARC
5
248
100
AcDbEntity
8
0
100
AcDbCircle
10
85.600634677999196
20
-87.138247653675222
30
-2.6848534431359448e-13
40
1.0000005399999925
210
9.3947626852650608e-17
220
3.286258376968076e-12
230
1
100
AcDbArc
50
89.998362026994542
51
179.99836202708235
0
LINE
5
249
100
AcDbEntity
8
0
100
AcDbLine
10
85.600663266036634
20
-86.138247114083867
30
2.8279600883251987e-10
11
97.600669741133061
21
-86.13859017053349
31
2.8277824526412587e-10
0
ARC
5
250
100
AcDbEntity
8
0
100
AcDbCircle
10
97.600641153095552
20
-87.138590710124873
30
2.8606450541701633e-10
40
1.0000005400000103
210
-1.7763558794421717e-14
220
5.0782501064539763e-19
230
1
100
AcDbArc
50
-0.0016379729176161022
51
89.998362026990463
0
LINE
5
251
100
AcDbEntity
8
0
100
AcDbLine
10
98.600641692686935
20
-87.138619298162354
30
2.8608226898541034e-10
11
98.600394584837986
21
-95.782373962255207
31
3.1446845127902634e-10
0
ARC
5
252
100
AcDbEntity
8
0
100
AcDbCircle
10
99.600395124429355
20
-95.782402550292701
30
3.1448621484742034e-10
40
1.0000005400000103
210
-1.7763558794421717e-14
220
5.0782501064539763e-19
230
1
100
AcDbArc
50
179.99836202708235
51
269.99836202699214
0
ARC
5
253
100
AcDbEntity
8
0
100
AcDbCircle
10
99.600337948354408
20
-97.782403629475439
30
3.2104097158480727e-10
40
1.0000005400000103
210
0
220
0
230
1
100
AcDbArc
50
-0.0016379729176161022
51
89.998362026992908
0
LINE
5
254
100
AcDbEntity
8
0
100
AcDbLine
10
100.60033848794578
20
-97.782432217512905
30
3.2104097158480727e-10
11
100.60019554775846
21
-102.78243491546974
31
3.3747227234925958e-10
0
ARC
5
255
100
AcDbEntity
8
0
100
AcDbCircle
10
99.600195008167077
20
-102.78240632743223
30
-2.1491721223699985e-12
40
1.0000005400000103
210
9.4455452038735159e-17
220
3.3040219357624395e-12
230
1
100
AcDbArc
50
269.99836202699129
51
359.99836202708235
0
LWPOLYLINE
5
256
100
AcDbEntity
8
0
100
AcDbPolyline
90
8
70
1
43
0.0
10
103.64519839648486
20
-277.63886645990635
10
103.64485534003535
20
-289.63887293500255
42
0.4142135623731002
10
104.64482729158917
20
-290.63890206263147
10
116.64483376668554
20
-290.63924511908118
42
0.41421356237307944
10
117.64486289431447
20
-289.63927316752728
10
117.64520595076399
20
-277.63926669243097
42
0.41421356237308982
10
116.64523399921012
20
-276.6392375648021
10
104.64522752411386
20
-276.63889450835251
42
0.41421356237306384
0
LWPOLYLINE
5
257
100
AcDbEntity
8
0
100
AcDbPolyline
90
8
70
1
43
0.0
10
141.74637623440785
20
-237.1586838208012
10
141.7460331779582
20
-249.15869029589746
42
0.41421356237307944
10
142.74600512951201
20
-250.15871942352629
10
154.74601160460847
20
-250.15906247997603
42
0.41421356237307422
10
155.7460407322373
20
-249.15909052842213
10
155.7463837886869
20
-237.15908405332581
42
0.41421356237308982
10
154.746411837133
20
-236.15905492569678
10
142.74640536203668
20
-236.15871186924733
42
0.4142135623731002
0
LWPOLYLINE
5
258
100
AcDbEntity
8
0
100
AcDbPolyline
90
8
70
1
43
0.0
10
161.79628770978442
20
-240.6342588860324
10
173.79629418488099
20
-240.63460194248216
42
0.41421356237303264
10
174.79632331250966
20
-239.6346299909282
10
174.79666636895942
20
-227.63462351583178
42
0.41421356237308465
10
173.79669441740558
20
-226.634594388203
10
161.79668794230912
20
-226.6342513317534
42
0.41421356237306384
10
160.7966588146802
20
-227.63422328330719
10
160.79631575823066
20
-239.63422975840365
42
0.41421356237304296
0
LWPOLYLINE
5
259
100
AcDbEntity
8
0
100
AcDbPolyline
90
8
70
1
43
0.0
10
160.79829262102169
20
-170.48419244566074
10
160.79794956457218
20
-182.48419892075714
42
0.41421356237310542
10
161.79792151612605
20
-183.48422804838609
10
173.79792799122259
20
-183.48457110483571
42
0.41421356237308465
10
174.79795711885123
20
-182.48459915328183
10
174.79830017530091
20
-170.48459267818544
42
0.41421356237310542
10
173.79832822374703
20
-169.48456355055663
10
161.79832174865061
20
-169.48422049410686
42
0.41421356237307422
0
LWPOLYLINE
5
260
100
AcDbEntity
8
0
100
AcDbPolyline
90
8
70
1
43
0.0
10
173.79397140683639
20
-321.88464578428022
10
161.79396493173996
20
-321.88430272783069
42
0.41421356237307422
10
160.79393580411107
20
-322.88427467938448
10
160.79359274766131
20
-334.88428115448068
42
0.41421356237311585
10
161.79356469921538
20
-335.88431028210977
10
173.79357117431186
20
-335.8846533385593
42
0.41421356237315754
10
174.79360030194044
20
-334.88468138700534
10
174.79394335839021
20
-322.88467491190892
42
0.4142135623730222
0
LWPOLYLINE
5
261
100
AcDbEntity
8
0
100
AcDbPolyline
90
8
70
1
43
0.0
10
97.60203124641761
20
-38.513564472495496
10
85.602024771321254
20
-38.513221416045745
42
0.41421356237308982
10
84.601995643692391
20
-39.513193367599627
10
84.601584511978501
20
-53.89445112759801
42
0.41421356237308726
10
85.601556463532404
20
-54.894480255226867
10
97.601562938628803
20
-54.89482331167644
42
0.41421356237311846
10
98.601592066257524
20
-53.894851360122516
10
98.602003197971499
20
-39.51359360012431
42
0.41421356237308204
0
LWPOLYLINE
5
262
100
AcDbEntity
8
0
100
AcDbPolyline
90
8
70
1
43
0.0
10
122.70113122368839
20
-70.470549275552401
10
122.70078816723873
20
-82.470555750648288
42
0.41421356237307422
10
123.70076011879262
20
-83.470584878277066
10
135.70076659388903
20
-83.470927934727797
42
0.41421356237340201
10
136.70079572151778
20
-82.470955983172871
10
136.70113877796749
20
-70.470949508077041
42
0.41421356237308465
10
135.70116682641361
20
-69.470920380448177
10
123.70116035131724
20
-69.470577323998526
42
0.41421356237308982
0
LINE
5
263
100
AcDbEntity
8
0
100
AcDbLine
10
116.64939480938892
20
-131.09540903065167
30
4.3037573504989268e-10
11
104.64938833432112
21
-131.09506497420125
31
4.3041126218668069e-10
0
ARC
5
264
100
AcDbEntity
8
0
100
AcDbCircle
10
104.64941692235861
20
-130.09506443460984
30
4.2712500203379022e-10
40
1.0000005399999925
210
0
220
0
230
1
100
AcDbArc
50
179.99836202708235
51
269.99836202699129
0
LINE
5
265
100
AcDbEntity
8
0
100
AcDbLine
10
103.64941638276726
20
-130.09503584657236
30
4.2712500203379022e-10
11
103.6497594391883
21
-118.0950303714768
31
3.8772540733589267e-10
0
ARC
5
266
100
AcDbEntity
8
0
100
AcDbCircle
10
104.64975997877974
20
-118.0950589595142
30
1.7420975276359082e-12
40
1.000000539999957
210
9.343980190070303e-17
220
3.2684948181737702e-12
230
1
100
AcDbArc
50
89.998362026992098
51
179.99836202708235
0
LINE
5
267
100
AcDbEntity
8
0
100
AcDbLine
10
104.64978856681722
20
-117.09505841992289
30
3.8445691075139621e-10
11
116.64979504191349
21
-117.09540147637254
31
3.844213836146082e-10
0
ARC
5
268
100
AcDbEntity
8
0
100
AcDbCircle
10
116.64976645387605
20
-118.09540201596386
30
3.8772540733589267e-10
40
1.0000005399999747
210
0
220
0
230
1
100
AcDbArc
50
-0.0016379729176161022
51
89.998362026994542
0
LINE
5
269
100
AcDbEntity
8
0
100
AcDbLine
10
117.6497669934674
20
-118.09543060400136
30
3.8772540733589267e-10
11
117.64942393704636
21
-130.095436079097
31
4.2712500203379022e-10
0
ARC
5
270
100
AcDbEntity
8
0
100
AcDbCircle
10
116.64942339745494
20
-130.09540749105955
30
1.9023981166093725e-12
40
1.0000015400007505
210
9.3439708323726091e-17
220
3.2684915496813909e-12
230
1
100
AcDbArc
50
269.9983620269951
51
359.99836202708235
0
LWPOLYLINE
5
271
100
AcDbEntity
8
0
100
AcDbPolyline
90
8
70
1
43
0.0
10
154.74586723501915
20
-255.20906520491238
10
142.74586075992283
20
-255.20872214846261
42
0.41421356237311585
10
141.74583163229397
20
-256.2086941000166
10
141.74548857584429
20
-268.20870057511308
42
0.41421356237311585
10
142.74546052739825
20
-269.20872970274183
10
154.74546700249465
20
-269.20907275919154
42
0.41421356237308465
10
155.7454961301234
20
-268.20910080763764
10
155.74583918657308
20
-256.20909433254116
42
0.41421356237310542
0
LWPOLYLINE
5
272
100
AcDbEntity
8
0
100
AcDbPolyline
90
8
70
1
43
0.0
10
136.69698350672104
20
-215.82102793768129
10
136.69732656317055
20
-203.82102146258487
42
0.41421356237313667
10
135.69735461161673
20
-202.82099233495603
10
123.69734813652038
20
-202.82064927850629
42
0.41421356237308465
10
122.69731900889154
20
-203.8206212300602
10
122.69697595244189
20
-215.82062770515662
42
0.41421356237307422
10
123.69694790399576
20
-216.82065683278535
10
135.6969543790922
20
-216.82099988923525
42
0.41421356237309509
0
LWPOLYLINE
5
273
100
AcDbEntity
8
0
100
AcDbPolyline
90
8
70
1
43
0.0
10
141.74964384709088
20
-122.85862214550829
10
141.7493007906412
20
-134.85862862060466
42
0.41421356237307944
10
142.74927274219505
20
-135.85865774823347
10
154.74927921729144
20
-135.85900080468309
42
0.41421356237308465
10
155.74930834492019
20
-134.85902885312925
10
155.74965140136993
20
-122.85902237803296
42
0.41421356237313145
10
154.74967944981597
20
-121.85899325040407
10
142.74967297471966
20
-121.85865019395442
42
0.41421356237308982
0
LWPOLYLINE
5
274
100
AcDbEntity
8
0
100
AcDbPolyline
90
8
70
1
43
0.0
10
98.594103787192353
20
-315.83249269933464
10
98.594446843642004
20
-303.83248622423832
42
0.41421356237306384
10
97.594474892088158
20
-302.83245709660952
10
85.594468416991788
20
-302.83211404015992
42
0.41421356237309509
10
84.594439289363038
20
-303.83208599171383
10
84.59409623291333
20
-315.83209246680997
42
0.41421356237311585
10
85.594068184467176
20
-316.83212159443883
10
97.594074659563546
20
-316.83246465088848
42
0.41421356237308982
0
LWPOLYLINE
5
275
100
AcDbEntity
8
0
100
AcDbPolyline
90
8
70
1
43
0.0
10
97.59393028997431
20
-321.88246737582494
10
85.593923814877996
20
-321.88212431937535
42
0.4142135623731471
10
84.593894687249104
20
-322.88209627092931
10
84.59355163079951
20
-334.88210274602545
42
0.41421356237308982
10
85.59352358235337
20
-335.88213187365432
10
97.593530057449712
20
-335.88247493010397
42
0.41421356237315754
10
98.593559185078576
20
-334.88250297854984
10
98.59390224152817
20
-322.88249650345392
42
0.41421356237308982
0
LWPOLYLINE
5
276
100
AcDbEntity
8
0
100
AcDbPolyline
90
8
70
1
43
0.0
10
174.7990463230787
20
-144.38457859485086
10
174.79938937952841
20
-132.38457211975447
42
0.41421356237310542
10
173.79941742797473
20
-131.38454299212574
10
161.79941095287819
20
-131.38419993567598
42
0.41421356237308982
10
160.79938182524953
20
-132.38417188722985
10
160.79903876879979
20
-144.38417836232622
42
0.41421356237307422
10
161.79901072035364
20
-145.38420748995509
10
173.79901719545006
20
-145.38455054640471
42
0.41421356237307944
0
LWPOLYLINE
5
277
100
AcDbEntity
8
0
100
AcDbPolyline
90
8
70
1
43
0.0
10
173.7961498152917
20
-245.68460466741854
10
161.79614334019527
20
-245.68426161096878
42
0.41421356237310542
10
160.79611421256641
20
-246.68423356252279
10
160.79577115611673
20
-258.68424003761908
42
0.41421356237309509
10
161.79574310767069
20
-259.68426916524788
10
173.79574958276714
20
-259.68461222169753
42
0.41421356237306384
10
174.79577871039592
20
-258.68464027014375
10
174.79612176684552
20
-246.68463379504718
42
0.41421356237306384
0
LWPOLYLINE
5
278
100
AcDbEntity
8
0
100
AcDbPolyline
90
8
70
1
43
0.0
10
136.70154454942431
20
-56.277191849252091
10
136.70202375640247
20
-39.514682804351892
42
0.41421356237309892
10
135.70205180484857
20
-38.514653676723086
10
123.70204532975221
20
-38.51431062027337
42
0.4142135623731002
10
122.70201620212335
20
-39.51428257182728
10
122.70153699514526
20
-56.276791616727493
42
0.41421356237310281
10
123.70150894669918
20
-57.276820744356336
10
135.70151542179551
20
-57.277163800806001
42
0.4142135623730977
0
LWPOLYLINE
5
279
100
AcDbEntity
8
0
100
AcDbPolyline
90
8
70
1
43
0.0
10
136.69916191517632
20
-139.62098682081913
10
136.69950497162597
20
-127.6209803457229
42
0.41421356237308465
10
135.6995330200721
20
-126.62095121809413
10
123.6995265449757
20
-126.62060816164448
42
0.4142135623731002
10
122.69949741734692
20
-127.62058011319836
10
122.6991543608973
20
-139.62058658829454
42
0.4142135623731002
10
123.69912631245116
20
-140.62061571592344
10
135.69913278754746
20
-140.62095877237306
42
0.41421356237311063
0
LWPOLYLINE
5
280
100
AcDbEntity
8
0
100
AcDbPolyline
90
8
70
1
43
0.0
10
141.74528703018015
20
-275.25870437923209
10
141.74494397373056
20
-287.25871085432829
42
0.41421356237311063
10
142.7449159252844
20
-288.25873998195715
10
154.74492240038077
20
-288.25908303840697
42
0.41421356237308982
10
155.74495152800966
20
-287.25911108685301
10
155.74529458445926
20
-275.25910461175658
42
0.41421356237310542
10
154.74532263290533
20
-274.25907548412778
10
142.74531615780893
20
-274.25873242767801
42
0.41421356237314189
0
LWPOLYLINE
5
281
100
AcDbEntity
8
0
100
AcDbPolyline
90
8
70
1
43
0.0
10
155.7498529470341
20
-115.80901857391382
10
155.75019600348372
20
-103.8090120988174
42
0.4142135623731002
10
154.75022405192985
20
-102.80898297118864
10
142.75021757683353
20
-102.80863991473892
42
0.41421356237310542
10
141.75018844920473
20
-103.80861186629282
10
141.74984539275505
20
-115.80861834138915
42
0.41421356237308982
10
142.74981734430889
20
-116.80864746901796
10
154.74982381940526
20
-116.80899052546772
42
0.41421356237309509
0
LWPOLYLINE
5
282
100
AcDbEntity
8
0
100
AcDbPolyline
90
8
70
1
43
0.0
10
135.69395084840528
20
-321.88355658005258
10
123.6939443733089
20
-321.88321352360305
42
0.4142135623731002
10
122.69391524568015
20
-322.88318547515695
10
122.69357218923031
20
-334.88319195025321
42
0.41421356237306384
10
123.69354414078433
20
-335.88322107788201
10
135.69355061588072
20
-335.88356413433166
42
0.41421356237311585
10
136.69357974350945
20
-334.8835921827777
10
136.69392279995924
20
-322.8835857076815
42
0.41421356237313145
0
LWPOLYLINE
5
283
100
AcDbEntity
8
0
100
AcDbPolyline
90
8
70
1
43
0.0
10
173.80050663223085
20
-93.284521433694195
10
161.80050015713451
20
-93.284178377244501
42
0.41421356237311063
10
160.8004710295057
20
-94.284150328798376
10
160.80012797302749
20
-106.28415780389525
42
0.41421356237309509
10
161.80009992458136
20
-107.28418693152403
10
173.80010639967765
20
-107.2845299879738
42
0.41421356237308982
10
174.80013552730645
20
-106.28455803641991
10
174.8004785837847
20
-94.284550561322959
42
0.41421356237307944
0
ARC
5
284
100
AcDbEntity
8
0
100
AcDbCircle
10
102.65134891621203
20
-62.476721772312445
30
9.0291102957525958e-13
40
1.0000005399999392
210
9.3439801958766447e-17
220
3.268494818173828e-12
230
1
100
AcDbArc
50
269.99836202699214
51
359.99836202708235
0
LINE
5
285
100
AcDbEntity
8
0
100
AcDbLine
10
103.65134945580334
20
-62.476750360349911
30
2.0509816067715292e-10
11
103.65177473144882
21
-47.600742333388773
31
1.5626611116204003e-10
0
ARC
5
286
100
AcDbEntity
8
0
100
AcDbCircle
10
102.65177419185741
20
-47.600713745351328
30
1.5626611116204003e-10
40
1.0000005400000458
210
0
220
0
230
1
100
AcDbArc
50
-0.0016379729176161022
51
89.998362026992908
0
ARC
5
287
100
AcDbEntity
8
0
100
AcDbCircle
10
102.6518313679324
20
-45.600712666168604
30
1.4971135442465311e-10
40
1.000000540000028
210
0
220
0
230
1
100
AcDbArc
50
179.99836202708235
51
269.99836202698964
0
LINE
5
288
100
AcDbEntity
8
0
100
AcDbLine
10
101.65183082834102
20
-45.600684078131152
30
1.4971135442465311e-10
11
101.65197376852846
21
-40.600681380174358
31
1.3326229009180679e-10
0
ARC
5
289
100
AcDbEntity
8
0
100
AcDbCircle
10
102.65197430811979
20
-40.600709968211802
30
5.6867172667151475e-13
40
1.0000005399999348
210
9.3439801900707172e-17
220
3.2684948181738425e-12
230
1
100
AcDbArc
50
89.998362026992908
51
179.99836202708235
0
LINE
5
290
100
AcDbEntity
8
0
100
AcDbLine
10
102.65200289615726
20
-39.600709428620505
30
1.2999379350731033e-10
11
115.65200991084498
21
-39.601081073107579
31
1.3001155707570433e-10
0
ARC
5
291
100
AcDbEntity
8
0
100
AcDbCircle
10
115.65198132280749
20
-40.601081612698913
30
1.3326229009180679e-10
40
1.0000005399999925
210
0
220
0
230
1
100
AcDbArc
50
-0.0016379729176161022
51
89.998362026991273
0
LINE
5
292
100
AcDbEntity
8
0
100
AcDbLine
10
116.65198186239884
20
-40.601110200736386
30
1.3326229009180679e-10
11
116.6517901524776
21
-47.307062819208561
31
1.552891149003699e-10
0
ARC
5
293
100
AcDbEntity
8
0
100
AcDbCircle
10
117.65179069206894
20
-47.307091407246034
30
1.553068784687639e-10
40
1.0000005399999747
210
-1.7763558794422348e-14
220
5.0782501048766175e-19
230
1
100
AcDbArc
50
179.99836202708235
51
239.99836202699638
0
ARC
5
294
100
AcDbEntity
8
0
100
AcDbCircle
10
116.65174063653866
20
-49.039114753808342
30
1.609734567864507e-10
40
1.000000539999957
210
0
220
0
230
1
100
AcDbArc
50
-0.0016379729176161022
51
59.998367539732726
0
LINE
5
295
100
AcDbEntity
8
0
100
AcDbLine
10
117.65174117612999
20
-49.039143341845836
30
1.609734567864507e-10
11
117.65139811968047
21
-61.039149816942128
31
2.0039081505274225e-10
0
ARC
5
296
100
AcDbEntity
8
0
100
AcDbCircle
10
116.65139758008903
20
-61.039121228904676
30
-1.1563402572520048e-10
40
1.0000001903117988
210
-1.4210153311122157e-12
220
2.4614321082563182e-12
230
1
100
AcDbArc
50
299.99837359456779
51
359.99836202708235
0
ARC
5
297
100
AcDbEntity
8
0
100
AcDbCircle
10
117.65134860377006
20
-62.771200751541357
30
-1.1563402572492293e-10
40
1.0000001903126834
210
-1.4210153311110141e-12
220
2.4614321082541085e-12
230
1
100
AcDbArc
50
119.99837359456876
51
179.99837359459323
0
LINE
5
298
100
AcDbEntity
8
0
100
AcDbLine
10
116.65134841386028
20
-62.771172365406002
30
2.0605739337042905e-10
11
116.6511563542288
21
-69.477125781976596
31
2.2806645461059816e-10
0
ARC
5
299
100
AcDbEntity
8
0
100
AcDbCircle
10
115.65115581463745
20
-69.477097193939017
30
-2.4237289877358232e-13
40
1.0000005400000103
210
9.3947626852647292e-17
220
3.2862583769680178e-12
230
1
100
AcDbArc
50
269.99836202699453
51
359.99836202708235
0
LINE
5
300
100
AcDbEntity
8
0
100
AcDbLine
10
115.65112722660001
20
-70.4770977335304
30
2.3135271476348862e-10
11
102.65112021191229
21
-70.476726089043382
31
2.3137047833188262e-10
0
ARC
5
301
100
AcDbEntity
8
0
100
AcDbCircle
10
102.65114879994975
20
-69.476725549451984
30
2.2806645461059816e-10
40
1.0000005399999925
210
0
220
0
230
1
100
AcDbArc
50
179.99836202708235
51
269.99836202699294
0
LINE
5
302
100
AcDbEntity
8
0
100
AcDbLine
10
101.6511482603584
20
-69.47669696141449
30
2.2806645461059816e-10
11
101.65129120054573
21
-64.476694263457688
31
2.1165291741453984e-10
0
ARC
5
303
100
AcDbEntity
8
0
100
AcDbCircle
10
102.6512917401371
20
-64.476722851495097
30
-1.3521296903394922e-12
40
1.0000005399999925
210
9.4455451862664943e-17
220
3.304021935762498e-12
230
1
100
AcDbArc
50
89.998362026993718
51
179.99836202708235
0
LWPOLYLINE
5
304
100
AcDbEntity
8
0
100
AcDbPolyline
90
8
70
1
43
0.0
10
142.75090654853656
20
-78.708626910587569
10
154.75091302363288
20
-78.708969967037262
42
0.41421356237312362
10
155.75094215126168
20
-77.70899801548336
10
155.75128520771142
20
-65.708991540387018
42
0.4142135623731002
10
154.75131325615752
20
-64.708962412758183
10
142.75130678106115
20
-64.708619356308489
42
0.41421356237308982
10
141.75127765343237
20
-65.708591307862378
10
141.75093459698269
20
-77.708597782958748
42
0.41421356237310281
0
LWPOLYLINE
5
305
100
AcDbEntity
8
0
100
AcDbPolyline
90
8
70
1
43
0.0
10
136.69861731306253
20
-158.67099710003473
10
136.69896036951218
20
-146.67099062493838
42
0.41421356237309509
10
135.69898841795825
20
-145.67096149730952
10
123.69898194286191
20
-145.6706184408599
42
0.41421356237308982
10
122.69895281523306
20
-146.67059039241377
10
122.69860975878343
20
-158.67059686751014
42
0.41421356237307944
10
123.69858171033727
20
-159.67062599513898
10
135.69858818543364
20
-159.67096905158868
42
0.4142135623731002
0
LWPOLYLINE
5
306
100
AcDbEntity
8
0
100
AcDbPolyline
90
24
70
1
43
0.0
10
93.523920857123258
20
-204.75191111862512
42
-0.61818757724871387
10
93.731009261718839
20
-204.53496019706103
10
94.214215225624628
20
-204.53496019706105
42
-0.38285313671906762
10
94.381858264604475
20
-204.70260135513743
10
94.381858264604531
20
-207.66100659767346
42
-0.41422367783203734
10
94.21421522562467
20
-207.8286552793636
10
90.496486459872543
20
-207.82865527936355
42
-0.41422000002720061
10
90.33870499740955
20
-207.67087005509379
10
90.338704997409508
20
-207.18766597209128
42
-0.39757607994924909
10
90.496486459872528
20
-207.02002481401485
10
91.788322889127016
20
-207.02002481401493
42
0.39758545804177553
10
91.955965928106849
20
-206.86223958974512
10
91.955965928106849
20
-205.57040504139405
42
0.38285313671909316
10
91.788322889127016
20
-205.40276388331756
10
90.496486459872528
20
-205.40276388331765
42
-0.41422000002723358
10
90.338704997409536
20
-205.24497865904783
10
90.338704997409536
20
-204.75191111862512
42
-0.39757607994921845
10
90.496486459872528
20
-204.58426996054868
10
92.547647352794726
20
-204.58426996054868
42
-0.38285313671905985
10
92.715290391774587
20
-204.75191111862506
10
92.715290391774587
20
-206.85237613232482
42
0.41422000002726655
10
92.873071854237551
20
-207.01016135659458
10
93.356277818143397
20
-207.01016135659466
42
0.39758545804174489
10
93.523920857123215
20
-206.85237613232485
0
LWPOLYLINE
5
307
100
AcDbEntity
8
0
100
AcDbPolyline
90
16
70
1
43
0.0
10
93.52392085712323
20
-190.18669552312244
10
93.52392085712323
20
-193.1450970038517
42
0.38285313671912025
10
93.691563896103091
20
-193.31273816192817
10
94.224076802141525
20
-193.31273816192811
42
0.39757607994918426
10
94.381858264604475
20
-193.14509700385173
10
94.381858264604517
20
-186.14354319637914
42
0.41421301681712924
10
94.224076802141511
20
-185.98576173391623
10
93.740870838235693
20
-185.98576173391623
42
0.39757933353410713
10
93.573227799255832
20
-186.14354319637926
10
93.573227799255832
20
-189.05264243723434
42
-0.39757607994936811
10
93.415446336792854
20
-189.2202835953108
10
90.45704109425678
20
-189.2202835953108
42
0.39757933353398633
10
90.289398055276934
20
-189.37806505777377
10
90.289398055276976
20
-189.86127290258307
42
0.47227781634169247
10
90.506347095937684
20
-190.02891406065947
10
93.415445866567026
20
-190.02891406065945
42
-0.33805307244103255
0
LWPOLYLINE
5
308
100
AcDbEntity
8
0
100
AcDbPolyline
90
24
70
1
43
0.0
10
89.668132841490191
20
-134.57853891614207
42
-0.41421356237311613
10
89.91466661170152
20
-134.33200514593074
10
90.673990605143416
20
-134.33200514593076
42
-0.41421356237309509
10
90.920524375354731
20
-134.57853891614209
10
90.920524375354731
20
-139.09503751117768
42
-0.40320541537839799
10
90.673990605143388
20
-139.35143285790585
10
87.390161331390345
20
-139.35143285790585
42
-0.4142140995364017
10
87.133765984662176
20
-139.09503751117768
10
87.133765984662176
20
-135.84079155629769
42
0.40320541537841742
10
86.887232214450862
20
-135.58439620956946
10
86.137769327299935
20
-135.58439620956943
42
0.41421409953644228
10
85.881373980571738
20
-135.84079155629769
10
85.881373980571738
20
-139.09503751117768
42
-0.40320541537835858
10
85.634840210360409
20
-139.35143285790585
10
84.89523889972638
20
-139.35143285790585
42
-0.40320541537837867
10
84.648705129515065
20
-139.09503751117768
10
84.648705129515079
20
-134.57853891614209
42
-0.41421356237311613
10
84.895238899726394
20
-134.33200514593074
10
88.159345490671583
20
-134.33200514593076
42
-0.40320541537833759
10
88.415740837399738
20
-134.57853891614207
10
88.415740837399781
20
-137.84264550708724
42
0.40320541537841814
10
88.66227460761111
20
-138.09904085381544
10
89.411737494761994
20
-138.09904085381547
42
0.41421409953644228
10
89.668132841490191
20
-137.84264550708724
0
LWPOLYLINE
5
309
100
AcDbEntity
8
0
100
AcDbPolyline
90
8
70
1
43
0.0
10
89.668132691017902
20
-131.9455580998127
42
-0.41421356237311613
10
89.914666461229274
20
-131.69902432960134
10
90.673990473480188
20
-131.6990243296014
42
-0.41421356237311613
10
90.920524243691517
20
-131.9455580998127
10
90.920524243691517
20
-132.70488211206361
42
-0.41421356237309509
10
90.673990473480188
20
-132.95141588227497
10
89.914666461229274
20
-132.95141588227497
42
-0.41421356237313722
10
89.668132691017902
20
-132.70488211206361
0
LWPOLYLINE
5
310
100
AcDbEntity
8
0
100
AcDbPolyline
90
32
70
1
43
0.0
10
93.573227799255875
20
-180.15769979478574
42
-0.3975793335340152
10
93.405584760275985
20
-180.31548125724868
10
91.305116925221185
20
-180.31548125724871
42
-0.41421301681719519
10
91.147335462758207
20
-180.15769979478569
10
91.147335462758221
20
-177.1992945522496
42
-0.39757607994924532
10
91.305116925221199
20
-177.03165339417322
10
92.596953824701501
20
-177.03165339417322
42
0.39757933353413594
10
92.764596863681334
20
-176.87387193171017
10
92.76459686368139
20
-175.66092623368715
42
-0.39757607994927241
10
92.92237832614434
20
-175.4932850756108
10
94.21421522562467
20
-175.49328507561083
42
0.39757933353416841
10
94.381858264604489
20
-175.33550361314778
10
94.38185826460446
20
-174.85229576833859
42
0.39847372071889464
10
94.214215225624656
20
-174.67479115284189
10
88.879224588723559
20
-174.67479115284186
42
0.38285313671917132
10
88.711581549743741
20
-174.8424323109183
10
88.711581549743698
20
-175.3256401557276
42
0.39757933353389285
10
88.879224588723545
20
-175.48342161819048
10
91.837629831259619
20
-175.4834216181905
42
-0.33397659637536814
10
91.955965928106863
20
-175.66092623368723
10
91.955965928106892
20
-176.14413407849642
42
-0.39757933353410896
10
91.788322889127002
20
-176.30191554095944
10
90.496486459872543
20
-176.30191554095941
42
0.39757607994924904
10
90.338704997409565
20
-176.46955669903582
10
90.33870499740955
20
-180.99591687058836
42
0.41421301681722816
10
90.496486459872528
20
-181.1536983330513
10
94.214215225624656
20
-181.15369833305135
42
0.39757933353410535
10
94.381858264604489
20
-180.99591687058833
10
94.381858264604489
20
-176.4399738503887
42
0.38285890779617665
10
94.214215225624656
20
-176.27232893050544
10
93.731009261718839
20
-176.27232893050547
42
0.39757607994930316
10
93.573227799255832
20
-176.43997008858184
0
LWPOLYLINE
5
311
100
AcDbEntity
8
0
100
AcDbPolyline
90
16
70
1
43
0.0
10
91.147335462758164
20
-193.09579476397761
42
-0.38285313671913956
10
90.97969242377836
20
-193.26343592205401
10
90.496486459872528
20
-193.26343592205407
42
-0.39757607994937172
10
90.33870499740955
20
-193.09579476397761
10
90.338704997409621
20
-190.99532598847111
42
-0.41421301681736006
10
90.496486459872557
20
-190.83754452600817
10
92.60681540121837
20
-190.83754452600814
42
-0.41421301681712924
10
92.764596863681362
20
-190.99532598847105
10
92.764596863681305
20
-193.09579476397766
42
-0.39757607994930316
10
92.60681540121837
20
-193.26343592205404
10
92.12360896708671
20
-193.2634359220541
42
-0.38285313671917909
10
91.955965928106821
20
-193.09579476397761
10
91.955965928106863
20
-191.80395645381975
42
0.41421301681732703
10
91.798184465643885
20
-191.64617499135676
10
91.305116925221185
20
-191.64617499135676
42
0.41421301681739303
10
91.147335462758178
20
-191.80395645381981
0
LWPOLYLINE
5
312
100
AcDbEntity
8
0
100
AcDbPolyline
90
20
70
1
43
0.0
10
93.57322779925579
20
-202.80923132919523
42
-0.39758545804177764
10
93.405584760275971
20
-202.96701655346496
10
91.305116925221171
20
-202.96701655346507
42
-0.41422000002723358
10
91.147335462758178
20
-202.80923132919526
10
91.147335462758235
20
-202.28657341651174
42
-0.4332293331655801
10
91.305116925221199
20
-202.11893225843539
10
92.596953824701501
20
-202.11893225843525
42
0.39758545804174866
10
92.764596863681348
20
-201.96114703416549
10
92.764596863681362
20
-201.46807949374281
42
0.39758545804162787
10
92.596953824701501
20
-201.31029426947308
10
90.496486459872528
20
-201.31029426947308
42
0.41422000002723358
10
90.33870499740955
20
-201.46807949374283
10
90.338704997409536
20
-203.57840796486278
42
0.41422000002733256
10
90.496486459872543
20
-203.73619318913262
10
94.21421522562467
20
-203.73619318913259
42
0.39758545804171802
10
94.381858264604489
20
-203.57840796486283
10
94.381858264604475
20
-201.50752579981028
42
0.39757320919073258
10
94.214215225624656
20
-201.34974809915411
10
93.731009261718853
20
-201.34974809915411
42
0.41422000002729953
10
93.573227799255818
20
-201.5075333234239
0
LWPOLYLINE
5
313
100
AcDbEntity
8
0
100
AcDbPolyline
90
20
70
1
43
0.0
10
90.506347095937684
20
-184.35863734579863
42
-0.39757933353401342
10
90.338704056957866
20
-184.20085588333569
10
90.338704056957823
20
-183.71764803852645
42
-0.38285313671903437
10
90.506347095937684
20
-183.55000688045004
10
92.60681540121837
20
-183.55000688045007
42
-0.39757607994931043
10
92.764596863681348
20
-183.71764803852648
10
92.764596863681348
20
-188.2440119718857
42
-0.39757607994933758
10
92.606815401218384
20
-188.41165312996219
10
90.506348036389397
20
-188.41165312996219
42
-0.38285313671909166
10
90.33870499740955
20
-188.2440119718857
10
90.338704997409636
20
-185.33491273103064
42
-0.38285313671908699
10
90.506348036389412
20
-185.16727157295421
10
90.989554000295243
20
-185.16727157295412
42
-0.39757607994930327
10
91.147335462758207
20
-185.33491273103061
10
91.147335462758207
20
-187.44524120215056
42
0.38285313671908849
10
91.31497850173804
20
-187.61288236022696
10
91.798184465643857
20
-187.61288236022699
42
0.39757607994942584
10
91.955965928106863
20
-187.44524120215056
10
91.955965928106863
20
-184.53614196129539
42
0.41522770259266129
10
91.798184465643857
20
-184.35863734579868
0
LWPOLYLINE
5
314
100
AcDbEntity
8
0
100
AcDbPolyline
90
16
70
1
43
0.0
10
87.162328829407457
20
-129.51267664384648
42
-0.41435885936474715
10
87.362328804800953
20
-129.3125774339556
10
88.169207067188438
20
-129.31257743395562
42
-0.41421356237307394
10
88.415740837399767
20
-129.55911120416692
10
88.415740837399824
20
-132.82321826533797
42
-0.40320514866979007
10
88.169207067188466
20
-133.07961337695326
10
84.895238899726394
20
-133.07961337695326
42
-0.40320514866983026
10
84.648705129515051
20
-132.82321826533797
10
84.648705129515051
20
-129.55911120416692
42
-0.40277502698534762
10
84.885377323209525
20
-129.3125774339556
10
85.634840210360409
20
-129.31257743395565
42
-0.49223962221828077
10
85.901097133605461
20
-129.59855656978272
10
85.901097133605489
20
-131.57082673147343
42
0.41421356237307394
10
86.147630903816804
20
-131.81736050168473
10
86.916816003549741
20
-131.81736050168473
42
0.41421356237309509
10
87.163349773761041
20
-131.5708267314734
0
LWPOLYLINE
5
315
100
AcDbEntity
8
0
100
AcDbPolyline
90
32
70
1
43
0.0
10
98.254596261350031
20
-131.81736050168473
42
-0.41421356237304296
10
98.454596261349991
20
-132.01736050168472
10
98.454596261349991
20
-139.09503751117771
42
-0.40320541537835775
10
98.208062491138691
20
-139.35143285790585
10
92.468756151337388
20
-139.35143285790585
42
-0.403205415378319
10
92.222222381126073
20
-139.09503751117771
10
92.222222381126102
20
-132.05403293049216
42
-0.40320514866984886
10
92.468756151337431
20
-131.79763781887686
10
94.441026313028118
20
-131.79763781887689
42
0.41421356237303181
10
94.687560083239475
20
-131.55110404866556
10
94.687560083239433
20
-130.80164139662762
42
0.40320514866986912
10
94.441026313028118
20
-130.54524628501233
10
89.924528188218375
20
-130.5452462850123
42
-0.40320541537839799
10
89.668132841490191
20
-130.29871251480097
10
89.668132841490191
20
-129.55911120416692
42
-0.40320541537835858
10
89.924528188218375
20
-129.3125774339556
10
98.208062491138691
20
-129.3125774339556
42
-0.41421356237313722
10
98.454596261350019
20
-129.55911120416698
10
98.454596261349991
20
-130.39455322714494
42
-0.414213562373069
10
98.254596261350017
20
-130.5945532271449
10
96.186486092654178
20
-130.59455322714496
42
0.4032051486698876
10
95.939952322442807
20
-130.85094833876019
10
95.939952322442807
20
-132.82321850045091
42
-0.41421356237309509
10
95.68355721082753
20
-133.07961361206617
10
93.711287049136814
20
-133.0796136120662
42
0.42621835455060814
10
93.454891702408617
20
-133.3261473822775
10
93.454891702408602
20
-137.84264550708727
42
0.41421356237331819
10
93.711286578910972
20
-138.09904085381544
10
96.965532298678056
20
-138.09904085381544
42
0.41421383095473302
10
97.221927410293304
20
-137.84264550708721
10
97.221927410293333
20
-132.07375561330005
42
-0.40320514866988916
10
97.468461180504676
20
-131.81736050168473
0
LWPOLYLINE
5
316
100
AcDbEntity
8
0
100
AcDbPolyline
90
12
70
1
43
0.0
10
93.415445866566984
20
-182.72165326206763
42
-0.36614073298408439
10
93.523920857123244
20
-182.90901757317786
10
93.52392085712323
20
-185.00948634868436
42
0.38285313671911714
10
93.691563896103091
20
-185.1771275067608
10
94.224076802141525
20
-185.1771275067608
42
0.39757607994927974
10
94.381858264604489
20
-185.00948634868433
10
94.381858264604517
20
-182.10038710782922
42
0.39757607994939514
10
94.224076802141511
20
-181.93274594975279
10
90.506347095937713
20
-181.93274594975279
42
0.38285169395540886
10
90.338704997409565
20
-182.10038710782925
10
90.338704997409565
20
-182.5638717996047
42
0.39757933353395392
10
90.506348036389369
20
-182.72165326206766
0
LWPOLYLINE
5
317
100
AcDbEntity
8
0
100
AcDbPolyline
90
24
70
1
43
0.0
10
93.573227799255832
20
-194.22985161167247
42
-0.41422000002723358
10
93.731009261718839
20
-194.07206638740269
10
94.21421522562467
20
-194.07206638740266
42
-0.39758545804172313
10
94.381858264604546
20
-194.2298516116725
10
94.381858264604531
20
-200.38333240953565
42
-0.39758545804165657
10
94.21421522562467
20
-200.54111763380544
10
92.113747390569841
20
-200.54111763380544
42
-0.41422000002723358
10
91.955965928106821
20
-200.38333240953565
10
91.955965928106863
20
-195.03848207702117
42
0.397585458041808
10
91.788322889127031
20
-194.88069685275133
10
91.305116925221199
20
-194.88069685275138
42
0.41422000002716769
10
91.147335462758178
20
-195.03848207702111
10
91.147335462758178
20
-200.38333240953565
42
-0.39758545804171802
10
90.97969242377836
20
-200.54111763380544
10
90.496486459872543
20
-200.54111763380544
42
-0.41422000002720061
10
90.33870499740955
20
-200.38333240953565
10
90.33870499740955
20
-194.2298516116725
42
-0.41422000002726655
10
90.496486459872528
20
-194.07206638740269
10
92.596954294927357
20
-194.07206638740269
42
-0.39758545804184225
10
92.764597333907233
20
-194.22985161167253
10
92.764597333907204
20
-199.57470194418707
42
0.41422000002716769
10
92.922378796370154
20
-199.73248716845683
10
93.405584760275985
20
-199.73248716845686
42
0.39758545804168727
10
93.573227799255832
20
-199.57470194418707
0
LWPOLYLINE
5
318
100
AcDbEntity
8
0
100
AcDbPolyline
90
8
70
1
43
0.0
10
85.599921763814734
20
-112.07576110973588
10
85.599778823627332
20
-117.07576380769166
42
0.4142135623731002
10
86.599750775181263
20
-118.07579293532055
10
99.59975778986896
20
-118.07616457980762
42
0.41421356237311063
10
100.59978691749774
20
-117.07619262825372
10
100.59992985768523
20
-112.07618993029703
42
0.41421356237310542
10
99.599957906131294
20
-111.07616080266817
10
86.599950891443598
20
-111.07578915818102
42
0.41421356237338125
0
LWPOLYLINE
5
319
100
AcDbEntity
8
0
100
AcDbPolyline
90
8
70
1
43
0.0
10
85.597062781392253
20
-212.08206507224361
42
-0.41421356237308465
10
86.597091909021216
20
-211.08209312068962
10
99.597098923708899
20
-211.08246476517681
42
-0.41421356237308465
10
100.5970708752628
20
-212.08249389280564
10
100.59692793507553
20
-217.08249659076247
42
-0.41421356237308465
10
99.596898807446607
20
-218.08246854231643
10
86.596891792758925
20
-218.08209689782939
42
-0.4142135623731002
10
85.596919841204908
20
-217.08206777020047
0
LWPOLYLINE
5
320
100
AcDbEntity
8
0
100
AcDbPolyline
90
8
70
1
43
0.0
10
79.58300111758706
20
-93.929778113561753
10
79.583001117587145
20
-223.68337215334324
42
0.41421356237294932
10
80.083001117586804
20
-224.1833721533433
10
81.088892557191272
20
-224.18337215334375
42
0.41421356237325113
10
81.588892557190775
20
-223.68337215334375
10
81.58889255719069
20
-93.929778113561738
42
0.41421356237309509
10
81.08889255719069
20
-93.429778113561753
10
80.08300111758706
20
-93.429778113561767
42
0.41421356237308465
0
LWPOLYLINE
5
321
100
AcDbEntity
8
0
100
AcDbPolyline
90
8
70
1
43
0.0
10
101.11685400600592
20
-33.132255979269914
10
167.56523876926596
20
-33.134155607158107
42
0.41422193563564497
10
168.06525306327697
20
-32.634155607362615
10
168.065253063277
20
-31.633072877655728
42
0.41421356237310542
10
167.565253063277
20
-31.133072877655724
10
101.11686830001696
20
-31.133072877655714
42
0.4142135623731002
10
100.61686830001696
20
-31.633072877655724
10
100.61686830001693
20
-32.632255979474039
42
0.41420518916009519
0
LWPOLYLINE
5
322
100
AcDbEntity
8
0
100
AcDbPolyline
90
8
70
1
43
0.0
10
80.081210431817865
20
-89.429891333992089
10
81.083118618539032
20
-89.429891333992089
42
0.4142262647888339
10
81.583118618068809
20
-88.929869649709374
10
81.581405589421919
20
-49.430554210277499
42
0.4142008600714478
10
81.081405589892114
20
-48.93057589456015
10
80.081210431817865
20
-48.930575894560192
42
0.41421356237311063
10
79.581210431817851
20
-49.430575894560185
10
79.581210431817865
20
-88.929891333992117
42
0.41421356237309509
0
LWPOLYLINE
5
323
100
AcDbEntity
8
0
100
AcDbPolyline
90
8
70
1
43
0.0
10
167.56526735728994
20
-338.88424783463745
10
101.11688259403002
20
-338.88234820674887
42
0.41422193563572307
10
100.61686830001902
20
-339.38234820654475
10
100.61686830001901
20
-340.38591564716842
42
0.4142135623730534
10
101.11686830001901
20
-340.88591564716842
10
167.56525306327893
20
-340.88591564716836
42
0.41421356237309509
10
168.06525306327896
20
-340.3859156471683
10
168.06525306327893
20
-339.38424783443315
42
0.4142051891600847
0
CIRCLE
5
324
100
AcDbEntity
8
0
100
AcDbCircle
10
134.34106068164905
20
-344.88591564716842
30
6.106226635438361e-10
40
1.8000000000000151
210
1.9526690814164273e-16
220
-1.6940658945086003e-21
230
1
0
CIRCLE
5
325
100
AcDbEntity
8
0
100
AcDbCircle
10
75.581210432226513
20
-70.442969025431609
30
6.1072924495420011e-10
40
1.7999999999999974
210
-2.6758191580201183e-17
220
1.6940658945085999e-21
230
1
0
CIRCLE
5
326
100
AcDbEntity
8
0
100
AcDbCircle
10
134.34106068164701
20
-27.133072877655707
30
6.1074700852259411e-10
40
1.7999999999999974
210
1.9528966406123977e-16
220
0
230
1
0
CIRCLE
5
327
100
AcDbEntity
8
0
100
AcDbCircle
10
75.582105774702455
20
-191.3847082072657
30
6.1074700852259411e-10
40
1.8000000000000063
210
-2.6751689837188946e-17
220
0
230
1
0
CIRCLE
5
328
100
AcDbEntity
8
0
100
AcDbCircle
10
75.589128410195414
20
-305.50661768072058
30
6.1074700852259411e-10
40
1.7999999999999974
210
-2.6751689863038334e-17
220
1.6940658945085999e-21
230
1
0
ENDSEC
0
SECTION
2
OBJECTS
0
DICTIONARY
5
C
100
AcDbDictionary
3
ACAD_GROUP
350
D
3
ACAD_MLINESTYLE
350
17
0
DICTIONARY
5
D
100
AcDbDictionary
0
DICTIONARY
5
1A
330
C
100
AcDbDictionary
0
DICTIONARY
5
17
100
AcDbDictionary
0
ENDSEC
0
EOF
