0
SECTION
2
HEADER
9
$INSUNITS
70
4
9
$ACADVER
1
AC1014
9
$HANDSEED
5
FFFF
0
ENDSEC
0
SECTION
2
TABLES
0
TABLE
2
VPORT
5
8
100
AcDbSymbolTable
0
ENDTAB
0
TABLE
2
LTYPE
5
5
100
AcDbSymbolTable
0
LTYPE
5
14
100
AcDbSymbolTableRecord
100
AcDbLinetypeTableRecord
2
BYBLOCK
70
0
0
LTYPE
5
15
100
AcDbSymbolTableRecord
100
AcDbLinetypeTableRecord
2
BYLAYER
70
0
0
ENDTAB
0
TABLE
2
LAYER
5
2
100
AcDbSymbolTable
70
2
0
LAYER
5
50
100
AcDbSymbolTableRecord
100
AcDbLayerTableRecord
2
0
70
0
6
CONTINUOUS
0
ENDTAB
0
TABLE
2
STYLE
5
3
100
AcDbSymbolTable
70
1
0
STYLE
5
11
100
AcDbSymbolTableRecord
100
AcDbTextStyleTableRecord
2
STANDARD
70
0
0
ENDTAB
0
TABLE
2
VIEW
5
6
100
AcDbSymbolTable
70
0
0
ENDTAB
0
TABLE
2
UCS
5
7
100
AcDbSymbolTable
70
0
0
ENDTAB
0
TABLE
2
APPID
5
9
100
AcDbSymbolTable
70
2
0
APPID
5
12
100
AcDbSymbolTableRecord
100
AcDbRegAppTableRecord
2
ACAD
70
0
0
ENDTAB
0
TABLE
2
DIMSTYLE
5
A
100
AcDbSymbolTable
70
1
0
ENDTAB
0
TABLE
2
BLOCK_RECORD
5
1
100
AcDbSymbolTable
70
1
0
BLOCK_RECORD
5
1F
100
AcDbSymbolTableRecord
100
AcDbBlockTableRecord
2
*MODEL_SPACE
0
BLOCK_RECORD
5
1B
100
AcDbSymbolTableRecord
100
AcDbBlockTableRecord
2
*PAPER_SPACE
0
ENDTAB
0
ENDSEC
0
SECTION
2
BLOCKS
0
BLOCK
5
20
100
AcDbEntity
100
AcDbBlockBegin
2
*MODEL_SPACE
0
ENDBLK
5
21
100
AcDbEntity
100
AcDbBlockEnd
0
BLOCK
5
1C
100
AcDbEntity
100
AcDbBlockBegin
2
*PAPER_SPACE
0
ENDBLK
5
1D
100
AcDbEntity
100
AcDbBlockEnd
0
ENDSEC
0
SECTION
2
ENTITIES
0
LWPOLYLINE
5
100
100
AcDbEntity
8
0
100
AcDbPolyline
90
8
70
1
43
0.0
10
155.74712993646497
20
-211.05906996999099
42
-0.41421356237309503
10
154.74710080883605
20
-212.05904192154492
10
142.74709433373971
20
-212.05869886509518
42
-0.41421356237311585
10
141.74712238218589
20
-211.05866973746657
10
141.74746543863557
20
-199.05866326237015
42
-0.41421356237312623
10
142.74749456626432
20
-198.05869131081607
10
154.74750104136069
20
-198.05903436726592
42
-0.41421356237308982
10
155.74747299291454
20
-199.0590634948947
0
LWPOLYLINE
5
101
100
AcDbEntity
8
0
100
AcDbPolyline
90
8
70
1
43
0.0
10
174.79523410828205
20
-277.73465054935923
42
-0.41421356237307422
10
173.7952049806533
20
-278.73462250091325
10
161.79519850555678
20
-278.73427944446325
42
-0.41421356237307422
10
160.79522655400294
20
-277.73425031683462
10
160.79556961045256
20
-265.73424384173808
42
-0.41421356237311585
10
161.79559873808148
20
-264.73427189018435
10
173.79560521317788
20
-264.73461494663405
42
-0.41421356237315748
10
174.79557716473167
20
-265.73464407426275
0
LWPOLYLINE
5
102
100
AcDbEntity
8
0
100
AcDbPolyline
90
8
70
1
43
0.0
10
98.596625252097411
20
-227.63244510737653
10
98.595192991420092
20
-277.73247214090395
42
-0.41421356237303258
10
97.595163863791171
20
-278.73244409245774
10
85.595157388694844
20
-278.73210103600809
42
-0.41421356237311585
10
84.595185437140955
20
-277.73207190837928
10
84.596617697818232
20
-227.63204487485189
42
-0.41421356237307944
10
85.596646825447138
20
-226.63207292329793
10
97.596653300543537
20
-226.63241597974761
42
-0.41421356237313667
0
LWPOLYLINE
5
103
100
AcDbEntity
8
0
100
AcDbPolyline
90
8
70
1
43
0.0
10
154.74396112762076
20
-321.88410118216666
42
-0.41421356237302737
10
155.7439330791747
20
-322.88413030979535
10
155.7435900227249
20
-334.88413678489172
42
-0.4142135623730534
10
154.74356089509615
20
-335.88410873644528
10
142.74355441999978
20
-335.88376567999609
42
-0.41421356237315227
10
141.74358246844582
20
-334.88373655236683
10
141.74392552489567
20
-322.8837300772708
42
-0.41421356237312101
10
142.74395465252437
20
-321.88375812571672
0
LWPOLYLINE
5
104
100
AcDbEntity
8
0
100
AcDbPolyline
90
8
70
1
43
0.0
10
103.64560416794184
20
-263.4451088010814
10
103.64594722439148
20
-251.44510232598506
42
-0.41421356237307422
10
104.64597635202033
20
-250.44513037443122
10
116.64598282711668
20
-250.44547343088087
42
-0.414213562373069
10
117.64595477867056
20
-251.4455025585097
10
117.64561172222095
20
-263.44550903360613
42
-0.414213562373069
10
116.645582594592
20
-264.44548098515986
10
104.64557611949573
20
-264.44513792871027
42
-0.414213562373069
0
LWPOLYLINE
5
105
100
AcDbEntity
8
0
100
AcDbPolyline
90
8
70
1
43
0.0
10
116.64408493877909
20
-316.83300925300233
10
104.6440784636826
20
-316.83266619655274
42
-0.4142135623730846
10
103.64410651212872
20
-315.83263706892382
10
103.64444956857852
20
-303.83263059382773
42
-0.41421356237310542
10
104.64447869620727
20
-302.83265864227366
10
116.6444851713036
20
-302.83300169872336
42
-0.41421356237312623
10
117.64445712285749
20
-303.83303082635223
10
117.64411406640784
20
-315.83303730144854
42
-0.4142135623730846
0
LWPOLYLINE
5
106
100
AcDbEntity
8
0
100
AcDbPolyline
90
8
70
1
43
0.0
10
142.74872814008125
20
-154.90866802744898
42
-0.41421356237310542
10
141.74875618852732
20
-153.90863889982012
10
141.74909924497706
20
-141.90863242472375
42
-0.41421356237307944
10
142.74912837260581
20
-140.9086604731699
10
154.74913484770212
20
-140.90900352961953
42
-0.41421356237312101
10
155.74910679925614
20
-141.90903265724839
10
155.74876374280643
20
-153.90903913234467
42
-0.41421356237307944
10
154.7487346151776
20
-154.9090110838986
0
LWPOLYLINE
5
107
100
AcDbEntity
8
0
100
AcDbPolyline
90
8
70
1
43
0.0
10
141.75195840607472
20
-41.896078458842958
42
-0.41421356237308204
10
142.75198753370344
20
-40.89610650728914
10
154.75199400879987
20
-40.896449563738706
42
-0.41421356237307683
10
155.75196596035369
20
-41.89647869136757
10
155.75162290390404
20
-53.896485166464004
42
-0.41421356237308721
10
154.7515937762752
20
-54.896457118017885
10
142.75158730117883
20
-54.896114061568255
42
-0.41421356237309503
10
141.75161534962498
20
-53.896084933939399
0
LWPOLYLINE
5
108
100
AcDbEntity
8
0
100
AcDbPolyline
90
8
70
1
43
0.0
10
173.79847259336475
20
-164.43455982561957
10
161.79846611826846
20
-164.43421676916995
42
-0.41421356237310542
10
160.79849416671453
20
-163.43418764154106
10
160.79883722313556
20
-151.43418216644528
42
-0.4142135623730846
10
161.7988663507644
20
-150.43421021489141
10
173.79887282586077
20
-150.43455327134097
42
-0.41421356237312101
10
174.79884477741462
20
-151.43458239896984
10
174.79850172099347
20
-163.43458787406564
42
-0.41421356237311585
0
LWPOLYLINE
5
109
100
AcDbEntity
8
0
100
AcDbPolyline
90
8
70
1
43
0.0
10
141.74855464286316
20
-160.95864270393929
42
-0.4142135623730846
10
142.74858377049196
20
-159.9586707523853
10
154.74859024558833
20
-159.95901380883498
42
-0.4142135623730846
10
155.74856219714218
20
-160.95904293646382
10
155.74821914069264
20
-172.95904941156016
42
-0.41421356237305862
10
154.74819001306375
20
-173.9590213631142
10
142.74818353796744
20
-173.95867830666444
42
-0.41421356237307944
10
141.74821158641353
20
-172.9586491790356
0
LWPOLYLINE
5
110
100
AcDbEntity
8
0
100
AcDbPolyline
90
8
70
1
43
0.0
10
141.7469208365217
20
-218.10867354158563
42
-0.41421356237309503
10
142.74694996415059
20
-217.10870159003176
10
154.74695643924684
20
-217.10904464648144
42
-0.414213562373069
10
155.74692839080075
20
-218.10907377411016
10
155.74658533435124
20
-230.1090802492067
42
-0.41421356237307422
10
154.74655620672229
20
-231.10905220076063
10
142.74654973162592
20
-231.10870914431081
42
-0.41421356237305862
10
141.7465777800721
20
-230.10868001668211
0
LWPOLYLINE
5
111
100
AcDbEntity
8
0
100
AcDbPolyline
90
8
70
1
43
0.0
10
97.600746035458045
20
-83.469838730500143
10
85.600739560361703
20
-83.469495674050449
42
-0.41421356237313667
10
84.600767608807729
20
-82.469466546421643
10
84.601314891050109
20
-63.325706216618933
42
-0.41421356237311063
10
85.601344018678986
20
-62.325734265065044
10
97.601350493775385
20
-62.32607732151466
42
-0.41421356237305601
10
98.601322445329203
20
-63.326106449143531
10
98.600775163086837
20
-82.469866778945203
42
-0.41421356237339158
0
LWPOLYLINE
5
112
100
AcDbEntity
8
0
100
AcDbPolyline
90
8
70
1
43
0.0
10
122.69969896301107
20
-120.57057630907927
10
122.70004201946072
20
-108.57056983398286
42
-0.41421356237309503
10
123.70007114708956
20
-107.57059788242901
10
135.70007762218592
20
-107.57094093887865
42
-0.41421356237310025
10
136.70004957373979
20
-108.57097006650744
10
136.69970651729014
20
-120.57097654160387
42
-0.41421356237305862
10
135.6996773896613
20
-121.57094849315772
10
123.69967091456495
20
-121.57060543670802
42
-0.41421356237310025
0
LWPOLYLINE
5
113
100
AcDbEntity
8
0
100
AcDbPolyline
90
8
70
1
43
0.0
10
174.80211239009753
20
-37.134520723677618
10
174.80176833364743
20
-49.13452719874541
42
-0.41421356237311324
10
173.8017402060477
20
-50.134498150327353
10
161.80173373092285
20
-50.134156093878246
42
-0.41421356237308721
10
160.80176177936889
20
-49.134126966249383
10
160.80210483581857
20
-37.134120491153006
42
-0.41421356237306639
10
161.80213396344743
20
-36.134148539599117
10
173.8021404385438
20
-36.134491596048811
42
-0.41421356237307033
0
LWPOLYLINE
5
114
100
AcDbEntity
8
0
100
AcDbPolyline
90
8
70
1
43
0.0
10
136.69643890460711
20
-234.87103821689658
42
-0.41421356237310025
10
135.6964097769783
20
-235.87101016845051
10
123.69640330188197
20
-235.87066711200094
42
-0.41421356237311063
10
122.69643135032808
20
-234.87063798437202
10
122.69677440677775
20
-222.87063150927571
42
-0.41421356237307944
10
123.69680353440656
20
-221.87065955772186
10
135.69681000950285
20
-221.8710026141714
42
-0.41421356237311585
10
136.6967819610569
20
-222.87103174180018
0
LWPOLYLINE
5
115
100
AcDbEntity
8
0
100
AcDbPolyline
90
8
70
1
43
0.0
10
123.6974925061096
20
-197.77064655357003
42
-0.41421356237307422
10
122.69752055455572
20
-196.77061742594111
10
122.69786361100546
20
-184.7706109508448
42
-0.4142135623730846
10
123.69789273863418
20
-183.7706389992909
10
135.69789921373061
20
-183.77098205574057
42
-0.41421356237310542
10
136.69787116528451
20
-184.7710111833693
10
136.69752810883492
20
-196.77101765846575
42
-0.41421356237304818
10
135.69749898120602
20
-197.77098961001957
0
LWPOLYLINE
5
116
100
AcDbEntity
8
0
100
AcDbPolyline
90
8
70
1
43
0.0
10
160.7974049624583
20
-201.53420919997271
10
160.79774801890778
20
-189.53420272487637
42
-0.41421356237312623
10
161.7977771465367
20
-188.53423077332226
10
173.79778362163319
20
-188.53457382977211
42
-0.41421356237312623
10
174.79775557318709
20
-189.53460295740086
10
174.79741251673738
20
-201.53460943249729
42
-0.41421356237301177
10
173.79738338910869
20
-202.53458138405119
10
161.79737691401212
20
-202.53423832760134
42
-0.41421356237310542
0
ARC
5
117
100
AcDbEntity
8
0
100
AcDbCircle
10
132.6761765789895
20
-346.38591564716842
30
6.1175953192105226e-10
40
1.9999999999999889
210
0
220
0
230
1
100
AcDbArc
50
202.02431283704058
51
270.00000000000159
0
ARC
5
118
100
AcDbEntity
8
0
100
AcDbCircle
10
136.13296143810115
20
-346.38591564716842
30
-9.1564075599005017e-08
40
1.9999999999999574
210
-2.3635061581327745e-24
220
2.6610713632636021e-10
230
1
100
AcDbArc
50
270.00000000000159
51
337.97568716295945
0
LINE
5
119
100
AcDbEntity
8
0
100
AcDbLine
10
74.581210431817851
20
-46.930575894560185
30
6.1501026493715472e-10
11
74.581210431817809
21
-65.070014267246222
31
4.652811469441076e-10
0
LWPOLYLINE
5
120
100
AcDbEntity
8
0
100
AcDbPolyline
90
8
70
1
43
0.0
10
104.6465209541342
20
-231.39512009521567
10
116.64652742923056
20
-231.39546315166547
42
-0.41421356237305862
10
117.64649938078441
20
-232.39549227929416
10
117.64615632433477
20
-244.39549875439056
42
-0.41421356237307944
10
116.64612719670593
20
-245.39547070594438
10
104.64612072160955
20
-245.39512764949478
42
-0.41421356237307422
10
103.64614877005565
20
-244.39509852186589
10
103.6464918265053
20
-232.39509204676963
42
-0.41421356237307944
0
ARC
5
121
100
AcDbEntity
8
0
100
AcDbCircle
10
72.581210431817809
20
-65.07001426724625
30
3.5174958759607943e-10
40
2.0000000000000022
210
-7.9714013168088582e-13
220
3.0873104545935581e-12
230
1
100
AcDbArc
50
-75.522487814069663
51
0
0
LWPOLYLINE
5
122
100
AcDbEntity
8
0
100
AcDbPolyline
90
8
70
1
43
0.0
10
81.593100050736197
20
-228.68383676997465
10
81.593100050736211
20
-322.18349734967683
42
-0.4142135623730534
10
81.093100050735387
20
-322.68349734967683
10
80.089128410195428
20
-322.68349734967683
42
-0.41421356237294937
10
79.589128410195485
20
-322.18349734967683
10
79.589128410195414
20
-228.68383676997456
42
-0.41421356237313667
10
80.089128410195428
20
-228.18383676997456
10
81.093100050736183
20
-228.18383676997456
42
-0.41421356237304302
0
LINE
5
123
100
AcDbEntity
8
0
100
AcDbLine
10
81.580785474759352
20
-35.131841395703979
30
1.1583622949729032e-10
11
81.58112369092521
21
-42.930489157429363
31
1.4093615163801587e-10
0
ARC
5
124
100
AcDbEntity
8
0
100
AcDbCircle
10
94.616868300016961
20
-31.132070156717766
30
8.8164345450257817e-13
40
1.9999999999999973
210
9.3693765032822863e-17
220
3.2773783673542155e-12
230
1
100
AcDbArc
50
-90.001637973007746
51
0
0
ARC
5
125
100
AcDbEntity
8
0
100
AcDbCircle
10
73.581210431817851
20
-68.942997613453656
30
8.7166212192421825e-10
40
2.0000000000000107
210
7.6605388699137912e-13
220
-2.9669139466149865e-12
230
1
100
AcDbArc
50
104.47751218593076
51
180
0
ARC
5
126
100
AcDbEntity
8
0
100
AcDbCircle
10
121.69504091038391
20
-283.48888563032222
30
-7.9530837399965111e-13
40
1.000000539999957
210
9.3947626852657276e-17
220
3.2862583769681927e-12
230
1
100
AcDbArc
50
89.998362026995352
51
179.99836202708235
0
ARC
5
127
100
AcDbEntity
8
0
100
AcDbCircle
10
136.00594478430648
20
-25.633072877655572
30
8.2641495699303209e-11
40
2.0000000000000155
210
-4.2073871352531588e-12
220
-1.7019718967502024e-12
230
1
100
AcDbArc
50
22.024312837040156
51
90.00000000000081
0
ARC
5
128
100
AcDbEntity
8
0
100
AcDbCircle
10
79.581123692806059
20
-42.930575894560157
30
6.1039173715471406e-10
40
2.0000000000000107
210
0
220
0
230
1
100
AcDbArc
50
-90
51
0.0024848357042617699
0
ARC
5
129
100
AcDbEntity
8
0
100
AcDbCircle
10
76.581210431817851
20
-46.930575894560185
30
-1.0250494546581294e-08
40
1.999999999999984
210
0
220
2.3142376903706649e-10
230
1
100
AcDbArc
50
90
51
180
0
LINE
5
130
100
AcDbEntity
8
0
100
AcDbLine
10
79.581123692806059
20
-44.930575894560164
30
6.1039173715471406e-10
11
76.581210431817851
21
-44.930575894560207
31
1.4750867194379266e-10
0
LINE
5
131
100
AcDbEntity
8
0
100
AcDbLine
10
71.581210431817851
20
-68.942997613453656
30
6.1227911629657683e-10
11
71.58121043181788
21
-72.07001426724625
31
-3.5527136788005009e-14
0
ARC
5
132
100
AcDbEntity
8
0
100
AcDbCircle
10
128.84106068164706
20
-24.13307287765571
30
6.1076477209098812e-10
40
1.9999999999999973
210
0
220
0
230
1
100
AcDbArc
50
270
51
337.97568716295876
0
ARC
5
133
100
AcDbEntity
8
0
100
AcDbCircle
10
170.06525306327703
20
-28.133072877655714
30
4.3077208685646671e-08
40
1.9999999999999929
210
2.4970248091449414e-10
220
5.54450887234592e-25
230
1
100
AcDbArc
50
0
51
90
0
ARC
5
134
100
AcDbEntity
8
0
100
AcDbCircle
10
76.589128410195414
20
-324.68378048284677
30
-5.2316111858868561e-08
40
2.0000000000000018
210
-6.9103833766348482e-10
220
0
230
1
100
AcDbArc
50
180
51
270
0
LWPOLYLINE
5
135
100
AcDbEntity
8
0
100
AcDbPolyline
90
8
70
1
43
0.0
10
173.80065100179164
20
-88.234519708758256
10
161.80064452669515
20
-88.234176652308633
42
-0.41421356237306384
10
160.80067257514131
20
-87.234147524679813
10
160.80101563159081
20
-75.234141049583926
42
-0.4142135623730846
10
161.80104475921982
20
-74.234169098030037
10
173.80105123431611
20
-74.23451215447966
42
-0.41421356237312623
10
174.80102318586998
20
-75.234541282108552
10
174.80068012942036
20
-87.234547757204396
42
-0.41421356237309503
0
ARC
5
136
100
AcDbEntity
8
0
100
AcDbCircle
10
128.96807733544168
20
-347.88591564716819
30
6.1172400478426425e-10
40
1.9999999999999356
210
-1.6467268631128935e-14
220
-6.6613381477498364e-15
230
1
100
AcDbArc
50
22.024312837037836
51
90.00000000000081
0
ARC
5
137
100
AcDbEntity
8
0
100
AcDbCircle
10
72.589128410195414
20
-311.00661768072064
30
4.4254065617834621e-10
40
2.0000000000000018
210
-2.3270274596143261e-12
220
4.1336311433580938e-26
230
1
100
AcDbArc
50
0
51
75.522487814070516
0
LINE
5
138
100
AcDbEntity
8
0
100
AcDbLine
10
83.593814765475102
20
-338.8818472568995
30
1.1124257071060126e-09
11
94.616925476063187
21
-338.88216238583146
31
1.1127099242003167e-09
0
LINE
5
139
100
AcDbEntity
8
0
100
AcDbLine
10
128.84106068164706
20
-26.133072877655707
30
6.1076477209098812e-10
11
98.616868300016961
21
-26.133072877655714
31
-3.7429614963002678e-10
0
LWPOLYLINE
5
140
100
AcDbEntity
8
0
100
AcDbPolyline
90
8
70
1
43
0.0
10
135.69586517486451
20
-254.92102044766602
10
123.69585869976817
20
-254.92067739121643
42
-0.41421356237311585
10
122.69588674821428
20
-253.92064826358762
10
122.69622980466383
20
-241.92064178849114
42
-0.41421356237305862
10
123.69625893229271
20
-240.92066983693729
10
135.69626540738906
20
-240.921012893387
42
-0.41421356237310025
10
136.69623735894299
20
-241.92104202101589
10
136.69589430249334
20
-253.92104849611215
42
-0.41421356237309503
0
ARC
5
141
100
AcDbEntity
8
0
100
AcDbCircle
10
132.54915992519494
20
-25.633072877655625
30
-6.2231104586684535e-09
40
2.0000000000000195
210
-2.3679237792018649e-24
220
2.6660451624138401e-10
230
1
100
AcDbArc
50
90
51
157.97568716295964
0
ARC
5
142
100
AcDbEntity
8
0
100
AcDbCircle
10
94.616868300019149
20
-340.8821623850144
30
1.1187495374542777e-09
40
1.9999999999999929
210
0
220
0
230
1
100
AcDbArc
50
0
51
89.998362026993476
0
ARC
5
143
100
AcDbEntity
8
0
100
AcDbCircle
10
73.581210431817937
20
-193.05633285578651
30
1.4610104661353774e-09
40
2.0000000000000639
210
1.1555201240298259e-11
220
0
230
1
100
AcDbArc
50
180
51
255.54897711394923
0
LINE
5
144
100
AcDbEntity
8
0
100
AcDbLine
10
172.06525306327703
20
-31.13434142889297
30
1.034550223266706e-10
11
172.06525306327703
21
-28.133072877655714
31
1.1208811656614747e-10
0
LINE
5
145
100
AcDbEntity
8
0
100
AcDbLine
10
74.583001117586406
20
-196.92977811356175
30
6.1520566418948874e-10
11
74.583001117587045
21
-300.13522156677584
31
9.4248164828059089e-10
0
ARC
5
146
100
AcDbEntity
8
0
100
AcDbCircle
10
174.06525306327893
20
-340.88443365718939
30
-4.0348051289519897e-12
40
1.9999999999999662
210
9.4201590288289617e-17
220
3.2951419357410024e-12
230
1
100
AcDbArc
50
89.998362026992652
51
180
0
LINE
5
147
100
AcDbEntity
8
0
100
AcDbLine
10
175.80263340828412
20
-33.134391097977854
30
1.0926370919150941e-10
11
174.0651958872329
21
-33.134341428075452
31
1.0876632927647734e-10
0
LWPOLYLINE
5
148
100
AcDbEntity
8
0
100
AcDbPolyline
90
8
70
1
43
0.0
10
85.59501301910565
20
-283.78210376094449
10
97.595019494202006
20
-283.78244681739397
42
-0.41421356237305862
10
98.59499144575588
20
-284.78247594502301
10
98.594648389306201
20
-296.78248242011932
42
-0.414213562373069
10
97.594619261677437
20
-297.78245437167323
10
85.594612786581052
20
-297.7821113152234
42
-0.41421356237310025
10
84.594640835027121
20
-296.78208218759465
10
84.594983891476758
20
-284.78207571249834
42
-0.41421356237310542
0
LINE
5
149
100
AcDbEntity
8
0
100
AcDbLine
10
74.581210431817851
20
-75.942997613453656
30
6.1541882701021677e-10
11
74.581210431817851
21
-186.05690798778477
31
3.2663471927207866e-09
0
LINE
5
150
100
AcDbEntity
8
0
100
AcDbLine
10
96.616868300016975
20
-28.133072877655714
30
6.156142262625507e-10
11
96.616868300016961
21
-31.132070156717766
31
1.0290416431892644e-10
0
ARC
5
151
100
AcDbEntity
8
0
100
AcDbCircle
10
175.80257623224003
20
-35.134391097160567
30
1.1581846592889632e-10
40
2.0000000000000013
210
0
220
0
230
1
100
AcDbArc
50
-0.0016379726951299411
51
89.998362026991842
0
LINE
5
152
100
AcDbEntity
8
0
100
AcDbLine
10
71.589128410195343
20
-304.00661768072064
30
6.1605831547240086e-10
11
71.589128410195443
21
-307.13363433451326
31
-5.3290705182007514e-14
0
ARC
5
153
100
AcDbEntity
8
0
100
AcDbCircle
10
98.616868300016961
20
-28.133072877655714
30
-1.3248183769213753e-08
40
2.0000000000000018
210
0
220
4.9262816048667405e-10
230
1
100
AcDbArc
50
90
51
180
0
LINE
5
154
100
AcDbEntity
8
0
100
AcDbLine
10
94.61681112397288
20
-33.132070155900493
30
1.0945910844384345e-10
11
83.580842648922584
21
-33.131754659390715
31
1.0874856570808332e-10
0
LINE
5
155
100
AcDbEntity
8
0
100
AcDbLine
10
139.84106068164905
20
-345.88591564716836
30
6.0977001226092398e-10
11
170.06525306327899
21
-345.88591564716819
31
1.1356959817021559e-09
0
LINE
5
156
100
AcDbEntity
8
0
100
AcDbLine
10
74.589128410195414
20
-311.00661768072064
30
6.1611160617758287e-10
11
74.589128410195414
21
-324.68378048284677
31
-7.7216455451891142e-10
0
LINE
5
157
100
AcDbEntity
8
0
100
AcDbLine
10
81.593516397481181
20
-328.6836937457158
30
6.1460170286409276e-10
11
81.593871943400046
21
-336.88193399484766
31
1.106137403894536e-09
0
LINE
5
158
100
AcDbEntity
8
0
100
AcDbLine
10
96.616868300019135
20
-340.8821623850144
30
1.1187495374542777e-09
11
96.616868300019135
21
-343.88591564716842
31
1.1094769547526084e-09
0
ARC
5
159
100
AcDbEntity
8
0
100
AcDbCircle
10
170.06525306327899
20
-343.88591564716825
30
-8.945391876661754e-08
40
1.9999999999999574
210
-0
220
2.6190605240118673e-10
230
1
100
AcDbArc
50
-90
51
0
0
ARC
5
160
100
AcDbEntity
8
0
100
AcDbCircle
10
73.589128410195343
20
-304.00661768072064
30
1.575270167388571e-09
40
2.0000000000000124
210
7.7521582605546531e-13
220
-2.9828904935831459e-12
230
1
100
AcDbArc
50
104.56817611450388
51
180
0
ARC
5
161
100
AcDbEntity
8
0
100
AcDbCircle
10
73.581210431817851
20
-72.07001426724625
30
-2.1852047138466727e-08
40
1.999999999999984
210
-3.0527580463513382e-10
220
-1.3556969086675917e-24
230
1
100
AcDbArc
50
180
51
255.52248781406951
0
ARC
5
162
100
AcDbEntity
8
0
100
AcDbCircle
10
83.580785472878532
20
-35.131754658573144
30
-8.9505833318741701e-12
40
1.9999999999996954
210
1.0156505691462567e-16
220
3.5527136773492792e-12
230
1
100
AcDbArc
50
89.99836202699305
51
180.00248483570428
0
LINE
5
163
100
AcDbEntity
8
0
100
AcDbLine
10
177.79394979314094
20
-336.88454025161917
30
1.1058354232318381e-09
11
177.80257623142276
21
-35.134448273193733
31
1.1581846592889632e-10
0
LINE
5
164
100
AcDbEntity
8
0
100
AcDbLine
10
170.06525306327703
20
-26.133072877655721
30
6.1149307839513281e-10
11
139.71404402785436
21
-26.133072877655714
31
-3.7429614963002678e-10
0
ARC
5
165
100
AcDbEntity
8
0
100
AcDbCircle
10
79.593516399362017
20
-328.68378048284671
30
4.2403995116774638e-10
40
2.0000000000000009
210
-2.3359092416146014e-12
220
-1.0130503275940476e-16
230
1
100
AcDbArc
50
0.0024848357042617699
51
89.999999999999588
0
LINE
5
166
100
AcDbEntity
8
0
100
AcDbLine
10
136.00594478430645
20
-23.633072877655557
30
6.146483322311265e-10
11
132.54915992519494
21
-23.633072877655607
31
7.7573503176606805e-11
0
ARC
5
167
100
AcDbEntity
8
0
100
AcDbCircle
10
139.71404402785436
20
-24.13307287765571
30
1.1558972250758366e-09
40
1.9999999999999774
210
4.19091986662199e-12
220
1.695310558602447e-12
230
1
100
AcDbArc
50
202.02431283703999
51
270
0
ARC
5
168
100
AcDbEntity
8
0
100
AcDbCircle
10
98.616868300019078
20
-343.88591564716825
30
2.5167156383705283e-08
40
1.9999999999999574
210
2.4900081996293554e-10
220
8.8462861911488114e-24
230
1
100
AcDbArc
50
180
51
270
0
LINE
5
169
100
AcDbEntity
8
0
100
AcDbLine
10
132.67617657898955
20
-348.38591564716836
30
6.1175953192105226e-10
11
136.1329614381012
21
-348.38591564716836
31
1.1439027503001687e-09
0
LINE
5
170
100
AcDbEntity
8
0
100
AcDbLine
10
172.06525306327893
20
-343.88591564716825
30
6.1188387689979373e-10
11
172.06525306327899
21
-340.88443365718939
31
1.1192115786357024e-09
0
ARC
5
171
100
AcDbEntity
8
0
100
AcDbCircle
10
139.84106068164905
20
-347.88591564716825
30
6.1172400478426425e-10
40
1.9999999999999574
210
0
220
9.7699626167019329e-13
230
1
100
AcDbArc
50
90
51
157.97568716296158
0
ARC
5
172
100
AcDbEntity
8
0
100
AcDbCircle
10
174.06525306327697
20
-31.13434142889297
30
1.0349054946345859e-10
40
1.9999999999999929
210
-1.7763568393994805e-14
220
0
230
1
100
AcDbArc
50
180
51
269.99836202699265
0
ARC
5
173
100
AcDbEntity
8
0
100
AcDbCircle
10
73.58121043181788
20
-189.92989133399215
30
1.2521983814206092e-09
40
2.0000000000000169
210
7.926992395823859e-13
220
-3.0701109534537358e-12
230
1
100
AcDbArc
50
104.47751218592967
51
180
0
ARC
5
174
100
AcDbEntity
8
0
100
AcDbCircle
10
73.589128410195428
20
-307.13363433451326
30
-2.1909800078732809e-08
40
1.9999999999999574
210
-3.0604851986027711e-10
220
0
230
1
100
AcDbArc
50
180
51
255.52248781406897
0
LINE
5
175
100
AcDbEntity
8
0
100
AcDbLine
10
98.616868300019078
20
-345.88591564716819
30
6.1147531482677014e-10
11
128.96807733544165
21
-345.88591564716819
31
6.1172400478426425e-10
0
LINE
5
176
100
AcDbEntity
8
0
100
AcDbLine
10
174.065310239323
20
-338.88443365800669
30
1.1126211063583469e-09
11
175.79389261791408
21
-338.88448307475778
31
1.1127276877687107e-09
0
ARC
5
177
100
AcDbEntity
8
0
100
AcDbCircle
10
175.79394979395823
20
-336.88448307557508
30
-5.509574526914233e-11
40
2.0000000000000373
210
9.851810526836659e-17
220
3.4461322670281317e-12
230
1
100
AcDbArc
50
269.99836202699021
51
359.99836202730484
0
ARC
5
178
100
AcDbEntity
8
0
100
AcDbCircle
10
72.581210431817851
20
-186.05690798778477
30
-1.9764618636196585e-11
40
1.9999999999999849
210
-7.9491968563167832e-13
220
3.0787107040237962e-12
230
1
100
AcDbArc
50
-75.522487814068739
51
0
0
ARC
5
179
100
AcDbEntity
8
0
100
AcDbCircle
10
72.581210431817851
20
-75.942997613453656
30
4.4186630236410143e-10
40
2.0000000000000018
210
-2.3270274596143261e-12
220
1.0334077858395235e-26
230
1
100
AcDbArc
50
0
51
75.522487814070516
0
LINE
5
180
100
AcDbEntity
8
0
100
AcDbLine
10
71.581210431817865
20
-189.92989133399215
30
6.1235017057015305e-10
11
71.581210431817865
21
-193.05633285578651
31
6.3387517457158486e-10
0
ARC
5
181
100
AcDbEntity
8
0
100
AcDbCircle
10
72.583001117586406
20
-196.92977811356172
30
4.4164897256840623e-10
40
2.0000000000000018
210
-2.3270274596143907e-12
220
4.1336311433582086e-26
230
1
100
AcDbArc
50
0
51
75.548977113948226
0
LWPOLYLINE
5
182
100
AcDbEntity
8
0
100
AcDbPolyline
90
8
70
1
43
0.0
10
154.74464188029162
20
-298.07158733314657
42
-0.4142135623730534
10
155.74461383184553
20
-299.07161646077543
10
155.74427077536728
20
-311.07162393587231
42
-0.41421356237310542
10
154.74424164773853
20
-312.07159588742621
10
142.74423517264211
20
-312.07125283097668
42
-0.41421356237309503
10
141.74426322108809
20
-311.07122370334775
10
141.74460627756648
20
-299.07121622825088
42
-0.41421356237310542
10
142.74463540519534
20
-298.07124427669692
0
LWPOLYLINE
5
183
100
AcDbEntity
8
0
100
AcDbPolyline
90
8
70
1
43
0.0
10
122.69568520254998
20
-260.97065206770657
42
-0.41421356237311063
10
123.69571433017889
20
-259.97068011615278
10
135.6957208052753
20
-259.97102317260243
42
-0.41421356237307944
10
136.69569275682906
20
-260.97105230023118
10
136.69534970037952
20
-272.97105877532761
42
-0.41421356237310542
10
135.69532057275063
20
-273.97103072688151
10
123.69531409765429
20
-273.97068767043191
42
-0.41421356237307422
10
122.69534214610046
20
-272.97065854280305
0
LWPOLYLINE
5
184
100
AcDbEntity
8
0
100
AcDbPolyline
90
8
70
1
43
0.0
10
117.65085619769513
20
-79.995410045570424
10
117.65051314124545
20
-91.995416520666708
42
-0.41421356237312101
10
116.65048401361659
20
-92.995388472220682
10
104.65047753852025
20
-92.995045415770988
42
-0.41421356237308982
10
103.6505055869663
20
-91.995016288142168
10
103.65084864341597
20
-79.995009813045812
42
-0.41421356237309764
10
104.65087777104486
20
-78.995037861491937
10
116.65088424614115
20
-78.995380917941588
42
-0.41421356237312362
0
LWPOLYLINE
5
185
100
AcDbEntity
8
0
100
AcDbPolyline
90
8
70
1
43
0.0
10
142.74803916837817
20
-179.00868103160079
10
154.74804564347446
20
-179.00902408805052
42
-0.41421356237310542
10
155.7480175950283
20
-180.00905321567927
10
155.74767453857868
20
-192.00905969077567
42
-0.414213562373069
10
154.74764541094993
20
-193.00903164232946
10
142.74763893585353
20
-193.0086885858799
42
-0.41421356237304302
10
141.74766698429971
20
-192.00865945825103
10
141.74801004074939
20
-180.00865298315483
42
-0.41421356237312623
0
ARC
5
186
100
AcDbEntity
8
0
100
AcDbCircle
10
72.583001117585781
20
-300.13522156677584
30
-3.704931575822725e-10
40
2.0000000000000235
210
-7.9979039114655867e-13
220
3.0774489818522885e-12
230
1
100
AcDbArc
50
-75.431823885495376
51
0
0
ARC
5
187
100
AcDbEntity
8
0
100
AcDbCircle
10
83.593871941519197
20
-336.88184725771686
30
1.1058531868002319e-09
40
1.9999999999999829
210
1.4210854701838006e-13
220
6.1630438231114655e-18
230
1
100
AcDbArc
50
180.00248483570428
51
269.99836202699186
0
LINE
5
188
100
AcDbEntity
8
0
100
AcDbLine
10
76.589128410195414
20
-326.68378048284683
30
6.0991212080805925e-10
11
79.593516399362031
21
-326.68378048284666
31
6.0993008698653571e-10
0
LWPOLYLINE
5
189
100
AcDbEntity
8
0
100
AcDbPolyline
90
8
70
1
43
0.0
10
136.70059417585355
20
-89.520959787292028
10
136.70025111940402
20
-101.5209662623883
42
-0.41421356237311585
10
135.70022199177512
20
-102.52093821394226
10
123.70021551667877
20
-102.52059515749261
42
-0.41421356237309503
10
122.70024356512494
20
-101.5205660298637
10
122.70058662157454
20
-89.520559554767431
42
-0.41421356237311063
10
123.70061574920342
20
-88.520587603213542
10
135.70062222429976
20
-88.520930659663208
42
-0.41421356237310025
0
LWPOLYLINE
5
190
100
AcDbEntity
8
0
100
AcDbPolyline
90
32
70
1
43
0.0
10
94.381858264604517
20
-175.33550361314781
42
-0.39757933353413777
10
94.214215225624699
20
-175.49328507561086
10
92.922378326144354
20
-175.49328507561083
42
0.39757607994900374
10
92.764596863681405
20
-175.66092623368718
10
92.764596863681348
20
-176.87387193171017
42
-0.39757933353419916
10
92.596953824701501
20
-177.03165339417322
10
91.305116925221213
20
-177.03165339417322
42
0.39757607994939514
10
91.147335462758221
20
-177.1992945522496
10
91.147335462758178
20
-180.15769979478569
42
0.41421301681716222
10
91.305116925221199
20
-180.31548125724873
10
93.405584760276014
20
-180.31548125724868
42
0.39757933353416514
10
93.573227799255875
20
-180.15769979478574
10
93.573227799255847
20
-176.43997008858184
42
-0.39757607994936445
10
93.731009261718867
20
-176.27232893050549
10
94.214215225624656
20
-176.27232893050541
42
-0.38285890779631526
10
94.381858264604489
20
-176.4399738503887
10
94.381858264604517
20
-180.99591687058845
42
-0.39757933353425007
10
94.214215225624656
20
-181.1536983330513
10
90.496486459872528
20
-181.15369833305135
42
-0.41421301681712924
10
90.33870499740955
20
-180.99591687058845
10
90.33870499740955
20
-176.46955669903579
42
-0.39757607994942584
10
90.496486459872557
20
-176.30191554095941
10
91.788322889127002
20
-176.30191554095944
42
0.3975793335342605
10
91.955965928106878
20
-176.14413407849639
10
91.955965928106863
20
-175.66092623368723
42
0.33397659637543459
10
91.837629831259648
20
-175.4834216181905
10
88.879224588723545
20
-175.48342161819045
42
-0.39757933353395231
10
88.711581549743727
20
-175.32564015572757
10
88.711581549743698
20
-174.84243231091835
42
-0.38285313671911875
10
88.879224588723559
20
-174.67479115284189
10
94.214215225624656
20
-174.67479115284186
42
-0.39847372071909437
10
94.38185826460446
20
-174.85229576833859
0
LWPOLYLINE
5
191
100
AcDbEntity
8
0
100
AcDbPolyline
90
16
70
1
43
0.0
10
90.97969242377836
20
-193.26343592205404
42
0.38285313671925109
10
91.147335462758164
20
-193.09579476397758
10
91.147335462758207
20
-191.80395645381981
42
-0.41421301681726114
10
91.305116925221199
20
-191.64617499135684
10
91.798184465643885
20
-191.64617499135684
42
-0.41421301681726114
10
91.955965928106863
20
-191.80395645381975
10
91.955965928106792
20
-193.09579476397758
42
0.38285313671913268
10
92.123608967086724
20
-193.2634359220541
10
92.606815401218356
20
-193.26343592205404
42
0.39757607994929972
10
92.764596863681291
20
-193.09579476397772
10
92.764596863681362
20
-190.99532598847102
42
0.41421301681716222
10
92.606815401218356
20
-190.83754452600812
10
90.496486459872585
20
-190.83754452600814
42
0.41421301681742601
10
90.338704997409636
20
-190.99532598847111
10
90.338704997409536
20
-193.09579476397758
42
0.39757607994952154
10
90.496486459872528
20
-193.2634359220541
0
LWPOLYLINE
5
192
100
AcDbEntity
8
0
100
AcDbPolyline
90
16
70
1
43
0.0
10
93.523920857123244
20
-190.18669552312244
42
0.33805307244092514
10
93.415445866567026
20
-190.02891406065945
10
90.506347095937684
20
-190.02891406065947
42
-0.47227781634182264
10
90.289398055276962
20
-189.8612729025831
10
90.289398055276934
20
-189.37806505777374
42
-0.39757933353395414
10
90.45704109425678
20
-189.22028359531083
10
93.415446336792854
20
-189.22028359531083
42
0.39757607994933741
10
93.573227799255847
20
-189.0526424372344
10
93.573227799255847
20
-186.14354319637928
42
-0.39757933353404934
10
93.740870838235679
20
-185.98576173391623
10
94.224076802141511
20
-185.98576173391621
42
-0.4142130168170633
10
94.381858264604531
20
-186.1435431963792
10
94.381858264604475
20
-193.14509700385173
42
-0.39757607994921484
10
94.224076802141511
20
-193.31273816192811
10
93.691563896103091
20
-193.31273816192817
42
-0.382853136719224
10
93.523920857123244
20
-193.14509700385173
0
LWPOLYLINE
5
193
100
AcDbEntity
8
0
100
AcDbPolyline
90
24
70
1
43
0.0
10
88.66227460761111
20
-138.09904085381544
42
-0.40320541537841814
10
88.415740837399781
20
-137.84264550708724
10
88.415740837399724
20
-134.57853891614209
42
0.40320541537839721
10
88.159345490671583
20
-134.33200514593076
10
84.895238899726365
20
-134.33200514593074
42
0.41421356237307394
10
84.648705129515093
20
-134.57853891614209
10
84.648705129515079
20
-139.09503751117768
42
0.40320541537833765
10
84.895238899726365
20
-139.35143285790585
10
85.634840210360437
20
-139.35143285790585
42
0.40320541537837795
10
85.881373980571738
20
-139.09503751117768
10
85.881373980571738
20
-135.84079155629769
42
-0.41421409953644239
10
86.137769327299935
20
-135.58439620956943
10
86.887232214450862
20
-135.58439620956946
42
-0.40320541537845844
10
87.13376598466219
20
-135.84079155629769
10
87.133765984662176
20
-139.09503751117768
42
0.41421409953634086
10
87.390161331390345
20
-139.35143285790585
10
90.673990605143416
20
-139.35143285790588
42
0.40320541537845694
10
90.920524375354717
20
-139.09503751117768
10
90.920524375354717
20
-134.57853891614209
42
0.41421356237313722
10
90.673990605143416
20
-134.33200514593076
10
89.914666611701506
20
-134.33200514593074
42
0.41421356237309503
10
89.668132841490191
20
-134.57853891614209
10
89.668132841490191
20
-137.84264550708724
42
-0.41421409953638144
10
89.411737494761979
20
-138.09904085381547
0
LWPOLYLINE
5
194
100
AcDbEntity
8
0
100
AcDbPolyline
90
8
70
1
43
0.0
10
90.920524243691546
20
-131.9455580998127
42
0.41421356237309503
10
90.673990473480202
20
-131.6990243296014
10
89.914666461229288
20
-131.69902432960134
42
0.41421356237309503
10
89.668132691017917
20
-131.9455580998127
10
89.668132691017931
20
-132.70488211206359
42
0.41421356237309503
10
89.914666461229288
20
-132.95141588227494
10
90.673990473480202
20
-132.95141588227494
42
0.41421356237309503
10
90.920524243691517
20
-132.70488211206359
0
LWPOLYLINE
5
195
100
AcDbEntity
8
0
100
AcDbPolyline
90
20
70
1
43
0.0
10
91.305116925221171
20
-202.9670165534651
10
93.405584760275957
20
-202.96701655346496
42
0.39758545804186435
10
93.573227799255804
20
-202.80923132919526
10
93.573227799255832
20
-201.50753332342393
42
-0.41422000002713466
10
93.731009261718853
20
-201.34974809915408
10
94.214215225624656
20
-201.34974809915408
42
-0.39757320919100481
10
94.381858264604489
20
-201.50752579981031
10
94.381858264604475
20
-203.57840796486286
42
-0.39758545804177231
10
94.214215225624699
20
-203.73619318913256
10
90.496486459872557
20
-203.73619318913262
42
-0.41422000002713466
10
90.338704997409536
20
-203.57840796486286
10
90.338704997409565
20
-201.46807949374283
42
-0.41422000002716763
10
90.496486459872528
20
-201.31029426947308
10
92.596953824701501
20
-201.31029426947308
42
-0.3975854580416584
10
92.764596863681348
20
-201.46807949374283
10
92.764596863681334
20
-201.96114703416549
42
-0.39758545804171797
10
92.596953824701501
20
-202.11893225843525
10
91.305116925221213
20
-202.11893225843542
42
0.43322933316558859
10
91.147335462758235
20
-202.28657341651171
10
91.147335462758221
20
-202.80923132919528
42
0.41422000002720061
0
LWPOLYLINE
5
196
100
AcDbEntity
8
0
100
AcDbPolyline
90
24
70
1
43
0.0
10
92.715290391774531
20
-204.75191111862503
42
0.38285313671902194
10
92.547647352794726
20
-204.58426996054871
10
90.496486459872528
20
-204.58426996054871
42
0.39757607994909927
10
90.338704997409536
20
-204.75191111862515
10
90.338704997409536
20
-205.24497865904789
42
0.41422000002736553
10
90.496486459872528
20
-205.40276388331765
10
91.788322889127002
20
-205.40276388331762
42
-0.38285313671906612
10
91.955965928106863
20
-205.57040504139408
10
91.955965928106863
20
-206.86223958974517
42
-0.39758545804168915
10
91.788322889127002
20
-207.02002481401493
10
90.496486459872528
20
-207.02002481401482
42
0.39757607994922184
10
90.338704997409494
20
-207.18766597209128
10
90.33870499740955
20
-207.67087005509379
42
0.41422000002726655
10
90.496486459872557
20
-207.82865527936355
10
94.214215225624699
20
-207.82865527936363
42
0.41422367783216146
10
94.381858264604531
20
-207.66100659767346
10
94.381858264604489
20
-204.70260135513743
42
0.38285313671913651
10
94.214215225624656
20
-204.53496019706108
10
93.731009261718867
20
-204.53496019706108
42
0.61818757724871498
10
93.523920857123244
20
-204.75191111862515
10
93.523920857123215
20
-206.85237613232485
42
-0.39758545804165663
10
93.356277818143411
20
-207.01016135659461
10
92.873071854237551
20
-207.01016135659458
42
-0.41422000002746445
10
92.715290391774573
20
-206.85237613232485
0
LWPOLYLINE
5
197
100
AcDbEntity
8
0
100
AcDbPolyline
90
8
70
1
43
0.0
10
123.69898194286193
20
-145.67061844085993
10
135.69898841795828
20
-145.67096149730952
42
-0.41421356237308982
10
136.69896036951224
20
-146.67099062493838
10
136.69861731306253
20
-158.67099710003473
42
-0.41421356237311585
10
135.69858818543364
20
-159.67096905158868
10
123.69858171033728
20
-159.67062599513898
42
-0.4142135623730846
10
122.69860975878345
20
-158.67059686751014
10
122.69895281523306
20
-146.67059039241374
42
-0.41421356237310542
0
LWPOLYLINE
5
198
100
AcDbEntity
8
0
100
AcDbPolyline
90
32
70
1
43
0.0
10
92.468756151337445
20
-131.79763781887686
42
0.40320514866982959
10
92.222222381126102
20
-132.05403293049216
10
92.222222381126073
20
-139.09503751117771
42
0.40320541537823856
10
92.468756151337374
20
-139.35143285790585
10
98.208062491138705
20
-139.35143285790585
42
0.40320541537825783
10
98.454596261350019
20
-139.09503751117771
10
98.454596261349991
20
-132.01736050168472
42
0.41421356237299095
10
98.254596261350059
20
-131.81736050168473
10
97.468461180504704
20
-131.81736050168473
42
0.40320514866985119
10
97.221927410293318
20
-132.07375561330005
10
97.221927410293304
20
-137.84264550708721
42
-0.41421383095469244
10
96.965532298678056
20
-138.09904085381544
10
93.711286578910972
20
-138.09904085381544
42
-0.41421356237325735
10
93.454891702408602
20
-137.8426455070873
10
93.454891702408602
20
-133.3261473822775
42
-0.42621835455058688
10
93.711287049136786
20
-133.07961361206623
10
95.683557210827516
20
-133.07961361206617
42
0.41421356237309503
10
95.939952322442807
20
-132.82321850045091
10
95.939952322442821
20
-130.85094833876019
42
-0.40320514866986901
10
96.186486092654206
20
-130.59455322714496
10
98.254596261350002
20
-130.59455322714493
42
0.41421356237304302
10
98.454596261350019
20
-130.39455322714497
10
98.454596261350019
20
-129.55911120416698
42
0.41421356237313722
10
98.208062491138705
20
-129.3125774339556
10
89.924528188218389
20
-129.3125774339556
42
0.40320541537829968
10
89.668132841490191
20
-129.55911120416692
10
89.668132841490191
20
-130.29871251480097
42
0.4032054153783593
10
89.924528188218389
20
-130.5452462850123
10
94.441026313028132
20
-130.54524628501233
42
-0.40320514866986906
10
94.687560083239447
20
-130.80164139662764
10
94.687560083239489
20
-131.55110404866556
42
-0.41421356237307394
10
94.441026313028132
20
-131.79763781887686
0
LWPOLYLINE
5
199
100
AcDbEntity
8
0
100
AcDbPolyline
90
20
70
1
43
0.0
10
91.798184465643843
20
-184.35863734579868
42
-0.41522770259259745
10
91.955965928106863
20
-184.53614196129536
10
91.955965928106863
20
-187.44524120215058
42
-0.39757607994942584
10
91.798184465643843
20
-187.61288236022696
10
91.314978501738068
20
-187.61288236022696
42
-0.38285313671903276
10
91.147335462758207
20
-187.44524120215058
10
91.147335462758221
20
-185.33491273103061
42
0.39757607994931043
10
90.989554000295243
20
-185.16727157295409
10
90.506348036389412
20
-185.16727157295418
42
0.38285313671884003
10
90.33870499740965
20
-185.33491273103064
10
90.33870499740955
20
-188.24401197188567
42
0.38285313671904209
10
90.506348036389412
20
-188.41165312996219
10
92.60681540121837
20
-188.41165312996219
42
0.39757607994939892
10
92.764596863681334
20
-188.24401197188567
10
92.764596863681348
20
-183.71764803852645
42
0.39757607994921473
10
92.606815401218356
20
-183.5500068804501
10
90.506347095937684
20
-183.55000688045004
42
0.38285313671889731
10
90.338704056957823
20
-183.71764803852642
10
90.338704056957823
20
-184.20085588333575
42
0.39757933353401187
10
90.506347095937684
20
-184.35863734579863
0
LWPOLYLINE
5
200
100
AcDbEntity
8
0
100
AcDbPolyline
90
16
70
1
43
0.0
10
88.169207067188452
20
-129.31257743395562
10
87.362328804800939
20
-129.3125774339556
42
0.41435885936464301
10
87.162328829407443
20
-129.51267664384653
10
87.163349773761055
20
-131.5708267314734
42
-0.41421356237315837
10
86.916816003549741
20
-131.81736050168473
10
86.14763090381679
20
-131.81736050168473
42
-0.41421356237305285
10
85.901097133605475
20
-131.57082673147346
10
85.901097133605461
20
-129.59855656978272
42
0.49223962221827666
10
85.634840210360437
20
-129.31257743395562
10
84.885377323209511
20
-129.3125774339556
42
0.40277502698528489
10
84.648705129515065
20
-129.55911120416692
10
84.648705129515065
20
-132.82321826533797
42
0.40320514866988844
10
84.895238899726365
20
-133.07961337695326
10
88.169207067188452
20
-133.07961337695326
42
0.40320514866977142
10
88.415740837399824
20
-132.82321826533797
10
88.415740837399781
20
-129.55911120416692
42
0.41421356237303175
0
LWPOLYLINE
5
201
100
AcDbEntity
8
0
100
AcDbPolyline
90
12
70
1
43
0.0
10
94.224076802141511
20
-181.93274594975281
42
-0.39757607994936445
10
94.381858264604531
20
-182.10038710782919
10
94.381858264604489
20
-185.00948634868439
42
-0.3975760799494259
10
94.224076802141511
20
-185.17712750676083
10
93.691563896103091
20
-185.17712750676085
42
-0.38285313671889887
10
93.523920857123244
20
-185.00948634868439
10
93.52392085712323
20
-182.90901757317781
42
0.36614073298399169
10
93.415445866566984
20
-182.72165326206763
10
90.506348036389369
20
-182.72165326206772
42
-0.39757933353390135
10
90.33870499740955
20
-182.56387179960467
10
90.338704997409565
20
-182.10038710782925
42
-0.38285169395532598
10
90.506347095937713
20
-181.93274594975281
0
LWPOLYLINE
5
202
100
AcDbEntity
8
0
100
AcDbPolyline
90
24
70
1
43
0.0
10
92.113747390569841
20
-200.54111763380547
10
94.214215225624699
20
-200.54111763380547
42
0.39758545804142181
10
94.381858264604531
20
-200.38333240953563
10
94.381858264604546
20
-194.22985161167253
42
0.39758545804175549
10
94.214215225624699
20
-194.07206638740263
10
93.731009261718867
20
-194.07206638740269
42
0.41422000002706871
10
93.573227799255847
20
-194.22985161167247
10
93.573227799255875
20
-199.5747019441871
42
-0.39758545804166029
10
93.405584760276014
20
-199.73248716845688
10
92.922378796370168
20
-199.73248716845686
42
-0.41422000002706871
10
92.764597333907219
20
-199.5747019441871
10
92.764597333907247
20
-194.22985161167253
42
0.39758545804169426
10
92.596954294927372
20
-194.07206638740269
10
90.496486459872528
20
-194.07206638740274
42
0.41422000002723358
10
90.33870499740955
20
-194.22985161167253
10
90.338704997409579
20
-200.38333240953563
42
0.41422000002720061
10
90.496486459872557
20
-200.54111763380547
10
90.97969242377836
20
-200.54111763380547
42
0.39758545804184048
10
91.147335462758178
20
-200.38333240953563
10
91.147335462758178
20
-195.03848207702117
42
-0.41422000002716763
10
91.305116925221213
20
-194.88069685275138
10
91.788322889127045
20
-194.88069685275133
42
-0.39758545804175194
10
91.955965928106863
20
-195.0384820770212
10
91.955965928106821
20
-200.38333240953563
42
0.41422000002713466
0
LWPOLYLINE
5
203
100
AcDbEntity
8
0
100
AcDbPolyline
90
8
70
1
43
0.0
10
85.599778823627332
20
-117.07576380769166
10
85.599921763814734
20
-112.07576110973588
42
-0.41421356237340201
10
86.599950891443584
20
-111.07578915818102
10
99.59995790613128
20
-111.07616080266817
42
-0.41421356237311063
10
100.59992985768524
20
-112.07618993029705
10
100.59978691749774
20
-117.07619262825374
42
-0.41421356237308982
10
99.599757789868946
20
-118.07616457980764
10
86.599750775181278
20
-118.07579293532058
42
-0.41421356237311063
0
LWPOLYLINE
5
204
100
AcDbEntity
8
0
100
AcDbPolyline
90
8
70
1
43
0.0
10
168.06525306327697
20
-32.634155607362615
42
-0.41422193563557475
10
167.56523876926599
20
-33.134155607158107
10
101.11685400600594
20
-33.132255979269935
42
-0.41420518916006915
10
100.61686830001692
20
-32.632255979474039
10
100.61686830001699
20
-31.633072877655728
42
-0.41421356237309243
10
101.11686830001696
20
-31.133072877655721
10
167.56525306327694
20
-31.133072877655707
42
-0.41421356237310542
10
168.065253063277
20
-31.633072877655732
0
LWPOLYLINE
5
205
100
AcDbEntity
8
0
100
AcDbPolyline
90
8
70
1
43
0.0
10
81.583118618068823
20
-88.929869649709374
42
-0.41422626478887553
10
81.083118618539032
20
-89.429891333992103
10
80.081210431817865
20
-89.429891333992103
42
-0.41421356237306384
10
79.581210431817851
20
-88.929891333992117
10
79.581210431817851
20
-49.430575894560178
42
-0.41421356237312101
10
80.081210431817865
20
-48.930575894560192
10
81.081405589892114
20
-48.930575894560164
42
-0.41420086007144258
10
81.581405589421919
20
-49.430554210277506
0
LWPOLYLINE
5
206
100
AcDbEntity
8
0
100
AcDbPolyline
90
8
70
1
43
0.0
10
168.06525306327893
20
-339.38424783443315
10
168.06525306327893
20
-340.38591564716825
42
-0.41421356237307422
10
167.5652530632789
20
-340.88591564716836
10
101.11686830001901
20
-340.88591564716836
42
-0.41421356237295975
10
100.61686830001901
20
-340.38591564716842
10
100.61686830001901
20
-339.3823482065448
42
-0.4142219356356398
10
101.11688259403003
20
-338.88234820674887
10
167.56526735728994
20
-338.88424783463756
42
-0.41420518916018878
0
LWPOLYLINE
5
207
100
AcDbEntity
8
0
100
AcDbPolyline
90
8
70
1
43
0.0
10
85.597062781392282
20
-212.08206507224361
10
85.596919841204937
20
-217.08206777020047
42
0.41421356237312101
10
86.596891792758925
20
-218.08209689782939
10
99.596898807446607
20
-218.08246854231641
42
0.4142135623730846
10
100.59692793507551
20
-217.08249659076247
10
100.59707087526279
20
-212.08249389280567
42
0.41421356237307944
10
99.597098923708927
20
-211.08246476517681
10
86.597091909021231
20
-211.08209312068965
42
0.41421356237308982
0
LWPOLYLINE
5
208
100
AcDbEntity
8
0
100
AcDbPolyline
90
8
70
1
43
0.0
10
81.088892557191272
20
-224.18337215334375
10
80.08300111758679
20
-224.18337215334333
42
-0.41421356237288692
10
79.583001117587145
20
-223.68337215334324
10
79.58300111758706
20
-93.929778113561767
42
-0.41421356237306384
10
80.08300111758706
20
-93.429778113561767
10
81.08889255719069
20
-93.429778113561767
42
-0.41421356237307422
10
81.58889255719069
20
-93.929778113561738
10
81.588892557190761
20
-223.68337215334373
42
-0.4142135623732095
0
CIRCLE
5
209
100
AcDbEntity
8
0
100
AcDbCircle
10
75.589128410195414
20
-305.50661768072064
30
6.1074700852259411e-10
40
1.7999999999999974
210
0
220
0
230
1
0
CIRCLE
5
210
100
AcDbEntity
8
0
100
AcDbCircle
10
75.582105774702455
20
-191.3847082072657
30
6.1074700852259411e-10
40
1.8000000000000065
210
0
220
0
230
1
0
CIRCLE
5
211
100
AcDbEntity
8
0
100
AcDbCircle
10
134.34106068164905
20
-344.88591564716836
30
6.106226635438361e-10
40
1.8000000000000151
210
0
220
0
230
1
0
CIRCLE
5
212
100
AcDbEntity
8
0
100
AcDbCircle
10
75.581210432226527
20
-70.442969025431609
30
6.1072924495420011e-10
40
1.7999999999999974
210
0
220
0
230
1
0
CIRCLE
5
213
100
AcDbEntity
8
0
100
AcDbCircle
10
134.34106068164704
20
-27.133072877655714
30
6.1074700852259411e-10
40
1.7999999999999974
210
0
220
0
230
1
0
LWPOLYLINE
5
214
100
AcDbEntity
8
0
100
AcDbPolyline
90
8
70
1
43
0.0
10
104.64666532372343
20
-226.34511737027921
42
-0.41421356237307944
10
103.64669337216952
20
-225.34508824265046
10
103.64703642861919
20
-213.34508176755421
42
-0.41421356237312101
10
104.64706555624795
20
-212.34510981600025
10
116.64707203134434
20
-212.34545287244984
42
-0.41421356237311585
10
117.64704398289824
20
-213.34548200007885
10
117.64670092644855
20
-225.34548847517499
42
-0.41421356237305862
10
116.64667179881977
20
-226.34546042672889
0
LWPOLYLINE
5
215
100
AcDbEntity
8
0
100
AcDbPolyline
90
8
70
1
43
0.0
10
117.648879334904
20
-149.14544735831322
42
-0.41421356237310025
10
116.6488502072751
20
-150.14541930986712
10
104.64884373217873
20
-150.14507625341741
42
-0.414213562373069
10
103.64887178062482
20
-149.14504712578855
10
103.64921483707448
20
-137.14504065069215
42
-0.41421356237313667
10
104.64924396470332
20
-136.14506869913842
10
116.6492504397997
20
-136.14541175558799
42
-0.41421356237308982
10
117.6492223913535
20
-137.14544088321679
0
LWPOLYLINE
5
216
100
AcDbEntity
8
0
100
AcDbPolyline
90
8
70
1
43
0.0
10
160.80121717725515
20
-68.184137245464811
10
160.80156023370478
20
-56.184130770368476
42
-0.41421356237307422
10
161.8015893613335
20
-55.184158818814552
10
173.80159583642981
20
-55.184501875264267
42
-0.41421356237312362
10
174.80156778798386
20
-56.184531002893046
10
174.80122473153403
20
-68.184537477989437
42
-0.41421356237309243
10
173.80119560390528
20
-69.184509429543311
10
161.80118912880897
20
-69.184166373093632
42
-0.41421356237309503
0
LWPOLYLINE
5
217
100
AcDbEntity
8
0
100
AcDbPolyline
90
8
70
1
43
0.0
10
98.598256378310438
20
-170.57616432031682
42
-0.41421356237307422
10
97.598227250681546
20
-171.57613627187078
10
85.598220775585204
20
-171.57579321542102
42
-0.41421356237313667
10
84.598248824031202
20
-170.57576408779224
10
84.598796106273696
20
-151.43200375798989
42
-0.41421356237312101
10
85.598825233902502
20
-150.43203180643602
10
97.598831708998858
20
-150.43237486288558
42
-0.41421356237307944
10
98.59880366055279
20
-151.43240399051453
0
LWPOLYLINE
5
218
100
AcDbEntity
8
0
100
AcDbPolyline
90
8
70
1
43
0.0
10
161.79723254442291
20
-207.58424105253783
10
173.79723901951931
20
-207.58458410898754
42
-0.41421356237309503
10
174.7972109710733
20
-208.58461323661626
10
174.79686791462353
20
-220.58461971171283
42
-0.4142135623730534
10
173.79683878699478
20
-221.58459166326651
10
161.7968323118983
20
-221.58424860681689
42
-0.41421356237312623
10
160.79686036034443
20
-220.58421947918816
10
160.79720341679408
20
-208.58421300409174
42
-0.41421356237309503
0
LWPOLYLINE
5
219
100
AcDbEntity
8
0
100
AcDbPolyline
90
8
70
1
43
0.0
10
104.64775452795108
20
-188.24509681184844
42
-0.41421356237307944
10
103.64778257639715
20
-187.24506768421952
10
103.64812563284688
20
-175.24506120912326
42
-0.41421356237311063
10
104.64815476047569
20
-174.24508925756939
10
116.64816123557202
20
-174.24543231401898
42
-0.41421356237311585
10
117.64813318712589
20
-175.24546144164782
10
117.6477901306763
20
-187.24546791674416
42
-0.4142135623730846
10
116.64776100304736
20
-188.24543986829812
0
LWPOLYLINE
5
220
100
AcDbEntity
8
0
100
AcDbPolyline
90
8
70
1
43
0.0
10
161.7999555549921
20
-112.33418965646052
10
173.79996203008832
20
-112.33453271291012
42
-0.41421356237313145
10
174.79993398164225
20
-113.33456184053895
10
174.79959092519252
20
-125.33456831563535
42
-0.41421356237310542
10
173.79956179756385
20
-126.33454026718921
10
161.79955532246748
20
-126.33419721073955
42
-0.41421356237308982
10
160.79958337091369
20
-125.33416808311077
10
160.79992642736315
20
-113.33416160801443
42
-0.4142135623730846
0
LWPOLYLINE
5
221
100
AcDbEntity
8
0
100
AcDbPolyline
90
8
70
1
43
0.0
10
103.64390496646452
20
-322.88264087304299
42
-0.4142135623730846
10
104.64393409409345
20
-321.88266892148908
10
116.64394056918974
20
-321.88301197793891
42
-0.41421356237309503
10
117.64391252074364
20
-322.8830411055676
10
117.64356946429399
20
-334.88304758066386
42
-0.41421356237305862
10
116.64354033666521
20
-335.88301953221765
10
104.64353386156887
20
-335.88267647576845
42
-0.41421356237312623
10
103.64356191001484
20
-334.88264734813924
0
LWPOLYLINE
5
222
100
AcDbEntity
8
0
100
AcDbPolyline
90
8
70
1
43
0.0
10
103.64832717851101
20
-168.19505740500406
10
103.64867023496069
20
-156.19505092990772
42
-0.414213562373069
10
104.6486993625895
20
-155.19507897835379
10
116.64870583768582
20
-155.19542203480347
42
-0.41421356237309503
10
117.64867778923973
20
-156.19545116243228
10
117.6483347327901
20
-168.19545763752865
42
-0.41421356237309503
10
116.64830560516128
20
-169.19542958908252
10
104.64829913006488
20
-169.19508653263279
42
-0.41421356237309503
0
LINE
5
223
100
AcDbEntity
8
0
100
AcDbLine
10
99.600166420129597
20
-103.78240686702361
30
3.4074076893375604e-10
11
86.600159405441914
21
-103.7820352225375
31
3.4072300536536204e-10
0
ARC
5
224
100
AcDbEntity
8
0
100
AcDbCircle
10
97.60064115309558
20
-87.138590710124859
30
2.8606450541701639e-10
40
1.0000005400000103
210
0
220
0
230
1
100
AcDbArc
50
-0.0016379729176161022
51
89.998362026991273
0
LINE
5
225
100
AcDbEntity
8
0
100
AcDbLine
10
85.600663266036619
20
-86.138247114083867
30
2.8279600883251987e-10
11
97.600669741133075
21
-86.13859017053349
31
2.8606450541701639e-10
0
ARC
5
226
100
AcDbEntity
8
0
100
AcDbCircle
10
86.600187993479366
20
-102.78203468294608
30
3.3747227234925963e-10
40
1.0000005400000103
210
0
220
0
230
1
100
AcDbArc
50
179.99836202708235
51
269.99836202699373
0
LINE
5
227
100
AcDbEntity
8
0
100
AcDbLine
10
100.60033848794581
20
-97.782432217512934
30
3.2104097158480727e-10
11
100.60019554775846
21
-102.78243491546974
31
3.3747227234925963e-10
0
ARC
5
228
100
AcDbEntity
8
0
100
AcDbCircle
10
99.600395124429355
20
-95.782402550292701
30
3.1448621484742039e-10
40
1.0000005400000103
210
0
220
0
230
1
100
AcDbArc
50
179.99836202708235
51
269.99836202699214
0
LWPOLYLINE
5
229
100
AcDbEntity
8
0
100
AcDbPolyline
90
8
70
1
43
0.0
10
117.64724552856242
20
-206.29547819595959
42
-0.41421356237305862
10
116.64721640093364
20
-207.29545014751326
10
104.64720992583722
20
-207.2951070910637
42
-0.41421356237305862
10
103.64723797428341
20
-206.29507796343501
10
103.64758103073292
20
-194.29507148833881
42
-0.41421356237311585
10
104.64761015836189
20
-193.2950995367847
10
116.64761663345816
20
-193.29544259323441
42
-0.41421356237312623
10
117.64758858501207
20
-194.2954717208633
0
LINE
5
230
100
AcDbEntity
8
0
100
AcDbLine
10
85.600187453887997
20
-102.78200609491017
30
3.3747227234925963e-10
11
85.600242105639254
21
-100.87030506337079
31
3.3116620556938869e-10
0
LINE
5
231
100
AcDbEntity
8
0
100
AcDbLine
10
84.60029108195819
20
-99.138225540734126
30
3.2548186368330789e-10
11
84.600634138407855
21
-87.138219065638808
31
2.8608226898541034e-10
0
ARC
5
232
100
AcDbEntity
8
0
100
AcDbCircle
10
99.600195008167077
20
-102.78240632743223
30
-2.1491721223699985e-12
40
1.0000005400000103
210
9.4455452038735184e-17
220
3.3040219357624395e-12
230
1
100
AcDbArc
50
269.99836202699214
51
359.99836202708235
0
LWPOLYLINE
5
233
100
AcDbEntity
8
0
100
AcDbPolyline
90
8
70
1
43
0.0
10
174.79360030194042
20
-334.88468138700534
42
-0.41421356237315748
10
173.79357117431186
20
-335.8846533385593
10
161.79356469921541
20
-335.88431028210982
42
-0.41421356237316787
10
160.79359274766131
20
-334.88428115448073
10
160.79393580411107
20
-322.88427467938448
42
-0.41421356237311585
10
161.79396493173996
20
-321.88430272783074
10
173.79397140683639
20
-321.88464578428022
42
-0.41421356237297013
10
174.79394335839021
20
-322.88467491190886
0
LWPOLYLINE
5
234
100
AcDbEntity
8
0
100
AcDbPolyline
90
8
70
1
43
0.0
10
122.70113122368841
20
-70.470549275552401
42
-0.41421356237310542
10
123.70116035131723
20
-69.470577323998526
10
135.70116682641358
20
-69.470920380448177
42
-0.41421356237308721
10
136.70113877796749
20
-70.470949508077055
10
136.70079572151778
20
-82.470955983172857
42
-0.41421356237340717
10
135.70076659388906
20
-83.470927934727811
10
123.70076011879263
20
-83.47058487827708
42
-0.4142135623730846
10
122.70078816723873
20
-82.470555750648316
0
ARC
5
235
100
AcDbEntity
8
0
100
AcDbCircle
10
104.6494169223586
20
-130.09506443460987
30
4.2712500203379028e-10
40
1.0000005399999925
210
0
220
0
230
1
100
AcDbArc
50
179.99836202708235
51
269.99836202699049
0
LWPOLYLINE
5
236
100
AcDbEntity
8
0
100
AcDbPolyline
90
8
70
1
43
0.0
10
174.79795711885123
20
-182.48459915328186
42
-0.41421356237306384
10
173.79792799122265
20
-183.48457110483571
10
161.79792151612602
20
-183.48422804838609
42
-0.41421356237310542
10
160.79794956457218
20
-182.48419892075714
10
160.79829262102174
20
-170.48419244566074
42
-0.41421356237306384
10
161.79832174865058
20
-169.48422049410692
10
173.79832822374706
20
-169.48456355055666
42
-0.41421356237309503
10
174.79830017530091
20
-170.48459267818544
0
LINE
5
237
100
AcDbEntity
8
0
100
AcDbLine
10
116.64939480938892
20
-131.09540903065169
30
4.3037573504989279e-10
11
104.64938833432109
21
-131.09506497420119
31
4.2712500203379028e-10
0
LWPOLYLINE
5
238
100
AcDbEntity
8
0
100
AcDbPolyline
90
8
70
1
43
0.0
10
173.79629418488099
20
-240.63460194248216
10
161.79628770978442
20
-240.63425888603246
42
-0.4142135623730534
10
160.79631575823069
20
-239.63422975840362
10
160.79665881468017
20
-227.63422328330719
42
-0.4142135623730534
10
161.79668794230912
20
-226.63425133175338
10
173.79669441740558
20
-226.634594388203
42
-0.41421356237307422
10
174.79666636895939
20
-227.63462351583175
10
174.79632331250966
20
-239.63462999092823
42
-0.41421356237303258
0
ARC
5
239
100
AcDbEntity
8
0
100
AcDbCircle
10
84.600241566047913
20
-100.87027647533334
30
3.3116620556938869e-10
40
1.0000005399999747
210
0
220
0
230
1
100
AcDbArc
50
-0.0016379729176161022
51
59.998362027147628
0
LWPOLYLINE
5
240
100
AcDbEntity
8
0
100
AcDbPolyline
90
8
70
1
43
0.0
10
116.64483376668555
20
-290.63924511908118
10
104.64482729158917
20
-290.63890206263147
42
-0.41421356237308982
10
103.64485534003536
20
-289.6388729350025
10
103.64519839648483
20
-277.63886645990641
42
-0.4142135623730534
10
104.64522752411386
20
-276.63889450835245
10
116.64523399921015
20
-276.6392375648021
42
-0.41421356237312101
10
117.64520595076402
20
-277.63926669243097
10
117.64486289431447
20
-289.63927316752722
42
-0.41421356237306384
0
ARC
5
241
100
AcDbEntity
8
0
100
AcDbCircle
10
85.600291621549545
20
-99.138254128771564
30
3.2548186368330789e-10
40
1.0000005400000103
210
0
220
0
230
1
100
AcDbArc
50
179.99836202708235
51
239.99833889167837
0
ARC
5
242
100
AcDbEntity
8
0
100
AcDbCircle
10
99.600337948354394
20
-97.782403629475453
30
3.2104097158480727e-10
40
1.0000005400000103
210
0
220
0
230
1
100
AcDbArc
50
-0.0016379729176161022
51
89.998362026992098
0
LWPOLYLINE
5
243
100
AcDbEntity
8
0
100
AcDbPolyline
90
8
70
1
43
0.0
10
85.601556463532404
20
-54.894480255226874
42
-0.41421356237310025
10
84.601584511978501
20
-53.894451127598018
10
84.601995643692362
20
-39.513193367599627
42
-0.41421356237310281
10
85.602024771321254
20
-38.513221416045752
10
97.60203124641761
20
-38.513564472495503
42
-0.41421356237308593
10
98.602003197971513
20
-39.51359360012431
10
98.601592066257524
20
-53.894851360122537
42
-0.41421356237309243
10
97.601562938628788
20
-54.894823311676433
0
LWPOLYLINE
5
244
100
AcDbEntity
8
0
100
AcDbPolyline
90
8
70
1
43
0.0
10
154.746411837133
20
-236.15905492569684
42
-0.414213562373069
10
155.7463837886869
20
-237.15908405332584
10
155.7460407322373
20
-249.1590905284221
42
-0.414213562373069
10
154.74601160460847
20
-250.15906247997606
10
142.74600512951201
20
-250.15871942352632
42
-0.414213562373069
10
141.74603317795822
20
-249.15869029589746
10
141.74637623440788
20
-237.1586838208012
42
-0.41421356237306384
10
142.74640536203668
20
-236.15871186924736
0
LINE
5
245
100
AcDbEntity
8
0
100
AcDbLine
10
98.600641692686949
20
-87.138619298160762
30
2.8606450541701639e-10
11
98.600394584837986
21
-95.782373962256798
31
3.1448621484742039e-10
0
ARC
5
246
100
AcDbEntity
8
0
100
AcDbCircle
10
85.600634677999196
20
-87.138247653675208
30
-2.684853443158563e-13
40
1.0000005399999925
210
9.3947626852651335e-17
220
3.2862583769681022e-12
230
1
100
AcDbArc
50
89.998362026995352
51
179.99836202708235
0
LINE
5
247
100
AcDbEntity
8
0
100
AcDbLine
10
103.64941638276724
20
-130.09503584657395
30
4.2712500203379028e-10
11
103.64975943918829
21
-118.09503037147681
31
3.8772540733589272e-10
0
LWPOLYLINE
5
248
100
AcDbEntity
8
0
100
AcDbPolyline
90
8
70
1
43
0.0
10
161.79574310767069
20
-259.68426916524794
42
-0.41421356237310542
10
160.79577115611673
20
-258.68424003761908
10
160.79611421256635
20
-246.68423356252282
42
-0.41421356237313667
10
161.7961433401953
20
-245.68426161096883
10
173.7961498152917
20
-245.68460466741851
42
-0.4142135623730534
10
174.79612176684552
20
-246.68463379504718
10
174.79577871039592
20
-258.68464027014375
42
-0.41421356237310542
10
173.79574958276717
20
-259.68461222169759
0
LWPOLYLINE
5
249
100
AcDbEntity
8
0
100
AcDbPolyline
90
8
70
1
43
0.0
10
154.74546700249462
20
-269.20907275919154
10
142.74546052739825
20
-269.20872970274183
42
-0.41421356237311585
10
141.74548857584429
20
-268.20870057511308
10
141.74583163229397
20
-256.2086941000166
42
-0.41421356237310542
10
142.74586075992283
20
-255.20872214846264
10
154.74586723501915
20
-255.20906520491241
42
-0.41421356237308982
10
155.74583918657308
20
-256.20909433254121
10
155.74549613012343
20
-268.2091008076377
42
-0.41421356237304818
0
ARC
5
250
100
AcDbEntity
8
0
100
AcDbCircle
10
104.64975997877974
20
-118.0950589595142
30
1.7420975276359082e-12
40
1.000000539999957
210
9.3439801900703006e-17
220
3.2684948181737702e-12
230
1
100
AcDbArc
50
89.998362026991273
51
179.99836202708235
0
LWPOLYLINE
5
251
100
AcDbEntity
8
0
100
AcDbPolyline
90
8
70
1
43
0.0
10
123.6995265449757
20
-126.62060816164448
10
135.6995330200721
20
-126.62095121809413
42
-0.41421356237307422
10
136.69950497162597
20
-127.6209803457229
10
136.69916191517632
20
-139.62098682081913
42
-0.41421356237310542
10
135.69913278754746
20
-140.62095877237306
10
123.69912631245116
20
-140.62061571592346
42
-0.41421356237310025
10
122.69915436089731
20
-139.62058658829454
10
122.69949741734693
20
-127.62058011319837
42
-0.41421356237308982
0
LWPOLYLINE
5
252
100
AcDbEntity
8
0
100
AcDbPolyline
90
8
70
1
43
0.0
10
122.69697595244189
20
-215.82062770515662
10
122.69731900889155
20
-203.82062123006023
42
-0.41421356237309503
10
123.69734813652038
20
-202.82064927850627
10
135.69735461161673
20
-202.820992334956
42
-0.41421356237315227
10
136.69732656317058
20
-203.82102146258489
10
136.69698350672104
20
-215.82102793768129
42
-0.4142135623730846
10
135.6969543790922
20
-216.82099988923528
10
123.69694790399578
20
-216.82065683278529
42
-0.414213562373069
0
ARC
5
253
100
AcDbEntity
8
0
100
AcDbCircle
10
116.64976645387604
20
-118.09540201596386
30
3.8772540733589272e-10
40
1.0000005399999747
210
0
220
0
230
1
100
AcDbArc
50
-0.0016379729176161022
51
89.998362026994542
0
LINE
5
254
100
AcDbEntity
8
0
100
AcDbLine
10
117.64976699346738
20
-118.09543060399976
30
3.8772540733589272e-10
11
117.64942393704636
21
-130.095436079097
31
4.2712500203379028e-10
0
LINE
5
255
100
AcDbEntity
8
0
100
AcDbLine
10
104.64978856681724
20
-117.09505841992289
30
3.8445691075139621e-10
11
116.64979504191348
21
-117.09540147637253
31
3.8772540733589272e-10
0
ARC
5
256
100
AcDbEntity
8
0
100
AcDbCircle
10
116.64942339745494
20
-130.09540749105958
30
1.9023981166009068e-12
40
1.0000015400007505
210
9.3439708323727928e-17
220
3.2684915496814555e-12
230
1
100
AcDbArc
50
269.9983620269951
51
359.99836202708235
0
LWPOLYLINE
5
257
100
AcDbEntity
8
0
100
AcDbPolyline
90
8
70
1
43
0.0
10
135.70151542179553
20
-57.277163800806008
10
123.70150894669919
20
-57.276820744356343
42
-0.41421356237309243
10
122.70153699514526
20
-56.276791616727493
10
122.70201620212339
20
-39.51428257182728
42
-0.41421356237310281
10
123.70204532975221
20
-38.514310620273363
10
135.70205180484857
20
-38.5146536767231
42
-0.41421356237310414
10
136.70202375640253
20
-39.514682804351892
10
136.70154454942431
20
-56.277191849252091
42
-0.41421356237312362
0
LWPOLYLINE
5
258
100
AcDbEntity
8
0
100
AcDbPolyline
90
8
70
1
43
0.0
10
142.74967297471966
20
-121.85865019395443
10
154.74967944981597
20
-121.8589932504041
42
-0.41421356237312623
10
155.7496514013699
20
-122.85902237803296
10
155.74930834492019
20
-134.85902885312925
42
-0.41421356237309503
10
154.74927921729144
20
-135.85900080468306
10
142.74927274219505
20
-135.8586577482335
42
-0.414213562373069
10
141.7493007906412
20
-134.85862862060466
10
141.74964384709088
20
-122.85862214550831
42
-0.41421356237310025
0
LWPOLYLINE
5
259
100
AcDbEntity
8
0
100
AcDbPolyline
90
8
70
1
43
0.0
10
173.7994174279747
20
-131.38454299212577
42
-0.41421356237313145
10
174.79938937952838
20
-132.38457211975452
10
174.7990463230787
20
-144.38457859485089
42
-0.4142135623730846
10
173.79901719545006
20
-145.38455054640474
10
161.79901072035361
20
-145.38420748995512
42
-0.41421356237305862
10
160.79903876879982
20
-144.38417836232622
10
160.79938182524953
20
-132.38417188722985
42
-0.41421356237311063
10
161.79941095287819
20
-131.38419993567598
0
LWPOLYLINE
5
260
100
AcDbEntity
8
0
100
AcDbPolyline
90
8
70
1
43
0.0
10
97.59393028997431
20
-321.88246737582506
42
-0.41421356237313667
10
98.59390224152817
20
-322.88249650345392
10
98.593559185078618
20
-334.88250297854984
42
-0.41421356237311585
10
97.593530057449726
20
-335.88247493010397
10
85.59352358235337
20
-335.88213187365432
42
-0.41421356237311063
10
84.59355163079951
20
-334.88210274602545
10
84.593894687249133
20
-322.88209627092925
42
-0.41421356237316787
10
85.593923814877982
20
-321.88212431937529
0
LWPOLYLINE
5
261
100
AcDbEntity
8
0
100
AcDbPolyline
90
8
70
1
43
0.0
10
85.594468416991774
20
-302.83211404015992
10
97.594474892088172
20
-302.83245709660952
42
-0.4142135623730534
10
98.594446843642004
20
-303.83248622423832
10
98.594103787192381
20
-315.83249269933464
42
-0.41421356237306384
10
97.59407465956356
20
-316.83246465088848
10
85.594068184467176
20
-316.83212159443877
42
-0.41421356237314183
10
84.594096232913344
20
-315.83209246681002
10
84.594439289363066
20
-303.83208599171383
42
-0.41421356237306384
0
LWPOLYLINE
5
262
100
AcDbEntity
8
0
100
AcDbPolyline
90
8
70
1
43
0.0
10
123.69354414078433
20
-335.88322107788201
42
-0.41421356237309503
10
122.69357218923032
20
-334.88319195025321
10
122.69391524568022
20
-322.88318547515695
42
-0.41421356237314183
10
123.69394437330891
20
-321.88321352360305
10
135.69395084840528
20
-321.88355658005264
42
-0.41421356237312623
10
136.69392279995924
20
-322.8835857076815
10
136.69357974350942
20
-334.88359218277765
42
-0.41421356237307944
10
135.69355061588072
20
-335.88356413433178
0
LWPOLYLINE
5
263
100
AcDbEntity
8
0
100
AcDbPolyline
90
8
70
1
43
0.0
10
174.80047858378467
20
-94.284550561322988
10
174.80013552730645
20
-106.28455803641992
42
-0.41421356237305862
10
173.80010639967762
20
-107.2845299879738
10
161.80009992458139
20
-107.28418693152405
42
-0.41421356237311063
10
160.80012797302749
20
-106.28415780389524
10
160.8004710295057
20
-94.284150328798347
42
-0.41421356237313667
10
161.80050015713454
20
-93.284178377244501
10
173.80050663223079
20
-93.284521433694209
42
-0.41421356237305862
0
LWPOLYLINE
5
264
100
AcDbEntity
8
0
100
AcDbPolyline
90
8
70
1
43
0.0
10
154.75022405192985
20
-102.80898297118864
42
-0.41421356237310025
10
155.75019600348372
20
-103.80901209881742
10
155.74985294703413
20
-115.80901857391382
42
-0.41421356237309503
10
154.74982381940526
20
-116.80899052546772
10
142.74981734430889
20
-116.80864746901796
42
-0.4142135623730846
10
141.74984539275502
20
-115.80861834138916
10
141.7501884492047
20
-103.80861186629282
42
-0.41421356237308982
10
142.75021757683356
20
-102.80863991473893
0
ARC
5
265
100
AcDbEntity
8
0
100
AcDbCircle
10
115.65115581463743
20
-69.477097193939031
30
-2.4237289877361464e-13
40
1.0000005400000103
210
9.3947626852647292e-17
220
3.2862583769680178e-12
230
1
100
AcDbArc
50
269.99836202699538
51
359.99836202708235
0
LWPOLYLINE
5
266
100
AcDbEntity
8
0
100
AcDbPolyline
90
8
70
1
43
0.0
10
141.74528703018018
20
-275.25870437923209
42
-0.41421356237312101
10
142.7453161578089
20
-274.25873242767801
10
154.7453226329053
20
-274.25907548412772
42
-0.41421356237313145
10
155.74529458445926
20
-275.25910461175658
10
155.74495152800966
20
-287.25911108685301
42
-0.41421356237306384
10
154.74492240038074
20
-288.25908303840697
10
142.74491592528443
20
-288.25873998195721
42
-0.41421356237315227
10
141.74494397373056
20
-287.25871085432823
0
LWPOLYLINE
5
267
100
AcDbEntity
8
0
100
AcDbPolyline
90
8
70
1
43
0.0
10
154.7509130236329
20
-78.708969967037262
10
142.75090654853656
20
-78.708626910587554
42
-0.41421356237311324
10
141.75093459698269
20
-77.708597782958748
10
141.7512776534324
20
-65.708591307862392
42
-0.41421356237309243
10
142.75130678106115
20
-64.708619356308489
10
154.75131325615757
20
-64.708962412758183
42
-0.41421356237310542
10
155.75128520771142
20
-65.708991540387018
10
155.75094215126168
20
-77.70899801548336
42
-0.41421356237312623
0
ARC
5
268
100
AcDbEntity
8
0
100
AcDbCircle
10
102.6512917401371
20
-64.476722851495097
30
-1.3521296903395245e-12
40
1.0000005399999925
210
9.4455451862664943e-17
220
3.304021935762498e-12
230
1
100
AcDbArc
50
89.998362026993718
51
179.99836202708235
0
LINE
5
269
100
AcDbEntity
8
0
100
AcDbLine
10
102.65200289615727
20
-39.600709428620519
30
1.299937935073103e-10
11
115.65200991084501
21
-39.601081073107579
31
1.3001155707570431e-10
0
LINE
5
270
100
AcDbEntity
8
0
100
AcDbLine
10
117.65174117613
20
-49.039143341845843
30
1.609734567864507e-10
11
117.65139811968048
21
-61.039149816942135
31
2.0039081505274225e-10
0
LINE
5
271
100
AcDbEntity
8
0
100
AcDbLine
10
101.65183082834102
20
-45.600684078131152
30
1.4971135442465314e-10
11
101.65197376852846
21
-40.600681380174358
31
1.3326229009180679e-10
0
ARC
5
272
100
AcDbEntity
8
0
100
AcDbCircle
10
102.65114879994977
20
-69.476725549451984
30
2.2806645461059816e-10
40
1.0000005399999925
210
0
220
0
230
1
100
AcDbArc
50
179.99836202708235
51
269.99836202699294
0
LINE
5
273
100
AcDbEntity
8
0
100
AcDbLine
10
116.65198186239884
20
-40.601110200736386
30
1.3326229009180679e-10
11
116.65179015247759
21
-47.307062819208568
31
1.552891149003699e-10
0
ARC
5
274
100
AcDbEntity
8
0
100
AcDbCircle
10
117.65179069206894
20
-47.307091407246027
30
1.553068784687639e-10
40
1.0000005399999747
210
-1.7763558794422032e-14
220
5.0782501017209967e-19
230
1
100
AcDbArc
50
179.99836202708235
51
239.99836202699646
0
ARC
5
275
100
AcDbEntity
8
0
100
AcDbCircle
10
117.65134860377006
20
-62.771200751541365
30
-1.1563402572491688e-10
40
1.0000001903126912
210
-1.4210153311109871e-12
220
2.4614321082540621e-12
230
1
100
AcDbArc
50
119.99837359456853
51
179.99837359459323
0
LINE
5
276
100
AcDbEntity
8
0
100
AcDbLine
10
116.65134841386028
20
-62.771172365406642
30
2.0463630789890986e-10
11
116.6511563542288
21
-69.477125781974934
31
2.2806645461059309e-10
0
ARC
5
277
100
AcDbEntity
8
0
100
AcDbCircle
10
102.65177419185741
20
-47.600713745351328
30
1.5626611116204003e-10
40
1.0000005400000458
210
0
220
0
230
1
100
AcDbArc
50
-0.0016379729176161022
51
89.998362026992908
0
ARC
5
278
100
AcDbEntity
8
0
100
AcDbCircle
10
102.6519743081198
20
-40.600709968211802
30
5.6867172666970529e-13
40
1.0000005399999348
210
9.3439801900708417e-17
220
3.2684948181738866e-12
230
1
100
AcDbArc
50
89.998362026992908
51
179.99836202708235
0
ARC
5
279
100
AcDbEntity
8
0
100
AcDbCircle
10
102.65183136793242
20
-45.600712666168619
30
1.4971135442465314e-10
40
1.0000005400000278
210
0
220
0
230
1
100
AcDbArc
50
179.99836202708235
51
269.99836202698884
0
ARC
5
280
100
AcDbEntity
8
0
100
AcDbCircle
10
116.65139758008905
20
-61.039121228904676
30
-1.1563402572520611e-10
40
1.0000001903117988
210
-1.4210153311122408e-12
220
2.4614321082563623e-12
230
1
100
AcDbArc
50
299.99837359456637
51
359.99836202730484
0
LINE
5
281
100
AcDbEntity
8
0
100
AcDbLine
10
115.65112722660001
20
-70.4770977335304
30
2.3135271476348862e-10
11
102.6511202119123
21
-70.476726089043339
31
2.2806645461059816e-10
0
ARC
5
282
100
AcDbEntity
8
0
100
AcDbCircle
10
102.65134891621204
20
-62.476721772312452
30
9.0291102957952473e-13
40
1.0000005399999392
210
9.3439801958764499e-17
220
3.2684948181737602e-12
230
1
100
AcDbArc
50
269.99836202699129
51
359.99836202708235
0
ARC
5
283
100
AcDbEntity
8
0
100
AcDbCircle
10
115.65198132280749
20
-40.601081612698906
30
1.3326229009180679e-10
40
1.0000005399999925
210
0
220
0
230
1
100
AcDbArc
50
-0.0016379729176161022
51
89.998362026989653
0
ARC
5
284
100
AcDbEntity
8
0
100
AcDbCircle
10
116.65174063653866
20
-49.039114753808349
30
1.609734567864507e-10
40
1.000000539999957
210
0
220
0
230
1
100
AcDbArc
50
-0.0016379729176161022
51
59.998367539732484
0
LINE
5
285
100
AcDbEntity
8
0
100
AcDbLine
10
101.65114826035841
20
-69.476696961416081
30
2.2806645461059816e-10
11
101.65129120054574
21
-64.476694263459194
31
2.1167068098293891e-10
0
LINE
5
286
100
AcDbEntity
8
0
100
AcDbLine
10
103.65134945580336
20
-62.476750360348355
30
2.050981606771478e-10
11
103.65177473144882
21
-47.600742333387231
31
1.5626611116204003e-10
0
LINE
5
287
100
AcDbEntity
8
0
100
AcDbLine
10
160.79436854123426
20
-307.74726651159017
30
1.0104805880928325e-09
11
160.79479381687972
21
-292.87125848462892
31
9.6159524787253758e-10
0
LINE
5
288
100
AcDbEntity
8
0
100
AcDbLine
10
158.79416734578913
20
-314.74721311265478
30
1.0334133548894897e-09
11
158.79431028597662
21
-309.74721041469775
31
1.0170175812618254e-09
0
ARC
5
289
100
AcDbEntity
8
0
100
AcDbCircle
10
159.79431082556798
20
-309.74723900273523
30
4.6075032181072459e-12
40
1.000000539999957
210
9.3439801900703006e-17
220
3.2684948181737702e-12
230
1
100
AcDbArc
50
89.998362026993718
51
179.99836202708235
0
ARC
5
290
100
AcDbEntity
8
0
100
AcDbCircle
10
159.79479327728825
20
-292.87122989659161
30
9.6159524787253758e-10
40
1.0000005400000636
210
0
220
0
230
1
100
AcDbArc
50
-0.0016379729176161022
51
89.998362026992098
0
ARC
5
291
100
AcDbEntity
8
0
100
AcDbCircle
10
159.79485045336327
20
-290.87122881740873
30
9.5504049113515066e-10
40
1.0000005400000103
210
0
220
0
230
1
100
AcDbArc
50
179.99836202708235
51
269.99836202698884
0
LINE
5
292
100
AcDbEntity
8
0
100
AcDbLine
10
158.79484991377188
20
-290.87120022937285
30
9.5504049113515066e-10
11
158.79499285395926
21
-285.87119753141462
31
9.3862695393909255e-10
0
ARC
5
293
100
AcDbEntity
8
0
100
AcDbCircle
10
159.79499339355058
20
-285.87122611945222
30
-8.0474526969461852e-13
40
1.000000539999957
210
9.394762696940858e-17
220
3.2862583769681927e-12
230
1
100
AcDbArc
50
89.998362026992098
51
179.99836202708235
0
ARC
5
294
100
AcDbEntity
8
0
100
AcDbCircle
10
159.79436800164291
20
-307.74723792355269
30
1.0091871793503287e-11
40
1.0000005399998504
210
9.2931976948137479e-17
220
3.2507312593796939e-12
230
1
100
AcDbArc
50
269.99836202699214
51
359.99836202708235
0
LINE
5
295
100
AcDbEntity
8
0
100
AcDbLine
10
159.79502198158806
20
-284.87122557986089
30
9.3534069378620209e-10
11
172.79502899627602
21
-284.87159722434785
31
9.3535845735459588e-10
0
ARC
5
296
100
AcDbEntity
8
0
100
AcDbCircle
10
172.79500040823845
20
-285.87159776393923
30
9.3862695393909255e-10
40
1.0000005400000278
210
0
220
0
230
1
100
AcDbArc
50
-0.0016379729176161022
51
89.998362026987209
0
LINE
5
297
100
AcDbEntity
8
0
100
AcDbLine
10
173.79500094782983
20
-285.87162635197512
30
9.3862695393909255e-10
11
173.79480923790848
21
-292.5775789704486
31
9.6063601517926166e-10
0
ARC
5
298
100
AcDbEntity
8
0
100
AcDbCircle
10
173.79475972196971
20
-294.30963090504849
30
9.6633812063373605e-10
40
1.0000005399999214
210
0
220
0
230
1
100
AcDbArc
50
-0.0016379729176161022
51
59.998362027173485
0
ARC
5
299
100
AcDbEntity
8
0
100
AcDbCircle
10
173.79441666552003
20
-306.30963738014481
30
4.7950447048179115e-12
40
1.0000001903126241
210
-1.4210153311106276e-12
220
2.4614321082545266e-12
230
1
100
AcDbArc
50
299.99837359455785
51
359.99837359504147
0
LINE
5
300
100
AcDbEntity
8
0
100
AcDbLine
10
174.79476026156101
20
-294.30965949308438
30
9.6633812063373605e-10
11
174.7944168554298
21
-306.30966576627173
31
1.0071410372347391e-09
0
ARC
5
301
100
AcDbEntity
8
0
100
AcDbCircle
10
174.79480977749972
20
-292.57760755848608
30
9.6065377874765545e-10
40
1.0000005399999214
210
-1.7763558794165431e-14
220
5.078250103225901e-19
230
1
100
AcDbArc
50
179.99836202708235
51
239.99836753957211
0
ARC
5
302
100
AcDbEntity
8
0
100
AcDbCircle
10
174.79436768920093
20
-308.04171690278162
30
-1.478499533574118e-12
40
1.0000001903118052
210
-1.4298966769316789e-12
220
2.4768160589330781e-12
230
1
100
AcDbArc
50
119.99837359456795
51
179.99836202730486
0
LINE
5
303
100
AcDbEntity
8
0
100
AcDbLine
10
173.79436749929772
20
-308.04168831475573
30
1.0099920894619597e-09
11
173.79417543965988
21
-314.74764193321687
31
1.0334311184578835e-09
0
ARC
5
304
100
AcDbEntity
8
0
100
AcDbCircle
10
172.79417490006836
20
-314.74761334517916
30
-8.768653573501874e-13
40
1.0000005399999925
210
9.3947626911026217e-17
220
3.286258376968076e-12
230
1
100
AcDbArc
50
269.99836202699214
51
359.99836202708235
0
LINE
5
305
100
AcDbEntity
8
0
100
AcDbLine
10
135.69504846466296
20
-283.48928586284677
30
9.3081098384573124e-10
11
135.69485675474164
21
-290.19523848131928
31
9.5282004508590055e-10
0
ARC
5
306
100
AcDbEntity
8
0
100
AcDbCircle
10
134.69504792507163
20
-283.4892572748094
30
9.3079322027733724e-10
40
1.0000005399999747
210
-1.7763558794422663e-14
220
5.0782500843664362e-19
230
1
100
AcDbArc
50
-0.0016379729176161022
51
89.998362026993718
0
ARC
5
307
100
AcDbEntity
8
0
100
AcDbCircle
10
159.79416788538055
20
-314.74724170069214
30
1.0334488820262777e-09
40
1.0000005400000991
210
-3.5527117588842171e-14
220
1.0156500168731068e-18
230
1
100
AcDbArc
50
179.99836202708235
51
269.99836202698884
0
ARC
5
308
100
AcDbEntity
8
0
100
AcDbCircle
10
136.69485729433302
20
-290.19526706935659
30
9.5283780865429435e-10
40
1.0000005399999925
210
-1.7763558794162907e-14
220
5.078250084291816e-19
230
1
100
AcDbArc
50
179.99836202708235
51
239.99836753959877
0
ARC
5
309
100
AcDbEntity
8
0
100
AcDbCircle
10
135.69480723880278
20
-291.92729041591872
30
9.5852215054037536e-10
40
1.0000005399998859
210
0
220
0
230
1
100
AcDbArc
50
-0.0016379729176161022
51
59.998362027129431
0
LINE
5
310
100
AcDbEntity
8
0
100
AcDbLine
10
136.69480777839402
20
-291.92731900395466
30
9.5852215054037536e-10
11
136.69446437226202
21
-303.92732527714259
31
9.979039816698787e-10
0
LINE
5
311
100
AcDbEntity
8
0
100
AcDbLine
10
172.79414631203088
20
-315.74761388477054
30
1.0367351421791684e-09
11
159.79413929734301
21
-315.74724224028364
31
1.0334488820262777e-09
0
LINE
5
312
100
AcDbEntity
8
0
100
AcDbLine
10
121.69506949842133
20
-282.48888509073089
30
9.2752472369284088e-10
11
134.69507651310909
21
-282.48925673521808
31
9.3079322027733724e-10
0
ARC
5
313
100
AcDbEntity
8
0
100
AcDbCircle
10
135.6944641823531
20
-303.9272968910152
30
5.7001424145017898e-11
40
1.000000190311823
210
-1.4210153311121596e-12
220
2.461432108256271e-12
230
1
100
AcDbArc
50
299.99837359456791
51
359.99837359504147
0
ARC
5
314
100
AcDbEntity
8
0
100
AcDbCircle
10
121.69489797019651
20
-288.48888832827919
30
9.4722452104178956e-10
40
1.0000005399999925
210
0
220
0
230
1
100
AcDbArc
50
179.99836202708235
51
269.99836202699618
0
LINE
5
315
100
AcDbEntity
8
0
100
AcDbLine
10
135.69441501613008
20
-305.65934782562437
30
1.0036060871243537e-09
11
135.69422295649289
21
-312.36530144408709
31
1.0256151483645226e-09
0
LINE
5
316
100
AcDbEntity
8
0
100
AcDbLine
10
120.6942148626225
20
-312.36487262352506
30
1.0255973847961286e-09
11
120.69435780280992
21
-307.36486992556826
31
1.0092016111684645e-09
0
ARC
5
317
100
AcDbEntity
8
0
100
AcDbCircle
10
136.69441520603417
20
-305.6593764136519
30
5.700142414596838e-11
40
1.0000001903127307
210
-1.4210153311107926e-12
220
2.4614321082537636e-12
230
1
100
AcDbArc
50
119.99837359456956
51
179.99836202708235
0
ARC
5
318
100
AcDbEntity
8
0
100
AcDbCircle
10
121.69435834240122
20
-307.36489851360568
30
4.5746406165863804e-12
40
1.000000539999957
210
9.3439801958763119e-17
220
3.2684948181737702e-12
230
1
100
AcDbArc
50
89.998362026990463
51
179.99836202708235
0
ARC
5
319
100
AcDbEntity
8
0
100
AcDbCircle
10
121.69484079412165
20
-290.4888894074619
30
9.5377927777917648e-10
40
1.000000539999939
210
0
220
0
230
1
100
AcDbArc
50
-0.0016379729176161022
51
89.998362026993718
0
ARC
5
320
100
AcDbEntity
8
0
100
AcDbCircle
10
121.69421540221386
20
-312.36490121156248
30
1.0256151483645226e-09
40
1.0000005399999747
210
-1.7763558794422032e-14
220
5.0782500969878361e-19
230
1
100
AcDbArc
50
179.99836202708235
51
269.99836202698964
0
LINE
5
321
100
AcDbEntity
8
0
100
AcDbLine
10
120.69489743060515
20
-288.4888597402433
30
9.4722452104178956e-10
11
120.69504037079258
21
-283.48885704228633
31
9.3081098384573652e-10
0
LINE
5
322
100
AcDbEntity
8
0
100
AcDbLine
10
134.69419382886414
20
-313.365273395641
30
1.0288836449490193e-09
11
121.69418681417633
21
-313.36490175115387
31
1.0256151483645226e-09
0
LWPOLYLINE
5
323
100
AcDbEntity
8
0
100
AcDbPolyline
90
8
70
1
43
0.0
10
136.69841576739833
20
-165.72100090415387
10
136.69807271094871
20
-177.72100737925027
42
-0.41421356237313145
10
135.69804358331987
20
-178.7209793308042
10
123.69803710822345
20
-178.72063627435438
42
-0.41421356237309503
10
122.6980651566696
20
-177.72060714672568
10
122.69840821311924
20
-165.72060067162926
42
-0.41421356237306384
10
123.69843734074806
20
-164.72062872007541
10
135.69844381584443
20
-164.72097177652503
42
-0.41421356237307944
0
LINE
5
324
100
AcDbEntity
8
0
100
AcDbLine
10
122.69441605806759
20
-305.36492602246034
30
1.0026290908626834e-09
11
122.69484133371294
21
-290.48891799549784
31
9.5377927777917648e-10
0
ARC
5
325
100
AcDbEntity
8
0
100
AcDbCircle
10
134.69422241690162
20
-312.36527285604967
30
-9.0295559853809227e-13
40
1.000000539999957
210
9.3947626969415963e-17
220
3.2862583769684512e-12
230
1
100
AcDbArc
50
269.99836202699214
51
359.99836202708235
0
ARC
5
326
100
AcDbEntity
8
0
100
AcDbCircle
10
121.69441551847618
20
-305.36489743442297
30
-8.67428461611793e-13
40
1.000000540000028
210
9.394762685264394e-17
220
3.2862583769679593e-12
230
1
100
AcDbArc
50
269.99836202699373
51
359.99836202708235
0
LWPOLYLINE
5
327
100
AcDbEntity
8
0
100
AcDbPolyline
90
8
70
1
43
0.0
10
116.64993941150273
20
-112.04539875143617
10
104.6499329364064
20
-112.0450556949865
42
-0.41421356237309503
10
103.64996098485253
20
-111.0450265673577
10
103.65030404130221
20
-99.04502009226124
42
-0.4142135623730846
10
104.65033316893098
20
-98.045048140707394
10
116.65033964402741
20
-98.045391197157073
42
-0.41421356237305862
10
117.6503115955812
20
-99.045420324785852
10
117.64996853913161
20
-111.04542679988228
42
-0.414213562373069
0
LWPOLYLINE
5
328
100
AcDbEntity
8
0
100
AcDbPolyline
90
8
70
1
43
0.0
10
142.75076217894733
20
-83.758629635524471
10
154.75076865404361
20
-83.758972691973128
42
-0.41421356237312623
10
155.75074060559754
20
-84.759001819601977
10
155.75039754914786
20
-96.759008294698319
42
-0.41421356237310542
10
154.75036842151911
20
-97.758980246252207
10
142.75036194642271
20
-97.758637189802542
42
-0.41421356237307422
10
141.7503899948689
20
-96.758608062173721
10
141.75073305131855
20
-84.758601587077393
42
-0.41421356237279844
0
ENDSEC
0
SECTION
2
OBJECTS
0
DICTIONARY
5
C
100
AcDbDictionary
3
ACAD_GROUP
350
D
3
ACAD_MLINESTYLE
350
17
0
DICTIONARY
5
D
100
AcDbDictionary
0
DICTIONARY
5
1A
330
C
100
AcDbDictionary
0
DICTIONARY
5
17
100
AcDbDictionary
0
ENDSEC
0
EOF
