%TF.GenerationSoftware,KiCad,Pcbnew,(5.1.9)-1*%
%TF.CreationDate,2021-02-08T20:19:01+01:00*%
%TF.ProjectId,P.02_ANSI,502e3032-5f41-44e5-9349-2e6b69636164,rev?*%
%TF.SameCoordinates,Original*%
%TF.FileFunction,Soldermask,Bot*%
%TF.FilePolarity,Negative*%
%FSLAX46Y46*%
G04 Gerber Fmt 4.6, Leading zero omitted, Abs format (unit mm)*
G04 Created by KiCad (PCBNEW (5.1.9)-1) date 2021-02-08 20:19:01*
%MOMM*%
%LPD*%
G01*
G04 APERTURE LIST*
%ADD10C,1.000000*%
G04 APERTURE END LIST*
D10*
X43933305Y-77530573D02*
G75*
G02*
X42933276Y-78530546I-1000001J28D01*
G01*
X30933669Y-64530195D02*
X42933676Y-64530538D01*
X57220094Y-102630968D02*
G75*
G02*
X58220066Y-103630996I-28J-1000000D01*
G01*
X30933269Y-78530203D02*
G75*
G02*
X29933297Y-77530173I29J1000001D01*
G01*
X42933676Y-64530537D02*
G75*
G02*
X43933648Y-65530567I-29J-1000001D01*
G01*
X45220088Y-102630624D02*
X57220094Y-102630967D01*
X42933276Y-78530546D02*
X30933269Y-78530202D01*
X43933648Y-65530567D02*
X43933305Y-77530574D01*
X29933297Y-77530173D02*
X29933640Y-65530167D01*
X44219716Y-115630602D02*
X44220059Y-103630596D01*
X44220059Y-103630595D02*
G75*
G02*
X45220088Y-102630624I1000000J-29D01*
G01*
X29933641Y-65530167D02*
G75*
G02*
X30933669Y-64530195I1000000J-28D01*
G01*
X-5652230Y-103129170D02*
G75*
G02*
X-6518270Y-103629145I-866011J500025D01*
G01*
X123895275Y-97582870D02*
X111895268Y-97582527D01*
X229663953Y-84585887D02*
X236369906Y-84586079D01*
X261922281Y-47486789D02*
X261921910Y-60486796D01*
X258539540Y-99586721D02*
X253539537Y-99586578D01*
X124895647Y-84582892D02*
X124895304Y-96582898D01*
X253921934Y-59486566D02*
G75*
G02*
X254921906Y-60486596I-29J-1000001D01*
G01*
X252484333Y-45486518D02*
G75*
G02*
X253350345Y-45986543I-28J-1000001D01*
G01*
X123895675Y-83582862D02*
G75*
G02*
X124895647Y-84582892I-29J-1000001D01*
G01*
X235663556Y-98586067D02*
G75*
G02*
X234663527Y-99586038I-1000000J29D01*
G01*
X237235947Y-84086104D02*
G75*
G02*
X236369906Y-84586079I-866012J500026D01*
G01*
X240484327Y-45486175D02*
X252484333Y-45486519D01*
X8945840Y-103629587D02*
X15651793Y-103629779D01*
X260922309Y-46486761D02*
G75*
G02*
X261922281Y-47486789I-28J-1000000D01*
G01*
X259539570Y-98586749D02*
G75*
G02*
X258539540Y-99586721I-1000001J29D01*
G01*
X238101987Y-83586128D02*
X250101993Y-83586471D01*
X232045866Y-61485943D02*
G75*
G02*
X231045893Y-60485914I28J1000001D01*
G01*
X255921878Y-61486626D02*
G75*
G02*
X254921906Y-60486596I29J1000001D01*
G01*
X251539594Y-97586519D02*
X236663585Y-97586094D01*
X251834015Y-84586520D02*
X258539969Y-84586713D01*
X232046294Y-46485935D02*
X238752246Y-46486126D01*
X231046265Y-47485906D02*
G75*
G02*
X232046294Y-46485935I1000000J-29D01*
G01*
X237045868Y-61486086D02*
X232045865Y-61485943D01*
X-14224251Y-104628925D02*
G75*
G02*
X-13224222Y-103628954I1000000J-29D01*
G01*
X8651417Y-116629586D02*
G75*
G02*
X9651390Y-117629615I-28J-1000001D01*
G01*
X-7224619Y-117629132D02*
G75*
G02*
X-8224648Y-118629105I-1000001J28D01*
G01*
X228663924Y-85585860D02*
G75*
G02*
X229663953Y-84585887I1000001J-28D01*
G01*
X15651364Y-118629787D02*
X10651362Y-118629644D01*
X-7224619Y-117629132D02*
G75*
G02*
X-6224590Y-116629161I1000000J-29D01*
G01*
X7213817Y-102629538D02*
G75*
G02*
X8079828Y-103129562I-28J-1000000D01*
G01*
X251834016Y-84586521D02*
G75*
G02*
X250968004Y-84086496I28J1000001D01*
G01*
X58219724Y-115631003D02*
G75*
G02*
X57219694Y-116630975I-1000001J29D01*
G01*
X124895303Y-96582898D02*
G75*
G02*
X123895275Y-97582870I-1000000J28D01*
G01*
X239618286Y-45986150D02*
G75*
G02*
X240484327Y-45486175I866012J-500026D01*
G01*
X45219687Y-116630631D02*
G75*
G02*
X44219716Y-115630602I29J1000000D01*
G01*
X239618286Y-45986151D02*
G75*
G02*
X238752246Y-46486126I-866011J500025D01*
G01*
X253921934Y-59486567D02*
X239045926Y-59486142D01*
X251539594Y-97586520D02*
G75*
G02*
X252539565Y-98586549I-29J-1000000D01*
G01*
X234663527Y-99586038D02*
X229663525Y-99585895D01*
X250101993Y-83586471D02*
G75*
G02*
X250968004Y-84086496I-29J-1000000D01*
G01*
X238045897Y-60486113D02*
G75*
G02*
X239045926Y-59486142I1000000J-29D01*
G01*
X260921881Y-61486768D02*
X255921878Y-61486625D01*
X57219694Y-116630975D02*
X45219688Y-116630631D01*
X58220066Y-103630996D02*
X58219723Y-115631003D01*
X259539941Y-85586742D02*
X259539569Y-98586749D01*
X231045893Y-60485914D02*
X231046265Y-47485907D01*
X237235947Y-84086103D02*
G75*
G02*
X238101987Y-83586128I866011J-500025D01*
G01*
X110895640Y-84582492D02*
G75*
G02*
X111895668Y-83582520I1000000J-28D01*
G01*
X254216356Y-46486568D02*
X260922309Y-46486760D01*
X111895668Y-83582520D02*
X123895675Y-83582863D01*
X238045897Y-60486113D02*
G75*
G02*
X237045868Y-61486086I-1000001J28D01*
G01*
X261921909Y-60486796D02*
G75*
G02*
X260921881Y-61486768I-1000000J28D01*
G01*
X235663556Y-98586067D02*
G75*
G02*
X236663585Y-97586094I1000001J-28D01*
G01*
X253539538Y-99586578D02*
G75*
G02*
X252539565Y-98586549I28J1000001D01*
G01*
X8651418Y-116629586D02*
X-6224590Y-116629161D01*
X16651765Y-104629808D02*
X16651394Y-117629815D01*
X258539969Y-84586712D02*
G75*
G02*
X259539941Y-85586742I-29J-1000001D01*
G01*
X228663553Y-98585866D02*
X228663924Y-85585859D01*
X-13224651Y-118628961D02*
G75*
G02*
X-14224623Y-117628933I28J1000000D01*
G01*
X254216355Y-46486567D02*
G75*
G02*
X253350345Y-45986543I29J999999D01*
G01*
X110895296Y-96582498D02*
X110895639Y-84582492D01*
X111895268Y-97582528D02*
G75*
G02*
X110895296Y-96582498I29J1000001D01*
G01*
X8945839Y-103629587D02*
G75*
G02*
X8079828Y-103129562I29J1000000D01*
G01*
X-5652230Y-103129169D02*
G75*
G02*
X-4786189Y-102629194I866012J-500026D01*
G01*
X269057853Y-97587021D02*
G75*
G02*
X268057881Y-96586991I29J1000001D01*
G01*
X281056770Y-135687384D02*
X269056764Y-135687041D01*
X249006782Y-134686467D02*
X249007125Y-122686461D01*
X10883629Y-65529622D02*
G75*
G02*
X11883659Y-64529650I1000001J-29D01*
G01*
X-4786189Y-102629194D02*
X7213817Y-102629537D01*
X48983307Y-77530718D02*
X48983650Y-65530711D01*
X40459218Y-45480457D02*
X52459226Y-45480800D01*
X269058253Y-83587013D02*
X281058260Y-83587356D01*
X249007125Y-122686460D02*
G75*
G02*
X250007154Y-121686489I1000000J-29D01*
G01*
X262007161Y-121686832D02*
G75*
G02*
X263007132Y-122686861I-29J-1000000D01*
G01*
X-13224222Y-103628954D02*
X-6518270Y-103629145D01*
X281057859Y-97587363D02*
X269057853Y-97587020D01*
X11883659Y-64529650D02*
X23883666Y-64529993D01*
X221433371Y-78535648D02*
G75*
G02*
X220433400Y-77535619I29J1000000D01*
G01*
X49983680Y-64530739D02*
X61983686Y-64531083D01*
X282057888Y-96587392D02*
G75*
G02*
X281057859Y-97587363I-1000000J29D01*
G01*
X250007154Y-121686489D02*
X262007160Y-121686832D01*
X263007132Y-122686861D02*
X263006789Y-134686867D01*
X16651393Y-117629816D02*
G75*
G02*
X15651364Y-118629787I-1000000J29D01*
G01*
X11883259Y-78529657D02*
G75*
G02*
X10883287Y-77529629I28J1000000D01*
G01*
X-8224648Y-118629105D02*
X-13224651Y-118628962D01*
X53458855Y-58480836D02*
G75*
G02*
X52458825Y-59480808I-1000001J29D01*
G01*
X-14224623Y-117628933D02*
X-14224251Y-104628926D01*
X23883665Y-64529994D02*
G75*
G02*
X24883637Y-65530022I-28J-1000000D01*
G01*
X48983650Y-65530711D02*
G75*
G02*
X49983680Y-64530739I1000001J-29D01*
G01*
X62983314Y-77531118D02*
G75*
G02*
X61983286Y-78531090I-1000000J28D01*
G01*
X39458846Y-58480435D02*
X39459189Y-46480429D01*
X268057881Y-96586991D02*
X268058224Y-84586985D01*
X250006753Y-135686496D02*
G75*
G02*
X249006782Y-134686467I29J1000000D01*
G01*
X52459225Y-45480801D02*
G75*
G02*
X53459197Y-46480829I-28J-1000000D01*
G01*
X24883637Y-65530022D02*
X24883294Y-77530029D01*
X234433751Y-65536013D02*
X234433407Y-77536020D01*
X49983279Y-78530748D02*
G75*
G02*
X48983307Y-77530718I29J1000001D01*
G01*
X234433408Y-77536020D02*
G75*
G02*
X233433378Y-78535992I-1000001J29D01*
G01*
X61983286Y-78531090D02*
X49983279Y-78530747D01*
X221433772Y-64535641D02*
X233433779Y-64535984D01*
X62983658Y-65531112D02*
X62983315Y-77531118D01*
X52458825Y-59480808D02*
X40458818Y-59480464D01*
X61983686Y-64531082D02*
G75*
G02*
X62983658Y-65531112I-29J-1000001D01*
G01*
X282058232Y-84587385D02*
X282057889Y-96587391D01*
X281057170Y-121687377D02*
G75*
G02*
X282057142Y-122687405I-28J-1000000D01*
G01*
X77558867Y-58481525D02*
X77559210Y-46481518D01*
X262006760Y-135686839D02*
X250006753Y-135686496D01*
X233433378Y-78535992D02*
X221433372Y-78535648D01*
X39459189Y-46480428D02*
G75*
G02*
X40459218Y-45480457I1000000J-29D01*
G01*
X281058260Y-83587355D02*
G75*
G02*
X282058232Y-84587385I-29J-1000001D01*
G01*
X268058225Y-84586985D02*
G75*
G02*
X269058253Y-83587013I1000000J-28D01*
G01*
X269056764Y-135687040D02*
G75*
G02*
X268056792Y-134687012I28J1000000D01*
G01*
X282057142Y-122687405D02*
X282056799Y-134687412D01*
X53459197Y-46480829D02*
X53458854Y-58480836D01*
X268056792Y-134687012D02*
X268057135Y-122687005D01*
X10883287Y-77529629D02*
X10883630Y-65529622D01*
X23883265Y-78530001D02*
X11883259Y-78529658D01*
X24883295Y-77530029D02*
G75*
G02*
X23883265Y-78530001I-1000001J29D01*
G01*
X220433744Y-65535613D02*
G75*
G02*
X221433772Y-64535641I1000000J-28D01*
G01*
X40458817Y-59480464D02*
G75*
G02*
X39458846Y-58480435I29J1000000D01*
G01*
X269057164Y-121687033D02*
X281057170Y-121687376D01*
X263006789Y-134686868D02*
G75*
G02*
X262006760Y-135686839I-1000000J29D01*
G01*
X268057134Y-122687005D02*
G75*
G02*
X269057164Y-121687033I1000001J-29D01*
G01*
X282056800Y-134687412D02*
G75*
G02*
X281056770Y-135687384I-1000001J29D01*
G01*
X10651361Y-118629644D02*
G75*
G02*
X9651390Y-117629615I29J1000000D01*
G01*
X220433400Y-77535619D02*
X220433743Y-65535613D01*
X15651793Y-103629780D02*
G75*
G02*
X16651765Y-104629808I-28J-1000000D01*
G01*
X233433778Y-64535984D02*
G75*
G02*
X234433751Y-65536013I-28J-1000001D01*
G01*
X-15310678Y-84578884D02*
G75*
G02*
X-14310650Y-83578912I1000000J-28D01*
G01*
X192858901Y-59484822D02*
G75*
G02*
X191858929Y-58484792I29J1000001D01*
G01*
X-15311022Y-96578890D02*
X-15310679Y-84578884D01*
X214383768Y-64535440D02*
G75*
G02*
X215383740Y-65535468I-28J-1000000D01*
G01*
X162995667Y-84583981D02*
X162995324Y-96583988D01*
X63269726Y-115631147D02*
X63270069Y-103631140D01*
X148995660Y-84583580D02*
G75*
G02*
X149995689Y-83583609I1000000J-29D01*
G01*
X85795655Y-83581774D02*
G75*
G02*
X86795626Y-84581803I-29J-1000000D01*
G01*
X192859301Y-45484814D02*
X204859308Y-45485157D01*
X204858908Y-59485164D02*
X192858901Y-59484821D01*
X201383390Y-77535075D02*
X201383733Y-65535068D01*
X205859280Y-46485186D02*
X205858937Y-58485192D01*
X204859308Y-45485156D02*
G75*
G02*
X205859280Y-46485186I-29J-1000001D01*
G01*
X33313287Y-121680294D02*
X41957041Y-121680541D01*
X3451489Y-96579427D02*
G75*
G02*
X2451459Y-97579399I-1000001J29D01*
G01*
X149995689Y-83583609D02*
X161995695Y-83583952D01*
X3451831Y-84579420D02*
X3451488Y-96579427D01*
X73795247Y-97581438D02*
G75*
G02*
X72795276Y-96581409I29J1000000D01*
G01*
X215383398Y-77535475D02*
G75*
G02*
X214383368Y-78535447I-1000001J29D01*
G01*
X148995317Y-96583587D02*
X148995660Y-84583581D01*
X202383362Y-78535103D02*
G75*
G02*
X201383390Y-77535075I28J1000000D01*
G01*
X2451459Y-97579399D02*
X-14311050Y-97578919D01*
X149995288Y-97583616D02*
G75*
G02*
X148995317Y-96583587I29J1000000D01*
G01*
X214383368Y-78535447D02*
X202383362Y-78535104D01*
X78558840Y-59481554D02*
G75*
G02*
X77558867Y-58481525I28J1000001D01*
G01*
X91559218Y-46481918D02*
X91558875Y-58481925D01*
X77559210Y-46481518D02*
G75*
G02*
X78559240Y-45481546I1000001J-29D01*
G01*
X81033696Y-64531628D02*
G75*
G02*
X82033668Y-65531656I-28J-1000000D01*
G01*
X68033318Y-77531263D02*
X68033661Y-65531256D01*
X76270104Y-102631510D02*
G75*
G02*
X77270077Y-103631541I-29J-1000002D01*
G01*
X191859273Y-46484786D02*
G75*
G02*
X192859301Y-45484814I1000000J-28D01*
G01*
X90558846Y-59481897D02*
X78558839Y-59481554D01*
X91558875Y-58481924D02*
G75*
G02*
X90558846Y-59481897I-1000001J28D01*
G01*
X90559246Y-45481890D02*
G75*
G02*
X91559218Y-46481918I-28J-1000000D01*
G01*
X82033326Y-77531663D02*
G75*
G02*
X81033296Y-78531635I-1000001J29D01*
G01*
X76269703Y-116631519D02*
X64269698Y-116631176D01*
X78559240Y-45481546D02*
X90559246Y-45481889D01*
X86795283Y-96581810D02*
G75*
G02*
X85795254Y-97581781I-1000000J29D01*
G01*
X69033290Y-78531291D02*
G75*
G02*
X68033318Y-77531263I28J1000000D01*
G01*
X81033296Y-78531635D02*
X69033290Y-78531292D01*
X2451860Y-83579391D02*
G75*
G02*
X3451831Y-84579420I-29J-1000000D01*
G01*
X162995325Y-96583988D02*
G75*
G02*
X161995295Y-97583960I-1000001J29D01*
G01*
X-14311050Y-97578920D02*
G75*
G02*
X-15311022Y-96578890I29J1000001D01*
G01*
X64270098Y-102631169D02*
X76270104Y-102631512D01*
X63270070Y-103631141D02*
G75*
G02*
X64270098Y-102631169I1000000J-28D01*
G01*
X161995695Y-83583953D02*
G75*
G02*
X162995667Y-84583981I-28J-1000000D01*
G01*
X86795626Y-84581803D02*
X86795283Y-96581809D01*
X201383732Y-65535068D02*
G75*
G02*
X202383762Y-64535096I1000001J-29D01*
G01*
X215383740Y-65535468D02*
X215383397Y-77535475D01*
X205858936Y-58485192D02*
G75*
G02*
X204858908Y-59485164I-1000000J28D01*
G01*
X72795276Y-96581409D02*
X72795619Y-84581402D01*
X85795254Y-97581781D02*
X73795248Y-97581438D01*
X73795648Y-83581431D02*
X85795654Y-83581774D01*
X182333379Y-77534530D02*
X182333722Y-65534524D01*
X33312886Y-135680301D02*
G75*
G02*
X32312915Y-134680272I29J1000000D01*
G01*
X68033660Y-65531256D02*
G75*
G02*
X69033690Y-64531284I1000001J-29D01*
G01*
X161995295Y-97583960D02*
X149995289Y-97583616D01*
X72795619Y-84581402D02*
G75*
G02*
X73795648Y-83581431I1000000J-29D01*
G01*
X64269697Y-116631176D02*
G75*
G02*
X63269726Y-115631147I29J1000000D01*
G01*
X202383762Y-64535096D02*
X214383768Y-64535439D01*
X191858929Y-58484792D02*
X191859272Y-46484786D01*
X82033668Y-65531656D02*
X82033325Y-77531663D01*
X69033690Y-64531284D02*
X81033696Y-64531627D01*
X-14310650Y-83578912D02*
X2451859Y-83579391D01*
X235813941Y-102636072D02*
G75*
G02*
X236813913Y-103636102I-29J-1000001D01*
G01*
X115658888Y-58482614D02*
X115659231Y-46482607D01*
X281059348Y-45487335D02*
G75*
G02*
X282059321Y-46487364I-28J-1000001D01*
G01*
X268059313Y-46486965D02*
G75*
G02*
X269059342Y-45486992I1000001J-28D01*
G01*
X16645617Y-83579797D02*
X28645623Y-83580140D01*
X222813906Y-103635702D02*
G75*
G02*
X223813934Y-102635730I1000000J-28D01*
G01*
X222813562Y-115635708D02*
X222813905Y-103635702D01*
X236813569Y-115636109D02*
G75*
G02*
X235813540Y-116636080I-1000000J29D01*
G01*
X172809261Y-46484241D02*
G75*
G02*
X173809291Y-45484269I1000001J-29D01*
G01*
X116659260Y-45482635D02*
X128659267Y-45482978D01*
X281058949Y-59487343D02*
X269058942Y-59487000D01*
X15645245Y-96579775D02*
X15645588Y-84579769D01*
X128658866Y-59482986D02*
X116658860Y-59482643D01*
X115659231Y-46482608D02*
G75*
G02*
X116659260Y-45482635I1000001J-28D01*
G01*
X28645223Y-97580147D02*
X16645217Y-97579804D01*
X268058970Y-58486971D02*
X268059313Y-46486964D01*
X140470139Y-102633347D02*
X152470146Y-102633690D01*
X129658896Y-58483014D02*
G75*
G02*
X128658866Y-59482986I-1000001J29D01*
G01*
X183333351Y-78534560D02*
G75*
G02*
X182333379Y-77534530I29J1000001D01*
G01*
X195333358Y-78534902D02*
X183333351Y-78534559D01*
X69519Y-121679343D02*
G75*
G02*
X1069491Y-122679373I-29J-1000001D01*
G01*
X196333386Y-77534930D02*
G75*
G02*
X195333358Y-78534902I-1000000J28D01*
G01*
X69119Y-135679351D02*
X-14312139Y-135678940D01*
X15645588Y-84579768D02*
G75*
G02*
X16645617Y-83579797I1000000J-29D01*
G01*
X236813913Y-103636102D02*
X236813570Y-115636108D01*
X46178933Y-135180669D02*
G75*
G02*
X45312893Y-135680644I-866011J500025D01*
G01*
X172808919Y-58484248D02*
X172809262Y-46484241D01*
X48957103Y-119680740D02*
G75*
G02*
X49957074Y-120680769I-29J-1000000D01*
G01*
X186809269Y-46484641D02*
X186808926Y-58484648D01*
X282059321Y-46487364D02*
X282058978Y-58487371D01*
X28645624Y-83580140D02*
G75*
G02*
X29645595Y-84580169I-29J-1000000D01*
G01*
X48956674Y-134680748D02*
X47044973Y-134680693D01*
X223813934Y-102635730D02*
X235813941Y-102636073D01*
X116658861Y-59482643D02*
G75*
G02*
X115658888Y-58482614I28J1000001D01*
G01*
X173809291Y-45484269D02*
X185809297Y-45484612D01*
X1069491Y-122679373D02*
X1069148Y-134679379D01*
X1069148Y-134679378D02*
G75*
G02*
X69119Y-135679351I-1000001J28D01*
G01*
X185808897Y-59484620D02*
X173808891Y-59484277D01*
X77269732Y-115631548D02*
G75*
G02*
X76269703Y-116631519I-1000000J29D01*
G01*
X16645216Y-97579804D02*
G75*
G02*
X15645245Y-96579775I29J1000000D01*
G01*
X196333730Y-65534924D02*
X196333387Y-77534930D01*
X235813540Y-116636080D02*
X223813534Y-116635737D01*
X185809297Y-45484613D02*
G75*
G02*
X186809269Y-46484641I-28J-1000000D01*
G01*
X46178932Y-135180668D02*
G75*
G02*
X47044973Y-134680693I866012J-500026D01*
G01*
X-14312139Y-135678939D02*
G75*
G02*
X-15312111Y-134678911I28J1000000D01*
G01*
X128659267Y-45482978D02*
G75*
G02*
X129659239Y-46483008I-29J-1000001D01*
G01*
X269058943Y-59487000D02*
G75*
G02*
X268058970Y-58486971I28J1000001D01*
G01*
X195333758Y-64534894D02*
G75*
G02*
X196333730Y-65534924I-29J-1000001D01*
G01*
X-15312111Y-134678911D02*
X-15311768Y-122678904D01*
X77270077Y-103631541D02*
X77269732Y-115631547D01*
X129659239Y-46483008D02*
X129658896Y-58483014D01*
X282058978Y-58487370D02*
G75*
G02*
X281058949Y-59487343I-1000001J28D01*
G01*
X29645252Y-96580176D02*
G75*
G02*
X28645223Y-97580147I-1000000J29D01*
G01*
X29645595Y-84580169D02*
X29645252Y-96580175D01*
X45312893Y-135680644D02*
X33312887Y-135680301D01*
X183333752Y-64534552D02*
X195333758Y-64534895D01*
X182333723Y-65534523D02*
G75*
G02*
X183333752Y-64534552I1000000J-29D01*
G01*
X269059342Y-45486992D02*
X281059349Y-45487335D01*
X-14311739Y-121678932D02*
X69519Y-121679343D01*
X-15311768Y-122678905D02*
G75*
G02*
X-14311739Y-121678932I1000001J-28D01*
G01*
X223813534Y-116635738D02*
G75*
G02*
X222813562Y-115635708I29J1000001D01*
G01*
X42957070Y-120680569D02*
G75*
G02*
X43957100Y-119680597I1000001J-29D01*
G01*
X173808891Y-59484276D02*
G75*
G02*
X172808919Y-58484248I28J1000000D01*
G01*
X186808927Y-58484648D02*
G75*
G02*
X185808897Y-59484620I-1000001J29D01*
G01*
X268057336Y-115637001D02*
X268057679Y-103636995D01*
X71508836Y-59481352D02*
X59508829Y-59481009D01*
X154758880Y-59483732D02*
G75*
G02*
X153758909Y-58483703I29J1000000D01*
G01*
X121420129Y-102632802D02*
X133420135Y-102633145D01*
X59509229Y-45481002D02*
X71509236Y-45481345D01*
X72508864Y-58481380D02*
G75*
G02*
X71508836Y-59481352I-1000000J28D01*
G01*
X58508857Y-58480980D02*
X58509200Y-46480973D01*
X121419729Y-116632809D02*
G75*
G02*
X120419757Y-115632781I28J1000000D01*
G01*
X97607071Y-121682132D02*
X116750832Y-121682679D01*
X116750432Y-135682687D02*
X97606671Y-135682139D01*
X96606699Y-134682110D02*
X96607042Y-122682104D01*
X117750461Y-134682714D02*
G75*
G02*
X116750432Y-135682687I-1000001J28D01*
G01*
X15359177Y-46479740D02*
X15358834Y-58479746D01*
X14359205Y-45479710D02*
G75*
G02*
X15359177Y-46479740I-29J-1000001D01*
G01*
X120420099Y-103632774D02*
G75*
G02*
X121420129Y-102632802I1000001J-29D01*
G01*
X166759288Y-45484068D02*
G75*
G02*
X167759259Y-46484097I-29J-1000000D01*
G01*
X153758909Y-58483703D02*
X153759252Y-46483696D01*
X15358833Y-58479746D02*
G75*
G02*
X14358805Y-59479718I-1000000J28D01*
G01*
X139470111Y-103633319D02*
G75*
G02*
X140470139Y-102633347I1000000J-28D01*
G01*
X139469767Y-115633325D02*
X139470110Y-103633319D01*
X140469739Y-116633355D02*
G75*
G02*
X139469767Y-115633325I29J1000001D01*
G01*
X152469745Y-116633698D02*
X140469739Y-116633354D01*
X153469775Y-115633726D02*
G75*
G02*
X152469745Y-116633698I-1000001J29D01*
G01*
X58509201Y-46480974D02*
G75*
G02*
X59509229Y-45481002I1000000J-28D01*
G01*
X152470145Y-102633690D02*
G75*
G02*
X153470118Y-103633719I-28J-1000001D01*
G01*
X32312915Y-134680272D02*
X32313258Y-122680266D01*
X97606671Y-135682140D02*
G75*
G02*
X96606699Y-134682110I29J1000001D01*
G01*
X166758887Y-59484075D02*
X154758881Y-59483732D01*
X71509236Y-45481344D02*
G75*
G02*
X72509208Y-46481374I-29J-1000001D01*
G01*
X134419765Y-115633181D02*
G75*
G02*
X133419735Y-116633153I-1000001J29D01*
G01*
X167759259Y-46484097D02*
X167758916Y-58484103D01*
X116750831Y-121682679D02*
G75*
G02*
X117750804Y-122682708I-28J-1000001D01*
G01*
X153470118Y-103633719D02*
X153469775Y-115633726D01*
X42957071Y-120680569D02*
G75*
G02*
X41957041Y-121680541I-1000001J29D01*
G01*
X43957100Y-119680597D02*
X48957102Y-119680740D01*
X154759281Y-45483725D02*
X166759287Y-45484068D01*
X96607043Y-122682104D02*
G75*
G02*
X97607071Y-121682132I1000000J-28D01*
G01*
X269057308Y-116637031D02*
G75*
G02*
X268057336Y-115637001I29J1000001D01*
G01*
X72509208Y-46481374D02*
X72508865Y-58481380D01*
X134420107Y-103633174D02*
X134419764Y-115633181D01*
X49956702Y-133680776D02*
G75*
G02*
X48956674Y-134680748I-1000000J28D01*
G01*
X32313258Y-122680265D02*
G75*
G02*
X33313287Y-121680294I1000000J-29D01*
G01*
X49957074Y-120680769D02*
X49956703Y-133680776D01*
X115369753Y-115632636D02*
G75*
G02*
X114369725Y-116632608I-1000000J28D01*
G01*
X282057344Y-115637401D02*
G75*
G02*
X281057315Y-116637374I-1000001J28D01*
G01*
X101370090Y-103632229D02*
G75*
G02*
X102370119Y-102632258I1000000J-29D01*
G01*
X120419757Y-115632781D02*
X120420100Y-103632774D01*
X153759252Y-46483696D02*
G75*
G02*
X154759281Y-45483725I1000000J-29D01*
G01*
X117750804Y-122682708D02*
X117750461Y-134682715D01*
X115370097Y-103632630D02*
X115369754Y-115632636D01*
X59508829Y-59481010D02*
G75*
G02*
X58508857Y-58480980I29J1000001D01*
G01*
X133419735Y-116633153D02*
X121419729Y-116632810D01*
X114370126Y-102632601D02*
G75*
G02*
X115370097Y-103632630I-29J-1000000D01*
G01*
X102370119Y-102632258D02*
X114370125Y-102632601D01*
X167758916Y-58484104D02*
G75*
G02*
X166758887Y-59484075I-1000000J29D01*
G01*
X101369746Y-115632236D02*
X101370090Y-103632230D01*
X102369718Y-116632266D02*
G75*
G02*
X101369746Y-115632236I29J1000001D01*
G01*
X133420135Y-102633146D02*
G75*
G02*
X134420107Y-103633174I-28J-1000000D01*
G01*
X268057679Y-103636995D02*
G75*
G02*
X269057709Y-102637023I1000001J-29D01*
G01*
X114369725Y-116632608D02*
X102369718Y-116632265D01*
X281057315Y-116637374D02*
X269057308Y-116637031D01*
X282057687Y-103637395D02*
X282057344Y-115637402D01*
X281057714Y-102637366D02*
G75*
G02*
X282057687Y-103637395I-28J-1000001D01*
G01*
X269057709Y-102637023D02*
X281057715Y-102637366D01*
X158519777Y-115633870D02*
X158520120Y-103633863D01*
X163257165Y-119684008D02*
G75*
G02*
X164257136Y-120684037I-29J-1000000D01*
G01*
X164256764Y-133684044D02*
X164257136Y-120684037D01*
X164256765Y-133684044D02*
G75*
G02*
X163256735Y-134684016I-1000001J29D01*
G01*
X158520121Y-103633863D02*
G75*
G02*
X159520150Y-102633892I1000000J-29D01*
G01*
X2359199Y-45479368D02*
X14359205Y-45479711D01*
X157257133Y-120683837D02*
G75*
G02*
X158257161Y-119683865I1000000J-28D01*
G01*
X158256733Y-134683872D02*
G75*
G02*
X157256761Y-133683844I28J1000000D01*
G01*
X1359170Y-46479339D02*
G75*
G02*
X2359199Y-45479368I1000000J-29D01*
G01*
X171519756Y-116634242D02*
X159519749Y-116633899D01*
X157257132Y-120683837D02*
X157256761Y-133683844D01*
X1358826Y-58479346D02*
X1359169Y-46479340D01*
X2358798Y-59479376D02*
G75*
G02*
X1358826Y-58479346I29J1000001D01*
G01*
X14358805Y-59479718D02*
X2358798Y-59479375D01*
X83320108Y-102631713D02*
X95320115Y-102632056D01*
X82320079Y-103631686D02*
G75*
G02*
X83320108Y-102631713I1000001J-28D01*
G01*
X82319736Y-115631692D02*
X82320079Y-103631685D01*
X158256733Y-134683873D02*
X163256735Y-134684016D01*
X83319709Y-116631721D02*
G75*
G02*
X82319736Y-115631692I28J1000001D01*
G01*
X95319715Y-116632064D02*
X83319708Y-116631721D01*
X96319744Y-115632091D02*
G75*
G02*
X95319715Y-116632064I-1000001J28D01*
G01*
X171520156Y-102634234D02*
G75*
G02*
X172520128Y-103634264I-29J-1000001D01*
G01*
X159519749Y-116633900D02*
G75*
G02*
X158519777Y-115633870I29J1000001D01*
G01*
X96320087Y-103632085D02*
X96319744Y-115632092D01*
X159520150Y-102633892D02*
X171520156Y-102634235D01*
X163257164Y-119684008D02*
X158257161Y-119683865D01*
X95320114Y-102632056D02*
G75*
G02*
X96320087Y-103632085I-28J-1000001D01*
G01*
X172519784Y-115634270D02*
G75*
G02*
X171519756Y-116634242I-1000000J28D01*
G01*
X172520128Y-103634264D02*
X172519785Y-115634270D01*
X250007698Y-102636478D02*
X262007705Y-102636821D01*
X196620141Y-103634952D02*
G75*
G02*
X197620170Y-102634981I1000000J-29D01*
G01*
X224907112Y-122685772D02*
X224906769Y-134685778D01*
X158233366Y-77533842D02*
G75*
G02*
X157233337Y-78533813I-1000000J29D01*
G01*
X145233731Y-64533463D02*
X157233737Y-64533806D01*
X263007677Y-103636851D02*
X263007334Y-115636857D01*
X197620170Y-102634981D02*
X209620177Y-102635324D01*
X209619776Y-116635331D02*
X197619770Y-116634988D01*
X282058776Y-65537375D02*
X282058433Y-77537381D01*
X223906739Y-135685750D02*
X173806712Y-135684318D01*
X144233359Y-77533441D02*
X144233702Y-65533434D01*
X173807113Y-121684310D02*
X223907140Y-121685743D01*
X223908918Y-59485709D02*
X211908911Y-59485366D01*
X224906768Y-134685779D02*
G75*
G02*
X223906739Y-135685750I-1000000J29D01*
G01*
X211909312Y-45485358D02*
X223909318Y-45485701D01*
X158233709Y-65533835D02*
X158233366Y-77533841D01*
X-11929254Y-78528978D02*
G75*
G02*
X-12929226Y-77528948I29J1000001D01*
G01*
X88083700Y-64531829D02*
X100083707Y-64532172D01*
X101083335Y-77532208D02*
G75*
G02*
X100083306Y-78532179I-1000000J29D01*
G01*
X268058426Y-77536981D02*
X268058769Y-65536974D01*
X210619805Y-115635360D02*
G75*
G02*
X209619776Y-116635331I-1000000J29D01*
G01*
X144233702Y-65533434D02*
G75*
G02*
X145233731Y-64533463I1000000J-29D01*
G01*
X250007299Y-116636486D02*
G75*
G02*
X249007326Y-115636457I28J1000001D01*
G01*
X262007305Y-116636829D02*
X250007298Y-116636486D01*
X209620177Y-102635324D02*
G75*
G02*
X210620148Y-103635353I-29J-1000000D01*
G01*
X281058805Y-64537346D02*
G75*
G02*
X282058776Y-65537375I-29J-1000000D01*
G01*
X172806740Y-134684289D02*
X172807083Y-122684282D01*
X223909318Y-45485701D02*
G75*
G02*
X224909290Y-46485731I-29J-1000001D01*
G01*
X263007334Y-115636856D02*
G75*
G02*
X262007305Y-116636829I-1000001J28D01*
G01*
X282058434Y-77537381D02*
G75*
G02*
X281058404Y-78537353I-1000001J29D01*
G01*
X223907140Y-121685742D02*
G75*
G02*
X224907112Y-122685772I-29J-1000001D01*
G01*
X197619769Y-116634988D02*
G75*
G02*
X196619798Y-115634959I29J1000000D01*
G01*
X281058404Y-78537353D02*
X269058398Y-78537010D01*
X268058768Y-65536974D02*
G75*
G02*
X269058798Y-64537002I1000001J-29D01*
G01*
X211908912Y-59485366D02*
G75*
G02*
X210908939Y-58485337I28J1000001D01*
G01*
X145233330Y-78533470D02*
G75*
G02*
X144233359Y-77533441I29J1000000D01*
G01*
X269058398Y-78537009D02*
G75*
G02*
X268058426Y-77536981I28J1000000D01*
G01*
X249007326Y-115636457D02*
X249007669Y-103636450D01*
X101083679Y-65532201D02*
X101083336Y-77532207D01*
X87083328Y-77531807D02*
X87083671Y-65531801D01*
X210908939Y-58485337D02*
X210909282Y-46485330D01*
X157233738Y-64533806D02*
G75*
G02*
X158233709Y-65533835I-29J-1000000D01*
G01*
X100083707Y-64532171D02*
G75*
G02*
X101083679Y-65532201I-29J-1000001D01*
G01*
X87083672Y-65531801D02*
G75*
G02*
X88083700Y-64531829I1000000J-28D01*
G01*
X249007669Y-103636451D02*
G75*
G02*
X250007698Y-102636478I1000001J-28D01*
G01*
X173806713Y-135684318D02*
G75*
G02*
X172806740Y-134684289I28J1000001D01*
G01*
X210909282Y-46485330D02*
G75*
G02*
X211909312Y-45485358I1000001J-29D01*
G01*
X224908947Y-58485736D02*
G75*
G02*
X223908918Y-59485709I-1000001J28D01*
G01*
X224909290Y-46485731D02*
X224908947Y-58485737D01*
X88083300Y-78531837D02*
G75*
G02*
X87083328Y-77531807I29J1000001D01*
G01*
X196619798Y-115634959D02*
X196620141Y-103634953D01*
X157233337Y-78533813D02*
X145233331Y-78533470D01*
X100083306Y-78532179D02*
X88083300Y-78531836D01*
X262007705Y-102636821D02*
G75*
G02*
X263007677Y-103636851I-29J-1000001D01*
G01*
X210620148Y-103635353D02*
X210619805Y-115635359D01*
X269058798Y-64537002D02*
X281058804Y-64537345D01*
X172807083Y-122684282D02*
G75*
G02*
X173807113Y-121684310I1000001J-29D01*
G01*
X129945649Y-84583036D02*
G75*
G02*
X130945679Y-83583064I1000001J-29D01*
G01*
X178569760Y-116634443D02*
G75*
G02*
X177569788Y-115634415I28J1000000D01*
G01*
X178570160Y-102634436D02*
X190570166Y-102634779D01*
X147709276Y-45483523D02*
G75*
G02*
X148709249Y-46483552I-28J-1000001D01*
G01*
X142945686Y-83583408D02*
G75*
G02*
X143945657Y-84583437I-29J-1000000D01*
G01*
X190570166Y-102634780D02*
G75*
G02*
X191570138Y-103634808I-28J-1000000D01*
G01*
X190569766Y-116634787D02*
X178569760Y-116634444D01*
X129945306Y-96583043D02*
X129945650Y-84583036D01*
X135709270Y-45483180D02*
X147709277Y-45483523D01*
X130945679Y-83583064D02*
X142945685Y-83583407D01*
X147708877Y-59483531D02*
X135708870Y-59483187D01*
X142945285Y-97583415D02*
X130945278Y-97583072D01*
X191570138Y-103634808D02*
X191569795Y-115634815D01*
X148709249Y-46483552D02*
X148708906Y-58483559D01*
X134708898Y-58483158D02*
X134709241Y-46483152D01*
X177569788Y-115634415D02*
X177570131Y-103634408D01*
X148708906Y-58483558D02*
G75*
G02*
X147708877Y-59483531I-1000001J28D01*
G01*
X143945657Y-84583437D02*
X143945314Y-96583443D01*
X130945279Y-97583072D02*
G75*
G02*
X129945306Y-96583043I28J1000001D01*
G01*
X177570130Y-103634408D02*
G75*
G02*
X178570160Y-102634436I1000001J-29D01*
G01*
X191569796Y-115634815D02*
G75*
G02*
X190569766Y-116634787I-1000001J29D01*
G01*
X134709242Y-46483152D02*
G75*
G02*
X135709270Y-45483180I1000000J-28D01*
G01*
X135708870Y-59483188D02*
G75*
G02*
X134708898Y-58483158I29J1000001D01*
G01*
X53745265Y-96580864D02*
X53745608Y-84580858D01*
X1070781Y-77529349D02*
G75*
G02*
X70752Y-78529320I-1000000J29D01*
G01*
X9500774Y-121679613D02*
X28644534Y-121680160D01*
X107133710Y-64532373D02*
X119133717Y-64532716D01*
X66745244Y-97581237D02*
X54745237Y-97580893D01*
X28644534Y-121680161D02*
G75*
G02*
X29644506Y-122680189I-28J-1000000D01*
G01*
X8500402Y-134679591D02*
X8500745Y-122679585D01*
X29644506Y-122680189D02*
X29644163Y-134680196D01*
X110608884Y-58482470D02*
G75*
G02*
X109608855Y-59482441I-1000000J29D01*
G01*
X1071125Y-65529342D02*
X1070782Y-77529348D01*
X107133311Y-78532381D02*
G75*
G02*
X106133338Y-77532352I28J1000001D01*
G01*
X164283342Y-78534015D02*
G75*
G02*
X163283369Y-77533986I28J1000001D01*
G01*
X97608849Y-59482098D02*
G75*
G02*
X96608878Y-58482069I29J1000000D01*
G01*
X109608855Y-59482441D02*
X97608850Y-59482098D01*
X168045327Y-96584132D02*
X168045670Y-84584125D01*
X29644164Y-134680196D02*
G75*
G02*
X28644134Y-135680168I-1000001J29D01*
G01*
X-4691206Y-59479174D02*
X-16691212Y-59478831D01*
X176283747Y-64534350D02*
G75*
G02*
X177283720Y-65534379I-28J-1000001D01*
G01*
X96609221Y-46482062D02*
G75*
G02*
X97609250Y-45482091I1000000J-29D01*
G01*
X143945315Y-96583443D02*
G75*
G02*
X142945285Y-97583415I-1000001J29D01*
G01*
X109609256Y-45482434D02*
G75*
G02*
X110609227Y-46482463I-29J-1000000D01*
G01*
X169045699Y-83584154D02*
X181045706Y-83584497D01*
X177283377Y-77534385D02*
G75*
G02*
X176283348Y-78534358I-1000001J28D01*
G01*
X97609250Y-45482091D02*
X109609255Y-45482434D01*
X168045671Y-84584126D02*
G75*
G02*
X169045699Y-83584154I1000000J-28D01*
G01*
X169045299Y-97584162D02*
G75*
G02*
X168045327Y-96584132I29J1000001D01*
G01*
X181045305Y-97584504D02*
X169045299Y-97584161D01*
X182045334Y-96584533D02*
G75*
G02*
X181045305Y-97584504I-1000000J29D01*
G01*
X182045678Y-84584526D02*
X182045335Y-96584532D01*
X181045706Y-83584496D02*
G75*
G02*
X182045678Y-84584526I-29J-1000001D01*
G01*
X110609227Y-46482463D02*
X110608884Y-58482469D01*
X-16691211Y-59478831D02*
G75*
G02*
X-17691184Y-58478802I28J1000001D01*
G01*
X-17690841Y-46478796D02*
G75*
G02*
X-16690812Y-45478823I1000001J-28D01*
G01*
X-17691184Y-58478802D02*
X-17690841Y-46478795D01*
X-11928854Y-64528970D02*
X71153Y-64529313D01*
X-12929226Y-77528948D02*
X-12928883Y-65528941D01*
X-3691176Y-58479202D02*
G75*
G02*
X-4691206Y-59479174I-1000001J29D01*
G01*
X163283712Y-65533980D02*
G75*
G02*
X164283741Y-64534007I1000001J-28D01*
G01*
X9500373Y-135679620D02*
G75*
G02*
X8500402Y-134679591I29J1000000D01*
G01*
X176283348Y-78534358D02*
X164283341Y-78534015D01*
X-3690834Y-46479195D02*
X-3691176Y-58479202D01*
X-4690806Y-45479167D02*
G75*
G02*
X-3690834Y-46479195I-28J-1000000D01*
G01*
X-16690812Y-45478823D02*
X-4690805Y-45479167D01*
X67745616Y-84581258D02*
X67745273Y-96581265D01*
X54745237Y-97580894D02*
G75*
G02*
X53745265Y-96580864I29J1000001D01*
G01*
X28644134Y-135680168D02*
X9500374Y-135679621D01*
X163283369Y-77533986D02*
X163283712Y-65533979D01*
X106133338Y-77532352D02*
X106133681Y-65532345D01*
X96608878Y-58482069D02*
X96609221Y-46482063D01*
X71153Y-64529312D02*
G75*
G02*
X1071125Y-65529342I-29J-1000001D01*
G01*
X120133689Y-65532745D02*
X120133346Y-77532752D01*
X164283741Y-64534007D02*
X176283748Y-64534350D01*
X119133317Y-78532724D02*
X107133310Y-78532381D01*
X67745273Y-96581264D02*
G75*
G02*
X66745244Y-97581237I-1000001J28D01*
G01*
X-12928882Y-65528942D02*
G75*
G02*
X-11928854Y-64528970I1000000J-28D01*
G01*
X8500744Y-122679585D02*
G75*
G02*
X9500774Y-121679613I1000001J-29D01*
G01*
X177283720Y-65534379D02*
X177283377Y-77534386D01*
X120133346Y-77532751D02*
G75*
G02*
X119133317Y-78532724I-1000001J28D01*
G01*
X119133716Y-64532716D02*
G75*
G02*
X120133689Y-65532745I-28J-1000001D01*
G01*
X106133681Y-65532346D02*
G75*
G02*
X107133710Y-64532373I1000001J-28D01*
G01*
X70752Y-78529320D02*
X-11929254Y-78528977D01*
X66745643Y-83581229D02*
G75*
G02*
X67745616Y-84581258I-28J-1000001D01*
G01*
X54745638Y-83580886D02*
X66745644Y-83581229D01*
X53745609Y-84580857D02*
G75*
G02*
X54745638Y-83580886I1000000J-29D01*
G01*
X139183357Y-77533297D02*
G75*
G02*
X138183327Y-78533269I-1000001J29D01*
G01*
X34695598Y-84580314D02*
G75*
G02*
X35695627Y-83580341I1000001J-28D01*
G01*
X39170056Y-103630451D02*
X39169713Y-115630458D01*
X48695263Y-96580719D02*
G75*
G02*
X47695234Y-97580692I-1000001J28D01*
G01*
X207145720Y-83585243D02*
X219145726Y-83585586D01*
X26170078Y-102630079D02*
X38170084Y-102630422D01*
X126183320Y-78532925D02*
G75*
G02*
X125183349Y-77532896I29J1000000D01*
G01*
X138183327Y-78533269D02*
X126183320Y-78532925D01*
X138183727Y-64533262D02*
G75*
G02*
X139183699Y-65533290I-28J-1000000D01*
G01*
X126183721Y-64532918D02*
X138183727Y-64533261D01*
X25169705Y-115630058D02*
X25170048Y-103630051D01*
X38170083Y-102630422D02*
G75*
G02*
X39170056Y-103630451I-28J-1000001D01*
G01*
X206145691Y-84585214D02*
G75*
G02*
X207145720Y-83585243I1000000J-29D01*
G01*
X245245883Y-78536329D02*
G75*
G02*
X244245912Y-77536300I29J1000000D01*
G01*
X220145355Y-96585622D02*
G75*
G02*
X219145326Y-97585593I-1000000J29D01*
G01*
X220145698Y-84585615D02*
X220145355Y-96585621D01*
X206145348Y-96585221D02*
X206145691Y-84585215D01*
X244246255Y-65536293D02*
G75*
G02*
X245246284Y-64536322I1000000J-29D01*
G01*
X257246292Y-64536665D02*
G75*
G02*
X258246263Y-65536694I-29J-1000000D01*
G01*
X39169713Y-115630457D02*
G75*
G02*
X38169684Y-116630430I-1000001J28D01*
G01*
X48695606Y-84580714D02*
X48695263Y-96580720D01*
X139183699Y-65533290D02*
X139183356Y-77533297D01*
X219145326Y-97585593D02*
X207145320Y-97585250D01*
X47695234Y-97580692D02*
X35695227Y-97580349D01*
X258245920Y-77536701D02*
G75*
G02*
X257245891Y-78536672I-1000000J29D01*
G01*
X35695627Y-83580341D02*
X47695634Y-83580684D01*
X25170048Y-103630051D02*
G75*
G02*
X26170078Y-102630079I1000001J-29D01*
G01*
X35695228Y-97580349D02*
G75*
G02*
X34695255Y-96580320I28J1000001D01*
G01*
X244245912Y-77536300D02*
X244246255Y-65536294D01*
X257245891Y-78536672D02*
X245245884Y-78536329D01*
X34695255Y-96580320D02*
X34695598Y-84580313D01*
X125183349Y-77532896D02*
X125183692Y-65532890D01*
X219145727Y-83585586D02*
G75*
G02*
X220145698Y-84585615I-29J-1000000D01*
G01*
X207145319Y-97585250D02*
G75*
G02*
X206145348Y-96585221I29J1000000D01*
G01*
X125183692Y-65532889D02*
G75*
G02*
X126183721Y-64532918I1000000J-29D01*
G01*
X26169678Y-116630087D02*
G75*
G02*
X25169705Y-115630058I28J1000001D01*
G01*
X38169684Y-116630430D02*
X26169677Y-116630087D01*
X258246263Y-65536694D02*
X258245920Y-77536700D01*
X47695634Y-83580684D02*
G75*
G02*
X48695606Y-84580714I-29J-1000001D01*
G01*
X245246284Y-64536322D02*
X257246291Y-64536665D01*
X200095316Y-97585049D02*
X188095309Y-97584706D01*
X34408845Y-58480291D02*
G75*
G02*
X33408815Y-59480263I-1000001J29D01*
G01*
X20408837Y-58479891D02*
X20409180Y-46479884D01*
X187095680Y-84584670D02*
G75*
G02*
X188095710Y-83584698I1000001J-29D01*
G01*
X20409179Y-46479884D02*
G75*
G02*
X21409209Y-45479912I1000001J-29D01*
G01*
X33409215Y-45480256D02*
G75*
G02*
X34409187Y-46480284I-28J-1000000D01*
G01*
X201095345Y-96585076D02*
G75*
G02*
X200095316Y-97585049I-1000001J28D01*
G01*
X230957143Y-121685944D02*
X242957150Y-121686287D01*
X201095688Y-84585070D02*
X201095345Y-96585077D01*
X21409209Y-45479912D02*
X33409215Y-45480255D01*
X243956779Y-134686322D02*
G75*
G02*
X242956750Y-135686295I-1000001J28D01*
G01*
X229957114Y-122685917D02*
G75*
G02*
X230957143Y-121685944I1000001J-28D01*
G01*
X188095310Y-97584706D02*
G75*
G02*
X187095337Y-96584677I28J1000001D01*
G01*
X229663524Y-99585895D02*
G75*
G02*
X228663553Y-98585866I29J1000000D01*
G01*
X230956743Y-135685952D02*
G75*
G02*
X229956771Y-134685922I29J1000001D01*
G01*
X242956750Y-135686295D02*
X230956743Y-135685952D01*
X243957122Y-122686316D02*
X243956779Y-134686323D01*
X242957149Y-121686287D02*
G75*
G02*
X243957122Y-122686316I-28J-1000001D01*
G01*
X200095715Y-83585041D02*
G75*
G02*
X201095688Y-84585070I-28J-1000001D01*
G01*
X229956771Y-134685922D02*
X229957114Y-122685916D01*
X188095710Y-83584698D02*
X200095716Y-83585041D01*
X187095337Y-96584677D02*
X187095680Y-84584670D01*
X33408815Y-59480263D02*
X21408809Y-59479920D01*
X21408809Y-59479919D02*
G75*
G02*
X20408837Y-58479891I28J1000000D01*
G01*
X34409187Y-46480284D02*
X34408844Y-58480291D01*
X105845294Y-96582354D02*
G75*
G02*
X104845264Y-97582326I-1000001J29D01*
G01*
X104845664Y-83582318D02*
G75*
G02*
X105845637Y-84582347I-28J-1000001D01*
G01*
X105845637Y-84582347D02*
X105845293Y-96582354D01*
X104845264Y-97582326D02*
X92845258Y-97581983D01*
X92845658Y-83581975D02*
X104845665Y-83582318D01*
X92845258Y-97581982D02*
G75*
G02*
X91845286Y-96581954I28J1000000D01*
G01*
X91845629Y-84581948D02*
G75*
G02*
X92845658Y-83581975I1000001J-28D01*
G01*
X91845286Y-96581954D02*
X91845629Y-84581947D01*
X64250461Y-133681185D02*
G75*
G02*
X63250431Y-134681157I-1000001J29D01*
G01*
X64250832Y-120681178D02*
X64250460Y-133681185D01*
X63250861Y-119681149D02*
G75*
G02*
X64250832Y-120681178I-29J-1000000D01*
G01*
X57250457Y-133680985D02*
X57250828Y-120680978D01*
X58250857Y-119681006D02*
X63250860Y-119681149D01*
X63250431Y-134681157D02*
X58250429Y-134681014D01*
X57250829Y-120680978D02*
G75*
G02*
X58250857Y-119681006I1000000J-28D01*
G01*
X58250429Y-134681013D02*
G75*
G02*
X57250457Y-133680985I28J1000000D01*
G01*
M02*
