%TF.GenerationSoftware,KiCad,Pcbnew,(5.1.9)-1*%
%TF.CreationDate,2021-02-08T20:19:01+01:00*%
%TF.ProjectId,P.02_ANSI,502e3032-5f41-44e5-9349-2e6b69636164,rev?*%
%TF.SameCoordinates,Original*%
%TF.FileFunction,Soldermask,Top*%
%TF.FilePolarity,Negative*%
%FSLAX46Y46*%
G04 Gerber Fmt 4.6, Leading zero omitted, Abs format (unit mm)*
G04 Created by KiCad (PCBNEW (5.1.9)-1) date 2021-02-08 20:19:01*
%MOMM*%
%LPD*%
G01*
G04 APERTURE LIST*
%ADD10C,1.000000*%
G04 APERTURE END LIST*
D10*
X48712406Y-96554506D02*
G75*
G02*
X47712377Y-97554479I-1000001J28D01*
G01*
X139200842Y-65507077D02*
X139200499Y-77507084D01*
X39187199Y-103604238D02*
X39186856Y-115604245D01*
X34712741Y-84554101D02*
G75*
G02*
X35712770Y-83554128I1000001J-28D01*
G01*
X126200463Y-78506712D02*
G75*
G02*
X125200492Y-77506683I29J1000000D01*
G01*
X126200864Y-64506705D02*
X138200870Y-64507048D01*
X125200492Y-77506683D02*
X125200835Y-65506677D01*
X138200870Y-64507049D02*
G75*
G02*
X139200842Y-65507077I-28J-1000000D01*
G01*
X125200835Y-65506676D02*
G75*
G02*
X126200864Y-64506705I1000000J-29D01*
G01*
X47712777Y-83554471D02*
G75*
G02*
X48712749Y-84554501I-29J-1000001D01*
G01*
X48712749Y-84554501D02*
X48712406Y-96554507D01*
X38186827Y-116604217D02*
X26186820Y-116603874D01*
X39186856Y-115604244D02*
G75*
G02*
X38186827Y-116604217I-1000001J28D01*
G01*
X138200470Y-78507056D02*
X126200463Y-78506712D01*
X26186821Y-116603874D02*
G75*
G02*
X25186848Y-115603845I28J1000001D01*
G01*
X219162469Y-97559380D02*
X207162463Y-97559037D01*
X35712371Y-97554136D02*
G75*
G02*
X34712398Y-96554107I28J1000001D01*
G01*
X25187191Y-103603838D02*
G75*
G02*
X26187221Y-102603866I1000001J-29D01*
G01*
X26187221Y-102603866D02*
X38187227Y-102604209D01*
X34712398Y-96554107D02*
X34712741Y-84554100D01*
X35712770Y-83554128D02*
X47712777Y-83554471D01*
X38187226Y-102604209D02*
G75*
G02*
X39187199Y-103604238I-28J-1000001D01*
G01*
X47712377Y-97554479D02*
X35712370Y-97554136D01*
X139200500Y-77507084D02*
G75*
G02*
X138200470Y-78507056I-1000001J29D01*
G01*
X25186848Y-115603845D02*
X25187191Y-103603838D01*
X258263063Y-77510488D02*
G75*
G02*
X257263034Y-78510459I-1000000J29D01*
G01*
X220162498Y-96559409D02*
G75*
G02*
X219162469Y-97559380I-1000000J29D01*
G01*
X219162870Y-83559373D02*
G75*
G02*
X220162841Y-84559402I-29J-1000000D01*
G01*
X207162863Y-83559030D02*
X219162869Y-83559373D01*
X243973922Y-134660109D02*
G75*
G02*
X242973893Y-135660082I-1000001J28D01*
G01*
X206162834Y-84559001D02*
G75*
G02*
X207162863Y-83559030I1000000J-29D01*
G01*
X206162491Y-96559008D02*
X206162834Y-84559002D01*
X245263026Y-78510116D02*
G75*
G02*
X244263055Y-77510087I29J1000000D01*
G01*
X257263034Y-78510459D02*
X245263027Y-78510116D01*
X258263406Y-65510481D02*
X258263063Y-77510487D01*
X257263435Y-64510452D02*
G75*
G02*
X258263406Y-65510481I-29J-1000000D01*
G01*
X244263398Y-65510080D02*
G75*
G02*
X245263427Y-64510109I1000000J-29D01*
G01*
X230974286Y-121659731D02*
X242974293Y-121660074D01*
X242973893Y-135660082D02*
X230973886Y-135659739D01*
X243974265Y-122660103D02*
X243973922Y-134660110D01*
X200112858Y-83558828D02*
G75*
G02*
X201112831Y-84558857I-28J-1000001D01*
G01*
X229973914Y-134659709D02*
X229974257Y-122659703D01*
X230973886Y-135659739D02*
G75*
G02*
X229973914Y-134659709I29J1000001D01*
G01*
X244263055Y-77510087D02*
X244263398Y-65510081D01*
X242974292Y-121660074D02*
G75*
G02*
X243974265Y-122660103I-28J-1000001D01*
G01*
X220162841Y-84559402D02*
X220162498Y-96559408D01*
X207162462Y-97559037D02*
G75*
G02*
X206162491Y-96559008I29J1000000D01*
G01*
X245263427Y-64510109D02*
X257263434Y-64510452D01*
X229974257Y-122659704D02*
G75*
G02*
X230974286Y-121659731I1000001J-28D01*
G01*
X43950448Y-77504360D02*
G75*
G02*
X42950419Y-78504333I-1000001J28D01*
G01*
X29950440Y-77503960D02*
X29950783Y-65503954D01*
X30950412Y-78503990D02*
G75*
G02*
X29950440Y-77503960I29J1000001D01*
G01*
X30950812Y-64503982D02*
X42950819Y-64504325D01*
X29950784Y-65503954D02*
G75*
G02*
X30950812Y-64503982I1000000J-28D01*
G01*
X42950419Y-78504333D02*
X30950412Y-78503989D01*
X42950819Y-64504324D02*
G75*
G02*
X43950791Y-65504354I-29J-1000001D01*
G01*
X43950791Y-65504354D02*
X43950448Y-77504361D01*
X169062842Y-83557941D02*
X181062849Y-83558284D01*
X168062814Y-84557913D02*
G75*
G02*
X169062842Y-83557941I1000000J-28D01*
G01*
X130962422Y-97556859D02*
G75*
G02*
X129962449Y-96556830I28J1000001D01*
G01*
X142962428Y-97557202D02*
X130962421Y-97556859D01*
X143962458Y-96557230D02*
G75*
G02*
X142962428Y-97557202I-1000001J29D01*
G01*
X-3674033Y-58452989D02*
G75*
G02*
X-4674063Y-59452961I-1000001J29D01*
G01*
X-16673669Y-45452610D02*
X-4673662Y-45452954D01*
X54762380Y-97554681D02*
G75*
G02*
X53762408Y-96554651I29J1000001D01*
G01*
X87895Y-78503107D02*
X-11912111Y-78502764D01*
X9517516Y-135653407D02*
G75*
G02*
X8517545Y-134653378I29J1000000D01*
G01*
X28661277Y-135653955D02*
X9517517Y-135653408D01*
X-11911711Y-64502757D02*
X88296Y-64503100D01*
X177300520Y-77508172D02*
G75*
G02*
X176300491Y-78508145I-1000001J28D01*
G01*
X97625992Y-59455885D02*
G75*
G02*
X96626021Y-58455856I29J1000000D01*
G01*
X164300884Y-64507794D02*
X176300891Y-64508137D01*
X97626393Y-45455878D02*
X109626398Y-45456221D01*
X-11912111Y-78502765D02*
G75*
G02*
X-12912083Y-77502735I29J1000001D01*
G01*
X120150489Y-77506538D02*
G75*
G02*
X119150460Y-78506511I-1000001J28D01*
G01*
X107150454Y-78506168D02*
G75*
G02*
X106150481Y-77506139I28J1000001D01*
G01*
X-12912083Y-77502735D02*
X-12911740Y-65502728D01*
X66762387Y-97555024D02*
X54762380Y-97554680D01*
X176300491Y-78508145D02*
X164300484Y-78507802D01*
X181062448Y-97558291D02*
X169062442Y-97557948D01*
X-3673691Y-46452982D02*
X-3674033Y-58452989D01*
X-4673663Y-45452954D02*
G75*
G02*
X-3673691Y-46452982I-28J-1000000D01*
G01*
X96626364Y-46455849D02*
G75*
G02*
X97626393Y-45455878I1000000J-29D01*
G01*
X67762416Y-96555051D02*
G75*
G02*
X66762387Y-97555024I-1000001J28D01*
G01*
X66762786Y-83555016D02*
G75*
G02*
X67762759Y-84555045I-28J-1000001D01*
G01*
X28661677Y-121653948D02*
G75*
G02*
X29661649Y-122653976I-28J-1000000D01*
G01*
X163300855Y-65507767D02*
G75*
G02*
X164300884Y-64507794I1000001J-28D01*
G01*
X8517887Y-122653372D02*
G75*
G02*
X9517917Y-121653400I1000001J-29D01*
G01*
X8517545Y-134653378D02*
X8517888Y-122653372D01*
X29661307Y-134653983D02*
G75*
G02*
X28661277Y-135653955I-1000001J29D01*
G01*
X1088268Y-65503129D02*
X1087925Y-77503135D01*
X1087924Y-77503136D02*
G75*
G02*
X87895Y-78503107I-1000000J29D01*
G01*
X106150481Y-77506139D02*
X106150824Y-65506132D01*
X120150832Y-65506532D02*
X120150489Y-77506539D01*
X168062470Y-96557919D02*
X168062813Y-84557912D01*
X29661649Y-122653976D02*
X29661306Y-134653983D01*
X119150460Y-78506511D02*
X107150453Y-78506168D01*
X-4674063Y-59452961D02*
X-16674069Y-59452618D01*
X169062442Y-97557949D02*
G75*
G02*
X168062470Y-96557919I29J1000001D01*
G01*
X107150853Y-64506160D02*
X119150860Y-64506503D01*
X-12911739Y-65502729D02*
G75*
G02*
X-11911711Y-64502757I1000000J-28D01*
G01*
X101100822Y-65505988D02*
X101100479Y-77505994D01*
X-16674068Y-59452618D02*
G75*
G02*
X-17674041Y-58452589I28J1000001D01*
G01*
X176300890Y-64508137D02*
G75*
G02*
X177300863Y-65508166I-28J-1000001D01*
G01*
X164300485Y-78507802D02*
G75*
G02*
X163300512Y-77507773I28J1000001D01*
G01*
X163300512Y-77507773D02*
X163300855Y-65507766D01*
X182062477Y-96558320D02*
G75*
G02*
X181062448Y-97558291I-1000000J29D01*
G01*
X109626399Y-45456221D02*
G75*
G02*
X110626370Y-46456250I-29J-1000000D01*
G01*
X54762781Y-83554673D02*
X66762787Y-83555016D01*
X53762752Y-84554644D02*
G75*
G02*
X54762781Y-83554673I1000000J-29D01*
G01*
X110626027Y-58456257D02*
G75*
G02*
X109625998Y-59456228I-1000000J29D01*
G01*
X96626021Y-58455856D02*
X96626364Y-46455850D01*
X109625998Y-59456228D02*
X97625993Y-59455885D01*
X110626370Y-46456250D02*
X110626027Y-58456256D01*
X88296Y-64503099D02*
G75*
G02*
X1088268Y-65503129I-29J-1000001D01*
G01*
X53762408Y-96554651D02*
X53762751Y-84554645D01*
X182062821Y-84558313D02*
X182062478Y-96558319D01*
X-17674041Y-58452589D02*
X-17673698Y-46452582D01*
X181062849Y-83558283D02*
G75*
G02*
X182062821Y-84558313I-29J-1000001D01*
G01*
X100100850Y-64505958D02*
G75*
G02*
X101100822Y-65505988I-29J-1000001D01*
G01*
X-17673698Y-46452583D02*
G75*
G02*
X-16673669Y-45452610I1000001J-28D01*
G01*
X67762759Y-84555045D02*
X67762416Y-96555052D01*
X177300863Y-65508166D02*
X177300520Y-77508173D01*
X9517917Y-121653400D02*
X28661677Y-121653947D01*
X119150859Y-64506503D02*
G75*
G02*
X120150832Y-65506532I-28J-1000001D01*
G01*
X106150824Y-65506133D02*
G75*
G02*
X107150853Y-64506160I1000001J-28D01*
G01*
X172823883Y-134658076D02*
X172824226Y-122658069D01*
X268075569Y-77510768D02*
X268075912Y-65510761D01*
X269075541Y-78510796D02*
G75*
G02*
X268075569Y-77510768I28J1000000D01*
G01*
X158250509Y-77507629D02*
G75*
G02*
X157250480Y-78507600I-1000000J29D01*
G01*
X144250845Y-65507221D02*
G75*
G02*
X145250874Y-64507250I1000000J-29D01*
G01*
X281075547Y-78511140D02*
X269075541Y-78510797D01*
X268075911Y-65510761D02*
G75*
G02*
X269075941Y-64510789I1000001J-29D01*
G01*
X172824226Y-122658069D02*
G75*
G02*
X173824256Y-121658097I1000001J-29D01*
G01*
X223926061Y-59459496D02*
X211926054Y-59459153D01*
X173823856Y-135658105D02*
G75*
G02*
X172823883Y-134658076I28J1000001D01*
G01*
X224924255Y-122659559D02*
X224923912Y-134659565D01*
X211926055Y-59459153D02*
G75*
G02*
X210926082Y-58459124I28J1000001D01*
G01*
X157250881Y-64507593D02*
G75*
G02*
X158250852Y-65507622I-29J-1000000D01*
G01*
X196636941Y-115608746D02*
X196637284Y-103608740D01*
X281075948Y-64511133D02*
G75*
G02*
X282075919Y-65511162I-29J-1000000D01*
G01*
X223923882Y-135659537D02*
X173823855Y-135658105D01*
X88100843Y-64505616D02*
X100100850Y-64505959D01*
X87100815Y-65505588D02*
G75*
G02*
X88100843Y-64505616I1000000J-28D01*
G01*
X224926433Y-46459518D02*
X224926090Y-58459524D01*
X87100471Y-77505594D02*
X87100814Y-65505588D01*
X88100443Y-78505624D02*
G75*
G02*
X87100471Y-77505594I29J1000001D01*
G01*
X211926455Y-45459145D02*
X223926461Y-45459488D01*
X100100449Y-78505966D02*
X88100443Y-78505623D01*
X101100478Y-77505995D02*
G75*
G02*
X100100449Y-78505966I-1000000J29D01*
G01*
X250024841Y-102610265D02*
X262024848Y-102610608D01*
X145250874Y-64507250D02*
X157250880Y-64507593D01*
X197636912Y-116608775D02*
G75*
G02*
X196636941Y-115608746I29J1000000D01*
G01*
X249024469Y-115610244D02*
X249024812Y-103610237D01*
X262024848Y-102610608D02*
G75*
G02*
X263024820Y-103610638I-29J-1000001D01*
G01*
X197637313Y-102608768D02*
X209637320Y-102609111D01*
X224923911Y-134659566D02*
G75*
G02*
X223923882Y-135659537I-1000000J29D01*
G01*
X262024448Y-116610616D02*
X250024441Y-116610273D01*
X210637291Y-103609140D02*
X210636948Y-115609146D01*
X263024477Y-115610643D02*
G75*
G02*
X262024448Y-116610616I-1000001J28D01*
G01*
X196637284Y-103608739D02*
G75*
G02*
X197637313Y-102608768I1000000J-29D01*
G01*
X224926090Y-58459523D02*
G75*
G02*
X223926061Y-59459496I-1000001J28D01*
G01*
X210926082Y-58459124D02*
X210926425Y-46459117D01*
X157250480Y-78507600D02*
X145250474Y-78507257D01*
X269075941Y-64510789D02*
X281075947Y-64511132D01*
X223924283Y-121659529D02*
G75*
G02*
X224924255Y-122659559I-29J-1000001D01*
G01*
X144250502Y-77507228D02*
X144250845Y-65507221D01*
X210926425Y-46459117D02*
G75*
G02*
X211926455Y-45459145I1000001J-29D01*
G01*
X158250852Y-65507622D02*
X158250509Y-77507628D01*
X145250473Y-78507257D02*
G75*
G02*
X144250502Y-77507228I29J1000000D01*
G01*
X282075919Y-65511162D02*
X282075576Y-77511168D01*
X249024812Y-103610238D02*
G75*
G02*
X250024841Y-102610265I1000001J-28D01*
G01*
X223926461Y-45459488D02*
G75*
G02*
X224926433Y-46459518I-29J-1000001D01*
G01*
X250024442Y-116610273D02*
G75*
G02*
X249024469Y-115610244I28J1000001D01*
G01*
X263024820Y-103610638D02*
X263024477Y-115610644D01*
X173824256Y-121658097D02*
X223924283Y-121659530D01*
X210636948Y-115609147D02*
G75*
G02*
X209636919Y-116609118I-1000000J29D01*
G01*
X209637320Y-102609111D02*
G75*
G02*
X210637291Y-103609140I-29J-1000000D01*
G01*
X282075577Y-77511168D02*
G75*
G02*
X281075547Y-78511140I-1000001J29D01*
G01*
X209636919Y-116609118D02*
X197636913Y-116608775D01*
X33425958Y-59454050D02*
X21425952Y-59453707D01*
X143962800Y-84557224D02*
X143962457Y-96557230D01*
X129962792Y-84556823D02*
G75*
G02*
X130962822Y-83556851I1000001J-29D01*
G01*
X21426352Y-45453699D02*
X33426358Y-45454042D01*
X191586939Y-115608602D02*
G75*
G02*
X190586909Y-116608574I-1000001J29D01*
G01*
X135726013Y-59456975D02*
G75*
G02*
X134726041Y-58456945I29J1000001D01*
G01*
X142962829Y-83557195D02*
G75*
G02*
X143962800Y-84557224I-29J-1000000D01*
G01*
X178587303Y-102608223D02*
X190587309Y-102608566D01*
X190586909Y-116608574D02*
X178586903Y-116608231D01*
X148726049Y-58457345D02*
G75*
G02*
X147726020Y-59457318I-1000001J28D01*
G01*
X201112831Y-84558857D02*
X201112488Y-96558864D01*
X229680667Y-99559682D02*
G75*
G02*
X228680696Y-98559653I29J1000000D01*
G01*
X177587273Y-103608195D02*
G75*
G02*
X178587303Y-102608223I1000001J-29D01*
G01*
X20426322Y-46453671D02*
G75*
G02*
X21426352Y-45453699I1000001J-29D01*
G01*
X178586903Y-116608230D02*
G75*
G02*
X177586931Y-115608202I28J1000000D01*
G01*
X134726385Y-46456939D02*
G75*
G02*
X135726413Y-45456967I1000000J-28D01*
G01*
X134726041Y-58456945D02*
X134726384Y-46456939D01*
X188112853Y-83558485D02*
X200112859Y-83558828D01*
X147726419Y-45457310D02*
G75*
G02*
X148726392Y-46457339I-28J-1000001D01*
G01*
X187112823Y-84558457D02*
G75*
G02*
X188112853Y-83558485I1000001J-29D01*
G01*
X187112480Y-96558464D02*
X187112823Y-84558457D01*
X190587309Y-102608567D02*
G75*
G02*
X191587281Y-103608595I-28J-1000000D01*
G01*
X177586931Y-115608202D02*
X177587274Y-103608195D01*
X188112453Y-97558493D02*
G75*
G02*
X187112480Y-96558464I28J1000001D01*
G01*
X200112459Y-97558836D02*
X188112452Y-97558493D01*
X201112488Y-96558863D02*
G75*
G02*
X200112459Y-97558836I-1000001J28D01*
G01*
X33426358Y-45454043D02*
G75*
G02*
X34426330Y-46454071I-28J-1000000D01*
G01*
X135726413Y-45456967D02*
X147726420Y-45457310D01*
X148726392Y-46457339D02*
X148726049Y-58457346D01*
X20425980Y-58453678D02*
X20426323Y-46453671D01*
X34426330Y-46454071D02*
X34425987Y-58454078D01*
X21425952Y-59453706D02*
G75*
G02*
X20425980Y-58453678I28J1000000D01*
G01*
X34425988Y-58454078D02*
G75*
G02*
X33425958Y-59454050I-1000001J29D01*
G01*
X130962822Y-83556851D02*
X142962828Y-83557194D01*
X129962449Y-96556830D02*
X129962793Y-84556823D01*
X191587281Y-103608595D02*
X191586938Y-115608602D01*
X147726020Y-59457318D02*
X135726013Y-59456974D01*
X49000450Y-77504505D02*
X49000793Y-65504498D01*
X52476368Y-45454588D02*
G75*
G02*
X53476340Y-46454616I-28J-1000000D01*
G01*
X63000457Y-77504905D02*
G75*
G02*
X62000429Y-78504877I-1000000J28D01*
G01*
X282075031Y-96561179D02*
G75*
G02*
X281075002Y-97561150I-1000000J29D01*
G01*
X40476361Y-45454244D02*
X52476369Y-45454587D01*
X52475968Y-59454595D02*
X40475961Y-59454251D01*
X268075024Y-96560778D02*
X268075367Y-84560772D01*
X50000422Y-78504535D02*
G75*
G02*
X49000450Y-77504505I29J1000001D01*
G01*
X-7207476Y-117602919D02*
G75*
G02*
X-6207447Y-116602948I1000000J-29D01*
G01*
X8962983Y-103603374D02*
X15668936Y-103603566D01*
X8962982Y-103603374D02*
G75*
G02*
X8096971Y-103103349I29J1000000D01*
G01*
X39475989Y-58454222D02*
X39476332Y-46454216D01*
X-5635087Y-103102957D02*
G75*
G02*
X-6501127Y-103602932I-866011J500025D01*
G01*
X-8207505Y-118602892D02*
X-13207508Y-118602749D01*
X-13207079Y-103602741D02*
X-6501127Y-103602932D01*
X269074996Y-97560808D02*
G75*
G02*
X268075024Y-96560778I29J1000001D01*
G01*
X10900430Y-77503416D02*
X10900773Y-65503409D01*
X24900438Y-77503816D02*
G75*
G02*
X23900408Y-78503788I-1000001J29D01*
G01*
X233450921Y-64509771D02*
G75*
G02*
X234450894Y-65509800I-28J-1000001D01*
G01*
X49000793Y-65504498D02*
G75*
G02*
X50000823Y-64504526I1000001J-29D01*
G01*
X39476332Y-46454215D02*
G75*
G02*
X40476361Y-45454244I1000000J-29D01*
G01*
X220450887Y-65509400D02*
G75*
G02*
X221450915Y-64509428I1000000J-28D01*
G01*
X221450514Y-78509435D02*
G75*
G02*
X220450543Y-77509406I29J1000000D01*
G01*
X53475998Y-58454623D02*
G75*
G02*
X52475968Y-59454595I-1000001J29D01*
G01*
X250023896Y-135660283D02*
G75*
G02*
X249023925Y-134660254I29J1000000D01*
G01*
X281075002Y-97561150D02*
X269074996Y-97560807D01*
X10900772Y-65503409D02*
G75*
G02*
X11900802Y-64503437I1000001J-29D01*
G01*
X62000829Y-64504869D02*
G75*
G02*
X63000801Y-65504899I-29J-1000001D01*
G01*
X16668536Y-117603603D02*
G75*
G02*
X15668507Y-118603574I-1000000J29D01*
G01*
X268075368Y-84560772D02*
G75*
G02*
X269075396Y-83560800I1000000J-28D01*
G01*
X-4769046Y-102602981D02*
X7230960Y-102603324D01*
X-14207480Y-117602720D02*
X-14207108Y-104602713D01*
X23900808Y-64503781D02*
G75*
G02*
X24900780Y-65503809I-28J-1000000D01*
G01*
X234450894Y-65509800D02*
X234450550Y-77509807D01*
X269075396Y-83560800D02*
X281075403Y-83561143D01*
X233450521Y-78509779D02*
X221450515Y-78509435D01*
X10668504Y-118603431D02*
G75*
G02*
X9668533Y-117603402I29J1000000D01*
G01*
X11900802Y-64503437D02*
X23900809Y-64503780D01*
X11900402Y-78503444D02*
G75*
G02*
X10900430Y-77503416I28J1000000D01*
G01*
X23900408Y-78503788D02*
X11900402Y-78503445D01*
X24900780Y-65503809D02*
X24900437Y-77503816D01*
X234450551Y-77509807D02*
G75*
G02*
X233450521Y-78509779I-1000001J29D01*
G01*
X221450915Y-64509428D02*
X233450922Y-64509771D01*
X220450543Y-77509406D02*
X220450886Y-65509400D01*
X40475960Y-59454251D02*
G75*
G02*
X39475989Y-58454222I29J1000000D01*
G01*
X281075403Y-83561142D02*
G75*
G02*
X282075375Y-84561172I-29J-1000001D01*
G01*
X62000429Y-78504877D02*
X50000422Y-78504534D01*
X63000801Y-65504899D02*
X63000458Y-77504905D01*
X53476340Y-46454616D02*
X53475997Y-58454623D01*
X282075375Y-84561172D02*
X282075032Y-96561178D01*
X15668936Y-103603567D02*
G75*
G02*
X16668908Y-104603595I-28J-1000000D01*
G01*
X50000823Y-64504526D02*
X62000829Y-64504870D01*
X63287213Y-103604928D02*
G75*
G02*
X64287241Y-102604956I1000000J-28D01*
G01*
X91576361Y-46455705D02*
X91576018Y-58455712D01*
X149012803Y-84557367D02*
G75*
G02*
X150012832Y-83557396I1000000J-29D01*
G01*
X81050439Y-78505422D02*
X69050433Y-78505079D01*
X-14293507Y-83552699D02*
X2469002Y-83553178D01*
X-14293907Y-97552707D02*
G75*
G02*
X-15293879Y-96552677I29J1000001D01*
G01*
X63286869Y-115604934D02*
X63287212Y-103604927D01*
X64287241Y-102604956D02*
X76287247Y-102605299D01*
X163012468Y-96557775D02*
G75*
G02*
X162012438Y-97557747I-1000001J29D01*
G01*
X86812426Y-96555597D02*
G75*
G02*
X85812397Y-97555568I-1000000J29D01*
G01*
X214400911Y-64509227D02*
G75*
G02*
X215400883Y-65509255I-28J-1000000D01*
G01*
X150012832Y-83557396D02*
X162012838Y-83557739D01*
X162012838Y-83557740D02*
G75*
G02*
X163012810Y-84557768I-28J-1000000D01*
G01*
X68050461Y-77505050D02*
X68050804Y-65505043D01*
X201400875Y-65508855D02*
G75*
G02*
X202400905Y-64508883I1000001J-29D01*
G01*
X85812397Y-97555568D02*
X73812391Y-97555225D01*
X77576010Y-58455312D02*
X77576353Y-46455305D01*
X72812762Y-84555189D02*
G75*
G02*
X73812791Y-83555218I1000000J-29D01*
G01*
X263023932Y-134660655D02*
G75*
G02*
X262023903Y-135660626I-1000000J29D01*
G01*
X3468974Y-84553207D02*
X3468631Y-96553214D01*
X-15293535Y-84552671D02*
G75*
G02*
X-14293507Y-83552699I1000000J-28D01*
G01*
X268073935Y-134660799D02*
X268074278Y-122660792D01*
X85812798Y-83555561D02*
G75*
G02*
X86812769Y-84555590I-29J-1000000D01*
G01*
X281073913Y-135661171D02*
X269073907Y-135660828D01*
X90576389Y-45455677D02*
G75*
G02*
X91576361Y-46455705I-28J-1000000D01*
G01*
X150012431Y-97557403D02*
G75*
G02*
X149012460Y-96557374I29J1000000D01*
G01*
X262023903Y-135660626D02*
X250023896Y-135660283D01*
X263024275Y-122660648D02*
X263023932Y-134660654D01*
X282073943Y-134661199D02*
G75*
G02*
X281073913Y-135661171I-1000001J29D01*
G01*
X269074307Y-121660820D02*
X281074313Y-121661163D01*
X68050803Y-65505043D02*
G75*
G02*
X69050833Y-64505071I1000001J-29D01*
G01*
X82050469Y-77505450D02*
G75*
G02*
X81050439Y-78505422I-1000001J29D01*
G01*
X262024304Y-121660619D02*
G75*
G02*
X263024275Y-122660648I-29J-1000000D01*
G01*
X268074277Y-122660792D02*
G75*
G02*
X269074307Y-121660820I1000001J-29D01*
G01*
X69050433Y-78505078D02*
G75*
G02*
X68050461Y-77505050I28J1000000D01*
G01*
X81050839Y-64505415D02*
G75*
G02*
X82050811Y-65505443I-28J-1000000D01*
G01*
X64286840Y-116604963D02*
G75*
G02*
X63286869Y-115604934I29J1000000D01*
G01*
X201400533Y-77508862D02*
X201400876Y-65508855D01*
X86812769Y-84555590D02*
X86812426Y-96555596D01*
X202400905Y-64508883D02*
X214400911Y-64509226D01*
X91576018Y-58455711D02*
G75*
G02*
X90575989Y-59455684I-1000001J28D01*
G01*
X73812390Y-97555225D02*
G75*
G02*
X72812419Y-96555196I29J1000000D01*
G01*
X77576353Y-46455305D02*
G75*
G02*
X78576383Y-45455333I1000001J-29D01*
G01*
X78576383Y-45455333D02*
X90576389Y-45455676D01*
X163012810Y-84557768D02*
X163012467Y-96557775D01*
X2469003Y-83553178D02*
G75*
G02*
X3468974Y-84553207I-29J-1000000D01*
G01*
X250024297Y-121660276D02*
X262024303Y-121660619D01*
X-15293879Y-96552677D02*
X-15293536Y-84552671D01*
X3468632Y-96553214D02*
G75*
G02*
X2468602Y-97553186I-1000001J29D01*
G01*
X76287247Y-102605297D02*
G75*
G02*
X77287220Y-103605328I-29J-1000002D01*
G01*
X162012438Y-97557747D02*
X150012432Y-97557403D01*
X2468602Y-97553186D02*
X-14293907Y-97552706D01*
X72812419Y-96555196D02*
X72812762Y-84555189D01*
X249024268Y-122660247D02*
G75*
G02*
X250024297Y-121660276I1000000J-29D01*
G01*
X249023925Y-134660254D02*
X249024268Y-122660248D01*
X269073907Y-135660827D02*
G75*
G02*
X268073935Y-134660799I28J1000000D01*
G01*
X73812791Y-83555218D02*
X85812797Y-83555561D01*
X282074285Y-122661192D02*
X282073942Y-134661199D01*
X281074313Y-121661164D02*
G75*
G02*
X282074285Y-122661192I-28J-1000000D01*
G01*
X149012460Y-96557374D02*
X149012803Y-84557368D01*
X90575989Y-59455684D02*
X78575982Y-59455341D01*
X78575983Y-59455341D02*
G75*
G02*
X77576010Y-58455312I28J1000001D01*
G01*
X82050811Y-65505443D02*
X82050468Y-77505450D01*
X69050833Y-64505071D02*
X81050839Y-64505414D01*
X76286846Y-116605306D02*
X64286841Y-116604963D01*
X182350522Y-77508317D02*
X182350865Y-65508311D01*
X42974213Y-120654356D02*
G75*
G02*
X43974243Y-119654384I1000001J-29D01*
G01*
X86662Y-121653130D02*
G75*
G02*
X1086634Y-122653160I-29J-1000001D01*
G01*
X183350494Y-78508347D02*
G75*
G02*
X182350522Y-77508317I29J1000001D01*
G01*
X223830677Y-116609525D02*
G75*
G02*
X222830705Y-115609495I29J1000001D01*
G01*
X183350895Y-64508339D02*
X195350901Y-64508682D01*
X185826440Y-45458400D02*
G75*
G02*
X186826412Y-46458428I-28J-1000000D01*
G01*
X29662395Y-96553963D02*
G75*
G02*
X28662366Y-97553934I-1000000J29D01*
G01*
X204876051Y-59458951D02*
X192876044Y-59458608D01*
X128676410Y-45456765D02*
G75*
G02*
X129676382Y-46456795I-29J-1000001D01*
G01*
X235830683Y-116609867D02*
X223830677Y-116609524D01*
X172826062Y-58458035D02*
X172826405Y-46458028D01*
X77287220Y-103605328D02*
X77286875Y-115605334D01*
X129676039Y-58456801D02*
G75*
G02*
X128676009Y-59456773I-1000001J29D01*
G01*
X46196076Y-135154456D02*
G75*
G02*
X45330036Y-135654431I-866011J500025D01*
G01*
X46196075Y-135154455D02*
G75*
G02*
X47062116Y-134654480I866012J-500026D01*
G01*
X191876072Y-58458579D02*
X191876415Y-46458573D01*
X192876044Y-59458609D02*
G75*
G02*
X191876072Y-58458579I29J1000001D01*
G01*
X182350866Y-65508310D02*
G75*
G02*
X183350895Y-64508339I1000000J-29D01*
G01*
X77286875Y-115605335D02*
G75*
G02*
X76286846Y-116605306I-1000000J29D01*
G01*
X33330029Y-135654088D02*
G75*
G02*
X32330058Y-134654059I29J1000000D01*
G01*
X-15294968Y-134652698D02*
X-15294625Y-122652691D01*
X235831084Y-102609859D02*
G75*
G02*
X236831056Y-103609889I-29J-1000001D01*
G01*
X173826034Y-59458063D02*
G75*
G02*
X172826062Y-58458035I28J1000000D01*
G01*
X222831049Y-103609489D02*
G75*
G02*
X223831077Y-102609517I1000000J-28D01*
G01*
X1086634Y-122653160D02*
X1086291Y-134653166D01*
X-14294596Y-121652719D02*
X86662Y-121653130D01*
X222830705Y-115609495D02*
X222831048Y-103609489D01*
X236830712Y-115609896D02*
G75*
G02*
X235830683Y-116609867I-1000000J29D01*
G01*
X128676009Y-59456773D02*
X116676003Y-59456430D01*
X116676403Y-45456422D02*
X128676410Y-45456765D01*
X192876444Y-45458601D02*
X204876451Y-45458944D01*
X236831056Y-103609889D02*
X236830713Y-115609895D01*
X186826412Y-46458428D02*
X186826069Y-58458435D01*
X195350901Y-64508681D02*
G75*
G02*
X196350873Y-65508711I-29J-1000001D01*
G01*
X202400505Y-78508890D02*
G75*
G02*
X201400533Y-77508862I28J1000000D01*
G01*
X214400511Y-78509234D02*
X202400505Y-78508891D01*
X115676031Y-58456401D02*
X115676374Y-46456394D01*
X215400541Y-77509262D02*
G75*
G02*
X214400511Y-78509234I-1000001J29D01*
G01*
X196350873Y-65508711D02*
X196350530Y-77508717D01*
X172826404Y-46458028D02*
G75*
G02*
X173826434Y-45458056I1000001J-29D01*
G01*
X186826070Y-58458435D02*
G75*
G02*
X185826040Y-59458407I-1000001J29D01*
G01*
X185826040Y-59458407D02*
X173826034Y-59458064D01*
X215400883Y-65509255D02*
X215400540Y-77509262D01*
X129676382Y-46456795D02*
X129676039Y-58456801D01*
X-14294996Y-135652726D02*
G75*
G02*
X-15294968Y-134652698I28J1000000D01*
G01*
X205876423Y-46458973D02*
X205876080Y-58458979D01*
X28662767Y-83553927D02*
G75*
G02*
X29662738Y-84553956I-29J-1000000D01*
G01*
X204876451Y-45458943D02*
G75*
G02*
X205876423Y-46458973I-29J-1000001D01*
G01*
X28662366Y-97553934D02*
X16662360Y-97553591D01*
X86262Y-135653138D02*
X-14294996Y-135652727D01*
X29662738Y-84553956D02*
X29662395Y-96553962D01*
X1086291Y-134653165D02*
G75*
G02*
X86262Y-135653138I-1000001J28D01*
G01*
X191876416Y-46458573D02*
G75*
G02*
X192876444Y-45458601I1000000J-28D01*
G01*
X196350529Y-77508717D02*
G75*
G02*
X195350501Y-78508689I-1000000J28D01*
G01*
X205876079Y-58458979D02*
G75*
G02*
X204876051Y-59458951I-1000000J28D01*
G01*
X33330430Y-121654081D02*
X41974184Y-121654328D01*
X195350501Y-78508689D02*
X183350494Y-78508346D01*
X-15294625Y-122652692D02*
G75*
G02*
X-14294596Y-121652719I1000001J-28D01*
G01*
X173826434Y-45458056D02*
X185826440Y-45458399D01*
X223831077Y-102609517D02*
X235831084Y-102609860D01*
X115676374Y-46456395D02*
G75*
G02*
X116676403Y-45456422I1000001J-28D01*
G01*
X116676004Y-59456430D02*
G75*
G02*
X115676031Y-58456401I28J1000001D01*
G01*
X49973845Y-133654563D02*
G75*
G02*
X48973817Y-134654535I-1000000J28D01*
G01*
X32330401Y-122654052D02*
G75*
G02*
X33330430Y-121654081I1000000J-29D01*
G01*
X102387262Y-102606045D02*
X114387268Y-102606388D01*
X269074451Y-116610818D02*
G75*
G02*
X268074479Y-115610788I29J1000001D01*
G01*
X58526000Y-58454767D02*
X58526343Y-46454760D01*
X166776030Y-59457862D02*
X154776024Y-59457519D01*
X134437250Y-103606961D02*
X134436907Y-115606968D01*
X102386861Y-116606053D02*
G75*
G02*
X101386889Y-115606023I29J1000001D01*
G01*
X101386889Y-115606023D02*
X101387233Y-103606017D01*
X269074852Y-102610810D02*
X281074858Y-102611153D01*
X72526351Y-46455161D02*
X72526008Y-58455167D01*
X101387233Y-103606016D02*
G75*
G02*
X102387262Y-102606045I1000000J-29D01*
G01*
X281074857Y-102611153D02*
G75*
G02*
X282074830Y-103611182I-28J-1000001D01*
G01*
X133437278Y-102606933D02*
G75*
G02*
X134437250Y-103606961I-28J-1000000D01*
G01*
X282074487Y-115611188D02*
G75*
G02*
X281074458Y-116611161I-1000001J28D01*
G01*
X268074822Y-103610782D02*
G75*
G02*
X269074852Y-102610810I1000001J-29D01*
G01*
X43974243Y-119654384D02*
X48974245Y-119654527D01*
X134436908Y-115606968D02*
G75*
G02*
X133436878Y-116606940I-1000001J29D01*
G01*
X16662760Y-83553584D02*
X28662766Y-83553927D01*
X133436878Y-116606940D02*
X121436872Y-116606597D01*
X15662731Y-84553555D02*
G75*
G02*
X16662760Y-83553584I1000000J-29D01*
G01*
X120437242Y-103606561D02*
G75*
G02*
X121437272Y-102606589I1000001J-29D01*
G01*
X121436872Y-116606596D02*
G75*
G02*
X120436900Y-115606568I28J1000000D01*
G01*
X15662388Y-96553562D02*
X15662731Y-84553556D01*
X72526007Y-58455167D02*
G75*
G02*
X71525979Y-59455139I-1000000J28D01*
G01*
X115387240Y-103606417D02*
X115386897Y-115606423D01*
X16662359Y-97553591D02*
G75*
G02*
X15662388Y-96553562I29J1000000D01*
G01*
X140486882Y-116607142D02*
G75*
G02*
X139486910Y-115607112I29J1000001D01*
G01*
X71526379Y-45455131D02*
G75*
G02*
X72526351Y-46455161I-29J-1000001D01*
G01*
X154776023Y-59457519D02*
G75*
G02*
X153776052Y-58457490I29J1000000D01*
G01*
X153486918Y-115607513D02*
G75*
G02*
X152486888Y-116607485I-1000001J29D01*
G01*
X59525972Y-59454797D02*
G75*
G02*
X58526000Y-58454767I29J1000001D01*
G01*
X269076485Y-45460779D02*
X281076492Y-45461122D01*
X152487288Y-102607477D02*
G75*
G02*
X153487261Y-103607506I-28J-1000001D01*
G01*
X114387269Y-102606388D02*
G75*
G02*
X115387240Y-103606417I-29J-1000000D01*
G01*
X120436900Y-115606568D02*
X120437243Y-103606561D01*
X32330058Y-134654059D02*
X32330401Y-122654053D01*
X268076456Y-46460752D02*
G75*
G02*
X269076485Y-45460779I1000001J-28D01*
G01*
X268076113Y-58460758D02*
X268076456Y-46460751D01*
X282076121Y-58461157D02*
G75*
G02*
X281076092Y-59461130I-1000001J28D01*
G01*
X269076086Y-59460787D02*
G75*
G02*
X268076113Y-58460758I28J1000001D01*
G01*
X281076092Y-59461130D02*
X269076085Y-59460787D01*
X282076464Y-46461151D02*
X282076121Y-58461158D01*
X45330036Y-135654431D02*
X33330030Y-135654088D01*
X139487254Y-103607106D02*
G75*
G02*
X140487282Y-102607134I1000000J-28D01*
G01*
X71525979Y-59455139D02*
X59525972Y-59454796D01*
X167776059Y-58457891D02*
G75*
G02*
X166776030Y-59457862I-1000000J29D01*
G01*
X42974214Y-120654356D02*
G75*
G02*
X41974184Y-121654328I-1000001J29D01*
G01*
X281076491Y-45461122D02*
G75*
G02*
X282076464Y-46461151I-28J-1000001D01*
G01*
X48974246Y-119654527D02*
G75*
G02*
X49974217Y-120654556I-29J-1000000D01*
G01*
X48973817Y-134654535D02*
X47062116Y-134654480D01*
X140487282Y-102607134D02*
X152487289Y-102607477D01*
X152486888Y-116607485D02*
X140486882Y-116607141D01*
X281074458Y-116611161D02*
X269074451Y-116610818D01*
X49974217Y-120654556D02*
X49973846Y-133654563D01*
X115386896Y-115606423D02*
G75*
G02*
X114386868Y-116606395I-1000000J28D01*
G01*
X58526344Y-46454761D02*
G75*
G02*
X59526372Y-45454789I1000000J-28D01*
G01*
X268074479Y-115610788D02*
X268074822Y-103610782D01*
X139486910Y-115607112D02*
X139487253Y-103607106D01*
X282074830Y-103611182D02*
X282074487Y-115611189D01*
X59526372Y-45454789D02*
X71526379Y-45455132D01*
X121437272Y-102606589D02*
X133437278Y-102606932D01*
X114386868Y-116606395D02*
X102386861Y-116606052D01*
X153487261Y-103607506D02*
X153486918Y-115607513D01*
X96337230Y-103605872D02*
X96336887Y-115605879D01*
X167776402Y-46457884D02*
X167776059Y-58457890D01*
X154776424Y-45457512D02*
X166776430Y-45457855D01*
X153776052Y-58457490D02*
X153776395Y-46457483D01*
X97624214Y-121655919D02*
X116767975Y-121656466D01*
X15375976Y-58453533D02*
G75*
G02*
X14375948Y-59453505I-1000000J28D01*
G01*
X171536899Y-116608029D02*
X159536892Y-116607686D01*
X96624186Y-122655891D02*
G75*
G02*
X97624214Y-121655919I1000000J-28D01*
G01*
X96623842Y-134655897D02*
X96624185Y-122655891D01*
X2375941Y-59453163D02*
G75*
G02*
X1375969Y-58453133I29J1000001D01*
G01*
X164273908Y-133657831D02*
G75*
G02*
X163273878Y-134657803I-1000001J29D01*
G01*
X95336858Y-116605851D02*
X83336851Y-116605508D01*
X1376313Y-46453126D02*
G75*
G02*
X2376342Y-45453155I1000000J-29D01*
G01*
X83337251Y-102605500D02*
X95337258Y-102605843D01*
X82337222Y-103605473D02*
G75*
G02*
X83337251Y-102605500I1000001J-28D01*
G01*
X95337257Y-102605843D02*
G75*
G02*
X96337230Y-103605872I-28J-1000001D01*
G01*
X172537271Y-103608051D02*
X172536928Y-115608057D01*
X158537264Y-103607650D02*
G75*
G02*
X159537293Y-102607679I1000000J-29D01*
G01*
X157274276Y-120657624D02*
G75*
G02*
X158274304Y-119657652I1000000J-28D01*
G01*
X166776431Y-45457855D02*
G75*
G02*
X167776402Y-46457884I-29J-1000000D01*
G01*
X96336887Y-115605878D02*
G75*
G02*
X95336858Y-116605851I-1000001J28D01*
G01*
X159537293Y-102607679D02*
X171537299Y-102608022D01*
X172536927Y-115608057D02*
G75*
G02*
X171536899Y-116608029I-1000000J28D01*
G01*
X117767947Y-122656495D02*
X117767604Y-134656502D01*
X153776395Y-46457483D02*
G75*
G02*
X154776424Y-45457512I1000000J-29D01*
G01*
X116767974Y-121656466D02*
G75*
G02*
X117767947Y-122656495I-28J-1000001D01*
G01*
X159536892Y-116607687D02*
G75*
G02*
X158536920Y-115607657I29J1000001D01*
G01*
X158273876Y-134657660D02*
X163273878Y-134657803D01*
X14375948Y-59453505D02*
X2375941Y-59453162D01*
X157274275Y-120657624D02*
X157273904Y-133657631D01*
X117767604Y-134656501D02*
G75*
G02*
X116767575Y-135656474I-1000001J28D01*
G01*
X97623814Y-135655927D02*
G75*
G02*
X96623842Y-134655897I29J1000001D01*
G01*
X2376342Y-45453155D02*
X14376348Y-45453498D01*
X15376320Y-46453527D02*
X15375977Y-58453533D01*
X164273907Y-133657831D02*
X164274279Y-120657824D01*
X14376348Y-45453497D02*
G75*
G02*
X15376320Y-46453527I-29J-1000001D01*
G01*
X83336852Y-116605508D02*
G75*
G02*
X82336879Y-115605479I28J1000001D01*
G01*
X158273876Y-134657659D02*
G75*
G02*
X157273904Y-133657631I28J1000000D01*
G01*
X116767575Y-135656474D02*
X97623814Y-135655926D01*
X1375969Y-58453133D02*
X1376312Y-46453127D01*
X171537299Y-102608021D02*
G75*
G02*
X172537271Y-103608051I-29J-1000001D01*
G01*
X82336879Y-115605479D02*
X82337222Y-103605472D01*
X158536920Y-115607657D02*
X158537263Y-103607650D01*
X163274307Y-119657795D02*
X158274304Y-119657652D01*
X163274308Y-119657795D02*
G75*
G02*
X164274279Y-120657824I-29J-1000000D01*
G01*
X235680699Y-98559854D02*
G75*
G02*
X234680670Y-99559825I-1000000J29D01*
G01*
X238119130Y-83559915D02*
X250119136Y-83560258D01*
X239635429Y-45959937D02*
G75*
G02*
X240501470Y-45459962I866012J-500026D01*
G01*
X260939452Y-46460548D02*
G75*
G02*
X261939424Y-47460576I-28J-1000000D01*
G01*
X-14207108Y-104602712D02*
G75*
G02*
X-13207079Y-103602741I1000000J-29D01*
G01*
X261939052Y-60460583D02*
G75*
G02*
X260939024Y-61460555I-1000000J28D01*
G01*
X239635429Y-45959938D02*
G75*
G02*
X238769389Y-46459913I-866011J500025D01*
G01*
X7230960Y-102603325D02*
G75*
G02*
X8096971Y-103103349I-28J-1000000D01*
G01*
X238063040Y-60459900D02*
G75*
G02*
X239063069Y-59459929I1000000J-29D01*
G01*
X260939024Y-61460555D02*
X255939021Y-61460412D01*
X16668908Y-104603595D02*
X16668537Y-117603602D01*
X8668560Y-116603373D02*
G75*
G02*
X9668533Y-117603402I-28J-1000001D01*
G01*
X259556713Y-98560536D02*
G75*
G02*
X258556683Y-99560508I-1000001J29D01*
G01*
X258556683Y-99560508D02*
X253556680Y-99560365D01*
X237253090Y-84059891D02*
G75*
G02*
X236387049Y-84559866I-866012J500026D01*
G01*
X254233499Y-46460355D02*
X260939452Y-46460547D01*
X253939077Y-59460353D02*
G75*
G02*
X254939049Y-60460383I-29J-1000001D01*
G01*
X238063040Y-60459900D02*
G75*
G02*
X237063011Y-61459873I-1000001J28D01*
G01*
X57237237Y-102604755D02*
G75*
G02*
X58237209Y-103604783I-28J-1000000D01*
G01*
X44237202Y-103604382D02*
G75*
G02*
X45237231Y-102604411I1000000J-29D01*
G01*
X44236859Y-115604389D02*
X44237202Y-103604383D01*
X57236837Y-116604762D02*
X45236831Y-116604418D01*
X58237209Y-103604783D02*
X58236866Y-115604790D01*
X111912411Y-97556315D02*
G75*
G02*
X110912439Y-96556285I29J1000001D01*
G01*
X124912446Y-96556685D02*
G75*
G02*
X123912418Y-97556657I-1000000J28D01*
G01*
X15668507Y-118603574D02*
X10668505Y-118603431D01*
X259557084Y-85560529D02*
X259556712Y-98560536D01*
X228680696Y-98559653D02*
X228681067Y-85559646D01*
X232063437Y-46459722D02*
X238769389Y-46459913D01*
X250119136Y-83560258D02*
G75*
G02*
X250985147Y-84060283I-29J-1000000D01*
G01*
X124912790Y-84556679D02*
X124912447Y-96556685D01*
X231063036Y-60459701D02*
X231063408Y-47459694D01*
X45237231Y-102604411D02*
X57237237Y-102604754D01*
X234680670Y-99559825D02*
X229680668Y-99559682D01*
X-5635087Y-103102956D02*
G75*
G02*
X-4769046Y-102602981I866012J-500026D01*
G01*
X232063009Y-61459730D02*
G75*
G02*
X231063036Y-60459701I28J1000001D01*
G01*
X255939021Y-61460413D02*
G75*
G02*
X254939049Y-60460383I29J1000001D01*
G01*
X45236830Y-116604418D02*
G75*
G02*
X44236859Y-115604389I29J1000000D01*
G01*
X237253090Y-84059890D02*
G75*
G02*
X238119130Y-83559915I866011J-500025D01*
G01*
X228681067Y-85559647D02*
G75*
G02*
X229681096Y-84559674I1000001J-28D01*
G01*
X58236867Y-115604790D02*
G75*
G02*
X57236837Y-116604762I-1000001J29D01*
G01*
X251556737Y-97560307D02*
G75*
G02*
X252556708Y-98560336I-29J-1000000D01*
G01*
X251851159Y-84560308D02*
G75*
G02*
X250985147Y-84060283I28J1000001D01*
G01*
X258557112Y-84560499D02*
G75*
G02*
X259557084Y-85560529I-29J-1000001D01*
G01*
X251556737Y-97560306D02*
X236680728Y-97559881D01*
X254233498Y-46460354D02*
G75*
G02*
X253367488Y-45960330I29J999999D01*
G01*
X252501476Y-45460305D02*
G75*
G02*
X253367488Y-45960330I-28J-1000001D01*
G01*
X237063011Y-61459873D02*
X232063008Y-61459730D01*
X110912783Y-84556279D02*
G75*
G02*
X111912811Y-83556307I1000000J-28D01*
G01*
X251851158Y-84560307D02*
X258557112Y-84560500D01*
X261939424Y-47460576D02*
X261939053Y-60460583D01*
X240501470Y-45459962D02*
X252501476Y-45460306D01*
X231063408Y-47459693D02*
G75*
G02*
X232063437Y-46459722I1000000J-29D01*
G01*
X-13207508Y-118602748D02*
G75*
G02*
X-14207480Y-117602720I28J1000000D01*
G01*
X253939077Y-59460354D02*
X239063069Y-59459929D01*
X8668561Y-116603373D02*
X-6207447Y-116602948D01*
X110912439Y-96556285D02*
X110912782Y-84556279D01*
X229681096Y-84559674D02*
X236387049Y-84559866D01*
X123912418Y-97556657D02*
X111912411Y-97556314D01*
X123912818Y-83556649D02*
G75*
G02*
X124912790Y-84556679I-29J-1000001D01*
G01*
X253556681Y-99560365D02*
G75*
G02*
X252556708Y-98560336I28J1000001D01*
G01*
X111912811Y-83556307D02*
X123912818Y-83556650D01*
X-7207476Y-117602919D02*
G75*
G02*
X-8207505Y-118602892I-1000001J28D01*
G01*
X235680699Y-98559854D02*
G75*
G02*
X236680728Y-97559881I1000001J-28D01*
G01*
X104862407Y-97556113D02*
X92862401Y-97555770D01*
X92862401Y-97555769D02*
G75*
G02*
X91862429Y-96555741I28J1000000D01*
G01*
X91862429Y-96555741D02*
X91862772Y-84555734D01*
X104862807Y-83556105D02*
G75*
G02*
X105862780Y-84556134I-28J-1000001D01*
G01*
X105862437Y-96556141D02*
G75*
G02*
X104862407Y-97556113I-1000001J29D01*
G01*
X91862772Y-84555735D02*
G75*
G02*
X92862801Y-83555762I1000001J-28D01*
G01*
X105862780Y-84556134D02*
X105862436Y-96556141D01*
X92862801Y-83555762D02*
X104862808Y-83556105D01*
X58268000Y-119654793D02*
X63268003Y-119654936D01*
X64267975Y-120654965D02*
X64267603Y-133654972D01*
X63267574Y-134654944D02*
X58267572Y-134654801D01*
X57267600Y-133654772D02*
X57267971Y-120654765D01*
X63268004Y-119654936D02*
G75*
G02*
X64267975Y-120654965I-29J-1000000D01*
G01*
X57267972Y-120654765D02*
G75*
G02*
X58268000Y-119654793I1000000J-28D01*
G01*
X64267604Y-133654972D02*
G75*
G02*
X63267574Y-134654944I-1000001J29D01*
G01*
X58267572Y-134654800D02*
G75*
G02*
X57267600Y-133654772I28J1000000D01*
G01*
M02*
