0
SECTION
2
HEADER
9
$INSUNITS
70
4
9
$ACADVER
1
AC1014
9
$HANDSEED
5
FFFF
0
ENDSEC
0
SECTION
2
TABLES
0
TABLE
2
VPORT
5
8
100
AcDbSymbolTable
0
ENDTAB
0
TABLE
2
LTYPE
5
5
100
AcDbSymbolTable
0
LTYPE
5
14
100
AcDbSymbolTableRecord
100
AcDbLinetypeTableRecord
2
BYBLOCK
70
0
0
LTYPE
5
15
100
AcDbSymbolTableRecord
100
AcDbLinetypeTableRecord
2
BYLAYER
70
0
0
ENDTAB
0
TABLE
2
LAYER
5
2
100
AcDbSymbolTable
70
2
0
LAYER
5
50
100
AcDbSymbolTableRecord
100
AcDbLayerTableRecord
2
0
70
0
6
CONTINUOUS
0
ENDTAB
0
TABLE
2
STYLE
5
3
100
AcDbSymbolTable
70
1
0
STYLE
5
11
100
AcDbSymbolTableRecord
100
AcDbTextStyleTableRecord
2
STANDARD
70
0
0
ENDTAB
0
TABLE
2
VIEW
5
6
100
AcDbSymbolTable
70
0
0
ENDTAB
0
TABLE
2
UCS
5
7
100
AcDbSymbolTable
70
0
0
ENDTAB
0
TABLE
2
APPID
5
9
100
AcDbSymbolTable
70
2
0
APPID
5
12
100
AcDbSymbolTableRecord
100
AcDbRegAppTableRecord
2
ACAD
70
0
0
ENDTAB
0
TABLE
2
DIMSTYLE
5
A
100
AcDbSymbolTable
70
1
0
ENDTAB
0
TABLE
2
BLOCK_RECORD
5
1
100
AcDbSymbolTable
70
1
0
BLOCK_RECORD
5
1F
100
AcDbSymbolTableRecord
100
AcDbBlockTableRecord
2
*MODEL_SPACE
0
BLOCK_RECORD
5
1B
100
AcDbSymbolTableRecord
100
AcDbBlockTableRecord
2
*PAPER_SPACE
0
ENDTAB
0
ENDSEC
0
SECTION
2
BLOCKS
0
BLOCK
5
20
100
AcDbEntity
100
AcDbBlockBegin
2
*MODEL_SPACE
0
ENDBLK
5
21
100
AcDbEntity
100
AcDbBlockEnd
0
BLOCK
5
1C
100
AcDbEntity
100
AcDbBlockBegin
2
*PAPER_SPACE
0
ENDBLK
5
1D
100
AcDbEntity
100
AcDbBlockEnd
0
ENDSEC
0
SECTION
2
ENTITIES
0
LWPOLYLINE
5
100
100
AcDbEntity
8
0
100
AcDbPolyline
90
32
70
1
43
0.0
10
94.687560083239447
20
-130.80164139662764
10
94.687560083239489
20
-131.55110404866554
42
-0.4142135623730106
10
94.441026313028132
20
-131.79763781887686
10
92.468756151337445
20
-131.79763781887686
42
0.40320514866982959
10
92.222222381126102
20
-132.05403293049216
10
92.222222381126087
20
-139.09503751117768
42
0.40320541537829818
10
92.468756151337374
20
-139.35143285790585
10
98.208062491138705
20
-139.35143285790585
42
0.4032054153782586
10
98.454596261350019
20
-139.09503751117771
10
98.454596261349991
20
-132.01736050168472
42
0.41421356237299095
10
98.254596261350059
20
-131.81736050168473
10
97.468461180504704
20
-131.81736050168473
42
0.40320514866985119
10
97.221927410293318
20
-132.07375561330005
10
97.221927410293304
20
-137.84264550708721
42
-0.41421383095469244
10
96.965532298678056
20
-138.09904085381544
10
93.711286578910972
20
-138.09904085381544
42
-0.41421356237341977
10
93.454891702408602
20
-137.84264550708724
10
93.454891702408602
20
-133.3261473822775
42
-0.42621835455058688
10
93.711287049136786
20
-133.07961361206623
10
95.683557210827516
20
-133.07961361206617
42
0.41421356237309503
10
95.939952322442807
20
-132.82321850045091
10
95.939952322442821
20
-130.85094833876019
42
-0.40320514866986901
10
96.186486092654206
20
-130.59455322714496
10
98.254596261350002
20
-130.59455322714493
42
0.41421356237304302
10
98.454596261350019
20
-130.39455322714497
10
98.454596261350019
20
-129.55911120416698
42
0.41421356237313722
10
98.208062491138705
20
-129.3125774339556
10
89.924528188218389
20
-129.3125774339556
42
0.40320541537829968
10
89.668132841490191
20
-129.55911120416692
10
89.668132841490191
20
-130.29871251480097
42
0.4032054153783593
10
89.924528188218389
20
-130.5452462850123
10
94.441026313028132
20
-130.54524628501233
42
-0.40320514866986906
0
LWPOLYLINE
5
101
100
AcDbEntity
8
0
100
AcDbPolyline
90
16
70
1
43
0.0
10
92.764596863681334
20
-193.09579476397772
10
92.764596863681362
20
-190.99532598847102
42
0.41421301681716222
10
92.606815401218356
20
-190.83754452600812
10
90.496486459872585
20
-190.83754452600814
42
0.41421301681742601
10
90.338704997409636
20
-190.99532598847111
10
90.338704997409565
20
-193.09579476397758
42
0.39757607994933758
10
90.496486459872528
20
-193.26343592205404
10
90.97969242377836
20
-193.26343592205404
42
0.38285313671925109
10
91.147335462758164
20
-193.09579476397758
10
91.147335462758207
20
-191.80395645381978
42
-0.41421301681719519
10
91.305116925221199
20
-191.64617499135684
10
91.798184465643885
20
-191.64617499135684
42
-0.41421301681726114
10
91.955965928106863
20
-191.80395645381975
10
91.955965928106792
20
-193.09579476397758
42
0.38285313671913113
10
92.123608967086724
20
-193.2634359220541
10
92.606815401218356
20
-193.26343592205404
42
0.39757607994921118
0
LWPOLYLINE
5
102
100
AcDbEntity
8
0
100
AcDbPolyline
90
32
70
1
43
0.0
10
92.764596863681405
20
-175.66092623368718
10
92.764596863681348
20
-176.87387193171017
42
-0.39757933353419733
10
92.596953824701501
20
-177.03165339417322
10
91.305116925221213
20
-177.03165339417322
42
0.39757607994939514
10
91.147335462758221
20
-177.1992945522496
10
91.147335462758178
20
-180.15769979478569
42
0.41421301681716222
10
91.305116925221199
20
-180.31548125724873
10
93.405584760276014
20
-180.31548125724868
42
0.39757933353416514
10
93.573227799255875
20
-180.15769979478574
10
93.573227799255847
20
-176.43997008858184
42
-0.39757607994936445
10
93.731009261718867
20
-176.27232893050549
10
94.214215225624656
20
-176.27232893050541
42
-0.38285890779631526
10
94.381858264604489
20
-176.4399738503887
10
94.381858264604517
20
-180.99591687058845
42
-0.39757933353419062
10
94.214215225624656
20
-181.1536983330513
10
90.496486459872528
20
-181.15369833305135
42
-0.41421301681712924
10
90.33870499740955
20
-180.99591687058845
10
90.33870499740955
20
-176.46955669903579
42
-0.39757607994942584
10
90.496486459872557
20
-176.30191554095941
10
91.788322889127002
20
-176.30191554095944
42
0.3975793335342605
10
91.955965928106878
20
-176.14413407849639
10
91.955965928106863
20
-175.66092623368723
42
0.33397659637543459
10
91.837629831259648
20
-175.4834216181905
10
88.879224588723545
20
-175.48342161819045
42
-0.39757933353395231
10
88.711581549743727
20
-175.32564015572757
10
88.711581549743698
20
-174.84243231091835
42
-0.38285313671912025
10
88.879224588723559
20
-174.67479115284189
10
94.214215225624656
20
-174.67479115284186
42
-0.39847372071909437
10
94.38185826460446
20
-174.85229576833859
10
94.381858264604517
20
-175.33550361314781
42
-0.39757933353419722
10
94.214215225624699
20
-175.49328507561086
10
92.922378326144354
20
-175.49328507561083
42
0.39757607994900374
0
LWPOLYLINE
5
103
100
AcDbEntity
8
0
100
AcDbPolyline
90
8
70
1
43
0.0
10
89.914666461229288
20
-132.95141588227494
10
90.673990473480202
20
-132.95141588227494
42
0.41421356237309503
10
90.920524243691517
20
-132.70488211206359
10
90.920524243691546
20
-131.9455580998127
42
0.41421356237309503
10
90.673990473480202
20
-131.6990243296014
10
89.914666461229288
20
-131.69902432960134
42
0.41421356237309503
10
89.668132691017917
20
-131.9455580998127
10
89.668132691017931
20
-132.70488211206359
42
0.41421356237309503
0
LWPOLYLINE
5
104
100
AcDbEntity
8
0
100
AcDbPolyline
90
20
70
1
43
0.0
10
92.764596863681334
20
-188.24401197188567
10
92.764596863681348
20
-183.71764803852645
42
0.39757607994921479
10
92.606815401218356
20
-183.5500068804501
10
90.506347095937684
20
-183.55000688045004
42
0.38285313671889731
10
90.338704056957823
20
-183.71764803852642
10
90.338704056957823
20
-184.20085588333575
42
0.39757933353395242
10
90.506347095937684
20
-184.35863734579863
10
91.798184465643843
20
-184.35863734579868
42
-0.41522770259259745
10
91.955965928106863
20
-184.53614196129536
10
91.955965928106863
20
-187.44524120215058
42
-0.39757607994942584
10
91.798184465643843
20
-187.61288236022696
10
91.314978501738068
20
-187.61288236022696
42
-0.38285313671903276
10
91.147335462758207
20
-187.44524120215058
10
91.147335462758221
20
-185.33491273103061
42
0.39757607994931049
10
90.989554000295243
20
-185.16727157295409
10
90.506348036389412
20
-185.16727157295418
42
0.38285313671884003
10
90.33870499740965
20
-185.33491273103064
10
90.33870499740955
20
-188.24401197188567
42
0.38285313671904209
10
90.506348036389412
20
-188.41165312996219
10
92.60681540121837
20
-188.41165312996219
42
0.39757607994939892
0
LWPOLYLINE
5
105
100
AcDbEntity
8
0
100
AcDbPolyline
90
16
70
1
43
0.0
10
88.415740837399781
20
-129.55911120416692
42
0.41421356237303175
10
88.169207067188452
20
-129.31257743395562
10
87.362328804800939
20
-129.3125774339556
42
0.41435885936464301
10
87.162328829407443
20
-129.51267664384653
10
87.163349773761055
20
-131.5708267314734
42
-0.41421356237315837
10
86.916816003549741
20
-131.81736050168473
10
86.14763090381679
20
-131.81736050168473
42
-0.41421356237305285
10
85.901097133605475
20
-131.57082673147346
10
85.901097133605461
20
-129.59855656978272
42
0.49223962221827666
10
85.634840210360437
20
-129.31257743395562
10
84.885377323209511
20
-129.3125774339556
42
0.40277502698528489
10
84.648705129515065
20
-129.55911120416692
10
84.648705129515065
20
-132.82321826533797
42
0.40320514866988844
10
84.895238899726365
20
-133.07961337695326
10
88.169207067188452
20
-133.07961337695326
42
0.40320514866977142
10
88.415740837399824
20
-132.82321826533797
0
LWPOLYLINE
5
106
100
AcDbEntity
8
0
100
AcDbPolyline
90
20
70
1
43
0.0
10
90.338704997409565
20
-201.46807949374283
42
-0.41422000002716763
10
90.496486459872528
20
-201.31029426947308
10
92.596953824701501
20
-201.31029426947308
42
-0.3975854580416584
10
92.764596863681348
20
-201.46807949374283
10
92.764596863681334
20
-201.96114703416549
42
-0.39758545804171797
10
92.596953824701501
20
-202.11893225843525
10
91.305116925221213
20
-202.11893225843542
42
0.4332293331655887
10
91.147335462758235
20
-202.28657341651171
10
91.147335462758207
20
-202.80923132919528
42
0.41422000002729958
10
91.305116925221171
20
-202.96701655346507
10
93.405584760275957
20
-202.96701655346496
42
0.39758545804186435
10
93.573227799255804
20
-202.80923132919526
10
93.573227799255832
20
-201.50753332342393
42
-0.41422000002713466
10
93.731009261718853
20
-201.34974809915408
10
94.214215225624656
20
-201.34974809915408
42
-0.39757320919100481
10
94.381858264604489
20
-201.50752579981031
10
94.381858264604489
20
-203.57840796486286
42
-0.3975854580419203
10
94.214215225624699
20
-203.73619318913256
10
90.496486459872557
20
-203.73619318913262
42
-0.41422000002713466
10
90.338704997409536
20
-203.57840796486286
0
LWPOLYLINE
5
107
100
AcDbEntity
8
0
100
AcDbPolyline
90
24
70
1
43
0.0
10
91.955965928106821
20
-200.38333240953563
42
0.41422000002713466
10
92.113747390569841
20
-200.54111763380547
10
94.214215225624699
20
-200.54111763380547
42
0.39758545804142181
10
94.381858264604531
20
-200.38333240953563
10
94.381858264604546
20
-194.22985161167253
42
0.39758545804175549
10
94.214215225624699
20
-194.07206638740263
10
93.731009261718867
20
-194.07206638740269
42
0.41422000002706871
10
93.573227799255847
20
-194.22985161167247
10
93.573227799255832
20
-199.5747019441871
42
-0.39758545804151046
10
93.405584760276014
20
-199.73248716845688
10
92.922378796370168
20
-199.73248716845686
42
-0.41422000002706871
10
92.764597333907219
20
-199.5747019441871
10
92.764597333907247
20
-194.22985161167253
42
0.39758545804169426
10
92.596954294927372
20
-194.07206638740269
10
90.496486459872528
20
-194.07206638740274
42
0.41422000002723358
10
90.33870499740955
20
-194.22985161167253
10
90.338704997409579
20
-200.38333240953563
42
0.41422000002720061
10
90.496486459872557
20
-200.54111763380547
10
90.97969242377836
20
-200.54111763380547
42
0.39758545804184048
10
91.147335462758178
20
-200.38333240953563
10
91.147335462758178
20
-195.03848207702117
42
-0.41422000002716763
10
91.305116925221213
20
-194.88069685275138
10
91.788322889127045
20
-194.88069685275133
42
-0.39758545804175194
10
91.955965928106863
20
-195.0384820770212
0
LWPOLYLINE
5
108
100
AcDbEntity
8
0
100
AcDbPolyline
90
12
70
1
43
0.0
10
93.691563896103091
20
-185.17712750676085
42
-0.38285313671890198
10
93.523920857123244
20
-185.00948634868439
10
93.523920857123244
20
-182.90901757317781
42
0.36614073298393779
10
93.415445866566984
20
-182.72165326206763
10
90.506348036389369
20
-182.72165326206772
42
-0.39757933353390135
10
90.33870499740955
20
-182.56387179960467
10
90.338704997409565
20
-182.10038710782925
42
-0.38285169395532598
10
90.506347095937713
20
-181.93274594975281
10
94.224076802141511
20
-181.93274594975281
42
-0.39757607994936445
10
94.381858264604531
20
-182.10038710782919
10
94.381858264604489
20
-185.00948634868439
42
-0.3975760799494259
10
94.224076802141511
20
-185.17712750676083
0
LWPOLYLINE
5
109
100
AcDbEntity
8
0
100
AcDbPolyline
90
8
70
1
43
0.0
10
100.59707087526279
20
-212.08249389280567
42
0.41421356237307944
10
99.597098923708927
20
-211.08246476517681
10
86.597091909021231
20
-211.08209312068965
42
0.41421356237308982
10
85.597062781392282
20
-212.08206507224361
10
85.596919841204937
20
-217.08206777020052
42
0.41421356237311063
10
86.596891792758925
20
-218.08209689782939
10
99.596898807446607
20
-218.08246854231641
42
0.4142135623730846
10
100.59692793507551
20
-217.08249659076247
0
LWPOLYLINE
5
110
100
AcDbEntity
8
0
100
AcDbPolyline
90
8
70
1
43
0.0
10
85.599778823627332
20
-117.07576380769166
10
85.599921763814734
20
-112.07576110973588
42
-0.41421356237340201
10
86.599950891443584
20
-111.07578915818102
10
99.59995790613128
20
-111.07616080266817
42
-0.41421356237311063
10
100.59992985768524
20
-112.07618993029705
10
100.59978691749774
20
-117.07619262825374
42
-0.41421356237308982
10
99.599757789868946
20
-118.07616457980764
10
86.599750775181278
20
-118.07579293532058
42
-0.41421356237311063
0
LINE
5
111
100
AcDbEntity
8
0
100
AcDbLine
10
146.92050250743191
20
-314.45219860469189
30
1.0325251764697896e-09
11
131.50789405844483
21
-314.45174730833571
31
1.0325207355776911e-09
0
LINE
5
112
100
AcDbEntity
8
0
100
AcDbLine
10
129.77620268459472
20
-313.45231893219648
30
6.0823790448694126e-10
11
124.77583649929615
21
-313.45231893219659
31
-4.4408920985006262e-15
0
ARC
5
113
100
AcDbEntity
8
0
100
AcDbCircle
10
116.64598474975216
20
-72.945062100836296
30
3.7112615889531363e-10
40
0.99999999999999634
210
9.6224933998405767e-17
220
3.2862601514816944e-12
230
1
100
AcDbArc
50
269.99832232314395
51
359.99832232327111
0
LWPOLYLINE
5
114
100
AcDbEntity
8
0
100
AcDbPolyline
90
8
70
1
43
0.0
10
100.61686830001692
20
-32.632255979474039
10
100.61686830001698
20
-31.633072877655728
42
-0.41421356237309243
10
101.11686830001696
20
-31.133072877655714
10
167.56525306327694
20
-31.133072877655703
42
-0.41421356237310542
10
168.065253063277
20
-31.633072877655728
10
168.06525306327697
20
-32.634155607362615
42
-0.41422193563559556
10
167.56523876926599
20
-33.1341556071581
10
101.11685400600594
20
-33.132255979269935
42
-0.41420518916006915
0
ARC
5
115
100
AcDbEntity
8
0
100
AcDbCircle
10
116.65139758008905
20
-61.039121228904676
30
2.0040857862113626e-10
40
1.0000001903117963
210
0
220
0
230
1
100
AcDbArc
50
354.2295264271084
51
359.99836202730484
0
LWPOLYLINE
5
116
100
AcDbEntity
8
0
100
AcDbPolyline
90
8
70
1
43
0.0
10
81.088892557191272
20
-224.18337215334375
10
80.08300111758679
20
-224.18337215334333
42
-0.41421356237288692
10
79.583001117587145
20
-223.68337215334324
10
79.58300111758706
20
-93.929778113561767
42
-0.41421356237306384
10
80.08300111758706
20
-93.429778113561767
10
81.08889255719069
20
-93.429778113561767
42
-0.41421356237307422
10
81.58889255719069
20
-93.929778113561738
10
81.588892557190761
20
-223.68337215334373
42
-0.4142135623732095
0
LWPOLYLINE
5
117
100
AcDbEntity
8
0
100
AcDbPolyline
90
8
70
1
43
0.0
10
81.583118618068809
20
-88.929869649709374
42
-0.41422626478884428
10
81.083118618539032
20
-89.429891333992074
10
80.081210431817865
20
-89.42989133399206
42
-0.41421356237311585
10
79.581210431817851
20
-88.929891333992117
10
79.581210431817851
20
-49.430575894560178
42
-0.41421356237313145
10
80.081210431817865
20
-48.930575894560178
10
81.081405589892114
20
-48.930575894560164
42
-0.41420086007144258
10
81.581405589421919
20
-49.430554210277506
0
ARC
5
118
100
AcDbEntity
8
0
100
AcDbCircle
10
116.65140080214582
20
-60.945303731407527
30
3.3984995342144318e-10
40
1.0000000000000007
210
-2.3225865665667298e-12
220
6.6398155957916056e-17
230
1
100
AcDbArc
50
-0.0016379726951299411
51
90.000000000001634
0
LWPOLYLINE
5
119
100
AcDbEntity
8
0
100
AcDbPolyline
90
8
70
1
43
0.0
10
101.11686830001901
20
-340.88591564716836
42
-0.41421356237295975
10
100.61686830001901
20
-340.38591564716842
10
100.61686830001901
20
-339.3823482065448
42
-0.4142219356356398
10
101.11688259403003
20
-338.88234820674887
10
167.56526735728994
20
-338.88424783463756
42
-0.41420518916018878
10
168.06525306327893
20
-339.38424783443315
10
168.06525306327893
20
-340.38591564716825
42
-0.41421356237307422
10
167.5652530632789
20
-340.88591564716836
0
LINE
5
120
100
AcDbEntity
8
0
100
AcDbLine
10
117.65140080173717
20
-60.945332319424111
30
6.1310956311899634e-10
11
117.65139811968048
21
-61.039149816942135
31
2.0043078308162881e-10
0
ARC
5
121
100
AcDbEntity
8
0
100
AcDbCircle
10
124.77583649929615
20
-312.45231893219659
30
3.2222674904932435e-10
40
0.99999999999999645
210
-2.3181456754173349e-12
220
0
230
1
100
AcDbArc
50
180
51
270
0
LINE
5
122
100
AcDbEntity
8
0
100
AcDbLine
10
148.65226106291396
20
-298.45285700645832
30
0
11
153.65226106077048
21
-298.45300341138307
31
-4.4408920985006254e-15
0
LINE
5
123
100
AcDbEntity
8
0
100
AcDbLine
10
103.65134945580336
20
-62.476750360349911
30
2.0513812870603945e-10
11
103.65139323765069
21
-60.945275143385501
31
2.0011103885053672e-10
0
ARC
5
124
100
AcDbEntity
8
0
100
AcDbCircle
10
148.652231781929
20
-299.4528570060296
30
0
40
0.99999999999999634
210
0
220
-0
230
1
100
AcDbArc
50
89.998322323141508
51
179.98520727266208
0
ARC
5
125
100
AcDbEntity
8
0
100
AcDbCircle
10
104.64597797671244
20
-72.94471072881845
30
6.1083582636456413e-10
40
0.99999999999999634
210
0
220
0
230
1
100
AcDbArc
50
179.99832232327111
51
269.9983223231423
0
LINE
5
126
100
AcDbEntity
8
0
100
AcDbLine
10
137.68966896339359
20
-300.45192153303003
30
9.865486205740126e-10
11
140.73931634482992
21
-300.4520108297092
31
9.8655306146611131e-10
0
LINE
5
127
100
AcDbEntity
8
0
100
AcDbLine
10
117.64633042384061
20
-61.139664836598442
30
2.0040857862113626e-10
11
117.64598474932347
21
-72.945091381818997
31
6.1083138547245839e-10
0
LINE
5
128
100
AcDbEntity
8
0
100
AcDbLine
10
124.7758364992962
20
-298.4521432531692
30
6.1043614607569907e-10
11
129.77622727360972
21
-298.45214325316925
31
0
0
ARC
5
129
100
AcDbEntity
8
0
100
AcDbCircle
10
129.77623179013457
20
-299.45230429815774
30
-4.4408920985006254e-15
40
0.99999999999999734
210
0
220
0
230
1
100
AcDbArc
50
-0.0010411866754758158
51
1.6110609100697055
0
LINE
5
130
100
AcDbEntity
8
0
100
AcDbLine
10
104.65139323724205
20
-59.945303731407535
30
0
11
116.65140080214579
21
-59.945303731407535
31
6.1078691015332455e-10
0
LINE
5
131
100
AcDbEntity
8
0
100
AcDbLine
10
131.77623178980434
20
-300.45234064243988
30
6.1804783513252914e-10
11
137.68966896339373
21
-300.45234064243994
31
-4.4408920985006262e-15
0
ARC
5
132
100
AcDbEntity
8
0
100
AcDbCircle
10
131.50792333942977
20
-313.45174730876437
30
6.6320682014028603e-10
40
1.0000000000000147
210
-1.0420471096234725e-12
220
-6.0208484853360352e-13
230
1
100
AcDbArc
50
210.01891095310322
51
269.9983223231431
0
LINE
5
133
100
AcDbEntity
8
0
100
AcDbLine
10
116.64595546876724
20
-73.945062100407611
30
6.1411764562535619e-10
11
104.6459486957275
21
-73.944710728389751
31
6.1083582636456413e-10
0
ARC
5
134
100
AcDbEntity
8
0
100
AcDbCircle
10
124.77583649929615
20
-299.4521432531692
30
6.1139981966107371e-10
40
1.0000000000000142
210
5.1354844929886405e-26
220
9.6367358537462214e-13
230
1
100
AcDbArc
50
89.999999999996746
51
180
0
ARC
5
135
100
AcDbEntity
8
0
100
AcDbCircle
10
102.64602096008373
20
-71.476719515757509
30
2.3468338383736409e-10
40
0.99999999999999634
210
0
220
0
230
1
100
AcDbArc
50
-0.0016776767288994398
51
0.86284021009511058
0
LINE
5
136
100
AcDbEntity
8
0
100
AcDbLine
10
103.6459075694236
20
-71.46166068237558
30
2.3468338383736409e-10
11
103.64616768029884
21
-62.578391367673881
31
2.0546675472132847e-10
0
ARC
5
137
100
AcDbEntity
8
0
100
AcDbCircle
10
129.77620268459472
20
-314.45231893219659
30
5.5762083202289083e-10
40
1.0000000000000075
210
1.0382019173369771e-12
220
5.9986313322521564e-13
230
1
100
AcDbArc
50
30.018910953098761
51
90
0
LINE
5
138
100
AcDbEntity
8
0
100
AcDbLine
10
103.64597797714113
20
-72.944681447835748
30
6.1083582636456413e-10
11
103.64602095965503
21
-71.47674879674021
31
2.3468338383736409e-10
0
ARC
5
139
100
AcDbEntity
8
0
100
AcDbCircle
10
129.77622727360972
20
-299.45214325316925
30
7.4811476112318978e-08
40
0.99999999999999711
210
6.111919725784349e-10
220
1.7091674944241148e-11
230
1
100
AcDbArc
50
1.6018300838949018
51
90
0
LINE
5
140
100
AcDbEntity
8
0
100
AcDbLine
10
140.73931634482994
20
-300.45234064243994
30
-4.4408920985006254e-15
11
146.65223184858684
21
-300.45234064243994
31
-4.4408920985006254e-15
0
ARC
5
141
100
AcDbEntity
8
0
100
AcDbCircle
10
146.65223184858684
20
-299.45234064243994
30
1.8374320211951283e-07
40
1.0000000000000142
210
-1.0863403525798245e-23
220
-6.1155525088444637e-10
230
1
100
AcDbArc
50
270
51
359.98520727261285
0
LINE
5
142
100
AcDbEntity
8
0
100
AcDbLine
10
123.77583649929616
20
-312.45231893219659
30
6.0915716915133089e-10
11
123.77583649929613
21
-299.4521432531692
31
6.1139981966107371e-10
0
CIRCLE
5
143
100
AcDbEntity
8
0
100
AcDbCircle
10
75.589128410195414
20
-305.50661768072064
30
6.1078697655148062e-10
40
1.7999999999999974
210
0
220
0
230
1
0
ARC
5
144
100
AcDbEntity
8
0
100
AcDbCircle
10
102.65134891621204
20
-62.476721772312452
30
2.051336878139409e-10
40
1.000000539999943
210
-3.3134085131735759e-13
220
3.3862741130612501e-14
230
1
100
AcDbArc
50
354.16468184222236
51
359.99836202708235
0
ARC
5
145
100
AcDbEntity
8
0
100
AcDbCircle
10
131.77623178980434
20
-299.45234064243994
30
-7.9972092541531522e-08
40
0.99999999999999734
210
-6.1149307829421119e-10
220
1.1112138474234389e-14
230
1
100
AcDbArc
50
179.99895881262444
51
270
0
ARC
5
146
100
AcDbEntity
8
0
100
AcDbCircle
10
146.92053178841684
20
-313.4521986051206
30
-1.3132382526042006e-07
40
0.99999999999996081
210
1.2324853648337124e-14
220
4.2091663469961281e-10
230
1
100
AcDbArc
50
269.9983223231431
51
329.9782177129922
0
ARC
5
147
100
AcDbEntity
8
0
100
AcDbCircle
10
104.65139323724202
20
-60.945303731407527
30
-3.6613810824565589e-08
40
0.99999999999999645
210
1.0849756232138309e-23
220
6.1078697655148279e-10
230
1
100
AcDbArc
50
89.99999999999838
51
179.99836202730486
0
CIRCLE
5
148
100
AcDbEntity
8
0
100
AcDbCircle
10
134.34106068164704
20
-27.133072877655714
30
6.1077365387518512e-10
40
1.7999999999999974
210
0
220
0
230
1
0
ARC
5
149
100
AcDbEntity
8
0
100
AcDbCircle
10
153.65223177978547
20
-299.45300341095435
30
0
40
1.0000000000000673
210
0
220
0
230
1
100
AcDbArc
50
-0.0016776767288994398
51
89.998322323138254
0
ARC
5
150
100
AcDbEntity
8
0
100
AcDbCircle
10
148.65220229820025
20
-314.45285701114466
30
-1.9171335047716832e-07
40
0.99999999999999634
210
1.7909020643167762e-14
220
6.1162630489590259e-10
230
1
100
AcDbArc
50
89.998322323141508
51
149.97821771298732
0
CIRCLE
5
151
100
AcDbEntity
8
0
100
AcDbCircle
10
75.581210432226527
20
-70.442969025431609
30
6.1077809476728362e-10
40
1.7999999999999974
210
0
220
0
230
1
0
CIRCLE
5
152
100
AcDbEntity
8
0
100
AcDbCircle
10
75.582105774702455
20
-191.3847082072657
30
6.1077809476728362e-10
40
1.8000000000000065
210
0
220
0
230
1
0
ARC
5
153
100
AcDbEntity
8
0
100
AcDbCircle
10
153.65185112698126
20
-312.45300340492929
30
0
40
1.0000000000000318
210
0
220
0
230
1
100
AcDbArc
50
269.99832232314145
51
359.99832232327111
0
CIRCLE
5
154
100
AcDbEntity
8
0
100
AcDbCircle
10
134.34106068164905
20
-344.88591564716836
30
6.106537497885256e-10
40
1.8000000000000151
210
0
220
0
230
1
0
LINE
5
155
100
AcDbEntity
8
0
100
AcDbLine
10
153.6518218459963
20
-313.45300340450069
30
0
11
148.65223157918521
21
-313.45285701157337
31
3.3087224502121107e-23
0
LINE
5
156
100
AcDbEntity
8
0
100
AcDbLine
10
154.65223177935687
20
-299.45303269193704
30
0
11
154.6518511265526
21
-312.45303268591204
31
0
0
LWPOLYLINE
5
157
100
AcDbEntity
8
0
100
AcDbPolyline
90
24
70
1
43
0.0
10
90.338704997409494
20
-207.18766597209128
10
90.33870499740955
20
-207.67087005509379
42
0.41422000002726655
10
90.496486459872557
20
-207.82865527936355
10
94.214215225624699
20
-207.82865527936363
42
0.41422367783216146
10
94.381858264604531
20
-207.66100659767346
10
94.381858264604531
20
-204.7026013551374
42
0.3828531367190281
10
94.214215225624656
20
-204.53496019706108
10
93.731009261718867
20
-204.53496019706108
42
0.61818757724871498
10
93.523920857123244
20
-204.75191111862515
10
93.523920857123215
20
-206.85237613232485
42
-0.39758545804165663
10
93.356277818143411
20
-207.01016135659461
10
92.873071854237551
20
-207.01016135659458
42
-0.41422000002746445
10
92.715290391774573
20
-206.85237613232485
10
92.715290391774531
20
-204.75191111862503
42
0.38285313671902194
10
92.547647352794726
20
-204.58426996054871
10
90.496486459872528
20
-204.58426996054871
42
0.39757607994909927
10
90.338704997409536
20
-204.75191111862515
10
90.338704997409536
20
-205.24497865904789
42
0.41422000002736553
10
90.496486459872528
20
-205.40276388331765
10
91.788322889127002
20
-205.40276388331762
42
-0.38285313671906612
10
91.955965928106863
20
-205.57040504139408
10
91.955965928106863
20
-206.86223958974517
42
-0.39758545804168915
10
91.788322889127002
20
-207.02002481401493
10
90.496486459872528
20
-207.02002481401482
42
0.39757607994922184
0
LWPOLYLINE
5
158
100
AcDbEntity
8
0
100
AcDbPolyline
90
24
70
1
43
0.0
10
85.634840210360437
20
-139.35143285790585
42
0.40320541537837795
10
85.881373980571738
20
-139.09503751117768
10
85.881373980571738
20
-135.84079155629769
42
-0.41421409953644239
10
86.137769327299935
20
-135.58439620956943
10
86.887232214450862
20
-135.58439620956946
42
-0.40320541537845844
10
87.13376598466219
20
-135.84079155629769
10
87.13376598466219
20
-139.09503751117762
42
0.41421409953638144
10
87.390161331390345
20
-139.35143285790582
10
90.673990605143416
20
-139.35143285790588
42
0.40320541537845617
10
90.920524375354717
20
-139.09503751117768
10
90.920524375354717
20
-134.57853891614209
42
0.41421356237313722
10
90.673990605143416
20
-134.33200514593076
10
89.914666611701506
20
-134.33200514593074
42
0.41421356237309503
10
89.668132841490191
20
-134.57853891614209
10
89.668132841490191
20
-137.84264550708724
42
-0.41421409953638144
10
89.411737494761979
20
-138.09904085381547
10
88.66227460761111
20
-138.09904085381544
42
-0.40320541537845844
10
88.415740837399781
20
-137.84264550708721
10
88.415740837399724
20
-134.57853891614209
42
0.40320541537839721
10
88.159345490671583
20
-134.33200514593076
10
84.895238899726365
20
-134.33200514593074
42
0.41421356237307394
10
84.648705129515093
20
-134.57853891614209
10
84.648705129515079
20
-139.09503751117762
42
0.40320541537835858
10
84.895238899726365
20
-139.35143285790585
0
LWPOLYLINE
5
159
100
AcDbEntity
8
0
100
AcDbPolyline
90
16
70
1
43
0.0
10
94.224076802141511
20
-193.31273816192811
10
93.691563896103091
20
-193.31273816192817
42
-0.382853136719224
10
93.523920857123244
20
-193.14509700385173
10
93.523920857123244
20
-190.18669552312244
42
0.33805307244092514
10
93.415445866567026
20
-190.02891406065945
10
90.506347095937684
20
-190.02891406065947
42
-0.47227781634182264
10
90.289398055276962
20
-189.8612729025831
10
90.289398055276934
20
-189.37806505777374
42
-0.39757933353395414
10
90.45704109425678
20
-189.22028359531083
10
93.415446336792854
20
-189.22028359531083
42
0.39757607994933741
10
93.573227799255847
20
-189.0526424372344
10
93.573227799255832
20
-186.14354319637928
42
-0.39757933353419916
10
93.740870838235679
20
-185.98576173391623
10
94.224076802141511
20
-185.98576173391621
42
-0.4142130168170633
10
94.381858264604531
20
-186.1435431963792
10
94.381858264604475
20
-193.14509700385173
42
-0.39757607994921484
0
LWPOLYLINE
5
160
100
AcDbEntity
8
0
100
AcDbPolyline
90
8
70
1
43
0.0
10
141.7469208365217
20
-218.10867354158563
42
-0.41421356237309503
10
142.74694996415059
20
-217.10870159003176
10
154.74695643924684
20
-217.10904464648144
42
-0.414213562373069
10
155.74692839080075
20
-218.10907377411016
10
155.74658533435124
20
-230.1090802492067
42
-0.41421356237307422
10
154.74655620672229
20
-231.10905220076063
10
142.74654973162592
20
-231.10870914431081
42
-0.41421356237305862
10
141.7465777800721
20
-230.10868001668211
0
LWPOLYLINE
5
161
100
AcDbEntity
8
0
100
AcDbPolyline
90
8
70
1
43
0.0
10
174.79775557318709
20
-189.53460295740086
10
174.79741251673738
20
-201.53460943249729
42
-0.41421356237301177
10
173.79738338910869
20
-202.53458138405119
10
161.79737691401212
20
-202.53423832760134
42
-0.41421356237310542
10
160.7974049624583
20
-201.53420919997271
10
160.79774801890778
20
-189.53420272487637
42
-0.41421356237312623
10
161.7977771465367
20
-188.53423077332226
10
173.79778362163319
20
-188.53457382977211
42
-0.41421356237312623
0
LWPOLYLINE
5
162
100
AcDbEntity
8
0
100
AcDbPolyline
90
8
70
1
43
0.0
10
97.600746035458045
20
-83.469838730500101
10
85.600739560361703
20
-83.469495674050449
42
-0.41421356237313667
10
84.600767608807729
20
-82.469466546421643
10
84.601314891050109
20
-63.325706216618933
42
-0.41421356237311063
10
85.601344018678986
20
-62.325734265065044
10
97.601350493775385
20
-62.326077321514674
42
-0.41421356237306384
10
98.601322445329203
20
-63.326106449143531
10
98.600775163086865
20
-82.469866778945203
42
-0.41421356237338119
0
LWPOLYLINE
5
163
100
AcDbEntity
8
0
100
AcDbPolyline
90
8
70
1
43
0.0
10
123.69967091456495
20
-121.57060543670798
42
-0.41421356237311063
10
122.69969896301107
20
-120.57057630907923
10
122.70004201946072
20
-108.57056983398286
42
-0.41421356237309503
10
123.70007114708956
20
-107.57059788242901
10
135.70007762218592
20
-107.57094093887865
42
-0.41421356237310025
10
136.70004957373979
20
-108.57097006650744
10
136.69970651729014
20
-120.57097654160387
42
-0.41421356237305862
10
135.6996773896613
20
-121.57094849315772
0
LWPOLYLINE
5
164
100
AcDbEntity
8
0
100
AcDbPolyline
90
8
70
1
43
0.0
10
142.75198753370344
20
-40.89610650728914
10
154.75199400879984
20
-40.896449563738713
42
-0.41421356237308721
10
155.75196596035369
20
-41.896478691367562
10
155.75162290390404
20
-53.896485166464004
42
-0.41421356237308721
10
154.7515937762752
20
-54.896457118017885
10
142.75158730117883
20
-54.896114061568255
42
-0.41421356237309503
10
141.75161534962498
20
-53.896084933939399
10
141.75195840607472
20
-41.896078458842958
42
-0.41421356237308204
0
LWPOLYLINE
5
165
100
AcDbEntity
8
0
100
AcDbPolyline
90
8
70
1
43
0.0
10
174.80176833364743
20
-49.13452719874541
42
-0.41421356237311324
10
173.8017402060477
20
-50.134498150327353
10
161.80173373092285
20
-50.134156093878246
42
-0.41421356237308721
10
160.80176177936889
20
-49.134126966249383
10
160.80210483581857
20
-37.134120491153006
42
-0.41421356237306639
10
161.80213396344743
20
-36.134148539599117
10
173.8021404385438
20
-36.134491596048811
42
-0.41421356237307033
10
174.80211239009753
20
-37.134520723677618
0
LWPOLYLINE
5
166
100
AcDbEntity
8
0
100
AcDbPolyline
90
8
70
1
43
0.0
10
141.74855464286316
20
-160.95864270393929
42
-0.4142135623730846
10
142.74858377049196
20
-159.9586707523853
10
154.74859024558833
20
-159.95901380883498
42
-0.4142135623730846
10
155.74856219714218
20
-160.95904293646382
10
155.74821914069264
20
-172.95904941156024
42
-0.41421356237304818
10
154.74819001306375
20
-173.9590213631142
10
142.74818353796744
20
-173.95867830666444
42
-0.41421356237307944
10
141.74821158641353
20
-172.9586491790356
0
LWPOLYLINE
5
167
100
AcDbEntity
8
0
100
AcDbPolyline
90
8
70
1
43
0.0
10
116.64652742923056
20
-231.39546315166547
42
-0.41421356237305862
10
117.64649938078441
20
-232.39549227929416
10
117.64615632433477
20
-244.39549875439056
42
-0.41421356237307944
10
116.64612719670593
20
-245.39547070594438
10
104.64612072160955
20
-245.39512764949478
42
-0.41421356237307422
10
103.64614877005565
20
-244.39509852186589
10
103.6464918265053
20
-232.39509204676963
42
-0.41421356237307944
10
104.6465209541342
20
-231.39512009521567
0
LWPOLYLINE
5
168
100
AcDbEntity
8
0
100
AcDbPolyline
90
8
70
1
43
0.0
10
135.69749898120602
20
-197.77098961001957
10
123.6974925061096
20
-197.77064655357003
42
-0.41421356237307422
10
122.69752055455572
20
-196.77061742594111
10
122.69786361100546
20
-184.7706109508448
42
-0.4142135623730846
10
123.69789273863418
20
-183.7706389992909
10
135.69789921373061
20
-183.77098205574057
42
-0.41421356237310542
10
136.69787116528451
20
-184.7710111833693
10
136.69752810883492
20
-196.77101765846575
42
-0.41421356237304818
0
LWPOLYLINE
5
169
100
AcDbEntity
8
0
100
AcDbPolyline
90
13
70
1
43
0.0
10
103.64699051227332
20
-47.503012386209534
10
103.64699051227328
20
-39.22697509628189
42
0.05075242223488164
10
103.75716636237031
20
-39.057084778345079
42
-0.28131620779192268
10
104.64698615782379
20
-38.513453971820219
10
116.64699293086358
20
-38.513805343838079
42
-0.41421356237308204
10
117.64696364944989
20
-39.513834624394335
10
117.64671402001775
20
-48.039143197720719
10
117.65176976415206
20
-48.039143342254427
10
117.65167041163777
20
-51.514462975643518
42
-0.41420518916006915
10
116.65167041204641
20
-52.514434387621513
10
104.65166284714279
20
-52.514434387621492
42
-0.41422193563566062
10
103.65166284755141
20
-51.514405799599459
10
103.65177473144882
20
-47.60074233338878
42
0.024476386442376114
0
ARC
5
170
100
AcDbEntity
8
0
100
AcDbCircle
10
123.68944938694969
20
-292.02087606815172
30
0
40
1.0000000000000056
210
0
220
0
230
1
100
AcDbArc
50
185.92670372730768
51
269.99832232314145
0
ARC
5
171
100
AcDbEntity
8
0
100
AcDbCircle
10
121.68987160022986
20
-281.48889177077325
30
1.1747545778659778e-07
40
1.0000068290292901
210
9.2448432405423429e-10
220
-1.4389487609021569e-11
230
1
100
AcDbArc
50
359.10827007183752
51
359.99832232348837
0
LINE
5
172
100
AcDbEntity
8
0
100
AcDbLine
10
122.68949726772171
20
-290.38564416773761
30
9.5348617890067523e-10
11
122.68975731769191
21
-281.50445487202603
31
-4.4408920654649616e-15
0
ARC
5
173
100
AcDbEntity
8
0
100
AcDbCircle
10
135.6894493818055
20
-292.0212274399712
30
0
40
0.99999999999999634
210
0
220
0
230
1
100
AcDbArc
50
269.99832232313821
51
359.99832232327111
0
LINE
5
174
100
AcDbEntity
8
0
100
AcDbLine
10
135.68942010082048
20
-293.02122743954254
30
0
11
123.68942010596473
21
-293.02087606772307
31
0
0
LINE
5
175
100
AcDbEntity
8
0
100
AcDbLine
10
122.69479458617347
20
-292.12413219287475
30
0
11
122.69484133371293
21
-290.48891799549926
31
9.5382368670016149e-10
0
LINE
5
176
100
AcDbEntity
8
0
100
AcDbLine
10
174.065310239323
20
-338.88443365800669
30
1.1126566334951347e-09
11
175.79389261791408
21
-338.88448307475778
31
1.1127543331213019e-09
0
LWPOLYLINE
5
177
100
AcDbEntity
8
0
100
AcDbPolyline
90
8
70
1
43
0.0
10
80.089128410195428
20
-228.18383676997456
10
81.093100050736183
20
-228.18383676997456
42
-0.41421356237304302
10
81.593100050736197
20
-228.68383676997465
10
81.593100050736211
20
-322.18349734967683
42
-0.4142135623730534
10
81.093100050735387
20
-322.68349734967683
10
80.089128410195428
20
-322.68349734967683
42
-0.41421356237294937
10
79.589128410195485
20
-322.18349734967683
10
79.589128410195414
20
-228.68383676997456
42
-0.41421356237313667
0
ARC
5
178
100
AcDbEntity
8
0
100
AcDbCircle
10
174.06525306327697
20
-31.13434142889297
30
1.035216357081481e-10
40
1.9999999999999929
210
0
220
0
230
1
100
AcDbArc
50
180
51
269.99836202699265
0
ARC
5
179
100
AcDbEntity
8
0
100
AcDbCircle
10
175.80257623224003
20
-35.134391097160567
30
1.1585399306568434e-10
40
2.0000000000000013
210
0
220
0
230
1
100
AcDbArc
50
-0.0016379726951299411
51
89.998362026992652
0
ARC
5
180
100
AcDbEntity
8
0
100
AcDbCircle
10
170.06525306327703
20
-28.133072877655714
30
4.3077235330999281e-08
40
1.9999999999999929
210
2.4970248091449414e-10
220
-0
230
1
100
AcDbArc
50
0
51
90
0
ARC
5
181
100
AcDbEntity
8
0
100
AcDbCircle
10
139.71404402785436
20
-24.13307287765571
30
1.1556652584456949e-09
40
1.9999999999999756
210
4.1888614580432224e-12
220
1.6944778913340179e-12
230
1
100
AcDbArc
50
202.02431283703999
51
270.00000000000159
0
LINE
5
182
100
AcDbEntity
8
0
100
AcDbLine
10
139.84106068164905
20
-345.88591564716836
30
6.0981886207400748e-10
11
170.06525306327899
21
-345.88591564716819
31
1.1357403906231413e-09
0
LINE
5
183
100
AcDbEntity
8
0
100
AcDbLine
10
123.68994388501007
20
-279.02026160410685
30
6.0807359147929684e-10
11
135.6901541759556
21
-279.02061298208389
31
9.1617824438117158e-10
0
ARC
5
184
100
AcDbEntity
8
0
100
AcDbCircle
10
121.69484079412165
20
-290.4888894074619
30
9.5382368670016149e-10
40
1.000000539999939
210
0
220
0
230
1
100
AcDbArc
50
-0.0016379729176161022
51
5.9260735001106104
0
LINE
5
185
100
AcDbEntity
8
0
100
AcDbLine
10
122.68987159980121
20
-281.48892105175838
30
9.2459817579992887e-10
11
122.68991460445379
21
-280.02023232269323
31
-4.4408920985006262e-15
0
LINE
5
186
100
AcDbEntity
8
0
100
AcDbLine
10
132.67617657898955
20
-348.38591564716836
30
6.1292304565085932e-10
11
136.1329614381012
21
-348.38591564716836
31
1.1439382774369733e-09
0
LINE
5
187
100
AcDbEntity
8
0
100
AcDbLine
10
175.80263340828409
20
-33.13439109797784
30
1.1585399306568434e-10
11
174.0651958872329
21
-33.134341428075686
31
1.035216357081481e-10
0
ARC
5
188
100
AcDbEntity
8
0
100
AcDbCircle
10
123.68991460402505
20
-280.02026160367808
30
1.0651665750982046e-09
40
0.99999999999991929
210
2.5895316535355714e-12
220
-4.7893582747591141e-13
230
1
100
AcDbArc
50
169.52151018782246
51
179.99832232327111
0
ARC
5
189
100
AcDbEntity
8
0
100
AcDbCircle
10
174.06525306327893
20
-340.88443365718939
30
-3.999277992186086e-12
40
1.9999999999999662
210
9.4201590288291453e-17
220
3.295141935741067e-12
230
1
100
AcDbArc
50
89.998362026992652
51
180
0
ARC
5
190
100
AcDbEntity
8
0
100
AcDbCircle
10
136.13296143810115
20
-346.38591564716842
30
-9.1562492927611053e-08
40
1.9999999999999574
210
-2.3634667150877349e-24
220
2.6610269543426998e-10
230
1
100
AcDbArc
50
270.00000000000159
51
337.97568716295945
0
LINE
5
191
100
AcDbEntity
8
0
100
AcDbLine
10
172.065253063277
20
-31.13434142889297
30
1.035216357081481e-10
11
172.06525306327703
21
-28.133072877655714
31
1.1211476191874674e-10
0
ARC
5
192
100
AcDbEntity
8
0
100
AcDbCircle
10
132.6761765789895
20
-346.38591564716842
30
6.1180394084203726e-10
40
1.9999999999999889
210
0
220
0
230
1
100
AcDbArc
50
202.02431283704058
51
270.00000000000159
0
ARC
5
193
100
AcDbEntity
8
0
100
AcDbCircle
10
135.69012489497069
20
-280.02061298165518
30
6.1075589030679112e-10
40
0.99999999999996025
210
0
220
-0
230
1
100
AcDbArc
50
0.021653256363774787
51
89.998322323144762
0
LINE
5
194
100
AcDbEntity
8
0
100
AcDbLine
10
172.06525306327902
20
-343.88591564716825
30
6.0729199446996063e-10
11
172.06525306327899
21
-340.88443365718939
31
1.1192471057724904e-09
0
LINE
5
195
100
AcDbEntity
8
0
100
AcDbLine
10
136.69480777839419
20
-291.92731900395637
30
9.5856211856926166e-10
11
136.69480509015892
21
-292.02125687422125
31
9.5887298101615691e-10
0
LINE
5
196
100
AcDbEntity
8
0
100
AcDbLine
10
128.84106068164706
20
-26.133072877655714
30
6.1271876461432839e-10
11
98.616868300016961
21
-26.133072877655714
31
-3.7426506338533727e-10
0
ARC
5
197
100
AcDbEntity
8
0
100
AcDbCircle
10
79.593516399362017
20
-328.68378048284671
30
4.247822841342251e-10
40
2.0000000000000009
210
-2.3270274574259527e-12
220
-1.0091984252077585e-16
230
1
100
AcDbArc
50
0.0024848357042617699
51
89.999999999999588
0
ARC
5
198
100
AcDbEntity
8
0
100
AcDbCircle
10
175.79394979395823
20
-336.88448307557508
30
-5.5821563468744537e-11
40
2.0000000000001084
210
9.858158342897228e-17
220
3.4483527130764103e-12
230
1
100
AcDbArc
50
269.99836202699021
51
359.99836202730484
0
LINE
5
199
100
AcDbEntity
8
0
100
AcDbLine
10
96.616868300016975
20
-28.133072877655714
30
6.156364307230432e-10
11
96.616868300016989
21
-31.132070156717766
31
-2.602940085694172e-10
0
LINE
5
200
100
AcDbEntity
8
0
100
AcDbLine
10
94.61681112397288
20
-33.132070155900486
30
1.0949463558063144e-10
11
83.580842648922584
21
-33.131754659390715
31
1.0878853373696984e-10
0
LINE
5
201
100
AcDbEntity
8
0
100
AcDbLine
10
170.06525306327703
20
-26.133072877655721
30
6.1151972374773322e-10
11
139.71404402785441
21
-26.133072877655685
31
6.1470439849387007e-10
0
LINE
5
202
100
AcDbEntity
8
0
100
AcDbLine
10
81.580785474759352
20
-35.131841395703972
30
1.1588063841827535e-10
11
81.58112369092521
21
-42.930489157429363
31
1.4096723788270538e-10
0
ARC
5
203
100
AcDbEntity
8
0
100
AcDbCircle
10
83.593871941519197
20
-336.88184725771686
30
1.1058887139370199e-09
40
1.9999999999999829
210
0
220
0
230
1
100
AcDbArc
50
180.00248483570428
51
269.99836202699225
0
LINE
5
204
100
AcDbEntity
8
0
100
AcDbLine
10
96.616868300019135
20
-340.8821623850144
30
1.1187895054831642e-09
11
96.616868300019135
21
-343.88591564716842
31
1.1095080409972981e-09
0
LINE
5
205
100
AcDbEntity
8
0
100
AcDbLine
10
83.593814765475116
20
-338.8818472568995
30
1.1058887139370199e-09
11
94.616925476063187
21
-338.88216238583146
31
1.1127365695529081e-09
0
ARC
5
206
100
AcDbEntity
8
0
100
AcDbCircle
10
139.84106068164905
20
-347.88591564716825
30
6.1176397281315076e-10
40
1.9999999999999574
210
0
220
9.7255536957169246e-13
230
1
100
AcDbArc
50
90
51
157.97568716296158
0
LINE
5
207
100
AcDbEntity
8
0
100
AcDbLine
10
177.79394979314105
20
-336.8845402516082
30
1.1058576276922934e-09
11
177.80257623142276
21
-35.134448273193733
31
1.1585399306568434e-10
0
LINE
5
208
100
AcDbEntity
8
0
100
AcDbLine
10
76.589128410195414
20
-326.68378048284666
30
6.1186167243931777e-10
11
79.593516399362031
21
-326.68378048284666
31
6.0996561335294291e-10
0
ARC
5
209
100
AcDbEntity
8
0
100
AcDbCircle
10
76.589128410195414
20
-324.68378048284677
30
-5.2316080772623871e-08
40
2.0000000000000018
210
-6.9103833766348482e-10
220
0
230
1
100
AcDbArc
50
180
51
270
0
ARC
5
210
100
AcDbEntity
8
0
100
AcDbCircle
10
73.581210431817937
20
-193.05633285578651
30
1.4610504341642643e-09
40
2.0000000000000639
210
1.1555201240298259e-11
220
0
230
1
100
AcDbArc
50
180
51
255.54897711394923
0
ARC
5
211
100
AcDbEntity
8
0
100
AcDbCircle
10
94.616868300019149
20
-340.8821623850144
30
1.1187850645910655e-09
40
1.9999999999999929
210
-2.2204460493149445e-15
220
0
230
1
100
AcDbArc
50
0
51
89.998362026993476
0
ARC
5
212
100
AcDbEntity
8
0
100
AcDbCircle
10
132.54915992519494
20
-25.633072877655625
30
-6.2229655387129587e-09
40
2.0000000000000195
210
-2.3678843361566038e-24
220
2.6660007534928556e-10
230
1
100
AcDbArc
50
90
51
157.9756871629593
0
LINE
5
213
100
AcDbEntity
8
0
100
AcDbLine
10
136.69012482355865
20
-280.02023506104683
30
6.1075589030679112e-10
11
136.69461737089912
21
-291.90777683711724
31
9.5849994607988244e-10
0
ARC
5
214
100
AcDbEntity
8
0
100
AcDbCircle
10
136.00594478430648
20
-25.633072877655572
30
8.2672581943985734e-11
40
2.0000000000000169
210
-4.2073871352532154e-12
220
-1.7019718967502351e-12
230
1
100
AcDbArc
50
22.024312837040156
51
90.00000000000081
0
ARC
5
215
100
AcDbEntity
8
0
100
AcDbCircle
10
128.84106068164706
20
-24.13307287765571
30
6.1080029922777612e-10
40
1.9999999999999973
210
0
220
9.5923269327613444e-13
230
1
100
AcDbArc
50
270
51
337.97568716295922
0
ARC
5
216
100
AcDbEntity
8
0
100
AcDbCircle
10
98.616868300016961
20
-28.133072877655714
30
-1.3248094655890664e-08
40
1.9999999999999973
210
0
220
4.9262594004062583e-10
230
1
100
AcDbArc
50
90
51
180
0
ARC
5
217
100
AcDbEntity
8
0
100
AcDbCircle
10
94.616868300016961
20
-31.132070156717766
30
8.4360862314066468e-13
40
1.9999999999999973
210
9.3757243193414231e-17
220
3.2795988134025574e-12
230
1
100
AcDbArc
50
-90.001637973007746
51
0
0
ARC
5
218
100
AcDbEntity
8
0
100
AcDbCircle
10
123.68991460402505
20
-280.02026160367808
30
-1.4033241409602306e-10
40
0.99999999999992528
210
7.8540351724426324e-17
220
2.6822988263444509e-12
230
1
100
AcDbArc
50
89.998322323138254
51
169.52151018782246
0
LINE
5
219
100
AcDbEntity
8
0
100
AcDbLine
10
136.00594478430645
20
-23.633072877655557
30
6.146794184758159e-10
11
132.54915992519494
21
-23.633072877655607
31
7.7613471205496348e-11
0
ARC
5
220
100
AcDbEntity
8
0
100
AcDbCircle
10
170.06525306327899
20
-343.88591564716825
30
-8.945617842074129e-08
40
1.9999999999999574
210
-0
220
2.6191271373933464e-10
230
1
100
AcDbArc
50
-90
51
0
0
ARC
5
221
100
AcDbEntity
8
0
100
AcDbCircle
10
72.583001117586406
20
-196.92977811356172
30
4.4184122545117483e-10
40
2.0000000000000018
210
-2.3248070135650758e-12
220
4.1296868388319882e-26
230
1
100
AcDbArc
50
0
51
75.548977113948226
0
LINE
5
222
100
AcDbEntity
8
0
100
AcDbLine
10
74.581210431817851
20
-75.942997613453656
30
6.1544991325490638e-10
11
74.581210431817851
21
-186.05690798778477
31
3.2663693971812791e-09
0
LWPOLYLINE
5
223
100
AcDbEntity
8
0
100
AcDbPolyline
90
8
70
1
43
0.0
10
160.80067257514131
20
-87.234147524679813
10
160.80101563159081
20
-75.234141049583926
42
-0.4142135623730846
10
161.80104475921982
20
-74.234169098030037
10
173.80105123431611
20
-74.23451215447966
42
-0.41421356237312623
10
174.80102318586998
20
-75.234541282108552
10
174.80068012942036
20
-87.234547757204396
42
-0.41421356237309503
10
173.80065100179164
20
-88.234519708758256
10
161.80064452669512
20
-88.234176652308619
42
-0.414213562373069
0
ARC
5
224
100
AcDbEntity
8
0
100
AcDbCircle
10
83.580785472878532
20
-35.131754658573144
30
-8.6899293985369235e-12
40
1.9999999999996954
210
1.0137462243291011e-16
220
3.5460523392042247e-12
230
1
100
AcDbArc
50
89.99836202699305
51
180.00248483570428
0
LINE
5
225
100
AcDbEntity
8
0
100
AcDbLine
10
74.583001117586406
20
-196.92977811356172
30
6.1523230954207975e-10
11
74.583001117587045
21
-300.13522156677584
31
9.4252161630947719e-10
0
ARC
5
226
100
AcDbEntity
8
0
100
AcDbCircle
10
73.589128410195343
20
-304.00661768072064
30
1.5739257205360185e-09
40
2.0000000000000124
210
7.740988003695065e-13
220
-2.9785923804800004e-12
230
1
100
AcDbArc
50
104.56817611450388
51
180
0
LINE
5
227
100
AcDbEntity
8
0
100
AcDbLine
10
98.616868300019078
20
-345.88591564716836
30
6.1342486645798999e-10
11
128.96807733544165
21
-345.88591564716836
31
1.1095036001051994e-09
0
ARC
5
228
100
AcDbEntity
8
0
100
AcDbCircle
10
73.589128410195428
20
-307.13363433451326
30
-2.1909746788027518e-08
40
1.9999999999999574
210
-3.0604851986027572e-10
220
0
230
1
100
AcDbArc
50
180
51
255.52248781406973
0
ARC
5
229
100
AcDbEntity
8
0
100
AcDbCircle
10
73.581210431817851
20
-72.07001426724625
30
-2.1852002729545656e-08
40
1.999999999999984
210
-3.0527580463513263e-10
220
-1.3556969086675917e-24
230
1
100
AcDbArc
50
180
51
255.52248781406951
0
ARC
5
230
100
AcDbEntity
8
0
100
AcDbCircle
10
72.589128410195414
20
-311.00661768072064
30
4.4274180445062969e-10
40
2.0000000000000018
210
-2.3248070135650758e-12
220
4.1296868388319882e-26
230
1
100
AcDbArc
50
0
51
75.522487814069748
0
ARC
5
231
100
AcDbEntity
8
0
100
AcDbCircle
10
73.58121043181788
20
-189.92989133399215
30
1.2508863589579649e-09
40
2.0000000000000169
210
7.9103390504544837e-13
220
-3.0636611405263123e-12
230
1
100
AcDbArc
50
104.47751218592967
51
180
0
ARC
5
232
100
AcDbEntity
8
0
100
AcDbCircle
10
79.581123692806059
20
-42.930575894560157
30
6.1041838250730507e-10
40
2.0000000000000107
210
0
220
0
230
1
100
AcDbArc
50
-90
51
0.0024848357042617699
0
ARC
5
233
100
AcDbEntity
8
0
100
AcDbCircle
10
98.616868300019078
20
-343.88591564716825
30
2.5167187469950188e-08
40
1.9999999999999574
210
2.4900081996293776e-10
220
8.8462861911489701e-24
230
1
100
AcDbArc
50
180
51
270
0
LINE
5
234
100
AcDbEntity
8
0
100
AcDbLine
10
81.593516397481181
20
-328.6836937457179
30
6.1461946643248656e-10
11
81.593871943400046
21
-336.88193399484561
31
1.1058887139370199e-09
0
ARC
5
235
100
AcDbEntity
8
0
100
AcDbCircle
10
76.581210431817851
20
-46.930575894560185
30
-1.0250255046712884e-08
40
1.9999999999999929
210
0
220
2.3141932814496696e-10
230
1
100
AcDbArc
50
90
51
180
0
ARC
5
236
100
AcDbEntity
8
0
100
AcDbCircle
10
128.96807733544168
20
-347.88591564716819
30
6.1176397281315076e-10
40
1.9999999999999356
210
-1.8525677210020048e-14
220
-7.4940054162185666e-15
230
1
100
AcDbArc
50
22.024312837037836
51
90.00000000000081
0
ARC
5
237
100
AcDbEntity
8
0
100
AcDbCircle
10
72.583001117585781
20
-300.13522156677584
30
-3.697676434507936e-10
40
2.0000000000000235
210
-7.9923187830356296e-13
220
3.0752999253006535e-12
230
1
100
AcDbArc
50
-75.431823885495376
51
0
0
ARC
5
238
100
AcDbEntity
8
0
100
AcDbCircle
10
72.581210431817851
20
-186.05690798778477
30
-1.9742414175665696e-11
40
1.9999999999999849
210
-7.9491968563162985e-13
220
3.0787107040236088e-12
230
1
100
AcDbArc
50
-75.522487814068739
51
0
0
LINE
5
239
100
AcDbEntity
8
0
100
AcDbLine
10
71.581210431817865
20
-189.92989133399215
30
6.1238236703786687e-10
11
71.581210431817865
21
-193.05633285578651
31
6.3391514260047188e-10
0
LINE
5
240
100
AcDbEntity
8
0
100
AcDbLine
10
79.581123692806059
20
-44.930575894560164
30
6.1041838250730507e-10
11
76.581210431817851
21
-44.930575894560192
31
1.475486399726833e-10
0
ARC
5
241
100
AcDbEntity
8
0
100
AcDbCircle
10
72.581210431817809
20
-65.07001426724625
30
3.5269937310195192e-10
40
2.0000000000000022
210
-7.9436457411932333e-13
220
3.0765607663811848e-12
230
1
100
AcDbArc
50
-75.522487814069663
51
0
0
LINE
5
242
100
AcDbEntity
8
0
100
AcDbLine
10
71.581210431817851
20
-68.942997613453656
30
6.1543214968651228e-10
11
71.58121043181788
21
-72.07001426724625
31
8.8817841967427584e-15
0
LINE
5
243
100
AcDbEntity
8
0
100
AcDbLine
10
74.581210431817865
20
-46.930575894560185
30
6.1038729626261556e-10
11
74.581210431817809
21
-65.07001426724625
31
6.1213589752640019e-10
0
LINE
5
244
100
AcDbEntity
8
0
100
AcDbLine
10
71.589128410195329
20
-304.00661768072064
30
6.1299686707489638e-10
11
71.589128410195457
21
-307.13363433451326
31
1.6414365280349143e-23
0
ARC
5
245
100
AcDbEntity
8
0
100
AcDbCircle
10
72.581210431817851
20
-75.942997613453656
30
4.4206299216283794e-10
40
2.0000000000000018
210
-2.3248070135651404e-12
220
1.032421709707997e-26
230
1
100
AcDbArc
50
0
51
75.522487814070516
0
LINE
5
246
100
AcDbEntity
8
0
100
AcDbLine
10
74.589128410195414
20
-311.00661768072064
30
6.1614713331437088e-10
11
74.589128410195414
21
-324.68378048284677
31
-7.7213346827422191e-10
0
ARC
5
247
100
AcDbEntity
8
0
100
AcDbCircle
10
73.581210431817851
20
-68.942997613453656
30
8.7131951121549666e-10
40
2.0000000000000107
210
7.6494366396675396e-13
220
-2.9626140713300375e-12
230
1
100
AcDbArc
50
104.47751218593076
51
180
0
LWPOLYLINE
5
248
100
AcDbEntity
8
0
100
AcDbPolyline
90
8
70
1
43
0.0
10
123.69531409765429
20
-273.97068767043191
42
-0.41421356237307422
10
122.69534214610046
20
-272.97065854280305
10
122.69568520254998
20
-260.97065206770657
42
-0.41421356237311063
10
123.69571433017889
20
-259.97068011615278
10
135.6957208052753
20
-259.97102317260243
42
-0.41421356237307944
10
136.69569275682906
20
-260.97105230023118
10
136.69534970037952
20
-272.97105877532761
42
-0.41421356237310542
10
135.69532057275063
20
-273.97103072688151
0
LWPOLYLINE
5
249
100
AcDbEntity
8
0
100
AcDbPolyline
90
8
70
1
43
0.0
10
135.69586517486451
20
-254.92102044766602
10
123.69585869976817
20
-254.92067739121643
42
-0.41421356237311585
10
122.69588674821428
20
-253.92064826358762
10
122.69622980466383
20
-241.92064178849114
42
-0.41421356237305862
10
123.69625893229271
20
-240.92066983693729
10
135.69626540738906
20
-240.921012893387
42
-0.41421356237310025
10
136.69623735894299
20
-241.92104202101589
10
136.69589430249334
20
-253.92104849611215
42
-0.41421356237309503
0
LWPOLYLINE
5
250
100
AcDbEntity
8
0
100
AcDbPolyline
90
8
70
1
43
0.0
10
123.70021551667877
20
-102.52059515749261
42
-0.41421356237309503
10
122.70024356512494
20
-101.5205660298637
10
122.70058662157454
20
-89.520559554767431
42
-0.41421356237311063
10
123.70061574920342
20
-88.520587603213542
10
135.70062222429976
20
-88.520930659663179
42
-0.41421356237309503
10
136.70059417585355
20
-89.520959787292028
10
136.70025111940402
20
-101.5209662623883
42
-0.41421356237311585
10
135.70022199177512
20
-102.52093821394226
0
LWPOLYLINE
5
251
100
AcDbEntity
8
0
100
AcDbPolyline
90
8
70
1
43
0.0
10
154.74804564347446
20
-179.00902408805052
42
-0.41421356237310542
10
155.7480175950283
20
-180.00905321567927
10
155.74767453857868
20
-192.00905969077567
42
-0.414213562373069
10
154.74764541094993
20
-193.00903164232946
10
142.74763893585353
20
-193.0086885858799
42
-0.41421356237304302
10
141.74766698429971
20
-192.00865945825103
10
141.74801004074939
20
-180.00865298315483
42
-0.41421356237312623
10
142.74803916837817
20
-179.00868103160079
0
LWPOLYLINE
5
252
100
AcDbEntity
8
0
100
AcDbPolyline
90
8
70
1
43
0.0
10
98.594648389306201
20
-296.78248242011932
42
-0.414213562373069
10
97.594619261677437
20
-297.78245437167323
10
85.594612786581052
20
-297.7821113152234
42
-0.41421356237310025
10
84.594640835027121
20
-296.78208218759465
10
84.594983891476758
20
-284.78207571249834
42
-0.41421356237310542
10
85.59501301910565
20
-283.78210376094449
10
97.595019494202006
20
-283.78244681739397
42
-0.41421356237305862
10
98.59499144575588
20
-284.78247594502301
0
LWPOLYLINE
5
253
100
AcDbEntity
8
0
100
AcDbPolyline
90
8
70
1
43
0.0
10
103.6505055869663
20
-91.995016288142168
10
103.65084864341598
20
-79.995009813045812
42
-0.41421356237312101
10
104.65087777104486
20
-78.995037861491937
10
116.65088424614112
20
-78.995380917941588
42
-0.41421356237312884
10
117.65085619769513
20
-79.995410045570424
10
117.65051314124545
20
-91.995416520666708
42
-0.41421356237312101
10
116.65048401361659
20
-92.995388472220682
10
104.65047753852025
20
-92.995045415770988
42
-0.41421356237308982
0
LWPOLYLINE
5
254
100
AcDbEntity
8
0
100
AcDbPolyline
90
8
70
1
43
0.0
10
161.79559873808148
20
-264.73427189018435
10
173.79560521317788
20
-264.73461494663405
42
-0.41421356237315748
10
174.79557716473167
20
-265.73464407426275
10
174.79523410828205
20
-277.73465054935923
42
-0.41421356237307422
10
173.7952049806533
20
-278.73462250091325
10
161.79519850555678
20
-278.73427944446325
42
-0.41421356237307422
10
160.79522655400294
20
-277.73425031683462
10
160.79556961045256
20
-265.73424384173808
42
-0.41421356237311585
0
LWPOLYLINE
5
255
100
AcDbEntity
8
0
100
AcDbPolyline
90
8
70
1
43
0.0
10
154.74710080883605
20
-212.05904192154492
10
142.74709433373971
20
-212.05869886509518
42
-0.41421356237311585
10
141.74712238218589
20
-211.05866973746657
10
141.74746543863557
20
-199.05866326237015
42
-0.41421356237312623
10
142.74749456626432
20
-198.05869131081607
10
154.74750104136069
20
-198.05903436726592
42
-0.41421356237308982
10
155.74747299291454
20
-199.0590634948947
10
155.74712993646497
20
-211.05906996999099
42
-0.41421356237309503
0
LWPOLYLINE
5
256
100
AcDbEntity
8
0
100
AcDbPolyline
90
8
70
1
43
0.0
10
155.7439330791747
20
-322.88413030979535
10
155.7435900227249
20
-334.88413678489172
42
-0.4142135623730534
10
154.74356089509615
20
-335.88410873644528
10
142.74355441999978
20
-335.88376567999609
42
-0.41421356237315227
10
141.74358246844582
20
-334.88373655236683
10
141.74392552489567
20
-322.8837300772708
42
-0.41421356237312101
10
142.74395465252437
20
-321.88375812571672
10
154.74396112762076
20
-321.88410118216666
42
-0.41421356237302737
0
LWPOLYLINE
5
257
100
AcDbEntity
8
0
100
AcDbPolyline
90
8
70
1
43
0.0
10
141.74909924497706
20
-141.90863242472375
42
-0.41421356237307944
10
142.74912837260581
20
-140.9086604731699
10
154.74913484770212
20
-140.90900352961953
42
-0.41421356237312101
10
155.74910679925614
20
-141.90903265724839
10
155.74876374280643
20
-153.90903913234467
42
-0.41421356237307944
10
154.7487346151776
20
-154.9090110838986
10
142.74872814008125
20
-154.90866802744898
42
-0.41421356237310542
10
141.74875618852732
20
-153.90863889982012
0
LWPOLYLINE
5
258
100
AcDbEntity
8
0
100
AcDbPolyline
90
8
70
1
43
0.0
10
97.595163863791171
20
-278.73244409245774
10
85.595157388694844
20
-278.73210103600809
42
-0.41421356237311585
10
84.595185437140955
20
-277.73207190837928
10
84.596617697818232
20
-227.63204487485189
42
-0.41421356237307944
10
85.596646825447138
20
-226.63207292329793
10
97.596653300543537
20
-226.63241597974761
42
-0.41421356237313667
10
98.596625252097411
20
-227.63244510737653
10
98.595192991420092
20
-277.73247214090395
42
-0.41421356237303258
0
LWPOLYLINE
5
259
100
AcDbEntity
8
0
100
AcDbPolyline
90
8
70
1
43
0.0
10
103.64560416794184
20
-263.4451088010814
10
103.64594722439148
20
-251.44510232598506
42
-0.41421356237307422
10
104.64597635202033
20
-250.44513037443122
10
116.64598282711668
20
-250.44547343088087
42
-0.414213562373069
10
117.64595477867056
20
-251.4455025585097
10
117.64561172222095
20
-263.44550903360613
42
-0.414213562373069
10
116.645582594592
20
-264.44548098515986
10
104.64557611949573
20
-264.44513792871027
42
-0.414213562373069
0
LWPOLYLINE
5
260
100
AcDbEntity
8
0
100
AcDbPolyline
90
8
70
1
43
0.0
10
103.64444956857852
20
-303.83263059382773
42
-0.41421356237310542
10
104.64447869620727
20
-302.83265864227366
10
116.6444851713036
20
-302.83300169872336
42
-0.41421356237312623
10
117.64445712285749
20
-303.83303082635223
10
117.64411406640784
20
-315.83303730144854
42
-0.4142135623730846
10
116.64408493877909
20
-316.83300925300233
10
104.6440784636826
20
-316.83266619655274
42
-0.4142135623730846
10
103.64410651212872
20
-315.83263706892382
0
ARC
5
261
100
AcDbEntity
8
0
100
AcDbCircle
10
159.79431082556798
20
-309.74723900273523
30
5.2975392327545412e-13
40
1.000000539999957
210
9.382067065845043e-17
220
3.281817487269587e-12
230
1
100
AcDbArc
50
89.998362026993718
51
179.99836202708235
0
ARC
5
262
100
AcDbEntity
8
0
100
AcDbCircle
10
159.79485045336327
20
-290.87122881740873
30
9.5508045916403717e-10
40
1.0000005400000103
210
0
220
0
230
1
100
AcDbArc
50
179.99836202708235
51
269.99836202699049
0
ARC
5
263
100
AcDbEntity
8
0
100
AcDbCircle
10
159.79499339355058
20
-285.87122611945222
30
-7.6921813287288006e-13
40
1.0000005399999925
210
9.3947626969401899e-17
220
3.286258376968076e-12
230
1
100
AcDbArc
50
89.998362026992098
51
179.99836202708235
0
ARC
5
264
100
AcDbEntity
8
0
100
AcDbCircle
10
172.79500040823845
20
-285.87159776393923
30
9.3867580375217585e-10
40
1.0000005400000278
210
0
220
0
230
1
100
AcDbArc
50
-0.0016379729176161022
51
89.998362026988843
0
ARC
5
265
100
AcDbEntity
8
0
100
AcDbCircle
10
173.79475972196971
20
-294.30963090504849
30
9.6638252955472126e-10
40
1.0000005399999214
210
0
220
0
230
1
100
AcDbArc
50
-0.0016379729176161022
51
59.998362027173485
0
LINE
5
266
100
AcDbEntity
8
0
100
AcDbLine
10
174.79476026156101
20
-294.30965949308438
30
9.6638252955472126e-10
11
174.79441685542977
21
-306.30966576627208
31
1.0057998878210128e-09
0
LINE
5
267
100
AcDbEntity
8
0
100
AcDbLine
10
159.79502198158806
20
-284.87122557986083
30
9.3537622092299051e-10
11
172.79502899627599
21
-284.87159722434785
31
9.3867580375217585e-10
0
LINE
5
268
100
AcDbEntity
8
0
100
AcDbLine
10
158.79416734578913
20
-314.74721311265478
30
1.0334666455946715e-09
11
158.79431028597668
21
-309.74721041469934
31
1.0170486675065203e-09
0
ARC
5
269
100
AcDbEntity
8
0
100
AcDbCircle
10
159.79436800164291
20
-307.74723792355269
30
1.2869583217918873e-11
40
1.0000005399998504
210
9.2678064442825805e-17
220
3.2418494799828694e-12
230
1
100
AcDbArc
50
269.99836202699214
51
359.99836202708235
0
LINE
5
270
100
AcDbEntity
8
0
100
AcDbLine
10
160.79436854123415
20
-307.74726651158863
30
1.0105249970138121e-09
11
160.79479381687972
21
-292.87125848462892
31
9.6163965679352238e-10
0
ARC
5
271
100
AcDbEntity
8
0
100
AcDbCircle
10
159.79479327728825
20
-292.87122989659161
30
9.6163965679352238e-10
40
1.0000005400000636
210
0
220
0
230
1
100
AcDbArc
50
-0.0016379729176161022
51
89.998362026990463
0
LINE
5
272
100
AcDbEntity
8
0
100
AcDbLine
10
158.79484991377188
20
-290.87120022937285
30
9.5508045916403717e-10
11
158.79499285395923
21
-285.87119753141627
31
9.3866248107588635e-10
0
LINE
5
273
100
AcDbEntity
8
0
100
AcDbLine
10
173.79500094782983
20
-285.87162635197512
30
9.3867580375217585e-10
11
173.79480923790848
21
-292.5775789704486
31
9.6068042410024646e-10
0
ARC
5
274
100
AcDbEntity
8
0
100
AcDbCircle
10
174.79480977749972
20
-292.57760755848608
30
9.6070262856073875e-10
40
1.0000005399999214
210
-2.2204448492900659e-14
220
6.3478126290878002e-19
230
1
100
AcDbArc
50
179.99836202708235
51
239.99836753957211
0
LWPOLYLINE
5
275
100
AcDbEntity
8
0
100
AcDbPolyline
90
8
70
1
43
0.0
10
122.69840821311924
20
-165.72060067162926
42
-0.41421356237306384
10
123.69843734074806
20
-164.72062872007541
10
135.69844381584443
20
-164.72097177652503
42
-0.41421356237307944
10
136.69841576739833
20
-165.72100090415387
10
136.69807271094871
20
-177.72100737925027
42
-0.41421356237313145
10
135.69804358331987
20
-178.7209793308042
10
123.69803710822345
20
-178.72063627435438
42
-0.41421356237309503
10
122.6980651566696
20
-177.72060714672568
0
LWPOLYLINE
5
276
100
AcDbEntity
8
0
100
AcDbPolyline
90
8
70
1
43
0.0
10
103.64996098485253
20
-111.0450265673577
10
103.65030404130221
20
-99.04502009226124
42
-0.4142135623730846
10
104.65033316893098
20
-98.045048140707394
10
116.65033964402741
20
-98.045391197157073
42
-0.41421356237305862
10
117.6503115955812
20
-99.045420324785852
10
117.64996853913161
20
-111.04542679988228
42
-0.414213562373069
10
116.64993941150273
20
-112.04539875143617
10
104.6499329364064
20
-112.0450556949865
42
-0.41421356237309503
0
LWPOLYLINE
5
277
100
AcDbEntity
8
0
100
AcDbPolyline
90
8
70
1
43
0.0
10
123.69640330188197
20
-235.87066711200094
42
-0.41421356237311063
10
122.69643135032808
20
-234.87063798437202
10
122.69677440677775
20
-222.87063150927571
42
-0.41421356237307944
10
123.69680353440656
20
-221.87065955772186
10
135.69681000950285
20
-221.8710026141714
42
-0.41421356237311585
10
136.6967819610569
20
-222.87103174180018
10
136.69643890460711
20
-234.87103821689658
42
-0.41421356237310025
10
135.6964097769783
20
-235.87101016845051
0
LWPOLYLINE
5
278
100
AcDbEntity
8
0
100
AcDbPolyline
90
8
70
1
43
0.0
10
104.64720992583722
20
-207.2951070910637
42
-0.41421356237305862
10
103.64723797428341
20
-206.29507796343501
10
103.64758103073292
20
-194.29507148833881
42
-0.41421356237311585
10
104.64761015836189
20
-193.2950995367847
10
116.64761663345816
20
-193.29544259323441
42
-0.41421356237312623
10
117.64758858501207
20
-194.2954717208633
10
117.64724552856242
20
-206.29547819595959
42
-0.41421356237305862
10
116.64721640093364
20
-207.29545014751326
0
LWPOLYLINE
5
279
100
AcDbEntity
8
0
100
AcDbPolyline
90
8
70
1
43
0.0
10
142.75036194642271
20
-97.758637189802542
42
-0.41421356237307422
10
141.7503899948689
20
-96.758608062173721
10
141.75073305131855
20
-84.758601587077393
42
-0.41421356237279844
10
142.75076217894733
20
-83.758629635524471
10
154.75076865404361
20
-83.758972691973099
42
-0.41421356237310542
10
155.75074060559754
20
-84.759001819601977
10
155.75039754914786
20
-96.759008294698319
42
-0.41421356237310542
10
154.75036842151911
20
-97.758980246252207
0
LWPOLYLINE
5
280
100
AcDbEntity
8
0
100
AcDbPolyline
90
8
70
1
43
0.0
10
85.598825233902502
20
-150.43203180643602
10
97.598831708998858
20
-150.43237486288558
42
-0.41421356237307944
10
98.59880366055279
20
-151.43240399051453
10
98.598256378310438
20
-170.57616432031682
42
-0.41421356237307422
10
97.598227250681546
20
-171.57613627187078
10
85.598220775585204
20
-171.57579321542102
42
-0.41421356237313667
10
84.598248824031202
20
-170.57576408779224
10
84.598796106273696
20
-151.43200375798989
42
-0.41421356237312101
0
LINE
5
281
100
AcDbEntity
8
0
100
AcDbLine
10
173.79436749929766
20
-308.04168831475408
30
1.0114709070307979e-09
11
173.79417543965988
21
-314.74764193321687
31
1.0334666455946715e-09
0
LWPOLYLINE
5
282
100
AcDbEntity
8
0
100
AcDbPolyline
90
8
70
1
43
0.0
10
117.64867778923973
20
-156.19545116243228
10
117.6483347327901
20
-168.19545763752865
42
-0.41421356237309503
10
116.64830560516128
20
-169.19542958908252
10
104.64829913006488
20
-169.19508653263279
42
-0.41421356237309503
10
103.64832717851101
20
-168.19505740500406
10
103.64867023496069
20
-156.19505092990772
42
-0.414213562373069
10
104.6486993625895
20
-155.19507897835379
10
116.64870583768582
20
-155.19542203480347
42
-0.41421356237309503
0
ARC
5
283
100
AcDbEntity
8
0
100
AcDbCircle
10
172.79417490006836
20
-314.74761334517916
30
5.7416284429587405e-13
40
1.0000005399999925
210
9.3820670658443824e-17
220
3.2818174872694707e-12
230
1
100
AcDbArc
50
269.99836202699214
51
359.99836202708235
0
LWPOLYLINE
5
284
100
AcDbEntity
8
0
100
AcDbPolyline
90
8
70
1
43
0.0
10
161.79846611826846
20
-164.43421676916995
42
-0.41421356237310542
10
160.79849416671453
20
-163.43418764154106
10
160.79883722313556
20
-151.43418216644528
42
-0.4142135623730846
10
161.7988663507644
20
-150.43421021489141
10
173.79887282586077
20
-150.43455327134097
42
-0.41421356237312101
10
174.79884477741462
20
-151.43458239896984
10
174.79850172099347
20
-163.43458787406564
42
-0.41421356237311585
10
173.79847259336475
20
-164.43455982561957
0
ARC
5
285
100
AcDbEntity
8
0
100
AcDbCircle
10
159.79416788538055
20
-314.74724170069214
30
1.0334844091630657e-09
40
1.0000005400000991
210
-1.7763558794550332e-14
220
5.0782500844024838e-19
230
1
100
AcDbArc
50
179.99836202708235
51
269.99836202698884
0
ARC
5
286
100
AcDbEntity
8
0
100
AcDbCircle
10
173.79441666552003
20
-306.30963738014481
30
4.8394536258029177e-12
40
1.0000001903126241
210
-1.4210153311106276e-12
220
2.4614321082545266e-12
230
1
100
AcDbArc
50
299.99837359455785
51
359.99837359504147
0
LWPOLYLINE
5
287
100
AcDbEntity
8
0
100
AcDbPolyline
90
8
70
1
43
0.0
10
103.64356191001484
20
-334.88264734813924
10
103.6439049664645
20
-322.88264087304304
42
-0.414213562373069
10
104.64393409409345
20
-321.88266892148897
10
116.64394056918974
20
-321.88301197793891
42
-0.41421356237309503
10
117.64391252074364
20
-322.8830411055676
10
117.64356946429399
20
-334.88304758066386
42
-0.41421356237305862
10
116.64354033666521
20
-335.88301953221765
10
104.64353386156887
20
-335.88267647576845
42
-0.41421356237312623
0
LINE
5
288
100
AcDbEntity
8
0
100
AcDbLine
10
172.79414631203088
20
-315.74761388477054
30
1.0367839919922517e-09
11
159.79413929734301
21
-315.74724224028364
31
1.0334844091630657e-09
0
ARC
5
289
100
AcDbEntity
8
0
100
AcDbCircle
10
174.79436768920093
20
-308.04171690278162
30
-1.4340906125891117e-12
40
1.0000001903118052
210
-1.4298966769316789e-12
220
2.4768160589330781e-12
230
1
100
AcDbArc
50
119.99837359456795
51
179.99836202708235
0
LWPOLYLINE
5
290
100
AcDbEntity
8
0
100
AcDbPolyline
90
8
70
1
43
0.0
10
116.64816123557202
20
-174.24543231401898
42
-0.41421356237311585
10
117.64813318712589
20
-175.24546144164782
10
117.6477901306763
20
-187.24546791674416
42
-0.4142135623730846
10
116.64776100304736
20
-188.24543986829812
10
104.64775452795108
20
-188.24509681184844
42
-0.41421356237310025
10
103.64778257639715
20
-187.24506768421952
10
103.64812563284688
20
-175.24506120912326
42
-0.41421356237311063
10
104.64815476047569
20
-174.24508925756939
0
LWPOLYLINE
5
291
100
AcDbEntity
8
0
100
AcDbPolyline
90
8
70
1
43
0.0
10
103.64703642861919
20
-213.34508176755421
42
-0.41421356237312101
10
104.64706555624795
20
-212.34510981600025
10
116.64707203134434
20
-212.34545287244984
42
-0.41421356237311585
10
117.64704398289824
20
-213.34548200007885
10
117.64670092644855
20
-225.34548847517502
42
-0.41421356237304818
10
116.64667179881977
20
-226.34546042672889
10
104.64666532372343
20
-226.34511737027921
42
-0.41421356237307944
10
103.64669337216952
20
-225.34508824265046
0
LWPOLYLINE
5
292
100
AcDbEntity
8
0
100
AcDbPolyline
90
8
70
1
43
0.0
10
116.6488502072751
20
-150.14541930986712
10
104.64884373217873
20
-150.14507625341741
42
-0.414213562373069
10
103.64887178062482
20
-149.14504712578855
10
103.64921483707448
20
-137.14504065069215
42
-0.41421356237313667
10
104.64924396470332
20
-136.14506869913842
10
116.6492504397997
20
-136.14541175558799
42
-0.41421356237308982
10
117.6492223913535
20
-137.14544088321679
10
117.648879334904
20
-149.14544735831322
42
-0.41421356237310025
0
LWPOLYLINE
5
293
100
AcDbEntity
8
0
100
AcDbPolyline
90
8
70
1
43
0.0
10
160.79992642736315
20
-113.33416160801443
42
-0.4142135623730846
10
161.7999555549921
20
-112.33418965646052
10
173.79996203008835
20
-112.33453271291012
42
-0.41421356237312101
10
174.79993398164225
20
-113.33456184053895
10
174.79959092519252
20
-125.33456831563535
42
-0.41421356237310542
10
173.79956179756385
20
-126.33454026718921
10
161.79955532246748
20
-126.33419721073955
42
-0.41421356237308982
10
160.79958337091369
20
-125.33416808311077
0
LINE
5
294
100
AcDbEntity
8
0
100
AcDbLine
10
99.600166420129597
20
-103.78240686702358
30
3.4077629607054405e-10
11
86.600159405441914
21
-103.7820352225375
31
3.4075853250215005e-10
0
LWPOLYLINE
5
295
100
AcDbEntity
8
0
100
AcDbPolyline
90
8
70
1
43
0.0
10
160.79686036034443
20
-220.58421947918816
10
160.79720341679405
20
-208.58421300409168
42
-0.4142135623730534
10
161.79723254442291
20
-207.58424105253783
10
173.79723901951931
20
-207.58458410898754
42
-0.41421356237309503
10
174.7972109710733
20
-208.58461323661626
10
174.79686791462353
20
-220.58461971171283
42
-0.4142135623730534
10
173.79683878699478
20
-221.58459166326651
10
161.7968323118983
20
-221.58424860681689
42
-0.41421356237312623
0
LINE
5
296
100
AcDbEntity
8
0
100
AcDbLine
10
84.60029108195819
20
-99.138225540734126
30
3.2550406814380034e-10
11
84.600634138407855
21
-87.138219065638808
31
2.8611779612219834e-10
0
LWPOLYLINE
5
297
100
AcDbEntity
8
0
100
AcDbPolyline
90
8
70
1
43
0.0
10
174.80156778798386
20
-56.184531002893046
10
174.80122473153403
20
-68.184537477989437
42
-0.41421356237309243
10
173.80119560390528
20
-69.184509429543311
10
161.80118912880897
20
-69.184166373093632
42
-0.41421356237309503
10
160.80121717725515
20
-68.184137245464811
10
160.80156023370478
20
-56.184130770368476
42
-0.41421356237307422
10
161.8015893613335
20
-55.184158818814552
10
173.80159583642981
20
-55.184501875264267
42
-0.41421356237312362
0
ARC
5
298
100
AcDbEntity
8
0
100
AcDbCircle
10
84.600241566047913
20
-100.87027647533334
30
3.312017327061767e-10
40
1.0000005399999747
210
0
220
0
230
1
100
AcDbArc
50
-0.0016379729176161022
51
59.998362027147628
0
ARC
5
299
100
AcDbEntity
8
0
100
AcDbCircle
10
86.600187993479366
20
-102.78203468294608
30
3.3749891770185054e-10
40
1.0000005400000103
210
0
220
0
230
1
100
AcDbArc
50
179.99836202708235
51
269.99836202699373
0
LINE
5
300
100
AcDbEntity
8
0
100
AcDbLine
10
85.600187453887997
20
-102.78200609491017
30
3.3749891770185054e-10
11
85.600242105639254
21
-100.87030506336924
31
3.312017327061767e-10
0
ARC
5
301
100
AcDbEntity
8
0
100
AcDbCircle
10
97.60064115309558
20
-87.138590710124859
30
2.8611779612219834e-10
40
1.0000005400000103
210
0
220
0
230
1
100
AcDbArc
50
-0.0016379729176161022
51
89.998362026991273
0
ARC
5
302
100
AcDbEntity
8
0
100
AcDbCircle
10
85.600291621549545
20
-99.138254128771564
30
3.2550406814380034e-10
40
1.0000005400000103
210
0
220
0
230
1
100
AcDbArc
50
179.99836202708235
51
239.99833889167837
0
LINE
5
303
100
AcDbEntity
8
0
100
AcDbLine
10
85.600663266036619
20
-86.138247114083867
30
2.8283597686140638e-10
11
97.600669741133075
21
-86.13859017053349
31
2.8611779612219834e-10
0
ARC
5
304
100
AcDbEntity
8
0
100
AcDbCircle
10
85.600634677999196
20
-87.138247653675208
30
-2.2851731542935067e-13
40
1.0000005399999925
210
9.3947626852651335e-17
220
3.2862583769681022e-12
230
1
100
AcDbArc
50
89.998362026995352
51
179.99836202708235
0
LWPOLYLINE
5
305
100
AcDbEntity
8
0
100
AcDbPolyline
90
8
70
1
43
0.0
10
160.79393580411107
20
-322.88427467938448
42
-0.41421356237311585
10
161.79396493173996
20
-321.88430272783074
10
173.79397140683639
20
-321.88464578428022
42
-0.41421356237297013
10
174.79394335839021
20
-322.88467491190886
10
174.79360030194042
20
-334.88468138700534
42
-0.41421356237315748
10
173.79357117431186
20
-335.8846533385593
10
161.79356469921541
20
-335.88431028210982
42
-0.41421356237316787
10
160.79359274766131
20
-334.88428115448073
0
LWPOLYLINE
5
306
100
AcDbEntity
8
0
100
AcDbPolyline
90
8
70
1
43
0.0
10
104.64522752411386
20
-276.63889450835245
10
116.64523399921015
20
-276.6392375648021
42
-0.41421356237312101
10
117.64520595076402
20
-277.63926669243097
10
117.64486289431447
20
-289.63927316752722
42
-0.41421356237306384
10
116.64483376668555
20
-290.63924511908118
10
104.64482729158917
20
-290.63890206263147
42
-0.41421356237308982
10
103.64485534003536
20
-289.6388729350025
10
103.64519839648483
20
-277.63886645990641
42
-0.4142135623730534
0
LINE
5
307
100
AcDbEntity
8
0
100
AcDbLine
10
98.600641692686949
20
-87.138619298160762
30
2.8611779612219834e-10
11
98.600394584837986
21
-95.782373962255207
31
3.1449509663161734e-10
0
LWPOLYLINE
5
308
100
AcDbEntity
8
0
100
AcDbPolyline
90
8
70
1
43
0.0
10
160.79829262102174
20
-170.48419244566074
42
-0.41421356237306384
10
161.79832174865058
20
-169.48422049410692
10
173.79832822374706
20
-169.48456355055666
42
-0.41421356237309503
10
174.79830017530091
20
-170.48459267818544
10
174.79795711885123
20
-182.48459915328183
42
-0.41421356237309503
10
173.79792799122265
20
-183.48457110483571
10
161.79792151612602
20
-183.48422804838609
42
-0.41421356237310542
10
160.79794956457218
20
-182.48419892075714
0
LWPOLYLINE
5
309
100
AcDbEntity
8
0
100
AcDbPolyline
90
8
70
1
43
0.0
10
135.70076659388906
20
-83.470927934727811
10
123.70076011879263
20
-83.47058487827708
42
-0.4142135623730846
10
122.70078816723873
20
-82.470555750648316
10
122.70113122368841
20
-70.470549275552401
42
-0.41421356237310542
10
123.70116035131723
20
-69.470577323998526
10
135.70116682641358
20
-69.470920380448163
42
-0.41421356237309243
10
136.70113877796749
20
-70.470949508077027
10
136.70079572151778
20
-82.470955983172857
42
-0.41421356237340717
0
LWPOLYLINE
5
310
100
AcDbEntity
8
0
100
AcDbPolyline
90
8
70
1
43
0.0
10
84.601584511978501
20
-53.894451127598018
10
84.601995643692391
20
-39.513193367599627
42
-0.41421356237309115
10
85.602024771321254
20
-38.513221416045731
10
97.60203124641761
20
-38.513564472495503
42
-0.41421356237308593
10
98.602003197971513
20
-39.51359360012431
10
98.601592066257524
20
-53.894851360122537
42
-0.41421356237311585
10
97.601562938628788
20
-54.894823311676433
10
85.601556463532404
20
-54.894480255226874
42
-0.41421356237310025
0
ARC
5
311
100
AcDbEntity
8
0
100
AcDbCircle
10
99.600337948354394
20
-97.782403629475453
30
3.2107649872159527e-10
40
1.0000005400000103
210
0
220
0
230
1
100
AcDbArc
50
-0.0016379729176161022
51
89.998362026992908
0
LWPOLYLINE
5
312
100
AcDbEntity
8
0
100
AcDbPolyline
90
8
70
1
43
0.0
10
154.746411837133
20
-236.15905492569684
42
-0.414213562373069
10
155.7463837886869
20
-237.15908405332584
10
155.7460407322373
20
-249.15909052842215
42
-0.41421356237305862
10
154.74601160460847
20
-250.15906247997606
10
142.74600512951201
20
-250.15871942352632
42
-0.414213562373069
10
141.74603317795822
20
-249.15869029589746
10
141.74637623440788
20
-237.1586838208012
42
-0.41421356237306384
10
142.74640536203668
20
-236.15871186924736
0
ARC
5
313
100
AcDbEntity
8
0
100
AcDbCircle
10
99.600395124429355
20
-95.782402550292701
30
3.1451730109210985e-10
40
1.0000005400000103
210
-2.2204448493027148e-14
220
6.3478126330674715e-19
230
1
100
AcDbArc
50
179.99836202708235
51
269.99836202699129
0
ARC
5
314
100
AcDbEntity
8
0
100
AcDbCircle
10
99.600195008167077
20
-102.78240632743223
30
-1.6527714089064144e-12
40
1.0000005399999925
210
9.4328495786000122e-17
220
3.2995810460639569e-12
230
1
100
AcDbArc
50
269.99836202699214
51
359.99836202708235
0
LINE
5
315
100
AcDbEntity
8
0
100
AcDbLine
10
103.64941638276726
20
-130.09503584657236
30
4.2716497006267673e-10
11
103.64975943918829
21
-118.09503037147681
31
3.8776093447268073e-10
0
LWPOLYLINE
5
316
100
AcDbEntity
8
0
100
AcDbPolyline
90
8
70
1
43
0.0
10
173.79669441740558
20
-226.634594388203
42
-0.41421356237307422
10
174.79666636895939
20
-227.63462351583175
10
174.79632331250966
20
-239.63462999092823
42
-0.41421356237303258
10
173.79629418488099
20
-240.63460194248216
10
161.79628770978442
20
-240.63425888603246
42
-0.4142135623730534
10
160.79631575823069
20
-239.63422975840362
10
160.79665881468017
20
-227.63422328330719
42
-0.4142135623730534
10
161.79668794230912
20
-226.63425133175338
0
LINE
5
317
100
AcDbEntity
8
0
100
AcDbLine
10
116.64939480938892
20
-131.09540903065169
30
4.3042014397087769e-10
11
104.64938833432113
21
-131.09506497420125
31
4.3044234843137024e-10
0
ARC
5
318
100
AcDbEntity
8
0
100
AcDbCircle
10
104.6494169223586
20
-130.09506443460987
30
4.2716052917057823e-10
40
1.0000005399999925
210
4.4408896986055869e-15
220
-1.2695625266135843e-19
230
1
100
AcDbArc
50
179.99836202708235
51
269.99836202699294
0
LWPOLYLINE
5
319
100
AcDbEntity
8
0
100
AcDbPolyline
90
8
70
1
43
0.0
10
161.7961433401953
20
-245.68426161096883
10
173.7961498152917
20
-245.68460466741851
42
-0.4142135623730534
10
174.79612176684552
20
-246.68463379504718
10
174.79577871039592
20
-258.68464027014375
42
-0.41421356237310542
10
173.79574958276717
20
-259.68461222169759
10
161.79574310767069
20
-259.68426916524794
42
-0.41421356237310542
10
160.79577115611673
20
-258.68424003761908
10
160.79611421256635
20
-246.68423356252282
42
-0.41421356237313667
0
LINE
5
320
100
AcDbEntity
8
0
100
AcDbLine
10
104.64978856681724
20
-117.09505841992288
30
3.8447911521188871e-10
11
116.64979504191351
21
-117.09540147637256
31
3.8446135164349476e-10
0
ARC
5
321
100
AcDbEntity
8
0
100
AcDbCircle
10
116.64942339745494
20
-130.09540749105958
30
2.0031245771156027e-13
40
1.0000015400007682
210
9.3820576700042111e-17
220
3.2818142054544844e-12
230
1
100
AcDbArc
50
269.9983620269951
51
359.99836202708235
0
LWPOLYLINE
5
322
100
AcDbEntity
8
0
100
AcDbPolyline
90
8
70
1
43
0.0
10
85.594468416991774
20
-302.83211404015992
10
97.594474892088172
20
-302.83245709660952
42
-0.41421356237312101
10
98.594446843642004
20
-303.83248622423832
10
98.594103787192381
20
-315.83249269933464
42
-0.41421356237306384
10
97.59407465956356
20
-316.83246465088848
10
85.594068184467176
20
-316.83212159443877
42
-0.41421356237314183
10
84.594096232913344
20
-315.83209246681002
10
84.594439289363066
20
-303.83208599171383
42
-0.41421356237306384
0
LWPOLYLINE
5
323
100
AcDbEntity
8
0
100
AcDbPolyline
90
8
70
1
43
0.0
10
173.7994174279747
20
-131.38454299212577
42
-0.41421356237313145
10
174.79938937952838
20
-132.38457211975452
10
174.7990463230787
20
-144.38457859485089
42
-0.4142135623730846
10
173.79901719545006
20
-145.38455054640474
10
161.79901072035361
20
-145.38420748995512
42
-0.41421356237305862
10
160.79903876879982
20
-144.38417836232622
10
160.79938182524953
20
-132.38417188722985
42
-0.41421356237311063
10
161.79941095287819
20
-131.38419993567598
0
LWPOLYLINE
5
324
100
AcDbEntity
8
0
100
AcDbPolyline
90
8
70
1
43
0.0
10
141.74583163229397
20
-256.2086941000166
42
-0.41421356237310542
10
142.74586075992283
20
-255.20872214846264
10
154.74586723501915
20
-255.20906520491241
42
-0.41421356237308982
10
155.74583918657308
20
-256.20909433254121
10
155.74549613012343
20
-268.2091008076377
42
-0.41421356237304818
10
154.74546700249462
20
-269.20907275919154
10
142.74546052739825
20
-269.20872970274183
42
-0.41421356237311585
10
141.74548857584429
20
-268.20870057511308
0
LWPOLYLINE
5
325
100
AcDbEntity
8
0
100
AcDbPolyline
90
8
70
1
43
0.0
10
135.70205180484857
20
-38.5146536767231
42
-0.41421356237310414
10
136.70202375640253
20
-39.514682804351892
10
136.70154454942431
20
-56.277191849252091
42
-0.41421356237312362
10
135.70151542179553
20
-57.277163800806008
10
123.70150894669919
20
-57.276820744356343
42
-0.41421356237309243
10
122.70153699514526
20
-56.276791616727493
10
122.70201620212339
20
-39.51428257182728
42
-0.41421356237310281
10
123.70204532975221
20
-38.514310620273363
0
LWPOLYLINE
5
326
100
AcDbEntity
8
0
100
AcDbPolyline
90
8
70
1
43
0.0
10
123.69694790399578
20
-216.82065683278529
42
-0.414213562373069
10
122.69697595244189
20
-215.82062770515662
10
122.69731900889155
20
-203.82062123006023
42
-0.41421356237309503
10
123.69734813652038
20
-202.82064927850627
10
135.69735461161673
20
-202.820992334956
42
-0.41421356237315227
10
136.69732656317058
20
-203.82102146258489
10
136.69698350672104
20
-215.82102793768129
42
-0.41421356237313145
10
135.6969543790922
20
-216.82099988923528
0
LWPOLYLINE
5
327
100
AcDbEntity
8
0
100
AcDbPolyline
90
8
70
1
43
0.0
10
142.74967297471966
20
-121.85865019395443
10
154.74967944981597
20
-121.8589932504041
42
-0.41421356237312623
10
155.7496514013699
20
-122.85902237803296
10
155.74930834492019
20
-134.85902885312925
42
-0.41421356237309503
10
154.74927921729144
20
-135.85900080468306
10
142.74927274219505
20
-135.8586577482335
42
-0.414213562373069
10
141.7493007906412
20
-134.85862862060466
10
141.74964384709088
20
-122.85862214550831
42
-0.41421356237310025
0
LINE
5
328
100
AcDbEntity
8
0
100
AcDbLine
10
100.60033848794576
20
-97.782432217511371
30
3.2107649872159527e-10
11
100.60019554775843
21
-102.78243491546814
31
3.3747671324135271e-10
0
LINE
5
329
100
AcDbEntity
8
0
100
AcDbLine
10
117.64976699346741
20
-118.09543060400136
30
3.8775649358058217e-10
11
117.64942393704636
21
-130.095436079097
31
4.2716052917057823e-10
0
ARC
5
330
100
AcDbEntity
8
0
100
AcDbCircle
10
104.64975997877974
20
-118.0950589595142
30
-3.1566982286333018e-13
40
1.000000539999957
210
9.3947626911031233e-17
220
3.2862583769681345e-12
230
1
100
AcDbArc
50
89.998362026991273
51
179.99836202708235
0
LWPOLYLINE
5
331
100
AcDbEntity
8
0
100
AcDbPolyline
90
8
70
1
43
0.0
10
98.593559185078618
20
-334.88250297854984
42
-0.41421356237311585
10
97.593530057449726
20
-335.88247493010397
10
85.59352358235337
20
-335.88213187365432
42
-0.41421356237311063
10
84.59355163079951
20
-334.88210274602545
10
84.593894687249133
20
-322.88209627092925
42
-0.41421356237316787
10
85.593923814877982
20
-321.88212431937529
10
97.59393028997431
20
-321.88246737582506
42
-0.41421356237313667
10
98.59390224152817
20
-322.88249650345392
0
ARC
5
332
100
AcDbEntity
8
0
100
AcDbCircle
10
116.64976645387604
20
-118.09540201596386
30
3.8776093447268073e-10
40
1.0000005399999747
210
4.4408896986700526e-15
220
-1.2695625274208287e-19
230
1
100
AcDbArc
50
-0.0016379729176161022
51
89.998362026992908
0
LWPOLYLINE
5
333
100
AcDbEntity
8
0
100
AcDbPolyline
90
8
70
1
43
0.0
10
161.80009992458139
20
-107.28418693152405
42
-0.41421356237311063
10
160.80012797302749
20
-106.28415780389524
10
160.8004710295057
20
-94.284150328798347
42
-0.41421356237313667
10
161.80050015713454
20
-93.284178377244501
10
173.80050663223088
20
-93.284521433694209
42
-0.41421356237304818
10
174.80047858378467
20
-94.284550561322988
10
174.80013552730645
20
-106.28455803641992
42
-0.41421356237305862
10
173.80010639967762
20
-107.2845299879738
0
LWPOLYLINE
5
334
100
AcDbEntity
8
0
100
AcDbPolyline
90
8
70
1
43
0.0
10
136.69392279995924
20
-322.8835857076815
10
136.69357974350947
20
-334.88359218277765
42
-0.41421356237308982
10
135.69355061588072
20
-335.88356413433161
10
123.69354414078433
20
-335.88322107788201
42
-0.41421356237309503
10
122.69357218923032
20
-334.88319195025321
10
122.69391524568022
20
-322.88318547515695
42
-0.41421356237314183
10
123.69394437330891
20
-321.88321352360305
10
135.69395084840528
20
-321.88355658005264
42
-0.41421356237312623
0
LWPOLYLINE
5
335
100
AcDbEntity
8
0
100
AcDbPolyline
90
8
70
1
43
0.0
10
135.6995330200721
20
-126.62095121809413
42
-0.41421356237307422
10
136.69950497162597
20
-127.6209803457229
10
136.69916191517632
20
-139.62098682081913
42
-0.41421356237310542
10
135.69913278754746
20
-140.62095877237306
10
123.69912631245116
20
-140.62061571592346
42
-0.41421356237310025
10
122.69915436089731
20
-139.62058658829454
10
122.69949741734693
20
-127.62058011319837
42
-0.41421356237308982
10
123.6995265449757
20
-126.62060816164448
0
LWPOLYLINE
5
336
100
AcDbEntity
8
0
100
AcDbPolyline
90
8
70
1
43
0.0
10
142.74981734430889
20
-116.80864746901796
42
-0.41421356237310542
10
141.74984539275502
20
-115.80861834138913
10
141.7501884492047
20
-103.80861186629282
42
-0.41421356237308982
10
142.75021757683356
20
-102.80863991473893
10
154.75022405192985
20
-102.80898297118864
42
-0.41421356237310025
10
155.75019600348372
20
-103.80901209881742
10
155.74985294703413
20
-115.80901857391382
42
-0.41421356237309503
10
154.74982381940526
20
-116.80899052546772
0
LWPOLYLINE
5
337
100
AcDbEntity
8
0
100
AcDbPolyline
90
8
70
1
43
0.0
10
141.74494397373056
20
-287.25871085432823
10
141.74528703018018
20
-275.25870437923209
42
-0.41421356237312101
10
142.7453161578089
20
-274.25873242767801
10
154.7453226329053
20
-274.25907548412772
42
-0.41421356237313145
10
155.74529458445926
20
-275.25910461175658
10
155.74495152800966
20
-287.25911108685301
42
-0.41421356237306384
10
154.74492240038074
20
-288.25908303840697
10
142.74491592528443
20
-288.25873998195721
42
-0.41421356237315227
0
LWPOLYLINE
5
338
100
AcDbEntity
8
0
100
AcDbPolyline
90
8
70
1
43
0.0
10
155.75128520771142
20
-65.708991540387018
10
155.75094215126168
20
-77.70899801548336
42
-0.41421356237315227
10
154.7509130236329
20
-78.708969967037248
10
142.75090654853656
20
-78.708626910587554
42
-0.41421356237311324
10
141.75093459698269
20
-77.708597782958748
10
141.7512776534324
20
-65.708591307862392
42
-0.41421356237309243
10
142.75130678106115
20
-64.708619356308489
10
154.75131325615757
20
-64.708962412758183
42
-0.41421356237310542
0
LWPOLYLINE
5
339
100
AcDbEntity
8
0
100
AcDbPolyline
90
8
70
1
43
0.0
10
123.69898194286193
20
-145.67061844085993
10
135.69898841795828
20
-145.67096149730952
42
-0.41421356237308982
10
136.69896036951224
20
-146.67099062493838
10
136.69861731306253
20
-158.67099710003473
42
-0.41421356237311585
10
135.69858818543364
20
-159.67096905158868
10
123.69858171033728
20
-159.67062599513898
42
-0.4142135623730846
10
122.69860975878345
20
-158.67059686751014
10
122.69895281523306
20
-146.67059039241374
42
-0.41421356237310542
0
ENDSEC
0
SECTION
2
OBJECTS
0
DICTIONARY
5
C
100
AcDbDictionary
3
ACAD_GROUP
350
D
3
ACAD_MLINESTYLE
350
17
0
DICTIONARY
5
D
100
AcDbDictionary
0
DICTIONARY
5
1A
330
C
100
AcDbDictionary
0
DICTIONARY
5
17
100
AcDbDictionary
0
ENDSEC
0
EOF
