0
SECTION
2
HEADER
9
$INSUNITS
70
4
9
$ACADVER
1
AC1014
9
$HANDSEED
5
FFFF
0
ENDSEC
0
SECTION
2
TABLES
0
TABLE
2
VPORT
5
8
100
AcDbSymbolTable
0
ENDTAB
0
TABLE
2
LTYPE
5
5
100
AcDbSymbolTable
0
LTYPE
5
14
100
AcDbSymbolTableRecord
100
AcDbLinetypeTableRecord
2
BYBLOCK
70
0
0
LTYPE
5
15
100
AcDbSymbolTableRecord
100
AcDbLinetypeTableRecord
2
BYLAYER
70
0
0
ENDTAB
0
TABLE
2
LAYER
5
2
100
AcDbSymbolTable
70
2
0
LAYER
5
50
100
AcDbSymbolTableRecord
100
AcDbLayerTableRecord
2
0
70
0
6
CONTINUOUS
0
ENDTAB
0
TABLE
2
STYLE
5
3
100
AcDbSymbolTable
70
1
0
STYLE
5
11
100
AcDbSymbolTableRecord
100
AcDbTextStyleTableRecord
2
STANDARD
70
0
0
ENDTAB
0
TABLE
2
VIEW
5
6
100
AcDbSymbolTable
70
0
0
ENDTAB
0
TABLE
2
UCS
5
7
100
AcDbSymbolTable
70
0
0
ENDTAB
0
TABLE
2
APPID
5
9
100
AcDbSymbolTable
70
2
0
APPID
5
12
100
AcDbSymbolTableRecord
100
AcDbRegAppTableRecord
2
ACAD
70
0
0
ENDTAB
0
TABLE
2
DIMSTYLE
5
A
100
AcDbSymbolTable
70
1
0
ENDTAB
0
TABLE
2
BLOCK_RECORD
5
1
100
AcDbSymbolTable
70
1
0
BLOCK_RECORD
5
1F
100
AcDbSymbolTableRecord
100
AcDbBlockTableRecord
2
*MODEL_SPACE
0
BLOCK_RECORD
5
1B
100
AcDbSymbolTableRecord
100
AcDbBlockTableRecord
2
*PAPER_SPACE
0
ENDTAB
0
ENDSEC
0
SECTION
2
BLOCKS
0
BLOCK
5
20
100
AcDbEntity
100
AcDbBlockBegin
2
*MODEL_SPACE
0
ENDBLK
5
21
100
AcDbEntity
100
AcDbBlockEnd
0
BLOCK
5
1C
100
AcDbEntity
100
AcDbBlockBegin
2
*PAPER_SPACE
0
ENDBLK
5
1D
100
AcDbEntity
100
AcDbBlockEnd
0
ENDSEC
0
SECTION
2
ENTITIES
0
LWPOLYLINE
5
100
100
AcDbEntity
8
0
100
AcDbPolyline
90
13
70
1
43
0.0
10
117.65176976415206
20
-48.039143342254434
10
117.64671402001775
20
-48.039143197720705
10
117.64696364944989
20
-39.513834624394335
42
0.41421356237307161
10
116.64699293086355
20
-38.513805343838079
10
104.64698615782376
20
-38.513453971820219
42
0.28131620779193534
10
103.75716636237033
20
-39.057084778345072
42
-0.050752422234872072
10
103.64699051227326
20
-39.22697509628189
10
103.64699051227333
20
-47.503012386209527
42
-0.02447638644238289
10
103.65177473144882
20
-47.600742333388773
10
103.65166284755141
20
-51.514405799599459
42
0.41422193563567361
10
104.65166284714275
20
-52.514434387621485
10
116.6516704120464
20
-52.514434387621506
42
0.41420518916009513
10
117.65167041163777
20
-51.514462975643511
0
ARC
5
101
100
AcDbEntity
8
0
100
AcDbCircle
10
135.68944938180553
20
-292.02122743997114
30
0
40
0.99999999999999634
210
0
220
0
230
1
100
AcDbArc
50
269.99832232313821
51
359.99832232327111
0
LINE
5
102
100
AcDbEntity
8
0
100
AcDbLine
10
135.68942010082051
20
-293.02122743954243
30
0
11
123.68942010596473
21
-293.02087606772312
31
0
0
ARC
5
103
100
AcDbEntity
8
0
100
AcDbCircle
10
123.68944938694969
20
-292.02087606815178
30
0
40
1.0000000000000018
210
-4.4171546455028345e-15
220
-4.585493084041798e-16
230
1
100
AcDbArc
50
185.92670372730768
51
269.99832232314145
0
LINE
5
104
100
AcDbEntity
8
0
100
AcDbLine
10
122.69479458617347
20
-292.12413219287481
30
-4.4408920985006262e-15
11
122.69484133371293
21
-290.48891799549926
31
9.5382368670016149e-10
0
ARC
5
105
100
AcDbEntity
8
0
100
AcDbCircle
10
121.69484079412163
20
-290.4888894074619
30
9.5382368670016149e-10
40
1.0000005399999392
210
0
220
0
230
1
100
AcDbArc
50
-0.0016379729176161022
51
5.9260735001104869
0
LINE
5
106
100
AcDbEntity
8
0
100
AcDbLine
10
122.68949726772171
20
-290.38564416773761
30
9.5348617890067544e-10
11
122.68975731769191
21
-281.50445487202609
31
-4.4408920985006262e-15
0
ARC
5
107
100
AcDbEntity
8
0
100
AcDbCircle
10
121.68987160022986
20
-281.48889177077331
30
1.1747545778659776e-07
40
1.0000068290292901
210
9.2448432405423429e-10
220
-1.4389487609021569e-11
230
1
100
AcDbArc
50
359.10827007183752
51
359.99832232327111
0
LINE
5
108
100
AcDbEntity
8
0
100
AcDbLine
10
122.68987159980119
20
-281.48892105175838
30
9.2459817579992887e-10
11
122.68991460445379
21
-280.02023232269323
31
-4.4408920985006262e-15
0
ARC
5
109
100
AcDbEntity
8
0
100
AcDbCircle
10
123.68991460402505
20
-280.02026160367808
30
1.0651665750982013e-09
40
0.99999999999992584
210
2.5895316535355548e-12
220
-4.7893582747590817e-13
230
1
100
AcDbArc
50
169.52151018782246
51
179.99832232327111
0
ARC
5
110
100
AcDbEntity
8
0
100
AcDbCircle
10
123.68991460402505
20
-280.02026160367808
30
-1.4033241409609531e-10
40
0.99999999999992528
210
7.8540351724433892e-17
220
2.6822988263447094e-12
230
1
100
AcDbArc
50
89.998322323139064
51
169.52151018782246
0
LINE
5
111
100
AcDbEntity
8
0
100
AcDbLine
10
123.68994388501005
20
-279.02026160410685
30
6.0807359147929674e-10
11
135.6901541759556
21
-279.02061298208389
31
9.1617824438117168e-10
0
ARC
5
112
100
AcDbEntity
8
0
100
AcDbCircle
10
135.69012489497067
20
-280.02061298165518
30
6.1075589030679112e-10
40
0.99999999999996025
210
4.4408917813678358e-15
220
1.6783046432645799e-18
230
1
100
AcDbArc
50
0.021653256363774787
51
89.998322323143142
0
LINE
5
113
100
AcDbEntity
8
0
100
AcDbLine
10
136.69012482355865
20
-280.02023506104689
30
6.1075144941469262e-10
11
136.69461737089912
21
-291.90777683711724
31
9.5849994607988265e-10
0
LINE
5
114
100
AcDbEntity
8
0
100
AcDbLine
10
136.69480777839419
20
-291.92731900395637
30
9.5856211856926166e-10
11
136.69480509015887
21
-292.02125687422125
31
9.588729810161567e-10
0
LWPOLYLINE
5
115
100
AcDbEntity
8
0
100
AcDbPolyline
90
8
70
1
43
0.0
10
79.589128410195414
20
-228.68383676997456
10
79.589128410195485
20
-322.18349734967683
42
0.41421356237308465
10
80.0891284101954
20
-322.68349734967677
10
81.093100050735401
20
-322.68349734967677
42
0.41421356237310542
10
81.593100050736197
20
-322.18349734967671
10
81.593100050736183
20
-228.68383676997462
42
0.41421356237310542
10
81.093100050736169
20
-228.18383676997459
10
80.0891284101954
20
-228.18383676997459
42
0.41421356237310542
0
ARC
5
116
100
AcDbEntity
8
0
100
AcDbCircle
10
132.6761765789895
20
-346.38591564716842
30
6.1180394084203726e-10
40
1.9999999999999889
210
1.9349040641575333e-13
220
7.8270723236069952e-14
230
1
100
AcDbArc
50
202.02431283704058
51
270.00000000000159
0
LINE
5
117
100
AcDbEntity
8
0
100
AcDbLine
10
132.67617657898955
20
-348.38591564716836
30
6.1292304565085942e-10
11
136.13296143810118
21
-348.38591564716836
31
1.1439382774369733e-09
0
ARC
5
118
100
AcDbEntity
8
0
100
AcDbCircle
10
136.13296143810115
20
-346.38591564716842
30
-9.1562492927608168e-08
40
1.9999999999999574
210
-2.3634667150875134e-24
220
2.6610269543426171e-10
230
1
100
AcDbArc
50
270.0000000000008
51
337.97568716295973
0
ARC
5
119
100
AcDbEntity
8
0
100
AcDbCircle
10
139.84106068164903
20
-347.88591564716825
30
6.1176397281315076e-10
40
1.9999999999999574
210
0
220
9.7255536957165793e-13
230
1
100
AcDbArc
50
90
51
157.97568716296095
0
LINE
5
120
100
AcDbEntity
8
0
100
AcDbLine
10
139.84106068164903
20
-345.8859156471683
30
6.0981886207400748e-10
11
170.06525306327899
21
-345.88591564716819
31
1.1357403906231411e-09
0
ARC
5
121
100
AcDbEntity
8
0
100
AcDbCircle
10
170.06525306327899
20
-343.88591564716825
30
-8.9456178420738379e-08
40
1.9999999999999574
210
0
220
2.6191271373932626e-10
230
1
100
AcDbArc
50
-90
51
0
0
LINE
5
122
100
AcDbEntity
8
0
100
AcDbLine
10
172.06525306327899
20
-343.88591564716825
30
6.0729199446996063e-10
11
172.06525306327893
21
-340.88443365718945
31
1.1094947183210024e-09
0
ARC
5
123
100
AcDbEntity
8
0
100
AcDbCircle
10
174.06525306327893
20
-340.88443365718939
30
-3.9992779921639847e-12
40
1.9999999999999662
210
9.4201590288289604e-17
220
3.2951419357410024e-12
230
1
100
AcDbArc
50
89.998362026992638
51
180
0
LINE
5
124
100
AcDbEntity
8
0
100
AcDbLine
10
174.065310239323
20
-338.88443365800669
30
1.1126566334951349e-09
11
175.79389261791408
21
-338.88448307475784
31
1.1127543331213019e-09
0
ARC
5
125
100
AcDbEntity
8
0
100
AcDbCircle
10
175.79394979395818
20
-336.88448307557502
30
-5.5821563468749319e-11
40
2.0000000000001084
210
9.8581583428972675e-17
220
3.4483527130764236e-12
230
1
100
AcDbArc
50
269.99836202699186
51
359.99836202730484
0
LINE
5
126
100
AcDbEntity
8
0
100
AcDbLine
10
177.79394979314094
20
-336.88454025161917
30
1.1058576276923304e-09
11
177.80257623142276
21
-35.13444827320464
31
1.1536105404275077e-10
0
ARC
5
127
100
AcDbEntity
8
0
100
AcDbCircle
10
175.80257623224003
20
-35.134391097160574
30
1.1585399306568434e-10
40
2.0000000000000018
210
2.4646951136606789e-13
220
-7.0460758245445272e-18
230
1
100
AcDbArc
50
-0.0016379726951299411
51
89.998362026992638
0
LINE
5
128
100
AcDbEntity
8
0
100
AcDbLine
10
175.80263340828409
20
-33.134391097977847
30
1.0929479543619891e-10
11
174.0651958872329
21
-33.134341428075459
31
1.0880185641326534e-10
0
ARC
5
129
100
AcDbEntity
8
0
100
AcDbCircle
10
174.06525306327697
20
-31.134341428892974
30
1.035216357081481e-10
40
1.9999999999999929
210
-1.5543122344752248e-14
220
3.4512664603419513e-29
230
1
100
AcDbArc
50
180
51
269.99836202699265
0
LINE
5
130
100
AcDbEntity
8
0
100
AcDbLine
10
172.065253063277
20
-31.13434142889297
30
1.0349054946345859e-10
11
172.06525306327703
21
-28.133072877655707
31
1.1211476191874681e-10
0
ARC
5
131
100
AcDbEntity
8
0
100
AcDbCircle
10
170.06525306327703
20
-28.133072877655707
30
4.3077235330999275e-08
40
1.9999999999999929
210
2.4970248091449409e-10
220
0
230
1
100
AcDbArc
50
0
51
90
0
LINE
5
132
100
AcDbEntity
8
0
100
AcDbLine
10
170.06525306327703
20
-26.133072877655707
30
6.0962346282167346e-10
11
139.71404402785438
21
-26.133072877655707
31
-3.7426506338533727e-10
0
ARC
5
133
100
AcDbEntity
8
0
100
AcDbCircle
10
139.71404402785436
20
-24.133072877655707
30
1.1556652584456947e-09
40
1.9999999999999774
210
4.1888614580432199e-12
220
1.6944778913340173e-12
230
1
100
AcDbArc
50
202.02431283704004
51
270.0000000000008
0
ARC
5
134
100
AcDbEntity
8
0
100
AcDbCircle
10
136.00594478430648
20
-25.633072877655575
30
8.2672581943993683e-11
40
2.0000000000000169
210
-4.2073871352531532e-12
220
-1.7019718967502097e-12
230
1
100
AcDbArc
50
22.024312837040245
51
90.00000000000081
0
LINE
5
135
100
AcDbEntity
8
0
100
AcDbLine
10
136.00594478430645
20
-23.633072877655579
30
6.1017857433398603e-10
11
132.54915992519494
21
-23.633072877655607
31
7.7613471205495443e-11
0
ARC
5
136
100
AcDbEntity
8
0
100
AcDbCircle
10
132.54915992519494
20
-25.633072877655625
30
-6.2229655387129587e-09
40
2.0000000000000195
210
-2.3678843361566042e-24
220
2.6660007534928551e-10
230
1
100
AcDbArc
50
90
51
157.97568716295919
0
ARC
5
137
100
AcDbEntity
8
0
100
AcDbCircle
10
128.84106068164709
20
-24.13307287765571
30
6.1080029922777612e-10
40
1.9999999999999973
210
0
220
9.5923269327613666e-13
230
1
100
AcDbArc
50
270
51
337.97568716295899
0
LINE
5
138
100
AcDbEntity
8
0
100
AcDbLine
10
128.84106068164709
20
-26.133072877655707
30
6.1271876461432839e-10
11
98.616868300016961
21
-26.133072877655707
31
-3.7426506338533727e-10
0
ARC
5
139
100
AcDbEntity
8
0
100
AcDbCircle
10
98.616868300016961
20
-28.133072877655707
30
-1.3248094655890666e-08
40
1.9999999999999973
210
0
220
4.9262594004062593e-10
230
1
100
AcDbArc
50
90
51
180
0
LINE
5
140
100
AcDbEntity
8
0
100
AcDbLine
10
96.616868300016975
20
-28.133072877655707
30
6.156364307230433e-10
11
96.616868300017003
21
-31.132070156717774
31
-2.602940085694172e-10
0
ARC
5
141
100
AcDbEntity
8
0
100
AcDbCircle
10
94.616868300016975
20
-31.132070156717774
30
8.4360862314087471e-13
40
1.9999999999999973
210
9.3757243193414009e-17
220
3.2795988134025502e-12
230
1
100
AcDbArc
50
-90.001637973007746
51
0
0
LINE
5
142
100
AcDbEntity
8
0
100
AcDbLine
10
94.616811123972894
20
-33.132070155900493
30
1.0949463558063144e-10
11
83.580842648922584
21
-33.131754659390722
31
1.0878853373696984e-10
0
ARC
5
143
100
AcDbEntity
8
0
100
AcDbCircle
10
83.580785472878532
20
-35.131754658573144
30
-8.6899293985374566e-12
40
1.9999999999996954
210
1.0137462243291054e-16
220
3.5460523392042404e-12
230
1
100
AcDbArc
50
89.99836202699305
51
180.00248483570428
0
LINE
5
144
100
AcDbEntity
8
0
100
AcDbLine
10
81.580785474759352
20
-35.131841395703972
30
1.1588063841827534e-10
11
81.581123690925224
21
-42.930489157429371
31
1.4096723788270538e-10
0
ARC
5
145
100
AcDbEntity
8
0
100
AcDbCircle
10
79.581123692806074
20
-42.930575894560157
30
6.1041838250730507e-10
40
2.0000000000000107
210
0
220
9.7477581562088219e-13
230
1
100
AcDbArc
50
-90
51
0.0024848357042617699
0
LINE
5
146
100
AcDbEntity
8
0
100
AcDbLine
10
79.581123692806074
20
-44.930575894560164
30
6.1236793413854684e-10
11
76.581210431817851
21
-44.930575894560207
31
1.475486399726833e-10
0
ARC
5
147
100
AcDbEntity
8
0
100
AcDbCircle
10
76.581210431817851
20
-46.930575894560192
30
-1.0250255046712885e-08
40
1.9999999999999929
210
0
220
2.3141932814496696e-10
230
1
100
AcDbArc
50
90
51
180
0
LINE
5
148
100
AcDbEntity
8
0
100
AcDbLine
10
74.581210431817851
20
-46.930575894560192
30
6.1503691028974572e-10
11
74.581210431817837
21
-65.070014267246222
31
4.6532999675719111e-10
0
ARC
5
149
100
AcDbEntity
8
0
100
AcDbCircle
10
72.581210431817837
20
-65.070014267246236
30
3.5269937310195192e-10
40
2.0000000000000022
210
-7.9436457411932333e-13
220
3.0765607663811848e-12
230
1
100
AcDbArc
50
-75.522487814069663
51
0
0
ARC
5
150
100
AcDbEntity
8
0
100
AcDbCircle
10
73.581210431817865
20
-68.942997613453656
30
8.713195112154949e-10
40
2.0000000000000107
210
7.6494366396674921e-13
220
-2.9626140713300181e-12
230
1
100
AcDbArc
50
104.47751218593027
51
180
0
LINE
5
151
100
AcDbEntity
8
0
100
AcDbLine
10
71.581210431817851
20
-68.942997613453656
30
6.1543214968651228e-10
11
71.58121043181788
21
-72.07001426724625
31
8.8817841970012523e-15
0
ARC
5
152
100
AcDbEntity
8
0
100
AcDbCircle
10
73.581210431817865
20
-72.07001426724625
30
-2.1852002729545646e-08
40
1.999999999999984
210
-3.0527580463513247e-10
220
-1.3556969086675915e-24
230
1
100
AcDbArc
50
180
51
255.52248781406954
0
ARC
5
153
100
AcDbEntity
8
0
100
AcDbCircle
10
72.581210431817851
20
-75.942997613453656
30
4.4206299216284259e-10
40
2.0000000000000018
210
-2.3248070135650758e-12
220
1.0324217097079973e-26
230
1
100
AcDbArc
50
0
51
75.522487814070132
0
LINE
5
154
100
AcDbEntity
8
0
100
AcDbLine
10
74.581210431817851
20
-75.942997613453656
30
6.1544991325490628e-10
11
74.581210431817851
21
-186.05690798778471
31
3.2663693971812791e-09
0
ARC
5
155
100
AcDbEntity
8
0
100
AcDbCircle
10
72.581210431817851
20
-186.05690798778471
30
-1.9742414175681206e-11
40
1.9999999999999849
210
-7.9491968563164954e-13
220
3.0787107040236843e-12
230
1
100
AcDbArc
50
-75.522487814069549
51
0
0
ARC
5
156
100
AcDbEntity
8
0
100
AcDbCircle
10
73.58121043181788
20
-189.92989133399215
30
1.2508863589579633e-09
40
2.0000000000000213
210
7.9103390504544655e-13
220
-3.0636611405263058e-12
230
1
100
AcDbArc
50
104.47751218593005
51
180
0
LINE
5
157
100
AcDbEntity
8
0
100
AcDbLine
10
71.58121043181788
20
-189.9298913339922
30
6.1542326790231527e-10
11
71.581210431817851
21
-193.05633285578654
31
6.3391514260047188e-10
0
ARC
5
158
100
AcDbEntity
8
0
100
AcDbCircle
10
73.581210431817908
20
-193.05633285578654
30
1.4610504341642641e-09
40
2.0000000000000639
210
1.1555201240298259e-11
220
0
230
1
100
AcDbArc
50
180
51
255.54897711394958
0
ARC
5
159
100
AcDbEntity
8
0
100
AcDbCircle
10
72.583001117586406
20
-196.92977811356175
30
4.4184122545117483e-10
40
2.0000000000000018
210
-2.3248070135650758e-12
220
4.1296868388319893e-26
230
1
100
AcDbArc
50
0
51
75.548977113948624
0
LINE
5
160
100
AcDbEntity
8
0
100
AcDbLine
10
74.583001117586406
20
-196.92977811356178
30
6.1523230954207975e-10
11
74.583001117587045
21
-300.1352215667759
31
9.4252161630947739e-10
0
ARC
5
161
100
AcDbEntity
8
0
100
AcDbCircle
10
72.583001117585781
20
-300.1352215667759
30
-3.6976764345082979e-10
40
2.0000000000000191
210
-7.9923187830359224e-13
220
3.0752999253007662e-12
230
1
100
AcDbArc
50
-75.431823885494921
51
0
0
ARC
5
162
100
AcDbEntity
8
0
100
AcDbCircle
10
73.589128410195343
20
-304.00661768072064
30
1.5739257205360159e-09
40
2.0000000000000169
210
7.7409880036950479e-13
220
-2.9785923804799935e-12
230
1
100
AcDbArc
50
104.56817611450388
51
180
0
LINE
5
163
100
AcDbEntity
8
0
100
AcDbLine
10
71.589128410195343
20
-304.00661768072064
30
6.1609828350128737e-10
11
71.589128410195443
21
-307.13363433451326
31
0
0
ARC
5
164
100
AcDbEntity
8
0
100
AcDbCircle
10
73.5891284101954
20
-307.13363433451326
30
-2.1909746788027521e-08
40
1.9999999999999574
210
-3.0604851986027567e-10
220
0
230
1
100
AcDbArc
50
180
51
255.52248781406973
0
ARC
5
165
100
AcDbEntity
8
0
100
AcDbCircle
10
72.589128410195414
20
-311.00661768072064
30
4.4274180445062969e-10
40
2.0000000000000018
210
-2.3248070135650758e-12
220
4.1296868388319893e-26
230
1
100
AcDbArc
50
0
51
75.522487814070516
0
LINE
5
166
100
AcDbEntity
8
0
100
AcDbLine
10
74.589128410195414
20
-311.00661768072064
30
6.1614713331437088e-10
11
74.589128410195414
21
-324.68378048284671
31
-7.7213346827420537e-10
0
ARC
5
167
100
AcDbEntity
8
0
100
AcDbCircle
10
76.589128410195414
20
-324.68378048284671
30
-5.2316080772623858e-08
40
2.0000000000000018
210
-6.9103833766348482e-10
220
0
230
1
100
AcDbArc
50
180
51
270
0
LINE
5
168
100
AcDbEntity
8
0
100
AcDbLine
10
76.589128410195414
20
-326.68378048284666
30
6.1186167243931777e-10
11
79.593516399362031
21
-326.68378048284637
31
1.0726797228244322e-09
0
ARC
5
169
100
AcDbEntity
8
0
100
AcDbCircle
10
79.593516399362017
20
-328.6837804828466
30
4.2478228413422521e-10
40
2.0000000000000009
210
-2.3270274574259527e-12
220
-1.0091984252077585e-16
230
1
100
AcDbArc
50
0.0024848357042617699
51
89.999999999999588
0
LINE
5
170
100
AcDbEntity
8
0
100
AcDbLine
10
81.593516397481181
20
-328.68369374571586
30
6.1461946643248666e-10
11
81.593871943400018
21
-336.8819339948476
31
1.1061684901392255e-09
0
ARC
5
171
100
AcDbEntity
8
0
100
AcDbCircle
10
83.593871941519183
20
-336.8818472577168
30
1.1058887139370199e-09
40
1.9999999999999831
210
1.3988810097121787e-13
220
6.0667462633753481e-18
230
1
100
AcDbArc
50
180.00248483570428
51
269.99836202699225
0
LINE
5
172
100
AcDbEntity
8
0
100
AcDbLine
10
83.593814765475102
20
-338.8818472568995
30
1.1124434706744069e-09
11
94.616925476063201
21
-338.88216238583152
31
1.1127365695529079e-09
0
ARC
5
173
100
AcDbEntity
8
0
100
AcDbCircle
10
94.616868300019121
20
-340.8821623850144
30
1.1187850645910657e-09
40
1.9999999999999929
210
-2.220446049250321e-15
220
-7.8886090522101741e-29
230
1
100
AcDbArc
50
0
51
89.99836202699224
0
LINE
5
174
100
AcDbEntity
8
0
100
AcDbLine
10
96.616868300019121
20
-340.88216238501434
30
1.1187895054831642e-09
11
96.616868300019135
21
-343.8859156471683
31
1.1095080409972979e-09
0
ARC
5
175
100
AcDbEntity
8
0
100
AcDbCircle
10
98.616868300019092
20
-343.88591564716825
30
2.5167187469949963e-08
40
1.9999999999999574
210
2.4900081996293543e-10
220
8.846286191148804e-24
230
1
100
AcDbArc
50
180
51
270
0
LINE
5
176
100
AcDbEntity
8
0
100
AcDbLine
10
98.616868300019092
20
-345.8859156471683
30
6.1342486645798999e-10
11
128.96807733544165
21
-345.8859156471683
31
1.1095036001051994e-09
0
ARC
5
177
100
AcDbEntity
8
0
100
AcDbCircle
10
128.96807733544168
20
-347.88591564716819
30
6.1176397281315076e-10
40
1.9999999999999356
210
-2.1201608362578361e-13
220
-8.5764728652277742e-14
230
1
100
AcDbArc
50
22.024312837037836
51
90.00000000000081
0
LWPOLYLINE
5
178
100
AcDbEntity
8
0
100
AcDbPolyline
90
8
70
1
43
0.0
10
160.80101563159081
20
-75.234141049583926
10
160.80067257514133
20
-87.234147524679798
42
0.41421356237309509
10
161.80064452669515
20
-88.234176652308648
10
173.80065100179161
20
-88.234519708758285
42
0.41421356237311063
10
174.8006801294203
20
-87.23454775720441
10
174.80102318586998
20
-75.234541282108538
42
0.41421356237313928
10
173.80105123431608
20
-74.234512154479646
10
161.80104475921979
20
-74.234169098030051
42
0.41421356237308465
0
LWPOLYLINE
5
179
100
AcDbEntity
8
0
100
AcDbPolyline
90
8
70
1
43
0.0
10
97.595019494202006
20
-283.78244681739397
10
85.59501301910565
20
-283.78210376094449
42
0.41421356237309509
10
84.594983891476758
20
-284.78207571249834
10
84.594640835027121
20
-296.7820821875946
42
0.41421356237309509
10
85.594612786581052
20
-297.78211131522346
10
97.594619261677423
20
-297.78245437167317
42
0.41421356237308982
10
98.594648389306201
20
-296.78248242011927
10
98.59499144575588
20
-284.78247594502301
42
0.41421356237307422
0
LWPOLYLINE
5
180
100
AcDbEntity
8
0
100
AcDbPolyline
90
8
70
1
43
0.0
10
136.69589430249334
20
-253.92104849611215
10
136.69623735894299
20
-241.92104202101586
42
0.4142135623731002
10
135.69626540738909
20
-240.92101289338697
10
123.69625893229271
20
-240.92066983693729
42
0.41421356237307422
10
122.69622980466382
20
-241.9206417884912
10
122.69588674821426
20
-253.92064826358759
42
0.4142135623731002
10
123.69585869976817
20
-254.92067739121643
10
135.69586517486451
20
-254.921020447666
42
0.41421356237308465
0
LWPOLYLINE
5
181
100
AcDbEntity
8
0
100
AcDbPolyline
90
8
70
1
43
0.0
10
155.74767453857868
20
-192.00905969077564
10
155.7480175950283
20
-180.00905321567927
42
0.41421356237310542
10
154.74804564347448
20
-179.00902408805052
10
142.74803916837817
20
-179.00868103160082
42
0.41421356237310542
10
141.74801004074939
20
-180.00865298315478
10
141.74766698429971
20
-192.00865945825103
42
0.41421356237307944
10
142.74763893585353
20
-193.00868858587992
10
154.74764541094993
20
-193.00903164232946
42
0.41421356237308465
0
LWPOLYLINE
5
182
100
AcDbEntity
8
0
100
AcDbPolyline
90
8
70
1
43
0.0
10
123.70021551667878
20
-102.52059515749259
10
135.70022199177512
20
-102.52093821394226
42
0.41421356237310542
10
136.70025111940402
20
-101.52096626238831
10
136.70059417585355
20
-89.520959787292014
42
0.41421356237307422
10
135.70062222429976
20
-88.520930659663179
10
123.70061574920342
20
-88.520587603213528
42
0.41421356237310542
10
122.70058662157453
20
-89.520559554767431
10
122.70024356512491
20
-101.5205660298637
42
0.41421356237309509
0
LWPOLYLINE
5
183
100
AcDbEntity
8
0
100
AcDbPolyline
90
8
70
1
43
0.0
10
135.69572080527527
20
-259.97102317260237
10
123.69571433017889
20
-259.97068011615278
42
0.41421356237310542
10
122.69568520255001
20
-260.97065206770657
10
122.69534214610044
20
-272.97065854280305
42
0.41421356237308982
10
123.69531409765428
20
-273.97068767043186
10
135.69532057275063
20
-273.97103072688151
42
0.41421356237309509
10
136.6953497003795
20
-272.97105877532761
10
136.69569275682909
20
-260.97105230023118
42
0.41421356237308465
0
LWPOLYLINE
5
184
100
AcDbEntity
8
0
100
AcDbPolyline
90
8
70
1
43
0.0
10
103.65084864341598
20
-79.995009813045826
10
103.65050558696632
20
-91.995016288142153
42
0.41421356237310542
10
104.65047753852025
20
-92.995045415770988
10
116.65048401361658
20
-92.995388472220668
42
0.41421356237310542
10
117.65051314124543
20
-91.995416520666737
10
117.65085619769513
20
-79.995410045570409
42
0.41421356237312362
10
116.65088424614113
20
-78.995380917941588
10
104.65087777104486
20
-78.995037861491909
42
0.41421356237310281
0
LWPOLYLINE
5
185
100
AcDbEntity
8
0
100
AcDbPolyline
90
8
70
1
43
0.0
10
141.74392552489567
20
-322.8837300772708
10
141.74358246844579
20
-334.88373655236683
42
0.41421356237309509
10
142.74355441999978
20
-335.88376567999609
10
154.74356089509615
20
-335.88410873644534
42
0.4142135623730534
10
155.7435900227249
20
-334.88413678489167
10
155.7439330791747
20
-322.88413030979535
42
0.41421356237308982
10
154.74396112762074
20
-321.8841011821666
10
142.74395465252437
20
-321.88375812571672
42
0.41421356237315754
0
LWPOLYLINE
5
186
100
AcDbEntity
8
0
100
AcDbPolyline
90
8
70
1
43
0.0
10
97.596653300543522
20
-226.63241597974763
10
85.596646825447138
20
-226.6320729232979
42
0.41421356237311063
10
84.596617697818246
20
-227.63204487485189
10
84.595185437140941
20
-277.73207190837928
42
0.41421356237308465
10
85.595157388694858
20
-278.73210103600809
10
97.595163863791171
20
-278.73244409245774
42
0.414213562373069
10
98.595192991420078
20
-277.73247214090395
10
98.596625252097411
20
-227.63244510737655
42
0.41421356237308982
0
LWPOLYLINE
5
187
100
AcDbEntity
8
0
100
AcDbPolyline
90
8
70
1
43
0.0
10
117.64561172222091
20
-263.44550903360607
10
117.64595477867056
20
-251.4455025585097
42
0.41421356237308982
10
116.64598282711668
20
-250.44547343088084
10
104.64597635202031
20
-250.44513037443122
42
0.4142135623731002
10
103.64594722439148
20
-251.44510232598506
10
103.64560416794185
20
-263.4451088010814
42
0.41421356237308465
10
104.64557611949571
20
-264.44513792871027
10
116.64558259459201
20
-264.44548098515986
42
0.414213562373069
0
LWPOLYLINE
5
188
100
AcDbEntity
8
0
100
AcDbPolyline
90
8
70
1
43
0.0
10
155.74712993646497
20
-211.05906996999101
10
155.74747299291454
20
-199.05906349489467
42
0.41421356237310542
10
154.74750104136069
20
-198.05903436726589
10
142.74749456626432
20
-198.0586913108161
42
0.41421356237312101
10
141.74746543863552
20
-199.05866326237015
10
141.74712238218589
20
-211.05866973746654
42
0.41421356237308465
10
142.74709433373971
20
-212.05869886509518
10
154.74710080883605
20
-212.05904192154489
42
0.41421356237307422
0
LWPOLYLINE
5
189
100
AcDbEntity
8
0
100
AcDbPolyline
90
8
70
1
43
0.0
10
141.74909924497706
20
-141.90863242472375
10
141.7487561885273
20
-153.90863889982012
42
0.41421356237311063
10
142.74872814008125
20
-154.90866802744898
10
154.7487346151776
20
-154.9090110838986
42
0.41421356237309509
10
155.7487637428064
20
-153.9090391323447
10
155.74910679925614
20
-141.90903265724836
42
0.41421356237313667
10
154.74913484770212
20
-140.90900352961953
10
142.74912837260581
20
-140.90866047316993
42
0.41421356237308982
0
LWPOLYLINE
5
190
100
AcDbEntity
8
0
100
AcDbPolyline
90
8
70
1
43
0.0
10
173.79560521317788
20
-264.73461494663405
10
161.79559873808148
20
-264.73427189018435
42
0.41421356237310542
10
160.79556961045256
20
-265.73424384173808
10
160.79522655400294
20
-277.73425031683462
42
0.41421356237306384
10
161.79519850555678
20
-278.73427944446325
10
173.79520498065324
20
-278.73462250091313
42
0.41421356237309509
10
174.79523410828199
20
-277.73465054935923
10
174.7955771647317
20
-265.73464407426275
42
0.41421356237309509
0
LWPOLYLINE
5
191
100
AcDbEntity
8
0
100
AcDbPolyline
90
8
70
1
43
0.0
10
116.6444851713036
20
-302.83300169872336
10
104.64447869620726
20
-302.83265864227371
42
0.41421356237311063
10
103.64444956857852
20
-303.83263059382767
10
103.64410651212872
20
-315.83263706892382
42
0.41421356237308465
10
104.6440784636826
20
-316.83266619655274
10
116.64408493877907
20
-316.83300925300239
42
0.41421356237310542
10
117.64411406640782
20
-315.83303730144854
10
117.6444571228575
20
-303.83303082635223
42
0.41421356237310542
0
LINE
5
192
100
AcDbEntity
8
0
100
AcDbLine
10
158.79416734578913
20
-314.74721311265478
30
1.0334666455946717e-09
11
158.79431028597662
21
-309.74721041469775
31
1.0170664310749089e-09
0
ARC
5
193
100
AcDbEntity
8
0
100
AcDbCircle
10
159.79431082556798
20
-309.74723900273523
30
5.2975392327532487e-13
40
1.000000539999957
210
9.3820670658450455e-17
220
3.281817487269587e-12
230
1
100
AcDbArc
50
89.998362026993718
51
179.99836202708235
0
ARC
5
194
100
AcDbEntity
8
0
100
AcDbCircle
10
159.79436800164291
20
-307.74723792355269
30
1.2869583218038426e-11
40
1.0000005399998504
210
9.2678064442814699e-17
220
3.2418494799824817e-12
230
1
100
AcDbArc
50
269.99836202699214
51
359.99836202708235
0
LINE
5
195
100
AcDbEntity
8
0
100
AcDbLine
10
160.79436854123423
20
-307.74726651159017
30
1.0105249970138175e-09
11
160.79479381687969
21
-292.87125848462898
31
9.6163965679352259e-10
0
ARC
5
196
100
AcDbEntity
8
0
100
AcDbCircle
10
159.79479327728825
20
-292.87122989659156
30
9.6163965679352259e-10
40
1.0000005400000636
210
0
220
0
230
1
100
AcDbArc
50
-0.0016379729176161022
51
89.998362026992098
0
ARC
5
197
100
AcDbEntity
8
0
100
AcDbCircle
10
159.79485045336324
20
-290.87122881740873
30
9.5508045916403717e-10
40
1.0000005400000103
210
0
220
0
230
1
100
AcDbArc
50
179.99836202708235
51
269.99836202699049
0
LINE
5
198
100
AcDbEntity
8
0
100
AcDbLine
10
158.79484991377186
20
-290.87120022937131
30
9.5508045916403717e-10
11
158.79499285395926
21
-285.87119753141462
31
9.3867580375217585e-10
0
ARC
5
199
100
AcDbEntity
8
0
100
AcDbCircle
10
159.79499339355058
20
-285.8712261194521
30
-7.6921813287313855e-13
40
1.0000005399999925
210
9.3947626969401899e-17
220
3.286258376968076e-12
230
1
100
AcDbArc
50
89.998362026992098
51
179.99836202708235
0
LINE
5
200
100
AcDbEntity
8
0
100
AcDbLine
10
159.79502198158806
20
-284.87122557986072
30
9.3537622092298989e-10
11
172.79502899627599
21
-284.87159722434785
31
9.3539398449138389e-10
0
ARC
5
201
100
AcDbEntity
8
0
100
AcDbCircle
10
172.79500040823845
20
-285.87159776393923
30
9.3867580375217585e-10
40
1.000000540000028
210
0
220
0
230
1
100
AcDbArc
50
-0.0016379729176161022
51
89.998362026988843
0
LINE
5
202
100
AcDbEntity
8
0
100
AcDbLine
10
173.79500094782983
20
-285.87162635197666
30
9.3867580375217585e-10
11
173.79480923790845
21
-292.5775789704486
31
9.6068042410024646e-10
0
ARC
5
203
100
AcDbEntity
8
0
100
AcDbCircle
10
174.79480977749972
20
-292.57760755848608
30
9.6070262856073896e-10
40
1.0000005399999214
210
-2.220444849302912e-14
220
6.3478126291242985e-19
230
1
100
AcDbArc
50
179.99836202708235
51
239.99836753957231
0
ARC
5
204
100
AcDbEntity
8
0
100
AcDbCircle
10
173.79475972196971
20
-294.30963090504844
30
9.6638252955472126e-10
40
1.0000005399999214
210
0
220
0
230
1
100
AcDbArc
50
-0.0016379729176161022
51
59.998362027172504
0
LINE
5
205
100
AcDbEntity
8
0
100
AcDbLine
10
174.79476026156101
20
-294.30965949308592
30
9.6638252955472126e-10
11
174.79441685542977
21
-306.30966576627208
31
1.0057998878210128e-09
0
ARC
5
206
100
AcDbEntity
8
0
100
AcDbCircle
10
173.79441666552003
20
-306.30963738014481
30
4.839453625803047e-12
40
1.0000001903126241
210
-1.4210153311106274e-12
220
2.4614321082545266e-12
230
1
100
AcDbArc
50
299.9983735945595
51
359.99837359504147
0
ARC
5
207
100
AcDbEntity
8
0
100
AcDbCircle
10
174.7943676892009
20
-308.04171690278156
30
-1.4340906125318553e-12
40
1.0000001903118052
210
-1.4298966769315979e-12
220
2.4768160589329384e-12
230
1
100
AcDbArc
50
119.99837359456656
51
179.99836202708235
0
LINE
5
208
100
AcDbEntity
8
0
100
AcDbLine
10
173.79436749929769
20
-308.04168831475403
30
1.0114709070307981e-09
11
173.79417543965988
21
-314.74764193321687
31
1.0334666455946717e-09
0
ARC
5
209
100
AcDbEntity
8
0
100
AcDbCircle
10
172.79417490006836
20
-314.74761334517916
30
5.741628442960033e-13
40
1.0000005399999925
210
9.3820670658443799e-17
220
3.2818174872694707e-12
230
1
100
AcDbArc
50
269.99836202699214
51
359.99836202708235
0
LINE
5
210
100
AcDbEntity
8
0
100
AcDbLine
10
172.79414631203088
20
-315.74761388477049
30
1.0367839919922517e-09
11
159.79413929734304
21
-315.74724224028364
31
1.0367662284238577e-09
0
ARC
5
211
100
AcDbEntity
8
0
100
AcDbCircle
10
159.79416788538057
20
-314.74724170069214
30
1.0334844091630657e-09
40
1.0000005400000991
210
-1.7763558794420139e-14
220
5.0782500906758742e-19
230
1
100
AcDbArc
50
179.99836202708235
51
269.99836202698884
0
LWPOLYLINE
5
212
100
AcDbEntity
8
0
100
AcDbPolyline
90
8
70
1
43
0.0
10
117.64615632433474
20
-244.39549875439056
10
117.64649938078441
20
-232.39549227929416
42
0.41421356237304818
10
116.64652742923056
20
-231.39546315166547
10
104.64652095413419
20
-231.3951200952157
42
0.4142135623731002
10
103.64649182650527
20
-232.39509204676963
10
103.64614877005563
20
-244.39509852186589
42
0.4142135623731002
10
104.64612072160955
20
-245.39512764949481
10
116.64612719670592
20
-245.39547070594435
42
0.41421356237307422
0
LWPOLYLINE
5
213
100
AcDbEntity
8
0
100
AcDbPolyline
90
8
70
1
43
0.0
10
123.69967091456495
20
-121.57060543670798
10
135.6996773896613
20
-121.57094849315772
42
0.41421356237308982
10
136.69970651729014
20
-120.57097654160386
10
136.70004957373979
20
-108.57097006650744
42
0.4142135623731002
10
135.70007762218592
20
-107.57094093887866
10
123.70007114708957
20
-107.57059788242901
42
0.41421356237309509
10
122.70004201946074
20
-108.57056983398283
10
122.69969896301107
20
-120.57057630907923
42
0.4142135623731002
0
LWPOLYLINE
5
214
100
AcDbEntity
8
0
100
AcDbPolyline
90
8
70
1
43
0.0
10
141.75195840607472
20
-41.896078458842958
10
141.75161534962498
20
-53.896084933939392
42
0.4142135623730977
10
142.75158730117883
20
-54.896114061568255
10
154.7515937762752
20
-54.896457118017878
42
0.41421356237309509
10
155.75162290390404
20
-53.896485166463997
10
155.75196596035369
20
-41.896478691367562
42
0.41421356237308726
10
154.75199400879984
20
-40.896449563738706
10
142.75198753370344
20
-40.896106507289133
42
0.41421356237309243
0
LWPOLYLINE
5
215
100
AcDbEntity
8
0
100
AcDbPolyline
90
8
70
1
43
0.0
10
142.74818353796744
20
-173.95867830666444
10
154.74819001306375
20
-173.95902136311418
42
0.41421356237309509
10
155.74821914069264
20
-172.95904941156022
10
155.74856219714221
20
-160.95904293646379
42
0.41421356237308465
10
154.7485902455883
20
-159.95901380883501
10
142.74858377049196
20
-159.95867075238533
42
0.41421356237310542
10
141.74855464286316
20
-160.95864270393929
10
141.74821158641353
20
-172.9586491790356
42
0.41421356237310542
0
LWPOLYLINE
5
216
100
AcDbEntity
8
0
100
AcDbPolyline
90
8
70
1
43
0.0
10
141.74692083652167
20
-218.10867354158563
10
141.74657778007207
20
-230.10868001668211
42
0.4142135623731002
10
142.74654973162592
20
-231.10870914431081
10
154.74655620672229
20
-231.1090522007606
42
0.41421356237309509
10
155.74658533435118
20
-230.10908024920667
10
155.74692839080075
20
-218.10907377411016
42
0.41421356237308465
10
154.74695643924684
20
-217.10904464648144
10
142.74694996415059
20
-217.10870159003176
42
0.4142135623731002
0
LWPOLYLINE
5
217
100
AcDbEntity
8
0
100
AcDbPolyline
90
8
70
1
43
0.0
10
160.79774801890781
20
-189.53420272487634
10
160.79740496245833
20
-201.53420919997268
42
0.41421356237307422
10
161.79737691401212
20
-202.53423832760137
10
173.79738338910869
20
-202.53458138405114
42
0.4142135623730222
10
174.79741251673738
20
-201.53460943249726
10
174.79775557318709
20
-189.53460295740089
42
0.41421356237312629
10
173.79778362163319
20
-188.53457382977209
10
161.7977771465367
20
-188.53423077332226
42
0.41421356237311585
0
LWPOLYLINE
5
218
100
AcDbEntity
8
0
100
AcDbPolyline
90
8
70
1
43
0.0
10
97.601350493775371
20
-62.326077321514674
10
85.601344018678972
20
-62.325734265065044
42
0.41421356237309509
10
84.601314891050123
20
-63.325706216618926
10
84.600767608807743
20
-82.469466546421614
42
0.41421356237311063
10
85.600739560361703
20
-83.469495674050449
10
97.60074603545803
20
-83.469838730500101
42
0.41421356237339679
10
98.600775163086865
20
-82.469866778945203
10
98.601322445329203
20
-63.326106449143523
42
0.41421356237307944
0
LWPOLYLINE
5
219
100
AcDbEntity
8
0
100
AcDbPolyline
90
8
70
1
43
0.0
10
122.69786361100546
20
-184.7706109508448
10
122.69752055455571
20
-196.77061742594111
42
0.414213562373069
10
123.6974925061096
20
-197.77064655356995
10
135.69749898120602
20
-197.77098961001954
42
0.41421356237307944
10
136.69752810883489
20
-196.77101765846569
10
136.69787116528451
20
-184.77101118336932
42
0.4142135623731002
10
135.69789921373061
20
-183.77098205574055
10
123.69789273863418
20
-183.77063899929087
42
0.41421356237310542
0
LWPOLYLINE
5
220
100
AcDbEntity
8
0
100
AcDbPolyline
90
8
70
1
43
0.0
10
161.80173373092282
20
-50.134156093878218
10
173.80174020604773
20
-50.134498150327346
42
0.41421356237310542
10
174.80176833364743
20
-49.13452719874541
10
174.80211239009753
20
-37.134520723677618
42
0.41421356237306384
10
173.8021404385438
20
-36.134491596048804
10
161.80213396344743
20
-36.134148539599124
42
0.41421356237308854
10
160.80210483581857
20
-37.134120491153013
10
160.80176177936889
20
-49.134126966249383
42
0.4142135623730977
0
LWPOLYLINE
5
221
100
AcDbEntity
8
0
100
AcDbPolyline
90
8
70
1
43
0.0
10
174.79850172099347
20
-163.43458787406564
10
174.79884477741462
20
-151.43458239896984
42
0.41421356237311585
10
173.79887282586077
20
-150.43455327134095
10
161.7988663507644
20
-150.43421021489141
42
0.41421356237308982
10
160.79883722313556
20
-151.43418216644523
10
160.79849416671451
20
-163.43418764154106
42
0.41421356237310542
10
161.79846611826846
20
-164.43421676916995
10
173.79847259336475
20
-164.43455982561957
42
0.41421356237310542
0
LWPOLYLINE
5
222
100
AcDbEntity
8
0
100
AcDbPolyline
90
8
70
1
43
0.0
10
122.69677440677775
20
-222.87063150927568
10
122.69643135032807
20
-234.87063798437202
42
0.41421356237309509
10
123.69640330188196
20
-235.87066711200092
10
135.6964097769783
20
-235.87101016845048
42
0.41421356237311585
10
136.69643890460708
20
-234.87103821689655
10
136.6967819610569
20
-222.87103174180021
42
0.41421356237311585
10
135.69681000950288
20
-221.8710026141714
10
123.69680353440654
20
-221.87065955772186
42
0.41421356237308465
0
LWPOLYLINE
5
223
100
AcDbEntity
8
0
100
AcDbPolyline
90
8
70
1
43
0.0
10
103.65030404130218
20
-99.04502009226124
10
103.64996098485253
20
-111.04502656735768
42
0.4142135623731002
10
104.6499329364064
20
-112.0450556949865
10
116.64993941150271
20
-112.04539875143615
42
0.41421356237308465
10
117.64996853913161
20
-111.04542679988226
10
117.6503115955812
20
-99.045420324785852
42
0.41421356237307944
10
116.6503396440274
20
-98.045391197157073
10
104.65033316893098
20
-98.04504814070738
42
0.41421356237308982
0
LWPOLYLINE
5
224
100
AcDbEntity
8
0
100
AcDbPolyline
90
8
70
1
43
0.0
10
141.75073305131852
20
-84.758601587077393
10
141.7503899948689
20
-96.758608062173721
42
0.41421356237308982
10
142.75036194642271
20
-97.758637189802528
10
154.75036842151911
20
-97.758980246252221
42
0.41421356237310542
10
155.75039754914786
20
-96.759008294698333
10
155.75074060559757
20
-84.759001819601991
42
0.41421356237312101
10
154.75076865404364
20
-83.758972691973113
10
142.75076217894733
20
-83.758629635524471
42
0.41421356237280893
0
LWPOLYLINE
5
225
100
AcDbEntity
8
0
100
AcDbPolyline
90
8
70
1
43
0.0
10
136.69807271094868
20
-177.72100737925024
10
136.69841576739833
20
-165.72100090415387
42
0.41421356237308982
10
135.69844381584443
20
-164.72097177652503
10
123.69843734074803
20
-164.72062872007541
42
0.41421356237307422
10
122.69840821311922
20
-165.72060067162923
10
122.69806515666959
20
-177.72060714672568
42
0.41421356237307944
10
123.69803710822345
20
-178.7206362743544
10
135.69804358331987
20
-178.7209793308042
42
0.41421356237311063
0
LWPOLYLINE
5
226
100
AcDbEntity
8
0
100
AcDbPolyline
90
8
70
1
43
0.0
10
104.64353386156886
20
-335.88267647576833
10
116.64354033666521
20
-335.88301953221765
42
0.414213562373069
10
117.64356946429396
20
-334.88304758066386
10
117.64391252074364
20
-322.8830411055676
42
0.41421356237311585
10
116.64394056918974
20
-321.88301197793885
10
104.64393409409345
20
-321.88266892148897
42
0.41421356237309509
10
103.64390496646448
20
-322.88264087304304
10
103.64356191001485
20
-334.88264734813924
42
0.41421356237313667
0
LWPOLYLINE
5
227
100
AcDbEntity
8
0
100
AcDbPolyline
90
8
70
1
43
0.0
10
85.59822077558519
20
-171.57579321542102
10
97.598227250681546
20
-171.57613627187078
42
0.41421356237311063
10
98.598256378310438
20
-170.57616432031679
10
98.598803660552775
20
-151.43240399051453
42
0.41421356237308465
10
97.598831708998858
20
-150.43237486288561
10
85.598825233902488
20
-150.43203180643604
42
0.41421356237310542
10
84.59879610627371
20
-151.43200375798986
10
84.598248824031202
20
-170.57576408779224
42
0.41421356237309509
0
LWPOLYLINE
5
228
100
AcDbEntity
8
0
100
AcDbPolyline
90
8
70
1
43
0.0
10
104.64720992583722
20
-207.29510709106367
10
116.64721640093364
20
-207.29545014751329
42
0.41421356237306384
10
117.64724552856239
20
-206.29547819595956
10
117.64758858501203
20
-194.29547172086328
42
0.41421356237307422
10
116.64761663345817
20
-193.29544259323444
10
104.64761015836187
20
-193.29509953678468
42
0.41421356237313145
10
103.64758103073291
20
-194.29507148833878
10
103.6472379742834
20
-206.29507796343501
42
0.41421356237308465
0
LWPOLYLINE
5
229
100
AcDbEntity
8
0
100
AcDbPolyline
90
8
70
1
43
0.0
10
117.6483347327901
20
-168.19545763752865
10
117.64867778923974
20
-156.19545116243228
42
0.41421356237309509
10
116.64870583768582
20
-155.19542203480347
10
104.6486993625895
20
-155.19507897835382
42
0.41421356237308982
10
103.64867023496068
20
-156.19505092990772
10
103.64832717851101
20
-168.19505740500406
42
0.41421356237308982
10
104.64829913006488
20
-169.19508653263281
10
116.64830560516126
20
-169.19542958908252
42
0.41421356237308465
0
LWPOLYLINE
5
230
100
AcDbEntity
8
0
100
AcDbPolyline
90
8
70
1
43
0.0
10
161.79683231189827
20
-221.58424860681689
10
173.79683878699478
20
-221.58459166326651
42
0.4142135623730534
10
174.79686791462353
20
-220.5846197117128
10
174.7972109710733
20
-208.58461323661626
42
0.41421356237311585
10
173.79723901951931
20
-207.58458410898757
10
161.79723254442291
20
-207.58424105253783
42
0.41421356237307422
10
160.79720341679408
20
-208.58421300409168
10
160.7968603603444
20
-220.58421947918816
42
0.41421356237309509
0
LWPOLYLINE
5
231
100
AcDbEntity
8
0
100
AcDbPolyline
90
8
70
1
43
0.0
10
116.64925043979969
20
-136.14541175558799
10
104.64924396470332
20
-136.14506869913839
42
0.41421356237311063
10
103.64921483707448
20
-137.14504065069215
10
103.64887178062482
20
-149.14504712578855
42
0.41421356237309509
10
104.64884373217872
20
-150.14507625341741
10
116.64885020727509
20
-150.14541930986712
42
0.41421356237308465
10
117.64887933490398
20
-149.14544735831322
10
117.6492223913535
20
-137.14544088321679
42
0.41421356237308465
0
LWPOLYLINE
5
232
100
AcDbEntity
8
0
100
AcDbPolyline
90
8
70
1
43
0.0
10
117.64779013067626
20
-187.24546791674419
10
117.64813318712589
20
-175.24546144164782
42
0.41421356237309509
10
116.64816123557202
20
-174.24543231401896
10
104.64815476047569
20
-174.24508925756936
42
0.41421356237311063
10
103.64812563284687
20
-175.24506120912326
10
103.64778257639716
20
-187.24506768421952
42
0.41421356237309509
10
104.64775452795107
20
-188.24509681184844
10
116.64776100304738
20
-188.24543986829809
42
0.41421356237308465
0
LWPOLYLINE
5
233
100
AcDbEntity
8
0
100
AcDbPolyline
90
8
70
1
43
0.0
10
104.64666532372343
20
-226.34511737027921
10
116.64667179881977
20
-226.34546042672892
42
0.41421356237308465
10
117.64670092644852
20
-225.34548847517499
10
117.64704398289825
20
-213.34548200007879
42
0.41421356237310542
10
116.64707203134432
20
-212.34545287244987
10
104.64706555624795
20
-212.34510981600022
42
0.41421356237313145
10
103.64703642861917
20
-213.34508176755418
10
103.64669337216952
20
-225.34508824265043
42
0.41421356237310542
0
LWPOLYLINE
5
234
100
AcDbEntity
8
0
100
AcDbPolyline
90
8
70
1
43
0.0
10
174.79959092519252
20
-125.33456831563535
10
174.79993398164223
20
-113.33456184053895
42
0.41421356237312101
10
173.79996203008832
20
-112.33453271291013
10
161.7999555549921
20
-112.33418965646052
42
0.4142135623731002
10
160.79992642736315
20
-113.33416160801443
10
160.79958337091367
20
-125.33416808311075
42
0.41421356237307422
10
161.79955532246743
20
-126.33419721073952
10
173.7995617975638
20
-126.33454026718921
42
0.41421356237308465
0
LWPOLYLINE
5
235
100
AcDbEntity
8
0
100
AcDbPolyline
90
8
70
1
43
0.0
10
161.80118912880897
20
-69.18416637309366
10
173.80119560390528
20
-69.184509429543311
42
0.41421356237308204
10
174.80122473153403
20
-68.184537477989437
10
174.8015677879838
20
-56.184531002893053
42
0.41421356237312884
10
173.80159583642984
20
-55.184501875264267
10
161.8015893613335
20
-55.184158818814552
42
0.41421356237308465
10
160.80156023370478
20
-56.184130770368469
10
160.80121717725515
20
-68.184137245464811
42
0.41421356237307683
0
LINE
5
236
100
AcDbEntity
8
0
100
AcDbLine
10
99.600166420129582
20
-103.78240686702358
30
3.4077629607054405e-10
11
86.6001594054419
21
-103.7820352225375
31
3.4075853250215005e-10
0
ARC
5
237
100
AcDbEntity
8
0
100
AcDbCircle
10
86.600187993479381
20
-102.78203468294609
30
3.3749891770185059e-10
40
1.0000005400000103
210
0
220
0
230
1
100
AcDbArc
50
179.99836202708235
51
269.99836202699214
0
LINE
5
238
100
AcDbEntity
8
0
100
AcDbLine
10
85.600187453888012
20
-102.7820060949086
30
3.3749891770185059e-10
11
85.600242105639239
21
-100.87030506337081
31
3.312061735982752e-10
0
ARC
5
239
100
AcDbEntity
8
0
100
AcDbCircle
10
84.600241566047899
20
-100.87027647533334
30
3.312017327061767e-10
40
1.0000005399999747
210
-4.4408896986055869e-15
220
1.2695625258247242e-19
230
1
100
AcDbArc
50
-0.0016379729176161022
51
59.998362027147749
0
ARC
5
240
100
AcDbEntity
8
0
100
AcDbCircle
10
85.600291621549545
20
-99.138254128771578
30
3.255040681438004e-10
40
1.0000005400000103
210
0
220
0
230
1
100
AcDbArc
50
179.99836202708235
51
239.99833889167851
0
LINE
5
241
100
AcDbEntity
8
0
100
AcDbLine
10
84.600291081958176
20
-99.138225540734126
30
3.255040681438004e-10
11
84.600634138407855
21
-87.138219065638808
31
2.8611779612219834e-10
0
ARC
5
242
100
AcDbEntity
8
0
100
AcDbCircle
10
85.600634677999196
20
-87.138247653675222
30
-2.2851731542708884e-13
40
1.0000005399999925
210
9.3947626852650608e-17
220
3.286258376968076e-12
230
1
100
AcDbArc
50
89.998362026994542
51
179.99836202708235
0
LINE
5
243
100
AcDbEntity
8
0
100
AcDbLine
10
85.600663266036634
20
-86.138247114083867
30
2.8283597686140638e-10
11
97.600669741133061
21
-86.13859017053349
31
2.8281821329301238e-10
0
ARC
5
244
100
AcDbEntity
8
0
100
AcDbCircle
10
97.600641153095552
20
-87.138590710124873
30
2.8611779612219834e-10
40
1.0000005400000103
210
4.4408896986054291e-15
220
-1.2695625266134941e-19
230
1
100
AcDbArc
50
-0.0016379729176161022
51
89.998362026990463
0
LINE
5
245
100
AcDbEntity
8
0
100
AcDbLine
10
98.600641692686935
20
-87.138619298162354
30
2.8611335523009984e-10
11
98.600394584837986
21
-95.782373962255207
31
3.1449509663161734e-10
0
ARC
5
246
100
AcDbEntity
8
0
100
AcDbCircle
10
99.600395124429355
20
-95.782402550292701
30
3.1451730109210985e-10
40
1.0000005400000103
210
-2.2204448493027148e-14
220
6.3478126330674715e-19
230
1
100
AcDbArc
50
179.99836202708235
51
269.99836202699214
0
ARC
5
247
100
AcDbEntity
8
0
100
AcDbCircle
10
99.600337948354408
20
-97.782403629475439
30
3.2107649872159527e-10
40
1.0000005400000103
210
4.4408896986054291e-15
220
-1.2695625258246341e-19
230
1
100
AcDbArc
50
-0.0016379729176161022
51
89.998362026992908
0
LINE
5
248
100
AcDbEntity
8
0
100
AcDbLine
10
100.60033848794578
20
-97.782432217512905
30
3.2107205782949677e-10
11
100.60019554775846
21
-102.78243491546974
31
3.3749447680975209e-10
0
ARC
5
249
100
AcDbEntity
8
0
100
AcDbCircle
10
99.600195008167077
20
-102.78240632743223
30
-1.6527714088997582e-12
40
1.0000005399999925
210
9.4328495785998273e-17
220
3.2995810460638927e-12
230
1
100
AcDbArc
50
269.99836202699129
51
359.99836202708235
0
LWPOLYLINE
5
250
100
AcDbEntity
8
0
100
AcDbPolyline
90
8
70
1
43
0.0
10
103.64519839648486
20
-277.63886645990635
10
103.64485534003535
20
-289.63887293500255
42
0.4142135623731002
10
104.64482729158917
20
-290.63890206263147
10
116.64483376668554
20
-290.63924511908118
42
0.41421356237307944
10
117.64486289431447
20
-289.63927316752728
10
117.64520595076399
20
-277.63926669243097
42
0.41421356237308982
10
116.64523399921012
20
-276.6392375648021
10
104.64522752411386
20
-276.63889450835251
42
0.41421356237306384
0
LWPOLYLINE
5
251
100
AcDbEntity
8
0
100
AcDbPolyline
90
8
70
1
43
0.0
10
141.74637623440785
20
-237.1586838208012
10
141.7460331779582
20
-249.15869029589746
42
0.41421356237307944
10
142.74600512951201
20
-250.15871942352629
10
154.74601160460847
20
-250.15906247997603
42
0.41421356237307422
10
155.7460407322373
20
-249.15909052842213
10
155.7463837886869
20
-237.15908405332581
42
0.41421356237308982
10
154.746411837133
20
-236.15905492569678
10
142.74640536203668
20
-236.15871186924733
42
0.4142135623731002
0
LWPOLYLINE
5
252
100
AcDbEntity
8
0
100
AcDbPolyline
90
8
70
1
43
0.0
10
161.79628770978442
20
-240.6342588860324
10
173.79629418488099
20
-240.63460194248216
42
0.41421356237303264
10
174.79632331250966
20
-239.6346299909282
10
174.79666636895942
20
-227.63462351583178
42
0.41421356237308465
10
173.79669441740558
20
-226.634594388203
10
161.79668794230912
20
-226.6342513317534
42
0.41421356237306384
10
160.7966588146802
20
-227.63422328330719
10
160.79631575823066
20
-239.63422975840365
42
0.41421356237304296
0
LWPOLYLINE
5
253
100
AcDbEntity
8
0
100
AcDbPolyline
90
8
70
1
43
0.0
10
160.79829262102169
20
-170.48419244566074
10
160.79794956457218
20
-182.48419892075714
42
0.41421356237310542
10
161.79792151612605
20
-183.48422804838609
10
173.79792799122259
20
-183.48457110483571
42
0.41421356237309509
10
174.79795711885123
20
-182.48459915328181
10
174.79830017530091
20
-170.48459267818544
42
0.41421356237310542
10
173.79832822374703
20
-169.48456355055663
10
161.79832174865061
20
-169.48422049410686
42
0.41421356237307422
0
LWPOLYLINE
5
254
100
AcDbEntity
8
0
100
AcDbPolyline
90
8
70
1
43
0.0
10
173.79397140683639
20
-321.88464578428022
10
161.79396493173996
20
-321.88430272783069
42
0.41421356237307422
10
160.79393580411107
20
-322.88427467938448
10
160.79359274766131
20
-334.88428115448068
42
0.41421356237311585
10
161.79356469921538
20
-335.88431028210977
10
173.79357117431186
20
-335.8846533385593
42
0.41421356237315754
10
174.79360030194044
20
-334.88468138700534
10
174.79394335839021
20
-322.88467491190892
42
0.4142135623730222
0
LWPOLYLINE
5
255
100
AcDbEntity
8
0
100
AcDbPolyline
90
8
70
1
43
0.0
10
97.60203124641761
20
-38.513564472495496
10
85.602024771321254
20
-38.513221416045738
42
0.41421356237308982
10
84.601995643692391
20
-39.513193367599627
10
84.601584511978501
20
-53.89445112759801
42
0.41421356237308726
10
85.601556463532404
20
-54.894480255226867
10
97.601562938628803
20
-54.89482331167644
42
0.41421356237311585
10
98.601592066257524
20
-53.894851360122516
10
98.602003197971499
20
-39.51359360012431
42
0.41421356237308204
0
LWPOLYLINE
5
256
100
AcDbEntity
8
0
100
AcDbPolyline
90
8
70
1
43
0.0
10
122.70113122368839
20
-70.470549275552401
10
122.70078816723873
20
-82.470555750648288
42
0.41421356237307422
10
123.70076011879262
20
-83.470584878277066
10
135.70076659388903
20
-83.470927934727797
42
0.41421356237340201
10
136.70079572151778
20
-82.470955983172871
10
136.70113877796749
20
-70.470949508077027
42
0.41421356237308204
10
135.70116682641361
20
-69.470920380448163
10
123.70116035131724
20
-69.470577323998526
42
0.41421356237308982
0
LINE
5
257
100
AcDbEntity
8
0
100
AcDbLine
10
116.64939480938892
20
-131.09540903065167
30
4.3042014397087769e-10
11
104.64938833432112
21
-131.09506497420125
31
4.3044234843137019e-10
0
ARC
5
258
100
AcDbEntity
8
0
100
AcDbCircle
10
104.64941692235861
20
-130.09506443460984
30
4.2716052917057823e-10
40
1.0000005399999925
210
4.440889698605508e-15
220
-1.2695625258246791e-19
230
1
100
AcDbArc
50
179.99836202708235
51
269.99836202699129
0
LINE
5
259
100
AcDbEntity
8
0
100
AcDbLine
10
103.64941638276726
20
-130.09503584657236
30
4.2716497006267673e-10
11
103.6497594391883
21
-118.0950303714768
31
3.8776093447268067e-10
0
ARC
5
260
100
AcDbEntity
8
0
100
AcDbCircle
10
104.64975997877974
20
-118.0950589595142
30
-3.1566982287018027e-13
40
1.000000539999957
210
9.3947626911032934e-17
220
3.2862583769681927e-12
230
1
100
AcDbArc
50
89.998362026992098
51
179.99836202708235
0
LINE
5
261
100
AcDbEntity
8
0
100
AcDbLine
10
104.64978856681722
20
-117.09505841992289
30
3.8447911521188871e-10
11
116.64979504191349
21
-117.09540147637254
31
3.8446135164349471e-10
0
ARC
5
262
100
AcDbEntity
8
0
100
AcDbCircle
10
116.64976645387605
20
-118.09540201596386
30
3.8776093447268067e-10
40
1.0000005399999747
210
4.4408896986055869e-15
220
-1.2695625266135843e-19
230
1
100
AcDbArc
50
-0.0016379729176161022
51
89.998362026994542
0
LINE
5
263
100
AcDbEntity
8
0
100
AcDbLine
10
117.6497669934674
20
-118.09543060400134
30
3.8775649358058217e-10
11
117.64942393704636
21
-130.095436079097
31
4.2716052917057823e-10
0
ARC
5
264
100
AcDbEntity
8
0
100
AcDbCircle
10
116.64942339745494
20
-130.09540749105955
30
2.0031245771084942e-13
40
1.0000015400007682
210
9.3820576700042296e-17
220
3.2818142054544905e-12
230
1
100
AcDbArc
50
269.9983620269951
51
359.99836202708235
0
LWPOLYLINE
5
265
100
AcDbEntity
8
0
100
AcDbPolyline
90
8
70
1
43
0.0
10
154.74586723501915
20
-255.20906520491238
10
142.74586075992283
20
-255.20872214846261
42
0.41421356237311585
10
141.74583163229397
20
-256.2086941000166
10
141.74548857584429
20
-268.20870057511308
42
0.41421356237311585
10
142.74546052739825
20
-269.20872970274183
10
154.74546700249465
20
-269.20907275919154
42
0.41421356237308465
10
155.7454961301234
20
-268.20910080763764
10
155.74583918657308
20
-256.20909433254116
42
0.41421356237310542
0
LWPOLYLINE
5
266
100
AcDbEntity
8
0
100
AcDbPolyline
90
8
70
1
43
0.0
10
136.69698350672104
20
-215.82102793768127
10
136.69732656317055
20
-203.82102146258487
42
0.41421356237313667
10
135.69735461161673
20
-202.82099233495603
10
123.69734813652038
20
-202.82064927850629
42
0.41421356237308465
10
122.69731900889154
20
-203.8206212300602
10
122.69697595244189
20
-215.82062770515662
42
0.41421356237307422
10
123.69694790399576
20
-216.82065683278535
10
135.6969543790922
20
-216.82099988923525
42
0.41421356237310542
0
LWPOLYLINE
5
267
100
AcDbEntity
8
0
100
AcDbPolyline
90
8
70
1
43
0.0
10
141.74964384709088
20
-122.85862214550829
10
141.7493007906412
20
-134.85862862060466
42
0.41421356237307944
10
142.74927274219505
20
-135.85865774823347
10
154.74927921729144
20
-135.85900080468309
42
0.41421356237308465
10
155.74930834492019
20
-134.85902885312925
10
155.74965140136993
20
-122.85902237803296
42
0.41421356237313145
10
154.74967944981597
20
-121.85899325040407
10
142.74967297471966
20
-121.85865019395442
42
0.41421356237308982
0
LWPOLYLINE
5
268
100
AcDbEntity
8
0
100
AcDbPolyline
90
8
70
1
43
0.0
10
98.594103787192353
20
-315.83249269933464
10
98.594446843642004
20
-303.83248622423832
42
0.41421356237307422
10
97.594474892088158
20
-302.83245709660952
10
85.594468416991788
20
-302.83211404015992
42
0.41421356237309509
10
84.594439289363038
20
-303.83208599171383
10
84.59409623291333
20
-315.83209246680997
42
0.41421356237311585
10
85.594068184467176
20
-316.83212159443883
10
97.594074659563546
20
-316.83246465088848
42
0.41421356237308982
0
LWPOLYLINE
5
269
100
AcDbEntity
8
0
100
AcDbPolyline
90
8
70
1
43
0.0
10
97.59393028997431
20
-321.88246737582494
10
85.593923814877996
20
-321.88212431937535
42
0.4142135623731471
10
84.593894687249104
20
-322.88209627092931
10
84.59355163079951
20
-334.88210274602545
42
0.41421356237308982
10
85.59352358235337
20
-335.88213187365432
10
97.593530057449712
20
-335.88247493010397
42
0.41421356237315754
10
98.593559185078576
20
-334.88250297854984
10
98.59390224152817
20
-322.88249650345392
42
0.41421356237308982
0
LWPOLYLINE
5
270
100
AcDbEntity
8
0
100
AcDbPolyline
90
8
70
1
43
0.0
10
174.7990463230787
20
-144.38457859485086
10
174.79938937952841
20
-132.38457211975447
42
0.41421356237310542
10
173.79941742797473
20
-131.38454299212574
10
161.79941095287819
20
-131.38419993567598
42
0.41421356237308982
10
160.79938182524953
20
-132.38417188722985
10
160.79903876879979
20
-144.38417836232622
42
0.41421356237307422
10
161.79901072035364
20
-145.38420748995509
10
173.79901719545006
20
-145.38455054640471
42
0.41421356237307944
0
LWPOLYLINE
5
271
100
AcDbEntity
8
0
100
AcDbPolyline
90
8
70
1
43
0.0
10
173.7961498152917
20
-245.68460466741854
10
161.79614334019527
20
-245.68426161096878
42
0.41421356237310542
10
160.79611421256641
20
-246.68423356252279
10
160.79577115611673
20
-258.68424003761908
42
0.41421356237309509
10
161.79574310767069
20
-259.68426916524788
10
173.79574958276714
20
-259.68461222169753
42
0.41421356237306384
10
174.79577871039592
20
-258.68464027014375
10
174.79612176684552
20
-246.68463379504718
42
0.41421356237306384
0
LWPOLYLINE
5
272
100
AcDbEntity
8
0
100
AcDbPolyline
90
8
70
1
43
0.0
10
136.70154454942431
20
-56.277191849252091
10
136.70202375640247
20
-39.514682804351892
42
0.41421356237309892
10
135.70205180484857
20
-38.514653676723086
10
123.70204532975221
20
-38.51431062027337
42
0.4142135623731002
10
122.70201620212335
20
-39.51428257182728
10
122.70153699514526
20
-56.276791616727493
42
0.41421356237310281
10
123.70150894669918
20
-57.276820744356336
10
135.70151542179551
20
-57.277163800805994
42
0.4142135623730977
0
LWPOLYLINE
5
273
100
AcDbEntity
8
0
100
AcDbPolyline
90
8
70
1
43
0.0
10
136.69916191517632
20
-139.62098682081913
10
136.69950497162597
20
-127.6209803457229
42
0.41421356237308465
10
135.6995330200721
20
-126.62095121809413
10
123.6995265449757
20
-126.62060816164448
42
0.4142135623731002
10
122.69949741734692
20
-127.62058011319836
10
122.6991543608973
20
-139.62058658829454
42
0.4142135623731002
10
123.69912631245116
20
-140.62061571592344
10
135.69913278754746
20
-140.62095877237306
42
0.41421356237311063
0
LWPOLYLINE
5
274
100
AcDbEntity
8
0
100
AcDbPolyline
90
8
70
1
43
0.0
10
141.74528703018015
20
-275.25870437923209
10
141.74494397373056
20
-287.25871085432829
42
0.41421356237311063
10
142.7449159252844
20
-288.25873998195715
10
154.74492240038077
20
-288.25908303840697
42
0.41421356237308982
10
155.74495152800966
20
-287.25911108685301
10
155.74529458445926
20
-275.25910461175658
42
0.41421356237310542
10
154.74532263290533
20
-274.25907548412778
10
142.74531615780893
20
-274.25873242767801
42
0.41421356237314189
0
LWPOLYLINE
5
275
100
AcDbEntity
8
0
100
AcDbPolyline
90
8
70
1
43
0.0
10
155.7498529470341
20
-115.80901857391382
10
155.75019600348372
20
-103.8090120988174
42
0.4142135623731002
10
154.75022405192985
20
-102.80898297118864
10
142.75021757683353
20
-102.80863991473892
42
0.41421356237311063
10
141.75018844920473
20
-103.80861186629282
10
141.74984539275505
20
-115.80861834138913
42
0.41421356237309509
10
142.74981734430889
20
-116.80864746901796
10
154.74982381940526
20
-116.80899052546772
42
0.41421356237309509
0
LWPOLYLINE
5
276
100
AcDbEntity
8
0
100
AcDbPolyline
90
8
70
1
43
0.0
10
135.69395084840528
20
-321.88355658005258
10
123.6939443733089
20
-321.88321352360305
42
0.4142135623731002
10
122.69391524568015
20
-322.88318547515695
10
122.69357218923031
20
-334.88319195025321
42
0.41421356237306384
10
123.69354414078433
20
-335.88322107788201
10
135.69355061588072
20
-335.88356413433161
42
0.41421356237311585
10
136.69357974350945
20
-334.8835921827777
10
136.69392279995924
20
-322.8835857076815
42
0.41421356237313145
0
LWPOLYLINE
5
277
100
AcDbEntity
8
0
100
AcDbPolyline
90
8
70
1
43
0.0
10
173.80050663223085
20
-93.284521433694195
10
161.80050015713451
20
-93.284178377244501
42
0.41421356237311063
10
160.8004710295057
20
-94.284150328798376
10
160.80012797302749
20
-106.28415780389525
42
0.41421356237309509
10
161.80009992458136
20
-107.28418693152403
10
173.80010639967765
20
-107.2845299879738
42
0.41421356237308982
10
174.80013552730645
20
-106.28455803641991
10
174.8004785837847
20
-94.284550561322959
42
0.41421356237307944
0
LWPOLYLINE
5
278
100
AcDbEntity
8
0
100
AcDbPolyline
90
8
70
1
43
0.0
10
142.75090654853656
20
-78.708626910587569
10
154.75091302363288
20
-78.708969967037248
42
0.41421356237312362
10
155.75094215126168
20
-77.70899801548336
10
155.75128520771142
20
-65.708991540387018
42
0.4142135623731002
10
154.75131325615752
20
-64.708962412758183
10
142.75130678106115
20
-64.708619356308489
42
0.41421356237308982
10
141.75127765343237
20
-65.708591307862378
10
141.75093459698269
20
-77.708597782958748
42
0.41421356237310281
0
LWPOLYLINE
5
279
100
AcDbEntity
8
0
100
AcDbPolyline
90
8
70
1
43
0.0
10
136.69861731306253
20
-158.67099710003473
10
136.69896036951218
20
-146.67099062493838
42
0.41421356237309509
10
135.69898841795825
20
-145.67096149730952
10
123.69898194286191
20
-145.6706184408599
42
0.41421356237308982
10
122.69895281523306
20
-146.67059039241377
10
122.69860975878343
20
-158.67059686751014
42
0.41421356237307944
10
123.69858171033727
20
-159.67062599513898
10
135.69858818543364
20
-159.67096905158868
42
0.4142135623731002
0
LWPOLYLINE
5
280
100
AcDbEntity
8
0
100
AcDbPolyline
90
24
70
1
43
0.0
10
93.523920857123258
20
-204.75191111862512
42
-0.61818757724871387
10
93.731009261718839
20
-204.53496019706103
10
94.214215225624628
20
-204.53496019706103
42
-0.38285313671901033
10
94.381858264604475
20
-204.7026013551374
10
94.381858264604531
20
-207.66100659767346
42
-0.41422367783203734
10
94.21421522562467
20
-207.8286552793636
10
90.496486459872543
20
-207.82865527936355
42
-0.41422000002720061
10
90.33870499740955
20
-207.67087005509379
10
90.338704997409508
20
-207.18766597209128
42
-0.39757607994924909
10
90.496486459872528
20
-207.02002481401485
10
91.788322889127016
20
-207.02002481401493
42
0.39758545804177553
10
91.955965928106849
20
-206.86223958974512
10
91.955965928106849
20
-205.57040504139405
42
0.38285313671909316
10
91.788322889127016
20
-205.40276388331756
10
90.496486459872528
20
-205.40276388331765
42
-0.41422000002723358
10
90.338704997409536
20
-205.24497865904783
10
90.338704997409536
20
-204.75191111862512
42
-0.39757607994921845
10
90.496486459872528
20
-204.58426996054868
10
92.547647352794726
20
-204.58426996054868
42
-0.38285313671905985
10
92.715290391774587
20
-204.75191111862506
10
92.715290391774587
20
-206.85237613232482
42
0.41422000002726655
10
92.873071854237551
20
-207.01016135659458
10
93.356277818143397
20
-207.01016135659466
42
0.39758545804174489
10
93.523920857123215
20
-206.85237613232485
0
LWPOLYLINE
5
281
100
AcDbEntity
8
0
100
AcDbPolyline
90
16
70
1
43
0.0
10
93.52392085712323
20
-190.18669552312244
10
93.52392085712323
20
-193.1450970038517
42
0.38285313671912025
10
93.691563896103091
20
-193.31273816192817
10
94.224076802141525
20
-193.31273816192811
42
0.39757607994918426
10
94.381858264604475
20
-193.14509700385173
10
94.381858264604517
20
-186.14354319637914
42
0.41421301681712924
10
94.224076802141511
20
-185.98576173391623
10
93.740870838235693
20
-185.98576173391623
42
0.39757933353416858
10
93.573227799255832
20
-186.14354319637926
10
93.573227799255832
20
-189.05264243723434
42
-0.39757607994936811
10
93.415446336792854
20
-189.2202835953108
10
90.45704109425678
20
-189.2202835953108
42
0.39757933353398633
10
90.289398055276934
20
-189.37806505777377
10
90.289398055276976
20
-189.86127290258307
42
0.47227781634169247
10
90.506347095937684
20
-190.02891406065947
10
93.415445866567026
20
-190.02891406065945
42
-0.33805307244103255
0
LWPOLYLINE
5
282
100
AcDbEntity
8
0
100
AcDbPolyline
90
24
70
1
43
0.0
10
89.668132841490191
20
-134.57853891614207
42
-0.41421356237311613
10
89.91466661170152
20
-134.33200514593074
10
90.673990605143416
20
-134.33200514593076
42
-0.41421356237309509
10
90.920524375354731
20
-134.57853891614209
10
90.920524375354731
20
-139.09503751117768
42
-0.40320541537839799
10
90.673990605143388
20
-139.35143285790585
10
87.390161331390345
20
-139.35143285790582
42
-0.4142140995364017
10
87.133765984662176
20
-139.09503751117765
10
87.133765984662176
20
-135.84079155629769
42
0.40320541537841742
10
86.887232214450862
20
-135.58439620956946
10
86.137769327299935
20
-135.58439620956943
42
0.41421409953644228
10
85.881373980571738
20
-135.84079155629769
10
85.881373980571738
20
-139.09503751117768
42
-0.40320541537835858
10
85.634840210360409
20
-139.35143285790585
10
84.89523889972638
20
-139.35143285790585
42
-0.40320541537839877
10
84.648705129515065
20
-139.09503751117765
10
84.648705129515079
20
-134.57853891614209
42
-0.41421356237311613
10
84.895238899726394
20
-134.33200514593074
10
88.159345490671583
20
-134.33200514593076
42
-0.40320541537833759
10
88.415740837399738
20
-134.57853891614207
10
88.415740837399781
20
-137.84264550708721
42
0.40320541537843829
10
88.66227460761111
20
-138.09904085381544
10
89.411737494761994
20
-138.09904085381547
42
0.41421409953644228
10
89.668132841490191
20
-137.84264550708724
0
LWPOLYLINE
5
283
100
AcDbEntity
8
0
100
AcDbPolyline
90
8
70
1
43
0.0
10
89.668132691017902
20
-131.9455580998127
42
-0.41421356237311613
10
89.914666461229274
20
-131.69902432960134
10
90.673990473480188
20
-131.6990243296014
42
-0.41421356237311613
10
90.920524243691517
20
-131.9455580998127
10
90.920524243691517
20
-132.70488211206361
42
-0.41421356237309509
10
90.673990473480188
20
-132.95141588227497
10
89.914666461229274
20
-132.95141588227497
42
-0.41421356237313722
10
89.668132691017902
20
-132.70488211206361
0
LWPOLYLINE
5
284
100
AcDbEntity
8
0
100
AcDbPolyline
90
32
70
1
43
0.0
10
93.573227799255875
20
-180.15769979478574
42
-0.3975793335340152
10
93.405584760275985
20
-180.31548125724868
10
91.305116925221185
20
-180.31548125724871
42
-0.41421301681719519
10
91.147335462758207
20
-180.15769979478569
10
91.147335462758221
20
-177.1992945522496
42
-0.39757607994924532
10
91.305116925221199
20
-177.03165339417322
10
92.596953824701501
20
-177.03165339417322
42
0.39757933353413594
10
92.764596863681334
20
-176.87387193171017
10
92.76459686368139
20
-175.66092623368715
42
-0.39757607994927241
10
92.92237832614434
20
-175.4932850756108
10
94.21421522562467
20
-175.49328507561083
42
0.39757933353416841
10
94.381858264604489
20
-175.33550361314778
10
94.38185826460446
20
-174.85229576833859
42
0.39847372071889464
10
94.214215225624656
20
-174.67479115284189
10
88.879224588723559
20
-174.67479115284186
42
0.38285313671917132
10
88.711581549743741
20
-174.8424323109183
10
88.711581549743698
20
-175.3256401557276
42
0.39757933353389285
10
88.879224588723545
20
-175.48342161819048
10
91.837629831259619
20
-175.4834216181905
42
-0.33397659637536814
10
91.955965928106863
20
-175.66092623368723
10
91.955965928106892
20
-176.14413407849642
42
-0.39757933353410896
10
91.788322889127002
20
-176.30191554095944
10
90.496486459872543
20
-176.30191554095941
42
0.39757607994924904
10
90.338704997409565
20
-176.46955669903582
10
90.33870499740955
20
-180.99591687058836
42
0.41421301681722816
10
90.496486459872528
20
-181.1536983330513
10
94.214215225624656
20
-181.15369833305135
42
0.39757933353410535
10
94.381858264604489
20
-180.99591687058833
10
94.381858264604489
20
-176.4399738503887
42
0.38285890779617665
10
94.214215225624656
20
-176.27232893050544
10
93.731009261718839
20
-176.27232893050547
42
0.39757607994930316
10
93.573227799255832
20
-176.43997008858184
0
LWPOLYLINE
5
285
100
AcDbEntity
8
0
100
AcDbPolyline
90
16
70
1
43
0.0
10
91.147335462758164
20
-193.09579476397761
42
-0.38285313671913956
10
90.97969242377836
20
-193.26343592205401
10
90.496486459872528
20
-193.26343592205404
42
-0.3975760799493141
10
90.33870499740955
20
-193.09579476397761
10
90.338704997409621
20
-190.99532598847111
42
-0.41421301681736006
10
90.496486459872557
20
-190.83754452600817
10
92.60681540121837
20
-190.83754452600814
42
-0.41421301681712924
10
92.764596863681362
20
-190.99532598847105
10
92.764596863681348
20
-193.09579476397766
42
-0.39757607994924543
10
92.60681540121837
20
-193.26343592205404
10
92.12360896708671
20
-193.2634359220541
42
-0.38285313671917909
10
91.955965928106821
20
-193.09579476397761
10
91.955965928106863
20
-191.80395645381975
42
0.41421301681732703
10
91.798184465643885
20
-191.64617499135676
10
91.305116925221185
20
-191.64617499135676
42
0.41421301681739303
10
91.147335462758178
20
-191.80395645381981
0
LWPOLYLINE
5
286
100
AcDbEntity
8
0
100
AcDbPolyline
90
20
70
1
43
0.0
10
93.57322779925579
20
-202.80923132919523
42
-0.39758545804177764
10
93.405584760275971
20
-202.96701655346496
10
91.305116925221171
20
-202.96701655346504
42
-0.41422000002716769
10
91.147335462758178
20
-202.80923132919526
10
91.147335462758235
20
-202.28657341651174
42
-0.4332293331655801
10
91.305116925221199
20
-202.11893225843539
10
92.596953824701501
20
-202.11893225843525
42
0.39758545804174866
10
92.764596863681348
20
-201.96114703416549
10
92.764596863681362
20
-201.46807949374281
42
0.39758545804162787
10
92.596953824701501
20
-201.31029426947308
10
90.496486459872528
20
-201.31029426947308
42
0.41422000002723358
10
90.33870499740955
20
-201.46807949374283
10
90.338704997409536
20
-203.57840796486278
42
0.41422000002733256
10
90.496486459872543
20
-203.73619318913262
10
94.21421522562467
20
-203.73619318913259
42
0.39758545804177919
10
94.381858264604489
20
-203.57840796486278
10
94.381858264604475
20
-201.50752579981028
42
0.39757320919073258
10
94.214215225624656
20
-201.34974809915411
10
93.731009261718853
20
-201.34974809915411
42
0.41422000002729953
10
93.573227799255818
20
-201.5075333234239
0
LWPOLYLINE
5
287
100
AcDbEntity
8
0
100
AcDbPolyline
90
20
70
1
43
0.0
10
90.506347095937684
20
-184.35863734579863
42
-0.39757933353401342
10
90.338704056957866
20
-184.20085588333569
10
90.338704056957823
20
-183.71764803852645
42
-0.38285313671903437
10
90.506347095937684
20
-183.55000688045004
10
92.60681540121837
20
-183.55000688045007
42
-0.39757607994931043
10
92.764596863681348
20
-183.71764803852648
10
92.764596863681348
20
-188.2440119718857
42
-0.39757607994933758
10
92.606815401218384
20
-188.41165312996219
10
90.506348036389397
20
-188.41165312996219
42
-0.38285313671909166
10
90.33870499740955
20
-188.2440119718857
10
90.338704997409636
20
-185.33491273103064
42
-0.38285313671908699
10
90.506348036389412
20
-185.16727157295421
10
90.989554000295243
20
-185.16727157295412
42
-0.39757607994930327
10
91.147335462758207
20
-185.33491273103061
10
91.147335462758207
20
-187.44524120215056
42
0.38285313671908849
10
91.31497850173804
20
-187.61288236022696
10
91.798184465643857
20
-187.61288236022699
42
0.39757607994942584
10
91.955965928106863
20
-187.44524120215056
10
91.955965928106863
20
-184.53614196129539
42
0.41522770259266129
10
91.798184465643857
20
-184.35863734579868
0
LWPOLYLINE
5
288
100
AcDbEntity
8
0
100
AcDbPolyline
90
16
70
1
43
0.0
10
87.162328829407457
20
-129.51267664384648
42
-0.41435885936474715
10
87.362328804800953
20
-129.3125774339556
10
88.169207067188438
20
-129.31257743395562
42
-0.41421356237307394
10
88.415740837399767
20
-129.55911120416692
10
88.415740837399824
20
-132.82321826533797
42
-0.40320514866979007
10
88.169207067188466
20
-133.07961337695326
10
84.895238899726394
20
-133.07961337695326
42
-0.40320514866983026
10
84.648705129515051
20
-132.82321826533797
10
84.648705129515051
20
-129.55911120416692
42
-0.40277502698534762
10
84.885377323209525
20
-129.3125774339556
10
85.634840210360409
20
-129.31257743395565
42
-0.49223962221828077
10
85.901097133605461
20
-129.59855656978272
10
85.901097133605489
20
-131.57082673147343
42
0.41421356237307394
10
86.147630903816804
20
-131.81736050168473
10
86.916816003549741
20
-131.81736050168473
42
0.41421356237309509
10
87.163349773761041
20
-131.5708267314734
0
LWPOLYLINE
5
289
100
AcDbEntity
8
0
100
AcDbPolyline
90
32
70
1
43
0.0
10
98.254596261350031
20
-131.81736050168473
42
-0.41421356237304296
10
98.454596261349991
20
-132.01736050168472
10
98.454596261349991
20
-139.09503751117771
42
-0.40320541537835775
10
98.208062491138691
20
-139.35143285790585
10
92.468756151337388
20
-139.35143285790585
42
-0.40320541537833909
10
92.222222381126073
20
-139.09503751117768
10
92.222222381126102
20
-132.05403293049216
42
-0.40320514866984886
10
92.468756151337431
20
-131.79763781887686
10
94.441026313028118
20
-131.79763781887689
42
0.41421356237303181
10
94.687560083239475
20
-131.55110404866554
10
94.687560083239433
20
-130.80164139662762
42
0.40320514866986912
10
94.441026313028118
20
-130.54524628501233
10
89.924528188218375
20
-130.5452462850123
42
-0.40320541537839799
10
89.668132841490191
20
-130.29871251480097
10
89.668132841490191
20
-129.55911120416692
42
-0.40320541537835858
10
89.924528188218375
20
-129.3125774339556
10
98.208062491138691
20
-129.3125774339556
42
-0.41421356237313722
10
98.454596261350019
20
-129.55911120416698
10
98.454596261349991
20
-130.39455322714494
42
-0.414213562373069
10
98.254596261350017
20
-130.5945532271449
10
96.186486092654178
20
-130.59455322714496
42
0.4032051486698876
10
95.939952322442807
20
-130.85094833876019
10
95.939952322442807
20
-132.82321850045091
42
-0.41421356237309509
10
95.68355721082753
20
-133.07961361206617
10
93.711287049136814
20
-133.0796136120662
42
0.42621835455060814
10
93.454891702408617
20
-133.3261473822775
10
93.454891702408602
20
-137.84264550708724
42
0.41421356237333856
10
93.711286578910972
20
-138.09904085381544
10
96.965532298678056
20
-138.09904085381544
42
0.41421383095473302
10
97.221927410293304
20
-137.84264550708721
10
97.221927410293333
20
-132.07375561330005
42
-0.40320514866988916
10
97.468461180504676
20
-131.81736050168473
0
LWPOLYLINE
5
290
100
AcDbEntity
8
0
100
AcDbPolyline
90
12
70
1
43
0.0
10
93.415445866566984
20
-182.72165326206763
42
-0.36614073298408439
10
93.523920857123244
20
-182.90901757317786
10
93.52392085712323
20
-185.00948634868436
42
0.38285313671911714
10
93.691563896103091
20
-185.1771275067608
10
94.224076802141525
20
-185.1771275067608
42
0.39757607994927974
10
94.381858264604489
20
-185.00948634868433
10
94.381858264604517
20
-182.10038710782922
42
0.39757607994939514
10
94.224076802141511
20
-181.93274594975279
10
90.506347095937713
20
-181.93274594975279
42
0.38285169395540886
10
90.338704997409565
20
-182.10038710782925
10
90.338704997409565
20
-182.5638717996047
42
0.39757933353395392
10
90.506348036389369
20
-182.72165326206766
0
LWPOLYLINE
5
291
100
AcDbEntity
8
0
100
AcDbPolyline
90
24
70
1
43
0.0
10
93.573227799255832
20
-194.22985161167247
42
-0.41422000002723358
10
93.731009261718839
20
-194.07206638740269
10
94.21421522562467
20
-194.07206638740266
42
-0.39758545804172313
10
94.381858264604546
20
-194.2298516116725
10
94.381858264604531
20
-200.38333240953565
42
-0.39758545804165657
10
94.21421522562467
20
-200.54111763380544
10
92.113747390569841
20
-200.54111763380544
42
-0.41422000002723358
10
91.955965928106821
20
-200.38333240953565
10
91.955965928106863
20
-195.03848207702117
42
0.397585458041808
10
91.788322889127031
20
-194.88069685275133
10
91.305116925221199
20
-194.88069685275138
42
0.41422000002716769
10
91.147335462758178
20
-195.03848207702111
10
91.147335462758178
20
-200.38333240953565
42
-0.39758545804171802
10
90.97969242377836
20
-200.54111763380544
10
90.496486459872543
20
-200.54111763380544
42
-0.41422000002720061
10
90.33870499740955
20
-200.38333240953565
10
90.33870499740955
20
-194.2298516116725
42
-0.41422000002726655
10
90.496486459872528
20
-194.07206638740269
10
92.596954294927357
20
-194.07206638740269
42
-0.39758545804184225
10
92.764597333907233
20
-194.22985161167253
10
92.764597333907204
20
-199.57470194418707
42
0.41422000002716769
10
92.922378796370154
20
-199.73248716845683
10
93.405584760275985
20
-199.73248716845686
42
0.39758545804162593
10
93.573227799255832
20
-199.57470194418707
0
LWPOLYLINE
5
292
100
AcDbEntity
8
0
100
AcDbPolyline
90
8
70
1
43
0.0
10
85.599921763814734
20
-112.07576110973588
10
85.599778823627332
20
-117.07576380769166
42
0.4142135623731002
10
86.599750775181263
20
-118.07579293532055
10
99.59975778986896
20
-118.07616457980762
42
0.41421356237311063
10
100.59978691749774
20
-117.07619262825372
10
100.59992985768523
20
-112.07618993029703
42
0.41421356237310542
10
99.599957906131294
20
-111.07616080266817
10
86.599950891443598
20
-111.07578915818102
42
0.41421356237338125
0
LWPOLYLINE
5
293
100
AcDbEntity
8
0
100
AcDbPolyline
90
8
70
1
43
0.0
10
85.597062781392253
20
-212.08206507224361
42
-0.41421356237308465
10
86.597091909021216
20
-211.08209312068962
10
99.597098923708899
20
-211.08246476517681
42
-0.41421356237308465
10
100.5970708752628
20
-212.08249389280564
10
100.59692793507553
20
-217.08249659076247
42
-0.41421356237308465
10
99.596898807446607
20
-218.08246854231643
10
86.596891792758925
20
-218.08209689782939
42
-0.4142135623731002
10
85.596919841204908
20
-217.08206777020047
0
LWPOLYLINE
5
294
100
AcDbEntity
8
0
100
AcDbPolyline
90
8
70
1
43
0.0
10
79.58300111758706
20
-93.929778113561753
10
79.583001117587145
20
-223.68337215334324
42
0.41421356237294932
10
80.083001117586804
20
-224.1833721533433
10
81.088892557191272
20
-224.18337215334375
42
0.41421356237325113
10
81.588892557190775
20
-223.68337215334375
10
81.58889255719069
20
-93.929778113561738
42
0.41421356237309509
10
81.08889255719069
20
-93.429778113561753
10
80.08300111758706
20
-93.429778113561767
42
0.41421356237308465
0
LWPOLYLINE
5
295
100
AcDbEntity
8
0
100
AcDbPolyline
90
8
70
1
43
0.0
10
101.11685400600592
20
-33.132255979269914
10
167.56523876926596
20
-33.1341556071581
42
0.41422193563564497
10
168.06525306327697
20
-32.634155607362615
10
168.065253063277
20
-31.633072877655724
42
0.41421356237310542
10
167.565253063277
20
-31.133072877655721
10
101.11686830001696
20
-31.133072877655707
42
0.41421356237310281
10
100.61686830001696
20
-31.633072877655724
10
100.61686830001693
20
-32.632255979474039
42
0.41420518916009519
0
LWPOLYLINE
5
296
100
AcDbEntity
8
0
100
AcDbPolyline
90
8
70
1
43
0.0
10
80.081210431817865
20
-89.429891333992074
10
81.083118618539032
20
-89.429891333992074
42
0.4142262647888339
10
81.583118618068809
20
-88.929869649709374
10
81.581405589421919
20
-49.430554210277499
42
0.4142008600714478
10
81.081405589892114
20
-48.93057589456015
10
80.081210431817865
20
-48.930575894560178
42
0.41421356237311063
10
79.581210431817851
20
-49.430575894560185
10
79.581210431817865
20
-88.929891333992117
42
0.41421356237309509
0
LWPOLYLINE
5
297
100
AcDbEntity
8
0
100
AcDbPolyline
90
8
70
1
43
0.0
10
167.56526735728994
20
-338.88424783463745
10
101.11688259403002
20
-338.88234820674887
42
0.41422193563572307
10
100.61686830001902
20
-339.38234820654475
10
100.61686830001901
20
-340.38591564716842
42
0.4142135623730534
10
101.11686830001901
20
-340.88591564716842
10
167.56525306327893
20
-340.88591564716836
42
0.41421356237309509
10
168.06525306327896
20
-340.3859156471683
10
168.06525306327893
20
-339.38424783443315
42
0.4142051891600847
0
LINE
5
298
100
AcDbEntity
8
0
100
AcDbLine
10
104.65139323724203
20
-59.94530373140752
30
0
11
116.65140080214577
21
-59.94530373140752
31
0
0
ARC
5
299
100
AcDbEntity
8
0
100
AcDbCircle
10
116.65140080214579
20
-60.94530373140752
30
3.3984995342144329e-10
40
1.0000000000000009
210
-2.3225865665667298e-12
220
6.6398155957916056e-17
230
1
100
AcDbArc
50
-0.0016379726951299411
51
90.00000000000081
0
LINE
5
300
100
AcDbEntity
8
0
100
AcDbLine
10
117.65140080173715
20
-60.945332319429546
30
6.1310956311899645e-10
11
117.65139811968047
21
-61.039149816942128
31
2.0043078308162876e-10
0
ARC
5
301
100
AcDbEntity
8
0
100
AcDbCircle
10
116.65139758008903
20
-61.039121228904676
30
2.0040857862113626e-10
40
1.0000001903117963
210
-3.3137907919591947e-13
220
3.3487735725925193e-14
230
1
100
AcDbArc
50
354.22952642710817
51
359.99836202708235
0
LINE
5
302
100
AcDbEntity
8
0
100
AcDbLine
10
117.64633042384057
20
-61.139664836598442
30
2.007416455285238e-10
11
117.64598474932347
21
-72.945091381821243
31
-4.4408920985006262e-15
0
ARC
5
303
100
AcDbEntity
8
0
100
AcDbCircle
10
116.64598474975216
20
-72.945062100836296
30
3.7112615889531347e-10
40
0.99999999999999634
210
9.6224933998405804e-17
220
3.2862601514816944e-12
230
1
100
AcDbArc
50
269.99832232314395
51
359.99832232327111
0
LINE
5
304
100
AcDbEntity
8
0
100
AcDbLine
10
116.64595546876724
20
-73.945062100407611
30
6.1411764562535609e-10
11
104.64594869572748
21
-73.944710728389737
31
-4.4408920985006262e-15
0
ARC
5
305
100
AcDbEntity
8
0
100
AcDbCircle
10
104.64597797671243
20
-72.944710728818436
30
6.1083582636456413e-10
40
0.99999999999999634
210
0
220
0
230
1
100
AcDbArc
50
179.99832232327111
51
269.9983223231423
0
LINE
5
306
100
AcDbEntity
8
0
100
AcDbLine
10
103.64597797714111
20
-72.944681447833489
30
6.1083582636456413e-10
11
103.64602095965502
21
-71.47674879674247
31
2.3470558829785659e-10
0
ARC
5
307
100
AcDbEntity
8
0
100
AcDbCircle
10
102.64602096008372
20
-71.476719515757509
30
2.3468338383736409e-10
40
0.99999999999999634
210
-2.2204460482984423e-14
220
6.5016847375106234e-19
230
1
100
AcDbArc
50
-0.0016776767288994398
51
0.86284021009595535
0
LINE
5
308
100
AcDbEntity
8
0
100
AcDbLine
10
103.64590756942357
20
-71.461660682375566
30
2.3463453402428058e-10
11
103.64616768029884
21
-62.578391367673881
31
2.0546675472132847e-10
0
ARC
5
309
100
AcDbEntity
8
0
100
AcDbCircle
10
102.65134891621203
20
-62.476721772312445
30
2.0513368781394092e-10
40
1.000000539999943
210
-3.3134085131731907e-13
220
3.3862741130610917e-14
230
1
100
AcDbArc
50
354.16468184222208
51
359.99836202708235
0
LINE
5
310
100
AcDbEntity
8
0
100
AcDbLine
10
103.65134945580334
20
-62.476750360349904
30
2.0513812870603942e-10
11
103.65139323765069
21
-60.945275143385487
31
2.0011103885053672e-10
0
ARC
5
311
100
AcDbEntity
8
0
100
AcDbCircle
10
104.65139323724202
20
-60.94530373140752
30
-3.6613810824565582e-08
40
0.99999999999999645
210
1.0849756232138306e-23
220
6.1078697655148279e-10
230
1
100
AcDbArc
50
89.99999999999919
51
179.99836202730486
0
LINE
5
312
100
AcDbEntity
8
0
100
AcDbLine
10
146.92050250743191
20
-314.45219860469189
30
1.0325251764697896e-09
11
131.50789405844483
21
-314.45174730833571
31
1.0325207355776911e-09
0
ARC
5
313
100
AcDbEntity
8
0
100
AcDbCircle
10
131.50792333942977
20
-313.45174730876442
30
6.6320682014028603e-10
40
1.0000000000000147
210
-1.0420471096234725e-12
220
-6.0208484853360342e-13
230
1
100
AcDbArc
50
210.01891095310319
51
269.9983223231431
0
ARC
5
314
100
AcDbEntity
8
0
100
AcDbCircle
10
129.77620268459472
20
-314.45231893219659
30
5.5762083202288493e-10
40
1.00000000000001
210
1.0382019173370916e-12
220
5.9986313322528178e-13
230
1
100
AcDbArc
50
30.01891095309594
51
90
0
LINE
5
315
100
AcDbEntity
8
0
100
AcDbLine
10
129.77620268459472
20
-313.45231893219653
30
6.0823790448694126e-10
11
124.77583649929615
21
-313.45231893219659
31
-4.4408920985006262e-15
0
ARC
5
316
100
AcDbEntity
8
0
100
AcDbCircle
10
124.77583649929616
20
-312.45231893219659
30
3.2222674904932435e-10
40
0.99999999999999645
210
-2.3181456754173349e-12
220
0
230
1
100
AcDbArc
50
180
51
269.9999999999992
0
LINE
5
317
100
AcDbEntity
8
0
100
AcDbLine
10
123.77583649929618
20
-312.45231893219659
30
6.0915716915133089e-10
11
123.77583649929618
21
-299.45214325316925
31
0
0
ARC
5
318
100
AcDbEntity
8
0
100
AcDbCircle
10
124.77583649929616
20
-299.4521432531692
30
6.1139981966107371e-10
40
1.0000000000000142
210
1.7118281643295468e-26
220
9.6367358537462214e-13
230
1
100
AcDbArc
50
89.99999999999838
51
180
0
LINE
5
319
100
AcDbEntity
8
0
100
AcDbLine
10
124.77583649929619
20
-298.4521432531692
30
6.1043614607569907e-10
11
129.77622727360972
21
-298.45214325316925
31
0
0
ARC
5
320
100
AcDbEntity
8
0
100
AcDbCircle
10
129.77622727360972
20
-299.45214325316925
30
6.1142646501366471e-10
40
0.99999999999999811
210
8.8783133972262936e-14
220
2.4827755181162456e-15
230
1
100
AcDbArc
50
1.6018300838949018
51
90
0
ARC
5
321
100
AcDbEntity
8
0
100
AcDbCircle
10
129.77623179013455
20
-299.45230429815774
30
-4.4408920985006262e-15
40
0.99999999999999745
210
0
220
0
230
1
100
AcDbArc
50
-0.0010411866754758158
51
1.6110609100701581
0
ARC
5
322
100
AcDbEntity
8
0
100
AcDbCircle
10
131.77623178980434
20
-299.45234064243994
30
-7.9972092541527194e-08
40
0.99999999999999745
210
-6.1149307829417821e-10
220
1.1112138474233794e-14
230
1
100
AcDbArc
50
179.99895881332452
51
269.99999999999835
0
LINE
5
323
100
AcDbEntity
8
0
100
AcDbLine
10
131.77623178980431
20
-300.45234064243988
30
6.1804783513252914e-10
11
137.68966896339367
21
-300.45234064243994
31
-4.4408920985006262e-15
0
LINE
5
324
100
AcDbEntity
8
0
100
AcDbLine
10
137.68966896339361
20
-300.45192153303003
30
9.865486205740126e-10
11
140.73931634482992
21
-300.45201082970914
31
9.865530614661111e-10
0
LINE
5
325
100
AcDbEntity
8
0
100
AcDbLine
10
140.73931634482994
20
-300.45234064243994
30
-4.4408920985006262e-15
11
146.65223184858684
21
-300.45234064243994
31
-4.4408920985006262e-15
0
ARC
5
326
100
AcDbEntity
8
0
100
AcDbCircle
10
146.65223184858684
20
-299.45234064243994
30
1.8374320211953268e-07
40
1.0000000000000142
210
-1.0863403525798245e-23
220
-6.1155525088451254e-10
230
1
100
AcDbArc
50
270
51
359.98520727266208
0
ARC
5
327
100
AcDbEntity
8
0
100
AcDbCircle
10
148.65223178192895
20
-299.4528570060296
30
0
40
0.99999999999999634
210
0
220
-0
230
1
100
AcDbArc
50
89.998322323139874
51
179.98520727266208
0
LINE
5
328
100
AcDbEntity
8
0
100
AcDbLine
10
148.65226106291394
20
-298.45285700645832
30
0
11
153.65226106077046
21
-298.45300341138307
31
-4.4408920985006262e-15
0
ARC
5
329
100
AcDbEntity
8
0
100
AcDbCircle
10
153.65223177978547
20
-299.45300341095441
30
0
40
1.0000000000000673
210
0
220
0
230
1
100
AcDbArc
50
-0.0016776767288994398
51
89.998322323139874
0
LINE
5
330
100
AcDbEntity
8
0
100
AcDbLine
10
154.65223177935687
20
-299.45303269193937
30
0
11
154.65185112655251
21
-312.45303268591437
31
0
0
ARC
5
331
100
AcDbEntity
8
0
100
AcDbCircle
10
153.65185112698123
20
-312.45300340492935
30
0
40
1.0000000000000318
210
-1.3003369467131713e-19
220
-4.4408920965967269e-15
230
1
100
AcDbArc
50
269.99832232314145
51
359.99832232327111
0
LINE
5
332
100
AcDbEntity
8
0
100
AcDbLine
10
153.65182184599627
20
-313.45300340450069
30
-4.4408920985006262e-15
11
148.65223157918521
21
-313.45285701157331
31
0
0
ARC
5
333
100
AcDbEntity
8
0
100
AcDbCircle
10
148.65220229820025
20
-314.4528570111446
30
-1.9171335047716827e-07
40
0.99999999999999634
210
1.7909020643167762e-14
220
6.1162630489590259e-10
230
1
100
AcDbArc
50
89.998322323141508
51
149.97821771299016
0
ARC
5
334
100
AcDbEntity
8
0
100
AcDbCircle
10
146.92053178841684
20
-313.4521986051206
30
-1.3132382526043517e-07
40
0.99999999999996081
210
1.2324853648338531e-14
220
4.2091663469966089e-10
230
1
100
AcDbArc
50
269.9983223231431
51
329.9782177129922
0
CIRCLE
5
335
100
AcDbEntity
8
0
100
AcDbCircle
10
134.34106068164905
20
-344.88591564716842
30
6.106537497885256e-10
40
1.8000000000000151
210
1.9526690814164273e-16
220
-1.6940658945086003e-21
230
1
0
CIRCLE
5
336
100
AcDbEntity
8
0
100
AcDbCircle
10
75.581210432226513
20
-70.442969025431609
30
6.1077809476728362e-10
40
1.7999999999999974
210
-2.6758191580201183e-17
220
1.6940658945085999e-21
230
1
0
CIRCLE
5
337
100
AcDbEntity
8
0
100
AcDbCircle
10
134.34106068164701
20
-27.133072877655707
30
6.1077365387518512e-10
40
1.7999999999999974
210
1.9528966406123977e-16
220
0
230
1
0
CIRCLE
5
338
100
AcDbEntity
8
0
100
AcDbCircle
10
75.582105774702455
20
-191.3847082072657
30
6.1077809476728362e-10
40
1.8000000000000063
210
-2.6751689837188946e-17
220
0
230
1
0
CIRCLE
5
339
100
AcDbEntity
8
0
100
AcDbCircle
10
75.589128410195414
20
-305.50661768072058
30
6.1078697655148062e-10
40
1.7999999999999974
210
-2.6751689863038334e-17
220
1.6940658945085999e-21
230
1
0
ENDSEC
0
SECTION
2
OBJECTS
0
DICTIONARY
5
C
100
AcDbDictionary
3
ACAD_GROUP
350
D
3
ACAD_MLINESTYLE
350
17
0
DICTIONARY
5
D
100
AcDbDictionary
0
DICTIONARY
5
1A
330
C
100
AcDbDictionary
0
DICTIONARY
5
17
100
AcDbDictionary
0
ENDSEC
0
EOF
