<svg version="1.1" xmlns="http://www.w3.org/2000/svg" xmlns:xlink="http://www.w3.org/1999/xlink" stroke-linecap="round" stroke-linejoin="round" stroke-width="0" fill-rule="evenodd" width="343.612501mm" height="115.01250999999999mm" viewBox="-10313.799 -152553.808 343612.501 115012.51" id="jEj_sugCbgPpR9wRWmwl"><defs><circle cx="0" cy="0" r="1250" id="jEj_sugCbgPpR9wRWmwl_pad-11"/></defs><g transform="translate(0,-190095.10599999997) scale(1,-1)" fill="currentColor" stroke="currentColor"><path d="M 254507.992 -104909.752 A 1000 1000 0 0 0 253507.992 -105909.752 M 234092.751 -113982.507 246092.751 -113982.507 M 233092.751 -100982.507 A 1000 1000 0 0 0 234092.751 -99982.507 M 246092.751 -99982.507 A 1000 1000 0 0 0 247092.751 -100982.507 M 247092.751 -112982.507 A 1000 1000 0 0 0 246092.751 -113982.507 M 246092.751 -99982.507 234092.751 -99982.507 M 252507.992 -106909.752 A 1000 1000 0 0 0 253507.992 -105909.752 M 268507.992 -103471.752 268507.992 -91471.752 M 234092.751 -113982.507 A 1000 1000 0 0 0 233092.751 -112982.507 M 267507.992 -111909.752 267507.992 -105203.803 M 268507.993 -103471.752 A 1000.001 1000.001 0 0 0 268007.992 -104337.778 M 253507.992 -89033.752 A 1000 1000 0 0 0 254507.992 -90033.752 M 253507.992 -112909.752 266507.992 -112909.752 M 253507.992 -112909.752 A 1000 1000 0 0 0 252507.992 -111909.752 M 267507.992 -105203.803 A 1000 1000 0 0 0 268007.992 -104337.778 M 252507.992 -106909.752 252507.992 -111909.752 M 252507.993 -83033.752 252507.992 -88033.752 M 247092.751 -112982.507 247092.751 -100982.507 M 267507.992 -89739.701 267507.993 -83033.752 M 266507.993 -82033.752 A 1000 1000 0 0 0 267507.993 -83033.752 M 266507.993 -82033.752 253507.993 -82033.752 M 254507.992 -90033.752 254507.992 -104909.752 M 267507.992 -111909.752 A 1000 1000 0 0 0 266507.992 -112909.752 M 268007.992 -90605.726 A 999.9996503 999.9996503 0 0 0 267507.992 -89739.701 M 233092.751 -100982.507 233092.751 -112982.507 M 252507.993 -83033.752 A 1000 1000 0 0 0 253507.993 -82033.752 M 253507.992 -89033.752 A 1000 1000 0 0 0 252507.992 -88033.752 M 227042.751 -99982.507 A 1000 1000 0 0 0 228042.751 -100982.507 M 228042.751 -112982.507 228042.751 -100982.507 M 228042.751 -112982.507 A 1000 1000 0 0 0 227042.751 -113982.507 M 227042.751 -99982.507 215042.751 -99982.507 M 214042.751 -100982.507 214042.751 -112982.507 M 215042.751 -113982.507 227042.751 -113982.507 M 215042.751 -113982.507 A 1000 1000 0 0 0 214042.751 -112982.507 M 214042.751 -100982.507 A 1000 1000 0 0 0 215042.751 -99982.507 M 268007.992 -90605.727 A 999.9996503 999.9996503 0 0 0 268507.992 -91471.752 M 104198.699 -132003.802 A 1000 1000 0 0 0 103198.699 -133003.802 M 104198.699 -132003.802 104198.7 -120003.802 M 91198.699 -133003.801 103198.699 -133003.802 M 103198.7 -119003.802 91198.7 -119003.801 M 90198.7 -120003.801 90198.699 -132003.801 M 103198.7 -119003.802 A 1000 1000 0 0 0 104198.7 -120003.802 M 91198.699 -133003.801 A 1000 1000 0 0 0 90198.699 -132003.801 M 90198.7 -120003.801 A 1000 1000 0 0 0 91198.7 -119003.801 M 66098.699 -132003.8 A 1000 1000 0 0 0 65098.699 -133003.8 M 229311.2 -94903.805 241311.2 -94903.805 M 161636.201 -74853.803 161636.201 -62853.803 M 175636.201 -74853.804 A 1000 1000 0 0 0 174636.201 -75853.804 M 175636.201 -62853.804 175636.201 -74853.804 M 162636.201 -75853.803 A 1000 1000 0 0 0 161636.201 -74853.803 M 53098.699 -133003.8 A 1000 1000 0 0 0 52098.699 -132003.8 M 53098.699 -133003.8 65098.699 -133003.8 M 241311.201 -80903.805 A 1000 1000 0 0 0 242311.201 -81903.805 M 65098.7 -119003.8 53098.7 -119003.8 M 242311.2 -93903.805 242311.201 -81903.805 M 136536.199 -138053.802 112629.949 -138053.802 M 242311.2 -93903.805 A 1000 1000 0 0 0 241311.2 -94903.805 M 174636.201 -61853.804 A 1000 1000 0 0 0 175636.201 -62853.804 M 123248.699 -132003.802 123248.7 -120003.802 M 136536.2 -138053.802 A 1000 1000 0 0 0 137536.199 -139053.803 M 137536.199 -151053.803 137536.199 -139053.803 M 137536.199 -151053.802 A 1000 1000 0 0 0 136536.199 -152053.802 M 65098.701 -119003.8 A 1000 1000 0 0 0 66098.7 -120003.801 M 110248.699 -133003.802 A 1000 1000 0 0 0 109248.699 -132003.802 M 112629.949 -152053.802 136536.199 -152053.802 M 112629.949 -152053.802 A 1000 1000 0 0 0 111629.949 -151053.802 M 111629.949 -139053.802 111629.949 -151053.802 M 228311.201 -81903.805 A 1000 1000 0 0 0 229311.201 -80903.805 M 110248.699 -133003.802 122248.699 -133003.802 M 52098.7 -120003.8 52098.699 -132003.8 M 111629.949 -139053.802 A 1000 1000 0 0 0 112629.949 -138053.802 M 160348.699 -133003.803 148348.699 -133003.803 M 161636.201 -62853.803 A 1000 1000 0 0 0 162636.201 -61853.803 M 161348.699 -132003.803 A 1000 1000 0 0 0 160348.699 -133003.803 M 174636.201 -75853.804 162636.201 -75853.803 M 147348.7 -120003.803 A 1000 1000 0 0 0 148348.7 -119003.803 M 147348.699 -132003.803 147348.7 -120003.803 M 162636.201 -61853.803 174636.201 -61853.804 M 123248.699 -132003.802 A 1000 1000 0 0 0 122248.699 -133003.802 M 229311.2 -94903.805 A 1000 1000 0 0 0 228311.2 -93903.805 M 241311.201 -80903.805 229311.201 -80903.805 M 160348.7 -119003.803 A 1000 1000 0 0 0 161348.7 -120003.803 M 148348.699 -133003.803 A 1000 1000 0 0 0 147348.699 -132003.803 M 228311.201 -81903.805 228311.2 -93903.805 M 52098.7 -120003.8 A 1000 1000 0 0 0 53098.7 -119003.8 M 66098.699 -132003.801 66098.7 -120003.801 M 161348.7 -120003.803 161348.699 -132003.803 M 148348.7 -119003.803 160348.7 -119003.803 M 23236.201 -62853.799 23236.201 -74853.799 M 231779.45 -121003.805 231779.449 -134003.805 M 254949.5 -120003.806 A 1000 1000 0 0 0 254083.475 -119503.806 M 23236.201 -74853.799 A 1000 1000 0 0 0 22236.201 -75853.799 L 10236.201 -75853.799 M 109248.7 -120003.802 109248.699 -132003.802 M 200736.202 -38041.304 212736.202 -38041.305 M 261655.45 -120003.806 A 1000 1000 0 0 0 262655.45 -121003.806 M 109248.7 -120003.802 A 1000 1000 0 0 0 110248.7 -119003.802 M 42573.7 -100953.8 A 1000 1000 0 0 0 43573.7 -99953.8 M 66129.948 -151053.801 A 1000 1000 0 0 0 65129.949 -150053.8 M 213736.202 -39041.305 213736.202 -51041.305 M 43573.7 -113953.8 55573.7 -113953.8 M 42573.7 -100953.8 42573.7 -112953.8 M 55573.7 -99953.8 43573.7 -99953.8 M 262655.449 -134003.806 262655.45 -121003.806 M 9236.201 -74853.799 9236.201 -62853.799 M 253217.45 -119003.806 241217.45 -119003.805 M 253217.45 -119003.806 A 1000 1000 0 0 0 254083.475 -119503.806 M 122248.7 -119003.802 110248.7 -119003.802 M 262655.449 -134003.806 A 1000 1000 0 0 0 261655.449 -135003.806 M 122248.7 -119003.802 A 1000 1000 0 0 0 123248.7 -120003.802 M 200736.202 -52041.304 A 1000 1000 0 0 0 199736.202 -51041.304 M 238779.449 -134003.805 A 1000 1000 0 0 0 237779.449 -135003.805 M 171161.202 -39041.303 A 1000 1000 0 0 0 172161.202 -38041.303 M 212736.202 -52041.305 200736.202 -52041.304 M 213736.202 -51041.305 A 1000 1000 0 0 0 212736.202 -52041.305 M 212736.202 -38041.305 A 1000 1000 0 0 0 213736.202 -39041.305 M 55573.7 -99953.8 A 1000 1000 0 0 0 56573.7 -100953.8 M 76886.199 -150053.801 A 1000 1000 0 0 0 75886.199 -151053.801 M 9236.201 -62853.799 A 1000 1000 0 0 0 10236.201 -61853.799 M 56573.7 -112953.8 56573.7 -100953.8 M 172161.202 -38041.303 184161.202 -38041.304 M 184161.202 -52041.304 172161.202 -52041.303 M 239779.449 -133003.805 254655.449 -133003.806 M 256655.449 -135003.806 A 1000 1000 0 0 0 255655.449 -134003.806 M 22236.201 -61853.799 A 1000 1000 0 0 0 23236.201 -62853.799 M 254655.449 -133003.806 A 1000 1000 0 0 0 255655.449 -134003.806 M 10236.201 -75853.799 A 1000 1000 0 0 0 9236.201 -74853.799 M 199736.202 -39041.304 A 1000 1000 0 0 0 200736.202 -38041.304 M 256655.449 -135003.806 261655.449 -135003.806 M 199736.202 -51041.304 199736.202 -39041.304 M 261655.45 -120003.806 254949.5 -120003.806 M 75886.199 -136053.801 A 1000 1000 0 0 0 76886.199 -137053.801 M 231779.45 -121003.805 A 1000 1000 0 0 0 232779.45 -120003.805 M 56573.7 -112953.8 A 1000 1000 0 0 0 55573.7 -113953.8 M 185161.202 -51041.304 A 1000 1000 0 0 0 184161.202 -52041.304 M 185161.202 -39041.304 185161.202 -51041.304 M 171161.202 -51041.303 171161.202 -39041.303 M 238779.449 -134003.805 A 1000 1000 0 0 0 239779.449 -133003.805 M 43573.7 -113953.8 A 1000 1000 0 0 0 42573.7 -112953.8 M 66129.949 -151053.801 75886.199 -151053.801 M 184161.202 -38041.304 A 1000 1000 0 0 0 185161.202 -39041.304 M 172161.202 -52041.303 A 1000 1000 0 0 0 171161.202 -51041.303 M 75886.199 -136053.801 66129.949 -136053.801 M 76886.199 -150053.801 76886.199 -137053.801 M 10236.201 -61853.799 22236.201 -61853.799 M 232779.449 -135003.805 237779.449 -135003.805 M 65129.949 -137053.8 65129.949 -150053.8 M 239485.399 -120003.805 232779.45 -120003.805 M 240351.424 -119503.805 A 999.9996503 999.9996503 0 0 0 239485.399 -120003.805 M 65129.949 -137053.801 A 1000 1000 0 0 0 66129.949 -136053.801 M 240351.425 -119503.805 A 999.9996503 999.9996503 0 0 0 241217.45 -119003.805 M 232779.449 -135003.805 A 1000 1000 0 0 0 231779.449 -134003.805 M 8948.7 -93903.799 8948.701 -81903.799 M 7948.701 -80903.799 -4051.299 -80903.799 M 23530.449 -135003.799 18530.449 -135003.799 M -7432.55 -100953.798 A 1000 1000 0 0 0 -6432.55 -99953.798 M 3186.202 -38041.299 A 1000 1000 0 0 0 4186.202 -39041.299 M -5345.552 -135003.799 A 1000 1000 0 0 0 -6345.551 -134003.798 M 2226.425 -119503.799 A 999.9996503 999.9996503 0 0 0 3092.45 -119003.799 M 56573.699 -151053.8 A 1000 1000 0 0 0 55573.699 -152053.8 M -8813.798 -52041.298 3186.202 -52041.299 M -8813.799 -61853.798 3186.201 -61853.799 M -9813.799 -62853.798 A 1000 1000 0 0 0 -8813.799 -61853.798 M -6345.551 -134003.798 -6345.55 -121003.798 M 23530.45 -120003.799 A 1000 1000 0 0 0 24530.45 -121003.799 M 2226.424 -119503.799 A 999.9996503 999.9996503 0 0 0 1360.399 -120003.799 M 654.449 -134003.799 A 1000 1000 0 0 0 -345.551 -135003.799 M -5345.55 -120003.799 1360.399 -120003.799 M 41192.449 -152053.8 A 1000 1000 0 0 0 40192.449 -151053.8 M -345.551 -135003.799 -5345.551 -135003.799 M 16824.5 -120003.799 23530.45 -120003.799 M 16530.449 -133003.799 A 1000 1000 0 0 0 17530.449 -134003.799 M 40192.449 -151053.8 40192.449 -139053.8 M -6432.55 -113953.798 10329.95 -113953.799 M 18530.449 -135003.799 A 1000 1000 0 0 0 17530.449 -134003.799 M 7948.701 -80903.799 A 1000 1000 0 0 0 8948.701 -81903.799 M 8948.7 -93903.799 A 1000 1000 0 0 0 7948.7 -94903.799 M -6345.55 -121003.799 A 1000 1000 0 0 0 -5345.55 -120003.799 M -4051.3 -94903.799 7948.7 -94903.799 M -5051.299 -81903.799 -5051.3 -93903.799 M -5051.299 -81903.799 A 1000 1000 0 0 0 -4051.299 -80903.799 M 24530.45 -121003.799 24530.449 -134003.799 M 16824.5 -120003.799 A 1000 1000 0 0 0 15958.475 -119503.799 M 3186.201 -75853.799 -8813.799 -75853.798 M -9813.798 -39041.298 -9813.798 -51041.298 M -8813.798 -52041.298 A 1000 1000 0 0 0 -9813.798 -51041.298 M -4051.3 -94903.799 A 1000 1000 0 0 0 -5051.3 -93903.799 M 4186.202 -51041.299 4186.202 -39041.299 M 4186.202 -51041.299 A 1000 1000 0 0 0 3186.202 -52041.299 M 3186.201 -61853.799 A 1000 1000 0 0 0 4186.201 -62853.799 M 15092.45 -119003.799 A 1000 1000 0 0 0 15958.475 -119503.799 M 24530.449 -134003.799 A 1000 1000 0 0 0 23530.449 -135003.799 M -9813.798 -39041.298 A 1000 1000 0 0 0 -8813.798 -38041.298 M 3186.202 -38041.299 -8813.798 -38041.298 M 3092.45 -119003.799 15092.45 -119003.799 M 55573.699 -152053.8 41192.449 -152053.8 M -9813.799 -74853.798 -9813.799 -62853.798 M 654.449 -134003.799 A 1000 1000 0 0 0 1654.449 -133003.799 M 16530.449 -133003.799 1654.449 -133003.799 M 4186.201 -62853.799 4186.201 -74853.799 M -8813.799 -75853.798 A 1000 1000 0 0 0 -9813.799 -74853.798 M 32761.199 -151053.8 A 1000 1000 0 0 0 31761.199 -152053.8 M -6432.55 -113953.798 A 1000 1000 0 0 0 -7432.55 -112953.798 M 31761.199 -138053.8 A 1000 1000 0 0 0 32761.199 -139053.8 M 17379.949 -152053.799 A 1000 1000 0 0 0 16379.949 -151053.799 M 31761.199 -152053.8 17379.949 -152053.799 M 32761.199 -139053.8 32761.199 -151053.8 M 10329.95 -99953.799 A 1000 1000 0 0 0 11329.95 -100953.799 M 17379.949 -138053.799 31761.199 -138053.8 M 16379.949 -139053.799 A 1000 1000 0 0 0 17379.949 -138053.799 M 16379.949 -151053.799 16379.949 -139053.799 M 10329.95 -99953.799 -6432.55 -99953.798 M 11329.95 -112953.799 11329.95 -100953.799 M 11329.95 -112953.799 A 1000 1000 0 0 0 10329.95 -113953.799 M 4186.201 -74853.799 A 1000 1000 0 0 0 3186.201 -75853.799 M -7432.55 -100953.798 -7432.55 -112953.798 M 229311.199 -152053.805 A 1000 1000 0 0 0 228311.199 -151053.805 M 294698.7 -93903.807 A 1000 1000 0 0 0 293698.7 -94903.807 M 280698.701 -81903.807 A 1000 1000 0 0 0 281698.701 -80903.807 M 313748.7 -93903.807 A 1000 1000 0 0 0 312748.7 -94903.807 M 300748.7 -94903.807 312748.7 -94903.807 M 280698.701 -81903.807 280698.7 -93903.807 M 312748.699 -138053.807 300748.699 -138053.807 M 55573.699 -138053.8 A 1000 1000 0 0 0 56573.699 -139053.8 M 40192.449 -139053.8 A 1000 1000 0 0 0 41192.449 -138053.8 M 293698.701 -61853.807 281698.701 -61853.807 M 294698.701 -74853.807 294698.701 -62853.807 M 219879.949 -138053.805 A 1000 1000 0 0 0 220879.949 -139053.805 M 300748.702 -52041.307 A 1000 1000 0 0 0 299748.702 -51041.307 M 313748.699 -151053.807 A 1000 1000 0 0 0 312748.699 -152053.807 M 300748.7 -94903.807 A 1000 1000 0 0 0 299748.7 -93903.807 M 312748.701 -80903.807 A 1000 1000 0 0 0 313748.701 -81903.807 M 313748.7 -93903.807 313748.701 -81903.807 M 293698.701 -80903.807 A 1000 1000 0 0 0 294698.701 -81903.807 M 313748.702 -51041.307 313748.702 -39041.307 M 228311.199 -139053.805 A 1000 1000 0 0 0 229311.199 -138053.805 M 244692.449 -139053.806 244692.449 -151053.806 M 220879.949 -151053.805 A 1000 1000 0 0 0 219879.949 -152053.805 M 299748.702 -39041.307 299748.702 -51041.307 M 56573.699 -139053.8 56573.699 -151053.8 M 294698.7 -93903.807 294698.701 -81903.807 M 312748.702 -38041.307 A 1000 1000 0 0 0 313748.702 -39041.307 M 243692.449 -152053.805 229311.199 -152053.805 M 300748.699 -152053.807 312748.699 -152053.807 M 219879.949 -152053.805 205498.699 -152053.804 M 41192.449 -138053.8 55573.699 -138053.8 M 280698.701 -62853.807 A 1000 1000 0 0 0 281698.701 -61853.807 M 293698.701 -61853.807 A 1000 1000 0 0 0 294698.701 -62853.807 M 294698.701 -74853.807 A 1000 1000 0 0 0 293698.701 -75853.807 M 299748.702 -39041.307 A 1000 1000 0 0 0 300748.702 -38041.307 M 281698.701 -75853.807 293698.701 -75853.807 M 228311.199 -151053.805 228311.199 -139053.805 M 220879.949 -139053.805 220879.949 -151053.805 M 312748.699 -138053.807 A 1000 1000 0 0 0 313748.699 -139053.807 M 280698.701 -62853.807 280698.701 -74853.807 M 313748.699 -151053.807 313748.699 -139053.807 M 244692.449 -151053.805 A 1000 1000 0 0 0 243692.449 -152053.805 M 300748.699 -152053.807 A 1000 1000 0 0 0 299748.699 -151053.807 M 299748.699 -139053.807 299748.699 -151053.807 M 299748.699 -139053.807 A 1000 1000 0 0 0 300748.699 -138053.807 M 312748.702 -38041.307 300748.702 -38041.307 M 312748.701 -80903.807 300748.701 -80903.807 M 299748.701 -81903.807 299748.7 -93903.807 M 229311.199 -138053.805 243692.449 -138053.805 M 205498.699 -152053.804 A 1000 1000 0 0 0 204498.699 -151053.804 M 204498.699 -139053.804 A 1000 1000 0 0 0 205498.699 -138053.804 M 313748.702 -51041.307 A 1000 1000 0 0 0 312748.702 -52041.307 M 293698.701 -80903.807 281698.701 -80903.807 M 299748.701 -81903.807 A 1000 1000 0 0 0 300748.701 -80903.807 M 243692.45 -138053.805 A 1000 1000 0 0 0 244692.449 -139053.806 M 281698.7 -94903.807 293698.7 -94903.807 M 281698.7 -94903.807 A 1000 1000 0 0 0 280698.7 -93903.807 M 300748.702 -52041.307 312748.702 -52041.307 M 204498.699 -151053.804 204498.699 -139053.804 M 205498.699 -138053.804 219879.949 -138053.805 M 281698.701 -75853.807 A 1000 1000 0 0 0 280698.701 -74853.807 M 318798.701 -81903.808 A 1000 1000 0 0 0 319798.701 -80903.808 M 331798.699 -152053.808 319798.699 -152053.808 M 294698.699 -151053.807 294698.699 -139053.807 M 318798.7 -93903.808 318798.701 -81903.808 M 281698.699 -152053.807 A 1000 1000 0 0 0 280698.699 -151053.807 M 319798.7 -94903.808 A 1000 1000 0 0 0 318798.7 -93903.808 M 331798.702 -38041.308 A 1000 1000 0 0 0 332798.702 -39041.308 M 332798.701 -81903.808 332798.7 -93903.808 M 312748.7 -119003.807 A 1000 1000 0 0 0 313748.7 -120003.807 M 294698.699 -151053.807 A 1000 1000 0 0 0 293698.699 -152053.807 M 300748.7 -119003.807 312748.7 -119003.807 M 312748.699 -133003.807 300748.699 -133003.807 M 313748.7 -120003.807 313748.699 -132003.807 M 281698.702 -52041.307 A 1000 1000 0 0 0 280698.702 -51041.307 M 332798.699 -151053.808 A 1000 1000 0 0 0 331798.699 -152053.808 M 331798.701 -80903.808 A 1000 1000 0 0 0 332798.701 -81903.808 M 293698.702 -38041.307 281698.702 -38041.307 M 299748.701 -62853.807 A 1000 1000 0 0 0 300748.701 -61853.807 M 331798.702 -52041.308 319798.702 -52041.308 M 332798.702 -51041.308 A 1000 1000 0 0 0 331798.702 -52041.308 M 332798.699 -139053.808 332798.699 -151053.808 M 332798.702 -39041.308 332798.702 -51041.308 M 318798.699 -139053.808 A 1000 1000 0 0 0 319798.699 -138053.808 M 319798.702 -38041.308 331798.702 -38041.308 M 331798.699 -138053.808 A 1000 1000 0 0 0 332798.699 -139053.808 M 299748.699 -132003.807 299748.7 -120003.807 M 319798.699 -138053.808 331798.699 -138053.808 M 318798.699 -151053.808 318798.699 -139053.808 M 293698.699 -138053.807 281698.699 -138053.807 M 280698.702 -39041.307 A 1000 1000 0 0 0 281698.702 -38041.307 M 300748.701 -61853.807 312748.701 -61853.807 M 281698.702 -52041.307 293698.702 -52041.307 M 331798.7 -94903.808 319798.7 -94903.808 M 319798.701 -80903.808 331798.701 -80903.808 M 332798.7 -93903.808 A 1000 1000 0 0 0 331798.7 -94903.808 M 319798.699 -152053.808 A 1000 1000 0 0 0 318798.699 -151053.808 M 299748.7 -120003.807 A 1000 1000 0 0 0 300748.7 -119003.807 M 280698.702 -39041.307 280698.702 -51041.307 M 294698.702 -51041.307 294698.702 -39041.307 M 313748.701 -62853.807 313748.701 -74853.807 M 293698.702 -38041.307 A 1000 1000 0 0 0 294698.702 -39041.307 M 281698.699 -152053.807 293698.699 -152053.807 M 300748.699 -133003.807 A 1000 1000 0 0 0 299748.699 -132003.807 M 313748.699 -132003.807 A 1000 1000 0 0 0 312748.699 -133003.807 M 280698.699 -139053.807 280698.699 -151053.807 M 294698.702 -51041.307 A 1000 1000 0 0 0 293698.702 -52041.307 M 318798.702 -39041.308 A 1000 1000 0 0 0 319798.702 -38041.308 M 293698.699 -138053.807 A 1000 1000 0 0 0 294698.699 -139053.807 M 280698.699 -139053.807 A 1000 1000 0 0 0 281698.699 -138053.807 M 319798.702 -52041.308 A 1000 1000 0 0 0 318798.702 -51041.308 L 318798.702 -39041.308 M 312748.701 -61853.807 A 1000 1000 0 0 0 313748.701 -62853.807 M 299748.701 -74853.807 299748.701 -62853.807 M 300748.701 -75853.807 A 1000 1000 0 0 0 299748.701 -74853.807 M 312748.701 -75853.807 300748.701 -75853.807 M 23523.7 -100953.799 A 1000 1000 0 0 0 24523.7 -99953.799 M 331798.701 -75853.808 319798.701 -75853.808 M 313748.701 -74853.807 A 1000 1000 0 0 0 312748.701 -75853.807 M 332798.701 -74853.808 A 1000 1000 0 0 0 331798.701 -75853.808 M 24523.7 -113953.799 A 1000 1000 0 0 0 23523.7 -112953.799 M 319798.701 -61853.808 331798.701 -61853.808 M 24523.7 -113953.799 36523.7 -113953.8 M 318798.701 -74853.808 318798.701 -62853.808 A 1000 1000 0 0 0 319798.701 -61853.808 M 319798.701 -75853.808 A 1000 1000 0 0 0 318798.701 -74853.808 M 23523.7 -100953.799 23523.7 -112953.799 M 331798.701 -61853.808 A 1000 1000 0 0 0 332798.701 -62853.808 L 332798.701 -74853.808 M 37523.7 -112953.8 A 1000 1000 0 0 0 36523.7 -113953.8 M 36523.7 -99953.8 A 1000 1000 0 0 0 37523.7 -100953.8 M 37523.7 -112953.8 37523.7 -100953.8 M 36523.7 -99953.8 24523.7 -99953.799 M 239923.201 -77853.805 A 1000 1000 0 0 0 238923.201 -76853.805 M 245923.201 -76853.806 A 1000 1000 0 0 0 244923.201 -77853.806 M 268799.201 -62853.806 262093.252 -62853.806 M 268799.201 -62853.806 A 1000 1000 0 0 0 269799.201 -63853.806 M 245923.201 -76853.806 A 1000 1000 0 0 0 246923.201 -75853.806 M 269799.201 -76853.806 A 1000 1000 0 0 0 268799.201 -77853.806 M 263799.201 -77853.806 A 1000 1000 0 0 0 262799.201 -76853.806 M 239923.201 -77853.805 244923.201 -77853.806 M 238923.201 -63853.805 A 1000 1000 0 0 0 239923.201 -62853.805 M 246629.15 -62853.806 239923.201 -62853.805 M 238923.201 -63853.805 238923.201 -76853.805 M 247495.175 -62353.806 A 999.9996503 999.9996503 0 0 0 246629.15 -62853.806 M 261799.201 -75853.806 A 1000 1000 0 0 0 262799.201 -76853.806 M 260361.201 -61853.806 248361.201 -61853.806 M 269799.201 -76853.806 269799.201 -63853.806 M 247495.176 -62353.806 A 999.9996503 999.9996503 0 0 0 248361.201 -61853.806 M 260361.201 -61853.805 A 1000.001 1000.001 0 0 0 261227.227 -62353.806 M 262093.252 -62853.806 A 1000 1000 0 0 0 261227.227 -62353.806 M 263799.201 -77853.806 268799.201 -77853.806 M 246923.201 -75853.806 261799.201 -75853.806 M -6432.551 -152053.798 A 1000 1000 0 0 0 -7432.551 -151053.798 M 7948.699 -138053.799 -6432.551 -138053.798 M 8948.699 -151053.799 8948.699 -139053.799 M -7432.551 -139053.798 -7432.551 -151053.798 M -7432.551 -139053.798 A 1000 1000 0 0 0 -6432.551 -138053.798 M 8948.699 -151053.799 A 1000 1000 0 0 0 7948.699 -152053.799 M -6432.551 -152053.798 7948.699 -152053.799 M 238836.202 -52041.305 A 1000 1000 0 0 0 237836.202 -51041.305 M 257886.202 -52041.306 A 1000 1000 0 0 0 256886.202 -51041.306 M 256886.202 -39041.306 A 1000 1000 0 0 0 257886.202 -38041.306 M 33048.7 -120003.8 33048.699 -132003.8 M 269886.202 -38041.306 257886.202 -38041.306 M 85436.202 -39041.301 A 1000 1000 0 0 0 86436.202 -38041.301 M 251836.202 -51041.306 A 1000 1000 0 0 0 250836.202 -52041.306 M 47048.699 -132003.8 A 1000 1000 0 0 0 46048.699 -133003.8 M 250836.202 -52041.306 238836.202 -52041.305 M 127011.202 -38041.302 A 1000 1000 0 0 0 128011.202 -39041.302 M 98436.202 -38041.301 A 1000 1000 0 0 0 99436.202 -39041.301 M 238836.202 -38041.305 250836.202 -38041.306 M 204211.2 -93903.804 A 1000 1000 0 0 0 203211.2 -94903.804 M 227023.7 -99953.805 A 1000 1000 0 0 0 228023.7 -100953.805 M 7948.699 -138053.799 A 1000 1000 0 0 0 8948.699 -139053.799 M 269886.202 -38041.306 A 1000 1000 0 0 0 270886.202 -39041.306 M 251836.202 -39041.306 251836.202 -51041.306 M 204211.201 -81903.804 204211.2 -93903.804 M 33048.7 -120003.8 A 1000 1000 0 0 0 34048.7 -119003.8 M 228023.7 -112953.805 228023.7 -100953.805 M 228023.7 -112953.805 A 1000 1000 0 0 0 227023.7 -113953.805 M 214023.7 -100953.805 214023.7 -112953.805 M 237836.202 -39041.305 A 1000 1000 0 0 0 238836.202 -38041.305 M 127011.202 -52041.302 115011.202 -52041.302 M 46048.7 -119003.8 A 1000 1000 0 0 0 47048.7 -120003.8 M 46048.7 -119003.8 34048.7 -119003.8 M 47048.699 -132003.8 47048.7 -120003.8 M 191211.2 -94903.804 A 1000 1000 0 0 0 190211.2 -93903.804 M 34048.699 -133003.8 46048.699 -133003.8 M 190211.201 -81903.804 A 1000 1000 0 0 0 191211.201 -80903.804 M 99436.202 -51041.301 A 1000 1000 0 0 0 98436.202 -52041.301 L 86436.202 -52041.301 M 190211.2 -93903.804 190211.201 -81903.804 M 203211.2 -94903.804 191211.2 -94903.804 M 115011.202 -38041.302 127011.202 -38041.302 M 191211.201 -80903.804 203211.201 -80903.804 M 128011.202 -51041.302 A 1000 1000 0 0 0 127011.202 -52041.302 M 215023.7 -113953.805 227023.7 -113953.805 M 215023.7 -113953.805 A 1000 1000 0 0 0 214023.7 -112953.805 M 270886.202 -51041.306 A 1000 1000 0 0 0 269886.202 -52041.306 M 214023.7 -100953.805 A 1000 1000 0 0 0 215023.7 -99953.805 M 256886.202 -39041.306 256886.202 -51041.306 M 128011.202 -39041.302 128011.202 -51041.302 M 270886.202 -51041.306 270886.202 -39041.306 M 203211.201 -80903.804 A 1000 1000 0 0 0 204211.201 -81903.804 M 34048.699 -133003.8 A 1000 1000 0 0 0 33048.699 -132003.8 M 86436.202 -38041.301 98436.202 -38041.301 M 250836.202 -38041.306 A 1000 1000 0 0 0 251836.202 -39041.306 M 85436.202 -51041.301 85436.202 -39041.301 M 114011.202 -39041.302 A 1000 1000 0 0 0 115011.202 -38041.302 M 86436.202 -52041.301 A 1000 1000 0 0 0 85436.202 -51041.301 M 115011.202 -52041.302 A 1000 1000 0 0 0 114011.202 -51041.302 M 237836.202 -51041.305 237836.202 -39041.305 M 114011.202 -51041.302 114011.202 -39041.302 M 227023.7 -99953.805 215023.7 -99953.805 M 257886.202 -52041.306 269886.202 -52041.306 M 132773.7 -112953.802 A 1000 1000 0 0 0 131773.7 -113953.802 M 132773.7 -100953.802 132773.7 -112953.802 M 28286.202 -39041.299 A 1000 1000 0 0 0 29286.202 -38041.299 M 42286.202 -51041.3 A 1000 1000 0 0 0 41286.202 -52041.3 M 42286.202 -51041.3 42286.202 -39041.3 M 99436.202 -39041.301 99436.202 -51041.301 M 108961.2 -93903.802 A 1000 1000 0 0 0 107961.2 -94903.802 M 232786.202 -51041.305 A 1000 1000 0 0 0 231786.202 -52041.305 M 95961.2 -94903.801 107961.2 -94903.802 M 94961.201 -81903.801 94961.2 -93903.801 M 218786.202 -39041.305 A 1000 1000 0 0 0 219786.202 -38041.305 M 185448.7 -120003.804 185448.699 -132003.804 M 28286.202 -39041.299 28286.202 -51041.299 M 95961.2 -94903.801 A 1000 1000 0 0 0 94961.2 -93903.801 M 94961.201 -81903.801 A 1000 1000 0 0 0 95961.201 -80903.801 M 232786.202 -39041.305 232786.202 -51041.305 M 41286.202 -38041.3 29286.202 -38041.299 M 119773.7 -113953.802 A 1000 1000 0 0 0 118773.7 -112953.802 M 131773.7 -113953.802 119773.7 -113953.802 M 107961.201 -80903.802 95961.201 -80903.801 M 166111.2 -93903.803 A 1000 1000 0 0 0 165111.2 -94903.803 M 186448.699 -133003.804 198448.699 -133003.804 M 107961.201 -80903.802 A 1000 1000 0 0 0 108961.201 -81903.802 M 165111.201 -80903.803 A 1000 1000 0 0 0 166111.201 -81903.803 M 172129.949 -150053.803 A 1000 1000 0 0 0 171129.949 -151053.803 M 108961.2 -93903.802 108961.201 -81903.802 M 172129.949 -150053.803 172129.949 -137053.803 M 166129.949 -151053.803 171129.949 -151053.803 M 199448.699 -132003.804 A 1000 1000 0 0 0 198448.699 -133003.804 M 231786.202 -38041.305 A 1000 1000 0 0 0 232786.202 -39041.305 M 223261.2 -93903.805 A 1000 1000 0 0 0 222261.2 -94903.805 M 166129.949 -151053.803 A 1000 1000 0 0 0 165129.949 -150053.803 M 165129.949 -137053.803 165129.949 -150053.803 M 152111.201 -81903.803 A 1000 1000 0 0 0 153111.201 -80903.803 M 210261.2 -94903.805 A 1000 1000 0 0 0 209261.2 -93903.805 M 153111.2 -94903.803 A 1000 1000 0 0 0 152111.2 -93903.803 M 186448.699 -133003.804 A 1000 1000 0 0 0 185448.699 -132003.804 M 152111.201 -81903.803 152111.2 -93903.803 M 41286.202 -38041.3 A 1000 1000 0 0 0 42286.202 -39041.3 M 165129.949 -137053.803 A 1000 1000 0 0 0 166129.949 -136053.803 M 153111.2 -94903.803 165111.2 -94903.803 M 171129.949 -136053.803 166129.949 -136053.803 M 231786.202 -52041.305 219786.202 -52041.305 M 171129.949 -136053.803 A 1000 1000 0 0 0 172129.949 -137053.803 M 131773.7 -99953.802 A 1000 1000 0 0 0 132773.7 -100953.802 M 219786.202 -38041.305 231786.202 -38041.305 M 222261.201 -80903.805 210261.201 -80903.805 M 165111.201 -80903.803 153111.201 -80903.803 M 198448.7 -119003.804 186448.7 -119003.804 M 222261.201 -80903.805 A 1000 1000 0 0 0 223261.201 -81903.805 M 199448.699 -132003.804 199448.7 -120003.804 M 209261.201 -81903.805 209261.2 -93903.805 M 29286.202 -52041.299 41286.202 -52041.3 M 218786.202 -51041.305 218786.202 -39041.305 M 166111.2 -93903.803 166111.201 -81903.803 M 119773.7 -99953.802 131773.7 -99953.802 M 223261.2 -93903.805 223261.201 -81903.805 M 29286.202 -52041.299 A 1000 1000 0 0 0 28286.202 -51041.299 M 198448.7 -119003.804 A 1000 1000 0 0 0 199448.7 -120003.804 M 210261.2 -94903.805 222261.2 -94903.805 M 118773.7 -100953.802 A 1000 1000 0 0 0 119773.7 -99953.802 M 118773.7 -112953.802 118773.7 -100953.802 M 185448.7 -120003.804 A 1000 1000 0 0 0 186448.7 -119003.804 M 219786.202 -52041.305 A 1000 1000 0 0 0 218786.202 -51041.305 M 105486.201 -75853.802 A 1000 1000 0 0 0 104486.201 -74853.802 M 112723.7 -99953.802 A 1000 1000 0 0 0 113723.7 -100953.802 M 113723.7 -112953.802 113723.7 -100953.802 M 213736.201 -62853.805 213736.201 -74853.805 M 117486.201 -75853.802 105486.201 -75853.802 M 118486.201 -74853.802 A 1000 1000 0 0 0 117486.201 -75853.802 M 133061.201 -81903.802 A 1000 1000 0 0 0 134061.201 -80903.802 M 142298.699 -132003.803 A 1000 1000 0 0 0 141298.699 -133003.803 M 212736.201 -61853.805 A 1000 1000 0 0 0 213736.201 -62853.805 M 142298.699 -132003.803 142298.7 -120003.803 M 128298.7 -120003.802 128298.699 -132003.802 M 199736.201 -62853.804 A 1000 1000 0 0 0 200736.201 -61853.804 M 105486.201 -61853.802 117486.201 -61853.802 M 199736.201 -74853.804 199736.201 -62853.804 M 194973.7 -100953.804 194973.7 -112953.804 M 118486.201 -62853.802 118486.201 -74853.802 M 200736.201 -75853.804 A 1000 1000 0 0 0 199736.201 -74853.804 M 196067.449 -138053.804 A 1000 1000 0 0 0 197067.449 -139053.804 M 133061.2 -93903.802 133061.201 -81903.802 M 134061.2 -94903.802 A 1000 1000 0 0 0 133061.2 -93903.802 M 195973.7 -113953.804 A 1000 1000 0 0 0 194973.7 -112953.804 M 104486.201 -62853.802 A 1000 1000 0 0 0 105486.201 -61853.802 M 183067.449 -139053.804 A 1000 1000 0 0 0 183626.824 -138156.113 M 190186.199 -136053.804 A 1000 1000 0 0 0 191186.199 -137053.804 M 194973.7 -100953.804 A 1000 1000 0 0 0 195973.7 -99953.804 M 207973.7 -99953.804 195973.7 -99953.804 M 192186.199 -138053.804 A 1000 1000 0 0 0 191186.199 -137053.804 M 207973.701 -99953.804 A 1000 1000 0 0 0 208973.7 -100953.805 M 208973.7 -112953.805 208973.7 -100953.805 M 208973.7 -112953.804 A 1000 1000 0 0 0 207973.7 -113953.804 M 195973.7 -113953.804 207973.7 -113953.804 M 128298.7 -120003.802 A 1000 1000 0 0 0 129298.7 -119003.802 M 190186.199 -136053.804 185186.199 -136053.804 M 100723.7 -113953.801 A 1000 1000 0 0 0 99723.7 -112953.801 M 129298.699 -133003.802 141298.699 -133003.803 M 184186.2 -137258.421 A 1000.001 1000.001 0 0 0 183626.824 -138156.113 M 184067.449 -152053.804 A 1000 1000 0 0 0 183067.449 -151053.804 M 213736.201 -74853.805 A 1000 1000 0 0 0 212736.201 -75853.805 M 183067.449 -139053.804 183067.449 -151053.804 M 200736.201 -61853.804 212736.201 -61853.805 M 129298.699 -133003.802 A 1000 1000 0 0 0 128298.699 -132003.802 M 184186.199 -137053.804 184186.199 -137258.421 M 184186.199 -137053.804 A 1000 1000 0 0 0 185186.199 -136053.804 M 212736.201 -75853.805 200736.201 -75853.804 M 197067.449 -151053.804 197067.449 -139053.804 M 113723.7 -112953.802 A 1000 1000 0 0 0 112723.7 -113953.802 M 196067.449 -138053.804 192186.199 -138053.804 M 99723.7 -100953.801 99723.7 -112953.801 M 112723.7 -99953.802 100723.7 -99953.801 M 197067.449 -151053.804 A 1000 1000 0 0 0 196067.449 -152053.804 M 100723.7 -113953.801 112723.7 -113953.802 M 117486.201 -61853.802 A 1000 1000 0 0 0 118486.201 -62853.802 M 141298.7 -119003.803 129298.7 -119003.802 M 104486.201 -74853.802 104486.201 -62853.802 M 141298.7 -119003.803 A 1000 1000 0 0 0 142298.7 -120003.803 M 184067.449 -152053.804 196067.449 -152053.804 M 99723.7 -100953.801 A 1000 1000 0 0 0 100723.7 -99953.801 M 137536.201 -74853.802 A 1000 1000 0 0 0 136536.201 -75853.802 M 128011.2 -93903.802 A 1000 1000 0 0 0 127011.2 -94903.802 M 115011.2 -94903.802 127011.2 -94903.802 M 146061.202 -38041.303 A 1000 1000 0 0 0 147061.202 -39041.303 M 134061.202 -52041.302 146061.202 -52041.303 M 134061.202 -52041.302 A 1000 1000 0 0 0 133061.202 -51041.302 M 147061.202 -51041.303 147061.202 -39041.303 M 137536.201 -62853.803 137536.201 -74853.803 M 76911.2 -94903.801 A 1000 1000 0 0 0 75911.2 -93903.801 M 146061.202 -38041.303 134061.202 -38041.302 M 75911.201 -81903.801 75911.2 -93903.801 M 133061.202 -39041.302 133061.202 -51041.302 M 75911.201 -81903.801 A 1000 1000 0 0 0 76911.201 -80903.801 M 171161.201 -81903.803 A 1000 1000 0 0 0 172161.201 -80903.803 M 124536.201 -75853.802 A 1000 1000 0 0 0 123536.201 -74853.802 M 185161.201 -81903.804 185161.2 -93903.804 M 184161.201 -80903.804 A 1000 1000 0 0 0 185161.201 -81903.804 M 185161.2 -93903.804 A 1000 1000 0 0 0 184161.2 -94903.804 M 89911.2 -93903.801 A 1000 1000 0 0 0 88911.2 -94903.801 M 114011.201 -81903.802 A 1000 1000 0 0 0 115011.201 -80903.802 M 88911.201 -80903.801 A 1000 1000 0 0 0 89911.201 -81903.801 M 127011.201 -80903.802 115011.201 -80903.802 M 147061.202 -51041.303 A 1000 1000 0 0 0 146061.202 -52041.303 M 88911.201 -80903.801 76911.201 -80903.801 M 171161.2 -93903.803 171161.201 -81903.803 M 115011.2 -94903.802 A 1000 1000 0 0 0 114011.2 -93903.802 M 76911.2 -94903.801 88911.2 -94903.801 M 128011.2 -93903.802 128011.201 -81903.802 M 184161.2 -94903.804 172161.2 -94903.803 A 1000 1000 0 0 0 171161.2 -93903.803 M 89911.2 -93903.801 89911.201 -81903.801 M 133061.202 -39041.302 A 1000 1000 0 0 0 134061.202 -38041.302 M 136536.201 -75853.802 124536.201 -75853.802 M 172161.201 -80903.803 184161.201 -80903.804 M 114011.201 -81903.802 114011.2 -93903.802 M 127011.201 -80903.802 A 1000 1000 0 0 0 128011.201 -81903.802 M 124536.201 -61853.802 136536.201 -61853.802 M 123536.201 -62853.802 A 1000 1000 0 0 0 124536.201 -61853.802 M 123536.201 -74853.802 123536.201 -62853.802 M 165111.202 -38041.303 153111.202 -38041.303 M 252123.699 -151053.806 252123.699 -139053.806 M 150823.7 -99953.803 A 1000 1000 0 0 0 151823.7 -100953.803 M 268504.949 -151053.806 A 1000 1000 0 0 0 267504.949 -152053.806 M 138823.7 -99953.803 150823.7 -99953.803 M 151823.7 -100953.803 151823.7 -112953.803 M 253123.699 -152053.806 A 1000 1000 0 0 0 252123.699 -151053.806 M 75623.7 -112953.801 75623.7 -100953.801 M 74623.7 -99953.801 A 1000 1000 0 0 0 75623.7 -100953.801 M 137823.7 -112953.803 137823.7 -100953.803 M 80673.7 -100953.801 A 1000 1000 0 0 0 81673.7 -99953.801 M 75623.7 -112953.801 A 1000 1000 0 0 0 74623.7 -113953.801 M 143586.201 -61853.803 155586.201 -61853.803 M 80673.7 -112953.801 80673.7 -100953.801 M 142586.201 -74853.803 142586.201 -62853.803 M 134061.201 -80903.802 146061.201 -80903.803 M 165111.202 -38041.303 A 1000 1000 0 0 0 166111.202 -39041.303 M 138823.7 -113953.803 A 1000 1000 0 0 0 137823.7 -112953.803 M 150823.7 -113953.803 138823.7 -113953.803 M 151823.7 -112953.803 A 1000 1000 0 0 0 150823.7 -113953.803 M 152111.202 -39041.303 152111.202 -51041.303 M 94673.7 -112953.801 A 1000 1000 0 0 0 93673.7 -113953.801 M 166111.202 -51041.303 166111.202 -39041.303 M 166111.202 -51041.303 A 1000 1000 0 0 0 165111.202 -52041.303 M 153111.202 -52041.303 165111.202 -52041.303 M 153111.202 -52041.303 A 1000 1000 0 0 0 152111.202 -51041.303 M 147061.2 -93903.803 A 1000 1000 0 0 0 146061.2 -94903.803 M 81673.7 -99953.801 93673.7 -99953.801 M 156586.201 -62853.803 156586.201 -74853.803 A 1000 1000 0 0 0 155586.201 -75853.803 M 146061.201 -80903.803 A 1000 1000 0 0 0 147061.201 -81903.803 M 253123.699 -138053.806 267504.949 -138053.806 M 74623.7 -99953.801 62623.7 -99953.8 M 93673.7 -113953.801 81673.7 -113953.801 M 61623.7 -100953.8 A 1000 1000 0 0 0 62623.7 -99953.8 M 267504.949 -138053.806 A 1000 1000 0 0 0 268504.949 -139053.806 M 152111.202 -39041.303 A 1000 1000 0 0 0 153111.202 -38041.303 M 81673.7 -113953.801 A 1000 1000 0 0 0 80673.7 -112953.801 M 94673.7 -100953.801 94673.7 -112953.801 M 93673.7 -99953.801 A 1000 1000 0 0 0 94673.7 -100953.801 M 268504.949 -139053.806 268504.949 -151053.806 M 62623.7 -113953.8 74623.7 -113953.801 M 267504.949 -152053.806 253123.699 -152053.806 M 62623.7 -113953.8 A 1000 1000 0 0 0 61623.7 -112953.8 M 155586.201 -61853.803 A 1000 1000 0 0 0 156586.201 -62853.803 M 142586.201 -62853.803 A 1000 1000 0 0 0 143586.201 -61853.803 M 143586.201 -75853.803 A 1000 1000 0 0 0 142586.201 -74853.803 M 252123.699 -139053.806 A 1000 1000 0 0 0 253123.699 -138053.806 M 146061.2 -94903.803 134061.2 -94903.802 M 155586.201 -75853.803 143586.201 -75853.803 M 147061.201 -81903.803 147061.2 -93903.803 M 137823.7 -100953.803 A 1000 1000 0 0 0 138823.7 -99953.803 M 61623.7 -100953.8 61623.7 -112953.8 M 136536.202 -61853.802 A 1000 1000 0 0 0 137536.201 -62853.803 M 194686.201 -62853.804 194686.201 -74853.804 M 29286.201 -75853.799 A 1000 1000 0 0 0 28286.201 -74853.799 M 28286.201 -62853.799 28286.201 -74853.799 M 66386.202 -39041.301 66386.202 -51041.301 M 181686.201 -61853.804 193686.201 -61853.804 M 28286.201 -62853.799 A 1000 1000 0 0 0 29286.201 -61853.799 M 79386.202 -38041.301 A 1000 1000 0 0 0 80386.202 -39041.301 M 41286.201 -61853.8 29286.201 -61853.799 M 66386.202 -39041.301 A 1000 1000 0 0 0 67386.202 -38041.301 M 179398.7 -119003.804 167398.7 -119003.803 M 217498.699 -133003.805 205498.699 -133003.804 M 205498.7 -119003.804 217498.7 -119003.805 M 175923.7 -100953.804 A 1000 1000 0 0 0 176923.7 -99953.804 M 179398.7 -119003.804 A 1000 1000 0 0 0 180398.7 -120003.804 M 47336.201 -62853.8 47336.201 -74853.8 M 79386.201 -61853.801 67386.201 -61853.801 M 80386.201 -74853.801 80386.201 -62853.801 M 204498.7 -120003.804 A 1000 1000 0 0 0 205498.7 -119003.804 M 175923.7 -112953.804 175923.7 -100953.804 M 41286.201 -61853.8 A 1000 1000 0 0 0 42286.201 -62853.8 M 176923.7 -99953.804 188923.7 -99953.804 M 188923.7 -113953.804 176923.7 -113953.804 M 189923.7 -112953.804 A 1000 1000 0 0 0 188923.7 -113953.804 M 80386.202 -51041.301 A 1000 1000 0 0 0 79386.202 -52041.301 M 166398.7 -120003.803 166398.699 -132003.803 M 67386.202 -52041.301 79386.202 -52041.301 M 67386.201 -75853.801 A 1000 1000 0 0 0 66386.201 -74853.801 M 66386.201 -62853.801 66386.201 -74853.801 M 60336.201 -61853.8 48336.201 -61853.8 M 167398.699 -133003.803 A 1000 1000 0 0 0 166398.699 -132003.803 M 61336.201 -74853.8 61336.201 -62853.8 M 61336.201 -74853.8 A 1000 1000 0 0 0 60336.201 -75853.8 M 218498.7 -120003.805 218498.699 -132003.805 A 1000 1000 0 0 0 217498.699 -133003.805 M 180686.201 -62853.804 A 1000 1000 0 0 0 181686.201 -61853.804 M 60336.201 -61853.8 A 1000 1000 0 0 0 61336.201 -62853.8 M 47336.201 -62853.8 A 1000 1000 0 0 0 48336.201 -61853.8 M 194686.201 -74853.804 A 1000 1000 0 0 0 193686.201 -75853.804 M 205498.699 -133003.804 A 1000 1000 0 0 0 204498.699 -132003.804 M 217498.7 -119003.805 A 1000 1000 0 0 0 218498.7 -120003.805 M 193686.201 -61853.804 A 1000 1000 0 0 0 194686.201 -62853.804 M 176923.7 -113953.804 A 1000 1000 0 0 0 175923.7 -112953.804 M 48336.201 -75853.8 60336.201 -75853.8 M 181686.201 -75853.804 A 1000 1000 0 0 0 180686.201 -74853.804 M 204498.699 -132003.804 204498.7 -120003.804 M 188923.7 -99953.804 A 1000 1000 0 0 0 189923.7 -100953.804 M 180398.699 -132003.804 180398.7 -120003.804 M 48336.201 -75853.8 A 1000 1000 0 0 0 47336.201 -74853.8 M 166398.7 -120003.803 A 1000 1000 0 0 0 167398.7 -119003.803 M 180398.699 -132003.804 A 1000 1000 0 0 0 179398.699 -133003.804 M 189923.7 -100953.804 189923.7 -112953.804 M 79386.202 -38041.301 67386.202 -38041.301 M 66386.201 -62853.801 A 1000 1000 0 0 0 67386.201 -61853.801 M 79386.201 -61853.801 A 1000 1000 0 0 0 80386.201 -62853.801 M 80386.201 -74853.801 A 1000 1000 0 0 0 79386.201 -75853.801 M 80386.202 -51041.301 80386.202 -39041.301 M 42286.201 -74853.8 42286.201 -62853.8 M 67386.202 -52041.301 A 1000 1000 0 0 0 66386.202 -51041.301 M 67386.201 -75853.801 79386.201 -75853.801 M 167398.699 -133003.803 179398.699 -133003.804 M 180686.201 -74853.804 180686.201 -62853.804 M 193686.201 -75853.804 181686.201 -75853.804 M 42286.201 -74853.8 A 1000 1000 0 0 0 41286.201 -75853.8 M 29286.201 -75853.799 41286.201 -75853.8 M 32761.2 -93903.8 32761.201 -81903.8 M 32761.2 -93903.8 A 1000 1000 0 0 0 31761.2 -94903.8 M 209261.201 -81903.805 A 1000 1000 0 0 0 210261.201 -80903.805 M 18761.201 -81903.799 A 1000 1000 0 0 0 19761.201 -80903.799 M 31761.201 -80903.8 19761.201 -80903.799 M 31761.201 -80903.8 A 1000 1000 0 0 0 32761.201 -81903.8 M 19761.2 -94903.799 31761.2 -94903.8 M 85148.699 -132003.801 85148.7 -120003.801 M 56861.201 -81903.8 A 1000 1000 0 0 0 57861.201 -80903.8 M 69861.201 -80903.801 57861.201 -80903.8 M 231786.201 -61853.805 A 1000 1000 0 0 0 232786.201 -62853.805 M 218786.201 -74853.805 218786.201 -62853.805 M 219786.201 -75853.805 A 1000 1000 0 0 0 218786.201 -74853.805 M 219786.201 -61853.805 231786.201 -61853.805 M 72148.699 -133003.801 84148.699 -133003.801 M 85436.201 -74853.801 85436.201 -62853.801 M 85148.699 -132003.801 A 1000 1000 0 0 0 84148.699 -133003.801 M 71148.7 -120003.801 A 1000 1000 0 0 0 72148.7 -119003.801 M 37811.201 -81903.8 A 1000 1000 0 0 0 38811.201 -80903.8 M 50811.201 -80903.8 38811.201 -80903.8 M 232786.201 -62853.805 232786.201 -74853.805 M 19761.2 -94903.799 A 1000 1000 0 0 0 18761.2 -93903.799 M 231786.201 -75853.805 219786.201 -75853.805 M 50811.201 -80903.8 A 1000 1000 0 0 0 51811.201 -81903.8 M 48336.202 -52041.3 A 1000 1000 0 0 0 47336.202 -51041.3 M 18761.201 -81903.799 18761.2 -93903.799 M 170873.7 -100953.803 170873.7 -112953.803 M 169873.7 -99953.803 A 1000 1000 0 0 0 170873.7 -100953.803 M 157873.7 -99953.803 169873.7 -99953.803 M 84148.7 -119003.801 72148.7 -119003.801 M 157873.7 -113953.803 A 1000 1000 0 0 0 156873.7 -112953.803 M 48336.202 -38041.3 60336.202 -38041.3 M 156873.7 -100953.803 A 1000 1000 0 0 0 157873.7 -99953.803 M 47336.202 -39041.3 A 1000 1000 0 0 0 48336.202 -38041.3 M 156873.7 -112953.803 156873.7 -100953.803 M 86436.201 -61853.801 98436.201 -61853.801 M 169873.7 -113953.803 157873.7 -113953.803 M 85436.201 -62853.801 A 1000 1000 0 0 0 86436.201 -61853.801 M 170873.7 -112953.803 A 1000 1000 0 0 0 169873.7 -113953.803 M 98436.201 -61853.801 A 1000 1000 0 0 0 99436.201 -62853.801 M 60336.202 -38041.3 A 1000 1000 0 0 0 61336.202 -39041.3 M 86436.201 -75853.801 A 1000 1000 0 0 0 85436.201 -74853.801 M 38811.2 -94903.8 A 1000 1000 0 0 0 37811.2 -93903.8 M 72148.699 -133003.801 A 1000 1000 0 0 0 71148.699 -132003.801 M 61336.202 -39041.3 61336.202 -51041.3 M 70861.2 -93903.801 A 1000 1000 0 0 0 69861.2 -94903.801 M 51811.2 -93903.8 A 1000 1000 0 0 0 50811.2 -94903.8 M 57861.2 -94903.8 69861.2 -94903.801 M 218786.201 -62853.805 A 1000 1000 0 0 0 219786.201 -61853.805 M 71148.7 -120003.801 71148.699 -132003.801 M 47336.202 -51041.3 47336.202 -39041.3 M 60336.202 -52041.3 48336.202 -52041.3 M 51811.2 -93903.8 51811.201 -81903.8 M 61336.202 -51041.3 A 1000 1000 0 0 0 60336.202 -52041.3 M 69861.201 -80903.801 A 1000 1000 0 0 0 70861.201 -81903.801 M 70861.2 -93903.801 70861.201 -81903.801 M 37811.201 -81903.8 37811.2 -93903.8 M 56861.201 -81903.8 56861.2 -93903.8 M 38811.2 -94903.8 50811.2 -94903.8 M 232786.201 -74853.805 A 1000 1000 0 0 0 231786.201 -75853.805 M 84148.7 -119003.801 A 1000 1000 0 0 0 85148.7 -120003.801 M 98436.201 -75853.801 86436.201 -75853.801 M 99436.201 -62853.801 99436.201 -74853.801 A 1000 1000 0 0 0 98436.201 -75853.801 M 57861.2 -94903.8 A 1000 1000 0 0 0 56861.2 -93903.8" fill="none" stroke-width="1000"/><use xlink:href="#jEj_sugCbgPpR9wRWmwl_pad-11" x="143040.1" y="-149771.1"/><use xlink:href="#jEj_sugCbgPpR9wRWmwl_pad-11" x="159540.1" y="-143171.1"/><use xlink:href="#jEj_sugCbgPpR9wRWmwl_pad-11" x="159540.1" y="-146471.1"/><use xlink:href="#jEj_sugCbgPpR9wRWmwl_pad-11" x="159540.1" y="-149771.1"/><use xlink:href="#jEj_sugCbgPpR9wRWmwl_pad-11" x="156240.1" y="-139871.1"/><use xlink:href="#jEj_sugCbgPpR9wRWmwl_pad-11" x="152940.1" y="-146471.1"/><use xlink:href="#jEj_sugCbgPpR9wRWmwl_pad-11" x="149640.1" y="-143171.1"/><use xlink:href="#jEj_sugCbgPpR9wRWmwl_pad-11" x="156240.1" y="-143171.1"/><use xlink:href="#jEj_sugCbgPpR9wRWmwl_pad-11" x="156240.1" y="-149771.1"/><use xlink:href="#jEj_sugCbgPpR9wRWmwl_pad-11" x="152940.1" y="-149771.1"/><use xlink:href="#jEj_sugCbgPpR9wRWmwl_pad-11" x="149640.1" y="-146471.1"/><use xlink:href="#jEj_sugCbgPpR9wRWmwl_pad-11" x="152940.1" y="-139871.1"/><use xlink:href="#jEj_sugCbgPpR9wRWmwl_pad-11" x="146340.1" y="-139871.1"/><use xlink:href="#jEj_sugCbgPpR9wRWmwl_pad-11" x="146340.1" y="-149771.1"/><use xlink:href="#jEj_sugCbgPpR9wRWmwl_pad-11" x="152940.1" y="-143171.1"/><use xlink:href="#jEj_sugCbgPpR9wRWmwl_pad-11" x="146340.1" y="-143171.1"/><use xlink:href="#jEj_sugCbgPpR9wRWmwl_pad-11" x="159540.1" y="-139871.1"/><use xlink:href="#jEj_sugCbgPpR9wRWmwl_pad-11" x="143040.1" y="-139871.1"/><use xlink:href="#jEj_sugCbgPpR9wRWmwl_pad-11" x="143040.1" y="-143171.1"/><use xlink:href="#jEj_sugCbgPpR9wRWmwl_pad-11" x="149640.1" y="-139871.1"/><use xlink:href="#jEj_sugCbgPpR9wRWmwl_pad-11" x="146340.1" y="-146471.1"/><use xlink:href="#jEj_sugCbgPpR9wRWmwl_pad-11" x="149640.1" y="-149771.1"/><use xlink:href="#jEj_sugCbgPpR9wRWmwl_pad-11" x="156240.1" y="-146471.1"/><use xlink:href="#jEj_sugCbgPpR9wRWmwl_pad-11" x="143040.1" y="-146471.1"/><use xlink:href="#jEj_sugCbgPpR9wRWmwl_pad-11" x="105586.5" y="-139794.9"/><use xlink:href="#jEj_sugCbgPpR9wRWmwl_pad-11" x="105586.5" y="-143094.9"/><use xlink:href="#jEj_sugCbgPpR9wRWmwl_pad-11" x="105586.5" y="-146394.9"/><use xlink:href="#jEj_sugCbgPpR9wRWmwl_pad-11" x="105586.5" y="-149694.9"/><use xlink:href="#jEj_sugCbgPpR9wRWmwl_pad-11" x="102286.5" y="-139794.9"/><use xlink:href="#jEj_sugCbgPpR9wRWmwl_pad-11" x="102286.5" y="-143094.9"/><use xlink:href="#jEj_sugCbgPpR9wRWmwl_pad-11" x="102286.5" y="-146394.9"/><use xlink:href="#jEj_sugCbgPpR9wRWmwl_pad-11" x="102286.5" y="-149694.9"/><use xlink:href="#jEj_sugCbgPpR9wRWmwl_pad-11" x="98986.5" y="-139794.9"/><use xlink:href="#jEj_sugCbgPpR9wRWmwl_pad-11" x="98986.5" y="-143094.9"/><use xlink:href="#jEj_sugCbgPpR9wRWmwl_pad-11" x="98986.5" y="-146394.9"/><use xlink:href="#jEj_sugCbgPpR9wRWmwl_pad-11" x="98986.5" y="-149694.9"/><use xlink:href="#jEj_sugCbgPpR9wRWmwl_pad-11" x="95686.5" y="-139794.9"/><use xlink:href="#jEj_sugCbgPpR9wRWmwl_pad-11" x="95686.5" y="-143094.9"/><use xlink:href="#jEj_sugCbgPpR9wRWmwl_pad-11" x="95686.5" y="-146394.9"/><use xlink:href="#jEj_sugCbgPpR9wRWmwl_pad-11" x="95686.5" y="-149694.9"/><use xlink:href="#jEj_sugCbgPpR9wRWmwl_pad-11" x="92386.5" y="-139794.9"/><use xlink:href="#jEj_sugCbgPpR9wRWmwl_pad-11" x="92386.5" y="-143094.9"/><use xlink:href="#jEj_sugCbgPpR9wRWmwl_pad-11" x="92386.5" y="-146394.9"/><use xlink:href="#jEj_sugCbgPpR9wRWmwl_pad-11" x="92386.5" y="-149694.9"/><use xlink:href="#jEj_sugCbgPpR9wRWmwl_pad-11" x="89086.5" y="-139794.9"/><use xlink:href="#jEj_sugCbgPpR9wRWmwl_pad-11" x="89086.5" y="-143094.9"/><use xlink:href="#jEj_sugCbgPpR9wRWmwl_pad-11" x="89086.5" y="-146394.9"/><use xlink:href="#jEj_sugCbgPpR9wRWmwl_pad-11" x="89086.5" y="-149694.9"/><use xlink:href="#jEj_sugCbgPpR9wRWmwl_pad-11" x="85786.5" y="-139794.9"/><use xlink:href="#jEj_sugCbgPpR9wRWmwl_pad-11" x="85786.5" y="-143094.9"/><use xlink:href="#jEj_sugCbgPpR9wRWmwl_pad-11" x="85786.5" y="-146394.9"/><use xlink:href="#jEj_sugCbgPpR9wRWmwl_pad-11" x="85786.5" y="-149694.9"/><use xlink:href="#jEj_sugCbgPpR9wRWmwl_pad-11" x="82486.5" y="-139794.9"/><use xlink:href="#jEj_sugCbgPpR9wRWmwl_pad-11" x="82486.5" y="-143094.9"/><use xlink:href="#jEj_sugCbgPpR9wRWmwl_pad-11" x="82486.5" y="-146394.9"/><use xlink:href="#jEj_sugCbgPpR9wRWmwl_pad-11" x="82486.5" y="-149694.9"/></g></svg>