<svg version="1.1" xmlns="http://www.w3.org/2000/svg" xmlns:xlink="http://www.w3.org/1999/xlink" stroke-linecap="round" stroke-linejoin="round" stroke-width="0" fill-rule="evenodd" width="343.612501mm" height="115.01250999999999mm" viewBox="-10313.8 -152539.609 343612.501 115012.51" id="EAW2RZDNkkz913yxxlv8"><defs><circle cx="0" cy="0" r="1250" id="EAW2RZDNkkz913yxxlv8_pad-11"/></defs><g transform="translate(0,-190066.70799999998) scale(1,-1)" fill="currentColor" stroke="currentColor"><path d="M 254507.992 -104909.752 A 1000 1000 0 0 0 253507.992 -105909.752 M 234092.751 -113982.507 246092.751 -113982.507 M 233092.751 -100982.507 A 1000 1000 0 0 0 234092.751 -99982.507 M 246092.751 -99982.507 A 1000 1000 0 0 0 247092.751 -100982.507 M 247092.751 -112982.507 A 1000 1000 0 0 0 246092.751 -113982.507 M 246092.751 -99982.507 234092.751 -99982.507 M 252507.992 -106909.752 A 1000 1000 0 0 0 253507.992 -105909.752 M 268507.992 -103471.752 268507.992 -91471.752 M 234092.751 -113982.507 A 1000 1000 0 0 0 233092.751 -112982.507 M 267507.992 -111909.752 267507.992 -105203.803 M 268507.993 -103471.752 A 1000.001 1000.001 0 0 0 268007.992 -104337.778 M 253507.992 -89033.752 A 1000 1000 0 0 0 254507.992 -90033.752 M 253507.992 -112909.752 266507.992 -112909.752 M 253507.992 -112909.752 A 1000 1000 0 0 0 252507.992 -111909.752 M 267507.992 -105203.803 A 1000 1000 0 0 0 268007.992 -104337.778 M 252507.992 -106909.752 252507.992 -111909.752 M 252507.993 -83033.752 252507.992 -88033.752 M 247092.751 -112982.507 247092.751 -100982.507 M 267507.992 -89739.701 267507.993 -83033.752 M 266507.993 -82033.752 A 1000 1000 0 0 0 267507.993 -83033.752 M 266507.993 -82033.752 253507.993 -82033.752 M 254507.992 -90033.752 254507.992 -104909.752 M 267507.992 -111909.752 A 1000 1000 0 0 0 266507.992 -112909.752 M 268007.992 -90605.726 A 999.9996503 999.9996503 0 0 0 267507.992 -89739.701 M 233092.751 -100982.507 233092.751 -112982.507 M 252507.993 -83033.752 A 1000 1000 0 0 0 253507.993 -82033.752 M 253507.992 -89033.752 A 1000 1000 0 0 0 252507.992 -88033.752 M 227042.751 -99982.507 A 1000 1000 0 0 0 228042.751 -100982.507 M 228042.751 -112982.507 228042.751 -100982.507 M 228042.751 -112982.507 A 1000 1000 0 0 0 227042.751 -113982.507 M 227042.751 -99982.507 215042.751 -99982.507 M 214042.751 -100982.507 214042.751 -112982.507 M 215042.751 -113982.507 227042.751 -113982.507 M 215042.751 -113982.507 A 1000 1000 0 0 0 214042.751 -112982.507 M 214042.751 -100982.507 A 1000 1000 0 0 0 215042.751 -99982.507 M 268007.992 -90605.727 A 999.9996503 999.9996503 0 0 0 268507.992 -91471.752 M -9813.799 -39027.099 -9813.799 -51027.099 M -9813.8 -74839.599 -9813.8 -62839.599 M 185161.2 -81889.605 185161.199 -93889.605 M 171161.2 -81889.604 A 1000 1000 0 0 0 172161.2 -80889.604 M 172161.199 -94889.604 A 1000 1000 0 0 0 171161.199 -93889.604 L 171161.2 -81889.604 M 127011.2 -80889.603 115011.2 -80889.603 M 89911.199 -93889.602 A 1000 1000 0 0 0 88911.199 -94889.602 M 114011.2 -81889.603 114011.199 -93889.603 M 185161.199 -93889.605 A 1000 1000 0 0 0 184161.199 -94889.605 M 115011.199 -94889.603 A 1000 1000 0 0 0 114011.199 -93889.603 M 89911.199 -93889.602 89911.2 -81889.602 M 128011.199 -93889.603 128011.2 -81889.603 M 128011.199 -93889.603 A 1000 1000 0 0 0 127011.199 -94889.603 M 115011.199 -94889.603 127011.199 -94889.603 M 127011.2 -80889.603 A 1000 1000 0 0 0 128011.2 -81889.603 M 114011.2 -81889.603 A 1000 1000 0 0 0 115011.2 -80889.603 M 184161.2 -80889.605 A 1000 1000 0 0 0 185161.2 -81889.605 M 76911.199 -94889.602 A 1000 1000 0 0 0 75911.199 -93889.602 M 172161.2 -80889.604 184161.2 -80889.605 M 76911.199 -94889.602 88911.199 -94889.602 M 184161.199 -94889.605 172161.199 -94889.604 M 134061.201 -52027.103 146061.201 -52027.104 M 137536.2 -74839.603 A 1000 1000 0 0 0 136536.2 -75839.603 M 124536.2 -61839.603 136536.2 -61839.603 M 123536.2 -74839.603 123536.2 -62839.603 M 94673.699 -100939.602 94673.699 -112939.602 M 150823.699 -113939.604 138823.699 -113939.604 M 80673.699 -100939.602 A 1000 1000 0 0 0 81673.699 -99939.602 M 93673.699 -113939.602 81673.699 -113939.602 M 150823.699 -99939.604 A 1000 1000 0 0 0 151823.699 -100939.604 M 142586.2 -62839.604 A 1000 1000 0 0 0 143586.2 -61839.604 M 138823.699 -113939.604 A 1000 1000 0 0 0 137823.699 -112939.604 M 253123.698 -152039.607 A 1000 1000 0 0 0 252123.698 -151039.607 M 137536.2 -62839.604 137536.2 -74839.604 M 80673.699 -112939.602 80673.699 -100939.602 M 252123.698 -139039.607 A 1000 1000 0 0 0 253123.698 -138039.607 M 143586.2 -61839.604 155586.2 -61839.604 M 136536.201 -61839.603 A 1000 1000 0 0 0 137536.2 -62839.604 M 143586.2 -75839.604 A 1000 1000 0 0 0 142586.2 -74839.604 M 165111.201 -38027.104 A 1000 1000 0 0 0 166111.201 -39027.104 M 267504.948 -138039.607 A 1000 1000 0 0 0 268504.948 -139039.607 M 133061.201 -39027.103 A 1000 1000 0 0 0 134061.201 -38027.103 M 94673.699 -112939.602 A 1000 1000 0 0 0 93673.699 -113939.602 M 123536.2 -62839.603 A 1000 1000 0 0 0 124536.2 -61839.603 M 153111.201 -52027.104 A 1000 1000 0 0 0 152111.201 -51027.104 M 88911.2 -80889.602 76911.2 -80889.602 M 136536.2 -75839.603 124536.2 -75839.603 M 156586.2 -62839.604 156586.2 -74839.604 M 81673.699 -99939.602 93673.699 -99939.602 M 133061.201 -39027.103 133061.201 -51027.103 M 252123.698 -151039.607 252123.698 -139039.607 M 93673.699 -99939.602 A 1000 1000 0 0 0 94673.699 -100939.602 M 153111.201 -52027.104 165111.201 -52027.104 M 268504.948 -151039.607 A 1000 1000 0 0 0 267504.948 -152039.607 M 75911.2 -81889.602 A 1000 1000 0 0 0 76911.2 -80889.602 M 81673.699 -113939.602 A 1000 1000 0 0 0 80673.699 -112939.602 M 146061.201 -38027.104 A 1000 1000 0 0 0 147061.201 -39027.104 M 147061.201 -51027.104 A 1000 1000 0 0 0 146061.201 -52027.104 M 151823.699 -112939.604 A 1000 1000 0 0 0 150823.699 -113939.604 M 138823.699 -99939.604 150823.699 -99939.604 M 137823.699 -112939.604 137823.699 -100939.604 M 152111.201 -39027.104 A 1000 1000 0 0 0 153111.201 -38027.104 M 156586.2 -74839.604 A 1000 1000 0 0 0 155586.2 -75839.604 M 267504.948 -152039.607 253123.698 -152039.607 M 146061.201 -38027.104 134061.201 -38027.103 M 124536.2 -75839.603 A 1000 1000 0 0 0 123536.2 -74839.603 M 152111.201 -39027.104 152111.201 -51027.104 M 166111.201 -51027.104 166111.201 -39027.104 M 155586.2 -75839.604 143586.2 -75839.604 M 75623.699 -112939.602 75623.699 -100939.602 M 137823.699 -100939.604 A 1000 1000 0 0 0 138823.699 -99939.604 M 62623.699 -113939.601 A 1000 1000 0 0 0 61623.699 -112939.601 M 62623.699 -113939.601 74623.699 -113939.602 M 253123.698 -138039.607 267504.948 -138039.607 M 75623.699 -112939.602 A 1000 1000 0 0 0 74623.699 -113939.602 M 166111.201 -51027.104 A 1000 1000 0 0 0 165111.201 -52027.104 M 147061.201 -51027.104 147061.201 -39027.104 M 134061.201 -52027.103 A 1000 1000 0 0 0 133061.201 -51027.103 M 151823.699 -100939.604 151823.699 -112939.604 M 268504.948 -139039.607 268504.948 -151039.607 M 142586.2 -74839.604 142586.2 -62839.604 M 155586.2 -61839.604 A 1000 1000 0 0 0 156586.2 -62839.604 M 165111.201 -38027.104 153111.201 -38027.104 M 75911.2 -81889.602 75911.199 -93889.602 M 88911.2 -80889.602 A 1000 1000 0 0 0 89911.2 -81889.602 M 195973.699 -113939.605 A 1000 1000 0 0 0 194973.699 -112939.605 M 146061.199 -94889.604 134061.199 -94889.603 M 133061.199 -93889.603 133061.2 -81889.603 M 147061.199 -93889.604 A 1000 1000 0 0 0 146061.199 -94889.604 M 196067.448 -138039.605 A 1000 1000 0 0 0 197067.448 -139039.605 M 146061.2 -80889.604 A 1000 1000 0 0 0 147061.2 -81889.604 M 195973.699 -113939.605 207973.699 -113939.605 M 134061.199 -94889.603 A 1000 1000 0 0 0 133061.199 -93889.603 M 208973.699 -112939.606 208973.699 -100939.606 M 200736.2 -75839.605 A 1000 1000 0 0 0 199736.2 -74839.605 M 196067.448 -138039.605 192186.198 -138039.605 M 213736.2 -74839.606 A 1000 1000 0 0 0 212736.2 -75839.606 M 184186.198 -137039.605 184186.198 -137244.222 M 207973.699 -99939.605 195973.699 -99939.605 M 199736.2 -74839.605 199736.2 -62839.605 A 1000 1000 0 0 0 200736.2 -61839.605 M 134061.2 -80889.603 146061.2 -80889.604 M 133061.2 -81889.603 A 1000 1000 0 0 0 134061.2 -80889.603 M 113723.699 -112939.603 113723.699 -100939.603 M 117486.2 -61839.603 A 1000 1000 0 0 0 118486.2 -62839.603 M 190186.198 -136039.605 A 1000 1000 0 0 0 191186.198 -137039.605 M 213736.2 -62839.606 213736.2 -74839.606 M 99723.699 -100939.602 99723.699 -112939.602 M 208973.699 -112939.605 A 1000 1000 0 0 0 207973.699 -113939.605 M 194973.699 -100939.605 194973.699 -112939.605 M 200736.2 -61839.605 212736.2 -61839.606 M 184186.199 -137244.222 A 1000.001 1000.001 0 0 0 183626.823 -138141.914 M 100723.699 -113939.602 112723.699 -113939.603 M 118486.2 -62839.603 118486.2 -74839.603 M 212736.2 -75839.606 200736.2 -75839.605 M 117486.2 -75839.603 105486.2 -75839.603 M 190186.198 -136039.605 185186.198 -136039.605 M 112723.699 -99939.603 100723.699 -99939.602 M 100723.699 -113939.602 A 1000 1000 0 0 0 99723.699 -112939.602 M 118486.2 -74839.603 A 1000 1000 0 0 0 117486.2 -75839.603 M 183067.448 -139039.605 A 1000 1000 0 0 0 183626.823 -138141.914 M 113723.699 -112939.603 A 1000 1000 0 0 0 112723.699 -113939.603 M 61623.699 -100939.601 61623.699 -112939.601 M 74623.699 -99939.602 62623.699 -99939.601 M 147061.2 -81889.604 147061.199 -93889.604 M 184186.198 -137039.605 A 1000 1000 0 0 0 185186.198 -136039.605 M 197067.448 -151039.605 A 1000 1000 0 0 0 196067.448 -152039.605 M 183067.448 -139039.605 183067.448 -151039.605 M 112723.699 -99939.603 A 1000 1000 0 0 0 113723.699 -100939.603 M 184067.448 -152039.605 A 1000 1000 0 0 0 183067.448 -151039.605 M 207973.7 -99939.605 A 1000 1000 0 0 0 208973.699 -100939.606 M 184067.448 -152039.605 196067.448 -152039.605 M 212736.2 -61839.606 A 1000 1000 0 0 0 213736.2 -62839.606 M 61623.699 -100939.601 A 1000 1000 0 0 0 62623.699 -99939.601 M 74623.699 -99939.602 A 1000 1000 0 0 0 75623.699 -100939.602 M 194973.699 -100939.605 A 1000 1000 0 0 0 195973.699 -99939.605 M 197067.448 -151039.605 197067.448 -139039.605 M 192186.198 -138039.605 A 1000 1000 0 0 0 191186.198 -137039.605 M 99723.699 -100939.602 A 1000 1000 0 0 0 100723.699 -99939.602 M 103198.699 -118989.603 A 1000 1000 0 0 0 104198.699 -119989.603 M 90198.699 -119989.602 A 1000 1000 0 0 0 91198.699 -118989.602 M 128298.699 -119989.603 128298.698 -131989.603 M 90198.699 -119989.602 90198.698 -131989.602 M 91198.698 -132989.602 A 1000 1000 0 0 0 90198.698 -131989.602 M 103198.699 -118989.603 91198.699 -118989.602 M 141298.699 -118989.604 129298.699 -118989.603 M 105486.2 -61839.603 117486.2 -61839.603 M 104486.2 -62839.603 A 1000 1000 0 0 0 105486.2 -61839.603 M 105486.2 -75839.603 A 1000 1000 0 0 0 104486.2 -74839.603 L 104486.2 -62839.603 M 142298.698 -131989.604 142298.699 -119989.604 M 142298.698 -131989.604 A 1000 1000 0 0 0 141298.698 -132989.604 M 128298.699 -119989.603 A 1000 1000 0 0 0 129298.699 -118989.603 M 129298.698 -132989.603 141298.698 -132989.604 M 129298.698 -132989.603 A 1000 1000 0 0 0 128298.698 -131989.603 M 141298.699 -118989.604 A 1000 1000 0 0 0 142298.699 -119989.604 M 136536.199 -138039.603 A 1000 1000 0 0 0 137536.198 -139039.604 M 137536.198 -151039.604 137536.198 -139039.604 M 137536.198 -151039.603 A 1000 1000 0 0 0 136536.198 -152039.603 M 112629.948 -152039.603 136536.198 -152039.603 M 111629.948 -139039.603 111629.948 -151039.603 M 229311.199 -94889.606 A 1000 1000 0 0 0 228311.199 -93889.606 M 111629.948 -139039.603 A 1000 1000 0 0 0 112629.948 -138039.603 M 229311.199 -94889.606 241311.199 -94889.606 M 65098.699 -118989.601 53098.699 -118989.601 M 66098.698 -131989.602 66098.699 -119989.602 M 160348.698 -132989.604 148348.698 -132989.604 M 147348.699 -119989.604 A 1000 1000 0 0 0 148348.699 -118989.604 M 52098.699 -119989.601 A 1000 1000 0 0 0 53098.699 -118989.601 M 174636.2 -61839.605 A 1000 1000 0 0 0 175636.2 -62839.605 M 148348.698 -132989.604 A 1000 1000 0 0 0 147348.698 -131989.604 M 160348.699 -118989.604 A 1000 1000 0 0 0 161348.699 -119989.604 M 161636.2 -74839.604 161636.2 -62839.604 M 66098.698 -131989.601 A 1000 1000 0 0 0 65098.698 -132989.601 M 175636.2 -62839.605 175636.2 -74839.605 M 53098.698 -132989.601 A 1000 1000 0 0 0 52098.698 -131989.601 M 174636.2 -75839.605 162636.2 -75839.604 M 65098.7 -118989.601 A 1000 1000 0 0 0 66098.699 -119989.602 M 52098.699 -119989.601 52098.698 -131989.601 M 161348.699 -119989.604 161348.698 -131989.604 M 162636.2 -61839.604 174636.2 -61839.605 M 175636.2 -74839.605 A 1000 1000 0 0 0 174636.2 -75839.605 M 147348.698 -131989.604 147348.699 -119989.604 M 162636.2 -75839.604 A 1000 1000 0 0 0 161636.2 -74839.604 M 161348.698 -131989.604 A 1000 1000 0 0 0 160348.698 -132989.604 M 228311.2 -81889.606 A 1000 1000 0 0 0 229311.2 -80889.606 M 242311.199 -93889.606 242311.2 -81889.606 M 161636.2 -62839.604 A 1000 1000 0 0 0 162636.2 -61839.604 M 241311.2 -80889.606 A 1000 1000 0 0 0 242311.2 -81889.606 M 91198.698 -132989.602 103198.698 -132989.603 M 241311.2 -80889.606 229311.2 -80889.606 M 53098.698 -132989.601 65098.698 -132989.601 M 104198.698 -131989.603 104198.699 -119989.603 M 112629.948 -152039.603 A 1000 1000 0 0 0 111629.948 -151039.603 M 136536.198 -138039.603 112629.948 -138039.603 M 148348.699 -118989.604 160348.699 -118989.604 M 228311.2 -81889.606 228311.199 -93889.606 M 242311.199 -93889.606 A 1000 1000 0 0 0 241311.199 -94889.606 M 123248.698 -131989.603 123248.699 -119989.603 M 104198.698 -131989.603 A 1000 1000 0 0 0 103198.698 -132989.603 M 172161.201 -38027.104 184161.201 -38027.105 M 212736.201 -38027.106 A 1000 1000 0 0 0 213736.201 -39027.106 M 172161.201 -52027.104 A 1000 1000 0 0 0 171161.201 -51027.104 M 261655.449 -119989.607 A 1000 1000 0 0 0 262655.449 -120989.607 M 256655.448 -134989.607 261655.448 -134989.607 M 254655.448 -132989.607 A 1000 1000 0 0 0 255655.448 -133989.607 M 231779.449 -120989.606 231779.448 -133989.606 M 23236.2 -62839.6 23236.2 -74839.6 M 239779.448 -132989.606 254655.448 -132989.607 M 123248.698 -131989.603 A 1000 1000 0 0 0 122248.698 -132989.603 M 199736.201 -39027.105 A 1000 1000 0 0 0 200736.201 -38027.105 M 232779.448 -134989.606 A 1000 1000 0 0 0 231779.448 -133989.606 M 109248.699 -119989.603 A 1000 1000 0 0 0 110248.699 -118989.603 M 200736.201 -38027.105 212736.201 -38027.106 M 199736.201 -51027.105 199736.201 -39027.105 M 56573.699 -112939.601 56573.699 -100939.601 M 76886.198 -150039.602 76886.198 -137039.602 M 262655.448 -133989.607 A 1000 1000 0 0 0 261655.448 -134989.607 M 253217.449 -118989.607 A 1000 1000 0 0 0 254083.474 -119489.607 M 262655.448 -133989.607 262655.449 -120989.607 M 185161.201 -51027.105 A 1000 1000 0 0 0 184161.201 -52027.105 M 66129.947 -151039.602 A 1000 1000 0 0 0 65129.948 -150039.601 M 256655.448 -134989.607 A 1000 1000 0 0 0 255655.448 -133989.607 M 22236.2 -75839.6 10236.2 -75839.6 M 200736.201 -52027.105 A 1000 1000 0 0 0 199736.201 -51027.105 M 261655.449 -119989.607 254949.499 -119989.607 M 42573.699 -100939.601 A 1000 1000 0 0 0 43573.699 -99939.601 M 23236.2 -74839.6 A 1000 1000 0 0 0 22236.2 -75839.6 M 55573.699 -99939.601 43573.699 -99939.601 M 66129.948 -151039.602 75886.198 -151039.602 M 171161.201 -51027.104 171161.201 -39027.104 M 10236.2 -75839.6 A 1000 1000 0 0 0 9236.2 -74839.6 M 110248.698 -132989.603 122248.698 -132989.603 M 43573.699 -113939.601 55573.699 -113939.601 M 43573.699 -113939.601 A 1000 1000 0 0 0 42573.699 -112939.601 M 42573.699 -100939.601 42573.699 -112939.601 M 171161.201 -39027.104 A 1000 1000 0 0 0 172161.201 -38027.104 M 231779.449 -120989.606 A 1000 1000 0 0 0 232779.449 -119989.606 M 238779.448 -133989.606 A 1000 1000 0 0 0 239779.448 -132989.606 M 184161.201 -52027.105 172161.201 -52027.104 M 232779.448 -134989.606 237779.448 -134989.606 M 240351.424 -119489.606 A 999.9996503 999.9996503 0 0 0 241217.449 -118989.606 M 110248.698 -132989.603 A 1000 1000 0 0 0 109248.698 -131989.603 M 213736.201 -51027.106 A 1000 1000 0 0 0 212736.201 -52027.106 M 56573.699 -112939.601 A 1000 1000 0 0 0 55573.699 -113939.601 M 65129.948 -137039.602 A 1000 1000 0 0 0 66129.948 -136039.602 M 254949.499 -119989.607 A 1000 1000 0 0 0 254083.474 -119489.607 M 55573.699 -99939.601 A 1000 1000 0 0 0 56573.699 -100939.601 M 240351.423 -119489.606 A 999.9996503 999.9996503 0 0 0 239485.398 -119989.606 M 65129.948 -137039.601 65129.948 -150039.601 M 213736.201 -39027.106 213736.201 -51027.106 M 184161.201 -38027.105 A 1000 1000 0 0 0 185161.201 -39027.105 M 238779.448 -133989.606 A 1000 1000 0 0 0 237779.448 -134989.606 M 75886.198 -136039.602 A 1000 1000 0 0 0 76886.198 -137039.602 M 9236.2 -74839.6 9236.2 -62839.6 M 185161.201 -39027.105 185161.201 -51027.105 M 109248.699 -119989.603 109248.698 -131989.603 M 122248.699 -118989.603 110248.699 -118989.603 M 76886.198 -150039.602 A 1000 1000 0 0 0 75886.198 -151039.602 M 75886.198 -136039.602 66129.948 -136039.602 M 239485.398 -119989.606 232779.449 -119989.606 M 253217.449 -118989.607 241217.449 -118989.606 M 122248.699 -118989.603 A 1000 1000 0 0 0 123248.699 -119989.603 M 212736.201 -52027.106 200736.201 -52027.105 M 16379.948 -151039.6 16379.948 -139039.6 M 11329.949 -112939.6 11329.949 -100939.6 M -9813.799 -39027.099 A 1000 1000 0 0 0 -8813.799 -38027.099 M -7432.551 -100939.599 A 1000 1000 0 0 0 -6432.551 -99939.599 M 3186.2 -61839.6 A 1000 1000 0 0 0 4186.2 -62839.6 M 654.448 -133989.6 A 1000 1000 0 0 0 -345.552 -134989.6 M 16530.448 -132989.6 A 1000 1000 0 0 0 17530.448 -133989.6 M 7948.7 -80889.6 A 1000 1000 0 0 0 8948.7 -81889.6 M 16530.448 -132989.6 1654.448 -132989.6 M -8813.799 -52027.099 A 1000 1000 0 0 0 -9813.799 -51027.099 M -5051.3 -81889.6 A 1000 1000 0 0 0 -4051.3 -80889.6 M -9813.8 -62839.599 A 1000 1000 0 0 0 -8813.8 -61839.599 M 8948.699 -93889.6 A 1000 1000 0 0 0 7948.699 -94889.6 M -6345.551 -120989.6 A 1000 1000 0 0 0 -5345.551 -119989.6 M 7948.7 -80889.6 -4051.3 -80889.6 M 8948.699 -93889.6 8948.7 -81889.6 M -5051.3 -81889.6 -5051.301 -93889.6 M -4051.301 -94889.6 7948.699 -94889.6 M 3186.201 -38027.1 A 1000 1000 0 0 0 4186.201 -39027.1 M 17379.948 -138039.6 31761.198 -138039.601 M -6432.551 -113939.599 A 1000 1000 0 0 0 -7432.551 -112939.599 M 23530.448 -134989.6 18530.448 -134989.6 M 3092.449 -118989.6 15092.449 -118989.6 M -5345.553 -134989.6 A 1000 1000 0 0 0 -6345.552 -133989.599 M 654.448 -133989.6 A 1000 1000 0 0 0 1654.448 -132989.6 M 32761.198 -139039.601 32761.198 -151039.601 M 4186.201 -51027.1 4186.201 -39027.1 M 16379.948 -139039.6 A 1000 1000 0 0 0 17379.948 -138039.6 M 10329.949 -99939.6 -6432.551 -99939.599 M 3186.201 -38027.1 -8813.799 -38027.099 M 10329.949 -99939.6 A 1000 1000 0 0 0 11329.949 -100939.6 M 11329.949 -112939.6 A 1000 1000 0 0 0 10329.949 -113939.6 M -6432.551 -113939.599 10329.949 -113939.6 M -7432.551 -100939.599 -7432.551 -112939.599 M -5345.551 -119989.6 1360.398 -119989.6 M 2226.424 -119489.6 A 999.9996503 999.9996503 0 0 0 3092.449 -118989.6 M -6345.552 -133989.599 -6345.551 -120989.599 M 2226.423 -119489.6 A 999.9996503 999.9996503 0 0 0 1360.398 -119989.6 M 4186.2 -62839.6 4186.2 -74839.6 M -4051.301 -94889.6 A 1000 1000 0 0 0 -5051.301 -93889.6 M -8813.799 -52027.099 3186.201 -52027.1 M 3186.2 -75839.6 -8813.8 -75839.599 M 4186.2 -74839.6 A 1000 1000 0 0 0 3186.2 -75839.6 M -345.552 -134989.6 -5345.552 -134989.6 M 4186.201 -51027.1 A 1000 1000 0 0 0 3186.201 -52027.1 M 18530.448 -134989.6 A 1000 1000 0 0 0 17530.448 -133989.6 M 31761.198 -138039.601 A 1000 1000 0 0 0 32761.198 -139039.601 M -8813.8 -61839.599 3186.2 -61839.6 M -8813.8 -75839.599 A 1000 1000 0 0 0 -9813.8 -74839.599 M 293698.7 -80889.608 281698.7 -80889.608 M 293698.7 -61839.608 A 1000 1000 0 0 0 294698.7 -62839.608 M 294698.7 -74839.608 294698.7 -62839.608 M 280698.7 -81889.608 280698.699 -93889.608 M 294698.7 -74839.608 A 1000 1000 0 0 0 293698.7 -75839.608 M 281698.699 -94889.608 A 1000 1000 0 0 0 280698.699 -93889.608 M 313748.698 -151039.608 313748.698 -139039.608 M 299748.701 -39027.108 299748.701 -51027.108 M 299748.701 -39027.108 A 1000 1000 0 0 0 300748.701 -38027.108 M 299748.698 -139039.608 A 1000 1000 0 0 0 300748.698 -138039.608 M 300748.699 -94889.608 A 1000 1000 0 0 0 299748.699 -93889.608 M 243692.448 -152039.606 229311.198 -152039.606 M 294698.699 -93889.608 294698.7 -81889.608 M 281698.7 -75839.608 A 1000 1000 0 0 0 280698.7 -74839.608 M 281698.699 -94889.608 293698.699 -94889.608 M 313748.701 -51027.108 A 1000 1000 0 0 0 312748.701 -52027.108 M 220879.948 -139039.606 220879.948 -151039.606 M 243692.449 -138039.606 A 1000 1000 0 0 0 244692.448 -139039.607 M 229311.198 -152039.606 A 1000 1000 0 0 0 228311.198 -151039.606 M 313748.699 -93889.608 A 1000 1000 0 0 0 312748.699 -94889.608 M 294698.699 -93889.608 A 1000 1000 0 0 0 293698.699 -94889.608 M 229311.198 -138039.606 243692.448 -138039.606 M 313748.698 -151039.608 A 1000 1000 0 0 0 312748.698 -152039.608 M 24530.448 -133989.6 A 1000 1000 0 0 0 23530.448 -134989.6 M 293698.7 -61839.608 281698.7 -61839.608 M 24530.449 -120989.6 24530.448 -133989.6 M 55573.698 -138039.601 A 1000 1000 0 0 0 56573.698 -139039.601 M 23530.449 -119989.6 A 1000 1000 0 0 0 24530.449 -120989.6 M 16824.499 -119989.6 23530.449 -119989.6 M 56573.698 -139039.601 56573.698 -151039.601 M 312748.698 -138039.608 300748.698 -138039.608 M 300748.701 -52027.108 312748.701 -52027.108 M 300748.701 -52027.108 A 1000 1000 0 0 0 299748.701 -51027.108 M 244692.448 -139039.607 244692.448 -151039.607 M 16824.499 -119989.6 A 1000 1000 0 0 0 15958.474 -119489.6 M 15092.449 -118989.6 A 1000 1000 0 0 0 15958.474 -119489.6 M 312748.701 -38027.108 300748.701 -38027.108 M 56573.698 -151039.601 A 1000 1000 0 0 0 55573.698 -152039.601 M 244692.448 -151039.606 A 1000 1000 0 0 0 243692.448 -152039.606 M 40192.448 -139039.601 A 1000 1000 0 0 0 41192.448 -138039.601 M 312748.698 -138039.608 A 1000 1000 0 0 0 313748.698 -139039.608 M 299748.698 -139039.608 299748.698 -151039.608 M 280698.7 -62839.608 A 1000 1000 0 0 0 281698.7 -61839.608 M 280698.7 -62839.608 280698.7 -74839.608 M 300748.698 -152039.608 A 1000 1000 0 0 0 299748.698 -151039.608 M 299748.7 -81889.608 A 1000 1000 0 0 0 300748.7 -80889.608 M 228311.198 -151039.606 228311.198 -139039.606 M 300748.698 -152039.608 312748.698 -152039.608 M 312748.701 -38027.108 A 1000 1000 0 0 0 313748.701 -39027.108 M 312748.7 -80889.608 300748.7 -80889.608 M 313748.699 -93889.608 313748.7 -81889.608 M 300748.699 -94889.608 312748.699 -94889.608 M 228311.198 -139039.606 A 1000 1000 0 0 0 229311.198 -138039.606 M 280698.7 -81889.608 A 1000 1000 0 0 0 281698.7 -80889.608 M 41192.448 -152039.601 A 1000 1000 0 0 0 40192.448 -151039.601 M 281698.7 -75839.608 293698.7 -75839.608 M 40192.448 -151039.601 40192.448 -139039.601 M 55573.698 -152039.601 41192.448 -152039.601 M 313748.701 -51027.108 313748.701 -39027.108 M 299748.7 -81889.608 299748.699 -93889.608 M 41192.448 -138039.601 55573.698 -138039.601 M 220879.948 -151039.606 A 1000 1000 0 0 0 219879.948 -152039.606 M 293698.7 -80889.608 A 1000 1000 0 0 0 294698.7 -81889.608 M 312748.7 -80889.608 A 1000 1000 0 0 0 313748.7 -81889.608 M 332798.698 -139039.609 332798.698 -151039.609 M 281698.698 -152039.608 A 1000 1000 0 0 0 280698.698 -151039.608 M 318798.698 -151039.609 318798.698 -139039.609 M 332798.701 -39027.109 332798.701 -51027.109 M 281698.701 -52027.108 293698.701 -52027.108 M 294698.698 -151039.608 294698.698 -139039.608 M 318798.699 -93889.609 318798.7 -81889.609 M 300748.698 -132989.608 A 1000 1000 0 0 0 299748.698 -131989.608 M 331798.698 -152039.609 319798.698 -152039.609 M 293698.701 -38027.108 281698.701 -38027.108 M 294698.701 -51027.108 294698.701 -39027.108 M 299748.698 -131989.608 299748.699 -119989.608 M 331798.699 -94889.609 319798.699 -94889.609 M 319798.7 -80889.609 331798.7 -80889.609 M 318798.7 -81889.609 A 1000 1000 0 0 0 319798.7 -80889.609 M 331798.698 -138039.609 A 1000 1000 0 0 0 332798.698 -139039.609 M 293698.698 -138039.608 A 1000 1000 0 0 0 294698.698 -139039.608 M 331798.7 -80889.609 A 1000 1000 0 0 0 332798.7 -81889.609 M 331798.701 -52027.109 319798.701 -52027.109 M 332798.699 -93889.609 A 1000 1000 0 0 0 331798.699 -94889.609 M 280698.701 -39027.108 A 1000 1000 0 0 0 281698.701 -38027.108 M 281698.698 -152039.608 293698.698 -152039.608 M 332798.698 -151039.609 A 1000 1000 0 0 0 331798.698 -152039.609 M 318798.698 -139039.609 A 1000 1000 0 0 0 319798.698 -138039.609 M 319798.699 -94889.609 A 1000 1000 0 0 0 318798.699 -93889.609 M 319798.701 -52027.109 A 1000 1000 0 0 0 318798.701 -51027.109 M 332798.701 -51027.109 A 1000 1000 0 0 0 331798.701 -52027.109 M 319798.701 -38027.109 331798.701 -38027.109 M 318798.701 -39027.109 A 1000 1000 0 0 0 319798.701 -38027.109 M 219879.948 -138039.606 A 1000 1000 0 0 0 220879.948 -139039.606 M 318798.701 -51027.109 318798.701 -39027.109 M 205498.698 -138039.605 219879.948 -138039.606 M 319798.698 -138039.609 331798.698 -138039.609 M 204498.698 -139039.605 A 1000 1000 0 0 0 205498.698 -138039.605 M 281698.701 -52027.108 A 1000 1000 0 0 0 280698.701 -51027.108 M 280698.701 -39027.108 280698.701 -51027.108 M 280698.698 -139039.608 280698.698 -151039.608 M 204498.698 -151039.605 204498.698 -139039.605 M 280698.698 -139039.608 A 1000 1000 0 0 0 281698.698 -138039.608 M 332798.7 -81889.609 332798.699 -93889.609 M 205498.698 -152039.605 A 1000 1000 0 0 0 204498.698 -151039.605 M 219879.948 -152039.606 205498.698 -152039.605 M 293698.698 -138039.608 281698.698 -138039.608 M 294698.701 -51027.108 A 1000 1000 0 0 0 293698.701 -52027.108 M 319798.698 -152039.609 A 1000 1000 0 0 0 318798.698 -151039.609 M 331798.701 -38027.109 A 1000 1000 0 0 0 332798.701 -39027.109 M 293698.701 -38027.108 A 1000 1000 0 0 0 294698.701 -39027.108 M 294698.698 -151039.608 A 1000 1000 0 0 0 293698.698 -152039.608 M 312748.7 -75839.608 300748.7 -75839.608 M 331798.7 -75839.609 319798.7 -75839.609 M 312748.699 -118989.608 A 1000 1000 0 0 0 313748.699 -119989.608 M 300748.699 -118989.608 312748.699 -118989.608 M 319798.7 -75839.609 A 1000 1000 0 0 0 318798.7 -74839.609 M 299748.699 -119989.608 A 1000 1000 0 0 0 300748.699 -118989.608 M 312748.7 -61839.608 A 1000 1000 0 0 0 313748.7 -62839.608 M 300748.7 -61839.608 312748.7 -61839.608 M 331798.7 -61839.609 A 1000 1000 0 0 0 332798.7 -62839.609 M 299748.7 -62839.608 A 1000 1000 0 0 0 300748.7 -61839.608 M 318798.7 -62839.609 A 1000 1000 0 0 0 319798.7 -61839.609 L 331798.7 -61839.609 M 313748.7 -62839.608 313748.7 -74839.608 A 1000 1000 0 0 0 312748.7 -75839.608 M 318798.7 -74839.609 318798.7 -62839.609 M 332798.7 -74839.609 A 1000 1000 0 0 0 331798.7 -75839.609 M 300748.7 -75839.608 A 1000 1000 0 0 0 299748.7 -74839.608 L 299748.7 -62839.608 M 332798.7 -62839.609 332798.7 -74839.609 M 312748.698 -132989.608 300748.698 -132989.608 M 313748.698 -131989.608 A 1000 1000 0 0 0 312748.698 -132989.608 M 313748.699 -119989.608 313748.698 -131989.608 M 24523.699 -113939.6 A 1000 1000 0 0 0 23523.699 -112939.6 M 23523.699 -100939.6 23523.699 -112939.6 M 24523.699 -113939.6 36523.699 -113939.601 M 263799.2 -77839.607 A 1000 1000 0 0 0 262799.2 -76839.607 M 246923.2 -75839.607 261799.2 -75839.607 M 23523.699 -100939.6 A 1000 1000 0 0 0 24523.699 -99939.6 M 269799.2 -76839.607 A 1000 1000 0 0 0 268799.2 -77839.607 M 263799.2 -77839.607 268799.2 -77839.607 M 37523.699 -112939.601 37523.699 -100939.601 M 260361.2 -61839.606 A 1000.001 1000.001 0 0 0 261227.226 -62339.607 M 269799.2 -76839.607 269799.2 -63839.607 M 246629.149 -62839.607 239923.2 -62839.606 M 245923.2 -76839.607 A 1000 1000 0 0 0 246923.2 -75839.607 M 239923.2 -77839.606 244923.2 -77839.607 M 268799.2 -62839.607 262093.251 -62839.607 M 261799.2 -75839.607 A 1000 1000 0 0 0 262799.2 -76839.607 M 238923.2 -63839.606 A 1000 1000 0 0 0 239923.2 -62839.606 M 239923.2 -77839.606 A 1000 1000 0 0 0 238923.2 -76839.606 M 36523.699 -99939.601 A 1000 1000 0 0 0 37523.699 -100939.601 M 247495.175 -62339.607 A 999.9996503 999.9996503 0 0 0 248361.2 -61839.607 M 268799.2 -62839.607 A 1000 1000 0 0 0 269799.2 -63839.607 M 238923.2 -63839.606 238923.2 -76839.606 M 36523.699 -99939.601 24523.699 -99939.6 M 262093.251 -62839.607 A 1000 1000 0 0 0 261227.226 -62339.607 M 260361.2 -61839.607 248361.2 -61839.607 M 245923.2 -76839.607 A 1000 1000 0 0 0 244923.2 -77839.607 M 37523.699 -112939.601 A 1000 1000 0 0 0 36523.699 -113939.601 M 247495.174 -62339.607 A 999.9996503 999.9996503 0 0 0 246629.149 -62839.607 M -6432.552 -152039.599 A 1000 1000 0 0 0 -7432.552 -151039.599 M 204211.2 -81889.605 204211.199 -93889.605 M -7432.552 -139039.599 -7432.552 -151039.599 M 228023.699 -112939.606 A 1000 1000 0 0 0 227023.699 -113939.606 M -7432.552 -139039.599 A 1000 1000 0 0 0 -6432.552 -138039.599 M 7948.698 -138039.6 -6432.552 -138039.599 M 204211.199 -93889.605 A 1000 1000 0 0 0 203211.199 -94889.605 M 7948.698 -138039.6 A 1000 1000 0 0 0 8948.698 -139039.6 M 250836.201 -38027.107 A 1000 1000 0 0 0 251836.201 -39027.107 M 228023.699 -112939.606 228023.699 -100939.606 M 269886.201 -38027.107 A 1000 1000 0 0 0 270886.201 -39027.107 M 227023.699 -99939.606 215023.699 -99939.606 M 251836.201 -39027.107 251836.201 -51027.107 M 47048.698 -131989.601 47048.699 -119989.601 M 34048.698 -132989.601 46048.698 -132989.601 M 257886.201 -52027.107 269886.201 -52027.107 M 214023.699 -100939.606 214023.699 -112939.606 M 46048.699 -118989.601 A 1000 1000 0 0 0 47048.699 -119989.601 M 127011.201 -52027.103 115011.201 -52027.103 M 215023.699 -113939.606 227023.699 -113939.606 M 227023.699 -99939.606 A 1000 1000 0 0 0 228023.699 -100939.606 M 127011.201 -38027.103 A 1000 1000 0 0 0 128011.201 -39027.103 M 191211.199 -94889.605 A 1000 1000 0 0 0 190211.199 -93889.605 M 256886.201 -39027.107 A 1000 1000 0 0 0 257886.201 -38027.107 M 34048.698 -132989.601 A 1000 1000 0 0 0 33048.698 -131989.601 M 115011.201 -52027.103 A 1000 1000 0 0 0 114011.201 -51027.103 M 270886.201 -51027.107 A 1000 1000 0 0 0 269886.201 -52027.107 M 33048.699 -119989.601 A 1000 1000 0 0 0 34048.699 -118989.601 M 114011.201 -39027.103 A 1000 1000 0 0 0 115011.201 -38027.103 M 47048.698 -131989.601 A 1000 1000 0 0 0 46048.698 -132989.601 M 190211.199 -93889.605 190211.2 -81889.605 M 203211.199 -94889.605 191211.199 -94889.605 M 203211.2 -80889.605 A 1000 1000 0 0 0 204211.2 -81889.605 M 46048.699 -118989.601 34048.699 -118989.601 M 256886.201 -39027.107 256886.201 -51027.107 M 128011.201 -51027.103 A 1000 1000 0 0 0 127011.201 -52027.103 M 114011.201 -51027.103 114011.201 -39027.103 M 190211.2 -81889.605 A 1000 1000 0 0 0 191211.2 -80889.605 M 270886.201 -51027.107 270886.201 -39027.107 M 115011.201 -38027.103 127011.201 -38027.103 M 8948.698 -151039.6 8948.698 -139039.6 M 257886.201 -52027.107 A 1000 1000 0 0 0 256886.201 -51027.107 M 237836.201 -39027.106 A 1000 1000 0 0 0 238836.201 -38027.106 M 250836.201 -52027.107 238836.201 -52027.106 M 128011.201 -39027.103 128011.201 -51027.103 M 238836.201 -52027.106 A 1000 1000 0 0 0 237836.201 -51027.106 M 214023.699 -100939.606 A 1000 1000 0 0 0 215023.699 -99939.606 M 237836.201 -51027.106 237836.201 -39027.106 M 33048.699 -119989.601 33048.698 -131989.601 M 215023.699 -113939.606 A 1000 1000 0 0 0 214023.699 -112939.606 M 269886.201 -38027.107 257886.201 -38027.107 M 238836.201 -38027.106 250836.201 -38027.107 M 191211.2 -80889.605 203211.2 -80889.605 M 251836.201 -51027.107 A 1000 1000 0 0 0 250836.201 -52027.107 M 8948.698 -151039.6 A 1000 1000 0 0 0 7948.698 -152039.6 M -6432.552 -152039.599 7948.698 -152039.6 M 232786.201 -39027.106 232786.201 -51027.106 M 107961.2 -80889.603 95961.2 -80889.602 M 172129.948 -150039.604 172129.948 -137039.604 M 153111.199 -94889.604 A 1000 1000 0 0 0 152111.199 -93889.604 M 118773.699 -112939.603 118773.699 -100939.603 M 41286.201 -38027.101 A 1000 1000 0 0 0 42286.201 -39027.101 M 28286.201 -39027.1 A 1000 1000 0 0 0 29286.201 -38027.1 M 186448.698 -132989.605 198448.698 -132989.605 M 42286.201 -51027.101 42286.201 -39027.101 M 166129.948 -151039.604 171129.948 -151039.604 M 28286.201 -39027.1 28286.201 -51027.1 M 85436.201 -51027.102 85436.201 -39027.102 M 98436.201 -52027.102 86436.201 -52027.102 M 172129.948 -150039.604 A 1000 1000 0 0 0 171129.948 -151039.604 M 95961.199 -94889.602 107961.199 -94889.603 M 165129.948 -137039.604 A 1000 1000 0 0 0 166129.948 -136039.604 M 165111.2 -80889.604 A 1000 1000 0 0 0 166111.2 -81889.604 M 131773.699 -113939.603 119773.699 -113939.603 A 1000 1000 0 0 0 118773.699 -112939.603 M 219786.201 -52027.106 A 1000 1000 0 0 0 218786.201 -51027.106 M 166129.948 -151039.604 A 1000 1000 0 0 0 165129.948 -150039.604 M 132773.699 -100939.603 132773.699 -112939.603 M 41286.201 -38027.101 29286.201 -38027.1 M 118773.699 -100939.603 A 1000 1000 0 0 0 119773.699 -99939.603 M 85436.201 -39027.102 A 1000 1000 0 0 0 86436.201 -38027.102 M 94961.2 -81889.602 A 1000 1000 0 0 0 95961.2 -80889.602 M 218786.201 -39027.106 A 1000 1000 0 0 0 219786.201 -38027.106 M 132773.699 -112939.603 A 1000 1000 0 0 0 131773.699 -113939.603 M 153111.199 -94889.604 165111.199 -94889.604 M 218786.201 -51027.106 218786.201 -39027.106 M 171129.948 -136039.604 A 1000 1000 0 0 0 172129.948 -137039.604 M 231786.201 -38027.106 A 1000 1000 0 0 0 232786.201 -39027.106 M 219786.201 -38027.106 231786.201 -38027.106 M 166111.199 -93889.604 A 1000 1000 0 0 0 165111.199 -94889.604 M 186448.698 -132989.605 A 1000 1000 0 0 0 185448.698 -131989.605 M 42286.201 -51027.101 A 1000 1000 0 0 0 41286.201 -52027.101 M 152111.2 -81889.604 152111.199 -93889.604 M 29286.201 -52027.1 A 1000 1000 0 0 0 28286.201 -51027.1 M 198448.699 -118989.605 186448.699 -118989.605 M 98436.201 -38027.102 A 1000 1000 0 0 0 99436.201 -39027.102 M 86436.201 -38027.102 98436.201 -38027.102 M 107961.2 -80889.603 A 1000 1000 0 0 0 108961.2 -81889.603 M 119773.699 -99939.603 131773.699 -99939.603 M 171129.948 -136039.604 166129.948 -136039.604 M 165129.948 -137039.604 165129.948 -150039.604 M 185448.699 -119989.605 A 1000 1000 0 0 0 186448.699 -118989.605 M 131773.699 -99939.603 A 1000 1000 0 0 0 132773.699 -100939.603 M 108961.199 -93889.603 108961.2 -81889.603 M 232786.201 -51027.106 A 1000 1000 0 0 0 231786.201 -52027.106 M 29286.201 -52027.1 41286.201 -52027.101 M 165111.2 -80889.604 153111.2 -80889.604 M 86436.201 -52027.102 A 1000 1000 0 0 0 85436.201 -51027.102 M 231786.201 -52027.106 219786.201 -52027.106 M 99436.201 -51027.102 A 1000 1000 0 0 0 98436.201 -52027.102 M 108961.199 -93889.603 A 1000 1000 0 0 0 107961.199 -94889.603 M 166111.199 -93889.604 166111.2 -81889.604 M 152111.2 -81889.604 A 1000 1000 0 0 0 153111.2 -80889.604 M 99436.201 -39027.102 99436.201 -51027.102 M 185448.699 -119989.605 185448.698 -131989.605 M 95961.199 -94889.602 A 1000 1000 0 0 0 94961.199 -93889.602 M 94961.2 -81889.602 94961.199 -93889.602 M 31761.2 -80889.601 19761.2 -80889.6 M 170873.699 -112939.604 A 1000 1000 0 0 0 169873.699 -113939.604 M 19761.199 -94889.6 31761.199 -94889.601 M 70861.199 -93889.602 70861.2 -81889.602 M 169873.699 -99939.604 A 1000 1000 0 0 0 170873.699 -100939.604 M 219786.2 -75839.606 A 1000 1000 0 0 0 218786.2 -74839.606 M 156873.699 -112939.604 156873.699 -100939.604 M 157873.699 -113939.604 A 1000 1000 0 0 0 156873.699 -112939.604 M 72148.698 -132989.602 84148.698 -132989.602 M 57861.199 -94889.601 A 1000 1000 0 0 0 56861.199 -93889.601 M 169873.699 -113939.604 157873.699 -113939.604 M 60336.201 -52027.101 48336.201 -52027.101 M 47336.201 -39027.101 A 1000 1000 0 0 0 48336.201 -38027.101 M 85148.698 -131989.602 85148.699 -119989.602 M 70861.199 -93889.602 A 1000 1000 0 0 0 69861.199 -94889.602 M 218786.2 -74839.606 218786.2 -62839.606 M 50811.2 -80889.601 A 1000 1000 0 0 0 51811.2 -81889.601 M 51811.199 -93889.601 A 1000 1000 0 0 0 50811.199 -94889.601 M 57861.199 -94889.601 69861.199 -94889.602 M 69861.2 -80889.602 57861.2 -80889.601 M 50811.2 -80889.601 38811.2 -80889.601 M 51811.199 -93889.601 51811.2 -81889.601 M 218786.2 -62839.606 A 1000 1000 0 0 0 219786.2 -61839.606 M 37811.2 -81889.601 A 1000 1000 0 0 0 38811.2 -80889.601 M 231786.2 -61839.606 A 1000 1000 0 0 0 232786.2 -62839.606 M 232786.2 -74839.606 A 1000 1000 0 0 0 231786.2 -75839.606 M 198448.699 -118989.605 A 1000 1000 0 0 0 199448.699 -119989.605 M 60336.201 -38027.101 A 1000 1000 0 0 0 61336.201 -39027.101 M 199448.698 -131989.605 199448.699 -119989.605 M 199448.698 -131989.605 A 1000 1000 0 0 0 198448.698 -132989.605 M 222261.2 -80889.606 210261.2 -80889.606 M 19761.199 -94889.6 A 1000 1000 0 0 0 18761.199 -93889.6 M 18761.2 -81889.6 18761.199 -93889.6 M 222261.2 -80889.606 A 1000 1000 0 0 0 223261.2 -81889.606 M 38811.199 -94889.601 A 1000 1000 0 0 0 37811.199 -93889.601 M 223261.199 -93889.606 223261.2 -81889.606 M 31761.2 -80889.601 A 1000 1000 0 0 0 32761.2 -81889.601 M 232786.2 -62839.606 232786.2 -74839.606 M 223261.199 -93889.606 A 1000 1000 0 0 0 222261.199 -94889.606 M 48336.201 -52027.101 A 1000 1000 0 0 0 47336.201 -51027.101 M 231786.2 -75839.606 219786.2 -75839.606 M 56861.2 -81889.601 A 1000 1000 0 0 0 57861.2 -80889.601 M 69861.2 -80889.602 A 1000 1000 0 0 0 70861.2 -81889.602 M 210261.199 -94889.606 222261.199 -94889.606 M 210261.199 -94889.606 A 1000 1000 0 0 0 209261.199 -93889.606 M 48336.201 -38027.101 60336.201 -38027.101 M 209261.2 -81889.606 209261.199 -93889.606 M 32761.199 -93889.601 32761.2 -81889.601 M 61336.201 -51027.101 A 1000 1000 0 0 0 60336.201 -52027.101 M 209261.2 -81889.606 A 1000 1000 0 0 0 210261.2 -80889.606 M 157873.699 -99939.604 169873.699 -99939.604 M 61336.201 -39027.101 61336.201 -51027.101 M 32761.199 -93889.601 A 1000 1000 0 0 0 31761.199 -94889.601 M 47336.201 -51027.101 47336.201 -39027.101 M 84148.699 -118989.602 A 1000 1000 0 0 0 85148.699 -119989.602 M 85148.698 -131989.602 A 1000 1000 0 0 0 84148.698 -132989.602 M 38811.199 -94889.601 50811.199 -94889.601 M 37811.2 -81889.601 37811.199 -93889.601 M 170873.699 -100939.604 170873.699 -112939.604 M 156873.699 -100939.604 A 1000 1000 0 0 0 157873.699 -99939.604 M 219786.2 -61839.606 231786.2 -61839.606 M 84148.699 -118989.602 72148.699 -118989.602 M 56861.2 -81889.601 56861.199 -93889.601 M 18761.2 -81889.6 A 1000 1000 0 0 0 19761.2 -80889.6 M 71148.699 -119989.602 71148.698 -131989.602 M 28286.2 -62839.6 28286.2 -74839.6 M 41286.2 -61839.601 29286.2 -61839.6 M 41286.2 -61839.601 A 1000 1000 0 0 0 42286.2 -62839.601 M 188923.699 -113939.605 176923.699 -113939.605 A 1000 1000 0 0 0 175923.699 -112939.605 M 80386.201 -51027.102 80386.201 -39027.102 M 66386.2 -62839.602 A 1000 1000 0 0 0 67386.2 -61839.602 M 180398.698 -131989.605 180398.699 -119989.605 M 166398.699 -119989.604 A 1000 1000 0 0 0 167398.699 -118989.604 M 67386.2 -75839.602 A 1000 1000 0 0 0 66386.2 -74839.602 M 194686.2 -74839.605 A 1000 1000 0 0 0 193686.2 -75839.605 M 42286.2 -74839.601 42286.2 -62839.601 M 188923.699 -99939.605 A 1000 1000 0 0 0 189923.699 -100939.605 M 66386.2 -62839.602 66386.2 -74839.602 M 79386.201 -38027.102 67386.201 -38027.102 M 79386.2 -61839.602 A 1000 1000 0 0 0 80386.2 -62839.602 M 61336.2 -74839.601 61336.2 -62839.601 M 67386.201 -52027.102 79386.201 -52027.102 M 181686.2 -75839.605 A 1000 1000 0 0 0 180686.2 -74839.605 M 189923.699 -100939.605 189923.699 -112939.605 M 61336.2 -74839.601 A 1000 1000 0 0 0 60336.2 -75839.601 M 180398.698 -131989.605 A 1000 1000 0 0 0 179398.698 -132989.605 M 71148.699 -119989.602 A 1000 1000 0 0 0 72148.699 -118989.602 M 67386.2 -75839.602 79386.2 -75839.602 M 99436.2 -74839.602 A 1000 1000 0 0 0 98436.2 -75839.602 M 66386.201 -39027.102 A 1000 1000 0 0 0 67386.201 -38027.102 M 175923.699 -100939.605 A 1000 1000 0 0 0 176923.699 -99939.605 M 98436.2 -61839.602 A 1000 1000 0 0 0 99436.2 -62839.602 M 29286.2 -75839.6 41286.2 -75839.601 M 66386.201 -39027.102 66386.201 -51027.102 M 28286.2 -62839.6 A 1000 1000 0 0 0 29286.2 -61839.6 M 179398.699 -118989.605 167398.699 -118989.604 M 60336.2 -61839.601 A 1000 1000 0 0 0 61336.2 -62839.601 M 86436.2 -61839.602 98436.2 -61839.602 M 85436.2 -74839.602 85436.2 -62839.602 M 42286.2 -74839.601 A 1000 1000 0 0 0 41286.2 -75839.601 M 67386.201 -52027.102 A 1000 1000 0 0 0 66386.201 -51027.102 M 60336.2 -61839.601 48336.2 -61839.601 M 79386.201 -38027.102 A 1000 1000 0 0 0 80386.201 -39027.102 M 179398.699 -118989.605 A 1000 1000 0 0 0 180398.699 -119989.605 M 166398.699 -119989.604 166398.698 -131989.604 M 175923.699 -112939.605 175923.699 -100939.605 M 80386.2 -74839.602 A 1000 1000 0 0 0 79386.2 -75839.602 M 80386.2 -74839.602 80386.2 -62839.602 M 167398.698 -132989.604 A 1000 1000 0 0 0 166398.698 -131989.604 M 193686.2 -61839.605 A 1000 1000 0 0 0 194686.2 -62839.605 M 85436.2 -62839.602 A 1000 1000 0 0 0 86436.2 -61839.602 M 167398.698 -132989.604 179398.698 -132989.605 M 99436.2 -62839.602 99436.2 -74839.602 M 181686.2 -61839.605 193686.2 -61839.605 M 180686.2 -74839.605 180686.2 -62839.605 M 193686.2 -75839.605 181686.2 -75839.605 M 48336.2 -75839.601 60336.2 -75839.601 M 80386.201 -51027.102 A 1000 1000 0 0 0 79386.201 -52027.102 M 79386.2 -61839.602 67386.2 -61839.602 M 29286.2 -75839.6 A 1000 1000 0 0 0 28286.2 -74839.6 M 98436.2 -75839.602 86436.2 -75839.602 M 176923.699 -99939.605 188923.699 -99939.605 M 194686.2 -62839.605 194686.2 -74839.605 M 189923.699 -112939.605 A 1000 1000 0 0 0 188923.699 -113939.605 M 72148.698 -132989.602 A 1000 1000 0 0 0 71148.698 -131989.602 M 86436.2 -75839.602 A 1000 1000 0 0 0 85436.2 -74839.602 M 180686.2 -62839.605 A 1000 1000 0 0 0 181686.2 -61839.605 M 218498.699 -119989.606 218498.698 -131989.606 M 48336.2 -75839.601 A 1000 1000 0 0 0 47336.2 -74839.601 M 47336.2 -62839.601 47336.2 -74839.601 M 47336.2 -62839.601 A 1000 1000 0 0 0 48336.2 -61839.601 M 205498.698 -132989.605 A 1000 1000 0 0 0 204498.698 -131989.605 M 217498.698 -132989.606 205498.698 -132989.605 M 218498.698 -131989.606 A 1000 1000 0 0 0 217498.698 -132989.606 M 217498.699 -118989.606 A 1000 1000 0 0 0 218498.699 -119989.606 M 205498.699 -118989.605 217498.699 -118989.606 M 204498.699 -119989.605 A 1000 1000 0 0 0 205498.699 -118989.605 M 204498.698 -131989.605 204498.699 -119989.605 M 22236.2 -61839.6 A 1000 1000 0 0 0 23236.2 -62839.6 M 17379.948 -152039.6 A 1000 1000 0 0 0 16379.948 -151039.6 M 31761.198 -152039.601 17379.948 -152039.6 M 32761.198 -151039.601 A 1000 1000 0 0 0 31761.198 -152039.601 M 10236.2 -61839.6 22236.2 -61839.6 M 9236.2 -62839.6 A 1000 1000 0 0 0 10236.2 -61839.6" fill="none" stroke-width="1000"/><use xlink:href="#EAW2RZDNkkz913yxxlv8_pad-11" x="143040.1" y="-149771.1"/><use xlink:href="#EAW2RZDNkkz913yxxlv8_pad-11" x="159540.1" y="-143171.1"/><use xlink:href="#EAW2RZDNkkz913yxxlv8_pad-11" x="159540.1" y="-146471.1"/><use xlink:href="#EAW2RZDNkkz913yxxlv8_pad-11" x="159540.1" y="-149771.1"/><use xlink:href="#EAW2RZDNkkz913yxxlv8_pad-11" x="156240.1" y="-139871.1"/><use xlink:href="#EAW2RZDNkkz913yxxlv8_pad-11" x="152940.1" y="-146471.1"/><use xlink:href="#EAW2RZDNkkz913yxxlv8_pad-11" x="149640.1" y="-143171.1"/><use xlink:href="#EAW2RZDNkkz913yxxlv8_pad-11" x="156240.1" y="-143171.1"/><use xlink:href="#EAW2RZDNkkz913yxxlv8_pad-11" x="156240.1" y="-149771.1"/><use xlink:href="#EAW2RZDNkkz913yxxlv8_pad-11" x="152940.1" y="-149771.1"/><use xlink:href="#EAW2RZDNkkz913yxxlv8_pad-11" x="149640.1" y="-146471.1"/><use xlink:href="#EAW2RZDNkkz913yxxlv8_pad-11" x="152940.1" y="-139871.1"/><use xlink:href="#EAW2RZDNkkz913yxxlv8_pad-11" x="146340.1" y="-139871.1"/><use xlink:href="#EAW2RZDNkkz913yxxlv8_pad-11" x="146340.1" y="-149771.1"/><use xlink:href="#EAW2RZDNkkz913yxxlv8_pad-11" x="152940.1" y="-143171.1"/><use xlink:href="#EAW2RZDNkkz913yxxlv8_pad-11" x="146340.1" y="-143171.1"/><use xlink:href="#EAW2RZDNkkz913yxxlv8_pad-11" x="159540.1" y="-139871.1"/><use xlink:href="#EAW2RZDNkkz913yxxlv8_pad-11" x="143040.1" y="-139871.1"/><use xlink:href="#EAW2RZDNkkz913yxxlv8_pad-11" x="143040.1" y="-143171.1"/><use xlink:href="#EAW2RZDNkkz913yxxlv8_pad-11" x="149640.1" y="-139871.1"/><use xlink:href="#EAW2RZDNkkz913yxxlv8_pad-11" x="146340.1" y="-146471.1"/><use xlink:href="#EAW2RZDNkkz913yxxlv8_pad-11" x="149640.1" y="-149771.1"/><use xlink:href="#EAW2RZDNkkz913yxxlv8_pad-11" x="156240.1" y="-146471.1"/><use xlink:href="#EAW2RZDNkkz913yxxlv8_pad-11" x="143040.1" y="-146471.1"/><use xlink:href="#EAW2RZDNkkz913yxxlv8_pad-11" x="105586.5" y="-139794.9"/><use xlink:href="#EAW2RZDNkkz913yxxlv8_pad-11" x="105586.5" y="-143094.9"/><use xlink:href="#EAW2RZDNkkz913yxxlv8_pad-11" x="105586.5" y="-146394.9"/><use xlink:href="#EAW2RZDNkkz913yxxlv8_pad-11" x="105586.5" y="-149694.9"/><use xlink:href="#EAW2RZDNkkz913yxxlv8_pad-11" x="102286.5" y="-139794.9"/><use xlink:href="#EAW2RZDNkkz913yxxlv8_pad-11" x="102286.5" y="-143094.9"/><use xlink:href="#EAW2RZDNkkz913yxxlv8_pad-11" x="102286.5" y="-146394.9"/><use xlink:href="#EAW2RZDNkkz913yxxlv8_pad-11" x="102286.5" y="-149694.9"/><use xlink:href="#EAW2RZDNkkz913yxxlv8_pad-11" x="98986.5" y="-139794.9"/><use xlink:href="#EAW2RZDNkkz913yxxlv8_pad-11" x="98986.5" y="-143094.9"/><use xlink:href="#EAW2RZDNkkz913yxxlv8_pad-11" x="98986.5" y="-146394.9"/><use xlink:href="#EAW2RZDNkkz913yxxlv8_pad-11" x="98986.5" y="-149694.9"/><use xlink:href="#EAW2RZDNkkz913yxxlv8_pad-11" x="95686.5" y="-139794.9"/><use xlink:href="#EAW2RZDNkkz913yxxlv8_pad-11" x="95686.5" y="-143094.9"/><use xlink:href="#EAW2RZDNkkz913yxxlv8_pad-11" x="95686.5" y="-146394.9"/><use xlink:href="#EAW2RZDNkkz913yxxlv8_pad-11" x="95686.5" y="-149694.9"/><use xlink:href="#EAW2RZDNkkz913yxxlv8_pad-11" x="92386.5" y="-139794.9"/><use xlink:href="#EAW2RZDNkkz913yxxlv8_pad-11" x="92386.5" y="-143094.9"/><use xlink:href="#EAW2RZDNkkz913yxxlv8_pad-11" x="92386.5" y="-146394.9"/><use xlink:href="#EAW2RZDNkkz913yxxlv8_pad-11" x="92386.5" y="-149694.9"/><use xlink:href="#EAW2RZDNkkz913yxxlv8_pad-11" x="89086.5" y="-139794.9"/><use xlink:href="#EAW2RZDNkkz913yxxlv8_pad-11" x="89086.5" y="-143094.9"/><use xlink:href="#EAW2RZDNkkz913yxxlv8_pad-11" x="89086.5" y="-146394.9"/><use xlink:href="#EAW2RZDNkkz913yxxlv8_pad-11" x="89086.5" y="-149694.9"/><use xlink:href="#EAW2RZDNkkz913yxxlv8_pad-11" x="85786.5" y="-139794.9"/><use xlink:href="#EAW2RZDNkkz913yxxlv8_pad-11" x="85786.5" y="-143094.9"/><use xlink:href="#EAW2RZDNkkz913yxxlv8_pad-11" x="85786.5" y="-146394.9"/><use xlink:href="#EAW2RZDNkkz913yxxlv8_pad-11" x="85786.5" y="-149694.9"/><use xlink:href="#EAW2RZDNkkz913yxxlv8_pad-11" x="82486.5" y="-139794.9"/><use xlink:href="#EAW2RZDNkkz913yxxlv8_pad-11" x="82486.5" y="-143094.9"/><use xlink:href="#EAW2RZDNkkz913yxxlv8_pad-11" x="82486.5" y="-146394.9"/><use xlink:href="#EAW2RZDNkkz913yxxlv8_pad-11" x="82486.5" y="-149694.9"/></g></svg>