%TF.GenerationSoftware,KiCad,Pcbnew,7.0.5*%
%TF.CreationDate,2023-07-12T22:14:23+02:00*%
%TF.ProjectId,Foundation_Universal,466f756e-6461-4746-996f-6e5f556e6976,rev?*%
%TF.SameCoordinates,Original*%
%TF.FileFunction,Soldermask,Top*%
%TF.FilePolarity,Negative*%
%FSLAX46Y46*%
G04 Gerber Fmt 4.6, Leading zero omitted, Abs format (unit mm)*
G04 Created by KiCad (PCBNEW 7.0.5) date 2023-07-12 22:14:23*
%MOMM*%
%LPD*%
G01*
G04 APERTURE LIST*
%ADD10C,1.000000*%
G04 APERTURE END LIST*
D10*
X197368615Y144120000D02*
G75*
G03*
X197368615Y144120000I-1800000J0D01*
G01*
X197368615Y39820000D02*
G75*
G03*
X197368615Y39820000I-1800000J0D01*
G01*
X99137055Y144120000D02*
G75*
G03*
X99137055Y144120000I-1800000J0D01*
G01*
X-48427225Y120193213D02*
G75*
G03*
X-48427225Y120193213I-1200000J0D01*
G01*
X-42065200Y61878919D02*
G75*
G03*
X-42065200Y61878919I-1200000J0D01*
G01*
X121518040Y73446302D02*
G75*
G03*
X121518040Y73446302I-1200000J0D01*
G01*
X113730473Y121101496D02*
G75*
G03*
X113730473Y121101496I-1200000J0D01*
G01*
X46880300Y49057357D02*
G75*
G03*
X46880300Y49057357I-1287763J0D01*
G01*
X57691518Y52281755D02*
G75*
G03*
X57691518Y52281755I-1287763J0D01*
G01*
X43286543Y52281755D02*
G75*
G03*
X43286543Y52281755I-1287763J0D01*
G01*
X46880300Y55506153D02*
G75*
G03*
X46880300Y55506153I-1287763J0D01*
G01*
X57691518Y58740534D02*
G75*
G03*
X57691518Y58740534I-1287763J0D01*
G01*
X43286543Y58740534D02*
G75*
G03*
X43286543Y58740534I-1287763J0D01*
G01*
X-13694465Y49057357D02*
G75*
G03*
X-13694465Y49057357I-1287763J0D01*
G01*
X720492Y49057357D02*
G75*
G03*
X720492Y49057357I-1287763J0D01*
G01*
X-2883248Y52281755D02*
G75*
G03*
X-2883248Y52281755I-1287762J0D01*
G01*
X-17298205Y52281755D02*
G75*
G03*
X-17298205Y52281755I-1287763J0D01*
G01*
X-13694465Y55506153D02*
G75*
G03*
X-13694465Y55506153I-1287763J0D01*
G01*
X720492Y55506153D02*
G75*
G03*
X720492Y55506153I-1287763J0D01*
G01*
X-2883248Y58740534D02*
G75*
G03*
X-2883248Y58740534I-1287762J0D01*
G01*
X-17298205Y58740534D02*
G75*
G03*
X-17298205Y58740534I-1287763J0D01*
G01*
X-13694465Y58740534D02*
G75*
G03*
X-13694465Y58740534I-1287763J0D01*
G01*
X720492Y58740534D02*
G75*
G03*
X720492Y58740534I-1287763J0D01*
G01*
X-2883248Y55506153D02*
G75*
G03*
X-2883248Y55506153I-1287762J0D01*
G01*
X-17298205Y55506153D02*
G75*
G03*
X-17298205Y55506153I-1287763J0D01*
G01*
X-13694465Y52281755D02*
G75*
G03*
X-13694465Y52281755I-1287763J0D01*
G01*
X720492Y52281755D02*
G75*
G03*
X720492Y52281755I-1287763J0D01*
G01*
X-2883248Y49057357D02*
G75*
G03*
X-2883248Y49057357I-1287762J0D01*
G01*
X-17298205Y49057357D02*
G75*
G03*
X-17298205Y49057357I-1287763J0D01*
G01*
X46880300Y58740534D02*
G75*
G03*
X46880300Y58740534I-1287763J0D01*
G01*
X57691518Y55506153D02*
G75*
G03*
X57691518Y55506153I-1287763J0D01*
G01*
X43286543Y55506153D02*
G75*
G03*
X43286543Y55506153I-1287763J0D01*
G01*
X46880300Y52281755D02*
G75*
G03*
X46880300Y52281755I-1287763J0D01*
G01*
X57691518Y49057357D02*
G75*
G03*
X57691518Y49057357I-1287763J0D01*
G01*
X43286543Y49057357D02*
G75*
G03*
X43286543Y49057357I-1287763J0D01*
G01*
X50484039Y49057357D02*
G75*
G03*
X50484039Y49057357I-1287763J0D01*
G01*
X54087778Y52281755D02*
G75*
G03*
X54087778Y52281755I-1287762J0D01*
G01*
X39682804Y52281755D02*
G75*
G03*
X39682804Y52281755I-1287763J0D01*
G01*
X50484039Y55506153D02*
G75*
G03*
X50484039Y55506153I-1287763J0D01*
G01*
X54087778Y58740534D02*
G75*
G03*
X54087778Y58740534I-1287762J0D01*
G01*
X39682804Y58740534D02*
G75*
G03*
X39682804Y58740534I-1287763J0D01*
G01*
X-10090726Y49057357D02*
G75*
G03*
X-10090726Y49057357I-1287763J0D01*
G01*
X4324231Y49057357D02*
G75*
G03*
X4324231Y49057357I-1287763J0D01*
G01*
X-6486987Y52281755D02*
G75*
G03*
X-6486987Y52281755I-1287763J0D01*
G01*
X-20901944Y52281755D02*
G75*
G03*
X-20901944Y52281755I-1287763J0D01*
G01*
X-10090726Y55506153D02*
G75*
G03*
X-10090726Y55506153I-1287763J0D01*
G01*
X4324231Y55506153D02*
G75*
G03*
X4324231Y55506153I-1287763J0D01*
G01*
X-6486987Y58740534D02*
G75*
G03*
X-6486987Y58740534I-1287763J0D01*
G01*
X-20901944Y58740534D02*
G75*
G03*
X-20901944Y58740534I-1287763J0D01*
G01*
X-10090726Y58740534D02*
G75*
G03*
X-10090726Y58740534I-1287763J0D01*
G01*
X4324231Y58740534D02*
G75*
G03*
X4324231Y58740534I-1287763J0D01*
G01*
X-6486987Y55506153D02*
G75*
G03*
X-6486987Y55506153I-1287763J0D01*
G01*
X-20901944Y55506153D02*
G75*
G03*
X-20901944Y55506153I-1287763J0D01*
G01*
X-10090726Y52281755D02*
G75*
G03*
X-10090726Y52281755I-1287763J0D01*
G01*
X4324231Y52281755D02*
G75*
G03*
X4324231Y52281755I-1287763J0D01*
G01*
X-6486987Y49057357D02*
G75*
G03*
X-6486987Y49057357I-1287763J0D01*
G01*
X-20901944Y49057357D02*
G75*
G03*
X-20901944Y49057357I-1287763J0D01*
G01*
X50484039Y58740534D02*
G75*
G03*
X50484039Y58740534I-1287763J0D01*
G01*
X54087778Y55506153D02*
G75*
G03*
X54087778Y55506153I-1287762J0D01*
G01*
X39682804Y55506153D02*
G75*
G03*
X39682804Y55506153I-1287763J0D01*
G01*
X50484039Y52281755D02*
G75*
G03*
X50484039Y52281755I-1287763J0D01*
G01*
X54087778Y49057357D02*
G75*
G03*
X54087778Y49057357I-1287762J0D01*
G01*
X39682804Y49057357D02*
G75*
G03*
X39682804Y49057357I-1287763J0D01*
G01*
X212918930Y92513390D02*
G75*
G03*
X212918930Y92513390I-1200000J0D01*
G01*
X175207500Y130070000D02*
G75*
G03*
X175207500Y130070000I-1200000J0D01*
G01*
X175207500Y53870001D02*
G75*
G03*
X175207500Y53870001I-1200000J0D01*
G01*
X-119792500Y130070000D02*
G75*
G03*
X-119792500Y130070000I-1200000J0D01*
G01*
X-119792500Y53870001D02*
G75*
G03*
X-119792500Y53870001I-1200000J0D01*
G01*
X-102378615Y144120000D02*
G75*
G03*
X-102378615Y144120000I-1800000J0D01*
G01*
X47495000Y39820000D02*
G75*
G03*
X47495000Y39820000I-1800000J0D01*
G01*
X-102378615Y39820000D02*
G75*
G03*
X-102378615Y39820000I-1800000J0D01*
G01*
X-4147055Y144120000D02*
G75*
G03*
X-4147055Y144120000I-1800000J0D01*
G01*
X-110736740Y65920009D02*
X-110823753Y65920009D01*
X-111323753Y66420009D02*
G75*
G03*
X-110823753Y65920009I500000J0D01*
G01*
X-111323753Y66420009D02*
X-111323750Y79420000D01*
X-110823750Y79920000D02*
G75*
G03*
X-111323750Y79420000I0J-500000D01*
G01*
X-110823750Y79920000D02*
X-76392500Y79920000D01*
X-75892500Y79420000D02*
G75*
G03*
X-76392500Y79920000I-500001J-1D01*
G01*
X-75892500Y79420000D02*
X-75892500Y66420000D01*
X-76392500Y65920000D02*
G75*
G03*
X-75892500Y66420000I-1J500001D01*
G01*
X-76392500Y65920000D02*
X-78860739Y65920000D01*
X-78860739Y65920000D02*
G75*
G03*
X-79360739Y65420000I1J-500001D01*
G01*
X-79360739Y65420000D02*
X-79360739Y64419989D01*
X-79860739Y63919989D02*
G75*
G03*
X-79360739Y64419989I-1J500001D01*
G01*
X-79860739Y63919989D02*
X-85860742Y63919989D01*
X-86360742Y64419989D02*
G75*
G03*
X-85860742Y63919989I500000J0D01*
G01*
X-86360742Y64419989D02*
X-86360742Y65420000D01*
X-86360742Y65420000D02*
G75*
G03*
X-86860742Y65919997I-500000J-3D01*
G01*
X-86860742Y65919997D02*
X-102736736Y65920000D01*
X-102736736Y65920000D02*
G75*
G03*
X-103236736Y65420000I0J-500000D01*
G01*
X-103236736Y65420000D02*
X-103236736Y64419989D01*
X-103736736Y63919989D02*
G75*
G03*
X-103236736Y64419989I-1J500001D01*
G01*
X-103736736Y63919989D02*
X-109736740Y63919989D01*
X-110236740Y64419989D02*
G75*
G03*
X-109736740Y63919989I500001J1D01*
G01*
X-110236740Y64419989D02*
X-110236740Y65420009D01*
X-110236740Y65420009D02*
G75*
G03*
X-110736740Y65920009I-499998J2D01*
G01*
X-14917836Y139620001D02*
G75*
G03*
X-11417836Y143120000I-3J3500003D01*
G01*
X-14917836Y139620000D02*
X-95049455Y139620000D01*
X-98549455Y143120000D02*
G75*
G03*
X-95049455Y139620000I3499999J-1D01*
G01*
X-98549455Y143120000D02*
X-98549455Y143495166D01*
X-98549455Y143495166D02*
G75*
G03*
X-102048648Y146920000I-3499192J-75165D01*
G01*
X-102048648Y146920000D02*
X-106118840Y146920000D01*
X-106118840Y146920000D02*
G75*
G03*
X-109618840Y143420000I-1J-3499999D01*
G01*
X-109618840Y143420000D02*
X-109618840Y143120000D01*
X-113118840Y139620000D02*
G75*
G03*
X-109618840Y143120000I1J3499999D01*
G01*
X-113118840Y139620000D02*
X-139830000Y139620000D01*
X-139830000Y139620000D02*
G75*
G03*
X-144830000Y134620000I0J-5000000D01*
G01*
X-144830000Y134620000D02*
X-144830000Y49320000D01*
X-144830000Y49320000D02*
G75*
G03*
X-139830000Y44320000I5000000J0D01*
G01*
X-139830000Y44320000D02*
X-115386789Y44320000D01*
X-111886789Y40820000D02*
G75*
G03*
X-115386789Y44320000I-3499999J1D01*
G01*
X-111886789Y40820000D02*
X-111886789Y40520000D01*
X-111886789Y40520000D02*
G75*
G03*
X-108386789Y37020000I3499999J-1D01*
G01*
X-108386789Y37020000D02*
X-100034624Y37020000D01*
X-100034624Y37020000D02*
G75*
G03*
X-96534679Y40500606I-1J3500000D01*
G01*
X-96534678Y40500606D02*
X-96534678Y40820000D01*
X-93034678Y44320000D02*
G75*
G03*
X-96534678Y40820000I-1J-3499999D01*
G01*
X-93034678Y44320000D02*
X36568613Y44320000D01*
X40068617Y40820000D02*
G75*
G03*
X36568613Y44320000I-3500006J-6D01*
G01*
X40068613Y40820000D02*
X40068613Y40444766D01*
X40068599Y40444766D02*
G75*
G03*
X43564647Y37020001I3497912J73928D01*
G01*
X43564647Y37020001D02*
X47793907Y37020000D01*
X47793907Y37019998D02*
G75*
G03*
X51293907Y40520000I4J3499996D01*
G01*
X51293907Y40520000D02*
X51293907Y40820000D01*
X54793907Y44319998D02*
G75*
G03*
X51293907Y40820000I4J-3500004D01*
G01*
X54793907Y44320000D02*
X186430610Y44320000D01*
X189929813Y40895000D02*
G75*
G03*
X186430610Y44320000I-3499202J-75006D01*
G01*
X189929806Y40895000D02*
X189939451Y40445000D01*
X189939421Y40444999D02*
G75*
G03*
X193438647Y37020000I3499190J74995D01*
G01*
X193438647Y37020000D02*
X197667907Y37020000D01*
X197667907Y37019998D02*
G75*
G03*
X201167907Y40520000I4J3499996D01*
G01*
X201167907Y40520000D02*
X201167907Y40820000D01*
X204667907Y44319998D02*
G75*
G03*
X201167907Y40820000I4J-3500004D01*
G01*
X204667907Y44320000D02*
X231220000Y44320000D01*
X231220000Y44320005D02*
G75*
G03*
X236220000Y49320000I11J4999989D01*
G01*
X236220000Y49320000D02*
X236220000Y134620000D01*
X236220017Y134620000D02*
G75*
G03*
X231220000Y139620000I-5000006J-6D01*
G01*
X231220000Y139620000D02*
X204635856Y139620000D01*
X201135817Y143120000D02*
G75*
G03*
X204635856Y139620000I3499994J-6D01*
G01*
X201135856Y143120000D02*
X201135856Y143420000D01*
X201135817Y143420000D02*
G75*
G03*
X197635856Y146920000I-3500006J-6D01*
G01*
X197635856Y146920000D02*
X193565664Y146920000D01*
X193565664Y146920040D02*
G75*
G03*
X190066469Y143495000I47J-3500046D01*
G01*
X190066468Y143495000D02*
X190066468Y143120000D01*
X186566468Y139620037D02*
G75*
G03*
X190066468Y143120000I43J3499957D01*
G01*
X186566468Y139620000D02*
X106434856Y139620000D01*
X102934817Y143120000D02*
G75*
G03*
X106434856Y139620000I3499994J-6D01*
G01*
X102934856Y143120000D02*
X102934856Y143495000D01*
X102934813Y143494999D02*
G75*
G03*
X99435660Y146920000I-3499202J-75005D01*
G01*
X99435660Y146920000D02*
X95365467Y146920000D01*
X95365467Y146920038D02*
G75*
G03*
X91865467Y143420000I44J-3500044D01*
G01*
X91865467Y143420000D02*
X91865467Y142420000D01*
X88365467Y138920038D02*
G75*
G03*
X91865467Y142420000I44J3499956D01*
G01*
X88365467Y138920000D02*
X3151549Y138920000D01*
X-348483Y142420000D02*
G75*
G03*
X3151549Y138920000I3499994J-6D01*
G01*
X-348451Y142420000D02*
X-348451Y143420000D01*
X-348483Y143420000D02*
G75*
G03*
X-3848451Y146920000I-3500006J-6D01*
G01*
X-3848451Y146920000D02*
X-7918643Y146920000D01*
X-7918643Y146919948D02*
G75*
G03*
X-11417836Y143495166I-46J-3499954D01*
G01*
X-11417836Y143495166D02*
X-11417836Y143120000D01*
X81557500Y66420000D02*
X81557500Y79420000D01*
X81557500Y79420000D02*
X82057500Y79920000D01*
X82057500Y79920000D02*
X95057500Y79920000D01*
X95057500Y79920000D02*
X95557500Y79420000D01*
X95557500Y79420000D02*
X95557500Y66420000D01*
X95557500Y66420000D02*
X95057500Y65920000D01*
X95057500Y65920000D02*
X82057500Y65920000D01*
X82057500Y65920000D02*
X81557500Y66420000D01*
X100607500Y66420000D02*
X100607500Y79420000D01*
X100607500Y79420000D02*
X101107500Y79920000D01*
X101107500Y79920000D02*
X114107500Y79920000D01*
X114107500Y79920000D02*
X114607500Y79420000D01*
X114607500Y79420000D02*
X114607500Y66420000D01*
X114607500Y66420000D02*
X114107500Y65920000D01*
X114107500Y65920000D02*
X101107500Y65920000D01*
X101107500Y65920000D02*
X100607500Y66420000D01*
X62507500Y66420000D02*
X62507500Y79420000D01*
X62507500Y79420000D02*
X63007500Y79920000D01*
X63007500Y79920000D02*
X76007500Y79920000D01*
X76007500Y79920000D02*
X76507500Y79420000D01*
X76507500Y79420000D02*
X76507500Y66420000D01*
X76507500Y66420000D02*
X76007500Y65920000D01*
X76007500Y65920000D02*
X63007500Y65920000D01*
X63007500Y65920000D02*
X62507500Y66420000D01*
X24407500Y66420000D02*
X24407500Y79420000D01*
X24407500Y79420000D02*
X24907500Y79920000D01*
X24907500Y79920000D02*
X37907500Y79920000D01*
X37907500Y79920000D02*
X38407500Y79420000D01*
X38407500Y79420000D02*
X38407500Y66420000D01*
X38407500Y66420000D02*
X37907500Y65920000D01*
X37907500Y65920000D02*
X24907500Y65920000D01*
X24907500Y65920000D02*
X24407500Y66420000D01*
X43457500Y66420000D02*
X43457500Y79420000D01*
X43457500Y79420000D02*
X43957500Y79920000D01*
X43957500Y79920000D02*
X56957500Y79920000D01*
X56957500Y79920000D02*
X57457500Y79420000D01*
X57457500Y79420000D02*
X57457500Y66420000D01*
X57457500Y66420000D02*
X56957500Y65920000D01*
X56957500Y65920000D02*
X43957500Y65920000D01*
X43957500Y65920000D02*
X43457500Y66420000D01*
X5357500Y66420000D02*
X5357500Y79420000D01*
X5357500Y79420000D02*
X5857500Y79920000D01*
X5857500Y79920000D02*
X18857500Y79920000D01*
X18857500Y79920000D02*
X19357500Y79420000D01*
X19357500Y79420000D02*
X19357500Y66420000D01*
X19357500Y66420000D02*
X18857500Y65920000D01*
X18857500Y65920000D02*
X5857500Y65920000D01*
X5857500Y65920000D02*
X5357500Y66420000D01*
X-13692500Y66420000D02*
X-13692500Y79420000D01*
X-13692500Y79420000D02*
X-13192500Y79920000D01*
X-13192500Y79920000D02*
X-192500Y79920000D01*
X-192500Y79920000D02*
X307500Y79420000D01*
X307500Y79420000D02*
X307500Y66420000D01*
X307500Y66420000D02*
X-192500Y65920000D01*
X-192500Y65920000D02*
X-13192500Y65920000D01*
X-13192500Y65920000D02*
X-13692500Y66420000D01*
X-51792500Y66420000D02*
X-51792500Y79420000D01*
X-51792500Y79420000D02*
X-51292500Y79920000D01*
X-51292500Y79920000D02*
X-38292500Y79920000D01*
X-38292500Y79920000D02*
X-37792500Y79420000D01*
X-37792500Y79420000D02*
X-37792500Y66420000D01*
X-37792500Y66420000D02*
X-38292500Y65920000D01*
X-38292500Y65920000D02*
X-51292500Y65920000D01*
X-51292500Y65920000D02*
X-51792500Y66420000D01*
X110132500Y85470000D02*
X110132500Y98470000D01*
X110132500Y98470000D02*
X110632500Y98970000D01*
X110632500Y98970000D02*
X123632500Y98970000D01*
X123632500Y98970000D02*
X124132500Y98470000D01*
X124132500Y98470000D02*
X124132500Y85470000D01*
X124132500Y85470000D02*
X123632500Y84970000D01*
X123632500Y84970000D02*
X110632500Y84970000D01*
X110632500Y84970000D02*
X110132500Y85470000D01*
X91082500Y85470000D02*
X91082500Y98470000D01*
X91082500Y98470000D02*
X91582500Y98970000D01*
X91582500Y98970000D02*
X104582500Y98970000D01*
X104582500Y98970000D02*
X105082500Y98470000D01*
X105082500Y98470000D02*
X105082500Y85470000D01*
X105082500Y85470000D02*
X104582500Y84970000D01*
X104582500Y84970000D02*
X91582500Y84970000D01*
X91582500Y84970000D02*
X91082500Y85470000D01*
X-32742500Y66420000D02*
X-32742500Y79420000D01*
X-32742500Y79420000D02*
X-32242500Y79920000D01*
X-32242500Y79920000D02*
X-19242500Y79920000D01*
X-19242500Y79920000D02*
X-18742500Y79420000D01*
X-18742500Y79420000D02*
X-18742500Y66420000D01*
X-18742500Y66420000D02*
X-19242500Y65920000D01*
X-19242500Y65920000D02*
X-32242500Y65920000D01*
X-32242500Y65920000D02*
X-32742500Y66420000D01*
X72032500Y85470000D02*
X72032500Y98470000D01*
X72032500Y98470000D02*
X72532500Y98970000D01*
X72532500Y98970000D02*
X85532500Y98970000D01*
X85532500Y98970000D02*
X86032500Y98470000D01*
X86032500Y98470000D02*
X86032500Y85470000D01*
X86032500Y85470000D02*
X85532500Y84970000D01*
X85532500Y84970000D02*
X72532500Y84970000D01*
X72532500Y84970000D02*
X72032500Y85470000D01*
X67270000Y104520000D02*
X67270000Y117520000D01*
X67270000Y117520000D02*
X67770000Y118020000D01*
X67770000Y118020000D02*
X80770000Y118020000D01*
X80770000Y118020000D02*
X81270000Y117520000D01*
X81270000Y117520000D02*
X81270000Y104520000D01*
X81270000Y104520000D02*
X80770000Y104020000D01*
X80770000Y104020000D02*
X67770000Y104020000D01*
X67770000Y104020000D02*
X67270000Y104520000D01*
X105370000Y104520000D02*
X105370000Y117520000D01*
X105370000Y117520000D02*
X105870000Y118020000D01*
X105870000Y118020000D02*
X118870000Y118020000D01*
X118870000Y118020000D02*
X119370000Y117520000D01*
X119370000Y117520000D02*
X119370000Y104520000D01*
X119370000Y104520000D02*
X118870000Y104020000D01*
X118870000Y104020000D02*
X105870000Y104020000D01*
X105870000Y104020000D02*
X105370000Y104520000D01*
X33932500Y85470000D02*
X33932500Y98470000D01*
X33932500Y98470000D02*
X34432500Y98970000D01*
X34432500Y98970000D02*
X47432500Y98970000D01*
X47432500Y98970000D02*
X47932500Y98470000D01*
X47932500Y98470000D02*
X47932500Y85470000D01*
X47932500Y85470000D02*
X47432500Y84970000D01*
X47432500Y84970000D02*
X34432500Y84970000D01*
X34432500Y84970000D02*
X33932500Y85470000D01*
X14882500Y85470000D02*
X14882500Y98470000D01*
X14882500Y98470000D02*
X15382500Y98970000D01*
X15382500Y98970000D02*
X28382500Y98970000D01*
X28382500Y98970000D02*
X28882500Y98470000D01*
X28882500Y98470000D02*
X28882500Y85470000D01*
X28882500Y85470000D02*
X28382500Y84970000D01*
X28382500Y84970000D02*
X15382500Y84970000D01*
X15382500Y84970000D02*
X14882500Y85470000D01*
X-42267500Y85470000D02*
X-42267500Y98470000D01*
X-42267500Y98470000D02*
X-41767500Y98970000D01*
X-41767500Y98970000D02*
X-28767500Y98970000D01*
X-28767500Y98970000D02*
X-28267500Y98470000D01*
X-28267500Y98470000D02*
X-28267500Y85470000D01*
X-28267500Y85470000D02*
X-28767500Y84970000D01*
X-28767500Y84970000D02*
X-41767500Y84970000D01*
X-41767500Y84970000D02*
X-42267500Y85470000D01*
X52982500Y85470000D02*
X52982500Y98470000D01*
X52982500Y98470000D02*
X53482500Y98970000D01*
X53482500Y98970000D02*
X66482500Y98970000D01*
X66482500Y98970000D02*
X66982500Y98470000D01*
X66982500Y98470000D02*
X66982500Y85470000D01*
X66982500Y85470000D02*
X66482500Y84970000D01*
X66482500Y84970000D02*
X53482500Y84970000D01*
X53482500Y84970000D02*
X52982500Y85470000D01*
X-4167500Y85470000D02*
X-4167500Y98470000D01*
X-4167500Y98470000D02*
X-3667500Y98970000D01*
X-3667500Y98970000D02*
X9332500Y98970000D01*
X9332500Y98970000D02*
X9832500Y98470000D01*
X9832500Y98470000D02*
X9832500Y85470000D01*
X9832500Y85470000D02*
X9332500Y84970000D01*
X9332500Y84970000D02*
X-3667500Y84970000D01*
X-3667500Y84970000D02*
X-4167500Y85470000D01*
X-23217500Y85470000D02*
X-23217500Y98470000D01*
X-23217500Y98470000D02*
X-22717500Y98970000D01*
X-22717500Y98970000D02*
X-9717500Y98970000D01*
X-9717500Y98970000D02*
X-9217500Y98470000D01*
X-9217500Y98470000D02*
X-9217500Y85470000D01*
X-9217500Y85470000D02*
X-9717500Y84970000D01*
X-9717500Y84970000D02*
X-22717500Y84970000D01*
X-22717500Y84970000D02*
X-23217500Y85470000D01*
X48220000Y104520000D02*
X48220000Y117520000D01*
X48220000Y117520000D02*
X48720000Y118020000D01*
X48720000Y118020000D02*
X61720000Y118020000D01*
X61720000Y118020000D02*
X62220000Y117520000D01*
X62220000Y117520000D02*
X62220000Y104520000D01*
X62220000Y104520000D02*
X61720000Y104020000D01*
X61720000Y104020000D02*
X48720000Y104020000D01*
X48720000Y104020000D02*
X48220000Y104520000D01*
X86320000Y104520000D02*
X86320000Y117520000D01*
X86320000Y117520000D02*
X86820000Y118020000D01*
X86820000Y118020000D02*
X99820000Y118020000D01*
X99820000Y118020000D02*
X100320000Y117520000D01*
X100320000Y117520000D02*
X100320000Y104520000D01*
X100320000Y104520000D02*
X99820000Y104020000D01*
X99820000Y104020000D02*
X86820000Y104020000D01*
X86820000Y104020000D02*
X86320000Y104520000D01*
X-27980000Y104520000D02*
X-27980000Y117520000D01*
X-27980000Y117520000D02*
X-27480000Y118020000D01*
X-27480000Y118020000D02*
X-14480000Y118020000D01*
X-14480000Y118020000D02*
X-13980000Y117520000D01*
X-13980000Y117520000D02*
X-13980000Y104520000D01*
X-13980000Y104520000D02*
X-14480000Y104020000D01*
X-14480000Y104020000D02*
X-27480000Y104020000D01*
X-27480000Y104020000D02*
X-27980000Y104520000D01*
X29170000Y104520000D02*
X29170000Y117520000D01*
X29170000Y117520000D02*
X29670000Y118020000D01*
X29670000Y118020000D02*
X42670000Y118020000D01*
X42670000Y118020000D02*
X43170000Y117520000D01*
X43170000Y117520000D02*
X43170000Y104520000D01*
X43170000Y104520000D02*
X42670000Y104020000D01*
X42670000Y104020000D02*
X29670000Y104020000D01*
X29670000Y104020000D02*
X29170000Y104520000D01*
X-8930000Y104520000D02*
X-8930000Y117520000D01*
X-8930000Y117520000D02*
X-8430000Y118020000D01*
X-8430000Y118020000D02*
X4570000Y118020000D01*
X4570000Y118020000D02*
X5070000Y117520000D01*
X5070000Y117520000D02*
X5070000Y104520000D01*
X5070000Y104520000D02*
X4570000Y104020000D01*
X4570000Y104020000D02*
X-8430000Y104020000D01*
X-8430000Y104020000D02*
X-8930000Y104520000D01*
X10120000Y104520000D02*
X10120000Y117520000D01*
X10120000Y117520000D02*
X10620000Y118020000D01*
X10620000Y118020000D02*
X23620000Y118020000D01*
X23620000Y118020000D02*
X24120000Y117520000D01*
X24120000Y117520000D02*
X24120000Y104520000D01*
X24120000Y104520000D02*
X23620000Y104020000D01*
X23620000Y104020000D02*
X10620000Y104020000D01*
X10620000Y104020000D02*
X10120000Y104520000D01*
X-47030000Y104520000D02*
X-47030000Y117520000D01*
X-47030000Y117520000D02*
X-46530000Y118020000D01*
X-46530000Y118020000D02*
X-33530000Y118020000D01*
X-33530000Y118020000D02*
X-33030000Y117520000D01*
X-33030000Y117520000D02*
X-33030000Y104520000D01*
X-33030000Y104520000D02*
X-33530000Y104020000D01*
X-33530000Y104020000D02*
X-46530000Y104020000D01*
X-46530000Y104020000D02*
X-47030000Y104520000D01*
X38695000Y123570000D02*
X38695000Y136570000D01*
X38695000Y136570000D02*
X39195000Y137070000D01*
X39195000Y137070000D02*
X52195000Y137070000D01*
X52195000Y137070000D02*
X52695000Y136570000D01*
X52695000Y136570000D02*
X52695000Y123570000D01*
X52695000Y123570000D02*
X52195000Y123070000D01*
X52195000Y123070000D02*
X39195000Y123070000D01*
X39195000Y123070000D02*
X38695000Y123570000D01*
X76795000Y123570000D02*
X76795000Y136570000D01*
X76795000Y136570000D02*
X77295000Y137070000D01*
X77295000Y137070000D02*
X90295000Y137070000D01*
X90295000Y137070000D02*
X90795000Y136570000D01*
X90795000Y136570000D02*
X90795000Y123570000D01*
X90795000Y123570000D02*
X90295000Y123070000D01*
X90295000Y123070000D02*
X77295000Y123070000D01*
X77295000Y123070000D02*
X76795000Y123570000D01*
X19645000Y123570000D02*
X19645000Y136570000D01*
X19645000Y136570000D02*
X20145000Y137070000D01*
X20145000Y137070000D02*
X33145000Y137070000D01*
X33145000Y137070000D02*
X33645000Y136570000D01*
X33645000Y136570000D02*
X33645000Y123570000D01*
X33645000Y123570000D02*
X33145000Y123070000D01*
X33145000Y123070000D02*
X20145000Y123070000D01*
X20145000Y123070000D02*
X19645000Y123570000D01*
X95845000Y123570000D02*
X95845000Y136570000D01*
X95845000Y136570000D02*
X96345000Y137070000D01*
X96345000Y137070000D02*
X109345000Y137070000D01*
X109345000Y137070000D02*
X109845000Y136570000D01*
X109845000Y136570000D02*
X109845000Y123570000D01*
X109845000Y123570000D02*
X109345000Y123070000D01*
X109345000Y123070000D02*
X96345000Y123070000D01*
X96345000Y123070000D02*
X95845000Y123570000D01*
X57745000Y123570000D02*
X57745000Y136570000D01*
X57745000Y136570000D02*
X58245000Y137070000D01*
X58245000Y137070000D02*
X71245000Y137070000D01*
X71245000Y137070000D02*
X71745000Y136570000D01*
X71745000Y136570000D02*
X71745000Y123570000D01*
X71745000Y123570000D02*
X71245000Y123070000D01*
X71245000Y123070000D02*
X58245000Y123070000D01*
X58245000Y123070000D02*
X57745000Y123570000D01*
X-18455000Y123570000D02*
X-18455000Y136570000D01*
X-18455000Y136570000D02*
X-17955000Y137070000D01*
X-17955000Y137070000D02*
X-4955000Y137070000D01*
X-4955000Y137070000D02*
X-4455000Y136570000D01*
X-4455000Y136570000D02*
X-4455000Y123570000D01*
X-4455000Y123570000D02*
X-4955000Y123070000D01*
X-4955000Y123070000D02*
X-17955000Y123070000D01*
X-17955000Y123070000D02*
X-18455000Y123570000D01*
X-37505000Y123570000D02*
X-37505000Y136570000D01*
X-37505000Y136570000D02*
X-37005000Y137070000D01*
X-37005000Y137070000D02*
X-24005000Y137070000D01*
X-24005000Y137070000D02*
X-23505000Y136570000D01*
X-23505000Y136570000D02*
X-23505000Y123570000D01*
X-23505000Y123570000D02*
X-24005000Y123070000D01*
X-24005000Y123070000D02*
X-37005000Y123070000D01*
X-37005000Y123070000D02*
X-37505000Y123570000D01*
X595000Y123570000D02*
X595000Y136570000D01*
X595000Y136570000D02*
X1095000Y137070000D01*
X1095000Y137070000D02*
X14095000Y137070000D01*
X14095000Y137070000D02*
X14595000Y136570000D01*
X14595000Y136570000D02*
X14595000Y123570000D01*
X14595000Y123570000D02*
X14095000Y123070000D01*
X14095000Y123070000D02*
X1095000Y123070000D01*
X1095000Y123070000D02*
X595000Y123570000D01*
X7738750Y47370000D02*
X7738750Y60370000D01*
X7738750Y60370000D02*
X8238750Y60870000D01*
X8238750Y60870000D02*
X33145000Y60870000D01*
X33145000Y60870000D02*
X33645000Y60370000D01*
X33645000Y60370000D02*
X33645000Y47370000D01*
X33645000Y47370000D02*
X33145000Y46870000D01*
X33145000Y46870000D02*
X8238750Y46870000D01*
X8238750Y46870000D02*
X7738750Y47370000D01*
X100607500Y47370000D02*
X100607500Y60370000D01*
X100607500Y60370000D02*
X101107500Y60870000D01*
X101107500Y60870000D02*
X116488750Y60870000D01*
X116488750Y60870000D02*
X116988750Y60370000D01*
X116988750Y60370000D02*
X116988750Y47370000D01*
X116988750Y47370000D02*
X116488750Y46870000D01*
X116488750Y46870000D02*
X101107500Y46870000D01*
X101107500Y46870000D02*
X100607500Y47370000D01*
X-38761250Y48370000D02*
X-38761250Y62370000D01*
X-38761250Y62370000D02*
X-38261250Y62870000D01*
X-38261250Y62870000D02*
X-27505000Y62870000D01*
X-27505000Y62870000D02*
X-27005000Y62370000D01*
X-27005000Y62370000D02*
X-27005000Y48370000D01*
X-27005000Y48370000D02*
X-27505000Y47870000D01*
X-27505000Y47870000D02*
X-38261250Y47870000D01*
X-38261250Y47870000D02*
X-38761250Y48370000D01*
X61238750Y48370000D02*
X61238750Y62370000D01*
X61238750Y62370000D02*
X61738750Y62870000D01*
X61738750Y62870000D02*
X67738750Y62870000D01*
X67738750Y62870000D02*
X68238750Y62370000D01*
X68238750Y62370000D02*
X68238750Y48370000D01*
X68238750Y48370000D02*
X67738750Y47870000D01*
X67738750Y47870000D02*
X61738750Y47870000D01*
X61738750Y47870000D02*
X61238750Y48370000D01*
X92676241Y46869997D02*
X93176253Y47370009D01*
X92676241Y46869997D02*
X79676259Y46869997D01*
X79176246Y47370009D02*
X79676259Y46869997D01*
X79176246Y47370009D02*
X79176246Y60369991D01*
X79676259Y60870003D02*
X79176246Y60369991D01*
X79676259Y60870003D02*
X79707998Y60870003D01*
X80294998Y61457003D02*
X79707998Y60870003D01*
X80294998Y61457003D02*
X80294998Y62370020D01*
X80794989Y62870011D02*
X80294998Y62370020D01*
X80794989Y62870011D02*
X86794989Y62870011D01*
X87295002Y62369998D02*
X86794989Y62870011D01*
X87295002Y62369998D02*
X87295002Y61457003D01*
X87882002Y60870003D02*
X87295002Y61457003D01*
X87882002Y60870003D02*
X92676241Y60870003D01*
X93176253Y60369991D02*
X92676241Y60870003D01*
X93176253Y60369991D02*
X93176253Y47370009D01*
X140801250Y60370000D02*
X140301250Y60870000D01*
X140801250Y60370000D02*
X140801250Y47370000D01*
X140301250Y46870000D02*
X140801250Y47370000D01*
X140301250Y46870000D02*
X124920000Y46870000D01*
X124420000Y47370000D02*
X124920000Y46870000D01*
X124420000Y47370000D02*
X124420000Y60370000D01*
X124920000Y60870000D02*
X124420000Y60370000D01*
X124920000Y60870000D02*
X140301250Y60870000D01*
X200620000Y66420000D02*
X200620000Y79420000D01*
X200620000Y79420000D02*
X201120000Y79920000D01*
X201120000Y79920000D02*
X214120000Y79920000D01*
X214120000Y79920000D02*
X214620000Y79420000D01*
X214620000Y79420000D02*
X214620000Y66420000D01*
X214620000Y66420000D02*
X214120000Y65920000D01*
X214120000Y65920000D02*
X201120000Y65920000D01*
X201120000Y65920000D02*
X200620000Y66420000D01*
X219670000Y47370000D02*
X219670000Y60370000D01*
X219670000Y60370000D02*
X220170000Y60870000D01*
X220170000Y60870000D02*
X233170000Y60870000D01*
X233170000Y60870000D02*
X233670000Y60370000D01*
X233670000Y60370000D02*
X233670000Y47370000D01*
X233670000Y47370000D02*
X233170000Y46870000D01*
X233170000Y46870000D02*
X220170000Y46870000D01*
X220170000Y46870000D02*
X219670000Y47370000D01*
X200620000Y47370000D02*
X200620000Y60370000D01*
X200620000Y60370000D02*
X201120000Y60870000D01*
X201120000Y60870000D02*
X214120000Y60870000D01*
X214120000Y60870000D02*
X214620000Y60370000D01*
X214620000Y60370000D02*
X214620000Y47370000D01*
X214620000Y47370000D02*
X214120000Y46870000D01*
X214120000Y46870000D02*
X201120000Y46870000D01*
X201120000Y46870000D02*
X200620000Y47370000D01*
X181570000Y47370000D02*
X181570000Y60370000D01*
X181570000Y60370000D02*
X182070000Y60870000D01*
X182070000Y60870000D02*
X195070000Y60870000D01*
X195070000Y60870000D02*
X195570000Y60370000D01*
X195570000Y60370000D02*
X195570000Y47370000D01*
X195570000Y47370000D02*
X195070000Y46870000D01*
X195070000Y46870000D02*
X182070000Y46870000D01*
X182070000Y46870000D02*
X181570000Y47370000D01*
X219670000Y104520000D02*
X219670000Y117520000D01*
X219670000Y117520000D02*
X220170000Y118020000D01*
X220170000Y118020000D02*
X233170000Y118020000D01*
X233170000Y118020000D02*
X233670000Y117520000D01*
X233670000Y117520000D02*
X233670000Y104520000D01*
X233670000Y104520000D02*
X233170000Y104020000D01*
X233170000Y104020000D02*
X220170000Y104020000D01*
X220170000Y104020000D02*
X219670000Y104520000D01*
X181570000Y104520000D02*
X181570000Y117520000D01*
X181570000Y117520000D02*
X182070000Y118020000D01*
X182070000Y118020000D02*
X195070000Y118020000D01*
X195070000Y118020000D02*
X195570000Y117520000D01*
X195570000Y117520000D02*
X195570000Y104520000D01*
X195570000Y104520000D02*
X195070000Y104020000D01*
X195070000Y104020000D02*
X182070000Y104020000D01*
X182070000Y104020000D02*
X181570000Y104520000D01*
X200620000Y104520000D02*
X200620000Y117520000D01*
X200620000Y117520000D02*
X201120000Y118020000D01*
X201120000Y118020000D02*
X214120000Y118020000D01*
X214120000Y118020000D02*
X214620000Y117520000D01*
X214620000Y117520000D02*
X214620000Y104520000D01*
X214620000Y104520000D02*
X214120000Y104020000D01*
X214120000Y104020000D02*
X201120000Y104020000D01*
X201120000Y104020000D02*
X200620000Y104520000D01*
X219670000Y123570000D02*
X219670000Y136570000D01*
X219670000Y136570000D02*
X220170000Y137070000D01*
X220170000Y137070000D02*
X233170000Y137070000D01*
X233170000Y137070000D02*
X233670000Y136570000D01*
X233670000Y136570000D02*
X233670000Y123570000D01*
X233670000Y123570000D02*
X233170000Y123070000D01*
X233170000Y123070000D02*
X220170000Y123070000D01*
X220170000Y123070000D02*
X219670000Y123570000D01*
X181570000Y123570000D02*
X181570000Y136570000D01*
X181570000Y136570000D02*
X182070000Y137070000D01*
X182070000Y137070000D02*
X195070000Y137070000D01*
X195070000Y137070000D02*
X195570000Y136570000D01*
X195570000Y136570000D02*
X195570000Y123570000D01*
X195570000Y123570000D02*
X195070000Y123070000D01*
X195070000Y123070000D02*
X182070000Y123070000D01*
X182070000Y123070000D02*
X181570000Y123570000D01*
X200620000Y123570000D02*
X200620000Y136570000D01*
X200620000Y136570000D02*
X201120000Y137070000D01*
X201120000Y137070000D02*
X214120000Y137070000D01*
X214120000Y137070000D02*
X214620000Y136570000D01*
X214620000Y136570000D02*
X214620000Y123570000D01*
X214620000Y123570000D02*
X214120000Y123070000D01*
X214120000Y123070000D02*
X201120000Y123070000D01*
X201120000Y123070000D02*
X200620000Y123570000D01*
X164113750Y46870000D02*
X148732500Y46870000D01*
X148232500Y47370000D02*
X148732500Y46870000D01*
X148232500Y47370000D02*
X148232500Y60370000D01*
X148732500Y60870000D02*
X148232500Y60370000D01*
X148732500Y60870000D02*
X164113750Y60870000D01*
X164613750Y60370000D02*
X164113750Y60870000D01*
X164613750Y60370000D02*
X164613750Y47370000D01*
X164113750Y46870000D02*
X164613750Y47370000D01*
X166494991Y123069997D02*
X166995003Y123570009D01*
X165907989Y122482997D02*
X166494989Y123069997D01*
X165907989Y122482997D02*
X165907989Y121569980D01*
X165407998Y121069989D02*
X165907989Y121569980D01*
X165407998Y121069989D02*
X159408020Y121069989D01*
X158908008Y121570002D02*
X159408020Y121069989D01*
X158908008Y121570002D02*
X158908008Y122482997D01*
X158321008Y123069997D02*
X158908008Y122482997D01*
X158321008Y123069997D02*
X142618992Y123069997D01*
X142031992Y122482997D02*
X142618992Y123069997D01*
X142031992Y122482997D02*
X142031992Y121569980D01*
X141532001Y121069989D02*
X142031992Y121569980D01*
X141532001Y121069989D02*
X135532023Y121069989D01*
X135032010Y121570002D02*
X135532023Y121069989D01*
X135032010Y121570002D02*
X135032010Y122482997D01*
X134445010Y123069997D02*
X135032010Y122482997D01*
X133944996Y123570009D02*
X134445009Y123069997D01*
X133944996Y123570009D02*
X133944996Y136569991D01*
X134445009Y137070003D02*
X133944996Y136569991D01*
X134445009Y137070003D02*
X166494991Y137070003D01*
X166995003Y136569991D02*
X166494991Y137070003D01*
X166995003Y136569991D02*
X166995003Y123570009D01*
X174507500Y123570000D02*
G75*
G03*
X173507500Y123570000I-500000J0D01*
G01*
X174507500Y123570000D02*
X174507500Y60370001D01*
X173507500Y60370001D02*
G75*
G03*
X174507500Y60370001I500000J0D01*
G01*
X173507500Y60370001D02*
X173507500Y123570000D01*
X137920000Y118020000D02*
X138420000Y117520000D01*
X138420000Y117520000D02*
X138420000Y104520000D01*
X138420000Y104520000D02*
X137920000Y104020000D01*
X137920000Y104020000D02*
X124920000Y104020000D01*
X124920000Y104020000D02*
X124420000Y104520000D01*
X124420000Y104520000D02*
X124420000Y117520000D01*
X124420000Y117520000D02*
X124920000Y118020000D01*
X124920000Y118020000D02*
X137920000Y118020000D01*
X128395000Y137070000D02*
X128895000Y136570000D01*
X128895000Y136570000D02*
X128895000Y123570000D01*
X128895000Y123570000D02*
X128395000Y123070000D01*
X128395000Y123070000D02*
X115395000Y123070000D01*
X115395000Y123070000D02*
X114895000Y123570000D01*
X114895000Y123570000D02*
X114895000Y136570000D01*
X114895000Y136570000D02*
X115395000Y137070000D01*
X115395000Y137070000D02*
X128395000Y137070000D01*
X-121492500Y60370001D02*
G75*
G03*
X-120492500Y60370001I500000J0D01*
G01*
X-121492500Y60370001D02*
X-121492500Y123570000D01*
X-120492500Y123570000D02*
G75*
G03*
X-121492500Y123570000I-500000J0D01*
G01*
X-120492500Y123570000D02*
X-120492500Y60370001D01*
X-113705000Y123570000D02*
X-113705000Y136570000D01*
X-113705000Y136570000D02*
X-113205000Y137070000D01*
X-113205000Y137070000D02*
X-100205000Y137070000D01*
X-100205000Y137070000D02*
X-99705000Y136570000D01*
X-99705000Y136570000D02*
X-99705000Y123570000D01*
X-99705000Y123570000D02*
X-100205000Y123070000D01*
X-100205000Y123070000D02*
X-113205000Y123070000D01*
X-113205000Y123070000D02*
X-113705000Y123570000D01*
X-75605000Y123570000D02*
X-75605000Y136570000D01*
X-75605000Y136570000D02*
X-75105000Y137070000D01*
X-75105000Y137070000D02*
X-62105000Y137070000D01*
X-62105000Y137070000D02*
X-61605000Y136570000D01*
X-61605000Y136570000D02*
X-61605000Y123570000D01*
X-61605000Y123570000D02*
X-62105000Y123070000D01*
X-62105000Y123070000D02*
X-75105000Y123070000D01*
X-75105000Y123070000D02*
X-75605000Y123570000D01*
X-94655000Y123570000D02*
X-94655000Y136570000D01*
X-94655000Y136570000D02*
X-94155000Y137070000D01*
X-94155000Y137070000D02*
X-81155000Y137070000D01*
X-81155000Y137070000D02*
X-80655000Y136570000D01*
X-80655000Y136570000D02*
X-80655000Y123570000D01*
X-80655000Y123570000D02*
X-81155000Y123070000D01*
X-81155000Y123070000D02*
X-94155000Y123070000D01*
X-94155000Y123070000D02*
X-94655000Y123570000D01*
X-70842500Y66420000D02*
X-70842500Y79420000D01*
X-70842500Y79420000D02*
X-70342500Y79920000D01*
X-70342500Y79920000D02*
X-57342500Y79920000D01*
X-57342500Y79920000D02*
X-56842500Y79420000D01*
X-56842500Y79420000D02*
X-56842500Y66420000D01*
X-56842500Y66420000D02*
X-57342500Y65920000D01*
X-57342500Y65920000D02*
X-70342500Y65920000D01*
X-70342500Y65920000D02*
X-70842500Y66420000D01*
X-80367500Y85470000D02*
X-80367500Y98470000D01*
X-80367500Y98470000D02*
X-79867500Y98970000D01*
X-79867500Y98970000D02*
X-66867500Y98970000D01*
X-66867500Y98970000D02*
X-66367500Y98470000D01*
X-66367500Y98470000D02*
X-66367500Y85470000D01*
X-66367500Y85470000D02*
X-66867500Y84970000D01*
X-66867500Y84970000D02*
X-79867500Y84970000D01*
X-79867500Y84970000D02*
X-80367500Y85470000D01*
X-111323750Y85470000D02*
X-111323750Y98470000D01*
X-111323750Y98470000D02*
X-110823750Y98970000D01*
X-110823750Y98970000D02*
X-93061250Y98970000D01*
X-93061250Y98970000D02*
X-92561250Y98470000D01*
X-92561250Y98470000D02*
X-92561250Y85470000D01*
X-92561250Y85470000D02*
X-93061250Y84970000D01*
X-93061250Y84970000D02*
X-110823750Y84970000D01*
X-110823750Y84970000D02*
X-111323750Y85470000D01*
X-108942500Y104520000D02*
X-108942500Y117520000D01*
X-108942500Y117520000D02*
X-108442500Y118020000D01*
X-108442500Y118020000D02*
X-95442500Y118020000D01*
X-95442500Y118020000D02*
X-94942500Y117520000D01*
X-94942500Y117520000D02*
X-94942500Y104520000D01*
X-94942500Y104520000D02*
X-95442500Y104020000D01*
X-95442500Y104020000D02*
X-108442500Y104020000D01*
X-108442500Y104020000D02*
X-108942500Y104520000D01*
X-85130000Y104520000D02*
X-85130000Y117520000D01*
X-85130000Y117520000D02*
X-84630000Y118020000D01*
X-84630000Y118020000D02*
X-71630000Y118020000D01*
X-71630000Y118020000D02*
X-71130000Y117520000D01*
X-71130000Y117520000D02*
X-71130000Y104520000D01*
X-71130000Y104520000D02*
X-71630000Y104020000D01*
X-71630000Y104020000D02*
X-84630000Y104020000D01*
X-84630000Y104020000D02*
X-85130000Y104520000D01*
X-87511250Y47370000D02*
X-87511250Y60370000D01*
X-87511250Y60370000D02*
X-87011250Y60870000D01*
X-87011250Y60870000D02*
X-71630000Y60870000D01*
X-71630000Y60870000D02*
X-71130000Y60370000D01*
X-71130000Y60370000D02*
X-71130000Y47370000D01*
X-71130000Y47370000D02*
X-71630000Y46870000D01*
X-71630000Y46870000D02*
X-87011250Y46870000D01*
X-87011250Y46870000D02*
X-87511250Y47370000D01*
X-111323750Y47370000D02*
X-111323750Y60370000D01*
X-111323750Y60370000D02*
X-110823750Y60870000D01*
X-110823750Y60870000D02*
X-95442500Y60870000D01*
X-95442500Y60870000D02*
X-94942500Y60370000D01*
X-94942500Y60370000D02*
X-94942500Y47370000D01*
X-94942500Y47370000D02*
X-95442500Y46870000D01*
X-95442500Y46870000D02*
X-110823750Y46870000D01*
X-110823750Y46870000D02*
X-111323750Y47370000D01*
X-47817500Y60870000D02*
X-47317500Y60370000D01*
X-47317500Y60370000D02*
X-47317500Y47370000D01*
X-47317500Y47370000D02*
X-47817500Y46870000D01*
X-47817500Y46870000D02*
X-63198750Y46870000D01*
X-63198750Y46870000D02*
X-63698750Y47370000D01*
X-63698750Y47370000D02*
X-63698750Y60370000D01*
X-63698750Y60370000D02*
X-63198750Y60870000D01*
X-63198750Y60870000D02*
X-47817500Y60870000D01*
X-47817500Y98970000D02*
X-47317500Y98470000D01*
X-47317500Y98470000D02*
X-47317500Y85470000D01*
X-47317500Y85470000D02*
X-47817500Y84970000D01*
X-47817500Y84970000D02*
X-60817500Y84970000D01*
X-60817500Y84970000D02*
X-61317500Y85470000D01*
X-61317500Y85470000D02*
X-61317500Y98470000D01*
X-61317500Y98470000D02*
X-60817500Y98970000D01*
X-60817500Y98970000D02*
X-47817500Y98970000D01*
X-52580000Y118020000D02*
X-52080000Y117520000D01*
X-52080000Y117520000D02*
X-52080000Y104520000D01*
X-52080000Y104520000D02*
X-52580000Y104020000D01*
X-52580000Y104020000D02*
X-65580000Y104020000D01*
X-65580000Y104020000D02*
X-66080000Y104520000D01*
X-66080000Y104520000D02*
X-66080000Y117520000D01*
X-66080000Y117520000D02*
X-65580000Y118020000D01*
X-65580000Y118020000D02*
X-52580000Y118020000D01*
X-43055000Y137070000D02*
X-42555000Y136570000D01*
X-42555000Y136570000D02*
X-42555000Y123570000D01*
X-42555000Y123570000D02*
X-43055000Y123070000D01*
X-43055000Y123070000D02*
X-56055000Y123070000D01*
X-56055000Y123070000D02*
X-56555000Y123570000D01*
X-56555000Y123570000D02*
X-56555000Y136570000D01*
X-56555000Y136570000D02*
X-56055000Y137070000D01*
X-56055000Y137070000D02*
X-43055000Y137070000D01*
X-142280000Y123570000D02*
X-142280000Y136570000D01*
X-142280000Y136570000D02*
X-141780000Y137070000D01*
X-141780000Y137070000D02*
X-128780000Y137070000D01*
X-128780000Y137070000D02*
X-128280000Y136570000D01*
X-128280000Y136570000D02*
X-128280000Y123570000D01*
X-128280000Y123570000D02*
X-128780000Y123070000D01*
X-128780000Y123070000D02*
X-141780000Y123070000D01*
X-141780000Y123070000D02*
X-142280000Y123570000D01*
X-142280000Y66420000D02*
X-142280000Y79420000D01*
X-142280000Y79420000D02*
X-141780000Y79920000D01*
X-141780000Y79920000D02*
X-128780000Y79920000D01*
X-128780000Y79920000D02*
X-128280000Y79420000D01*
X-128280000Y79420000D02*
X-128280000Y66420000D01*
X-128280000Y66420000D02*
X-128780000Y65920000D01*
X-128780000Y65920000D02*
X-141780000Y65920000D01*
X-141780000Y65920000D02*
X-142280000Y66420000D01*
X-142280000Y85470000D02*
X-142280000Y98470000D01*
X-142280000Y98470000D02*
X-141780000Y98970000D01*
X-141780000Y98970000D02*
X-128780000Y98970000D01*
X-128780000Y98970000D02*
X-128280000Y98470000D01*
X-128280000Y98470000D02*
X-128280000Y85470000D01*
X-128280000Y85470000D02*
X-128780000Y84970000D01*
X-128780000Y84970000D02*
X-141780000Y84970000D01*
X-141780000Y84970000D02*
X-142280000Y85470000D01*
X-142280000Y104520000D02*
X-142280000Y117520000D01*
X-142280000Y117520000D02*
X-141780000Y118020000D01*
X-141780000Y118020000D02*
X-128780000Y118020000D01*
X-128780000Y118020000D02*
X-128280000Y117520000D01*
X-128280000Y117520000D02*
X-128280000Y104520000D01*
X-128280000Y104520000D02*
X-128780000Y104020000D01*
X-128780000Y104020000D02*
X-141780000Y104020000D01*
X-141780000Y104020000D02*
X-142280000Y104520000D01*
X-142280000Y47370000D02*
X-142280000Y60370000D01*
X-142280000Y60370000D02*
X-141780000Y60870000D01*
X-141780000Y60870000D02*
X-128780000Y60870000D01*
X-128780000Y60870000D02*
X-128280000Y60370000D01*
X-128280000Y60370000D02*
X-128280000Y47370000D01*
X-128280000Y47370000D02*
X-128780000Y46870000D01*
X-128780000Y46870000D02*
X-141780000Y46870000D01*
X-141780000Y46870000D02*
X-142280000Y47370000D01*
X164613720Y117520000D02*
G75*
G03*
X164113753Y118020003I-500009J-6D01*
G01*
X164613757Y117520000D02*
X164613753Y85470009D01*
X164113753Y84969952D02*
G75*
G03*
X164613753Y85470009I-42J500042D01*
G01*
X164113753Y84970009D02*
X164026739Y84970009D01*
X164026739Y84969966D02*
G75*
G03*
X163526739Y84470009I-28J-499972D01*
G01*
X163526739Y84470009D02*
X163526739Y83469989D01*
X163026739Y82969966D02*
G75*
G03*
X163526739Y83469989I-28J500028D01*
G01*
X163026739Y82969989D02*
X157026758Y82969989D01*
X156526706Y83469989D02*
G75*
G03*
X157026758Y82969989I500005J5D01*
G01*
X156526758Y83469989D02*
X156526758Y84470000D01*
X156526714Y84470000D02*
G75*
G03*
X156026758Y84969997I-500003J-6D01*
G01*
X156026758Y84969997D02*
X140150742Y84970000D01*
X140150742Y84969963D02*
G75*
G03*
X139650742Y84470000I-31J-499969D01*
G01*
X139650742Y84470000D02*
X139650742Y83469989D01*
X139150742Y82969963D02*
G75*
G03*
X139650742Y83469989I-31J500031D01*
G01*
X139150742Y82969989D02*
X133150760Y82969989D01*
X132650806Y83469989D02*
G75*
G03*
X133150760Y82969989I500005J5D01*
G01*
X132650760Y83469989D02*
X132650760Y84470000D01*
X132650717Y84470000D02*
G75*
G03*
X132150760Y84970000I-500006J-6D01*
G01*
X132150760Y84970000D02*
X129682500Y84970000D01*
X129182517Y85470000D02*
G75*
G03*
X129682500Y84970000I499994J-6D01*
G01*
X129182500Y85470000D02*
X129182500Y98470000D01*
X129682500Y98970005D02*
G75*
G03*
X129182500Y98470000I11J-500011D01*
G01*
X129682500Y98970000D02*
X150113750Y98970000D01*
X150113750Y98969955D02*
G75*
G03*
X150613750Y99470000I-39J500039D01*
G01*
X150613750Y99470000D02*
X150613750Y103520000D01*
X150613714Y103520000D02*
G75*
G03*
X150113750Y104019997I-500003J-6D01*
G01*
X150113750Y104019997D02*
X148732500Y104020000D01*
X148232517Y104520000D02*
G75*
G03*
X148732500Y104020000I499994J-6D01*
G01*
X148232500Y104520000D02*
X148232500Y117520000D01*
X148732500Y118020005D02*
G75*
G03*
X148232500Y117520000I11J-500011D01*
G01*
X148732500Y118020000D02*
X164113753Y118020003D01*
X166995020Y79420003D02*
G75*
G03*
X166495003Y79920003I-500009J-9D01*
G01*
X166995003Y79420003D02*
X166995003Y66419997D01*
X166495003Y65920002D02*
G75*
G03*
X166995003Y66419997I8J499992D01*
G01*
X166495003Y65919997D02*
X159851003Y65919997D01*
X159364717Y65919997D02*
X159851003Y65919997D01*
X159126784Y65875555D02*
X159364717Y65919997D01*
X158940470Y65752326D02*
X159126784Y65875555D01*
X158810913Y65562767D02*
X158940470Y65752326D01*
X158776309Y65451996D02*
X158810913Y65562767D01*
X158764239Y65332997D02*
X158776309Y65451996D01*
X158764239Y65332997D02*
X158764239Y64419981D01*
X158264248Y63919989D02*
X158764239Y64419981D01*
X158264248Y63919989D02*
X152264270Y63919989D01*
X151764258Y64420002D02*
X152264270Y63919989D01*
X151764258Y64420002D02*
X151764258Y65332997D01*
X151177258Y65919997D02*
X151764258Y65332997D01*
X151177258Y65919997D02*
X135475242Y65919997D01*
X134888242Y65332997D02*
X135475242Y65919997D01*
X134888242Y65332997D02*
X134888242Y64419981D01*
X134388251Y63919989D02*
X134888242Y64419981D01*
X134388251Y63919989D02*
X128388273Y63919989D01*
X127888260Y64420002D02*
X128388273Y63919989D01*
X127888260Y64420002D02*
X127888260Y65332997D01*
X127301260Y65919997D02*
X127888260Y65332997D01*
X126801246Y66420009D02*
X127301259Y65919997D01*
X126801246Y66420009D02*
X126801246Y79420003D01*
X127301246Y79919959D02*
G75*
G03*
X126801246Y79420003I-35J-499965D01*
G01*
X127301246Y79920003D02*
X166495003Y79920003D01*
M02*
