%TF.GenerationSoftware,KiCad,Pcbnew,7.0.5*%
%TF.CreationDate,2023-07-12T22:11:34+02:00*%
%TF.ProjectId,Foundation_ANSI,466f756e-6461-4746-996f-6e5f414e5349,rev?*%
%TF.SameCoordinates,Original*%
%TF.FileFunction,Profile,NP*%
%FSLAX46Y46*%
G04 Gerber Fmt 4.6, Leading zero omitted, Abs format (unit mm)*
G04 Created by KiCad (PCBNEW 7.0.5) date 2023-07-12 22:11:34*
%MOMM*%
%LPD*%
G01*
G04 APERTURE LIST*
%TA.AperFunction,Profile*%
%ADD10C,0.200000*%
%TD*%
%ADD11C,0.200000*%
G04 APERTURE END LIST*
D10*
X107612945Y126340000D02*
G75*
G03*
X107612945Y126340000I-1800000J0D01*
G01*
X9381385Y22040000D02*
G75*
G03*
X9381385Y22040000I-1800000J0D01*
G01*
X159255000Y22040000D02*
G75*
G03*
X159255000Y22040000I-1800000J0D01*
G01*
X9381385Y126340000D02*
G75*
G03*
X9381385Y126340000I-1800000J0D01*
G01*
X-8032500Y36090001D02*
G75*
G03*
X-8032500Y36090001I-1200000J0D01*
G01*
X-8032500Y112290000D02*
G75*
G03*
X-8032500Y112290000I-1200000J0D01*
G01*
X286967500Y36090001D02*
G75*
G03*
X286967500Y36090001I-1200000J0D01*
G01*
X286967500Y112290000D02*
G75*
G03*
X286967500Y112290000I-1200000J0D01*
G01*
X324678930Y74733390D02*
G75*
G03*
X324678930Y74733390I-1200000J0D01*
G01*
X151442804Y31277357D02*
G75*
G03*
X151442804Y31277357I-1287763J0D01*
G01*
X165847778Y31277357D02*
G75*
G03*
X165847778Y31277357I-1287762J0D01*
G01*
X162244039Y34501755D02*
G75*
G03*
X162244039Y34501755I-1287763J0D01*
G01*
X151442804Y37726153D02*
G75*
G03*
X151442804Y37726153I-1287763J0D01*
G01*
X165847778Y37726153D02*
G75*
G03*
X165847778Y37726153I-1287762J0D01*
G01*
X162244039Y40960534D02*
G75*
G03*
X162244039Y40960534I-1287763J0D01*
G01*
X90858056Y31277357D02*
G75*
G03*
X90858056Y31277357I-1287763J0D01*
G01*
X105273013Y31277357D02*
G75*
G03*
X105273013Y31277357I-1287763J0D01*
G01*
X116084231Y34501755D02*
G75*
G03*
X116084231Y34501755I-1287763J0D01*
G01*
X101669274Y34501755D02*
G75*
G03*
X101669274Y34501755I-1287763J0D01*
G01*
X90858056Y37726153D02*
G75*
G03*
X90858056Y37726153I-1287763J0D01*
G01*
X105273013Y37726153D02*
G75*
G03*
X105273013Y37726153I-1287763J0D01*
G01*
X116084231Y40960534D02*
G75*
G03*
X116084231Y40960534I-1287763J0D01*
G01*
X101669274Y40960534D02*
G75*
G03*
X101669274Y40960534I-1287763J0D01*
G01*
X90858056Y40960534D02*
G75*
G03*
X90858056Y40960534I-1287763J0D01*
G01*
X105273013Y40960534D02*
G75*
G03*
X105273013Y40960534I-1287763J0D01*
G01*
X116084231Y37726153D02*
G75*
G03*
X116084231Y37726153I-1287763J0D01*
G01*
X101669274Y37726153D02*
G75*
G03*
X101669274Y37726153I-1287763J0D01*
G01*
X90858056Y34501755D02*
G75*
G03*
X90858056Y34501755I-1287763J0D01*
G01*
X105273013Y34501755D02*
G75*
G03*
X105273013Y34501755I-1287763J0D01*
G01*
X116084231Y31277357D02*
G75*
G03*
X116084231Y31277357I-1287763J0D01*
G01*
X101669274Y31277357D02*
G75*
G03*
X101669274Y31277357I-1287763J0D01*
G01*
X151442804Y40960534D02*
G75*
G03*
X151442804Y40960534I-1287763J0D01*
G01*
X165847778Y40960534D02*
G75*
G03*
X165847778Y40960534I-1287762J0D01*
G01*
X162244039Y37726153D02*
G75*
G03*
X162244039Y37726153I-1287763J0D01*
G01*
X151442804Y34501755D02*
G75*
G03*
X151442804Y34501755I-1287763J0D01*
G01*
X165847778Y34501755D02*
G75*
G03*
X165847778Y34501755I-1287762J0D01*
G01*
X162244039Y31277357D02*
G75*
G03*
X162244039Y31277357I-1287763J0D01*
G01*
X155046543Y31277357D02*
G75*
G03*
X155046543Y31277357I-1287763J0D01*
G01*
X169451518Y31277357D02*
G75*
G03*
X169451518Y31277357I-1287763J0D01*
G01*
X158640300Y34501755D02*
G75*
G03*
X158640300Y34501755I-1287763J0D01*
G01*
X155046543Y37726153D02*
G75*
G03*
X155046543Y37726153I-1287763J0D01*
G01*
X169451518Y37726153D02*
G75*
G03*
X169451518Y37726153I-1287763J0D01*
G01*
X158640300Y40960534D02*
G75*
G03*
X158640300Y40960534I-1287763J0D01*
G01*
X94461795Y31277357D02*
G75*
G03*
X94461795Y31277357I-1287763J0D01*
G01*
X108876752Y31277357D02*
G75*
G03*
X108876752Y31277357I-1287762J0D01*
G01*
X112480492Y34501755D02*
G75*
G03*
X112480492Y34501755I-1287763J0D01*
G01*
X98065535Y34501755D02*
G75*
G03*
X98065535Y34501755I-1287763J0D01*
G01*
X94461795Y37726153D02*
G75*
G03*
X94461795Y37726153I-1287763J0D01*
G01*
X108876752Y37726153D02*
G75*
G03*
X108876752Y37726153I-1287762J0D01*
G01*
X112480492Y40960534D02*
G75*
G03*
X112480492Y40960534I-1287763J0D01*
G01*
X98065535Y40960534D02*
G75*
G03*
X98065535Y40960534I-1287763J0D01*
G01*
X94461795Y40960534D02*
G75*
G03*
X94461795Y40960534I-1287763J0D01*
G01*
X108876752Y40960534D02*
G75*
G03*
X108876752Y40960534I-1287762J0D01*
G01*
X112480492Y37726153D02*
G75*
G03*
X112480492Y37726153I-1287763J0D01*
G01*
X98065535Y37726153D02*
G75*
G03*
X98065535Y37726153I-1287763J0D01*
G01*
X94461795Y34501755D02*
G75*
G03*
X94461795Y34501755I-1287763J0D01*
G01*
X108876752Y34501755D02*
G75*
G03*
X108876752Y34501755I-1287762J0D01*
G01*
X112480492Y31277357D02*
G75*
G03*
X112480492Y31277357I-1287763J0D01*
G01*
X98065535Y31277357D02*
G75*
G03*
X98065535Y31277357I-1287763J0D01*
G01*
X155046543Y40960534D02*
G75*
G03*
X155046543Y40960534I-1287763J0D01*
G01*
X169451518Y40960534D02*
G75*
G03*
X169451518Y40960534I-1287763J0D01*
G01*
X158640300Y37726153D02*
G75*
G03*
X158640300Y37726153I-1287763J0D01*
G01*
X155046543Y34501755D02*
G75*
G03*
X155046543Y34501755I-1287763J0D01*
G01*
X169451518Y34501755D02*
G75*
G03*
X169451518Y34501755I-1287763J0D01*
G01*
X158640300Y31277357D02*
G75*
G03*
X158640300Y31277357I-1287763J0D01*
G01*
X225490473Y103321496D02*
G75*
G03*
X225490473Y103321496I-1200000J0D01*
G01*
X233278040Y55666302D02*
G75*
G03*
X233278040Y55666302I-1200000J0D01*
G01*
X69694800Y44098919D02*
G75*
G03*
X69694800Y44098919I-1200000J0D01*
G01*
X63332775Y102413213D02*
G75*
G03*
X63332775Y102413213I-1200000J0D01*
G01*
X210897055Y126340000D02*
G75*
G03*
X210897055Y126340000I-1800000J0D01*
G01*
X309128615Y22040000D02*
G75*
G03*
X309128615Y22040000I-1800000J0D01*
G01*
X309128615Y126340000D02*
G75*
G03*
X309128615Y126340000I-1800000J0D01*
G01*
X-30520000Y29590000D02*
X-30520000Y42590000D01*
D11*
X-30520000Y42590000D02*
X-30470694Y42806770D01*
X-30338046Y42975824D01*
X-30144957Y43074258D01*
X-30020000Y43090000D01*
D10*
X-30020000Y43090000D02*
X-17020000Y43090000D01*
D11*
X-17020000Y43090000D02*
X-16803229Y43040694D01*
X-16634175Y42908046D01*
X-16535741Y42714957D01*
X-16520000Y42590000D01*
D10*
X-16520000Y42590000D02*
X-16520000Y29590000D01*
D11*
X-16520000Y29590000D02*
X-16569305Y29373229D01*
X-16701953Y29204175D01*
X-16895042Y29105741D01*
X-17020000Y29090000D01*
D10*
X-17020000Y29090000D02*
X-30020000Y29090000D01*
D11*
X-30020000Y29090000D02*
X-30236770Y29139305D01*
X-30405824Y29271953D01*
X-30504258Y29465042D01*
X-30520000Y29590000D01*
D10*
X-30520000Y86740000D02*
X-30520000Y99740000D01*
D11*
X-30520000Y99740000D02*
X-30470694Y99956770D01*
X-30338046Y100125824D01*
X-30144957Y100224258D01*
X-30020000Y100240000D01*
D10*
X-30020000Y100240000D02*
X-17020000Y100240000D01*
D11*
X-17020000Y100240000D02*
X-16803229Y100190694D01*
X-16634175Y100058046D01*
X-16535741Y99864957D01*
X-16520000Y99740000D01*
D10*
X-16520000Y99740000D02*
X-16520000Y86740000D01*
D11*
X-16520000Y86740000D02*
X-16569305Y86523229D01*
X-16701953Y86354175D01*
X-16895042Y86255741D01*
X-17020000Y86240000D01*
D10*
X-17020000Y86240000D02*
X-30020000Y86240000D01*
D11*
X-30020000Y86240000D02*
X-30236770Y86289305D01*
X-30405824Y86421953D01*
X-30504258Y86615042D01*
X-30520000Y86740000D01*
D10*
X-30520000Y67690000D02*
X-30520000Y80690000D01*
D11*
X-30520000Y80690000D02*
X-30470694Y80906770D01*
X-30338046Y81075824D01*
X-30144957Y81174258D01*
X-30020000Y81190000D01*
D10*
X-30020000Y81190000D02*
X-17020000Y81190000D01*
D11*
X-17020000Y81190000D02*
X-16803229Y81140694D01*
X-16634175Y81008046D01*
X-16535741Y80814957D01*
X-16520000Y80690000D01*
D10*
X-16520000Y80690000D02*
X-16520000Y67690000D01*
D11*
X-16520000Y67690000D02*
X-16569305Y67473229D01*
X-16701953Y67304175D01*
X-16895042Y67205741D01*
X-17020000Y67190000D01*
D10*
X-17020000Y67190000D02*
X-30020000Y67190000D01*
D11*
X-30020000Y67190000D02*
X-30236770Y67239305D01*
X-30405824Y67371953D01*
X-30504258Y67565042D01*
X-30520000Y67690000D01*
D10*
X-30520000Y48640000D02*
X-30520000Y61640000D01*
D11*
X-30520000Y61640000D02*
X-30470694Y61856770D01*
X-30338046Y62025824D01*
X-30144957Y62124258D01*
X-30020000Y62140000D01*
D10*
X-30020000Y62140000D02*
X-17020000Y62140000D01*
D11*
X-17020000Y62140000D02*
X-16803229Y62090694D01*
X-16634175Y61958046D01*
X-16535741Y61764957D01*
X-16520000Y61640000D01*
D10*
X-16520000Y61640000D02*
X-16520000Y48640000D01*
D11*
X-16520000Y48640000D02*
X-16569305Y48423229D01*
X-16701953Y48254175D01*
X-16895042Y48155741D01*
X-17020000Y48140000D01*
D10*
X-17020000Y48140000D02*
X-30020000Y48140000D01*
D11*
X-30020000Y48140000D02*
X-30236770Y48189305D01*
X-30405824Y48321953D01*
X-30504258Y48515042D01*
X-30520000Y48640000D01*
D10*
X-30520000Y105790000D02*
X-30520000Y118790000D01*
D11*
X-30520000Y118790000D02*
X-30470694Y119006770D01*
X-30338046Y119175824D01*
X-30144957Y119274258D01*
X-30020000Y119290000D01*
D10*
X-30020000Y119290000D02*
X-17020000Y119290000D01*
D11*
X-17020000Y119290000D02*
X-16803229Y119240694D01*
X-16634175Y119108046D01*
X-16535741Y118914957D01*
X-16520000Y118790000D01*
D10*
X-16520000Y118790000D02*
X-16520000Y105790000D01*
D11*
X-16520000Y105790000D02*
X-16569305Y105573229D01*
X-16701953Y105404175D01*
X-16895042Y105305741D01*
X-17020000Y105290000D01*
D10*
X-17020000Y105290000D02*
X-30020000Y105290000D01*
D11*
X-30020000Y105290000D02*
X-30236770Y105339305D01*
X-30405824Y105471953D01*
X-30504258Y105665042D01*
X-30520000Y105790000D01*
X68705000Y119290000D02*
X68921770Y119240694D01*
X69090824Y119108046D01*
X69189258Y118914957D01*
X69205000Y118790000D01*
D10*
X69205000Y118790000D02*
X69205000Y105790000D01*
D11*
X69205000Y105790000D02*
X69155694Y105573229D01*
X69023046Y105404175D01*
X68829957Y105305741D01*
X68705000Y105290000D01*
D10*
X68705000Y105290000D02*
X55705000Y105290000D01*
D11*
X55705000Y105290000D02*
X55488229Y105339305D01*
X55319175Y105471953D01*
X55220741Y105665042D01*
X55205000Y105790000D01*
D10*
X55205000Y105790000D02*
X55205000Y118790000D01*
D11*
X55205000Y118790000D02*
X55254305Y119006770D01*
X55386953Y119175824D01*
X55580042Y119274258D01*
X55705000Y119290000D01*
D10*
X55705000Y119290000D02*
X68705000Y119290000D01*
D11*
X59180000Y100240000D02*
X59396770Y100190694D01*
X59565824Y100058046D01*
X59664258Y99864957D01*
X59680000Y99740000D01*
D10*
X59680000Y99740000D02*
X59680000Y86740000D01*
D11*
X59680000Y86740000D02*
X59630694Y86523229D01*
X59498046Y86354175D01*
X59304957Y86255741D01*
X59180000Y86240000D01*
D10*
X59180000Y86240000D02*
X46180000Y86240000D01*
D11*
X46180000Y86240000D02*
X45963229Y86289305D01*
X45794175Y86421953D01*
X45695741Y86615042D01*
X45680000Y86740000D01*
D10*
X45680000Y86740000D02*
X45680000Y99740000D01*
D11*
X45680000Y99740000D02*
X45729305Y99956770D01*
X45861953Y100125824D01*
X46055042Y100224258D01*
X46180000Y100240000D01*
D10*
X46180000Y100240000D02*
X59180000Y100240000D01*
D11*
X63942500Y81190000D02*
X64159270Y81140694D01*
X64328324Y81008046D01*
X64426758Y80814957D01*
X64442500Y80690000D01*
D10*
X64442500Y80690000D02*
X64442500Y67690000D01*
D11*
X64442500Y67690000D02*
X64393194Y67473229D01*
X64260546Y67304175D01*
X64067457Y67205741D01*
X63942500Y67190000D01*
D10*
X63942500Y67190000D02*
X50942500Y67190000D01*
D11*
X50942500Y67190000D02*
X50725729Y67239305D01*
X50556675Y67371953D01*
X50458241Y67565042D01*
X50442500Y67690000D01*
D10*
X50442500Y67690000D02*
X50442500Y80690000D01*
D11*
X50442500Y80690000D02*
X50491805Y80906770D01*
X50624453Y81075824D01*
X50817542Y81174258D01*
X50942500Y81190000D01*
D10*
X50942500Y81190000D02*
X63942500Y81190000D01*
D11*
X63942500Y43090000D02*
X64159270Y43040694D01*
X64328324Y42908046D01*
X64426758Y42714957D01*
X64442500Y42590000D01*
D10*
X64442500Y42590000D02*
X64442500Y29590000D01*
D11*
X64442500Y29590000D02*
X64393194Y29373229D01*
X64260546Y29204175D01*
X64067457Y29105741D01*
X63942500Y29090000D01*
D10*
X63942500Y29090000D02*
X48561250Y29090000D01*
D11*
X48561250Y29090000D02*
X48344479Y29139305D01*
X48175425Y29271953D01*
X48076991Y29465042D01*
X48061250Y29590000D01*
D10*
X48061250Y29590000D02*
X48061250Y42590000D01*
D11*
X48061250Y42590000D02*
X48110555Y42806770D01*
X48243203Y42975824D01*
X48436292Y43074258D01*
X48561250Y43090000D01*
D10*
X48561250Y43090000D02*
X63942500Y43090000D01*
X436250Y29590000D02*
X436250Y42590000D01*
D11*
X436250Y42590000D02*
X485555Y42806770D01*
X618203Y42975824D01*
X811292Y43074258D01*
X936250Y43090000D01*
D10*
X936250Y43090000D02*
X16317500Y43090000D01*
D11*
X16317500Y43090000D02*
X16534270Y43040694D01*
X16703324Y42908046D01*
X16801758Y42714957D01*
X16817500Y42590000D01*
D10*
X16817500Y42590000D02*
X16817500Y29590000D01*
D11*
X16817500Y29590000D02*
X16768194Y29373229D01*
X16635546Y29204175D01*
X16442457Y29105741D01*
X16317500Y29090000D01*
D10*
X16317500Y29090000D02*
X936250Y29090000D01*
D11*
X936250Y29090000D02*
X719479Y29139305D01*
X550425Y29271953D01*
X451991Y29465042D01*
X436250Y29590000D01*
D10*
X24248750Y29590000D02*
X24248750Y42590000D01*
D11*
X24248750Y42590000D02*
X24298055Y42806770D01*
X24430703Y42975824D01*
X24623792Y43074258D01*
X24748750Y43090000D01*
D10*
X24748750Y43090000D02*
X40130000Y43090000D01*
D11*
X40130000Y43090000D02*
X40346770Y43040694D01*
X40515824Y42908046D01*
X40614258Y42714957D01*
X40630000Y42590000D01*
D10*
X40630000Y42590000D02*
X40630000Y29590000D01*
D11*
X40630000Y29590000D02*
X40580694Y29373229D01*
X40448046Y29204175D01*
X40254957Y29105741D01*
X40130000Y29090000D01*
D10*
X40130000Y29090000D02*
X24748750Y29090000D01*
D11*
X24748750Y29090000D02*
X24531979Y29139305D01*
X24362925Y29271953D01*
X24264491Y29465042D01*
X24248750Y29590000D01*
D10*
X26630000Y86740000D02*
X26630000Y99740000D01*
D11*
X26630000Y99740000D02*
X26679305Y99956770D01*
X26811953Y100125824D01*
X27005042Y100224258D01*
X27130000Y100240000D01*
D10*
X27130000Y100240000D02*
X40130000Y100240000D01*
D11*
X40130000Y100240000D02*
X40346770Y100190694D01*
X40515824Y100058046D01*
X40614258Y99864957D01*
X40630000Y99740000D01*
D10*
X40630000Y99740000D02*
X40630000Y86740000D01*
D11*
X40630000Y86740000D02*
X40580694Y86523229D01*
X40448046Y86354175D01*
X40254957Y86255741D01*
X40130000Y86240000D01*
D10*
X40130000Y86240000D02*
X27130000Y86240000D01*
D11*
X27130000Y86240000D02*
X26913229Y86289305D01*
X26744175Y86421953D01*
X26645741Y86615042D01*
X26630000Y86740000D01*
D10*
X2817500Y86740000D02*
X2817500Y99740000D01*
D11*
X2817500Y99740000D02*
X2866805Y99956770D01*
X2999453Y100125824D01*
X3192542Y100224258D01*
X3317500Y100240000D01*
D10*
X3317500Y100240000D02*
X16317500Y100240000D01*
D11*
X16317500Y100240000D02*
X16534270Y100190694D01*
X16703324Y100058046D01*
X16801758Y99864957D01*
X16817500Y99740000D01*
D10*
X16817500Y99740000D02*
X16817500Y86740000D01*
D11*
X16817500Y86740000D02*
X16768194Y86523229D01*
X16635546Y86354175D01*
X16442457Y86255741D01*
X16317500Y86240000D01*
D10*
X16317500Y86240000D02*
X3317500Y86240000D01*
D11*
X3317500Y86240000D02*
X3100729Y86289305D01*
X2931675Y86421953D01*
X2833241Y86615042D01*
X2817500Y86740000D01*
D10*
X436250Y67690000D02*
X436250Y80690000D01*
D11*
X436250Y80690000D02*
X485555Y80906770D01*
X618203Y81075824D01*
X811292Y81174258D01*
X936250Y81190000D01*
D10*
X936250Y81190000D02*
X18698750Y81190000D01*
D11*
X18698750Y81190000D02*
X18915520Y81140694D01*
X19084574Y81008046D01*
X19183008Y80814957D01*
X19198750Y80690000D01*
D10*
X19198750Y80690000D02*
X19198750Y67690000D01*
D11*
X19198750Y67690000D02*
X19149444Y67473229D01*
X19016796Y67304175D01*
X18823707Y67205741D01*
X18698750Y67190000D01*
D10*
X18698750Y67190000D02*
X936250Y67190000D01*
D11*
X936250Y67190000D02*
X719479Y67239305D01*
X550425Y67371953D01*
X451991Y67565042D01*
X436250Y67690000D01*
D10*
X31392500Y67690000D02*
X31392500Y80690000D01*
D11*
X31392500Y80690000D02*
X31441805Y80906770D01*
X31574453Y81075824D01*
X31767542Y81174258D01*
X31892500Y81190000D01*
D10*
X31892500Y81190000D02*
X44892500Y81190000D01*
D11*
X44892500Y81190000D02*
X45109270Y81140694D01*
X45278324Y81008046D01*
X45376758Y80814957D01*
X45392500Y80690000D01*
D10*
X45392500Y80690000D02*
X45392500Y67690000D01*
D11*
X45392500Y67690000D02*
X45343194Y67473229D01*
X45210546Y67304175D01*
X45017457Y67205741D01*
X44892500Y67190000D01*
D10*
X44892500Y67190000D02*
X31892500Y67190000D01*
D11*
X31892500Y67190000D02*
X31675729Y67239305D01*
X31506675Y67371953D01*
X31408241Y67565042D01*
X31392500Y67690000D01*
D10*
X40917500Y48640000D02*
X40917500Y61640000D01*
D11*
X40917500Y61640000D02*
X40966805Y61856770D01*
X41099453Y62025824D01*
X41292542Y62124258D01*
X41417500Y62140000D01*
D10*
X41417500Y62140000D02*
X54417500Y62140000D01*
D11*
X54417500Y62140000D02*
X54634270Y62090694D01*
X54803324Y61958046D01*
X54901758Y61764957D01*
X54917500Y61640000D01*
D10*
X54917500Y61640000D02*
X54917500Y48640000D01*
D11*
X54917500Y48640000D02*
X54868194Y48423229D01*
X54735546Y48254175D01*
X54542457Y48155741D01*
X54417500Y48140000D01*
D10*
X54417500Y48140000D02*
X41417500Y48140000D01*
D11*
X41417500Y48140000D02*
X41200729Y48189305D01*
X41031675Y48321953D01*
X40933241Y48515042D01*
X40917500Y48640000D01*
D10*
X17105000Y105790000D02*
X17105000Y118790000D01*
D11*
X17105000Y118790000D02*
X17154305Y119006770D01*
X17286953Y119175824D01*
X17480042Y119274258D01*
X17605000Y119290000D01*
D10*
X17605000Y119290000D02*
X30605000Y119290000D01*
D11*
X30605000Y119290000D02*
X30821770Y119240694D01*
X30990824Y119108046D01*
X31089258Y118914957D01*
X31105000Y118790000D01*
D10*
X31105000Y118790000D02*
X31105000Y105790000D01*
D11*
X31105000Y105790000D02*
X31055694Y105573229D01*
X30923046Y105404175D01*
X30729957Y105305741D01*
X30605000Y105290000D01*
D10*
X30605000Y105290000D02*
X17605000Y105290000D01*
D11*
X17605000Y105290000D02*
X17388229Y105339305D01*
X17219175Y105471953D01*
X17120741Y105665042D01*
X17105000Y105790000D01*
D10*
X36155000Y105790000D02*
X36155000Y118790000D01*
D11*
X36155000Y118790000D02*
X36204305Y119006770D01*
X36336953Y119175824D01*
X36530042Y119274258D01*
X36655000Y119290000D01*
D10*
X36655000Y119290000D02*
X49655000Y119290000D01*
D11*
X49655000Y119290000D02*
X49871770Y119240694D01*
X50040824Y119108046D01*
X50139258Y118914957D01*
X50155000Y118790000D01*
D10*
X50155000Y118790000D02*
X50155000Y105790000D01*
D11*
X50155000Y105790000D02*
X50105694Y105573229D01*
X49973046Y105404175D01*
X49779957Y105305741D01*
X49655000Y105290000D01*
D10*
X49655000Y105290000D02*
X36655000Y105290000D01*
D11*
X36655000Y105290000D02*
X36438229Y105339305D01*
X36269175Y105471953D01*
X36170741Y105665042D01*
X36155000Y105790000D01*
D10*
X-1945000Y105790000D02*
X-1945000Y118790000D01*
D11*
X-1945000Y118790000D02*
X-1895694Y119006770D01*
X-1763046Y119175824D01*
X-1569957Y119274258D01*
X-1445000Y119290000D01*
D10*
X-1445000Y119290000D02*
X11555000Y119290000D01*
D11*
X11555000Y119290000D02*
X11771770Y119240694D01*
X11940824Y119108046D01*
X12039258Y118914957D01*
X12055000Y118790000D01*
D10*
X12055000Y118790000D02*
X12055000Y105790000D01*
D11*
X12055000Y105790000D02*
X12005694Y105573229D01*
X11873046Y105404175D01*
X11679957Y105305741D01*
X11555000Y105290000D01*
D10*
X11555000Y105290000D02*
X-1445000Y105290000D01*
D11*
X-1445000Y105290000D02*
X-1661770Y105339305D01*
X-1830824Y105471953D01*
X-1929258Y105665042D01*
X-1945000Y105790000D01*
D10*
X33486503Y61640003D02*
G75*
G03*
X32986503Y62140003I-499998J2D01*
G01*
X33486503Y61640003D02*
X33486503Y48639997D01*
X32986503Y48139997D02*
G75*
G03*
X33486503Y48639997I2J499998D01*
G01*
X32986503Y48139997D02*
X32986261Y48139997D01*
D11*
X32399261Y47552996D02*
X32434880Y47754826D01*
X32551753Y47947682D01*
X32731772Y48082112D01*
X32926243Y48136966D01*
X32986261Y48139997D01*
D10*
X32399261Y47552996D02*
X32399261Y46640002D01*
D11*
X31899249Y46139989D02*
X32116024Y46189295D01*
X32285082Y46321947D01*
X32383519Y46515041D01*
X32399261Y46640002D01*
D10*
X31899249Y46139989D02*
X25899270Y46139989D01*
D11*
X25399258Y46640002D02*
X25448564Y46423225D01*
X25581215Y46254167D01*
X25774309Y46155730D01*
X25899270Y46139989D01*
D10*
X25399258Y46640002D02*
X25399258Y47552996D01*
D11*
X24812258Y48139997D02*
X25014088Y48104377D01*
X25206943Y47987504D01*
X25341373Y47807485D01*
X25396227Y47613013D01*
X25399258Y47552996D01*
D10*
X24812258Y48139997D02*
X9110264Y48139997D01*
D11*
X8523264Y47552996D02*
X8558883Y47754826D01*
X8675756Y47947682D01*
X8855775Y48082112D01*
X9050246Y48136966D01*
X9110264Y48139997D01*
D10*
X8523264Y47552996D02*
X8523264Y46640002D01*
D11*
X8023251Y46139989D02*
X8240027Y46189295D01*
X8409085Y46321947D01*
X8507522Y46515041D01*
X8523264Y46640002D01*
D10*
X8023251Y46139989D02*
X2023273Y46139989D01*
D11*
X1523260Y46640002D02*
X1572566Y46423225D01*
X1705218Y46254167D01*
X1898312Y46155730D01*
X2023273Y46139989D01*
D10*
X1523260Y46640002D02*
X1523260Y47552996D01*
D11*
X936260Y48139997D02*
X1138090Y48104377D01*
X1330945Y47987504D01*
X1465375Y47807485D01*
X1520229Y47613013D01*
X1523260Y47552996D01*
X436247Y48640009D02*
X485553Y48423233D01*
X618204Y48254175D01*
X811298Y48155738D01*
X936259Y48139997D01*
D10*
X436247Y48640009D02*
X436247Y61639991D01*
D11*
X936259Y62140003D02*
X719483Y62090696D01*
X550425Y61958045D01*
X451988Y61764951D01*
X436247Y61639991D01*
D10*
X936259Y62140003D02*
X32986503Y62140003D01*
X-9732500Y42590001D02*
G75*
G03*
X-8732500Y42590001I500000J0D01*
G01*
X-9732500Y42590001D02*
X-9732500Y105790000D01*
X-8732500Y105790000D02*
G75*
G03*
X-9732500Y105790000I-500000J0D01*
G01*
X-8732500Y105790000D02*
X-8732500Y42590001D01*
D11*
X240155000Y119290000D02*
X240371770Y119240694D01*
X240540824Y119108046D01*
X240639258Y118914957D01*
X240655000Y118790000D01*
D10*
X240655000Y118790000D02*
X240655000Y105790000D01*
D11*
X240655000Y105790000D02*
X240605694Y105573229D01*
X240473046Y105404175D01*
X240279957Y105305741D01*
X240155000Y105290000D01*
D10*
X240155000Y105290000D02*
X227155000Y105290000D01*
D11*
X227155000Y105290000D02*
X226938229Y105339305D01*
X226769175Y105471953D01*
X226670741Y105665042D01*
X226655000Y105790000D01*
D10*
X226655000Y105790000D02*
X226655000Y118790000D01*
D11*
X226655000Y118790000D02*
X226704305Y119006770D01*
X226836953Y119175824D01*
X227030042Y119274258D01*
X227155000Y119290000D01*
D10*
X227155000Y119290000D02*
X240155000Y119290000D01*
D11*
X249680000Y100240000D02*
X249896770Y100190694D01*
X250065824Y100058046D01*
X250164258Y99864957D01*
X250180000Y99740000D01*
D10*
X250180000Y99740000D02*
X250180000Y86740000D01*
D11*
X250180000Y86740000D02*
X250130694Y86523229D01*
X249998046Y86354175D01*
X249804957Y86255741D01*
X249680000Y86240000D01*
D10*
X249680000Y86240000D02*
X236680000Y86240000D01*
D11*
X236680000Y86240000D02*
X236463229Y86289305D01*
X236294175Y86421953D01*
X236195741Y86615042D01*
X236180000Y86740000D01*
D10*
X236180000Y86740000D02*
X236180000Y99740000D01*
D11*
X236180000Y99740000D02*
X236229305Y99956770D01*
X236361953Y100125824D01*
X236555042Y100224258D01*
X236680000Y100240000D01*
D10*
X236680000Y100240000D02*
X249680000Y100240000D01*
X286267500Y105790000D02*
G75*
G03*
X285267500Y105790000I-500000J0D01*
G01*
X286267500Y105790000D02*
X286267500Y42590001D01*
X285267500Y42590001D02*
G75*
G03*
X286267500Y42590001I500000J0D01*
G01*
X285267500Y42590001D02*
X285267500Y105790000D01*
X293330000Y48640000D02*
X293330000Y61640000D01*
D11*
X293830000Y62140000D02*
X293613229Y62090694D01*
X293444175Y61958046D01*
X293345741Y61764957D01*
X293330000Y61640000D01*
D10*
X293830000Y62140000D02*
X306830000Y62140000D01*
D11*
X307330000Y61640000D02*
X307280694Y61856770D01*
X307148046Y62025824D01*
X306954957Y62124258D01*
X306830000Y62140000D01*
D10*
X307330000Y61640000D02*
X307330000Y48640000D01*
D11*
X306830000Y48140000D02*
X307046770Y48189305D01*
X307215824Y48321953D01*
X307314258Y48515042D01*
X307330000Y48640000D01*
D10*
X306830000Y48140000D02*
X293830000Y48140000D01*
D11*
X293330000Y48640000D02*
X293379305Y48423229D01*
X293511953Y48254175D01*
X293705042Y48155741D01*
X293830000Y48140000D01*
D10*
X243323514Y67689997D02*
G75*
G03*
X243823496Y67189997I499997J-3D01*
G01*
X243323496Y67689997D02*
X243323496Y80690003D01*
X243823496Y81190009D02*
G75*
G03*
X243323496Y80690003I15J-500015D01*
G01*
X243823496Y81190003D02*
X275873753Y81190003D01*
X276373720Y80690003D02*
G75*
G03*
X275873753Y81190003I-500009J-9D01*
G01*
X276373753Y80690003D02*
X276373753Y67690009D01*
D11*
X275873741Y67189997D02*
X276090516Y67239303D01*
X276259574Y67371954D01*
X276358011Y67565048D01*
X276373753Y67690009D01*
X275286739Y66602997D02*
X275322358Y66804827D01*
X275439231Y66997682D01*
X275619250Y67132112D01*
X275813721Y67186966D01*
X275873739Y67189997D01*
D10*
X275286739Y66602997D02*
X275286739Y65689981D01*
D11*
X274786748Y65189989D02*
X275003515Y65239293D01*
X275172565Y65371939D01*
X275270997Y65565025D01*
X275286739Y65689981D01*
D10*
X274786748Y65189989D02*
X268786770Y65189989D01*
D11*
X268286758Y65690002D02*
X268336064Y65473225D01*
X268468715Y65304167D01*
X268661809Y65205730D01*
X268786770Y65189989D01*
D10*
X268286758Y65690002D02*
X268286758Y66602997D01*
D11*
X267699758Y67189997D02*
X267901588Y67154377D01*
X268094443Y67037504D01*
X268228873Y66857485D01*
X268283727Y66663014D01*
X268286758Y66602997D01*
D10*
X267699758Y67189997D02*
X251997742Y67189997D01*
D11*
X251410742Y66602997D02*
X251446361Y66804827D01*
X251563234Y66997682D01*
X251743253Y67132112D01*
X251937724Y67186966D01*
X251997742Y67189997D01*
D10*
X251410742Y66602997D02*
X251410742Y65689981D01*
D11*
X250910751Y65189989D02*
X251127517Y65239293D01*
X251296568Y65371939D01*
X251395000Y65565025D01*
X251410742Y65689981D01*
D10*
X250910751Y65189989D02*
X244910773Y65189989D01*
D11*
X244410760Y65690002D02*
X244460066Y65473225D01*
X244592718Y65304167D01*
X244785811Y65205730D01*
X244910773Y65189989D01*
D10*
X244410760Y65690002D02*
X244410760Y66602997D01*
D11*
X243823760Y67189997D02*
X244025590Y67154377D01*
X244218445Y67037504D01*
X244352875Y66857485D01*
X244407729Y66663014D01*
X244410760Y66602997D01*
D10*
X243823760Y67189997D02*
X243823496Y67189997D01*
X273992720Y99740003D02*
G75*
G03*
X273492753Y100240003I-500009J-9D01*
G01*
X273992753Y99740003D02*
X273992753Y86739997D01*
X273492753Y86239952D02*
G75*
G03*
X273992753Y86739997I-42J500042D01*
G01*
X273492753Y86239997D02*
X260492496Y86239997D01*
D11*
X259992496Y86739997D02*
X260041801Y86523226D01*
X260174449Y86354172D01*
X260367538Y86255738D01*
X260492496Y86239997D01*
D10*
X259992496Y86739997D02*
X259992496Y99739991D01*
D11*
X260492509Y100240003D02*
X260275732Y100190696D01*
X260106674Y100058045D01*
X260008237Y99864951D01*
X259992496Y99739991D01*
D10*
X260492509Y100240003D02*
X273492753Y100240003D01*
D11*
X278254991Y105289997D02*
X278471766Y105339303D01*
X278640824Y105471954D01*
X278739261Y105665048D01*
X278755003Y105790009D01*
X277667989Y104702997D02*
X277703608Y104904827D01*
X277820481Y105097682D01*
X278000500Y105232112D01*
X278194971Y105286966D01*
X278254989Y105289997D01*
D10*
X277667989Y104702997D02*
X277667989Y103789980D01*
D11*
X277167998Y103289989D02*
X277384765Y103339293D01*
X277553815Y103471939D01*
X277652247Y103665024D01*
X277667989Y103789980D01*
D10*
X277167998Y103289989D02*
X271168020Y103289989D01*
D11*
X270668008Y103790002D02*
X270717314Y103573225D01*
X270849965Y103404167D01*
X271043059Y103305730D01*
X271168020Y103289989D01*
D10*
X270668008Y103790002D02*
X270668008Y104702997D01*
D11*
X270081008Y105289997D02*
X270282838Y105254377D01*
X270475693Y105137504D01*
X270610123Y104957485D01*
X270664977Y104763014D01*
X270668008Y104702997D01*
D10*
X270081008Y105289997D02*
X254378992Y105289997D01*
D11*
X253791992Y104702997D02*
X253827611Y104904827D01*
X253944484Y105097682D01*
X254124503Y105232112D01*
X254318974Y105286966D01*
X254378992Y105289997D01*
D10*
X253791992Y104702997D02*
X253791992Y103789980D01*
D11*
X253292001Y103289989D02*
X253508767Y103339293D01*
X253677818Y103471939D01*
X253776250Y103665024D01*
X253791992Y103789980D01*
D10*
X253292001Y103289989D02*
X247292023Y103289989D01*
D11*
X246792010Y103790002D02*
X246841316Y103573225D01*
X246973968Y103404167D01*
X247167061Y103305730D01*
X247292023Y103289989D01*
D10*
X246792010Y103790002D02*
X246792010Y104702997D01*
D11*
X246205010Y105289997D02*
X246406840Y105254377D01*
X246599695Y105137504D01*
X246734125Y104957485D01*
X246788979Y104763014D01*
X246792010Y104702997D01*
X245704996Y105790009D02*
X245754302Y105573233D01*
X245886954Y105404175D01*
X246080048Y105305738D01*
X246205009Y105289997D01*
D10*
X245704996Y105790009D02*
X245704996Y118789991D01*
D11*
X246205009Y119290003D02*
X245988232Y119240696D01*
X245819174Y119108045D01*
X245720737Y118914951D01*
X245704996Y118789991D01*
D10*
X246205009Y119290003D02*
X278254991Y119290003D01*
D11*
X278755003Y118789991D02*
X278705696Y119006766D01*
X278573045Y119175824D01*
X278379951Y119274261D01*
X278254991Y119290003D01*
D10*
X278755003Y118789991D02*
X278755003Y105790009D01*
X275873750Y29090000D02*
X260492500Y29090000D01*
D11*
X259992500Y29590000D02*
X260041805Y29373229D01*
X260174453Y29204175D01*
X260367542Y29105741D01*
X260492500Y29090000D01*
D10*
X259992500Y29590000D02*
X259992500Y42590000D01*
D11*
X260492500Y43090000D02*
X260275729Y43040694D01*
X260106675Y42908046D01*
X260008241Y42714957D01*
X259992500Y42590000D01*
D10*
X260492500Y43090000D02*
X275873750Y43090000D01*
D11*
X276373750Y42590000D02*
X276324444Y42806770D01*
X276191796Y42975824D01*
X275998707Y43074258D01*
X275873750Y43090000D01*
D10*
X276373750Y42590000D02*
X276373750Y29590000D01*
D11*
X275873750Y29090000D02*
X276090520Y29139305D01*
X276259574Y29271953D01*
X276358008Y29465042D01*
X276373750Y29590000D01*
D10*
X312380000Y105790000D02*
X312380000Y118790000D01*
D11*
X312380000Y118790000D02*
X312429305Y119006770D01*
X312561953Y119175824D01*
X312755042Y119274258D01*
X312880000Y119290000D01*
D10*
X312880000Y119290000D02*
X325880000Y119290000D01*
D11*
X325880000Y119290000D02*
X326096770Y119240694D01*
X326265824Y119108046D01*
X326364258Y118914957D01*
X326380000Y118790000D01*
D10*
X326380000Y118790000D02*
X326380000Y105790000D01*
D11*
X326380000Y105790000D02*
X326330694Y105573229D01*
X326198046Y105404175D01*
X326004957Y105305741D01*
X325880000Y105290000D01*
D10*
X325880000Y105290000D02*
X312880000Y105290000D01*
D11*
X312880000Y105290000D02*
X312663229Y105339305D01*
X312494175Y105471953D01*
X312395741Y105665042D01*
X312380000Y105790000D01*
D10*
X293330000Y105790000D02*
X293330000Y118790000D01*
D11*
X293330000Y118790000D02*
X293379305Y119006770D01*
X293511953Y119175824D01*
X293705042Y119274258D01*
X293830000Y119290000D01*
D10*
X293830000Y119290000D02*
X306830000Y119290000D01*
D11*
X306830000Y119290000D02*
X307046770Y119240694D01*
X307215824Y119108046D01*
X307314258Y118914957D01*
X307330000Y118790000D01*
D10*
X307330000Y118790000D02*
X307330000Y105790000D01*
D11*
X307330000Y105790000D02*
X307280694Y105573229D01*
X307148046Y105404175D01*
X306954957Y105305741D01*
X306830000Y105290000D01*
D10*
X306830000Y105290000D02*
X293830000Y105290000D01*
D11*
X293830000Y105290000D02*
X293613229Y105339305D01*
X293444175Y105471953D01*
X293345741Y105665042D01*
X293330000Y105790000D01*
D10*
X331430000Y105790000D02*
X331430000Y118790000D01*
D11*
X331430000Y118790000D02*
X331479305Y119006770D01*
X331611953Y119175824D01*
X331805042Y119274258D01*
X331930000Y119290000D01*
D10*
X331930000Y119290000D02*
X344930000Y119290000D01*
D11*
X344930000Y119290000D02*
X345146770Y119240694D01*
X345315824Y119108046D01*
X345414258Y118914957D01*
X345430000Y118790000D01*
D10*
X345430000Y118790000D02*
X345430000Y105790000D01*
D11*
X345430000Y105790000D02*
X345380694Y105573229D01*
X345248046Y105404175D01*
X345054957Y105305741D01*
X344930000Y105290000D01*
D10*
X344930000Y105290000D02*
X331930000Y105290000D01*
D11*
X331930000Y105290000D02*
X331713229Y105339305D01*
X331544175Y105471953D01*
X331445741Y105665042D01*
X331430000Y105790000D01*
D10*
X312380000Y86740000D02*
X312380000Y99740000D01*
D11*
X312380000Y99740000D02*
X312429305Y99956770D01*
X312561953Y100125824D01*
X312755042Y100224258D01*
X312880000Y100240000D01*
D10*
X312880000Y100240000D02*
X325880000Y100240000D01*
D11*
X325880000Y100240000D02*
X326096770Y100190694D01*
X326265824Y100058046D01*
X326364258Y99864957D01*
X326380000Y99740000D01*
D10*
X326380000Y99740000D02*
X326380000Y86740000D01*
D11*
X326380000Y86740000D02*
X326330694Y86523229D01*
X326198046Y86354175D01*
X326004957Y86255741D01*
X325880000Y86240000D01*
D10*
X325880000Y86240000D02*
X312880000Y86240000D01*
D11*
X312880000Y86240000D02*
X312663229Y86289305D01*
X312494175Y86421953D01*
X312395741Y86615042D01*
X312380000Y86740000D01*
D10*
X293330000Y86740000D02*
X293330000Y99740000D01*
D11*
X293330000Y99740000D02*
X293379305Y99956770D01*
X293511953Y100125824D01*
X293705042Y100224258D01*
X293830000Y100240000D01*
D10*
X293830000Y100240000D02*
X306830000Y100240000D01*
D11*
X306830000Y100240000D02*
X307046770Y100190694D01*
X307215824Y100058046D01*
X307314258Y99864957D01*
X307330000Y99740000D01*
D10*
X307330000Y99740000D02*
X307330000Y86740000D01*
D11*
X307330000Y86740000D02*
X307280694Y86523229D01*
X307148046Y86354175D01*
X306954957Y86255741D01*
X306830000Y86240000D01*
D10*
X306830000Y86240000D02*
X293830000Y86240000D01*
D11*
X293830000Y86240000D02*
X293613229Y86289305D01*
X293444175Y86421953D01*
X293345741Y86615042D01*
X293330000Y86740000D01*
D10*
X331430000Y86740000D02*
X331430000Y99740000D01*
D11*
X331430000Y99740000D02*
X331479305Y99956770D01*
X331611953Y100125824D01*
X331805042Y100224258D01*
X331930000Y100240000D01*
D10*
X331930000Y100240000D02*
X344930000Y100240000D01*
D11*
X344930000Y100240000D02*
X345146770Y100190694D01*
X345315824Y100058046D01*
X345414258Y99864957D01*
X345430000Y99740000D01*
D10*
X345430000Y99740000D02*
X345430000Y86740000D01*
D11*
X345430000Y86740000D02*
X345380694Y86523229D01*
X345248046Y86354175D01*
X345054957Y86255741D01*
X344930000Y86240000D01*
D10*
X344930000Y86240000D02*
X331930000Y86240000D01*
D11*
X331930000Y86240000D02*
X331713229Y86289305D01*
X331544175Y86421953D01*
X331445741Y86615042D01*
X331430000Y86740000D01*
D10*
X293330000Y29590000D02*
X293330000Y42590000D01*
D11*
X293330000Y42590000D02*
X293379305Y42806770D01*
X293511953Y42975824D01*
X293705042Y43074258D01*
X293830000Y43090000D01*
D10*
X293830000Y43090000D02*
X306830000Y43090000D01*
D11*
X306830000Y43090000D02*
X307046770Y43040694D01*
X307215824Y42908046D01*
X307314258Y42714957D01*
X307330000Y42590000D01*
D10*
X307330000Y42590000D02*
X307330000Y29590000D01*
D11*
X307330000Y29590000D02*
X307280694Y29373229D01*
X307148046Y29204175D01*
X306954957Y29105741D01*
X306830000Y29090000D01*
D10*
X306830000Y29090000D02*
X293830000Y29090000D01*
D11*
X293830000Y29090000D02*
X293613229Y29139305D01*
X293444175Y29271953D01*
X293345741Y29465042D01*
X293330000Y29590000D01*
D10*
X312380000Y29590000D02*
X312380000Y42590000D01*
D11*
X312380000Y42590000D02*
X312429305Y42806770D01*
X312561953Y42975824D01*
X312755042Y43074258D01*
X312880000Y43090000D01*
D10*
X312880000Y43090000D02*
X325880000Y43090000D01*
D11*
X325880000Y43090000D02*
X326096770Y43040694D01*
X326265824Y42908046D01*
X326364258Y42714957D01*
X326380000Y42590000D01*
D10*
X326380000Y42590000D02*
X326380000Y29590000D01*
D11*
X326380000Y29590000D02*
X326330694Y29373229D01*
X326198046Y29204175D01*
X326004957Y29105741D01*
X325880000Y29090000D01*
D10*
X325880000Y29090000D02*
X312880000Y29090000D01*
D11*
X312880000Y29090000D02*
X312663229Y29139305D01*
X312494175Y29271953D01*
X312395741Y29465042D01*
X312380000Y29590000D01*
D10*
X331430000Y29590000D02*
X331430000Y42590000D01*
D11*
X331430000Y42590000D02*
X331479305Y42806770D01*
X331611953Y42975824D01*
X331805042Y43074258D01*
X331930000Y43090000D01*
D10*
X331930000Y43090000D02*
X344930000Y43090000D01*
D11*
X344930000Y43090000D02*
X345146770Y43040694D01*
X345315824Y42908046D01*
X345414258Y42714957D01*
X345430000Y42590000D01*
D10*
X345430000Y42590000D02*
X345430000Y29590000D01*
D11*
X345430000Y29590000D02*
X345380694Y29373229D01*
X345248046Y29204175D01*
X345054957Y29105741D01*
X344930000Y29090000D01*
D10*
X344930000Y29090000D02*
X331930000Y29090000D01*
D11*
X331930000Y29090000D02*
X331713229Y29139305D01*
X331544175Y29271953D01*
X331445741Y29465042D01*
X331430000Y29590000D01*
D10*
X312380000Y48640000D02*
X312380000Y61640000D01*
D11*
X312380000Y61640000D02*
X312429305Y61856770D01*
X312561953Y62025824D01*
X312755042Y62124258D01*
X312880000Y62140000D01*
D10*
X312880000Y62140000D02*
X325880000Y62140000D01*
D11*
X325880000Y62140000D02*
X326096770Y62090694D01*
X326265824Y61958046D01*
X326364258Y61764957D01*
X326380000Y61640000D01*
D10*
X326380000Y61640000D02*
X326380000Y48640000D01*
D11*
X326380000Y48640000D02*
X326330694Y48423229D01*
X326198046Y48254175D01*
X326004957Y48155741D01*
X325880000Y48140000D01*
D10*
X325880000Y48140000D02*
X312880000Y48140000D01*
D11*
X312880000Y48140000D02*
X312663229Y48189305D01*
X312494175Y48321953D01*
X312395741Y48515042D01*
X312380000Y48640000D01*
X252561250Y42590000D02*
X252511944Y42806770D01*
X252379296Y42975824D01*
X252186207Y43074258D01*
X252061250Y43090000D01*
D10*
X252561250Y42590000D02*
X252561250Y29590000D01*
D11*
X252061250Y29090000D02*
X252278020Y29139305D01*
X252447074Y29271953D01*
X252545508Y29465042D01*
X252561250Y29590000D01*
D10*
X252061250Y29090000D02*
X236680000Y29090000D01*
D11*
X236180000Y29590000D02*
X236229305Y29373229D01*
X236361953Y29204175D01*
X236555042Y29105741D01*
X236680000Y29090000D01*
D10*
X236180000Y29590000D02*
X236180000Y42590000D01*
D11*
X236680000Y43090000D02*
X236463229Y43040694D01*
X236294175Y42908046D01*
X236195741Y42714957D01*
X236180000Y42590000D01*
D10*
X236680000Y43090000D02*
X252061250Y43090000D01*
D11*
X204436241Y29089997D02*
X204653016Y29139303D01*
X204822074Y29271954D01*
X204920511Y29465048D01*
X204936253Y29590009D01*
D10*
X204436241Y29089997D02*
X191436259Y29089997D01*
D11*
X190936246Y29590009D02*
X190985552Y29373233D01*
X191118204Y29204175D01*
X191311298Y29105738D01*
X191436259Y29089997D01*
D10*
X190936246Y29590009D02*
X190936246Y42589991D01*
D11*
X191436259Y43090003D02*
X191219482Y43040696D01*
X191050424Y42908045D01*
X190951987Y42714951D01*
X190936246Y42589991D01*
D10*
X191436259Y43090003D02*
X191467998Y43090003D01*
D11*
X192054998Y43677003D02*
X192019378Y43475172D01*
X191902505Y43282317D01*
X191722486Y43147887D01*
X191528015Y43093033D01*
X191467998Y43090003D01*
D10*
X192054998Y43677003D02*
X192054998Y44590020D01*
D11*
X192554989Y45090011D02*
X192338222Y45040706D01*
X192169171Y44908060D01*
X192070739Y44714975D01*
X192054998Y44590020D01*
D10*
X192554989Y45090011D02*
X198554989Y45090011D01*
D11*
X199055002Y44589998D02*
X199005695Y44806774D01*
X198873043Y44975832D01*
X198679949Y45074269D01*
X198554989Y45090011D01*
D10*
X199055002Y44589998D02*
X199055002Y43677003D01*
D11*
X199642002Y43090003D02*
X199440171Y43125622D01*
X199247316Y43242495D01*
X199112886Y43422514D01*
X199058032Y43616985D01*
X199055002Y43677003D01*
D10*
X199642002Y43090003D02*
X204436241Y43090003D01*
D11*
X204936253Y42589991D02*
X204886946Y42806766D01*
X204754295Y42975824D01*
X204561201Y43074261D01*
X204436241Y43090003D01*
D10*
X204936253Y42589991D02*
X204936253Y29590009D01*
X172998750Y30590000D02*
X172998750Y44590000D01*
D11*
X172998750Y44590000D02*
X173048055Y44806770D01*
X173180703Y44975824D01*
X173373792Y45074258D01*
X173498750Y45090000D01*
D10*
X173498750Y45090000D02*
X179498750Y45090000D01*
D11*
X179498750Y45090000D02*
X179715520Y45040694D01*
X179884574Y44908046D01*
X179983008Y44714957D01*
X179998750Y44590000D01*
D10*
X179998750Y44590000D02*
X179998750Y30590000D01*
D11*
X179998750Y30590000D02*
X179949444Y30373229D01*
X179816796Y30204175D01*
X179623707Y30105741D01*
X179498750Y30090000D01*
D10*
X179498750Y30090000D02*
X173498750Y30090000D01*
D11*
X173498750Y30090000D02*
X173281979Y30139305D01*
X173112925Y30271953D01*
X173014491Y30465042D01*
X172998750Y30590000D01*
D10*
X72998750Y30590000D02*
X72998750Y44590000D01*
D11*
X72998750Y44590000D02*
X73048055Y44806770D01*
X73180703Y44975824D01*
X73373792Y45074258D01*
X73498750Y45090000D01*
D10*
X73498750Y45090000D02*
X84255000Y45090000D01*
D11*
X84255000Y45090000D02*
X84471770Y45040694D01*
X84640824Y44908046D01*
X84739258Y44714957D01*
X84755000Y44590000D01*
D10*
X84755000Y44590000D02*
X84755000Y30590000D01*
D11*
X84755000Y30590000D02*
X84705694Y30373229D01*
X84573046Y30204175D01*
X84379957Y30105741D01*
X84255000Y30090000D01*
D10*
X84255000Y30090000D02*
X73498750Y30090000D01*
D11*
X73498750Y30090000D02*
X73281979Y30139305D01*
X73112925Y30271953D01*
X73014491Y30465042D01*
X72998750Y30590000D01*
D10*
X212367500Y29590000D02*
X212367500Y42590000D01*
D11*
X212367500Y42590000D02*
X212416805Y42806770D01*
X212549453Y42975824D01*
X212742542Y43074258D01*
X212867500Y43090000D01*
D10*
X212867500Y43090000D02*
X228248750Y43090000D01*
D11*
X228248750Y43090000D02*
X228465520Y43040694D01*
X228634574Y42908046D01*
X228733008Y42714957D01*
X228748750Y42590000D01*
D10*
X228748750Y42590000D02*
X228748750Y29590000D01*
D11*
X228748750Y29590000D02*
X228699444Y29373229D01*
X228566796Y29204175D01*
X228373707Y29105741D01*
X228248750Y29090000D01*
D10*
X228248750Y29090000D02*
X212867500Y29090000D01*
D11*
X212867500Y29090000D02*
X212650729Y29139305D01*
X212481675Y29271953D01*
X212383241Y29465042D01*
X212367500Y29590000D01*
D10*
X119498750Y29590000D02*
X119498750Y42590000D01*
D11*
X119498750Y42590000D02*
X119548055Y42806770D01*
X119680703Y42975824D01*
X119873792Y43074258D01*
X119998750Y43090000D01*
D10*
X119998750Y43090000D02*
X144905000Y43090000D01*
D11*
X144905000Y43090000D02*
X145121770Y43040694D01*
X145290824Y42908046D01*
X145389258Y42714957D01*
X145405000Y42590000D01*
D10*
X145405000Y42590000D02*
X145405000Y29590000D01*
D11*
X145405000Y29590000D02*
X145355694Y29373229D01*
X145223046Y29204175D01*
X145029957Y29105741D01*
X144905000Y29090000D01*
D10*
X144905000Y29090000D02*
X119998750Y29090000D01*
D11*
X119998750Y29090000D02*
X119781979Y29139305D01*
X119612925Y29271953D01*
X119514491Y29465042D01*
X119498750Y29590000D01*
D10*
X112355000Y105790000D02*
X112355000Y118790000D01*
D11*
X112355000Y118790000D02*
X112404305Y119006770D01*
X112536953Y119175824D01*
X112730042Y119274258D01*
X112855000Y119290000D01*
D10*
X112855000Y119290000D02*
X125855000Y119290000D01*
D11*
X125855000Y119290000D02*
X126071770Y119240694D01*
X126240824Y119108046D01*
X126339258Y118914957D01*
X126355000Y118790000D01*
D10*
X126355000Y118790000D02*
X126355000Y105790000D01*
D11*
X126355000Y105790000D02*
X126305694Y105573229D01*
X126173046Y105404175D01*
X125979957Y105305741D01*
X125855000Y105290000D01*
D10*
X125855000Y105290000D02*
X112855000Y105290000D01*
D11*
X112855000Y105290000D02*
X112638229Y105339305D01*
X112469175Y105471953D01*
X112370741Y105665042D01*
X112355000Y105790000D01*
D10*
X74255000Y105790000D02*
X74255000Y118790000D01*
D11*
X74255000Y118790000D02*
X74304305Y119006770D01*
X74436953Y119175824D01*
X74630042Y119274258D01*
X74755000Y119290000D01*
D10*
X74755000Y119290000D02*
X87755000Y119290000D01*
D11*
X87755000Y119290000D02*
X87971770Y119240694D01*
X88140824Y119108046D01*
X88239258Y118914957D01*
X88255000Y118790000D01*
D10*
X88255000Y118790000D02*
X88255000Y105790000D01*
D11*
X88255000Y105790000D02*
X88205694Y105573229D01*
X88073046Y105404175D01*
X87879957Y105305741D01*
X87755000Y105290000D01*
D10*
X87755000Y105290000D02*
X74755000Y105290000D01*
D11*
X74755000Y105290000D02*
X74538229Y105339305D01*
X74369175Y105471953D01*
X74270741Y105665042D01*
X74255000Y105790000D01*
D10*
X93305000Y105790000D02*
X93305000Y118790000D01*
D11*
X93305000Y118790000D02*
X93354305Y119006770D01*
X93486953Y119175824D01*
X93680042Y119274258D01*
X93805000Y119290000D01*
D10*
X93805000Y119290000D02*
X106805000Y119290000D01*
D11*
X106805000Y119290000D02*
X107021770Y119240694D01*
X107190824Y119108046D01*
X107289258Y118914957D01*
X107305000Y118790000D01*
D10*
X107305000Y118790000D02*
X107305000Y105790000D01*
D11*
X107305000Y105790000D02*
X107255694Y105573229D01*
X107123046Y105404175D01*
X106929957Y105305741D01*
X106805000Y105290000D01*
D10*
X106805000Y105290000D02*
X93805000Y105290000D01*
D11*
X93805000Y105290000D02*
X93588229Y105339305D01*
X93419175Y105471953D01*
X93320741Y105665042D01*
X93305000Y105790000D01*
D10*
X169505000Y105790000D02*
X169505000Y118790000D01*
D11*
X169505000Y118790000D02*
X169554305Y119006770D01*
X169686953Y119175824D01*
X169880042Y119274258D01*
X170005000Y119290000D01*
D10*
X170005000Y119290000D02*
X183005000Y119290000D01*
D11*
X183005000Y119290000D02*
X183221770Y119240694D01*
X183390824Y119108046D01*
X183489258Y118914957D01*
X183505000Y118790000D01*
D10*
X183505000Y118790000D02*
X183505000Y105790000D01*
D11*
X183505000Y105790000D02*
X183455694Y105573229D01*
X183323046Y105404175D01*
X183129957Y105305741D01*
X183005000Y105290000D01*
D10*
X183005000Y105290000D02*
X170005000Y105290000D01*
D11*
X170005000Y105290000D02*
X169788229Y105339305D01*
X169619175Y105471953D01*
X169520741Y105665042D01*
X169505000Y105790000D01*
D10*
X207605000Y105790000D02*
X207605000Y118790000D01*
D11*
X207605000Y118790000D02*
X207654305Y119006770D01*
X207786953Y119175824D01*
X207980042Y119274258D01*
X208105000Y119290000D01*
D10*
X208105000Y119290000D02*
X221105000Y119290000D01*
D11*
X221105000Y119290000D02*
X221321770Y119240694D01*
X221490824Y119108046D01*
X221589258Y118914957D01*
X221605000Y118790000D01*
D10*
X221605000Y118790000D02*
X221605000Y105790000D01*
D11*
X221605000Y105790000D02*
X221555694Y105573229D01*
X221423046Y105404175D01*
X221229957Y105305741D01*
X221105000Y105290000D01*
D10*
X221105000Y105290000D02*
X208105000Y105290000D01*
D11*
X208105000Y105290000D02*
X207888229Y105339305D01*
X207719175Y105471953D01*
X207620741Y105665042D01*
X207605000Y105790000D01*
D10*
X131405000Y105790000D02*
X131405000Y118790000D01*
D11*
X131405000Y118790000D02*
X131454305Y119006770D01*
X131586953Y119175824D01*
X131780042Y119274258D01*
X131905000Y119290000D01*
D10*
X131905000Y119290000D02*
X144905000Y119290000D01*
D11*
X144905000Y119290000D02*
X145121770Y119240694D01*
X145290824Y119108046D01*
X145389258Y118914957D01*
X145405000Y118790000D01*
D10*
X145405000Y118790000D02*
X145405000Y105790000D01*
D11*
X145405000Y105790000D02*
X145355694Y105573229D01*
X145223046Y105404175D01*
X145029957Y105305741D01*
X144905000Y105290000D01*
D10*
X144905000Y105290000D02*
X131905000Y105290000D01*
D11*
X131905000Y105290000D02*
X131688229Y105339305D01*
X131519175Y105471953D01*
X131420741Y105665042D01*
X131405000Y105790000D01*
D10*
X188555000Y105790000D02*
X188555000Y118790000D01*
D11*
X188555000Y118790000D02*
X188604305Y119006770D01*
X188736953Y119175824D01*
X188930042Y119274258D01*
X189055000Y119290000D01*
D10*
X189055000Y119290000D02*
X202055000Y119290000D01*
D11*
X202055000Y119290000D02*
X202271770Y119240694D01*
X202440824Y119108046D01*
X202539258Y118914957D01*
X202555000Y118790000D01*
D10*
X202555000Y118790000D02*
X202555000Y105790000D01*
D11*
X202555000Y105790000D02*
X202505694Y105573229D01*
X202373046Y105404175D01*
X202179957Y105305741D01*
X202055000Y105290000D01*
D10*
X202055000Y105290000D02*
X189055000Y105290000D01*
D11*
X189055000Y105290000D02*
X188838229Y105339305D01*
X188669175Y105471953D01*
X188570741Y105665042D01*
X188555000Y105790000D01*
D10*
X150455000Y105790000D02*
X150455000Y118790000D01*
D11*
X150455000Y118790000D02*
X150504305Y119006770D01*
X150636953Y119175824D01*
X150830042Y119274258D01*
X150955000Y119290000D01*
D10*
X150955000Y119290000D02*
X163955000Y119290000D01*
D11*
X163955000Y119290000D02*
X164171770Y119240694D01*
X164340824Y119108046D01*
X164439258Y118914957D01*
X164455000Y118790000D01*
D10*
X164455000Y118790000D02*
X164455000Y105790000D01*
D11*
X164455000Y105790000D02*
X164405694Y105573229D01*
X164273046Y105404175D01*
X164079957Y105305741D01*
X163955000Y105290000D01*
D10*
X163955000Y105290000D02*
X150955000Y105290000D01*
D11*
X150955000Y105290000D02*
X150738229Y105339305D01*
X150569175Y105471953D01*
X150470741Y105665042D01*
X150455000Y105790000D01*
D10*
X64730000Y86740000D02*
X64730000Y99740000D01*
D11*
X64730000Y99740000D02*
X64779305Y99956770D01*
X64911953Y100125824D01*
X65105042Y100224258D01*
X65230000Y100240000D01*
D10*
X65230000Y100240000D02*
X78230000Y100240000D01*
D11*
X78230000Y100240000D02*
X78446770Y100190694D01*
X78615824Y100058046D01*
X78714258Y99864957D01*
X78730000Y99740000D01*
D10*
X78730000Y99740000D02*
X78730000Y86740000D01*
D11*
X78730000Y86740000D02*
X78680694Y86523229D01*
X78548046Y86354175D01*
X78354957Y86255741D01*
X78230000Y86240000D01*
D10*
X78230000Y86240000D02*
X65230000Y86240000D01*
D11*
X65230000Y86240000D02*
X65013229Y86289305D01*
X64844175Y86421953D01*
X64745741Y86615042D01*
X64730000Y86740000D01*
D10*
X121880000Y86740000D02*
X121880000Y99740000D01*
D11*
X121880000Y99740000D02*
X121929305Y99956770D01*
X122061953Y100125824D01*
X122255042Y100224258D01*
X122380000Y100240000D01*
D10*
X122380000Y100240000D02*
X135380000Y100240000D01*
D11*
X135380000Y100240000D02*
X135596770Y100190694D01*
X135765824Y100058046D01*
X135864258Y99864957D01*
X135880000Y99740000D01*
D10*
X135880000Y99740000D02*
X135880000Y86740000D01*
D11*
X135880000Y86740000D02*
X135830694Y86523229D01*
X135698046Y86354175D01*
X135504957Y86255741D01*
X135380000Y86240000D01*
D10*
X135380000Y86240000D02*
X122380000Y86240000D01*
D11*
X122380000Y86240000D02*
X122163229Y86289305D01*
X121994175Y86421953D01*
X121895741Y86615042D01*
X121880000Y86740000D01*
D10*
X102830000Y86740000D02*
X102830000Y99740000D01*
D11*
X102830000Y99740000D02*
X102879305Y99956770D01*
X103011953Y100125824D01*
X103205042Y100224258D01*
X103330000Y100240000D01*
D10*
X103330000Y100240000D02*
X116330000Y100240000D01*
D11*
X116330000Y100240000D02*
X116546770Y100190694D01*
X116715824Y100058046D01*
X116814258Y99864957D01*
X116830000Y99740000D01*
D10*
X116830000Y99740000D02*
X116830000Y86740000D01*
D11*
X116830000Y86740000D02*
X116780694Y86523229D01*
X116648046Y86354175D01*
X116454957Y86255741D01*
X116330000Y86240000D01*
D10*
X116330000Y86240000D02*
X103330000Y86240000D01*
D11*
X103330000Y86240000D02*
X103113229Y86289305D01*
X102944175Y86421953D01*
X102845741Y86615042D01*
X102830000Y86740000D01*
D10*
X140930000Y86740000D02*
X140930000Y99740000D01*
D11*
X140930000Y99740000D02*
X140979305Y99956770D01*
X141111953Y100125824D01*
X141305042Y100224258D01*
X141430000Y100240000D01*
D10*
X141430000Y100240000D02*
X154430000Y100240000D01*
D11*
X154430000Y100240000D02*
X154646770Y100190694D01*
X154815824Y100058046D01*
X154914258Y99864957D01*
X154930000Y99740000D01*
D10*
X154930000Y99740000D02*
X154930000Y86740000D01*
D11*
X154930000Y86740000D02*
X154880694Y86523229D01*
X154748046Y86354175D01*
X154554957Y86255741D01*
X154430000Y86240000D01*
D10*
X154430000Y86240000D02*
X141430000Y86240000D01*
D11*
X141430000Y86240000D02*
X141213229Y86289305D01*
X141044175Y86421953D01*
X140945741Y86615042D01*
X140930000Y86740000D01*
D10*
X83780000Y86740000D02*
X83780000Y99740000D01*
D11*
X83780000Y99740000D02*
X83829305Y99956770D01*
X83961953Y100125824D01*
X84155042Y100224258D01*
X84280000Y100240000D01*
D10*
X84280000Y100240000D02*
X97280000Y100240000D01*
D11*
X97280000Y100240000D02*
X97496770Y100190694D01*
X97665824Y100058046D01*
X97764258Y99864957D01*
X97780000Y99740000D01*
D10*
X97780000Y99740000D02*
X97780000Y86740000D01*
D11*
X97780000Y86740000D02*
X97730694Y86523229D01*
X97598046Y86354175D01*
X97404957Y86255741D01*
X97280000Y86240000D01*
D10*
X97280000Y86240000D02*
X84280000Y86240000D01*
D11*
X84280000Y86240000D02*
X84063229Y86289305D01*
X83894175Y86421953D01*
X83795741Y86615042D01*
X83780000Y86740000D01*
D10*
X198080000Y86740000D02*
X198080000Y99740000D01*
D11*
X198080000Y99740000D02*
X198129305Y99956770D01*
X198261953Y100125824D01*
X198455042Y100224258D01*
X198580000Y100240000D01*
D10*
X198580000Y100240000D02*
X211580000Y100240000D01*
D11*
X211580000Y100240000D02*
X211796770Y100190694D01*
X211965824Y100058046D01*
X212064258Y99864957D01*
X212080000Y99740000D01*
D10*
X212080000Y99740000D02*
X212080000Y86740000D01*
D11*
X212080000Y86740000D02*
X212030694Y86523229D01*
X211898046Y86354175D01*
X211704957Y86255741D01*
X211580000Y86240000D01*
D10*
X211580000Y86240000D02*
X198580000Y86240000D01*
D11*
X198580000Y86240000D02*
X198363229Y86289305D01*
X198194175Y86421953D01*
X198095741Y86615042D01*
X198080000Y86740000D01*
D10*
X159980000Y86740000D02*
X159980000Y99740000D01*
D11*
X159980000Y99740000D02*
X160029305Y99956770D01*
X160161953Y100125824D01*
X160355042Y100224258D01*
X160480000Y100240000D01*
D10*
X160480000Y100240000D02*
X173480000Y100240000D01*
D11*
X173480000Y100240000D02*
X173696770Y100190694D01*
X173865824Y100058046D01*
X173964258Y99864957D01*
X173980000Y99740000D01*
D10*
X173980000Y99740000D02*
X173980000Y86740000D01*
D11*
X173980000Y86740000D02*
X173930694Y86523229D01*
X173798046Y86354175D01*
X173604957Y86255741D01*
X173480000Y86240000D01*
D10*
X173480000Y86240000D02*
X160480000Y86240000D01*
D11*
X160480000Y86240000D02*
X160263229Y86289305D01*
X160094175Y86421953D01*
X159995741Y86615042D01*
X159980000Y86740000D01*
D10*
X88542500Y67690000D02*
X88542500Y80690000D01*
D11*
X88542500Y80690000D02*
X88591805Y80906770D01*
X88724453Y81075824D01*
X88917542Y81174258D01*
X89042500Y81190000D01*
D10*
X89042500Y81190000D02*
X102042500Y81190000D01*
D11*
X102042500Y81190000D02*
X102259270Y81140694D01*
X102428324Y81008046D01*
X102526758Y80814957D01*
X102542500Y80690000D01*
D10*
X102542500Y80690000D02*
X102542500Y67690000D01*
D11*
X102542500Y67690000D02*
X102493194Y67473229D01*
X102360546Y67304175D01*
X102167457Y67205741D01*
X102042500Y67190000D01*
D10*
X102042500Y67190000D02*
X89042500Y67190000D01*
D11*
X89042500Y67190000D02*
X88825729Y67239305D01*
X88656675Y67371953D01*
X88558241Y67565042D01*
X88542500Y67690000D01*
D10*
X107592500Y67690000D02*
X107592500Y80690000D01*
D11*
X107592500Y80690000D02*
X107641805Y80906770D01*
X107774453Y81075824D01*
X107967542Y81174258D01*
X108092500Y81190000D01*
D10*
X108092500Y81190000D02*
X121092500Y81190000D01*
D11*
X121092500Y81190000D02*
X121309270Y81140694D01*
X121478324Y81008046D01*
X121576758Y80814957D01*
X121592500Y80690000D01*
D10*
X121592500Y80690000D02*
X121592500Y67690000D01*
D11*
X121592500Y67690000D02*
X121543194Y67473229D01*
X121410546Y67304175D01*
X121217457Y67205741D01*
X121092500Y67190000D01*
D10*
X121092500Y67190000D02*
X108092500Y67190000D01*
D11*
X108092500Y67190000D02*
X107875729Y67239305D01*
X107706675Y67371953D01*
X107608241Y67565042D01*
X107592500Y67690000D01*
D10*
X164742500Y67690000D02*
X164742500Y80690000D01*
D11*
X164742500Y80690000D02*
X164791805Y80906770D01*
X164924453Y81075824D01*
X165117542Y81174258D01*
X165242500Y81190000D01*
D10*
X165242500Y81190000D02*
X178242500Y81190000D01*
D11*
X178242500Y81190000D02*
X178459270Y81140694D01*
X178628324Y81008046D01*
X178726758Y80814957D01*
X178742500Y80690000D01*
D10*
X178742500Y80690000D02*
X178742500Y67690000D01*
D11*
X178742500Y67690000D02*
X178693194Y67473229D01*
X178560546Y67304175D01*
X178367457Y67205741D01*
X178242500Y67190000D01*
D10*
X178242500Y67190000D02*
X165242500Y67190000D01*
D11*
X165242500Y67190000D02*
X165025729Y67239305D01*
X164856675Y67371953D01*
X164758241Y67565042D01*
X164742500Y67690000D01*
D10*
X69492500Y67690000D02*
X69492500Y80690000D01*
D11*
X69492500Y80690000D02*
X69541805Y80906770D01*
X69674453Y81075824D01*
X69867542Y81174258D01*
X69992500Y81190000D01*
D10*
X69992500Y81190000D02*
X82992500Y81190000D01*
D11*
X82992500Y81190000D02*
X83209270Y81140694D01*
X83378324Y81008046D01*
X83476758Y80814957D01*
X83492500Y80690000D01*
D10*
X83492500Y80690000D02*
X83492500Y67690000D01*
D11*
X83492500Y67690000D02*
X83443194Y67473229D01*
X83310546Y67304175D01*
X83117457Y67205741D01*
X82992500Y67190000D01*
D10*
X82992500Y67190000D02*
X69992500Y67190000D01*
D11*
X69992500Y67190000D02*
X69775729Y67239305D01*
X69606675Y67371953D01*
X69508241Y67565042D01*
X69492500Y67690000D01*
D10*
X126642500Y67690000D02*
X126642500Y80690000D01*
D11*
X126642500Y80690000D02*
X126691805Y80906770D01*
X126824453Y81075824D01*
X127017542Y81174258D01*
X127142500Y81190000D01*
D10*
X127142500Y81190000D02*
X140142500Y81190000D01*
D11*
X140142500Y81190000D02*
X140359270Y81140694D01*
X140528324Y81008046D01*
X140626758Y80814957D01*
X140642500Y80690000D01*
D10*
X140642500Y80690000D02*
X140642500Y67690000D01*
D11*
X140642500Y67690000D02*
X140593194Y67473229D01*
X140460546Y67304175D01*
X140267457Y67205741D01*
X140142500Y67190000D01*
D10*
X140142500Y67190000D02*
X127142500Y67190000D01*
D11*
X127142500Y67190000D02*
X126925729Y67239305D01*
X126756675Y67371953D01*
X126658241Y67565042D01*
X126642500Y67690000D01*
D10*
X145692500Y67690000D02*
X145692500Y80690000D01*
D11*
X145692500Y80690000D02*
X145741805Y80906770D01*
X145874453Y81075824D01*
X146067542Y81174258D01*
X146192500Y81190000D01*
D10*
X146192500Y81190000D02*
X159192500Y81190000D01*
D11*
X159192500Y81190000D02*
X159409270Y81140694D01*
X159578324Y81008046D01*
X159676758Y80814957D01*
X159692500Y80690000D01*
D10*
X159692500Y80690000D02*
X159692500Y67690000D01*
D11*
X159692500Y67690000D02*
X159643194Y67473229D01*
X159510546Y67304175D01*
X159317457Y67205741D01*
X159192500Y67190000D01*
D10*
X159192500Y67190000D02*
X146192500Y67190000D01*
D11*
X146192500Y67190000D02*
X145975729Y67239305D01*
X145806675Y67371953D01*
X145708241Y67565042D01*
X145692500Y67690000D01*
D10*
X217130000Y86740000D02*
X217130000Y99740000D01*
D11*
X217130000Y99740000D02*
X217179305Y99956770D01*
X217311953Y100125824D01*
X217505042Y100224258D01*
X217630000Y100240000D01*
D10*
X217630000Y100240000D02*
X230630000Y100240000D01*
D11*
X230630000Y100240000D02*
X230846770Y100190694D01*
X231015824Y100058046D01*
X231114258Y99864957D01*
X231130000Y99740000D01*
D10*
X231130000Y99740000D02*
X231130000Y86740000D01*
D11*
X231130000Y86740000D02*
X231080694Y86523229D01*
X230948046Y86354175D01*
X230754957Y86255741D01*
X230630000Y86240000D01*
D10*
X230630000Y86240000D02*
X217630000Y86240000D01*
D11*
X217630000Y86240000D02*
X217413229Y86289305D01*
X217244175Y86421953D01*
X217145741Y86615042D01*
X217130000Y86740000D01*
D10*
X179030000Y86740000D02*
X179030000Y99740000D01*
D11*
X179030000Y99740000D02*
X179079305Y99956770D01*
X179211953Y100125824D01*
X179405042Y100224258D01*
X179530000Y100240000D01*
D10*
X179530000Y100240000D02*
X192530000Y100240000D01*
D11*
X192530000Y100240000D02*
X192746770Y100190694D01*
X192915824Y100058046D01*
X193014258Y99864957D01*
X193030000Y99740000D01*
D10*
X193030000Y99740000D02*
X193030000Y86740000D01*
D11*
X193030000Y86740000D02*
X192980694Y86523229D01*
X192848046Y86354175D01*
X192654957Y86255741D01*
X192530000Y86240000D01*
D10*
X192530000Y86240000D02*
X179530000Y86240000D01*
D11*
X179530000Y86240000D02*
X179313229Y86289305D01*
X179144175Y86421953D01*
X179045741Y86615042D01*
X179030000Y86740000D01*
D10*
X183792500Y67690000D02*
X183792500Y80690000D01*
D11*
X183792500Y80690000D02*
X183841805Y80906770D01*
X183974453Y81075824D01*
X184167542Y81174258D01*
X184292500Y81190000D01*
D10*
X184292500Y81190000D02*
X197292500Y81190000D01*
D11*
X197292500Y81190000D02*
X197509270Y81140694D01*
X197678324Y81008046D01*
X197776758Y80814957D01*
X197792500Y80690000D01*
D10*
X197792500Y80690000D02*
X197792500Y67690000D01*
D11*
X197792500Y67690000D02*
X197743194Y67473229D01*
X197610546Y67304175D01*
X197417457Y67205741D01*
X197292500Y67190000D01*
D10*
X197292500Y67190000D02*
X184292500Y67190000D01*
D11*
X184292500Y67190000D02*
X184075729Y67239305D01*
X183906675Y67371953D01*
X183808241Y67565042D01*
X183792500Y67690000D01*
D10*
X79017500Y48640000D02*
X79017500Y61640000D01*
D11*
X79017500Y61640000D02*
X79066805Y61856770D01*
X79199453Y62025824D01*
X79392542Y62124258D01*
X79517500Y62140000D01*
D10*
X79517500Y62140000D02*
X92517500Y62140000D01*
D11*
X92517500Y62140000D02*
X92734270Y62090694D01*
X92903324Y61958046D01*
X93001758Y61764957D01*
X93017500Y61640000D01*
D10*
X93017500Y61640000D02*
X93017500Y48640000D01*
D11*
X93017500Y48640000D02*
X92968194Y48423229D01*
X92835546Y48254175D01*
X92642457Y48155741D01*
X92517500Y48140000D01*
D10*
X92517500Y48140000D02*
X79517500Y48140000D01*
D11*
X79517500Y48140000D02*
X79300729Y48189305D01*
X79131675Y48321953D01*
X79033241Y48515042D01*
X79017500Y48640000D01*
D10*
X202842500Y67690000D02*
X202842500Y80690000D01*
D11*
X202842500Y80690000D02*
X202891805Y80906770D01*
X203024453Y81075824D01*
X203217542Y81174258D01*
X203342500Y81190000D01*
D10*
X203342500Y81190000D02*
X216342500Y81190000D01*
D11*
X216342500Y81190000D02*
X216559270Y81140694D01*
X216728324Y81008046D01*
X216826758Y80814957D01*
X216842500Y80690000D01*
D10*
X216842500Y80690000D02*
X216842500Y67690000D01*
D11*
X216842500Y67690000D02*
X216793194Y67473229D01*
X216660546Y67304175D01*
X216467457Y67205741D01*
X216342500Y67190000D01*
D10*
X216342500Y67190000D02*
X203342500Y67190000D01*
D11*
X203342500Y67190000D02*
X203125729Y67239305D01*
X202956675Y67371953D01*
X202858241Y67565042D01*
X202842500Y67690000D01*
D10*
X221892500Y67690000D02*
X221892500Y80690000D01*
D11*
X221892500Y80690000D02*
X221941805Y80906770D01*
X222074453Y81075824D01*
X222267542Y81174258D01*
X222392500Y81190000D01*
D10*
X222392500Y81190000D02*
X235392500Y81190000D01*
D11*
X235392500Y81190000D02*
X235609270Y81140694D01*
X235778324Y81008046D01*
X235876758Y80814957D01*
X235892500Y80690000D01*
D10*
X235892500Y80690000D02*
X235892500Y67690000D01*
D11*
X235892500Y67690000D02*
X235843194Y67473229D01*
X235710546Y67304175D01*
X235517457Y67205741D01*
X235392500Y67190000D01*
D10*
X235392500Y67190000D02*
X222392500Y67190000D01*
D11*
X222392500Y67190000D02*
X222175729Y67239305D01*
X222006675Y67371953D01*
X221908241Y67565042D01*
X221892500Y67690000D01*
D10*
X59967500Y48640000D02*
X59967500Y61640000D01*
D11*
X59967500Y61640000D02*
X60016805Y61856770D01*
X60149453Y62025824D01*
X60342542Y62124258D01*
X60467500Y62140000D01*
D10*
X60467500Y62140000D02*
X73467500Y62140000D01*
D11*
X73467500Y62140000D02*
X73684270Y62090694D01*
X73853324Y61958046D01*
X73951758Y61764957D01*
X73967500Y61640000D01*
D10*
X73967500Y61640000D02*
X73967500Y48640000D01*
D11*
X73967500Y48640000D02*
X73918194Y48423229D01*
X73785546Y48254175D01*
X73592457Y48155741D01*
X73467500Y48140000D01*
D10*
X73467500Y48140000D02*
X60467500Y48140000D01*
D11*
X60467500Y48140000D02*
X60250729Y48189305D01*
X60081675Y48321953D01*
X59983241Y48515042D01*
X59967500Y48640000D01*
D10*
X98067500Y48640000D02*
X98067500Y61640000D01*
D11*
X98067500Y61640000D02*
X98116805Y61856770D01*
X98249453Y62025824D01*
X98442542Y62124258D01*
X98567500Y62140000D01*
D10*
X98567500Y62140000D02*
X111567500Y62140000D01*
D11*
X111567500Y62140000D02*
X111784270Y62090694D01*
X111953324Y61958046D01*
X112051758Y61764957D01*
X112067500Y61640000D01*
D10*
X112067500Y61640000D02*
X112067500Y48640000D01*
D11*
X112067500Y48640000D02*
X112018194Y48423229D01*
X111885546Y48254175D01*
X111692457Y48155741D01*
X111567500Y48140000D01*
D10*
X111567500Y48140000D02*
X98567500Y48140000D01*
D11*
X98567500Y48140000D02*
X98350729Y48189305D01*
X98181675Y48321953D01*
X98083241Y48515042D01*
X98067500Y48640000D01*
D10*
X117117500Y48640000D02*
X117117500Y61640000D01*
D11*
X117117500Y61640000D02*
X117166805Y61856770D01*
X117299453Y62025824D01*
X117492542Y62124258D01*
X117617500Y62140000D01*
D10*
X117617500Y62140000D02*
X130617500Y62140000D01*
D11*
X130617500Y62140000D02*
X130834270Y62090694D01*
X131003324Y61958046D01*
X131101758Y61764957D01*
X131117500Y61640000D01*
D10*
X131117500Y61640000D02*
X131117500Y48640000D01*
D11*
X131117500Y48640000D02*
X131068194Y48423229D01*
X130935546Y48254175D01*
X130742457Y48155741D01*
X130617500Y48140000D01*
D10*
X130617500Y48140000D02*
X117617500Y48140000D01*
D11*
X117617500Y48140000D02*
X117400729Y48189305D01*
X117231675Y48321953D01*
X117133241Y48515042D01*
X117117500Y48640000D01*
D10*
X155217500Y48640000D02*
X155217500Y61640000D01*
D11*
X155217500Y61640000D02*
X155266805Y61856770D01*
X155399453Y62025824D01*
X155592542Y62124258D01*
X155717500Y62140000D01*
D10*
X155717500Y62140000D02*
X168717500Y62140000D01*
D11*
X168717500Y62140000D02*
X168934270Y62090694D01*
X169103324Y61958046D01*
X169201758Y61764957D01*
X169217500Y61640000D01*
D10*
X169217500Y61640000D02*
X169217500Y48640000D01*
D11*
X169217500Y48640000D02*
X169168194Y48423229D01*
X169035546Y48254175D01*
X168842457Y48155741D01*
X168717500Y48140000D01*
D10*
X168717500Y48140000D02*
X155717500Y48140000D01*
D11*
X155717500Y48140000D02*
X155500729Y48189305D01*
X155331675Y48321953D01*
X155233241Y48515042D01*
X155217500Y48640000D01*
D10*
X136167500Y48640000D02*
X136167500Y61640000D01*
D11*
X136167500Y61640000D02*
X136216805Y61856770D01*
X136349453Y62025824D01*
X136542542Y62124258D01*
X136667500Y62140000D01*
D10*
X136667500Y62140000D02*
X149667500Y62140000D01*
D11*
X149667500Y62140000D02*
X149884270Y62090694D01*
X150053324Y61958046D01*
X150151758Y61764957D01*
X150167500Y61640000D01*
D10*
X150167500Y61640000D02*
X150167500Y48640000D01*
D11*
X150167500Y48640000D02*
X150118194Y48423229D01*
X149985546Y48254175D01*
X149792457Y48155741D01*
X149667500Y48140000D01*
D10*
X149667500Y48140000D02*
X136667500Y48140000D01*
D11*
X136667500Y48140000D02*
X136450729Y48189305D01*
X136281675Y48321953D01*
X136183241Y48515042D01*
X136167500Y48640000D01*
D10*
X174267500Y48640000D02*
X174267500Y61640000D01*
D11*
X174267500Y61640000D02*
X174316805Y61856770D01*
X174449453Y62025824D01*
X174642542Y62124258D01*
X174767500Y62140000D01*
D10*
X174767500Y62140000D02*
X187767500Y62140000D01*
D11*
X187767500Y62140000D02*
X187984270Y62090694D01*
X188153324Y61958046D01*
X188251758Y61764957D01*
X188267500Y61640000D01*
D10*
X188267500Y61640000D02*
X188267500Y48640000D01*
D11*
X188267500Y48640000D02*
X188218194Y48423229D01*
X188085546Y48254175D01*
X187892457Y48155741D01*
X187767500Y48140000D01*
D10*
X187767500Y48140000D02*
X174767500Y48140000D01*
D11*
X174767500Y48140000D02*
X174550729Y48189305D01*
X174381675Y48321953D01*
X174283241Y48515042D01*
X174267500Y48640000D01*
D10*
X212367500Y48640000D02*
X212367500Y61640000D01*
D11*
X212367500Y61640000D02*
X212416805Y61856770D01*
X212549453Y62025824D01*
X212742542Y62124258D01*
X212867500Y62140000D01*
D10*
X212867500Y62140000D02*
X225867500Y62140000D01*
D11*
X225867500Y62140000D02*
X226084270Y62090694D01*
X226253324Y61958046D01*
X226351758Y61764957D01*
X226367500Y61640000D01*
D10*
X226367500Y61640000D02*
X226367500Y48640000D01*
D11*
X226367500Y48640000D02*
X226318194Y48423229D01*
X226185546Y48254175D01*
X225992457Y48155741D01*
X225867500Y48140000D01*
D10*
X225867500Y48140000D02*
X212867500Y48140000D01*
D11*
X212867500Y48140000D02*
X212650729Y48189305D01*
X212481675Y48321953D01*
X212383241Y48515042D01*
X212367500Y48640000D01*
D10*
X193317500Y48640000D02*
X193317500Y61640000D01*
D11*
X193317500Y61640000D02*
X193366805Y61856770D01*
X193499453Y62025824D01*
X193692542Y62124258D01*
X193817500Y62140000D01*
D10*
X193817500Y62140000D02*
X206817500Y62140000D01*
D11*
X206817500Y62140000D02*
X207034270Y62090694D01*
X207203324Y61958046D01*
X207301758Y61764957D01*
X207317500Y61640000D01*
D10*
X207317500Y61640000D02*
X207317500Y48640000D01*
D11*
X207317500Y48640000D02*
X207268194Y48423229D01*
X207135546Y48254175D01*
X206942457Y48155741D01*
X206817500Y48140000D01*
D10*
X206817500Y48140000D02*
X193817500Y48140000D01*
D11*
X193817500Y48140000D02*
X193600729Y48189305D01*
X193431675Y48321953D01*
X193333241Y48515042D01*
X193317500Y48640000D01*
D10*
X111411517Y125640000D02*
G75*
G03*
X107911549Y129140000I-3500006J-6D01*
G01*
X107911549Y129140000D02*
X103841357Y129140000D01*
X103841357Y129139948D02*
G75*
G03*
X100342164Y125715166I-46J-3499954D01*
G01*
X96842971Y122290334D02*
G75*
G03*
X100342164Y125715166I0J3500000D01*
G01*
X96842971Y122290332D02*
X16709738Y122290332D01*
X13210545Y125715166D02*
G75*
G03*
X16709738Y122290332I3499193J75166D01*
G01*
X13210545Y125715166D02*
G75*
G03*
X9711352Y129140000I-3499192J-75165D01*
G01*
X9711352Y129140000D02*
X5641160Y129140000D01*
X5641160Y129140000D02*
G75*
G03*
X2141160Y125640000I-1J-3499999D01*
G01*
X2141160Y125640000D02*
X2141160Y125340000D01*
X-1358840Y121840000D02*
G75*
G03*
X2141160Y125340000I1J3499999D01*
G01*
X-1358840Y121840000D02*
X-28070000Y121840000D01*
X-28070000Y121840000D02*
G75*
G03*
X-33070000Y116840000I0J-5000000D01*
G01*
X-33070000Y116840000D02*
X-33070000Y31540000D01*
X-33070000Y31540000D02*
G75*
G03*
X-28070000Y26540000I5000000J0D01*
G01*
X-28070000Y26540000D02*
X-3626789Y26540000D01*
X-126789Y23040000D02*
G75*
G03*
X-3626789Y26540000I-3499999J1D01*
G01*
X-126789Y23040000D02*
X-126789Y22740000D01*
X-126789Y22740000D02*
G75*
G03*
X3373211Y19240000I3499999J-1D01*
G01*
X3373211Y19240000D02*
X11725376Y19240000D01*
X11725376Y19240000D02*
G75*
G03*
X15225321Y22720606I-1J3500000D01*
G01*
X15225322Y22720606D02*
X15225322Y23040000D01*
X18725322Y26540000D02*
G75*
G03*
X15225322Y23040000I-1J-3499999D01*
G01*
X18725322Y26540000D02*
X148328613Y26540000D01*
X151828617Y23040000D02*
G75*
G03*
X148328613Y26540000I-3500006J-6D01*
G01*
X151828613Y23040000D02*
X151828613Y22664766D01*
X151828599Y22664766D02*
G75*
G03*
X155324647Y19240001I3497912J73928D01*
G01*
X155324647Y19240001D02*
X159553907Y19240000D01*
X159553907Y19239998D02*
G75*
G03*
X163053907Y22740000I4J3499996D01*
G01*
X163053907Y22740000D02*
X163053907Y23040000D01*
X166553907Y26539998D02*
G75*
G03*
X163053907Y23040000I4J-3500004D01*
G01*
X166553907Y26540000D02*
X298190610Y26540000D01*
X301689813Y23115000D02*
G75*
G03*
X298190610Y26540000I-3499202J-75006D01*
G01*
X301689806Y23115000D02*
X301699451Y22665000D01*
X301699421Y22664999D02*
G75*
G03*
X305198647Y19240000I3499190J74995D01*
G01*
X305198647Y19240000D02*
X309427907Y19240000D01*
X309427907Y19239998D02*
G75*
G03*
X312927907Y22740000I4J3499996D01*
G01*
X312927907Y22740000D02*
X312927907Y23040000D01*
X316427907Y26539998D02*
G75*
G03*
X312927907Y23040000I4J-3500004D01*
G01*
X316427907Y26540000D02*
X342980000Y26540000D01*
X342980000Y26540005D02*
G75*
G03*
X347980000Y31540000I11J4999989D01*
G01*
X347980000Y31540000D02*
X347980000Y116840000D01*
X347980017Y116840000D02*
G75*
G03*
X342980000Y121840000I-5000006J-6D01*
G01*
X342980000Y121840000D02*
X316395856Y121840000D01*
X312895817Y125340000D02*
G75*
G03*
X316395856Y121840000I3499994J-6D01*
G01*
X312895856Y125340000D02*
X312895856Y125640000D01*
X312895817Y125640000D02*
G75*
G03*
X309395856Y129140000I-3500006J-6D01*
G01*
X309395856Y129140000D02*
X305325664Y129140000D01*
X305325664Y129140040D02*
G75*
G03*
X301826469Y125715000I47J-3500046D01*
G01*
X301826468Y125715000D02*
X301826468Y125340000D01*
X298326468Y121840037D02*
G75*
G03*
X301826468Y125340000I43J3499957D01*
G01*
X298326468Y121840000D02*
X218194856Y121840000D01*
X214694817Y125340000D02*
G75*
G03*
X218194856Y121840000I3499994J-6D01*
G01*
X214694856Y125340000D02*
X214694856Y125715000D01*
X214694813Y125714999D02*
G75*
G03*
X211195660Y129140000I-3499202J-75005D01*
G01*
X211195660Y129140000D02*
X207125467Y129140000D01*
X207125467Y129140038D02*
G75*
G03*
X203625467Y125640000I44J-3500044D01*
G01*
X203625467Y125640000D02*
X203625467Y124640000D01*
X200125467Y121140038D02*
G75*
G03*
X203625467Y124640000I44J3499956D01*
G01*
X200125467Y121140000D02*
X114911549Y121140000D01*
X111411517Y124640000D02*
G75*
G03*
X114911549Y121140000I3499994J-6D01*
G01*
X111411549Y124640000D02*
X111411549Y125640000D01*
X278755020Y61640003D02*
G75*
G03*
X278255003Y62140003I-500009J-9D01*
G01*
X278755003Y61640003D02*
X278755003Y48639997D01*
X278255003Y48140002D02*
G75*
G03*
X278755003Y48639997I8J499992D01*
G01*
X278255003Y48139997D02*
X271611003Y48139997D01*
D11*
X271124717Y48139997D02*
X271337467Y48139997D01*
X271550217Y48139997D01*
X271611003Y48139997D01*
X270886784Y48095555D02*
X271085773Y48139302D01*
X271124717Y48139997D01*
X270700470Y47972326D02*
X270867424Y48087123D01*
X270886784Y48095555D01*
X270570913Y47782767D02*
X270680308Y47951582D01*
X270700470Y47972326D01*
X270536309Y47671996D02*
X270570913Y47782767D01*
X270524239Y47552997D02*
X270536309Y47671996D01*
D10*
X270524239Y47552997D02*
X270524239Y46639981D01*
D11*
X270024248Y46139989D02*
X270241015Y46189293D01*
X270410065Y46321939D01*
X270508497Y46515025D01*
X270524239Y46639981D01*
D10*
X270024248Y46139989D02*
X264024270Y46139989D01*
D11*
X263524258Y46640002D02*
X263573564Y46423225D01*
X263706215Y46254167D01*
X263899309Y46155730D01*
X264024270Y46139989D01*
D10*
X263524258Y46640002D02*
X263524258Y47552997D01*
D11*
X262937258Y48139997D02*
X263139088Y48104377D01*
X263331943Y47987504D01*
X263466373Y47807485D01*
X263521227Y47613014D01*
X263524258Y47552997D01*
D10*
X262937258Y48139997D02*
X247235242Y48139997D01*
D11*
X246648242Y47552997D02*
X246683861Y47754827D01*
X246800734Y47947682D01*
X246980753Y48082112D01*
X247175224Y48136966D01*
X247235242Y48139997D01*
D10*
X246648242Y47552997D02*
X246648242Y46639981D01*
D11*
X246148251Y46139989D02*
X246365017Y46189293D01*
X246534068Y46321939D01*
X246632500Y46515025D01*
X246648242Y46639981D01*
D10*
X246148251Y46139989D02*
X240148273Y46139989D01*
D11*
X239648260Y46640002D02*
X239697566Y46423225D01*
X239830218Y46254167D01*
X240023311Y46155730D01*
X240148273Y46139989D01*
D10*
X239648260Y46640002D02*
X239648260Y47552997D01*
D11*
X239061260Y48139997D02*
X239263090Y48104377D01*
X239455945Y47987504D01*
X239590375Y47807485D01*
X239645229Y47613014D01*
X239648260Y47552997D01*
X238561246Y48640009D02*
X238610552Y48423233D01*
X238743204Y48254175D01*
X238936298Y48155738D01*
X239061259Y48139997D01*
D10*
X238561246Y48640009D02*
X238561246Y61640003D01*
X239061246Y62139959D02*
G75*
G03*
X238561246Y61640003I-35J-499965D01*
G01*
X239061246Y62140003D02*
X278255003Y62140003D01*
M02*
