0
SECTION
2
HEADER
9
$INSUNITS
70
4
9
$ACADVER
1
AC1014
9
$HANDSEED
5
FFFF
0
ENDSEC
0
SECTION
2
TABLES
0
TABLE
2
VPORT
5
8
100
AcDbSymbolTable
0
ENDTAB
0
TABLE
2
LTYPE
5
5
100
AcDbSymbolTable
0
LTYPE
5
14
100
AcDbSymbolTableRecord
100
AcDbLinetypeTableRecord
2
BYBLOCK
70
0
0
LTYPE
5
15
100
AcDbSymbolTableRecord
100
AcDbLinetypeTableRecord
2
BYLAYER
70
0
0
ENDTAB
0
TABLE
2
LAYER
5
2
100
AcDbSymbolTable
70
2
0
LAYER
5
50
100
AcDbSymbolTableRecord
100
AcDbLayerTableRecord
2
0
70
0
6
CONTINUOUS
0
ENDTAB
0
TABLE
2
STYLE
5
3
100
AcDbSymbolTable
70
1
0
STYLE
5
11
100
AcDbSymbolTableRecord
100
AcDbTextStyleTableRecord
2
STANDARD
70
0
0
ENDTAB
0
TABLE
2
VIEW
5
6
100
AcDbSymbolTable
70
0
0
ENDTAB
0
TABLE
2
UCS
5
7
100
AcDbSymbolTable
70
0
0
ENDTAB
0
TABLE
2
APPID
5
9
100
AcDbSymbolTable
70
2
0
APPID
5
12
100
AcDbSymbolTableRecord
100
AcDbRegAppTableRecord
2
ACAD
70
0
0
ENDTAB
0
TABLE
2
DIMSTYLE
5
A
100
AcDbSymbolTable
70
1
0
ENDTAB
0
TABLE
2
BLOCK_RECORD
5
1
100
AcDbSymbolTable
70
1
0
BLOCK_RECORD
5
1F
100
AcDbSymbolTableRecord
100
AcDbBlockTableRecord
2
*MODEL_SPACE
0
BLOCK_RECORD
5
1B
100
AcDbSymbolTableRecord
100
AcDbBlockTableRecord
2
*PAPER_SPACE
0
ENDTAB
0
ENDSEC
0
SECTION
2
BLOCKS
0
BLOCK
5
20
100
AcDbEntity
100
AcDbBlockBegin
2
*MODEL_SPACE
0
ENDBLK
5
21
100
AcDbEntity
100
AcDbBlockEnd
0
BLOCK
5
1C
100
AcDbEntity
100
AcDbBlockBegin
2
*PAPER_SPACE
0
ENDBLK
5
1D
100
AcDbEntity
100
AcDbBlockEnd
0
ENDSEC
0
SECTION
2
ENTITIES
0
LWPOLYLINE
5
100
100
AcDbEntity
8
0
100
AcDbPolyline
90
8
70
1
43
0.0
10
-253.37550879213634
20
184.28057988286724
10
-253.37550912735401
20
172.28057988286722
42
-0.4142135623730846
10
-254.37550915528888
20
171.28057991080215
10
-266.3755091552888
20
171.28058024602001
42
-0.41421356237307422
10
-267.37550912735401
20
172.28058027395468
10
-267.3755087921362
20
184.2805802739548
42
-0.41421356237303258
10
-266.3755087642013
20
185.28058024601987
10
-254.37550876420141
20
185.28057991080209
42
-0.4142135623730846
0
LWPOLYLINE
5
101
100
AcDbEntity
8
0
100
AcDbPolyline
90
8
70
1
43
0.0
10
-97.213010751763846
20
114.13057552049615
42
0.41421356237307422
10
-96.213010723829001
20
115.13057549256138
10
-96.213010388611195
20
127.13057549256133
42
0.41421356237310025
10
-97.213010360676364
20
128.13057552049614
10
-109.21301036067621
20
128.13057585571394
42
0.4142135623730846
10
-110.21301038861105
20
127.13057588364876
10
-110.21301072382889
20
115.1305758836488
42
0.4142135623730846
10
-109.21301075176372
20
114.13057585571401
0
LWPOLYLINE
5
102
100
AcDbEntity
8
0
100
AcDbPolyline
90
8
70
1
43
0.0
10
-242.56301075176381
20
114.13057958082192
42
-0.41421356237311585
10
-243.56301072382891
20
115.13057960875692
10
-243.56301038861108
20
127.13057960875686
42
-0.4142135623730846
10
-242.56301036067626
20
128.130579580822
10
-230.56301036067623
20
128.13057924560417
42
-0.414213562373069
10
-229.56301038861113
20
127.13057921766932
10
-229.56301072382885
20
115.13057921766932
42
-0.41421356237310025
10
-230.56301075176373
20
114.13057924560421
0
LWPOLYLINE
5
103
100
AcDbEntity
8
0
100
AcDbPolyline
90
8
70
1
43
0.0
10
-216.27550915528894
20
171.28057884648544
42
0.41421356237313667
10
-215.2755091273541
20
172.28057881855065
10
-215.27550879213629
20
184.28057881855065
42
0.41421356237309503
10
-216.27550876420148
20
185.28057884648547
10
-228.27550876420145
20
185.28057918170339
42
0.4142135623730846
10
-229.27550879213626
20
184.28057920963818
10
-229.2755091273541
20
172.28057920963818
42
0.41421356237311585
10
-228.27550915528889
20
171.28057918170333
0
LWPOLYLINE
5
104
100
AcDbEntity
8
0
100
AcDbPolyline
90
8
70
1
43
0.0
10
-129.26301038861112
20
127.13057641580711
10
-129.26301072382893
20
115.13057641580714
42
0.41421356237309503
10
-128.26301075176372
20
114.1305763878723
10
-116.26301075176373
20
114.13057605265445
42
0.41421356237308982
10
-115.26301072382887
20
115.1305760247196
10
-115.26301038861106
20
127.13057602471956
42
0.41421356237307422
10
-116.26301036067623
20
128.13057605265445
10
-128.26301036067628
20
128.13057638787231
42
0.41421356237310025
0
LWPOLYLINE
5
105
100
AcDbEntity
8
0
100
AcDbPolyline
90
8
70
1
43
0.0
10
-129.26301138902676
20
91.318076415807283
42
0.41421356237312101
10
-128.26301141696158
20
90.31807638787248
10
-116.2630114169616
20
90.318076052654689
42
0.4142135623730846
10
-115.26301138902681
20
91.318076024719858
10
-115.26301105380897
20
103.31807602471966
42
0.41421356237310025
10
-116.26301102587412
20
104.31807605265448
10
-128.26301102587411
20
104.31807638787228
42
0.41421356237310025
10
-129.26301105380895
20
103.31807641580704
0
LWPOLYLINE
5
106
100
AcDbEntity
8
0
100
AcDbPolyline
90
8
70
1
43
0.0
10
-237.80050968744717
20
152.23057944778242
42
-0.41421356237307944
10
-238.80050965951239
20
153.23057947571732
10
-238.80050932429447
20
165.23057947571741
42
-0.4142135623730222
10
-237.80050929635968
20
166.23057944778239
10
-225.80050929635971
20
166.23057911256467
42
-0.41421356237309503
10
-224.8005093242945
20
165.23057908462985
10
-224.80050965951236
20
153.23057908462974
42
-0.41421356237310542
10
-225.80050968744715
20
152.23057911256461
0
LWPOLYLINE
5
107
100
AcDbEntity
8
0
100
AcDbPolyline
90
8
70
1
43
0.0
10
-91.163010723829117
20
115.13057535149052
42
0.4142135623730846
10
-90.163010751763878
20
114.13057532355566
10
-78.163010751763807
20
114.13057498833786
42
0.41421356237308721
10
-77.16301072382899
20
115.13057496040304
10
-77.163010388611156
20
127.13057496040304
42
0.41421356237308204
10
-78.163010360676324
20
128.13057498833783
10
-90.163010360676438
20
128.13057532355577
42
0.41421356237311063
10
-91.163010388611241
20
127.13057535149055
0
LWPOLYLINE
5
108
100
AcDbEntity
8
0
100
AcDbPolyline
90
8
70
1
43
0.0
10
-134.31301038861108
20
127.1305765568779
10
-134.31301072382891
20
115.13057655687795
42
-0.41421356237310542
10
-135.31301075176373
20
114.13057658481272
10
-147.3130107517637
20
114.13057692003052
42
-0.41421356237310025
10
-148.31301072382888
20
115.13057694796538
10
-148.31301038861102
20
127.13057694796535
42
-0.41421356237310025
10
-147.31301036067629
20
128.13057692003051
10
-135.31301036067623
20
128.13057658481279
42
-0.41421356237310542
0
LWPOLYLINE
5
109
100
AcDbEntity
8
0
100
AcDbPolyline
90
8
70
1
43
0.0
10
-121.02550915528882
20
171.28057618569414
42
0.41421356237307944
10
-120.02550912735407
20
172.28057615775924
10
-120.02550879213624
20
184.28057615775916
42
0.41421356237313145
10
-121.02550876420142
20
185.28057618569406
10
-133.02550876420131
20
185.28057652091175
42
0.41421356237306384
10
-134.02550879213612
20
184.28057654884671
10
-134.02550912735404
20
172.28057654884662
42
0.41421356237311585
10
-133.0255091552888
20
171.28057652091175
0
LWPOLYLINE
5
110
100
AcDbEntity
8
0
100
AcDbPolyline
90
8
70
1
43
0.0
10
-281.66301072382896
20
115.13058067307338
10
-281.66301038861104
20
127.13058067307344
42
-0.41421356237304302
10
-280.66301036067625
20
128.13058064513856
10
-268.66301036067631
20
128.13058030992079
42
-0.41421356237310542
10
-267.66301038861104
20
127.13058028198594
10
-267.66301072382885
20
115.13058028198593
42
-0.41421356237305862
10
-268.66301075176375
20
114.13058030992077
10
-280.66301075176364
20
114.13058064513861
42
-0.41421356237311063
0
LWPOLYLINE
5
111
100
AcDbEntity
8
0
100
AcDbPolyline
90
8
70
1
43
0.0
10
-99.688009828518048
20
147.18057558963477
42
0.4142135623730846
10
-100.68800985645288
20
146.18057561756962
10
-100.68801019167061
20
134.18057561756962
42
0.41421356237310542
10
-99.688010219605502
20
133.18057558963491
10
-87.688010219605616
20
133.18057525441699
42
0.41421356237307944
10
-86.688010191670827
20
134.18057522648218
10
-86.688009856452936
20
146.18057522648218
42
0.41421356237313145
10
-87.688009828518148
20
147.18057525441705
0
LWPOLYLINE
5
112
100
AcDbEntity
8
0
100
AcDbPolyline
90
8
70
1
43
0.0
10
-119.73801019167057
20
134.18057614972793
42
0.41421356237310542
10
-118.73801021960537
20
133.18057612179311
10
-106.73801021960544
20
133.18057578657528
42
0.41421356237307944
10
-105.73801019167065
20
134.18057575864049
10
-105.73800985645279
20
146.18057575864046
42
0.41421356237310025
10
-106.73800982851795
20
147.18057578657528
10
-118.73800982851792
20
147.18057612179311
42
0.41421356237310542
10
-119.73800985645278
20
146.18057614972793
0
LWPOLYLINE
5
113
100
AcDbEntity
8
0
100
AcDbPolyline
90
8
70
1
43
0.0
10
-110.21301105380893
20
103.31807588364876
42
-0.41421356237310025
10
-109.2130110258741
20
104.31807585571391
10
-97.213011025874209
20
104.31807552049614
42
-0.41421356237307944
10
-96.213011053809069
20
103.31807549256128
10
-96.213011389026875
20
91.318075492561519
42
-0.41421356237310542
10
-97.213011416961706
20
90.318075520496308
10
-109.21301141696155
20
90.31807585571417
42
-0.41421356237310542
10
-110.21301138902679
20
91.318075883649001
0
LWPOLYLINE
5
114
100
AcDbEntity
8
0
100
AcDbPolyline
90
8
70
1
43
0.0
10
-219.75050932429451
20
165.23057894355901
42
-0.41421356237309503
10
-218.75050929635975
20
166.23057891562422
10
-206.7505092963597
20
166.23057858040642
42
-0.41421356237307422
10
-205.75050932429448
20
165.23057855247151
10
-205.75050965951243
20
153.23057855247151
42
-0.41421356237313145
10
-206.75050968744722
20
152.2305785804063
10
-218.75050968744731
20
152.23057891562411
42
-0.414213562373069
10
-219.7505096595124
20
153.23057894355895
0
LWPOLYLINE
5
115
100
AcDbEntity
8
0
100
AcDbPolyline
90
8
70
1
43
0.0
10
-67.638010191670773
20
134.18057469432392
10
-67.638009856452953
20
146.18057469432389
42
0.41421356237310542
10
-68.63800982851815
20
147.18057472225871
10
-80.638009828518193
20
147.18057505747655
42
0.41421356237307422
10
-81.638009856453024
20
146.18057508541142
10
-81.63801019167083
20
134.18057508541131
42
0.41421356237314183
10
-80.638010219605604
20
133.18057505747652
10
-68.638010219605604
20
133.18057472225871
42
0.41421356237307683
0
LWPOLYLINE
5
116
100
AcDbEntity
8
0
100
AcDbPolyline
90
8
70
1
43
0.0
10
-259.13801021960541
20
133.18058004384167
42
0.41421356237309503
10
-258.13801019167056
20
134.18058001590686
10
-258.13800985645287
20
146.18058001590674
42
0.41421356237307422
10
-259.13800982851797
20
147.18058004384153
10
-271.13800982851797
20
147.18058037905959
42
0.41421356237307422
10
-272.13800985645287
20
146.1805804069943
10
-272.13801019167056
20
134.1805804069943
42
0.41421356237308982
10
-271.13801021960546
20
133.18058037905953
0
LWPOLYLINE
5
117
100
AcDbEntity
8
0
100
AcDbPolyline
90
8
70
1
43
0.0
10
-247.32550876420132
20
185.28057971386161
42
0.41421356237309503
10
-248.32550879213616
20
184.28057974179643
10
-248.32550912735402
20
172.28057974179646
42
0.41421356237309503
10
-247.3255091552889
20
171.28057971386164
10
-235.32550915528898
20
171.28057937864381
42
0.41421356237306384
10
-234.3255091273542
20
172.28057935070893
10
-234.32550879213619
20
184.28057935070893
42
0.41421356237306384
10
-235.32550876420132
20
185.28057937864372
0
LWPOLYLINE
5
118
100
AcDbEntity
8
0
100
AcDbPolyline
90
8
70
1
43
0.0
10
-77.163011389026863
20
91.318074960403223
10
-77.163011053809157
20
103.31807496040301
42
0.41421356237310025
10
-78.163011025874198
20
104.31807498833774
10
-90.163011025874312
20
104.31807532355572
42
0.41421356237310542
10
-91.163011053809143
20
103.31807535149046
10
-91.163011389026977
20
91.31807535149072
42
0.41421356237315748
10
-90.163011416961638
20
90.318075323555846
10
-78.163011416961666
20
90.318074988338054
42
0.41421356237307944
0
LWPOLYLINE
5
119
100
AcDbEntity
8
0
100
AcDbPolyline
90
8
70
1
43
0.0
10
-180.6505092963597
20
166.23057785130757
10
-168.6505092963597
20
166.23057751608971
42
-0.41421356237309503
10
-167.65050932429446
20
165.23057748815501
10
-167.65050965951232
20
153.23057748815495
42
-0.41421356237311063
10
-168.65050968744723
20
152.23057751608974
10
-180.6505096874472
20
152.2305778513076
42
-0.41421356237308982
10
-181.65050965951241
20
153.23057787924239
10
-181.65050932429443
20
165.23057787924242
42
-0.4142135623730846
0
LWPOLYLINE
5
120
100
AcDbEntity
8
0
100
AcDbPolyline
90
8
70
1
43
0.0
10
-214.98800985645275
20
146.18057881051936
10
-214.98801019167061
20
134.18057881051936
42
0.41421356237311063
10
-213.98801021960548
20
133.18057878258458
10
-201.98801021960537
20
133.18057844736674
42
0.41421356237311585
10
-200.98801019167055
20
134.18057841943192
10
-200.98800985645281
20
146.18057841943192
42
0.41421356237308982
10
-201.98800982851799
20
147.18057844736671
10
-213.98800982851805
20
147.18057878258463
42
0.41421356237307944
0
LWPOLYLINE
5
121
100
AcDbEntity
8
0
100
AcDbPolyline
90
8
70
1
43
0.0
10
-281.66301138902679
20
91.318080673073609
10
-281.66301105380899
20
103.31808067307342
42
-0.41421356237308982
10
-280.66301102587408
20
104.31808064513859
10
-268.66301102587414
20
104.31808030992082
42
-0.41421356237310025
10
-267.66301105380899
20
103.31808028198594
10
-267.66301138902685
20
91.318080281986127
42
-0.41421356237305862
10
-268.66301141696158
20
90.318080309921015
10
-280.66301141696152
20
90.318080645138821
42
-0.41421356237310542
0
LWPOLYLINE
5
122
100
AcDbEntity
8
0
100
AcDbPolyline
90
8
70
1
43
0.0
10
-221.00675865106538
20
189.33057897865211
42
0.41421356237311585
10
-220.00675867900014
20
188.33057895071732
10
-215.0067586790002
20
188.33057881104315
42
0.41421356237312623
10
-214.00675865106538
20
189.33057878310842
10
-214.00675828791279
20
202.33057878310842
42
0.41421356237307422
10
-215.00675825997791
20
203.33057881104324
10
-220.00675825997789
20
203.33057895071735
42
0.41421356237310542
10
-221.00675828791282
20
202.33057897865223
0
LWPOLYLINE
5
123
100
AcDbEntity
8
0
100
AcDbPolyline
90
8
70
1
43
0.0
10
-157.83800985645286
20
146.18057721404449
10
-157.83801019167058
20
134.18057721404446
42
0.41421356237310025
10
-156.83801021960539
20
133.18057718610964
10
-144.83801021960539
20
133.18057685089184
42
0.41421356237310025
10
-143.83801019167061
20
134.18057682295705
10
-143.83800985645274
20
146.18057682295705
42
0.41421356237309503
10
-144.83800982851798
20
147.18057685089184
10
-156.83800982851801
20
147.18057718610973
42
0.41421356237308982
0
LWPOLYLINE
5
124
100
AcDbEntity
8
0
100
AcDbPolyline
90
8
70
1
43
0.0
10
-148.31301138902677
20
91.318076947965579
10
-148.31301105380891
20
103.31807694796538
42
-0.4142135623730846
10
-147.31301102587412
20
104.31807692003055
10
-135.31301102587409
20
104.31807658481277
42
-0.41421356237310025
10
-134.31301105380891
20
103.31807655687795
10
-134.3130113890268
20
91.318076556878154
42
-0.4142135623730846
10
-135.31301141696159
20
90.318076584812999
10
-147.31301141696156
20
90.318076920030734
42
-0.41421356237304818
0
LWPOLYLINE
5
125
100
AcDbEntity
8
0
100
AcDbPolyline
90
8
70
1
43
0.0
10
-315.00051019167063
20
134.18058160435041
10
-315.00050985645282
20
146.18058160435041
42
-0.41421356237307944
10
-314.00050982851798
20
147.18058157641565
10
-302.00050982851798
20
147.18058124119776
42
-0.41421356237310542
10
-301.00050985645282
20
146.180581213263
10
-301.00051019167051
20
134.18058121326294
42
-0.41421356237312101
10
-302.00051021960547
20
133.18058124119784
10
-314.00051021960553
20
133.18058157641556
42
-0.414213562373069
0
LWPOLYLINE
5
126
100
AcDbEntity
8
0
100
AcDbPolyline
90
8
70
1
43
0.0
10
-240.08801021960551
20
133.18057951168331
10
-252.08801021960551
20
133.18057984690111
42
-0.41421356237310025
10
-253.08801019167063
20
134.18057987483598
10
-253.08800985645291
20
146.18057987483596
42
-0.41421356237311063
10
-252.08800982851795
20
147.18057984690114
10
-240.08800982851795
20
147.18057951168331
42
-0.41421356237308982
10
-239.08800985645274
20
146.18057948374849
10
-239.08801019167061
20
134.18057948374849
42
-0.41421356237311063
0
LWPOLYLINE
5
127
100
AcDbEntity
8
0
100
AcDbPolyline
90
8
70
1
43
0.0
10
-94.925509155289021
20
171.2805754565953
10
-82.925509155288935
20
171.28057512137741
42
0.4142135623730846
10
-81.925509127354132
20
172.28057509344265
10
-81.925508792136384
20
184.28057509344254
42
0.41421356237310025
10
-82.925508764201453
20
185.28057512137732
10
-94.925508764201567
20
185.28057545659522
42
0.41421356237307422
10
-95.925508792136384
20
184.28057548453
10
-95.925509127354204
20
172.28057548453009
42
0.41421356237307944
0
LWPOLYLINE
5
128
100
AcDbEntity
8
0
100
AcDbPolyline
90
8
70
1
43
0.0
10
-175.88801102587411
20
104.31807771826806
10
-163.88801102587419
20
104.31807738305024
42
-0.41421356237309503
10
-162.88801105380898
20
103.31807735511534
10
-162.88801138902676
20
91.318077355115591
42
-0.41421356237313667
10
-163.88801141696163
20
90.318077383050422
10
-175.88801141696152
20
90.318077718268199
42
-0.41421356237311063
10
-176.88801138902676
20
91.318077746203045
10
-176.8880110538089
20
103.3180777462028
42
-0.41421356237312101
0
LWPOLYLINE
5
129
100
AcDbEntity
8
0
100
AcDbPolyline
90
8
70
1
43
0.0
10
-300.71301105380888
20
103.31808120523172
42
-0.41421356237308982
10
-299.71301102587415
20
104.31808117729688
10
-287.71301102587415
20
104.31808084207904
42
-0.41421356237309503
10
-286.71301105380894
20
103.31808081414422
10
-286.71301138902686
20
91.318080814144423
42
-0.41421356237306384
10
-287.71301141696165
20
90.31808084207924
10
-299.71301141696165
20
90.318081177297131
42
-0.414213562373069
10
-300.71301138902686
20
91.318081205231877
0
LWPOLYLINE
5
130
100
AcDbEntity
8
0
100
AcDbPolyline
90
8
70
1
43
0.0
10
-318.7630114169616
20
90.318081709455242
10
-306.76301141696166
20
90.318081374237536
42
0.41421356237310542
10
-305.76301138902681
20
91.318081346302677
10
-305.76301105380895
20
103.31808134630251
42
0.41421356237310542
10
-306.76301102587416
20
104.31808137423737
10
-318.76301102587428
20
104.31808170945523
42
0.41421356237309503
10
-319.76301105380901
20
103.31808173739006
10
-319.76301138902681
20
91.318081737390159
42
0.41421356237306384
0
LWPOLYLINE
5
131
100
AcDbEntity
8
0
100
AcDbPolyline
90
8
70
1
43
0.0
10
-276.90050965951235
20
153.23058054003388
42
0.41421356237310025
10
-275.90050968744708
20
152.23058051209904
10
-263.90050968744725
20
152.23058017688115
42
0.41421356237309503
10
-262.90050965951241
20
153.2305801489463
10
-262.9005093242946
20
165.2305801489463
42
0.41421356237311585
10
-263.90050929635981
20
166.2305801768812
10
-275.9005092963597
20
166.23058051209907
42
0.41421356237307422
10
-276.9005093242946
20
165.23058054003388
0
LWPOLYLINE
5
132
100
AcDbEntity
8
0
100
AcDbPolyline
90
8
70
1
43
0.0
10
-57.82550859519587
20
191.33057442021362
42
0.41421356237310025
10
-56.825508623130645
20
190.33057439227863
10
-42.444258623130636
20
190.3305739905411
42
0.41421356237308721
10
-41.444258595195791
20
191.33057396260639
10
-41.444258259978
20
203.33057396260617
42
0.41421356237312623
10
-42.444258232043168
20
204.33057399054107
10
-56.82550823204317
20
204.33057439227869
42
0.41421356237311324
10
-57.825508259978037
20
203.33057442021342
0
LINE
5
133
100
AcDbEntity
8
0
100
AcDbLine
10
-371.39319414182762
20
157.02238118752561
30
-2.7532607305147397e-08
11
-371.39319414182745
21
156.26323323846259
31
1.7763568394002505e-14
0
LINE
5
134
100
AcDbEntity
8
0
100
AcDbLine
10
-371.38322610973029
20
162.12664614938402
30
-2.8427598053326619e-08
11
-371.38322610973029
21
158.83035206122611
31
8.8817841970012523e-15
0
ARC
5
135
100
AcDbEntity
8
0
100
AcDbCircle
10
-63.819283598154541
20
98.218544655273774
30
-1.7221823966906413e-08
40
0.24971901816893904
210
0
220
0
230
1
100
AcDbArc
50
180
51
270
0
LINE
5
136
100
AcDbEntity
8
0
100
AcDbLine
10
-374.93922248979368
20
162.38635606210923
30
-2.8473134960904645e-08
11
-371.63294512789918
21
162.38635606210923
31
8.8817841970012523e-15
0
LINE
5
137
100
AcDbEntity
8
0
100
AcDbLine
10
-371.63294512789918
20
156.00352332573729
30
-2.7353967979593111e-08
11
-374.93922248979368
21
156.00352332573729
31
8.8817841970012523e-15
0
LINE
5
138
100
AcDbEntity
8
0
100
AcDbLine
10
-62.800430004025252
20
98.987679231234154
30
-1.7356693859937877e-08
11
-62.800430004025252
21
98.218544655273803
31
8.8817841970012523e-15
0
ARC
5
139
100
AcDbEntity
8
0
100
AcDbCircle
10
-373.63067662683198
20
157.53161581557669
30
-2.7621895881679851e-08
40
0.25970776936974205
210
0
220
0
230
1
100
AcDbArc
50
179.95713361244719
51
267.79579056558401
0
LINE
5
140
100
AcDbEntity
8
0
100
AcDbLine
10
-64.069002616323473
20
98.218544655273774
30
-1.7221823966906413e-08
11
-64.069002616323459
21
98.987679231234139
31
8.8817841970012523e-15
0
ARC
5
141
100
AcDbEntity
8
0
100
AcDbCircle
10
-371.6429338064151
20
162.12684045222713
30
-2.8427633580463411e-08
40
0.25970776936967105
210
-1.367965499659429e-13
220
1.0234567140559746e-16
230
1
100
AcDbArc
50
-0.042866387569805396
51
87.79579056562082
0
ARC
5
142
100
AcDbEntity
8
0
100
AcDbCircle
10
-374.92923381127764
20
156.26303893561942
30
-2.7399469360034345e-08
40
0.2597077693697421
210
0
220
0
230
1
100
AcDbArc
50
179.95713361243017
51
267.79579056562153
0
ELLIPSE
5
143
100
AcDbEntity
8
0
100
AcDbEllipse
10
-371.65290076983058
20
156.26246327596925
30
-2.7399362778623981e-08
11
0.25970662800311584
21
0.00076996249333660715
31
0.0
40
0.99999999999999956
41
4.7863388962925635
42
6.2831853071793589
0
ARC
5
144
100
AcDbEntity
8
0
100
AcDbCircle
10
-372.39208005136339
20
158.83015775838302
30
-2.7849580419569971e-08
40
0.25970776936967094
210
0
220
0
230
1
100
AcDbArc
50
179.95713361245572
51
267.79579056562108
0
LINE
5
145
100
AcDbEntity
8
0
100
AcDbLine
10
-372.65178774804832
20
158.83035206122605
30
-2.7849580419569971e-08
11
-372.65178774804809
21
160.82810420657762
31
8.8817841970012523e-15
0
ELLIPSE
5
146
100
AcDbEntity
8
0
100
AcDbEllipse
10
-63.050149022194191
20
98.218544655273803
30
-1.7221823966906413e-08
11
1.7763543869791434e-14
21
-0.24971901816893921
31
0.0
40
0.99999999999999956
41
6.2831853071794725
42
7.8539815803847244
0
LINE
5
147
100
AcDbEntity
8
0
100
AcDbLine
10
-371.63294512789918
20
158.57064214850098
30
-2.7804079039128737e-08
11
-372.4020687298792
21
158.57064214850089
31
1.7763568394002505e-14
0
LINE
5
148
100
AcDbEntity
8
0
100
AcDbLine
10
-373.64066530534808
20
157.27210020569453
30
-2.7621895881679851e-08
11
-371.64291315999657
21
157.27210020569456
31
1.7763568394002505e-14
0
ELLIPSE
5
149
100
AcDbEntity
8
0
100
AcDbEllipse
10
-374.92923381127764
20
162.12684045222713
30
-2.8427633580463411e-08
11
-0.00019430284311283688
21
0.2597076966848989
31
0.0
40
1
41
0.037722552432253816
42
1.5707963267946692
0
ARC
5
150
100
AcDbEntity
8
0
100
AcDbCircle
10
-372.90150676621494
20
160.82810420657776
30
4.2082303442282878e-05
40
0.24971901816897618
210
-1.1292661089245376e-07
220
-1.2205581022554107e-32
230
0.99999999999999378
100
AcDbArc
50
0
51
90.000000000013046
0
LINE
5
151
100
AcDbEntity
8
0
100
AcDbLine
10
-63.050149022194191
20
97.968825637104857
30
-1.7221823966906413e-08
11
-63.819283598154541
21
97.968825637104842
31
1.7763568394002505e-14
0
LINE
5
152
100
AcDbEntity
8
0
100
AcDbLine
10
-63.819283598154541
20
99.237398249403114
30
-1.7400481056029093e-08
11
-63.050149022194191
21
99.237398249403114
31
-1.7400481056029093e-08
0
ELLIPSE
5
153
100
AcDbEntity
8
0
100
AcDbEllipse
10
-63.819283598154541
20
98.987679231234139
30
-1.7356693859937877e-08
11
-1.7763543869791434e-14
21
0.24971901816893921
31
0.0
40
0.99999999999999956
41
6.2831853071795578
42
7.8539816339743691
0
ARC
5
154
100
AcDbEntity
8
0
100
AcDbCircle
10
-371.64291315999657
20
157.02238118752561
30
-2.7532607305147397e-08
40
0.24971901816897457
210
0
220
0
230
1
100
AcDbArc
50
0
51
90
0
LINE
5
155
100
AcDbEntity
8
0
100
AcDbLine
10
-372.90150676621738
20
161.07782322474668
30
-2.8199913515459855e-08
11
-373.64066530534808
21
161.07782322474662
31
8.8817841970012523e-15
0
ARC
5
156
100
AcDbEntity
8
0
100
AcDbCircle
10
-63.050149022194184
20
98.987679231234139
30
-1.7356693859937877e-08
40
0.24971901816893904
210
0
220
-0
230
1
100
AcDbArc
50
0
51
90.000000000001634
0
LINE
5
157
100
AcDbEntity
8
0
100
AcDbLine
10
-370.16459608173477
20
161.30756045380306
30
-2.8283979602861109e-08
11
-370.16459608173466
21
162.06670840286614
31
8.8817841970012523e-15
0
LINE
5
158
100
AcDbEntity
8
0
100
AcDbLine
10
-341.17719294338565
20
156.01351422029359
30
-2.735571769107992e-08
11
-345.74206391150079
21
156.01351422029362
31
8.8817841970012523e-15
0
LINE
5
159
100
AcDbEntity
8
0
100
AcDbLine
10
-370.16459608173477
20
156.26323323846259
30
-2.7399496005386936e-08
11
-370.16459608173454
21
159.52955464295167
31
1.7763568394002505e-14
0
ELLIPSE
5
160
100
AcDbEntity
8
0
100
AcDbEllipse
10
-373.64066530534808
20
160.82810420657768
30
-2.8199913515436492e-08
11
2.7074590200970021e-20
21
0.24971901816890374
31
0.0
40
1
41
4.5474735088651582e-13
42
1.5707962732053087
0
ELLIPSE
5
161
100
AcDbEntity
8
0
100
AcDbEllipse
10
-371.64293380641516
20
158.83015775838302
30
-2.7849580419569971e-08
11
0.00019430284311283688
21
-0.2597076966848989
31
0.0
40
1
41
0.037722552431563604
42
1.5707963267946692
0
LINE
5
162
100
AcDbEntity
8
0
100
AcDbLine
10
-351.08611796352898
20
158.8203611666699
30
-2.7847866235219957e-08
11
-351.08611796352898
21
162.11665525482775
31
1.7763568394002505e-14
0
ELLIPSE
5
163
100
AcDbEntity
8
0
100
AcDbEllipse
10
-341.93634851326834
20
162.086682571159
30
-2.8420590325595185e-08
11
2.7074590200977719e-20
21
0.24971901816897471
31
0.0
40
1
41
2.2737367544320621e-13
42
1.5707963267946692
0
ELLIPSE
5
164
100
AcDbEntity
8
0
100
AcDbEllipse
10
-350.82660235342308
20
162.106666582125
30
-2.8424089748568804e-08
11
0.0099886727027254131
21
0.25951561010579394
31
0.0
40
1
41
0.037693187058976375
42
1.5707963267946692
0
LINE
5
165
100
AcDbEntity
8
0
100
AcDbLine
10
-361.53429218184237
20
161.04785054107779
30
-2.823843381349889e-08
11
-369.9048785481898
21
161.04785054107779
31
1.7763568394002505e-14
0
LINE
5
166
100
AcDbEntity
8
0
100
AcDbLine
10
-368.89603444341685
20
158.2609853838141
30
-2.7749784692332472e-08
11
-368.89603444341685
21
157.53181011841974
31
8.8817841970012523e-15
0
ELLIPSE
5
167
100
AcDbEntity
8
0
100
AcDbEllipse
10
-361.53428241765823
20
160.03898143030679
30
-2.8061544199431413e-08
11
2.1435391062141101e-06
21
-0.25970776936077311
31
0.0
40
1
41
6.283139456710165
42
7.8539816339741417
0
LINE
5
168
100
AcDbEntity
8
0
100
AcDbLine
10
-350.82640042998412
20
162.36637427299661
30
-2.8424089748568804e-08
11
-346.26152946186903
21
162.36637427299672
31
8.8817841970012523e-15
0
ELLIPSE
5
169
100
AcDbEntity
8
0
100
AcDbEllipse
10
-369.90508047162882
20
159.51956597024898
30
-2.7970470384275359e-08
11
0.0099886727027254131
21
0.25951561010579394
31
0.0
40
1
41
0.037693187058757738
42
1.5707963267947829
0
LINE
5
170
100
AcDbEntity
8
0
100
AcDbLine
10
-344.73321980672773
20
160.08893042580749
30
-2.8070301638649653e-08
11
-344.73321980672773
21
162.086682571159
31
-2.8420590325595185e-08
0
ELLIPSE
5
171
100
AcDbEntity
8
0
100
AcDbEllipse
10
-343.72260107169677
20
158.82035274996667
30
-2.7847866235219957e-08
11
-0.029964266965620854
21
-0.25797338656573771
31
0.0
40
1
41
0.10868377254692339
42
1.5707963267948397
0
LINE
5
172
100
AcDbEntity
8
0
100
AcDbLine
10
-343.46462768513106
20
162.086682571159
30
-2.8420590325595185e-08
11
-343.46462768513106
21
158.7903884830011
31
8.8817841970012523e-15
0
ELLIPSE
5
173
100
AcDbEntity
8
0
100
AcDbEllipse
10
-345.74206391150079
20
157.01239029296937
30
-2.7530857593660585e-08
11
2.7074590200977719e-20
21
0.24971901816897471
31
0.0
40
1
41
6.2831853071791315
42
7.8539816339743691
0
LINE
5
174
100
AcDbEntity
8
0
100
AcDbLine
10
-361.27457464829746
20
160.03898357384583
30
-2.8061544199431413e-08
11
-361.2745746482974
21
160.79813152290893
31
8.8817841970012523e-15
0
ELLIPSE
5
175
100
AcDbEntity
8
0
100
AcDbEllipse
10
-368.63632667405597
20
157.53180797488071
30
-2.7621931408816642e-08
11
9.7641840568485316e-06
21
-0.25970776918612165
31
0.0
40
1
41
4.7123430763253396
42
6.2831853071789041
0
ARC
5
176
100
AcDbEntity
8
0
100
AcDbCircle
10
-63.819283531472351
20
100.75569018470303
30
-1.7666694773765812e-08
40
0.24971901816893904
210
0
220
0
230
1
100
AcDbArc
50
180
51
270
0
LINE
5
177
100
AcDbEntity
8
0
100
AcDbLine
10
-60.263284769902789
20
101.51483622856121
30
-1.779980607352627e-08
11
-60.263284769902782
21
100.75569018470304
31
8.8817841970012523e-15
0
ELLIPSE
5
178
100
AcDbEntity
8
0
100
AcDbEllipse
10
-361.53409025840318
20
160.78814285020616
30
-2.8192905787705058e-08
11
-0.25970769087166473
21
-0.00020192343903602261
31
0.0
40
0.99999999999999956
41
3.1792857870584172
42
4.7123889803851444
0
LINE
5
179
100
AcDbEntity
8
0
100
AcDbLine
10
-344.48350078855873
20
162.33640158932798
30
-2.8464377521686401e-08
11
-343.72434521867598
21
162.33640158932786
31
8.8817841970012523e-15
0
ELLIPSE
5
180
100
AcDbEntity
8
0
100
AcDbEllipse
10
-60.5130037880717
20
100.75569018470303
30
-1.7666694773765812e-08
11
-2.7074590200973879e-20
21
-0.24971901816893921
31
0.0
40
1
41
6.2831853071795294
42
7.8539815803847244
0
ELLIPSE
5
181
100
AcDbEntity
8
0
100
AcDbEllipse
10
-342.44577530079812
20
157.52181708032447
30
-2.7620181697329826e-08
11
2.1435391062140915e-06
21
-0.25970776936084417
31
0.0
40
1
41
6.2831394567103924
42
7.8539816339744828
0
LINE
5
182
100
AcDbEntity
8
0
100
AcDbLine
10
-345.74206391150062
20
157.26210931113835
30
-2.7530857593660585e-08
11
-342.44578506498209
21
157.26210931113832
31
-2.7620181697329826e-08
0
ELLIPSE
5
183
100
AcDbEntity
8
0
100
AcDbEllipse
10
-369.90488831237371
20
162.0667105464052
30
-2.8417090902621567e-08
11
-2.1435390706869504e-06
21
0.25970776936084417
31
0.0
40
1
41
6.2831394567099377
42
7.8539816339744828
0
LINE
5
184
100
AcDbEntity
8
0
100
AcDbLine
10
-349.81752584193254
20
160.8480783748706
30
-2.8203412938410111e-08
11
-349.81752584193254
21
160.08893042580749
31
8.8817841970012523e-15
0
LINE
5
185
100
AcDbEntity
8
0
100
AcDbLine
10
-360.2657305435244
20
156.00352332573738
30
-2.7353967979593111e-08
11
-369.90487854818986
21
156.00352332573738
31
8.8817841970012523e-15
0
LINE
5
186
100
AcDbEntity
8
0
100
AcDbLine
10
-360.00601300997948
20
162.06670840286608
30
-2.8417090902621567e-08
11
-360.00601300997948
21
158.77041431470826
31
8.8817841970012523e-15
0
LINE
5
187
100
AcDbEntity
8
0
100
AcDbLine
10
-345.99178292966963
20
156.26323323846259
30
-2.7399496005386936e-08
11
-345.99178292966974
21
157.01239029296937
31
8.8817841970012523e-15
0
LINE
5
188
100
AcDbEntity
8
0
100
AcDbLine
10
-60.513003788071714
20
100.50597116653408
30
-1.7666694773765812e-08
11
-63.819283531472351
21
100.50597116653408
31
8.8817841970012523e-15
0
LINE
5
189
100
AcDbEntity
8
0
100
AcDbLine
10
-346.26152946186892
20
161.09779739303949
30
-2.8247200134501327e-08
11
-349.55780830838756
21
161.09779739303943
31
8.8817841970012523e-15
0
ELLIPSE
5
190
100
AcDbEntity
8
0
100
AcDbEllipse
10
-369.90488831237371
20
161.30755831026397
30
-2.8283979602861109e-08
11
9.7641840568485316e-06
21
-0.25970776918612165
31
0.0
40
1
41
4.7123430763253396
42
6.2831853071793589
0
ELLIPSE
5
191
100
AcDbEntity
8
0
100
AcDbEllipse
10
-349.55781807257165
20
160.0889282822684
30
-2.8070301638649653e-08
11
9.7641839857942529e-06
21
-0.25970776918612165
31
0.0
40
1
41
4.712343076325908
42
6.2831853071791315
0
ELLIPSE
5
192
100
AcDbEntity
8
0
100
AcDbEllipse
10
-346.261519697685
20
161.35750516222558
30
-2.8292728160295159e-08
11
2.1435390706869504e-06
21
-0.25970776936084417
31
0.0
40
1
41
6.2831394567103924
42
7.8539815803847812
0
ELLIPSE
5
193
100
AcDbEntity
8
0
100
AcDbEllipse
10
-360.26572077934031
20
158.7704121711692
30
-2.783910879600171e-08
11
2.1435390884505201e-06
21
-0.25970776936084417
31
0.0
40
1
41
6.283139456710165
42
7.8539816339743691
0
ELLIPSE
5
194
100
AcDbEntity
8
0
100
AcDbEllipse
10
-60.522992468006045
20
101.51502862625395
30
-1.7799841600663058e-08
11
0.25951560982750999
21
-0.009988679934327397
31
0.0
40
0.99999999999999933
41
0.037729893646007331
42
1.570796326794925
0
LINE
5
195
100
AcDbEntity
8
0
100
AcDbLine
10
-369.90487854818957
20
162.32641831559133
30
-2.8417090902621567e-08
11
-360.26573054352446
21
162.32641831559133
31
8.8817841970012523e-15
0
LINE
5
196
100
AcDbEntity
8
0
100
AcDbLine
10
-368.63631690987205
20
157.27210020569458
30
-2.7621931408816642e-08
11
-360.2657305435244
21
157.27210020569461
31
-2.7576385619454413e-08
0
LINE
5
197
100
AcDbEntity
8
0
100
AcDbLine
10
-349.55780830838768
20
159.8292205130823
30
-2.8070301638649653e-08
11
-344.99293734027242
21
159.8292205130823
31
1.7763568394002505e-14
0
ARC
5
198
100
AcDbEntity
8
0
100
AcDbCircle
10
-341.18639144715422
20
162.08668385263962
30
-3.3016434581656753e-08
40
0.24971901816892483
210
1.4004001029276783e-11
220
1.1236599861910326e-12
230
1
100
AcDbArc
50
4.5874989406543127
51
90.183555771639334
0
LINE
5
199
100
AcDbEntity
8
0
100
AcDbLine
10
-373.89038432351691
20
160.82810420657762
30
-2.8199913515436492e-08
11
-373.89038432351697
21
157.53181011841974
31
-2.7621895881679851e-08
0
LINE
5
200
100
AcDbEntity
8
0
100
AcDbLine
10
-360.2657305435244
20
158.51070440198305
30
-2.783910879600171e-08
11
-368.63631690987182
21
158.51070440198302
31
1.7763568394002505e-14
0
LINE
5
201
100
AcDbEntity
8
0
100
AcDbLine
10
-360.00601300997943
20
157.02238118752561
30
-2.7532598423363204e-08
11
-360.00601300997948
21
156.26323323846259
31
1.7763568394002505e-14
0
ELLIPSE
5
202
100
AcDbEntity
8
0
100
AcDbEllipse
10
-360.26572077934031
20
156.2632310949235
30
-2.7399496005386936e-08
11
2.1435390884505201e-06
21
-0.25970776936084417
31
0.0
40
1
41
6.283139456710165
42
7.8539816339743691
0
LINE
5
203
100
AcDbEntity
8
0
100
AcDbLine
10
-342.18606753143723
20
157.52181922386359
30
-2.7620181697329826e-08
11
-342.18606753143729
21
162.086682571159
31
8.8817841970012523e-15
0
ELLIPSE
5
204
100
AcDbEntity
8
0
100
AcDbEllipse
10
-346.26132753842995
20
162.10666658212503
30
-2.8424089748568804e-08
11
-0.25970769087166473
21
-0.00020192343903602261
31
0.0
40
0.99999999999999956
41
3.1792857870584172
42
4.7123889803853718
0
LINE
5
205
100
AcDbEntity
8
0
100
AcDbLine
10
-340.93747244059261
20
162.10665673945184
30
-2.8424098630353001e-08
11
-340.9374724405925
21
156.26323323846253
31
1.7763568394002505e-14
0
ELLIPSE
5
206
100
AcDbEntity
8
0
100
AcDbEllipse
10
-349.55801023182664
20
160.83808970216782
30
-2.8201663226923301e-08
11
0.0099886727027254131
21
0.25951561010579394
31
0.0
40
1
41
0.037693187058071814
42
1.5707963267947829
0
LINE
5
207
100
AcDbEntity
8
0
100
AcDbLine
10
-346.00181192832423
20
162.11665525482772
30
-2.8425839460055613e-08
11
-346.00181192832406
21
161.35750730576461
31
1.7763568394002505e-14
0
ARC
5
208
100
AcDbEntity
8
0
100
AcDbCircle
10
-345.74206391150062
20
156.26323323846259
30
-2.7399496005386936e-08
40
0.24971901816897457
210
0
220
0
230
1
100
AcDbArc
50
180
51
269.99999999996089
0
ELLIPSE
5
209
100
AcDbEntity
8
0
100
AcDbEllipse
10
-341.187191378477
20
156.26303299580161
30
-2.7399469360034345e-08
11
0.0002002426609948317
21
-0.24971893788446678
31
0.0
40
1
41
0.039247574438928061
42
1.5707963267946692
0
ELLIPSE
5
210
100
AcDbEntity
8
0
100
AcDbEllipse
10
-360.26552862008521
20
157.01239251482289
30
-2.7530848711876388e-08
11
-0.00020192343903602253
21
0.25970769087168233
31
0.0
40
1
41
4.7500821674432245
42
6.2831853071798136
0
LINE
5
211
100
AcDbEntity
8
0
100
AcDbLine
10
-343.72440618523331
20
158.5606512539446
30
-2.7847866235219957e-08
11
-350.82640042998406
21
158.56065125394463
31
8.8817841970012523e-15
0
LINE
5
212
100
AcDbEntity
8
0
100
AcDbLine
10
-369.90487854818986
20
159.77927366112058
30
-2.7970470384275359e-08
11
-361.53429218184237
21
159.77927366112058
31
8.8817841970012523e-15
0
LINE
5
213
100
AcDbEntity
8
0
100
AcDbLine
10
-64.069002549641297
20
100.75569018470303
30
-1.7666694773765812e-08
11
-64.069002549641297
21
104.07195844115378
31
8.8817841970012523e-15
0
ELLIPSE
5
214
100
AcDbEntity
8
0
100
AcDbEllipse
10
-344.99292757608839
20
160.0889282822684
30
-2.8070301638649653e-08
11
2.1435390706869504e-06
21
-0.25970776936084417
31
0.0
40
1
41
6.283139456710165
42
7.8539816339743691
0
ELLIPSE
5
215
100
AcDbEntity
8
0
100
AcDbEllipse
10
-350.82641019416815
20
158.82035902313081
30
-2.7847866235219957e-08
11
9.7641840568485316e-06
21
-0.25970776918612165
31
0.0
40
1
41
4.7123430763255669
42
6.2831853071795862
0
ELLIPSE
5
216
100
AcDbEntity
8
0
100
AcDbEllipse
10
-344.48350078855867
20
162.086682571159
30
-2.8420590325595185e-08
11
2.7074590200977719e-20
21
0.24971901816897471
31
0.0
40
1
41
6.8212102632961863e-13
42
1.5707963267946692
0
LINE
5
217
100
AcDbEntity
8
0
100
AcDbLine
10
-375.18894150796262
20
156.26323323846253
30
-2.7399469360034345e-08
11
-375.18894150796257
21
162.12664614938402
31
8.8817841970012523e-15
0
ARC
5
218
100
AcDbEntity
8
0
100
AcDbCircle
10
-347.53006061690832
20
157.03236446126223
30
-2.7534357016634203e-08
40
0.24971901816897457
210
0
220
0
230
1
100
AcDbArc
50
0
51
90
0
LINE
5
219
100
AcDbEntity
8
0
100
AcDbLine
10
-353.62321075688624
20
157.51182832930732
30
-2.7618431985843017e-08
11
-353.62321075688607
21
162.086682571159
31
8.8817841970012523e-15
0
ARC
5
220
100
AcDbEntity
8
0
100
AcDbCircle
10
-338.13064295189588
20
157.53161581557666
30
-2.7621895881679851e-08
40
0.2597077693697421
210
0
220
0
230
1
100
AcDbArc
50
179.9571336124217
51
267.79579056562153
0
ELLIPSE
5
221
100
AcDbEntity
8
0
100
AcDbEllipse
10
-339.42920013634165
20
162.06689508488952
30
-2.8417117547974158e-08
11
-0.00019430284311283688
21
0.2597076966848989
31
0.0
40
1
41
0.037722552431567892
42
1.5707963267950102
0
ELLIPSE
5
222
100
AcDbEntity
8
0
100
AcDbEllipse
10
-62.520744764600323
20
102.80358618221771
30
-1.8025785308850573e-08
11
-0.24971893819259366
21
-0.00019985800888022722
31
0.0
40
0.99999999999999956
41
4.6715776384610352
42
6.2831853071795294
0
LINE
5
223
100
AcDbEntity
8
0
100
AcDbLine
10
-60.513003788071707
20
103.05310534237776
30
-1.8069528096020804e-08
11
-62.510755933423255
21
103.05310534237778
31
1.7763568394002505e-14
0
LINE
5
224
100
AcDbEntity
8
0
100
AcDbLine
10
-331.81775950301693
20
159.80923872396974
30
-2.8021265308098009e-08
11
-331.05860393313401
21
159.80923872396974
31
8.8817841970012523e-15
0
ELLIPSE
5
225
100
AcDbEntity
8
0
100
AcDbEllipse
10
-343.72414329523684
20
162.07669389845626
30
-2.8418840614108379e-08
11
-0.25970769087166473
21
-0.00020192343903602261
31
0.0
40
0.99999999999999956
41
3.1792857870584172
42
4.7123889803851444
0
LINE
5
226
100
AcDbEntity
8
0
100
AcDbLine
10
-62.510755933423248
20
101.77454423608148
30
-1.7845351862888492e-08
11
-60.513003788071714
21
101.77454423608147
31
-1.7799841600663058e-08
0
LINE
5
227
100
AcDbEntity
8
0
100
AcDbLine
10
-347.28034159873937
20
157.03236446126223
30
-2.7534357016634203e-08
11
-347.28034159873937
21
156.26323323846253
31
1.7763568394002505e-14
0
LINE
5
228
100
AcDbEntity
8
0
100
AcDbLine
10
-339.68890783302652
20
156.26323323846259
30
-2.7399496005386936e-08
11
-339.68890783302641
21
162.06670078204644
31
8.8817841970012523e-15
0
ARC
5
229
100
AcDbEntity
8
0
100
AcDbCircle
10
-339.42920013634159
20
156.26303893561942
30
-2.7399469360034345e-08
40
0.2597077693697421
210
-1.0259741246245708e-13
220
7.675925355921309e-17
230
1
100
AcDbArc
50
179.9571336124217
51
267.79579056562153
0
ELLIPSE
5
230
100
AcDbEntity
8
0
100
AcDbEllipse
10
-358.49770038558995
20
157.01239029296937
30
-2.7530857593660585e-08
11
2.7074590200977719e-20
21
0.24971901816897471
31
0.0
40
1
41
6.2831853071793589
42
7.8539816339744828
0
ELLIPSE
5
231
100
AcDbEntity
8
0
100
AcDbEllipse
10
-376.72717894773876
20
156.2632310949235
30
-2.7399496005386936e-08
11
2.1435390884505201e-06
21
-0.25970776936084417
31
0.0
40
1
41
6.283139456710165
42
7.8539816339743691
0
LINE
5
232
100
AcDbEntity
8
0
100
AcDbLine
10
-60.253296018702052
20
104.09193641985651
30
-1.8251675726332902e-08
11
-60.253296018702045
21
103.32280138664697
31
8.8817841970012523e-15
0
LINE
5
233
100
AcDbEntity
8
0
100
AcDbLine
10
-332.04748149043394
20
157.02238118752561
30
-2.7532607305147397e-08
11
-332.04748149043394
21
156.26323323846259
31
1.7763568394002505e-14
0
LINE
5
234
100
AcDbEntity
8
0
100
AcDbLine
10
-341.9363485132684
20
162.33640158932798
30
-2.8420590325595185e-08
11
-341.18719145876162
21
162.33640158932786
31
8.8817841970012523e-15
0
LINE
5
235
100
AcDbEntity
8
0
100
AcDbLine
10
-332.32719605473062
20
156.00352332573743
30
-2.7353967979593111e-08
11
-339.43918881485735
21
156.00352332573729
31
8.8817841970012523e-15
0
ELLIPSE
5
236
100
AcDbEntity
8
0
100
AcDbEllipse
10
-376.72717894773876
20
158.77041217116914
30
-2.783910879600171e-08
11
2.1435390884505201e-06
21
-0.25970776936084417
31
0.0
40
1
41
6.2831394567099377
42
7.8539816339742554
0
ELLIPSE
5
237
100
AcDbEntity
8
0
100
AcDbEllipse
10
-380.50295976640052
20
162.0667105464052
30
-2.8417090902621567e-08
11
-9.7641840568485316e-06
21
0.25970776918612165
31
0.0
40
1
41
4.7123430763254532
42
6.2831853071798136
0
ELLIPSE
5
238
100
AcDbEntity
8
0
100
AcDbEllipse
10
-60.502195802865202
20
103.30259036295219
30
-1.8113279764975232e-08
11
0.020211023694720612
21
-0.24889978416316799
31
0.0
40
0.99999999999999944
41
6.158867516433439
42
7.8539815803847244
0
LINE
5
239
100
AcDbEntity
8
0
100
AcDbLine
10
-347.53006061690832
20
156.01351422029359
30
-2.735571769107992e-08
11
-358.49770038558995
21
156.01351422029362
31
8.8817841970012523e-15
0
LINE
5
240
100
AcDbEntity
8
0
100
AcDbLine
10
-381.26212510046736
20
162.32641831559133
30
-2.8462627810199596e-08
11
-380.50296953058472
21
162.32641831559138
31
8.8817841970012523e-15
0
ARC
5
241
100
AcDbEntity
8
0
100
AcDbCircle
10
-358.49770038558995
20
156.26323323846259
30
-2.7399496005386936e-08
40
0.24971901816890352
210
0
220
0
230
1
100
AcDbArc
50
180
51
270
0
ELLIPSE
5
242
100
AcDbEntity
8
0
100
AcDbEllipse
10
-62.520744764600344
20
102.02406339624153
30
-1.7889094650058727e-08
11
-0.24951916016004136
21
-0.009988831177087933
31
0.0
40
0.99999999999999967
41
6.2423740188457471
42
7.8539815803847244
0
LINE
5
243
100
AcDbEntity
8
0
100
AcDbLine
10
-380.02346755844121
20
157.27210020569456
30
-2.757639450123861e-08
11
-376.72718871192268
21
157.27210020569456
31
-2.7576385619454413e-08
0
LINE
5
244
100
AcDbEntity
8
0
100
AcDbLine
10
-352.0949315850234
20
157.28208347943118
30
-2.7578144212725419e-08
11
-347.53006061690832
21
157.28208347943115
31
1.7763568394002505e-14
0
LINE
5
245
100
AcDbEntity
8
0
100
AcDbLine
10
-376.46747117837776
20
162.06670840286608
30
-2.8417090902621567e-08
11
-376.46747117837776
21
158.77041431470826
31
8.8817841970012523e-15
0
ELLIPSE
5
246
100
AcDbEntity
8
0
100
AcDbEllipse
10
-353.87287864065684
20
157.50677502852727
30
-2.7617543807423317e-08
11
0.0050533007800090991
21
-0.24966788377064136
31
0.0
40
1
41
6.0614309004127467
42
7.8539816339744828
0
LINE
5
247
100
AcDbEntity
8
0
100
AcDbLine
10
-376.46747117837776
20
157.02238118752561
30
-2.7532598423363204e-08
11
-376.46747117837776
21
156.26323323846259
31
1.7763568394002505e-14
0
ELLIPSE
5
248
100
AcDbEntity
8
0
100
AcDbEllipse
10
-381.25213642195121
20
162.0669027057092
30
-2.8417126429758358e-08
11
-0.00019430284311283688
21
0.2597076966848989
31
0.0
40
1
41
0.037722552432253816
42
1.5707963267948966
0
ELLIPSE
5
249
100
AcDbEntity
8
0
100
AcDbEllipse
10
-380.02346755844138
20
158.2609853838141
30
-2.7749784692332472e-08
11
2.7074590200970021e-20
21
0.24971901816890374
31
0.0
40
1
41
6.2831853071791315
42
7.8539816339743691
0
LINE
5
250
100
AcDbEntity
8
0
100
AcDbLine
10
-380.27318657661027
20
158.26098538381413
30
-2.7749784692332472e-08
11
-380.27318657661033
21
157.53181011841974
31
8.8817841970012523e-15
0
ARC
5
251
100
AcDbEntity
8
0
100
AcDbCircle
10
-332.33718473324649
20
162.06689508488955
30
-2.8417117547974158e-08
40
0.25970776936967105
210
0
220
0
230
1
100
AcDbArc
50
-0.042866387578303841
51
87.795790565621076
0
LINE
5
252
100
AcDbEntity
8
0
100
AcDbLine
10
-339.43918881485752
20
162.32641069477165
30
-2.8417117547974158e-08
11
-332.32719605473062
21
162.32641069477165
31
8.8817841970012523e-15
0
LINE
5
253
100
AcDbEntity
8
0
100
AcDbLine
10
-353.3635237066199
20
162.35637575762073
30
-2.846787694466002e-08
11
-352.60436813673721
21
162.35637575762081
31
8.8817841970012523e-15
0
LINE
5
254
100
AcDbEntity
8
0
100
AcDbLine
10
-376.72718871192279
20
156.00352332573738
30
-2.7399496005386936e-08
11
-381.29205968003782
21
156.00352332573738
31
8.8817841970012523e-15
0
LINE
5
255
100
AcDbEntity
8
0
100
AcDbLine
10
-377.48634428180543
20
162.32641831559133
30
-2.8462627810199596e-08
11
-376.72718871192285
21
162.32641831559138
31
8.8817841970012523e-15
0
ELLIPSE
5
256
100
AcDbEntity
8
0
100
AcDbEllipse
10
-63.819283531472372
20
104.07195844115378
30
-1.8248176303359287e-08
11
2.7074590200973879e-20
21
0.24971901816893921
31
0.0
40
1
41
0
42
1.5707963267948966
0
ELLIPSE
5
257
100
AcDbEntity
8
0
100
AcDbEllipse
10
-376.72717894773876
20
162.0667105464052
30
-2.8417090902621567e-08
11
-9.7641840568485316e-06
21
0.25970776918612165
31
0.0
40
1
41
4.7123430763256806
42
6.2831853071798136
0
ELLIPSE
5
258
100
AcDbEntity
8
0
100
AcDbEllipse
10
-353.36369502366767
20
162.09666804475603
30
-2.8422340037081998e-08
11
-0.0099854735970339465
21
0.25951573321862054
31
0.0
40
1
41
6.2440672915665898
42
7.8539816339744828
0
ELLIPSE
5
259
100
AcDbEntity
8
0
100
AcDbEllipse
10
-368.63651883331096
20
158.25099671111138
30
-2.7748034980845656e-08
11
0.0099886727027431801
21
0.25951561010579394
31
0.0
40
0.99999999999999944
41
0.037693187058530524
42
1.5707963267950102
0
ELLIPSE
5
260
100
AcDbEntity
8
0
100
AcDbEllipse
10
-332.30718810643884
20
156.26245923957731
30
-2.7399362778623981e-08
11
0.25970661600482009
21
0.0007739988852506495
31
0.0
40
0.99999999999999956
41
4.6322920037102087
42
6.2831853071795862
0
LINE
5
261
100
AcDbEntity
8
0
100
AcDbLine
10
-352.35464911856832
20
162.10665673945186
30
-2.8424089748568804e-08
11
-352.35464911856832
21
157.53180249760015
31
1.7763568394002505e-14
0
ELLIPSE
5
262
100
AcDbEntity
8
0
100
AcDbEllipse
10
-369.90488831237371
20
156.2632310949235
30
-2.7399496005386936e-08
11
9.7641839857942529e-06
21
-0.25970776918612165
31
0.0
40
1
41
4.7123430763257943
42
6.2831853071791315
0
LINE
5
263
100
AcDbEntity
8
0
100
AcDbLine
10
-377.73606329997443
20
160.06895625751466
30
-2.8066802215676034e-08
11
-377.73606329997443
21
162.06670840286614
31
8.8817841970012523e-15
0
ELLIPSE
5
264
100
AcDbEntity
8
0
100
AcDbEllipse
10
-347.53006061690832
20
156.26323323846259
30
-2.7399496005386936e-08
11
-2.7074590200977719e-20
21
-0.24971901816897471
31
0.0
40
1
41
6.2831853071789041
42
7.8539816339742554
0
ELLIPSE
5
265
100
AcDbEntity
8
0
100
AcDbEllipse
10
-352.0951335084626
20
157.54179117030287
30
-2.7623681120303445e-08
11
0.25970769087168238
21
0.00020192343896496823
31
0.0
40
0.99999999999999956
41
3.1792857870586446
42
4.7123889803853718
0
LINE
5
266
100
AcDbEntity
8
0
100
AcDbLine
10
-338.1406316304118
20
157.2721002056945
30
-2.7621895881679851e-08
11
-332.29720050860294
21
157.27210020569461
31
1.7763568394002505e-14
0
ELLIPSE
5
267
100
AcDbEntity
8
0
100
AcDbEllipse
10
-377.99577106933521
20
160.06895411397554
30
-2.8066802215676034e-08
11
2.1435390706869504e-06
21
-0.25970776936084417
31
0.0
40
1
41
6.283139456710165
42
7.8539815803848949
0
LINE
5
268
100
AcDbEntity
8
0
100
AcDbLine
10
-379.99353297887063
20
159.80924634478936
30
-2.8021265308098009e-08
11
-377.99578083351923
21
159.80924634478936
31
1.7763568394002505e-14
0
ARC
5
269
100
AcDbEntity
8
0
100
AcDbCircle
10
-352.60436813673721
20
162.10665673945184
30
-2.8424089748568804e-08
40
0.24971901816890352
210
0
220
-0
230
1
100
AcDbArc
50
0
51
90
0
LINE
5
270
100
AcDbEntity
8
0
100
AcDbLine
10
-358.74741940375884
20
156.26323323846259
30
-2.7399496005386936e-08
11
-358.74741940375895
21
157.01239029296937
31
8.8817841970012523e-15
0
ARC
5
271
100
AcDbEntity
8
0
100
AcDbCircle
10
-332.29720050860294
20
157.02238118752561
30
-2.7532607305147397e-08
40
0.24971901816897457
210
0
220
0
230
1
100
AcDbArc
50
0
51
90
0
LINE
5
272
100
AcDbEntity
8
0
100
AcDbLine
10
-62.770463702792924
20
102.80338632420886
30
-1.8025785308850573e-08
11
-62.770463702792938
21
102.02426325425044
31
1.7763568394002505e-14
0
ARC
5
273
100
AcDbEntity
8
0
100
AcDbCircle
10
-60.502233158258854
20
104.0721908232704
30
-1.8970673590462995e-08
40
0.24971901816894615
210
1.3827742429177594e-11
220
1.0968111234381326e-12
230
1
100
AcDbArc
50
4.5351835484368745
51
92.471990838091841
0
LINE
5
274
100
AcDbEntity
8
0
100
AcDbLine
10
-358.49770038558984
20
157.26210931113837
30
1.7763568394002501e-14
11
-353.92286138537764
21
157.26210931113832
31
1.7763568394002501e-14
0
ELLIPSE
5
275
100
AcDbEntity
8
0
100
AcDbEllipse
10
-331.81776926720084
20
160.06894649315583
30
-2.8066793333891837e-08
11
9.7641840568485316e-06
21
-0.25970776918612165
31
0.0
40
1
41
4.7123430763251122
42
6.2831853071793589
0
LINE
5
276
100
AcDbEntity
8
0
100
AcDbLine
10
-380.24325199703969
20
162.06670840286608
30
-2.8417090902621567e-08
11
-380.24325199703975
21
160.06895625751454
31
8.8817841970012523e-15
0
ELLIPSE
5
277
100
AcDbEntity
8
0
100
AcDbEllipse
10
-381.25215468741999
20
156.2601470133329
30
-2.7398963098335116e-08
11
-0.039904992617820781
21
-0.25662368759554977
31
0.0
40
1
41
4.8547698149026646
42
6.2831853071795862
0
ELLIPSE
5
278
100
AcDbEntity
8
0
100
AcDbEllipse
10
-360.26572077934031
20
162.0667105464052
30
-2.8417090902621567e-08
11
-9.7641840568485316e-06
21
0.25970776918612165
31
0.0
40
1
41
4.7123430763255669
42
6.2831853071802684
0
ARC
5
279
100
AcDbEntity
8
0
100
AcDbCircle
10
-380.01347887992335
20
157.53161581557671
30
-4.0457481557790317e-05
40
0.25970776936974355
210
1.0635760762923117e-07
220
-7.9572480187627595e-11
230
0.99999999999999434
100
AcDbArc
50
179.95713361245572
51
267.79579056565916
0
LINE
5
280
100
AcDbEntity
8
0
100
AcDbLine
10
-376.72718871192279
20
158.51070440198302
30
-2.783910879600171e-08
11
-380.02346755844121
21
158.51070440198302
31
1.7763568394002505e-14
0
LINE
5
281
100
AcDbEntity
8
0
100
AcDbLine
10
-332.07747703656162
20
162.06670078204641
30
-2.8417117547974158e-08
11
-332.07747703656167
21
160.0689486366949
31
1.7763568394002505e-14
0
LINE
5
282
100
AcDbEntity
8
0
100
AcDbLine
10
-330.80888491496523
20
156.26323323846259
30
-2.7399496005386936e-08
11
-330.80888491496518
21
158.32092313033198
31
8.8817841970012523e-15
0
ELLIPSE
5
283
100
AcDbEntity
8
0
100
AcDbEllipse
10
-330.54917714560423
20
156.2632310949235
30
-2.7399496005386936e-08
11
9.7641840568485316e-06
21
-0.25970776918612165
31
0.0
40
1
41
4.7123430763254532
42
6.2831853071798136
0
LWPOLYLINE
5
284
100
AcDbEntity
8
0
100
AcDbPolyline
90
20
70
1
43
0.0
10
-295.50595991625983
20
115.13058105977366
10
-288.8000107238289
20
115.13058087244426
42
0.41421356237312623
10
-287.800010695894
20
116.13058084450942
10
-287.80001033274141
20
129.13058084450935
42
0.41421356237311585
10
-288.80001030480673
20
130.13058087244423
10
-293.80001030480662
20
130.13058101211828
42
0.41421356237310025
10
-294.80001033274141
20
129.13058104005307
42
-0.41421356237311063
10
-295.8000103606762
20
128.13058106798798
10
-310.67601036067623
20
128.13058148354637
42
-0.414213562373069
10
-311.67601033274133
20
129.1305815114811
42
0.41421356237308982
10
-312.67601030480654
20
130.13058153941589
10
-317.67601030480654
20
130.13058167909
42
0.41421356237309503
10
-318.67601033274133
20
129.13058170702482
10
-318.67601069589404
20
116.13058170702487
42
0.41421356237305862
10
-317.67601072382882
20
115.13058167909008
10
-310.97006153139773
20
115.13058149176047
42
-0.26794919243110299
10
-310.10403614158088
20
114.63058146756828
42
0.26794919243110332
10
-309.23801075176368
20
114.13058144337595
10
-297.23801075176374
20
114.13058110815824
42
0.26794919243105803
10
-296.37198533401204
20
114.63058108396578
42
-0.2679491924312109
0
LINE
5
285
100
AcDbEntity
8
0
100
AcDbLine
10
-329.79001181153762
20
156.00352332573738
30
-2.7353967979593111e-08
11
-330.5491673814202
21
156.00352332573738
31
8.8817841970012523e-15
0
ARC
5
286
100
AcDbEntity
8
0
100
AcDbCircle
10
-379.98354430035261
20
160.06876195467169
30
-4.1106048728433353e-05
40
0.25970776936967249
210
1.0807057402774098e-07
220
-8.0854052670083747e-11
230
0.99999999999999423
100
AcDbArc
50
179.95713361248971
51
267.79579056562108
0
LINE
5
287
100
AcDbEntity
8
0
100
AcDbLine
10
-381.51184411863625
20
156.26323323846248
30
-2.7398963098335116e-08
11
-381.51184411863619
21
162.06670840286608
31
8.8817841970012523e-15
0
LINE
5
288
100
AcDbEntity
8
0
100
AcDbLine
10
-37.063790538269856
20
207.33037213413198
30
-3.6295189076440686e-08
11
-45.688774515061745
21
207.33037237859531
31
-3.635371115251474e-08
0
ARC
5
289
100
AcDbEntity
8
0
100
AcDbCircle
10
-56.288774486718118
20
212.92511067164142
30
4.7548524793956187e-13
40
0.99999999999997868
210
0
220
1.7534418361720247e-10
230
1
100
AcDbArc
50
90
51
168.30911561603327
0
LINE
5
290
100
AcDbEntity
8
0
100
AcDbLine
10
-330.54916738142026
20
164.89352189671561
30
-2.8912738869735222e-08
11
-329.79001181153762
21
164.89352189671561
31
8.8817841970012523e-15
0
LWPOLYLINE
5
291
100
AcDbEntity
8
0
100
AcDbPolyline
90
8
70
1
43
0.0
10
-73.400509296359729
20
166.23057485529819
10
-85.400509296359871
20
166.23057519051602
42
0.41421356237310542
10
-86.400509324294617
20
165.23057521845087
10
-86.400509659512522
20
153.23057521845089
42
0.4142135623730846
10
-85.400509687447354
20
152.23057519051616
10
-73.400509687447183
20
152.23057485529824
42
0.41421356237310281
10
-72.40050965951238
20
153.23057482736343
10
-72.400509324294717
20
165.23057482736345
42
0.41421356237310281
0
LINE
5
292
100
AcDbEntity
8
0
100
AcDbLine
10
-329.53029427799265
20
164.63381198399034
30
-2.8867210843941397e-08
11
-329.53029427799265
21
156.26323323846259
31
1.7763568394002505e-14
0
LINE
5
293
100
AcDbEntity
8
0
100
AcDbLine
10
-46.688774486718138
20
208.3303723785952
30
-3.6529046454347736e-08
11
-46.688774486718152
21
212.92511067164142
31
-3.7334713098857719e-08
0
ELLIPSE
5
294
100
AcDbEntity
8
0
100
AcDbEllipse
10
-58.247284609084069
20
213.33037367339489
30
-3.7405758490649526e-08
11
-1.0000000000000009
21
-3.3279585684448771e-15
31
0.0
40
0.99999999999999556
41
1.5707963267948752
42
2.9375481750297432
0
ELLIPSE
5
295
100
AcDbEntity
8
0
100
AcDbEllipse
10
-47.688774486718131
20
212.92511067164142
30
-3.7334704217073516e-08
11
-0.70710678118655823
21
0.70710678118654058
31
0.0
40
0.99999999999999944
41
3.9269907633974683
42
5.497787143782138
0
ARC
5
296
100
AcDbEntity
8
0
100
AcDbCircle
10
-158.77097209244221
20
213.33037367339489
30
-4.1493479239147659e-08
40
0.99999999999999667
210
3.5233302479268173e-11
220
7.2926368627875484e-12
230
1
100
AcDbArc
50
191.6940287870506
51
270
0
ELLIPSE
5
297
100
AcDbEntity
8
0
100
AcDbEllipse
10
-172.32948921750278
20
213.33037367339489
30
-3.7405758490649526e-08
11
-0.999999999999997
21
1.4435609825560874e-14
31
0.0
40
0.99999999999999956
41
1.5707963267948681
42
2.9374932948431502
0
LINE
5
298
100
AcDbEntity
8
0
100
AcDbLine
10
-288.72970986284679
20
213.92500318885368
30
-3.7510030637122327e-08
11
-298.41251621650389
21
213.92500318885399
31
-3.751002175533813e-08
0
ELLIPSE
5
299
100
AcDbEntity
8
0
100
AcDbEllipse
10
-330.54917714560423
20
164.63381412752943
30
-2.8867201962157203e-08
11
-2.1435390706869504e-06
21
0.25970776936084417
31
0.0
40
1
41
6.283139456710165
42
7.8539816339743691
0
LINE
5
300
100
AcDbEntity
8
0
100
AcDbLine
10
-172.32948921750281
20
212.33037367339489
30
-3.7405758490649526e-08
11
-286.77122198433887
21
212.33037367339492
31
-3.7230414307032327e-08
0
LINE
5
301
100
AcDbEntity
8
0
100
AcDbLine
10
-36.063134534279257
20
109.79064806611856
30
-1.9250903093848137e-08
11
-36.063790566632015
21
206.33037892959689
31
-3.6180853868472695e-08
0
ELLIPSE
5
302
100
AcDbEntity
8
0
100
AcDbEllipse
10
-331.06859261164999
20
160.06875433385187
30
-2.806676668853925e-08
11
0.00019430284307730977
21
-0.2597076966848279
31
0.0
40
1
41
0.037722552432022313
42
1.5707963267948966
0
ARC
5
303
100
AcDbEntity
8
0
100
AcDbCircle
10
-170.37100133899548
20
212.92500318885061
30
-1.4167515967323576e-12
40
1.0000000000000142
210
6.2291612519870206e-24
220
1.7533530183299924e-10
230
1
100
AcDbArc
50
89.99999999999838
51
168.30597121295517
0
SPLINE
5
304
100
AcDbEntity
8
0
100
AcDbSpline
70
0
71
3
72
14
73
10
74
0
42
0.000000001
43
0.0000000001
44
0.0000000001
40
0
40
0
40
0
40
0
40
0.039064447338692049
40
0.039064447338692049
40
0.078128894677383709
40
0.078128894677383709
40
0.10757471477735847
40
0.10757471477735847
40
0.13702053487733096
40
0.13702053487733096
40
0.13702053487733096
40
0.13702053487733096
10
-299.39176015575799
20
213.12768843112448
30
-3.7370231353861527e-08
10
-299.3653675325146
20
213.25520050878029
30
-3.7392595686469576e-08
10
-299.31432129292136
20
213.3763384352701
30
-3.7413805387132022e-08
10
-299.16866806055697
20
213.59222900463521
30
-3.7451668433163832e-08
10
-299.07545359207427
20
213.68491761599796
30
-3.7467922098244337e-08
10
-298.88542227835154
20
213.81156611149052
30
-3.7490126558736847e-08
10
-298.79617550516451
20
213.85367940226246
30
-3.7497507321404555e-08
10
-298.60828906159719
20
213.91055225016461
30
-3.7507481565057788e-08
10
-298.51066895017044
20
213.92500318885399
30
-3.7510030637122327e-08
10
-298.41251621650389
20
213.92500318885399
30
-3.7510030637122327e-08
0
ELLIPSE
5
305
100
AcDbEntity
8
0
100
AcDbEllipse
10
-329.7900020473536
20
164.63381412752943
30
-2.8867201962157203e-08
11
-9.7641840568485316e-06
21
0.25970776918612165
31
0.0
40
1
41
4.7123430763257943
42
6.283185307180041
0
LINE
5
306
100
AcDbEntity
8
0
100
AcDbLine
10
-58.24728460908409
20
212.33037367339492
30
-3.7405758490649526e-08
11
-158.77097209244221
21
212.33037367339489
31
-3.7447901864627255e-08
0
ARC
5
307
100
AcDbEntity
8
0
100
AcDbCircle
10
-288.72970986284679
20
212.92500318885374
30
-4.5848408007907574e-08
40
0.9999999999999396
210
3.4798430812049253e-11
220
7.2026265336375516e-12
230
1
100
AcDbArc
50
11.694028786950023
51
90
0
ELLIPSE
5
308
100
AcDbEntity
8
0
100
AcDbEllipse
10
-376.72698678848371
20
157.01239251482289
30
-2.7530848711876388e-08
11
-0.00020192343903602253
21
0.25970769087168233
31
0.0
40
1
41
4.7500821674433293
42
6.2831853071795862
0
LINE
5
309
100
AcDbEntity
8
0
100
AcDbLine
10
-160.72945997094956
20
213.92500318885041
30
-3.751002175533813e-08
11
-170.37100133899546
21
213.92500318885061
31
-3.7510021755338123e-08
0
ELLIPSE
5
310
100
AcDbEntity
8
0
100
AcDbEllipse
10
-329.79000204735365
20
156.2632310949235
30
-2.7399496005386936e-08
11
2.1435390884505201e-06
21
-0.25970776936084417
31
0.0
40
1
41
6.283139456710165
42
7.8539816339744828
0
ELLIPSE
5
311
100
AcDbEntity
8
0
100
AcDbEllipse
10
-333.05636584266972
20
158.83034991768704
30
-2.7849615946706766e-08
11
9.7641840568485316e-06
21
-0.25970776918612165
31
0.0
40
1
41
4.7123430763252259
42
6.2831853071791315
0
ELLIPSE
5
312
100
AcDbEntity
8
0
100
AcDbEllipse
10
-34.311321033805235
20
103.92193515966609
30
-1.822187734035197e-08
11
-2.1213203435596562
21
2.1213203435596331
31
0.0
40
0.99999999999999967
41
3.9269907633974461
42
5.2882255722362501
0
LINE
5
313
100
AcDbEntity
8
0
100
AcDbLine
10
-333.31607361203049
20
158.83035206122611
30
-2.7849615946706766e-08
11
-333.31607361203049
21
160.82810420657768
31
8.8817841970012523e-15
0
SPLINE
5
314
100
AcDbEntity
8
0
100
AcDbSpline
70
0
71
3
72
14
73
10
74
0
42
0.000000001
43
0.0000000001
44
0.0000000001
40
0
40
0
40
0
40
0
40
0.039064447338691022
40
0.039064447338691022
40
0.078128894677385818
40
0.078128894677385818
40
0.10757471477727104
40
0.10757471477727104
40
0.13702053487715465
40
0.13702053487715465
40
0.13702053487715465
40
0.13702053487715465
10
-160.72945997094956
20
213.92500318885041
30
-3.751002175533813e-08
10
-160.59924514648719
20
213.92500318885041
30
-3.751002175533813e-08
10
-160.4702752467193
20
213.89956933808574
30
-3.7505030192619415e-08
10
-160.22934395443716
20
213.80069712541584
30
-3.7487692949866875e-08
10
-160.11968599639474
20
213.72820403575332
30
-3.7473872893656335e-08
10
-159.95714968190728
20
213.56778680451401
30
-3.7445735401320241e-08
10
-159.89782149331174
20
213.4889281853157
30
-3.7431249211294926e-08
10
-159.80404729236176
20
213.31646881114071
30
-3.7401006736104137e-08
10
-159.77011014229871
20
213.22380390068645
30
-3.7387071216699042e-08
10
-159.75021603169589
20
213.12768843112255
30
-3.737022247207733e-08
0
LINE
5
315
100
AcDbEntity
8
0
100
AcDbLine
10
-63.819283531472372
20
104.32167745932273
30
-1.8248176303359287e-08
11
-60.513003788071707
21
104.32167745932273
31
8.8817841970012523e-15
0
ELLIPSE
5
316
100
AcDbEntity
8
0
100
AcDbEllipse
10
-45.688774486718131
20
208.3303723785952
30
-3.6529046454347736e-08
11
0.70710677116555931
21
-0.70710679120753905
31
0.0
40
1
41
3.9269907775693391
42
5.4977871296103578
0
LINE
5
317
100
AcDbEntity
8
0
100
AcDbLine
10
-331.05860393313407
20
158.57064214850098
30
-2.7804079039128737e-08
11
-333.05635607848563
21
158.57064214850089
31
1.7763568394002505e-14
0
ARC
5
318
100
AcDbEntity
8
0
100
AcDbCircle
10
-333.56579263019739
20
160.82810420657773
30
3.764025455787555e-05
40
0.24971901816897618
210
-1.1292661089248409e-07
220
-1.6065893505428758e-20
230
0.99999999999999367
100
AcDbArc
50
0
51
90
0
LINE
5
319
100
AcDbEntity
8
0
100
AcDbLine
10
-330.80888491496518
20
160.06894863669493
30
-2.806676668853925e-08
11
-330.80888491496523
21
164.63381198399046
31
8.8817841970012523e-15
0
ARC
5
320
100
AcDbEntity
8
0
100
AcDbCircle
10
-331.05860393313219
20
158.32092313033218
30
3.6774760430374462e-05
40
0.24971901816890504
210
-1.1116618113490418e-07
220
-3.4450071880226687e-32
230
0.999999999999994
100
AcDbArc
50
0
51
89.999999999960878
0
LINE
5
321
100
AcDbEntity
8
0
100
AcDbLine
10
-333.56579263019955
20
161.07782322474668
30
-2.8199913515440952e-08
11
-338.1406316304118
21
161.0778232247466
31
8.8817841970012523e-15
0
ELLIPSE
5
322
100
AcDbEntity
8
0
100
AcDbEllipse
10
-33.063134534348528
20
109.79066845251337
30
-1.9250903093848137e-08
11
2.9999999999307332
21
2.0386394851099172e-05
31
0.0
40
0.99999999999999944
41
3.1415925999999992
42
4.5028205597840634
0
ARC
5
323
100
AcDbEntity
8
0
100
AcDbCircle
10
-37.063790566613463
20
206.33037213413201
30
-3.8372975788764675e-08
40
1.0000000000045359
210
6.078693104258518e-11
220
4.1307545964106289e-16
230
1
100
AcDbArc
50
0.00038935073850906277
51
89.999998376030973
0
ELLIPSE
5
324
100
AcDbEntity
8
0
100
AcDbEllipse
10
-286.77122198433881
20
213.33037367339489
30
-3.7405758490649526e-08
11
0.70710678118657033
21
-0.70710678118652526
31
0.0
40
1
41
4.1310900685528162
42
5.4977871437820722
0
ELLIPSE
5
325
100
AcDbEntity
8
0
100
AcDbEllipse
10
-377.47635560328939
20
162.0669027057092
30
-2.8417126429758358e-08
11
-0.00019430284311283688
21
0.2597076966848989
31
0.0
40
1
41
0.037722552432476741
42
1.5707963267946692
0
LWPOLYLINE
5
326
100
AcDbEntity
8
0
100
AcDbPolyline
90
8
70
1
43
0.0
10
-368.67551075176391
20
114.13058310375185
10
-380.67551075176362
20
114.13058343896958
42
-0.41421356237311063
10
-381.67551072382884
20
115.13058346690443
10
-381.6755103886112
20
127.13058346690448
42
-0.4142135623730534
10
-380.67551036067607
20
128.13058343896964
10
-368.67551036067653
20
128.13058310375177
42
-0.41421356237313667
10
-367.6755103886112
20
127.13058307581692
10
-367.67551072382895
20
115.13058307581701
42
-0.41421356237310025
0
LINE
5
327
100
AcDbEntity
8
0
100
AcDbLine
10
-104.77097209244221
20
208.33037240693886
30
-3.6575293904661521e-08
11
-51.288774486718083
21
208.33037367339489
31
-3.6529055336131933e-08
0
ELLIPSE
5
328
100
AcDbEntity
8
0
100
AcDbEllipse
10
-110.87100137090692
20
207.83037367339489
30
-3.6441374362539136e-08
11
-0.35355339059328517
21
0.35355339059326263
31
0.0
40
1
41
3.9269918687985403
42
5.4977871437820172
0
SPLINE
5
329
100
AcDbEntity
8
0
100
AcDbSpline
70
0
71
3
72
14
73
10
74
0
42
0.000000001
43
0.0000000001
44
0.0000000001
40
0
40
0
40
0
40
0
40
0.11719334201607752
40
0.11719334201607752
40
0.23438668403215626
40
0.23438668403215626
40
0.32189672482799336
40
0.32189672482799336
40
0.40940676562382983
40
0.40940676562382983
40
0.40940676562382983
40
0.40940676562382983
10
-387.0510926867027
20
95.256191850207074
30
-1.6702408345281583e-08
10
-387.4331887248099
20
95.337467444640168
30
-1.671666360891777e-08
10
-387.79575678564123
20
95.492597852886718
30
-1.6743877395697382e-08
10
-388.4410212148365
20
95.933104645985708
30
-1.6821113391074505e-08
10
-388.71754850356098
20
96.214269545801315
30
-1.6870380648015274e-08
10
-389.09284329736522
20
96.784136182554136
30
-1.6970300720231535e-08
10
-389.2168948335144
20
97.049854847206234
30
-1.7016912323697397e-08
10
-389.38438275260455
20
97.608696214944999
30
-1.7114905048742912e-08
10
-389.42692723727163
20
97.898843003984467
30
-1.7165771026839138e-08
10
-389.42692723727163
20
98.190543139970572
30
-1.7216921222029669e-08
0
ARC
5
330
100
AcDbEntity
8
0
100
AcDbCircle
10
-37.06298997726519
20
88.518073157876415
30
-5.5894904419605138e-09
40
0.99999999999997891
210
3.1140381107692041e-18
220
1.1147527345656499e-10
230
1
100
AcDbArc
50
-90.000001600545502
51
0.00038935073850906277
0
ARC
5
331
100
AcDbEntity
8
0
100
AcDbCircle
10
-383.67525823794205
20
88.518082840423688
30
-1.6942233471950355e-08
40
0.99999999771370107
210
3.6948222343999866e-12
220
-9.8892931341379298e-20
230
1
100
AcDbArc
50
179.99999879258175
51
269.99999839944797
0
LINE
5
332
100
AcDbEntity
8
0
100
AcDbLine
10
-384.67525813613349
20
92.321840480147742
30
-1.61878865867493e-08
11
-384.6752582356558
21
88.518082867188937
31
-1.5520926766043882e-08
0
LINE
5
333
100
AcDbEntity
8
0
100
AcDbLine
10
-300.37100409501204
20
212.33037367339506
30
-3.7230414307032327e-08
11
-364.81698578640311
21
212.33037367339492
31
-3.7230414307032327e-08
0
LINE
5
334
100
AcDbEntity
8
0
100
AcDbLine
10
-47.688774486718145
20
213.92511067164145
30
-3.7334704217073516e-08
11
-56.288774486718118
21
213.92511067164139
31
-3.7510048400690714e-08
0
LINE
5
335
100
AcDbEntity
8
0
100
AcDbLine
10
-389.42692723727185
20
103.92193515966609
30
-1.822187734035197e-08
11
-389.42692723727163
21
98.190543139970572
31
-1.7216921222029669e-08
0
LINE
5
336
100
AcDbEntity
8
0
100
AcDbLine
10
-36.062989977288296
20
88.518079953328751
30
-1.5457067498306395e-08
11
-36.063015825503811
21
92.321820174048696
31
-1.6184396045559879e-08
0
ELLIPSE
5
337
100
AcDbEntity
8
0
100
AcDbEllipse
10
-364.81698578640311
20
213.33037367339523
30
-3.7405758490649526e-08
11
-0.70710678118654846
21
-0.70710678118677384
31
0.0
40
0.99999999999995814
41
5.7016951117611754
42
7.0685834705768942
0
ARC
5
338
100
AcDbEntity
8
0
100
AcDbCircle
10
-300.37100409501204
20
213.33037367339514
30
4.8172185982068077e-13
40
1.0000000000000853
210
-0
220
1.7534418361717965e-10
230
1
100
AcDbArc
50
270
51
348.30597121304328
0
LINE
5
339
100
AcDbEntity
8
0
100
AcDbLine
10
-366.77555119150452
20
213.92537792781255
30
-3.7510092809611699e-08
11
-375.41698578640313
21
213.92537792781292
31
-3.7510092809611699e-08
0
ARC
5
340
100
AcDbEntity
8
0
100
AcDbCircle
10
-383.67525508466377
20
206.33038195835536
30
-1.9165001174136377e-09
40
1.0000000000000147
210
4.7078375070586133e-18
220
1.6609824626811791e-10
230
1
100
AcDbArc
50
89.999998376027719
51
179.99999879258175
0
ARC
5
341
100
AcDbEntity
8
0
100
AcDbCircle
10
-104.77097209244221
20
207.83037405319848
30
-3.6445637618953697e-08
40
0.50000000000002487
210
0
220
0
230
1
100
AcDbArc
50
180
51
269.99999837602769
0
ELLIPSE
5
342
100
AcDbEntity
8
0
100
AcDbEllipse
10
-366.77555119150452
20
212.92537792781224
30
-3.7334748625994501e-08
11
-9.1616980928851334e-14
21
-1.0000000000002662
31
0.0
40
0.99999999999972478
41
1.7747042411844602
42
3.1415926000002052
0
ELLIPSE
5
343
100
AcDbEntity
8
0
100
AcDbEllipse
10
-34.311321033805172
20
98.190548604555161
30
-1.7216921222029669e-08
11
-2.999999999999996
21
-2.7650895895880525e-14
31
0.0
40
0.99999999999999944
41
1.7803780721249294
42
3.1415926000000134
0
ELLIPSE
5
344
100
AcDbEntity
8
0
100
AcDbEllipse
10
-51.288774486718111
20
207.83037240693886
30
-3.6441383244323327e-08
11
0.35355338558277571
21
-0.35355339560377363
31
0.0
40
1
41
5.4977871296104484
42
7.0685837455100815
0
LINE
5
345
100
AcDbEntity
8
0
100
AcDbLine
10
-383.67525826587695
20
87.518082840423673
30
-1.5349277404652639e-08
11
-37.062990005199978
21
87.518073157876444
31
-1.5345591464210887e-08
0
LWPOLYLINE
5
346
100
AcDbEntity
8
0
100
AcDbPolyline
90
8
70
1
43
0.0
10
-362.62551038861119
20
127.13058293474614
42
-0.41421356237315748
10
-361.62551036067617
20
128.13058290681136
10
-349.62551036067629
20
128.13058257159361
42
-0.41421356237309503
10
-348.62551038861108
20
127.13058254365869
10
-348.62551072382877
20
115.13058254365873
42
-0.41421356237300139
10
-349.62551075176384
20
114.13058257159356
10
-361.62551075176367
20
114.13058290681137
42
-0.4142135623730534
10
-362.625510723829
20
115.13058293474623
0
LWPOLYLINE
5
347
100
AcDbEntity
8
0
100
AcDbPolyline
90
8
70
1
43
0.0
10
-348.62550912735406
20
172.28058254365874
42
-0.41421356237316787
10
-349.62550915528885
20
171.28058257159353
10
-361.62550915528891
20
171.28058290681145
42
-0.4142135623730534
10
-362.62550912735406
20
172.28058293474618
10
-362.6255087921362
20
184.28058293474609
42
-0.41421356237315748
10
-361.62550876420141
20
185.28058290681139
10
-349.62550876420124
20
185.28058257159358
42
-0.4142135623730222
10
-348.62550879213615
20
184.28058254365877
0
LINE
5
348
100
AcDbEntity
8
0
100
AcDbLine
10
-110.87100138507871
20
207.33037422609542
30
-3.6357965527145091e-08
11
-245.77122199851055
21
207.33037804965596
31
-3.635371115251474e-08
0
LWPOLYLINE
5
349
100
AcDbEntity
8
0
100
AcDbPolyline
90
8
70
1
43
0.0
10
-330.57550862313059
20
190.33058203943537
42
0.41421356237309503
10
-329.5755085951958
20
191.33058201150047
10
-329.57550825997799
20
203.33058201150038
42
0.41421356237311585
10
-330.57550823204326
20
204.3305820394352
10
-342.57550823204338
20
204.33058237465303
42
0.4142135623730846
10
-343.57550825997839
20
203.33058240258791
10
-343.57550859519614
20
191.33058240258802
42
0.41421356237307422
10
-342.57550862313082
20
190.33058237465323
0
LWPOLYLINE
5
350
100
AcDbEntity
8
0
100
AcDbPolyline
90
8
70
1
43
0.0
10
-330.57551102587416
20
104.31808203943517
10
-342.57551102587428
20
104.31808237465302
42
0.41421356237312623
10
-343.57551105380907
20
103.31808240258781
10
-343.57551138902704
20
91.318082402588075
42
0.41421356237316265
10
-342.57551141696183
20
90.318082374653386
10
-330.57551141696166
20
90.318082039435396
42
0.41421356237310542
10
-329.57551138902681
20
91.318082011500593
10
-329.57551105380901
20
103.31808201150039
42
0.41421356237307944
0
LINE
5
351
100
AcDbEntity
8
0
100
AcDbLine
10
-245.77122198433869
20
208.33037367339386
30
-3.6529046454347736e-08
11
-110.87100137090687
21
208.33037367339489
31
-3.6441374362539136e-08
0
LWPOLYLINE
5
352
100
AcDbEntity
8
0
100
AcDbPolyline
90
8
70
1
43
0.0
10
-367.67550825997802
20
203.330583075817
10
-367.67550859519559
20
191.33058307581712
42
-0.4142135623732095
10
-368.67550862313078
20
190.33058310375165
10
-380.67550862313055
20
190.33058343896968
42
-0.4142135623730222
10
-381.67550859519559
20
191.33058346690459
10
-381.67550825997807
20
203.3305834669045
42
-0.4142135623730846
10
-380.67550823204283
20
204.33058343896971
10
-368.67550823204311
20
204.33058310375176
42
-0.4142135623730846
0
LWPOLYLINE
5
353
100
AcDbEntity
8
0
100
AcDbPolyline
90
8
70
1
43
0.0
10
-368.67551141696163
20
90.31808310375196
10
-380.67551141696151
20
90.318083438969765
42
-0.41421356237305862
10
-381.67551138902661
20
91.31808346690471
10
-381.67551105380892
20
103.31808346690444
42
-0.41421356237312101
10
-380.67551102587402
20
104.31808343896964
10
-368.67551102587441
20
104.31808310375187
42
-0.41421356237315227
10
-367.67551105380898
20
103.31808307581696
10
-367.67551138902672
20
91.318083075817185
42
-0.41421356237307422
0
ARC
5
354
100
AcDbEntity
8
0
100
AcDbCircle
10
-377.4169857864033
20
208.33038178097325
30
4.7238598595490646e-13
40
0.99999999999997913
210
4.9698641291740757e-18
220
1.7534418361720229e-10
230
1
100
AcDbArc
50
-90.000001623962518
51
0
0
LWPOLYLINE
5
355
100
AcDbEntity
8
0
100
AcDbPolyline
90
8
70
1
43
0.0
10
-381.67551019167058
20
134.18058346690444
10
-381.675509856453
20
146.18058346690441
42
-0.41421356237307944
10
-380.67550982851799
20
147.18058343896962
10
-368.67550982851805
20
147.18058310375181
42
-0.4142135623730534
10
-367.67550985645312
20
146.18058307581694
10
-367.67551019167053
20
134.18058307581697
42
-0.4142135623731939
10
-368.67551021960548
20
133.18058310375179
10
-380.67551021960548
20
133.18058343896973
42
-0.41421356237307422
0
ELLIPSE
5
356
100
AcDbEntity
8
0
100
AcDbEllipse
10
-375.41698578640313
20
212.9253779278126
30
-3.7334748625994501e-08
11
0.70710678118658077
21
0.70710678118673498
31
0.0
40
0.99999999999996603
41
0.78539816339743829
42
2.3561944366025722
0
ELLIPSE
5
357
100
AcDbEntity
8
0
100
AcDbEllipse
10
-387.67525813613366
20
92.321840560443547
30
-1.61878865867493e-08
11
2.1213203719485696
21
2.1213203151707414
31
0.0
40
0.99999999999999922
41
5.4977871303995034
42
6.8589973074819062
0
ARC
5
358
100
AcDbEntity
8
0
100
AcDbCircle
10
-104.77097209244221
20
207.83037405319848
30
1.7447568539475396e-08
40
0.49999835374034518
210
0
220
2.5931342521008988e-10
230
1
100
AcDbArc
50
90
51
180
0
ARC
5
359
100
AcDbEntity
8
0
100
AcDbCircle
10
-110.87100137090692
20
207.83037367339489
30
-1.771557707496099e-09
40
0.49999944729940204
210
4.7282213274473084e-18
220
1.6681785518871863e-10
230
1
100
AcDbArc
50
-90.000001623969183
51
6.3329059471652148e-05
0
LINE
5
360
100
AcDbEntity
8
0
100
AcDbLine
10
-384.67525508466389
20
206.33038198512054
30
-3.6187683960520183e-08
11
-384.67525766857642
21
109.79063775835137
31
-1.9250903093848137e-08
0
LINE
5
361
100
AcDbEntity
8
0
100
AcDbLine
10
-51.288774500889865
20
207.3303725373195
30
-3.635371115251474e-08
11
-104.77097210661404
21
207.33037405319848
31
-3.6445637618953697e-08
0
ARC
5
362
100
AcDbEntity
8
0
100
AcDbCircle
10
-245.77122198433872
20
207.83037804965602
30
-3.6445637618953697e-08
40
0.50000000000000711
210
0
220
0
230
1
100
AcDbArc
50
180
51
269.99999837602769
0
SPLINE
5
363
100
AcDbEntity
8
0
100
AcDbSpline
70
0
71
3
72
14
73
10
74
0
42
0.000000001
43
0.0000000001
44
0.0000000001
40
0
40
0
40
0
40
0
40
0.11719334201607758
40
0.11719334201607758
40
0.23438668403215485
40
0.23438668403215485
40
0.32189673280556785
40
0.32189673280556785
40
0.40940678157898097
40
0.40940678157898097
40
0.40940678157898097
40
0.40940678157898097
10
-387.05109245292408
20
106.85628649915665
30
-1.8736372453531655e-08
10
-386.66899640834151
20
106.93756206314831
30
-1.8750627717167845e-08
10
-386.30642833515088
20
107.09269244250918
30
-1.8777841503947453e-08
10
-385.66116387086083
20
107.53319918420013
30
-1.8855086381108777e-08
10
-385.38463655973601
20
107.81436406198496
30
-1.8904371401617936e-08
10
-385.00934170590483
20
108.38423069104664
30
-1.9004291473834197e-08
10
-384.8852901406724
20
108.64994937193536
30
-1.9050903077300063e-08
10
-384.71780217657368
20
109.20879078170587
30
-1.9148895802345578e-08
10
-384.67525767638369
20
109.49893759577333
30
-1.9199744016873407e-08
10
-384.67525766857642
20
109.79063775835137
30
-1.925089421206394e-08
0
ELLIPSE
5
364
100
AcDbEntity
8
0
100
AcDbEllipse
10
-51.288774486718111
20
207.83037240693886
30
-3.6441383244323327e-08
11
-0.35355339059326651
21
0.35355339059328272
31
0.0
40
1
41
3.9269910241587356
42
5.4977871437822188
0
ELLIPSE
5
365
100
AcDbEntity
8
0
100
AcDbEllipse
10
-245.77122198433872
20
207.83037804965602
30
-3.6445637618953697e-08
11
0.35355339059325763
21
0.35355339059328994
31
0.0
40
0.99999999999999956
41
0.78539816339735791
42
2.3561944366023915
0
ELLIPSE
5
366
100
AcDbEntity
8
0
100
AcDbEllipse
10
-386.42692723727168
20
103.92193515966612
30
-1.822187734035197e-08
11
-2.1213203435596477
21
2.1213203435596628
31
0.0
40
0.99999999999999944
41
5.7073732405903135
42
7.0685834705770549
0
LINE
5
367
100
AcDbEntity
8
0
100
AcDbLine
10
-376.4169857864033
20
212.92537792781246
30
-3.7334748625994501e-08
11
-376.4169857864033
21
208.33038178097325
31
-3.6529046459317596e-08
0
LINE
5
368
100
AcDbEntity
8
0
100
AcDbLine
10
-377.41698581474679
20
207.33038178097328
30
-3.6353702270730537e-08
11
-383.67525505632011
21
207.33038195835536
31
-3.635371115251474e-08
0
ARC
5
369
100
AcDbEntity
8
0
100
AcDbCircle
10
-33.06301582554088
20
92.321840560443547
30
4.7926437099837689e-10
40
3.0000000000000111
210
-3.5682232830063436e-11
220
1.6775433239826917e-10
230
1
100
AcDbArc
50
102.00815254086581
51
180.00038935167456
0
LINE
5
370
100
AcDbEntity
8
0
100
AcDbLine
10
-31.311321033805175
20
98.190548604555218
30
-1.7216921222029669e-08
11
-31.311321033805232
21
103.92193515966609
31
-1.822187734035197e-08
0
LWPOLYLINE
5
371
100
AcDbEntity
8
0
100
AcDbPolyline
90
8
70
1
43
0.0
10
-268.75675823204307
20
204.33058031253975
10
-254.37550823204307
20
204.3305799108021
42
-0.41421356237307422
10
-253.37550825997789
20
203.33057988286723
10
-253.3755085951957
20
191.3305798828674
42
-0.41421356237311585
10
-254.3755086231306
20
190.33057991080213
10
-268.75675862313062
20
190.33058031253969
42
-0.4142135623730846
10
-269.75675859519572
20
191.33058034047463
10
-269.75675825997791
20
203.33058034047451
42
-0.41421356237313667
0
LWPOLYLINE
5
372
100
AcDbEntity
8
0
100
AcDbPolyline
90
8
70
1
43
0.0
10
-348.62551105380902
20
103.31808254365869
42
0.41421356237307422
10
-349.6255110258744
20
104.31808257159358
10
-361.62551102587418
20
104.31808290681131
42
0.41421356237304818
10
-362.62551105380896
20
103.31808293474623
10
-362.62551138902677
20
91.318082934746357
42
0.41421356237312101
10
-361.6255114169615
20
90.31808290681154
10
-349.62551141696173
20
90.318082571593749
42
0.41421356237307944
10
-348.62551138902688
20
91.318082543658861
0
LWPOLYLINE
5
373
100
AcDbEntity
8
0
100
AcDbPolyline
90
8
70
1
43
0.0
10
-342.57550982851819
20
147.18058237465308
42
0.4142135623730378
10
-343.57550985645304
20
146.18058240258785
10
-343.57551019167079
20
134.18058240258785
42
0.41421356237312623
10
-342.57551021960575
20
133.18058237465317
10
-330.57551021960546
20
133.18058203943519
42
0.41421356237311063
10
-329.57551019167062
20
134.18058201150041
10
-329.57550985645298
20
146.18058201150038
42
0.41421356237304818
10
-330.57550982851802
20
147.18058203943511
0
LWPOLYLINE
5
374
100
AcDbEntity
8
0
100
AcDbPolyline
90
8
70
1
43
0.0
10
-292.56925823204301
20
204.33058097773761
10
-278.18800823204305
20
204.33058057599999
42
-0.41421356237311585
10
-277.18800825997789
20
203.33058054806514
10
-277.1880085951957
20
191.3305805480652
42
-0.4142135623730534
10
-278.18800862313043
20
190.33058057600002
10
-292.56925862313057
20
190.33058097773758
42
-0.41421356237310542
10
-293.56925859519572
20
191.33058100567246
10
-293.56925825997797
20
203.33058100567231
42
-0.41421356237313667
0
LWPOLYLINE
5
375
100
AcDbEntity
8
0
100
AcDbPolyline
90
8
70
1
43
0.0
10
-349.62551021960542
20
133.18058257159348
42
0.41421356237313145
10
-348.62551019167051
20
134.18058254365869
10
-348.62550985645271
20
146.18058254365874
42
0.41421356237313667
10
-349.62550982851792
20
147.18058257159356
10
-361.62550982851792
20
147.18058290681137
42
0.41421356237316265
10
-362.62550985645277
20
146.1805829347461
10
-362.62551019167068
20
134.18058293474618
42
0.41421356237316265
10
-361.62551021960547
20
133.18058290681134
0
LWPOLYLINE
5
376
100
AcDbEntity
8
0
100
AcDbPolyline
90
8
70
1
43
0.0
10
-349.62550862313066
20
190.33058257159354
42
0.41421356237312623
10
-348.62550859519587
20
191.33058254365889
10
-348.62550825997801
20
203.33058254365866
42
0.41421356237311585
10
-349.62550823204316
20
204.33058257159348
10
-361.62550823204288
20
204.33058290681146
42
0.41421356237314705
10
-362.62550825997772
20
203.33058293474625
10
-362.6255085951957
20
191.33058293474633
42
0.41421356237311585
10
-361.62550862313049
20
190.33058290681146
0
LWPOLYLINE
5
377
100
AcDbEntity
8
0
100
AcDbPolyline
90
8
70
1
43
0.0
10
-329.57551072382893
20
115.13058201150044
10
-329.57551038861129
20
127.13058201150037
42
0.41421356237300661
10
-330.57551036067622
20
128.13058203943515
10
-342.57551036067639
20
128.13058237465305
42
0.41421356237309503
10
-343.57551038861124
20
127.13058240258789
10
-343.57551072382921
20
115.13058240258793
42
0.4142135623730846
10
-342.57551075176394
20
114.13058237465307
10
-330.57551075176383
20
114.13058203943524
42
0.41421356237316265
0
LWPOLYLINE
5
378
100
AcDbEntity
8
0
100
AcDbPolyline
90
8
70
1
43
0.0
10
-89.069258595195947
20
191.33057529300203
42
-0.41421356237306384
10
-90.069258623130736
20
190.33057532093682
10
-104.45050862313059
20
190.3305757226745
42
-0.41421356237305862
10
-105.4505085951957
20
191.33057575060928
10
-105.45050825997789
20
203.33057575060928
42
-0.41421356237313145
10
-104.45050823204305
20
204.33057572267444
10
-90.069258232043254
20
204.33057532093693
42
-0.41421356237308982
10
-89.069258259978099
20
203.33057529300197
0
LWPOLYLINE
5
379
100
AcDbEntity
8
0
100
AcDbPolyline
90
20
70
1
43
0.0
10
-63.969259155288931
20
171.28057459183796
42
-0.2679491924311212
10
-64.835284545105921
20
171.78057461603044
42
0.26794919243110621
10
-65.701309934923003
20
172.28057464022265
10
-72.40725912735418
20
172.28057482755202
42
-0.41421356237311324
10
-73.407259099419392
20
173.28057485548686
10
-73.407258736266755
20
186.28057485548686
42
-0.4142135623730846
10
-72.407258708331923
20
187.28057482755204
10
-67.407258708331909
20
187.2805746878779
42
-0.41421356237308982
10
-66.407258736266726
20
186.2805746599432
42
0.41421356237314705
10
-65.407258764201558
20
185.28057463200832
10
-50.531258764201468
20
185.28057421644999
42
0.41421356237305601
10
-49.531258736266622
20
186.28057418851517
42
-0.414213562373069
10
-48.531258708331819
20
187.28057416058036
10
-43.531258708331812
20
187.28057402090624
42
-0.41421356237309764
10
-42.531258736266643
20
186.28057399297145
10
-42.53125909941928
20
173.28057399297137
42
-0.41421356237309503
10
-43.531259127354105
20
172.28057402090624
10
-50.23720831978526
20
172.28057420823575
42
0.26794919243113358
10
-51.103233737537153
20
171.78057423242794
42
-0.26794919243114068
10
-51.969259155289024
20
171.28057425662018
0
LWPOLYLINE
5
380
100
AcDbEntity
8
0
100
AcDbPolyline
90
8
70
1
43
0.0
10
-53.063010723829066
20
115.13057428717391
10
-53.063010388611261
20
127.13057428717391
42
-0.41421356237309503
10
-52.063010360676458
20
128.1305742592391
10
-40.063010360676337
20
128.13057392402126
42
-0.41421356237310281
10
-39.063010388611154
20
127.1305738960865
10
-39.063010723828967
20
115.1305738960865
42
-0.41421356237311324
10
-40.063010751763805
20
114.13057392402126
10
-52.063010751763912
20
114.13057425923913
42
-0.41421356237310025
0
LWPOLYLINE
5
381
100
AcDbEntity
8
0
100
AcDbPolyline
90
8
70
1
43
0.0
10
-39.063011389026855
20
91.318073896086688
10
-39.063011053809056
20
103.31807389608649
42
0.41421356237310802
10
-40.063011025874232
20
104.31807392402128
10
-52.063011025874317
20
104.31807425923907
42
0.41421356237306123
10
-53.063011053809142
20
103.31807428717397
10
-53.063011389026833
20
91.318074287174099
42
0.41421356237312362
10
-52.063011416961693
20
90.318074259239424
10
-40.063011416961643
20
90.31807392402149
42
0.41421356237310802
0
LWPOLYLINE
5
382
100
AcDbEntity
8
0
100
AcDbPolyline
90
8
70
1
43
0.0
10
-44.825510219605505
20
133.18057405706085
42
0.41421356237310025
10
-43.825510191670716
20
134.18057402912606
10
-43.82550985645284
20
146.18057402912603
42
0.41421356237311585
10
-44.825509828518058
20
147.18057405706088
10
-56.825509828518015
20
147.18057439227866
42
0.41421356237309503
10
-57.825509856452832
20
146.18057442021347
10
-57.825510191670716
20
134.18057442021342
42
0.41421356237309503
10
-56.825510219605505
20
133.1805743922786
0
LWPOLYLINE
5
383
100
AcDbEntity
8
0
100
AcDbPolyline
90
8
70
1
43
0.0
10
-42.444259687447222
20
152.23057399054107
42
0.41421356237310802
10
-41.444259659512383
20
153.23057396260626
10
-41.444259324294578
20
165.23057396260626
42
0.41421356237308721
10
-42.444259296359725
20
166.23057399054105
10
-59.206759296359756
20
166.23057445879851
42
0.41421356237311324
10
-60.206759324294566
20
165.23057448673339
10
-60.206759659512414
20
153.23057448673327
42
0.41421356237308982
10
-59.206759687447231
20
152.23057445879846
0
LWPOLYLINE
5
384
100
AcDbEntity
8
0
100
AcDbPolyline
90
8
70
1
43
0.0
10
-65.256758259978099
20
203.33057462780414
10
-65.256758595195805
20
191.33057462780414
42
-0.41421356237309503
10
-66.256758623130622
20
190.33057465573901
10
-80.638008623130787
20
190.33057505747661
42
-0.41421356237309503
10
-81.638008595195956
20
191.33057508541145
10
-81.638008259978136
20
203.33057508541143
42
-0.414213562373069
10
-80.638008232043305
20
204.33057505747649
10
-66.256758232043168
20
204.33057465573887
42
-0.41421356237312362
0
LWPOLYLINE
5
385
100
AcDbEntity
8
0
100
AcDbPolyline
90
8
70
1
43
0.0
10
-58.113010723828957
20
115.13057442824476
42
-0.41421356237307944
10
-59.113010751763817
20
114.13057445617957
10
-71.113010751763767
20
114.13057479139739
42
-0.41421356237310281
10
-72.113010723828978
20
115.13057481933224
10
-72.113010388611173
20
127.1305748193322
42
-0.41421356237311585
10
-71.113010360676313
20
128.13057479139735
10
-59.113010360676348
20
128.13057445617949
42
-0.41421356237309764
10
-58.113010388611258
20
127.13057442824477
0
LWPOLYLINE
5
386
100
AcDbEntity
8
0
100
AcDbPolyline
90
20
70
1
43
0.0
10
-303.82630993492296
20
172.28058129220142
42
-0.26794919243113213
10
-302.96028454510582
20
171.78058126800897
42
0.2679491924311001
10
-302.0942591552888
20
171.28058124381667
10
-290.0942591552888
20
171.28058090859892
42
0.26794919243114868
10
-289.2282337375371
20
171.78058088440656
42
-0.26794919243115761
10
-288.362208319785
20
172.2805808602144
10
-281.65625912735413
20
172.28058067288487
42
0.41421356237307422
10
-280.65625909941923
20
173.28058064494999
10
-280.65625873626647
20
186.28058064495011
42
0.41421356237307422
10
-281.65625870833173
20
187.28058067288487
10
-286.65625870833173
20
187.28058081255898
42
0.41421356237307422
10
-287.65625873626664
20
186.28058084049385
42
-0.41421356237312623
10
-288.65625876420143
20
185.28058086842859
10
-303.53225876420134
20
185.28058128398698
42
-0.41421356237312623
10
-304.53225873626656
20
186.28058131192176
42
0.41421356237312623
10
-305.53225870833177
20
187.28058133985655
10
-310.53225870833194
20
187.28058147953075
42
0.41421356237311585
10
-311.53225873626684
20
186.28058150746554
10
-311.53225909941921
20
173.28058150746554
42
0.41421356237306384
10
-310.53225912735422
20
172.28058147953089
0
LWPOLYLINE
5
387
100
AcDbEntity
8
0
100
AcDbPolyline
90
8
70
1
43
0.0
10
-115.00675867900014
20
188.33057601756133
42
0.41421356237310025
10
-114.00675865106544
20
189.33057598962645
10
-114.00675828791273
20
202.33057598962657
42
0.41421356237309503
10
-115.00675825997794
20
203.33057601756138
10
-124.76300825997791
20
203.33057629010051
42
0.41421356237312623
10
-125.76300828791273
20
202.33057631803524
10
-125.76300865106539
20
189.33057631803521
42
0.41421356237311585
10
-124.76300867900015
20
188.33057629010034
0
LWPOLYLINE
5
388
100
AcDbEntity
8
0
100
AcDbPolyline
90
8
70
1
43
0.0
10
-233.03801102587414
20
104.3180793147429
10
-221.0380110258742
20
104.31807897952507
42
-0.414213562373069
10
-220.0380110538089
20
103.31807895159022
10
-220.03801138902676
20
91.318078951590422
42
-0.414213562373069
10
-221.03801141696167
20
90.318078979525239
10
-233.03801141696169
20
90.318079314743045
42
-0.414213562373069
10
-234.03801138902679
20
91.318079342677891
10
-234.03801105380899
20
103.31807934267771
42
-0.4142135623730846
0
LWPOLYLINE
5
389
100
AcDbEntity
8
0
100
AcDbPolyline
90
8
70
1
43
0.0
10
-104.4505096874471
20
152.23057572267442
10
-92.450509687447337
20
152.23057538745653
42
0.41421356237309503
10
-91.450509659512477
20
153.23057535952177
10
-91.4505093242947
20
165.23057535952182
42
0.41421356237305862
10
-92.450509296359854
20
166.23057538745658
10
-104.4505092963597
20
166.23057572267453
42
0.41421356237304818
10
-105.45050932429453
20
165.23057575060929
10
-105.45050965951232
20
153.23057575060918
42
0.41421356237311063
0
LWPOLYLINE
5
390
100
AcDbEntity
8
0
100
AcDbPolyline
90
8
70
1
43
0.0
10
-248.613011053809
20
103.31807974982759
10
-248.61301138902675
20
91.318079749827845
42
-0.414213562373069
10
-249.61301141696165
20
90.318079777762662
10
-261.61301141696151
20
90.318080112980525
42
-0.41421356237310542
10
-262.61301138902672
20
91.318080140915313
10
-262.61301105380886
20
103.31808014091509
42
-0.41421356237310542
10
-261.61301102587407
20
104.31808011298024
10
-249.61301102587416
20
104.31807977776243
42
-0.41421356237310025
0
LWPOLYLINE
5
391
100
AcDbEntity
8
0
100
AcDbPolyline
90
8
70
1
43
0.0
10
-172.12550912735409
20
172.28057761316333
42
0.4142135623730846
10
-171.12550915528888
20
171.28057758522854
10
-159.12550915528882
20
171.28057725001059
42
0.41421356237310025
10
-158.12550912735398
20
172.28057722207581
10
-158.12550879213615
20
184.28057722207583
42
0.4142135623730846
10
-159.12550876420138
20
185.28057725001065
10
-171.12550876420133
20
185.28057758522846
42
0.41421356237307422
10
-172.12550879213615
20
184.2805776131633
0
LWPOLYLINE
5
392
100
AcDbEntity
8
0
100
AcDbPolyline
90
20
70
1
43
0.0
10
-286.41875965951226
20
153.2305808059244
10
-293.1247088519433
20
153.23058099325391
42
0.26794919243122545
10
-293.99073426969545
20
152.7305810174459
42
-0.26794919243108939
10
-294.85675968744721
20
152.2305810416384
10
-306.85675968744721
20
152.23058137685621
42
-0.26794919243114856
10
-307.72278507726423
20
152.73058140104848
42
0.26794919243111237
10
-308.58881046708126
20
153.23058142524081
10
-315.29475965951235
20
153.23058161257018
42
-0.41421356237312623
10
-316.29475963157762
20
154.23058164050508
10
-316.2947592684248
20
167.23058164050516
42
-0.41421356237307422
10
-315.29475924049001
20
168.23058161257021
10
-310.29475924049007
20
168.23058147289623
42
-0.41421356237306384
10
-309.2947592684248
20
167.23058144496147
42
0.41421356237311585
10
-308.2947592963597
20
166.23058141702654
10
-293.41875929635967
20
166.23058100146821
42
0.41421356237306384
10
-292.41875926842488
20
167.23058097353342
42
-0.41421356237312623
10
-291.41875924049009
20
168.2305809455986
10
-286.41875924049009
20
168.23058080592443
42
-0.41421356237312623
10
-285.41875926842488
20
167.2305807779897
10
-285.41875963157747
20
154.23058077798959
42
-0.41421356237307944
0
LWPOLYLINE
5
393
100
AcDbEntity
8
0
100
AcDbPolyline
90
8
70
1
43
0.0
10
-100.97550912735397
20
172.28057562560096
10
-100.97550879213621
20
184.28057562560093
42
0.4142135623730846
10
-101.97550876420141
20
185.28057565353578
10
-113.97550876420139
20
185.28057598875361
42
0.41421356237312623
10
-114.9755087921362
20
184.28057601668823
10
-114.97550912735406
20
172.28057601668834
42
0.41421356237313667
10
-113.97550915528882
20
171.28057598875347
10
-101.97550915528886
20
171.28057565353572
42
0.41421356237310542
0
LWPOLYLINE
5
394
100
AcDbEntity
8
0
100
AcDbPolyline
90
8
70
1
43
0.0
10
-223.5130107517638
20
114.13057904866371
42
-0.41421356237311585
10
-224.51301072382898
20
115.13057907659856
10
-224.51301038861104
20
127.13057907659851
42
-0.41421356237310025
10
-223.51301036067625
20
128.13057904866369
10
-211.51301036067622
20
128.13057871344594
42
-0.41421356237311585
10
-210.51301038861098
20
127.13057868551107
10
-210.51301072382884
20
115.13057868551108
42
-0.41421356237306384
10
-211.51301075176372
20
114.13057871344593
0
LWPOLYLINE
5
395
100
AcDbEntity
8
0
100
AcDbPolyline
90
8
70
1
43
0.0
10
-290.18800982851803
20
147.18058091121782
42
0.41421356237310025
10
-291.18800985645282
20
146.18058093915261
10
-291.18801019167057
20
134.18058093915258
42
0.4142135623730846
10
-290.18801021960536
20
133.18058091121773
10
-278.18801021960542
20
133.1805805759999
42
0.41421356237307422
10
-277.18801019167063
20
134.18058054806517
10
-277.18800985645282
20
146.18058054806508
42
0.41421356237307944
10
-278.18800982851792
20
147.1805805759999
0
LWPOLYLINE
5
396
100
AcDbEntity
8
0
100
AcDbPolyline
90
8
70
1
43
0.0
10
-197.22550915528885
20
171.28057831432727
10
-209.22550915528893
20
171.28057864954511
42
-0.41421356237309503
10
-210.22550912735412
20
172.28057867747981
10
-210.22550879213614
20
184.28057867747987
42
-0.41421356237309503
10
-209.22550876420132
20
185.28057864954502
10
-197.22550876420144
20
185.2805783143273
42
-0.41421356237306384
10
-196.2255087921362
20
184.28057828639248
10
-196.22550912735409
20
172.2805782863924
42
-0.41421356237307422
0
LWPOLYLINE
5
397
100
AcDbEntity
8
0
100
AcDbPolyline
90
8
70
1
43
0.0
10
-185.41300862313048
20
190.33057798434723
10
-161.50675862313054
20
190.33057731653045
42
0.4142135623730846
10
-160.50675859519572
20
191.33057728859569
10
-160.50675825997791
20
203.33057728859558
42
0.41421356237306384
10
-161.50675823204313
20
204.33057731653037
10
-185.41300823204318
20
204.33057798434714
42
0.41421356237307422
10
-186.413008259978
20
203.33057801228199
10
-186.41300859519572
20
191.33057801228202
42
0.4142135623730534
0
LWPOLYLINE
5
398
100
AcDbEntity
8
0
100
AcDbPolyline
90
8
70
1
43
0.0
10
-140.07550876420135
20
185.28057671785231
10
-152.07550876420137
20
185.2805770530702
42
0.41421356237307944
10
-153.07550879213619
20
184.28057708100499
10
-153.07550912735405
20
172.28057708100499
42
0.41421356237307944
10
-152.07550915528881
20
171.28057705307026
10
-140.07550915528878
20
171.28057671785226
42
0.41421356237308982
10
-139.075509127354
20
172.28057668991752
10
-139.07550879213622
20
184.28057668991744
42
0.41421356237310542
0
LINE
5
399
100
AcDbEntity
8
0
100
AcDbLine
10
-61.521868611948214
20
90.587131460030918
30
-1.5883721005138796e-08
11
-61.521868611948214
21
92.584883605382444
31
8.8817841970012523e-15
0
ELLIPSE
5
400
100
AcDbEntity
8
0
100
AcDbEllipse
10
-61.781576381317898
20
92.584883605382444
30
-1.6234009692084328e-08
11
0.25970776936967271
21
-8.8817854171564195e-15
31
0.0
40
0.99999999999999956
41
0
42
1.5707962732051381
0
ARC
5
401
100
AcDbEntity
8
0
100
AcDbCircle
10
-68.893573975547028
20
91.845523142527441
30
-4.2923815300925776e-06
40
0.25970776936968687
210
6.2009602879979746e-08
220
-4.5881340453630933e-11
230
0.99999999999999822
100
AcDbArc
50
179.95760645828733
51
267.79579021353743
0
LINE
5
402
100
AcDbEntity
8
0
100
AcDbLine
10
-60.503015036870984
20
90.337412441861957
30
-1.5839933809047579e-08
11
-61.252172091377808
21
90.337412441861957
31
8.8817841970012523e-15
0
ELLIPSE
5
403
100
AcDbEntity
8
0
100
AcDbEllipse
10
-61.272150876776934
20
90.586330975059553
30
-1.5883578896591647e-08
11
-0.24891853319758211
21
-0.019978785399130686
31
0.0
40
0.99999999999999956
41
6.1998891012265345
42
7.8539816339744259
0
LINE
5
404
100
AcDbEntity
8
0
100
AcDbLine
10
-68.903562655657794
20
91.586007532706702
30
-1.5496884007037804e-08
11
-65.597283388558367
21
91.586007532706674
31
8.8817841970012523e-15
0
LINE
5
405
100
AcDbEntity
8
0
100
AcDbLine
10
-62.800429956395121
20
92.584883605382444
30
-1.6234009692084328e-08
11
-62.800429956395121
21
90.587131460030918
31
8.8817841970012523e-15
0
ARC
5
406
100
AcDbEntity
8
0
100
AcDbCircle
10
-65.597090990865595
20
91.326299834603404
30
-1.6431284030460606e-08
40
0.25970776936967011
210
6.7322470469090155e-12
220
2.5912222018156719e-13
230
1
100
AcDbArc
50
2.2042097475297648
51
90.042446080142071
0
ELLIPSE
5
407
100
AcDbEntity
8
0
100
AcDbEllipse
10
-62.540722187025452
20
92.584883605382444
30
-1.6234009692084328e-08
11
1.4078786388101542e-20
21
0.25970776936968154
31
0.0
40
1
41
6.283185307179501
42
7.8539816339745396
0
LINE
5
408
100
AcDbEntity
8
0
100
AcDbLine
10
-61.781576381317898
20
92.844591374752127
30
-1.627954659966235e-08
11
-62.540722187025452
21
92.844591374752099
31
8.8817841970012523e-15
0
ELLIPSE
5
409
100
AcDbEntity
8
0
100
AcDbEllipse
10
-63.050148974564067
20
90.587131460030918
30
-1.5883721005138796e-08
11
-1.3537295100488327e-20
21
-0.24971901816893921
31
0.0
40
1
41
0
42
1.5707963267948966
0
ARC
5
410
100
AcDbEntity
8
0
100
AcDbCircle
10
-63.8094871779644
20
90.597120139965227
30
-1.6291576221331597e-08
40
0.25970776936966872
210
6.7322470469090874e-12
220
2.5912222018064823e-13
230
1
100
AcDbArc
50
182.20420974752329
51
270.04244608014363
0
LINE
5
411
100
AcDbEntity
8
0
100
AcDbLine
10
-64.069002787791902
20
90.587131460030946
30
-1.5883721005138796e-08
11
-64.069002787791916
21
95.171972786029087
31
8.8817841970012523e-15
0
ELLIPSE
5
412
100
AcDbEntity
8
0
100
AcDbEllipse
10
-68.90356265565778
20
95.171972786029073
30
-1.668763793816197e-08
11
1.3537295100488327e-20
21
0.24971901816893921
31
0.0
40
1
41
6.2831853071795294
42
7.8539816339744259
0
LINE
5
413
100
AcDbEntity
8
0
100
AcDbLine
10
-371.81698578640322
20
208.33038162224906
30
-3.6529055336131933e-08
11
-251.87100418722648
21
208.33037822254573
31
-3.653332747433069e-08
0
LINE
5
414
100
AcDbEntity
8
0
100
AcDbLine
10
-251.87100420139828
20
207.33037822254573
30
-3.6357965527145091e-08
11
-371.81698580057486
21
207.33038162224915
31
-3.635371115251474e-08
0
ELLIPSE
5
415
100
AcDbEntity
8
0
100
AcDbEllipse
10
-137.86596686560915
20
198.84532021663048
30
-3.4865923481675054e-08
11
6.9852442718520755e-20
21
1.2885501337517451
31
0.0
40
1
41
0
42
6.2831853071795862
0
ARC
5
416
100
AcDbEntity
8
0
100
AcDbCircle
10
-251.8710041872265
20
207.83037822254585
30
-1.0794321183958017e-13
40
0.50000000000000733
210
4.9703800707111064e-18
220
1.753619471855775e-10
230
1
100
AcDbArc
50
-90.000001623965773
51
89.999999999996746
0
CIRCLE
5
417
100
AcDbEntity
8
0
100
AcDbCircle
10
-293.57111426848627
20
211.12784592667893
30
-3.7019560750195524e-08
40
1.7999999999999972
210
0
220
0
230
1
0
CIRCLE
5
418
100
AcDbEntity
8
0
100
AcDbCircle
10
-165.57098812581302
20
211.12779180521864
30
-3.7019551868411327e-08
40
1.7999999999999972
210
0
220
0
230
1
0
CIRCLE
5
419
100
AcDbEntity
8
0
100
AcDbCircle
10
-34.187198329911105
20
101.12188616118851
30
-1.7730901191725934e-08
40
1.800000000000006
210
0
220
0
230
1
0
ELLIPSE
5
420
100
AcDbEntity
8
0
100
AcDbEllipse
10
-134.26002424324957
20
195.61895050188778
30
-3.4300207119031256e-08
11
6.9852442718520755e-20
21
1.2885501337517451
31
0.0
40
1
41
0
42
6.2831853071795862
0
CIRCLE
5
421
100
AcDbEntity
8
0
100
AcDbCircle
10
-51.988775805952194
20
211.12774377999131
30
-3.701954298662713e-08
40
1.800000000000006
210
0
220
0
230
1
0
ELLIPSE
5
422
100
AcDbEntity
8
0
100
AcDbEllipse
10
-148.68379473268772
20
195.61895050188781
30
-3.4300207119031256e-08
11
6.9852442718520755e-20
21
1.2885501337517451
31
0.0
40
1
41
0
42
6.2831853071795862
0
ELLIPSE
5
423
100
AcDbEntity
8
0
100
AcDbEllipse
10
-152.28973735504718
20
198.84532021663048
30
-3.4865923481675054e-08
11
6.9852442718520755e-20
21
1.2885501337517451
31
0.0
40
1
41
0
42
6.2831853071795862
0
ELLIPSE
5
424
100
AcDbEntity
8
0
100
AcDbEllipse
10
-64.318721805960863
20
95.171972786029073
30
-1.668763793816197e-08
11
0.24971901816893932
21
-2.7074590200971099e-20
31
0.0
40
0.99999999999999944
41
1.7053025658243374e-13
42
1.5707963267949534
0
LINE
5
425
100
AcDbEntity
8
0
100
AcDbLine
10
-64.318721805960863
20
95.421691804198019
30
-1.668763793816197e-08
11
-68.90356265565778
21
95.421691804198034
31
8.8817841970012523e-15
0
LINE
5
426
100
AcDbEntity
8
0
100
AcDbLine
10
-63.050148974564067
20
90.337412441861972
30
-1.5883721005138796e-08
11
-63.809294780271621
21
90.337412441861957
31
8.8817841970012523e-15
0
LINE
5
427
100
AcDbEntity
8
0
100
AcDbLine
10
-69.153281673826712
20
95.171972786029087
30
-1.668763793816197e-08
11
-69.153281673826754
21
91.8457153020764
31
8.8817826091901271e-15
0
ELLIPSE
5
428
100
AcDbEntity
8
0
100
AcDbEllipse
10
-130.65408162089011
20
198.84532021663048
30
-3.4865923481675054e-08
11
6.9852442718520755e-20
21
1.2885501337517451
31
0.0
40
1
41
0
42
6.2831853071795862
0
ARC
5
429
100
AcDbEntity
8
0
100
AcDbCircle
10
-371.81698578640317
20
207.83038162224904
30
4.1660430812996214e-12
40
0.49999999999997158
210
-4.9840863080591605e-23
220
1.7536194718559024e-10
230
1
100
AcDbArc
50
90.000000000006523
51
269.999998376044
0
ELLIPSE
5
430
100
AcDbEntity
8
0
100
AcDbEllipse
10
-152.28973735504724
20
195.61895050188778
30
-3.4300207119031256e-08
11
6.9852442718520755e-20
21
1.2885501337517451
31
0.0
40
1
41
0
42
6.2831853071795862
0
ELLIPSE
5
431
100
AcDbEntity
8
0
100
AcDbEllipse
10
-137.86596686560915
20
195.61895050188778
30
-3.4300207119031256e-08
11
6.9852442718520755e-20
21
1.2885501337517451
31
0.0
40
1
41
0
42
6.2831853071795862
0
ELLIPSE
5
432
100
AcDbEntity
8
0
100
AcDbEllipse
10
-70.17213572520518
20
96.400590374472316
30
-1.6903065613860235e-08
11
1.3537295100488327e-20
21
0.24971901816893921
31
0.0
40
1
41
0
42
1.5707963267948966
0
LINE
5
433
100
AcDbEntity
8
0
100
AcDbLine
10
-60.253296018702045
20
98.987679078817706
30
-1.7356693859937877e-08
11
-60.253296018702045
21
90.587131460030918
31
8.8817841970012523e-15
0
LINE
5
434
100
AcDbEntity
8
0
100
AcDbLine
10
-62.780452453993654
20
96.400590374472316
30
-1.6903065613860235e-08
11
-62.780452453993654
21
94.402838229120789
31
8.8817841970012523e-15
0
LINE
5
435
100
AcDbEntity
8
0
100
AcDbLine
10
-70.17213572520518
20
96.650309392641262
30
-1.6903065613860235e-08
11
-63.0301714721626
21
96.650309392641276
31
8.8817841970012523e-15
0
ELLIPSE
5
436
100
AcDbEntity
8
0
100
AcDbEllipse
10
-61.761406719367464
20
94.412826909231441
30
-1.6554526638401512e-08
11
-0.0099886801106485838
21
-0.25951560982071531
31
0.0
40
1
41
0.037730811294146759
42
1.5707963267948397
0
LINE
5
437
100
AcDbEntity
8
0
100
AcDbLine
10
-358.65752421521159
20
158.7903884830011
30
-2.7842617100759529e-08
11
-358.65752421521165
21
159.5495364320642
31
8.8817841970012523e-15
0
ELLIPSE
5
438
100
AcDbEntity
8
0
100
AcDbEllipse
10
-155.8956799774067
20
195.61895050188778
30
-3.4300207119031256e-08
11
6.9852442718520755e-20
21
1.2885501337517451
31
0.0
40
1
41
0
42
6.2831853071795862
0
ELLIPSE
5
439
100
AcDbEntity
8
0
100
AcDbEllipse
10
-65.53757538103811
20
90.537412441861989
30
-1.587499909305734e-08
11
-0.20000000000001364
21
-8.8817950390252213e-15
31
0.0
40
0.99999999999999944
41
1.5707962732051381
42
3.1415925999998642
0
ELLIPSE
5
440
100
AcDbEntity
8
0
100
AcDbEllipse
10
-70.17213572520518
20
90.587131460030918
30
-1.5883721005138796e-08
11
-0.24971901816893932
21
2.7074590200971099e-20
31
0.0
40
0.99999999999999944
41
6.2831853071795294
42
7.8539816339744828
0
LINE
5
441
100
AcDbEntity
8
0
100
AcDbLine
10
-65.597283388558367
20
103.07308236847805
30
-1.8073027518994422e-08
11
-66.985720519912121
21
103.07308236847805
31
8.8817841970012523e-15
0
ELLIPSE
5
442
100
AcDbEntity
8
0
100
AcDbEllipse
10
-202.0837095779342
20
195.61895050188778
30
-3.4300207119031256e-08
11
6.9852442718519804e-20
21
1.2885501337517271
31
0.0
40
1
41
0
42
6.2831853071795862
0
LINE
5
443
100
AcDbEntity
8
0
100
AcDbLine
10
-67.245428527432423
20
102.80338537160638
30
-1.8025740899929588e-08
11
-67.245428527432395
21
99.497106104506997
31
8.8817841970012523e-15
0
LINE
5
444
100
AcDbEntity
8
0
100
AcDbLine
10
-358.40780519704248
20
159.7992554502332
30
-2.8019515596611203e-08
11
-356.41005305169085
21
159.79925545023315
31
8.8817841970012523e-15
0
ELLIPSE
5
445
100
AcDbEntity
8
0
100
AcDbEllipse
10
-209.29559482265319
20
198.84532021663048
30
-3.4865923481675054e-08
11
6.9852442718519804e-20
21
1.2885501337517271
31
0.0
40
1
41
0
42
6.2831853071795862
0
ARC
5
446
100
AcDbEntity
8
0
100
AcDbCircle
10
-62.520936844172866
20
94.412826909231484
30
-3.7674083516901354e-06
40
0.25970776936967011
210
6.3695771392033907e-08
220
2.4516316581964891e-09
230
0.99999999999999811
100
AcDbArc
50
182.20420978646592
51
270.04239354170642
0
ELLIPSE
5
447
100
AcDbEntity
8
0
100
AcDbEllipse
10
-205.68965220029369
20
198.84532021663048
30
-3.4865923481675054e-08
11
6.9852442718519804e-20
21
1.2885501337517271
31
0.0
40
1
41
0
42
6.2831853071795862
0
ELLIPSE
5
448
100
AcDbEntity
8
0
100
AcDbEllipse
10
-205.68965220029369
20
195.61895050188778
30
-3.4300207119031256e-08
11
6.9852442718519804e-20
21
1.2885501337517271
31
0.0
40
1
41
0
42
6.2831853071795862
0
ELLIPSE
5
449
100
AcDbEntity
8
0
100
AcDbEllipse
10
-66.98591294142507
20
102.81337467039239
30
-1.8027499493200597e-08
11
-0.0099892987860172953
21
0.25951558600734626
31
0.0
40
1
41
6.243971289466713
42
7.8539816339743691
0
LINE
5
450
100
AcDbEntity
8
0
100
AcDbLine
10
-66.995709509263463
20
99.237398096986709
30
-1.7400472174244896e-08
11
-65.597282912257143
21
99.237398096986709
31
1.7763568394002505e-14
0
ELLIPSE
5
451
100
AcDbEntity
8
0
100
AcDbEllipse
10
-338.1406316304118
20
160.82810420657762
30
-2.8199913515436492e-08
11
2.7074590200970021e-20
21
0.24971901816890374
31
0.0
40
1
41
6.2831853071791315
42
7.8539816339743691
0
ARC
5
452
100
AcDbEntity
8
0
100
AcDbCircle
10
-66.995909376806352
20
99.487117035171622
30
-4.9717348027052676e-06
40
0.24971901816893471
210
6.9799675313740794e-08
220
-2.7943097535608975e-09
230
0.99999999999999756
100
AcDbArc
50
177.70748635986689
51
270.04585781245163
0
ARC
5
453
100
AcDbEntity
8
0
100
AcDbCircle
10
-355.11151651366384
20
162.09686014773868
30
-2.8422375564218783e-08
40
0.25970776936959999
210
0
220
0
230
1
100
AcDbArc
50
-0.042866387578303841
51
87.795790565633126
0
LINE
5
454
100
AcDbEntity
8
0
100
AcDbLine
10
-65.337575381038079
20
98.987679078817706
30
-1.7356693859937877e-08
11
-65.337575381038107
21
98.218544521909422
31
8.8817841970012523e-15
0
ELLIPSE
5
455
100
AcDbEntity
8
0
100
AcDbEllipse
10
-356.420041730207
20
160.05877106011522
30
-2.8065008095268243e-08
11
0.00019430284311283688
21
-0.2597076966848989
31
0.0
40
1
41
0.037722552432708237
42
1.5707963267948966
0
ELLIPSE
5
456
100
AcDbEntity
8
0
100
AcDbEllipse
10
-202.0837095779342
20
198.84532021663045
30
-3.4865923481675054e-08
11
6.9852442718519804e-20
21
1.2885501337517271
31
0.0
40
1
41
0
42
6.2831853071795862
0
ELLIPSE
5
457
100
AcDbEntity
8
0
100
AcDbEllipse
10
-60.503015036870984
20
90.587131460030918
30
-1.5883721005138796e-08
11
-1.3537295100488327e-20
21
-0.24971901816893921
31
0.0
40
1
41
2.8421709430404007e-14
42
1.5707962732051381
0
ELLIPSE
5
458
100
AcDbEntity
8
0
100
AcDbEllipse
10
-191.27587047158241
20
195.61895050188781
30
-3.4300207119031256e-08
11
6.9852442718519804e-20
21
1.2885501337517271
31
0.0
40
1
41
0
42
6.2831853071795862
0
CIRCLE
5
459
100
AcDbEntity
8
0
100
AcDbCircle
10
-386.55109256593533
20
101.12188763827588
30
-1.7730910073510131e-08
40
1.7999999999999972
210
0
220
0
230
1
0
LINE
5
460
100
AcDbEntity
8
0
100
AcDbLine
10
-356.41005305169108
20
161.07781560392695
30
-2.8243691829743511e-08
11
-358.40780519704248
21
161.07780798310731
31
-2.8243700711527708e-08
0
LINE
5
461
100
AcDbEntity
8
0
100
AcDbLine
10
-61.501891109546747
20
94.402838229120789
30
-1.6554526638401512e-08
11
-61.501891109546733
21
98.987679078817763
31
8.8817841970012523e-15
0
ELLIPSE
5
462
100
AcDbEntity
8
0
100
AcDbEllipse
10
-60.503015036870984
20
98.987679078817706
30
-1.7356693859937877e-08
11
0.24971901816893932
21
-2.7074590200971099e-20
31
0.0
40
0.99999999999999944
41
0
42
1.570796326794925
0
LINE
5
463
100
AcDbEntity
8
0
100
AcDbLine
10
-338.39035064858075
20
160.82810420657765
30
-2.8199913515436492e-08
11
-338.39035064858086
21
157.53181011841983
31
-2.7621895881679851e-08
0
ELLIPSE
5
464
100
AcDbEntity
8
0
100
AcDbEllipse
10
-194.88181309394184
20
198.84532021663045
30
-3.4865923481675054e-08
11
6.9852442718519804e-20
21
1.2885501337517271
31
0.0
40
1
41
0
42
6.2831853071795862
0
ELLIPSE
5
465
100
AcDbEntity
8
0
100
AcDbEllipse
10
-198.47776695557471
20
195.61895050188781
30
-3.4300207119031256e-08
11
6.9852442718519804e-20
21
1.2885501337517271
31
0.0
40
1
41
0
42
6.2831853071795862
0
ELLIPSE
5
466
100
AcDbEntity
8
0
100
AcDbEllipse
10
-191.27587047158241
20
198.84532021663048
30
-3.4865923481675054e-08
11
6.9852442718519804e-20
21
1.2885501337517271
31
0.0
40
1
41
0
42
6.2831853071795862
0
ELLIPSE
5
467
100
AcDbEntity
8
0
100
AcDbEllipse
10
-130.65408162089011
20
195.61895050188778
30
-3.4300207119031256e-08
11
6.9852442718520755e-20
21
1.2885501337517451
31
0.0
40
1
41
0
42
6.2831853071795862
0
LINE
5
468
100
AcDbEntity
8
0
100
AcDbLine
10
-65.337575381038079
20
104.07195844115378
30
-1.8248176303359287e-08
11
-65.337575381038107
21
103.32280138664694
31
8.8817841970012523e-15
0
LINE
5
469
100
AcDbEntity
8
0
100
AcDbLine
10
-65.337575381038107
20
91.336288514537713
30
-1.6015082593412447e-08
11
-65.337575381038079
21
90.537412441861974
31
-1.587499909305734e-08
0
ELLIPSE
5
470
100
AcDbEntity
8
0
100
AcDbEllipse
10
-145.07785211032819
20
198.84532021663048
30
-3.4865923481675054e-08
11
6.9852442718520755e-20
21
1.2885501337517451
31
0.0
40
1
41
0
42
6.2831853071795862
0
ELLIPSE
5
471
100
AcDbEntity
8
0
100
AcDbEllipse
10
-68.753539228104628
20
102.79339669167207
30
-1.8023991188442775e-08
11
-0.00019239769278200935
21
0.25970769810326655
31
0.0
40
1
41
4.7501188740306377
42
6.2831853071794725
0
LINE
5
472
100
AcDbEntity
8
0
100
AcDbLine
10
-354.85180881697897
20
162.09666584489554
30
-2.8422375564218783e-08
11
-354.85180881697909
21
158.7903884830011
31
8.8817841970012523e-15
0
LINE
5
473
100
AcDbEntity
8
0
100
AcDbLine
10
-356.16033403352213
20
160.05896536295833
30
-2.8065008095268243e-08
11
-356.16033403352208
21
160.828096585758
31
1.7763568394002505e-14
0
ELLIPSE
5
474
100
AcDbEntity
8
0
100
AcDbEllipse
10
-70.142169066568158
20
103.31261999960283
30
-1.8115029476462038e-08
11
-0.25951560982750999
21
0.009988679934327397
31
0.0
40
0.99999999999999933
41
0.037729893645893728
42
1.5707963267948966
0
LINE
5
475
100
AcDbEntity
8
0
100
AcDbLine
10
-65.537575381038081
20
90.337412441861957
30
-1.5839933809047579e-08
11
-70.17213572520518
21
90.337412441861957
31
8.8817841970012523e-15
0
LINE
5
476
100
AcDbEntity
8
0
100
AcDbLine
10
-62.520744684624034
20
94.153119210951871
30
-1.593005877412132e-08
11
-61.761598878916431
21
94.153119210951886
31
8.8817841970012523e-15
0
ELLIPSE
5
477
100
AcDbEntity
8
0
100
AcDbEllipse
10
-61.252172091377808
20
98.987679078817763
30
-1.7356693859937877e-08
11
1.3537295100488327e-20
21
0.24971901816893921
31
0.0
40
1
41
6.2831853071795578
42
7.8539815803847244
0
ARC
5
478
100
AcDbEntity
8
0
100
AcDbCircle
10
-358.39781651852661
20
158.79019418015795
30
-2.7842581573622738e-08
40
0.25970776936967099
210
-1.3679654996586801e-13
220
1.0234567142419872e-16
230
1
100
AcDbArc
50
179.9571336124217
51
267.79579056562108
0
ELLIPSE
5
479
100
AcDbEntity
8
0
100
AcDbEllipse
10
-145.07785211032819
20
195.61895050188778
30
-3.4300207119031256e-08
11
6.9852442718520755e-20
21
1.2885501337517451
31
0.0
40
1
41
0
42
6.2831853071795862
0
LINE
5
480
100
AcDbEntity
8
0
100
AcDbLine
10
-355.10152783514809
20
158.53067857027588
30
-2.77970801931815e-08
11
-358.40780519704248
21
158.53067857027588
31
1.7763568394002505e-14
0
LINE
5
481
100
AcDbEntity
8
0
100
AcDbLine
10
-61.252172091377801
20
99.237398096986709
30
-1.7356693859937877e-08
11
-60.503015036870984
21
99.237398096986709
31
1.7763568394002505e-14
0
CIRCLE
5
482
100
AcDbEntity
8
0
100
AcDbCircle
10
-371.11698549058963
20
211.12787871489485
30
-3.7019569631979721e-08
40
1.7999999999999972
210
0
220
0
230
1
0
ELLIPSE
5
483
100
AcDbEntity
8
0
100
AcDbEllipse
10
-148.68379473268769
20
198.84532021663048
30
-3.4865923481675054e-08
11
6.9852442718520755e-20
21
1.2885501337517451
31
0.0
40
1
41
0
42
6.2831853071795862
0
ELLIPSE
5
484
100
AcDbEntity
8
0
100
AcDbEllipse
10
-63.0301714721626
20
96.400590374472316
30
-1.6903065613860235e-08
11
0.24971901816893932
21
-2.7074590200971099e-20
31
0.0
40
0.99999999999999944
41
0
42
1.5707963267948681
0
ELLIPSE
5
485
100
AcDbEntity
8
0
100
AcDbEllipse
10
-198.47776695557471
20
198.84532021663048
30
-3.4865923481675054e-08
11
6.9852442718519804e-20
21
1.2885501337517271
31
0.0
40
1
41
0
42
6.2831853071795862
0
ELLIPSE
5
486
100
AcDbEntity
8
0
100
AcDbEllipse
10
-155.8956799774067
20
198.84532021663048
30
-3.4865923481675054e-08
11
6.9852442718520755e-20
21
1.2885501337517451
31
0.0
40
1
41
0
42
6.2831853071795862
0
ELLIPSE
5
487
100
AcDbEntity
8
0
100
AcDbEllipse
10
-194.88181309394193
20
195.61895050188778
30
-3.4300207119031256e-08
11
6.9852442718519804e-20
21
1.2885501337517271
31
0.0
40
1
41
0
42
6.2831853071795862
0
ELLIPSE
5
488
100
AcDbEntity
8
0
100
AcDbEllipse
10
-141.4719094879687
20
195.61895050188781
30
-3.4300207119031256e-08
11
6.9852442718520755e-20
21
1.2885501337517451
31
0.0
40
1
41
0
42
6.2831853071795862
0
LINE
5
489
100
AcDbEntity
8
0
100
AcDbLine
10
-70.421854743374126
20
90.587131460030932
30
-1.5883721005138796e-08
11
-70.421854743374126
21
96.400590374472316
31
8.8817841970012523e-15
0
ELLIPSE
5
490
100
AcDbEntity
8
0
100
AcDbEllipse
10
-134.26002424324957
20
198.84532021663048
30
-3.4865923481675054e-08
11
6.9852442718520755e-20
21
1.2885501337517451
31
0.0
40
1
41
0
42
6.2831853071795862
0
ELLIPSE
5
491
100
AcDbEntity
8
0
100
AcDbEllipse
10
-141.4719094879687
20
198.84532021663048
30
-3.4865923481675054e-08
11
6.9852442718520755e-20
21
1.2885501337517451
31
0.0
40
1
41
0
42
6.2831853071795862
0
ELLIPSE
5
492
100
AcDbEntity
8
0
100
AcDbEllipse
10
-209.29559482265319
20
195.61895050188778
30
-3.4300207119031256e-08
11
6.9852442718519804e-20
21
1.2885501337517271
31
0.0
40
1
41
0
42
6.2831853071795862
0
LWPOLYLINE
5
493
100
AcDbEntity
8
0
100
AcDbPolyline
90
8
70
1
43
0.0
10
-191.17550912735402
20
172.2805781453215
42
0.41421356237309503
10
-190.17550915528884
20
171.28057811738668
10
-178.17550915528892
20
171.2805777821689
42
0.41421356237314705
10
-177.17550912735408
20
172.28057775423409
10
-177.17550879213621
20
184.28057775423409
42
0.41421356237307422
10
-178.1755087642014
20
185.28057778216893
10
-190.17550876420142
20
185.28057811738663
42
0.41421356237310542
10
-191.17550879213616
20
184.28057814532161
0
LWPOLYLINE
5
494
100
AcDbEntity
8
0
100
AcDbPolyline
90
8
70
1
43
0.0
10
-154.36301036067624
20
128.13057711697101
42
-0.41421356237310542
10
-153.36301038861103
20
127.13057708903619
10
-153.36301072382889
20
115.13057708903624
42
-0.4142135623730846
10
-154.36301075176374
20
114.1305771169711
10
-166.36301075176374
20
114.13057745218886
42
-0.41421356237311585
10
-167.36301072382898
20
115.13057748012372
10
-167.36301038861092
20
127.13057748012369
42
-0.41421356237309503
10
-166.36301036067618
20
128.13057745218885
0
LWPOLYLINE
5
495
100
AcDbEntity
8
0
100
AcDbPolyline
90
8
70
1
43
0.0
10
-249.61301075176377
20
114.13057977776251
10
-261.6130107517638
20
114.13058011298034
42
-0.41421356237307422
10
-262.61301072382884
20
115.13058014091513
10
-262.61301038861097
20
127.13058014091514
42
-0.41421356237311063
10
-261.61301036067613
20
128.13058011298028
10
-249.6130103606763
20
128.13057977776248
42
-0.41421356237312101
10
-248.613010388611
20
127.13057974982769
10
-248.61301072382889
20
115.13057974982772
42
-0.41421356237312623
0
LWPOLYLINE
5
496
100
AcDbEntity
8
0
100
AcDbPolyline
90
8
70
1
43
0.0
10
-148.60050965951226
20
153.23057695599658
10
-148.60050932429448
20
165.23057695599664
42
0.41421356237304302
10
-149.60050929635963
20
166.23057698393148
10
-161.60050929635963
20
166.23057731914923
42
0.41421356237311585
10
-162.60050932429442
20
165.23057734708414
10
-162.60050965951234
20
153.23057734708411
42
0.41421356237314705
10
-161.6005096874471
20
152.23057731914929
10
-149.6005096874471
20
152.23057698393146
42
0.41421356237309503
0
ELLIPSE
5
497
100
AcDbEntity
8
0
100
AcDbEllipse
10
-65.597090990852024
20
104.06196976086704
30
-1.8246426591872481e-08
11
-0.00019192140511492561
21
0.25970769845567804
31
0.0
40
1
41
4.7501207093259943
42
6.2831853071797283
0
ELLIPSE
5
498
100
AcDbEntity
8
0
100
AcDbEllipse
10
-355.11151651366384
20
158.79019418015795
30
-2.7842581573622738e-08
11
0.00019430284311283688
21
-0.2597076966848989
31
0.0
40
1
41
0.037722552431567892
42
1.5707962732053087
0
LWPOLYLINE
5
499
100
AcDbEntity
8
0
100
AcDbPolyline
90
14
70
1
43
0.0
10
-231.94425859519572
20
191.33057928418933
10
-231.944258259978
20
203.33057928418921
42
0.41421356237309503
10
-232.94425823204318
20
204.33057931212392
10
-244.94425823204318
20
204.33057964734184
42
0.41421356237311585
10
-245.94425825997803
20
203.33057967527657
10
-245.94425859519575
20
191.33057967527679
42
0.41421356237314705
10
-244.94425862313057
20
190.33057964734189
10
-241.06300862313063
20
190.33057953891984
42
-0.4142135623730846
10
-240.06300865106542
20
189.33057951098502
42
0.4142135623730534
10
-239.06300867900018
20
188.33057948305023
10
-234.06300867900018
20
188.33057934337614
42
0.41421356237311585
10
-233.06300865106536
20
189.33057931544135
10
-233.06300864534947
20
189.53519678308209
42
-0.28606663487966105
10
-232.50363362027261
20
190.43288803363583
42
0.28606663487962397
0
ELLIPSE
5
500
100
AcDbEntity
8
0
100
AcDbEllipse
10
-358.40780519704248
20
159.5495364320642
30
-2.7975728400519984e-08
11
2.7074590200977719e-20
21
0.24971901816897471
31
0.0
40
1
41
6.2831853071793589
42
7.8539816339744828
0
LWPOLYLINE
5
501
100
AcDbEntity
8
0
100
AcDbPolyline
90
8
70
1
43
0.0
10
-244.85050929635969
20
166.23057964472292
10
-256.85050929635963
20
166.23057997994067
42
0.41421356237306384
10
-257.85050932429442
20
165.2305800078756
10
-257.85050965951234
20
153.23058000787555
42
0.41421356237311585
10
-256.85050968744719
20
152.23057997994067
10
-244.85050968744724
20
152.23057964472289
42
0.41421356237305862
10
-243.8505096595124
20
153.23057961678811
10
-243.85050932429448
20
165.23057961678813
42
0.41421356237312623
0
ELLIPSE
5
502
100
AcDbEntity
8
0
100
AcDbEllipse
10
-65.597090990852024
20
98.97769039853101
30
-1.7354935266666871e-08
11
-0.00019192140512380734
21
0.25970769845567804
31
0.0
40
1
41
4.7501207093259925
42
6.2831853071796431
0
ARC
5
503
100
AcDbEntity
8
0
100
AcDbCircle
10
-358.39781651852667
20
161.33732359298938
30
-2.8289202091968946e-08
40
0.25970776936959999
210
0
220
0
230
1
100
AcDbArc
50
179.9571336124217
51
267.79579056564592
0
LINE
5
504
100
AcDbEntity
8
0
100
AcDbLine
10
-70.17213572520518
20
104.3216774593227
30
-1.8291963499450503e-08
11
-65.597282912257143
21
104.32167745932273
31
8.8817841970012523e-15
0
ARC
5
505
100
AcDbEntity
8
0
100
AcDbCircle
10
-356.41005305168881
20
160.82809658575812
30
4.02199794745183e-05
40
0.24971901816890513
210
-1.1292661089251624e-07
220
1.6065893505438652e-20
230
0.99999999999999378
100
AcDbArc
50
0
51
90.000000000026091
0
LWPOLYLINE
5
506
100
AcDbEntity
8
0
100
AcDbPolyline
90
8
70
1
43
0.0
10
-182.93800982851803
20
147.18057791520849
42
-0.41421356237309503
10
-181.93800985645282
20
146.18057788727359
10
-181.93801019167054
20
134.18057788727364
42
-0.41421356237311585
10
-182.93801021960533
20
133.18057791520843
10
-194.93801021960536
20
133.18057825042629
42
-0.41421356237309503
10
-195.9380101916706
20
134.18057827836117
10
-195.93800985645288
20
146.18057827836114
42
-0.41421356237310025
10
-194.93800982851798
20
147.18057825042627
0
ELLIPSE
5
507
100
AcDbEntity
8
0
100
AcDbEllipse
10
-70.152159028962728
20
104.07275875845329
30
-1.8248318411906439e-08
11
-0.00080031729956076079
21
0.2497177357087034
31
0.0
40
1
41
0.076877388123183427
42
1.5707963267948397
0
ELLIPSE
5
508
100
AcDbEntity
8
0
100
AcDbEllipse
10
-65.597090990865581
20
98.228533201843774
30
-1.722358256017742e-08
11
0.2595156098275011
21
-0.0099886799343273953
31
0.0
40
0.99999999999999956
41
4.7501188740305853
42
6.2831853071796431
0
LINE
5
509
100
AcDbEntity
8
0
100
AcDbLine
10
-70.401876764671442
20
103.31281239729563
30
-1.8115029476462038e-08
11
-70.401876764671442
21
104.07195844115378
31
8.8817841970012523e-15
0
ARC
5
510
100
AcDbEntity
8
0
100
AcDbCircle
10
-68.244304600108038
20
98.218544521909479
30
-4.7236820033518018e-06
40
0.24971901816893963
210
6.8964878433183293e-08
220
4.9057630604776178e-21
230
0.99999999999999767
100
AcDbArc
50
180
51
269.99999999999676
0
LINE
5
511
100
AcDbEntity
8
0
100
AcDbLine
10
-68.7537316257974
20
103.05310438977534
30
-1.8023991188442775e-08
11
-70.152157746502482
21
103.05310438977531
31
8.8817841970012523e-15
0
LINE
5
512
100
AcDbEntity
8
0
100
AcDbLine
10
-358.40780519704253
20
162.35637575762081
30
-2.846787694466002e-08
11
-355.10152783514809
21
162.35637575762081
31
8.8817841970012523e-15
0
ELLIPSE
5
513
100
AcDbEntity
8
0
100
AcDbEllipse
10
-65.597090990865581
20
103.3327900665813
30
-1.8118564426572448e-08
11
0.2595156098275011
21
-0.0099886799343273953
31
0.0
40
0.99999999999999956
41
4.7501188740305267
42
6.2831853071795294
0
ELLIPSE
5
514
100
AcDbEntity
8
0
100
AcDbEllipse
10
-358.39781651852661
20
162.09686014773862
30
-2.8422375564218783e-08
11
-0.00019430284311283688
21
0.2597076966848989
31
0.0
40
1
41
0.037722552432249527
42
1.5707963267946692
0
LINE
5
515
100
AcDbEntity
8
0
100
AcDbLine
10
-68.494023618277126
20
98.218544521909479
30
8.8817842011371554e-15
11
-68.494023618277112
21
102.80338537160637
31
1.7763568394002501e-14
0
LINE
5
516
100
AcDbEntity
8
0
100
AcDbLine
10
-65.597283388558367
20
97.968825503740504
30
-1.722358256017742e-08
11
-68.24430460010818
21
97.968825503740504
31
8.8817841970012523e-15
0
LINE
5
517
100
AcDbEntity
8
0
100
AcDbLine
10
-358.65752421521154
20
161.33751789583255
30
-2.8289202091968946e-08
11
-358.65752421521159
21
162.09666584489554
31
1.7763568394002505e-14
0
LWPOLYLINE
5
518
100
AcDbEntity
8
0
100
AcDbPolyline
90
8
70
1
43
0.0
10
-124.50050965951228
20
153.23057628276752
42
0.41421356237310025
10
-123.50050968744713
20
152.23057625483273
10
-111.50050968744708
20
152.23057591961498
42
0.41421356237308982
10
-110.50050965951236
20
153.23057589168002
10
-110.50050932429443
20
165.23057589168002
42
0.41421356237309503
10
-111.5005092963597
20
166.23057591961492
10
-123.50050929635961
20
166.23057625483256
42
0.41421356237312101
10
-124.50050932429436
20
165.23057628276746
0
LWPOLYLINE
5
519
100
AcDbEntity
8
0
100
AcDbPolyline
90
8
70
1
43
0.0
10
-191.46301038861111
20
127.13057815335281
10
-191.46301072382892
20
115.13057815335287
42
-0.41421356237311585
10
-192.46301075176376
20
114.13057818128763
10
-204.46301075176365
20
114.13057851650542
42
-0.41421356237308982
10
-205.46301072382889
20
115.13057854444023
10
-205.46301038861102
20
127.13057854444024
42
-0.41421356237313145
10
-204.46301036067624
20
128.13057851650544
10
-192.46301036067635
20
128.13057818128763
42
-0.41421356237314705
0
LWPOLYLINE
5
520
100
AcDbEntity
8
0
100
AcDbPolyline
90
8
70
1
43
0.0
10
-317.38175825997803
20
203.33058167087017
42
-0.41421356237311585
10
-316.38175823204324
20
204.33058164293541
10
-302.00050823204293
20
204.33058124119785
42
-0.41421356237304302
10
-301.00050825997801
20
203.330581213263
10
-301.0005085951957
20
191.33058121326312
42
-0.41421356237312623
10
-302.00050862313049
20
190.3305812411979
10
-316.38175862313051
20
190.3305816429355
42
-0.41421356237313667
10
-317.38175859519572
20
191.3305816708704
0
LWPOLYLINE
5
521
100
AcDbEntity
8
0
100
AcDbPolyline
90
8
70
1
43
0.0
10
-142.55050968744709
20
152.23057678699112
42
-0.41421356237309503
10
-143.55050965951219
20
153.2305768149258
10
-143.55050932429438
20
165.23057681492585
42
-0.41421356237307422
10
-142.55050929635968
20
166.23057678699098
10
-130.55050929635962
20
166.23057645177312
42
-0.41421356237307422
10
-129.55050932429452
20
165.23057642383836
10
-129.55050965951227
20
153.2305764238383
42
-0.41421356237310025
10
-130.55050968744706
20
152.23057645177312
0
LWPOLYLINE
5
522
100
AcDbEntity
8
0
100
AcDbPolyline
90
8
70
1
43
0.0
10
-200.988011053809
20
103.31807841943188
42
0.41421356237311585
10
-201.98801102587413
20
104.3180784473667
10
-213.98801102587413
20
104.31807878258459
42
0.41421356237308982
10
-214.98801105380892
20
103.31807881051937
10
-214.98801138902681
20
91.318078810519566
42
0.41421356237310025
10
-213.98801141696143
20
90.318078782584692
10
-201.98801141696163
20
90.318078447366972
42
0.41421356237307422
10
-200.98801138902675
20
91.31807841943214
0
LWPOLYLINE
5
523
100
AcDbEntity
8
0
100
AcDbPolyline
90
8
70
1
43
0.0
10
-200.70050965951236
20
153.23057841140067
10
-200.70050932429456
20
165.2305784114007
42
-0.41421356237311585
10
-199.70050929635963
20
166.23057838346594
10
-187.70050929635968
20
166.23057804824811
42
-0.41421356237311585
10
-186.70050932429447
20
165.23057802031315
10
-186.70050965951233
20
153.23057802031317
42
-0.41421356237307422
10
-187.70050968744721
20
152.23057804824802
10
-199.70050968744718
20
152.23057838346588
42
-0.41421356237308982
0
LWPOLYLINE
5
524
100
AcDbEntity
8
0
100
AcDbPolyline
90
8
70
1
43
0.0
10
-172.4130103886111
20
127.13057762119449
10
-172.41301072382882
20
115.1305776211945
42
-0.41421356237307422
10
-173.41301075176372
20
114.13057764912932
10
-185.41301075176375
20
114.13057798434721
42
-0.41421356237307422
10
-186.41301072382888
20
115.13057801228197
10
-186.41301038861099
20
127.13057801228194
42
-0.41421356237309503
10
-185.41301036067611
20
128.1305779843471
10
-173.41301036067625
20
128.13057764912926
42
-0.41421356237311063
0
LWPOLYLINE
5
525
100
AcDbEntity
8
0
100
AcDbPolyline
90
8
70
1
43
0.0
10
-194.93801141696156
20
90.318078250426566
10
-182.93801141696156
20
90.318077915208733
42
0.41421356237310542
10
-181.93801138902677
20
91.318077887273859
10
-181.93801105380885
20
103.31807788727363
42
0.41421356237309503
10
-182.93801102587409
20
104.31807791520842
10
-194.93801102587412
20
104.31807825042634
42
0.41421356237312101
10
-195.93801105380891
20
103.31807827836109
10
-195.93801138902677
20
91.318078278361355
42
0.41421356237305862
0
LWPOLYLINE
5
526
100
AcDbEntity
8
0
100
AcDbPolyline
90
8
70
1
43
0.0
10
-138.78801019167065
20
134.18057668188627
42
0.4142135623730846
10
-137.78801021960541
20
133.18057665395139
10
-125.78801021960544
20
133.18057631873361
42
0.41421356237311585
10
-124.78801019167064
20
134.18057629079874
10
-124.7880098564528
20
146.18057629079883
42
0.41421356237310025
10
-125.78800982851796
20
147.18057631873359
10
-137.78800982851794
20
147.18057665395145
42
0.4142135623730846
10
-138.78800985645279
20
146.18057668188627
0
LWPOLYLINE
5
527
100
AcDbEntity
8
0
100
AcDbPolyline
90
8
70
1
43
0.0
10
-162.88800985645284
20
146.18057735511536
42
0.41421356237308982
10
-163.88800982851791
20
147.18057738305015
10
-175.88800982851802
20
147.18057771826798
42
0.41421356237308982
10
-176.88800985645284
20
146.18057774620286
10
-176.8880101916707
20
134.18057774620277
42
0.41421356237309503
10
-175.88801021960541
20
133.18057771826795
10
-163.88801021960529
20
133.18057738305015
42
0.41421356237308982
10
-162.88801019167053
20
134.18057735511533
0
LWPOLYLINE
5
528
100
AcDbEntity
8
0
100
AcDbPolyline
90
8
70
1
43
0.0
10
-221.03800982851811
20
147.18057897952505
42
-0.41421356237313667
10
-220.03800985645285
20
146.18057895159015
10
-220.03801019167054
20
134.18057895159023
42
-0.41421356237310542
10
-221.03801021960547
20
133.18057897952502
10
-233.03801021960544
20
133.18057931474286
42
-0.41421356237306384
10
-234.03801019167048
20
134.18057934267767
10
-234.03800985645285
20
146.18057934267767
42
-0.41421356237307422
10
-233.03800982851797
20
147.18057931474286
0
ELLIPSE
5
529
100
AcDbEntity
8
0
100
AcDbEllipse
10
-148.68379473268769
20
192.38259202641828
30
-3.3732732163116452e-08
11
6.9852442718520755e-20
21
1.2885501337517451
31
0.0
40
1
41
0
42
6.2831853071795862
0
ELLIPSE
5
530
100
AcDbEntity
8
0
100
AcDbEllipse
10
-191.27587047158241
20
192.38259202641828
30
-3.3732732163116452e-08
11
6.9852442718519804e-20
21
1.2885501337517271
31
0.0
40
1
41
0
42
6.2831853071795862
0
ELLIPSE
5
531
100
AcDbEntity
8
0
100
AcDbEllipse
10
-134.26002424324963
20
202.07168993137319
30
-3.5431639844318852e-08
11
6.9852442718520755e-20
21
1.2885501337517451
31
0.0
40
1
41
0
42
6.2831853071795862
0
ELLIPSE
5
532
100
AcDbEntity
8
0
100
AcDbEllipse
10
-141.4719094879687
20
192.38259202641828
30
-3.3732732163116452e-08
11
6.9852442718520755e-20
21
1.2885501337517451
31
0.0
40
1
41
0
42
6.2831853071795862
0
ELLIPSE
5
533
100
AcDbEntity
8
0
100
AcDbEllipse
10
-194.88181309394184
20
202.07168993137319
30
-3.5431639844318852e-08
11
6.9852442718519804e-20
21
1.2885501337517271
31
0.0
40
1
41
0
42
6.2831853071795862
0
ELLIPSE
5
534
100
AcDbEntity
8
0
100
AcDbEllipse
10
-209.29559482265319
20
202.07168993137319
30
-3.5431639844318852e-08
11
6.9852442718519804e-20
21
1.2885501337517271
31
0.0
40
1
41
0
42
6.2831853071795862
0
ELLIPSE
5
535
100
AcDbEntity
8
0
100
AcDbEllipse
10
-145.07785211032819
20
202.07168993137319
30
-3.5431639844318852e-08
11
6.9852442718520755e-20
21
1.2885501337517451
31
0.0
40
1
41
0
42
6.2831853071795862
0
ELLIPSE
5
536
100
AcDbEntity
8
0
100
AcDbEllipse
10
-202.0837095779342
20
202.07168993137319
30
-3.5431639844318852e-08
11
6.9852442718519804e-20
21
1.2885501337517271
31
0.0
40
1
41
0
42
6.2831853071795862
0
ELLIPSE
5
537
100
AcDbEntity
8
0
100
AcDbEllipse
10
-191.27587047158229
20
202.07168993137319
30
-3.5431639844318852e-08
11
6.9852442718519804e-20
21
1.2885501337517271
31
0.0
40
1
41
0
42
6.2831853071795862
0
ELLIPSE
5
538
100
AcDbEntity
8
0
100
AcDbEllipse
10
-134.26002424324957
20
192.38259202641828
30
-3.3732732163116452e-08
11
6.9852442718520755e-20
21
1.2885501337517451
31
0.0
40
1
41
0
42
6.2831853071795862
0
ELLIPSE
5
539
100
AcDbEntity
8
0
100
AcDbEllipse
10
-205.68965220029369
20
202.07168993137319
30
-3.5431639844318852e-08
11
6.9852442718519804e-20
21
1.2885501337517271
31
0.0
40
1
41
0
42
6.2831853071795862
0
ELLIPSE
5
540
100
AcDbEntity
8
0
100
AcDbEllipse
10
-194.88181309394193
20
192.38259202641828
30
-3.3732732163116452e-08
11
6.9852442718519804e-20
21
1.2885501337517271
31
0.0
40
1
41
0
42
6.2831853071795862
0
ELLIPSE
5
541
100
AcDbEntity
8
0
100
AcDbEllipse
10
-155.8956799774067
20
192.38259202641828
30
-3.3732732163116452e-08
11
6.9852442718520755e-20
21
1.2885501337517451
31
0.0
40
1
41
0
42
6.2831853071795862
0
ELLIPSE
5
542
100
AcDbEntity
8
0
100
AcDbEllipse
10
-137.86596686560915
20
192.38259202641828
30
-3.3732732163116452e-08
11
6.9852442718520755e-20
21
1.2885501337517451
31
0.0
40
1
41
0
42
6.2831853071795862
0
ELLIPSE
5
543
100
AcDbEntity
8
0
100
AcDbEllipse
10
-209.29559482265319
20
192.38259202641828
30
-3.3732732163116452e-08
11
6.9852442718519804e-20
21
1.2885501337517271
31
0.0
40
1
41
0
42
6.2831853071795862
0
ELLIPSE
5
544
100
AcDbEntity
8
0
100
AcDbEllipse
10
-202.0837095779342
20
192.38259202641828
30
-3.3732732163116452e-08
11
6.9852442718519804e-20
21
1.2885501337517271
31
0.0
40
1
41
0
42
6.2831853071795862
0
ELLIPSE
5
545
100
AcDbEntity
8
0
100
AcDbEllipse
10
-198.47776695557471
20
192.38259202641828
30
-3.3732732163116452e-08
11
6.9852442718519804e-20
21
1.2885501337517271
31
0.0
40
1
41
0
42
6.2831853071795862
0
ELLIPSE
5
546
100
AcDbEntity
8
0
100
AcDbEllipse
10
-198.47776695557471
20
202.07168993137319
30
-3.5431639844318852e-08
11
6.9852442718519804e-20
21
1.2885501337517271
31
0.0
40
1
41
0
42
6.2831853071795862
0
ELLIPSE
5
547
100
AcDbEntity
8
0
100
AcDbEllipse
10
-145.07785211032819
20
192.38259202641828
30
-3.3732732163116452e-08
11
6.9852442718520755e-20
21
1.2885501337517451
31
0.0
40
1
41
0
42
6.2831853071795862
0
ELLIPSE
5
548
100
AcDbEntity
8
0
100
AcDbEllipse
10
-148.68379473268769
20
202.07168993137319
30
-3.5431639844318852e-08
11
6.9852442718520755e-20
21
1.2885501337517451
31
0.0
40
1
41
0
42
6.2831853071795862
0
ELLIPSE
5
549
100
AcDbEntity
8
0
100
AcDbEllipse
10
-130.65408162089011
20
202.07168993137319
30
-3.5431639844318852e-08
11
6.9852442718520755e-20
21
1.2885501337517451
31
0.0
40
1
41
0
42
6.2831853071795862
0
ELLIPSE
5
550
100
AcDbEntity
8
0
100
AcDbEllipse
10
-155.8956799774067
20
202.07168993137319
30
-3.5431639844318852e-08
11
6.9852442718520755e-20
21
1.2885501337517451
31
0.0
40
1
41
0
42
6.2831853071795862
0
ELLIPSE
5
551
100
AcDbEntity
8
0
100
AcDbEllipse
10
-141.4719094879687
20
202.07168993137319
30
-3.5431639844318852e-08
11
6.9852442718520755e-20
21
1.2885501337517451
31
0.0
40
1
41
0
42
6.2831853071795862
0
ELLIPSE
5
552
100
AcDbEntity
8
0
100
AcDbEllipse
10
-205.68965220029369
20
192.38259202641828
30
-3.3732732163116452e-08
11
6.9852442718519804e-20
21
1.2885501337517271
31
0.0
40
1
41
0
42
6.2831853071795862
0
ELLIPSE
5
553
100
AcDbEntity
8
0
100
AcDbEllipse
10
-152.28973735504718
20
202.07168993137319
30
-3.5431639844318852e-08
11
6.9852442718520755e-20
21
1.2885501337517451
31
0.0
40
1
41
0
42
6.2831853071795862
0
ELLIPSE
5
554
100
AcDbEntity
8
0
100
AcDbEllipse
10
-137.86596686560915
20
202.07168993137319
30
-3.5431639844318852e-08
11
6.9852442718520755e-20
21
1.2885501337517451
31
0.0
40
1
41
0
42
6.2831853071795862
0
ELLIPSE
5
555
100
AcDbEntity
8
0
100
AcDbEllipse
10
-130.65408162089011
20
192.38259202641831
30
-3.3732732163116452e-08
11
6.9852442718520755e-20
21
1.2885501337517451
31
0.0
40
1
41
0
42
6.2831853071795862
0
ELLIPSE
5
556
100
AcDbEntity
8
0
100
AcDbEllipse
10
-152.28973735504718
20
192.38259202641828
30
-3.3732732163116452e-08
11
6.9852442718520755e-20
21
1.2885501337517451
31
0.0
40
1
41
0
42
6.2831853071795862
0
ENDSEC
0
SECTION
2
OBJECTS
0
DICTIONARY
5
C
100
AcDbDictionary
3
ACAD_GROUP
350
D
3
ACAD_MLINESTYLE
350
17
0
DICTIONARY
5
D
100
AcDbDictionary
0
DICTIONARY
5
1A
330
C
100
AcDbDictionary
0
DICTIONARY
5
17
100
AcDbDictionary
0
ENDSEC
0
EOF
